<svg width="94" height="96" viewBox="0 0 94 96" fill="none" xmlns="http://www.w3.org/2000/svg">
<path d="M11.713 74.2605C7.76155 69.223 8.64258 61.9362 13.68 57.9849C18.7173 54.0336 26.0043 54.9144 29.9556 59.9518C32.4594 63.1446 35.8923 65.4817 39.7805 66.6428C40.2904 64.9341 40.8011 63.2252 41.311 61.5159C38.4834 60.6721 35.9869 58.972 34.1661 56.6493C28.3909 49.2869 17.7413 47.9993 10.3778 53.7743C3.01538 59.5495 1.72783 70.1992 7.50284 77.5627C18.565 91.6662 36.5446 98.459 54.1689 95.1915C53.8437 93.4376 53.5186 91.6845 53.1934 89.9306C37.528 92.8346 21.5445 86.7968 11.7118 74.2607L11.713 74.2605Z" fill="white"/>
<path d="M22.944 65.4538C22.0318 64.2913 20.3506 64.0884 19.1882 64.9999C18.0257 65.9121 17.8228 67.5932 18.7343 68.7557C26.4946 78.6496 39.0942 83.4324 51.4651 81.1811C56.2029 80.3184 60.7028 78.4561 64.6645 75.718C63.6505 74.2508 62.6364 72.7843 61.6224 71.317C49.2071 79.8979 32.2585 77.3285 22.9435 65.4539L22.944 65.4538Z" fill="white"/>
<path d="M57.3816 81.4372C42.9297 86.5934 26.7998 81.929 17.3303 69.8557C15.8106 67.9179 16.1497 65.1157 18.0868 63.5961C20.0247 62.0765 22.8268 62.4155 24.3464 64.3527C31.9423 74.0371 45.1645 77.2888 56.3864 72.233C55.6538 70.6071 54.9213 68.9813 54.188 67.3548C45.2114 71.4002 34.6325 68.798 28.556 61.0507C25.2127 56.7879 19.047 56.043 14.7841 59.3863C10.5213 62.7297 9.77635 68.8954 13.1197 73.1582C24.8003 88.0504 45.1541 93.0172 62.3818 85.1807C61.6434 83.5571 60.9051 81.9341 60.1661 80.3106C59.2539 80.7252 58.3278 81.1006 57.3829 81.4374L57.3816 81.4372Z" fill="white"/>
<path d="M42.3805 26.654C47.7439 25.8901 51.472 20.9225 50.7082 15.5598C49.9437 10.1964 44.9768 6.46832 39.6141 7.23203C20.8762 9.90175 6.39718 25.0441 4.57031 43.8829C6.34526 44.0553 8.12013 44.227 9.89597 44.3994C9.99272 43.4013 10.1309 42.4113 10.3113 41.4248C13.0719 26.3304 25.1766 14.6941 40.3662 12.5302C42.8038 12.1832 45.0618 13.8774 45.4088 16.315C45.7558 18.7527 44.0615 21.0107 41.6239 21.3584C29.4392 23.094 20.0125 32.9196 18.7797 45.1653C20.554 45.3436 22.329 45.5225 24.1032 45.7007C25.0896 35.9036 32.6317 28.0437 42.3794 26.6555L42.3805 26.654Z" fill="white"/>
<path d="M41.3675 19.5912C42.8304 19.3824 43.8465 18.0279 43.6385 16.5658C43.4304 15.1029 42.0752 14.086 40.6131 14.2947C28.1651 16.0682 17.7223 24.5887 13.4876 36.4294C11.8654 40.9636 11.2288 45.7923 11.6195 50.592C13.3974 50.4473 15.1746 50.3025 16.9525 50.1577C15.7267 35.1158 26.4267 21.7212 41.3684 19.5927L41.3675 19.5912Z" fill="white"/>
<path d="M39.3556 5.46808C45.6938 4.56531 51.5643 8.97134 52.467 15.3097C53.3697 21.6478 48.9637 27.5184 42.6254 28.421C38.6085 28.9935 34.868 30.7969 31.9182 33.5837C33.1432 34.88 34.3682 36.1764 35.5931 37.4727C37.7377 35.446 40.4583 34.1337 43.3796 33.7176C52.6435 32.3981 59.0828 23.8179 57.7632 14.5551C56.4444 5.29191 47.8642 -1.14812 38.6007 0.17147C20.8555 2.70003 5.9834 14.8752 0 31.772C1.68111 32.367 3.36229 32.9628 5.04334 33.5578C10.3617 18.5384 23.5815 7.7154 39.3553 5.46953L39.3556 5.46808Z" fill="white"/>
<path d="M82.0069 16.5708C80.6509 17.7289 79.2943 18.8876 77.9382 20.0458C88.286 32.1606 91.0481 49.0205 85.1079 63.8049C82.7205 69.7458 75.9698 72.6265 70.0287 70.2391C64.0878 67.8517 61.2071 61.1011 63.5945 55.1599C65.1075 51.3946 65.4152 47.2534 64.4768 43.3063C62.7419 43.7188 61.0069 44.132 59.272 44.5444C59.9551 47.4157 59.7311 50.4273 58.6304 53.1653C55.1417 61.8481 59.3521 71.715 68.0341 75.2032C76.7168 78.6919 86.5837 74.4816 90.0719 65.7988C96.7549 49.1673 93.6472 30.2001 82.0061 16.5703L82.0069 16.5708Z" fill="white"/>
<path d="M71.8707 58.4825C71.32 59.8537 71.9849 61.4112 73.3554 61.9626C74.7266 62.5133 76.2841 61.8484 76.8356 60.4779C81.5239 48.8106 79.3656 35.507 71.2306 25.9202C68.115 22.248 64.2514 19.2822 59.8992 17.2207C59.1353 18.8327 58.3723 20.4441 57.6084 22.056C71.2471 28.5158 77.4972 44.4794 71.8706 58.4835L71.8707 58.4825Z" fill="white"/>
<path d="M78.4918 61.1447C77.5738 63.4297 74.9776 64.5375 72.6926 63.6194C70.4076 62.7014 69.2998 60.1044 70.2179 57.8195C74.8066 46.3994 71.0115 33.3216 61.0223 26.1315C59.9806 27.5791 58.9388 29.0267 57.8965 30.4742C65.8881 36.2261 68.9238 46.6881 65.2531 55.8231C63.2329 60.8497 65.6707 66.5623 70.6972 68.5825C75.7237 70.6027 81.4364 68.165 83.4566 63.1384C90.5136 45.5765 84.6387 25.467 69.2374 14.4648C68.2008 15.9161 67.1641 17.3673 66.1276 18.8186C66.9438 19.4013 67.7316 20.016 68.4962 20.6656C80.1876 30.6038 84.2132 46.9046 78.492 61.1434L78.4918 61.1447Z" fill="white"/>
</svg>
