<svg width="20" height="20" viewBox="0 0 20 20" fill="none" xmlns="http://www.w3.org/2000/svg">
<path d="M14.5152 11.9842C14.2681 11.8601 13.0499 11.26 12.8228 11.178C12.5958 11.095 12.4307 11.054 12.2657 11.302C12.1006 11.5491 11.6255 12.1082 11.4805 12.2732C11.3365 12.4383 11.1915 12.4583 10.9444 12.3342C10.2143 12.0436 9.54041 11.6279 8.95296 11.106C8.41116 10.6052 7.94667 10.0267 7.57466 9.38959C7.43063 9.14154 7.55966 9.00751 7.68368 8.88448C7.79471 8.77345 7.93174 8.59542 8.05476 8.45038C8.15666 8.32518 8.24018 8.18608 8.30282 8.03729C8.33578 7.96892 8.35112 7.89339 8.34745 7.81758C8.34378 7.74176 8.32122 7.66807 8.28181 7.6032C8.2198 7.47917 7.72469 6.2599 7.51865 5.76379C7.3176 5.28169 7.11356 5.3467 6.96052 5.3387C6.81649 5.3317 6.65146 5.3297 6.48642 5.3297C6.36088 5.3332 6.23742 5.36264 6.12381 5.41618C6.0102 5.46971 5.9089 5.54618 5.82628 5.64077C5.54624 5.90596 5.32451 6.22658 5.1752 6.58218C5.0259 6.93779 4.9523 7.3206 4.95909 7.70622C5.0394 8.64066 5.39086 9.53131 5.97031 10.2688C7.03246 11.8612 8.49049 13.15 10.2012 14.0086C10.6627 14.2068 11.1341 14.3811 11.6135 14.5307C12.119 14.6842 12.6533 14.7174 13.1739 14.6277C13.5187 14.5579 13.8452 14.4173 14.1329 14.2148C14.4206 14.0124 14.6631 13.7524 14.8453 13.4515C15.0077 13.0813 15.0578 12.6716 14.9893 12.2732C14.9283 12.1692 14.7632 12.1082 14.5152 11.9842ZM17.0077 2.90317C15.3073 1.20315 13.047 0.178982 10.6477 0.0213432C8.24843 -0.136296 5.87359 0.583335 3.96535 2.04626C2.05712 3.50918 0.745521 5.61571 0.274754 7.97365C-0.196014 10.3316 0.206127 12.7803 1.40631 14.8638L0 19.9999L5.25515 18.6226C6.70863 19.414 8.33721 19.8287 9.99219 19.8289H9.99619C11.9567 19.8279 13.873 19.2458 15.5028 18.1562C17.1327 17.0666 18.403 15.5184 19.1533 13.7071C19.9037 11.8959 20.1003 9.90283 19.7184 7.97986C19.3365 6.05689 18.3932 4.29026 17.0077 2.90316V2.90317ZM14.3741 16.8952C13.062 17.7177 11.5448 18.1541 9.99619 18.1545H9.99219C8.51677 18.1544 7.06853 17.7575 5.79927 17.0052L5.4982 16.8272L2.37952 17.6454L3.2117 14.6047L3.01666 14.2927C2.15102 12.9122 1.71416 11.306 1.76132 9.6773C1.80849 8.04856 2.33756 6.47039 3.28164 5.14233C4.22572 3.81428 5.5424 2.79599 7.06519 2.21623C8.58799 1.63648 10.2485 1.52129 11.8368 1.88524C13.425 2.24919 14.8697 3.07593 15.9881 4.26091C17.1065 5.4459 17.8484 6.93591 18.12 8.54254C18.3916 10.1492 18.1807 11.8003 17.5139 13.287C16.8472 14.7738 15.7545 16.0294 14.3741 16.8952Z" fill="#666666"/>
</svg>
