<svg width="20" height="20" viewBox="0 0 20 20" fill="none" xmlns="http://www.w3.org/2000/svg">
<path d="M4.99935 7.5H1.66602V17.5H4.99935V7.5Z" stroke="#666666" stroke-width="1.5" stroke-linecap="round" stroke-linejoin="round"/>
<path d="M13.334 6.66675C14.6601 6.66675 15.9318 7.19353 16.8695 8.13121C17.8072 9.0689 18.334 10.3407 18.334 11.6667V17.5001H15.0007V11.6667C15.0007 11.2247 14.8251 10.8008 14.5125 10.4882C14.1999 10.1757 13.776 10.0001 13.334 10.0001C12.892 10.0001 12.468 10.1757 12.1555 10.4882C11.8429 10.8008 11.6673 11.2247 11.6673 11.6667V17.5001H8.33398V11.6667C8.33398 10.3407 8.86077 9.0689 9.79845 8.13121C10.7361 7.19353 12.0079 6.66675 13.334 6.66675V6.66675Z" stroke="#666666" stroke-width="1.5" stroke-linecap="round" stroke-linejoin="round"/>
<path d="M3.33268 5.00008C4.25316 5.00008 4.99935 4.25389 4.99935 3.33341C4.99935 2.41294 4.25316 1.66675 3.33268 1.66675C2.41221 1.66675 1.66602 2.41294 1.66602 3.33341C1.66602 4.25389 2.41221 5.00008 3.33268 5.00008Z" stroke="#666666" stroke-width="1.5" stroke-linecap="round" stroke-linejoin="round"/>
</svg>
