<svg width="29" height="30" viewBox="0 0 29 30" fill="none" xmlns="http://www.w3.org/2000/svg">
<rect width="28.0952" height="30" rx="4" fill="#EDFFF7"/>
<path d="M12.666 15.667C12.9523 16.0497 13.3176 16.3664 13.737 16.5956C14.1565 16.8248 14.6204 16.961 15.0971 16.9952C15.5739 17.0293 16.0524 16.9605 16.5002 16.7935C16.9481 16.6264 17.3548 16.365 17.6927 16.027L19.6927 14.027C20.2999 13.3983 20.6359 12.5563 20.6283 11.6823C20.6207 10.8083 20.2701 9.97227 19.6521 9.35424C19.0341 8.73621 18.198 8.38565 17.324 8.37806C16.45 8.37046 15.608 8.70644 14.9793 9.31364L13.8327 10.4536" stroke="#00BD62" stroke-width="1.5" stroke-linecap="round" stroke-linejoin="round"/>
<path d="M15.3335 14.3338C15.0472 13.9511 14.6819 13.6344 14.2624 13.4052C13.843 13.176 13.3791 13.0397 12.9024 13.0056C12.4256 12.9714 11.9471 13.0402 11.4992 13.2073C11.0514 13.3743 10.6447 13.6358 10.3068 13.9738L8.3068 15.9738C7.69961 16.6025 7.36363 17.4445 7.37122 18.3185C7.37881 19.1925 7.72938 20.0285 8.3474 20.6465C8.96543 21.2646 9.80147 21.6151 10.6755 21.6227C11.5495 21.6303 12.3915 21.2943 13.0201 20.6871L14.1601 19.5471" stroke="#00BD62" stroke-width="1.5" stroke-linecap="round" stroke-linejoin="round"/>
</svg>
