<svg width="29" height="30" viewBox="0 0 29 30" fill="none" xmlns="http://www.w3.org/2000/svg">
<rect width="28.0952" height="30" rx="4" fill="#EDFFF7"/>
<path d="M13.9993 16.333C13.8225 16.333 13.653 16.4032 13.5279 16.5283C13.4029 16.6533 13.3327 16.8229 13.3327 16.9997V18.333C13.3327 18.5098 13.4029 18.6794 13.5279 18.8044C13.653 18.9294 13.8225 18.9997 13.9993 18.9997C14.1762 18.9997 14.3457 18.9294 14.4708 18.8044C14.5958 18.6794 14.666 18.5098 14.666 18.333V16.9997C14.666 16.8229 14.5958 16.6533 14.4708 16.5283C14.3457 16.4032 14.1762 16.333 13.9993 16.333ZM14.2527 14.3863C14.132 14.3304 13.9973 14.3118 13.866 14.333L13.746 14.373L13.626 14.433L13.526 14.513C13.4626 14.5769 13.4128 14.6529 13.3796 14.7366C13.3463 14.8202 13.3304 14.9097 13.3327 14.9997C13.3322 15.0874 13.349 15.1744 13.3822 15.2556C13.4153 15.3368 13.4642 15.4107 13.526 15.473C13.5894 15.5337 13.6642 15.5813 13.746 15.613C13.8251 15.6503 13.9119 15.6686 13.9993 15.6663C14.0871 15.6668 14.1741 15.65 14.2553 15.6169C14.3365 15.5837 14.4104 15.5348 14.4727 15.473C14.5345 15.4107 14.5834 15.3368 14.6165 15.2556C14.6497 15.1744 14.6665 15.0874 14.666 14.9997C14.6665 14.9119 14.6497 14.825 14.6165 14.7437C14.5834 14.6625 14.5345 14.5886 14.4727 14.5263C14.4079 14.4675 14.3335 14.4201 14.2527 14.3863ZM19.3327 12.9597C19.3257 12.8984 19.3123 12.8381 19.2927 12.7797V12.7197C19.2606 12.6511 19.2179 12.5881 19.166 12.533L15.166 8.53301C15.1109 8.48115 15.0479 8.4384 14.9793 8.40634H14.9127C14.8479 8.37168 14.7782 8.34696 14.706 8.33301H10.666C10.1356 8.33301 9.62687 8.54372 9.2518 8.91879C8.87673 9.29387 8.66602 9.80257 8.66602 10.333V19.6663C8.66602 20.1968 8.87673 20.7055 9.2518 21.0806C9.62687 21.4556 10.1356 21.6663 10.666 21.6663H17.3327C17.8631 21.6663 18.3718 21.4556 18.7469 21.0806C19.122 20.7055 19.3327 20.1968 19.3327 19.6663V12.9997C19.3327 12.9997 19.3327 12.9997 19.3327 12.9597ZM15.3327 10.6063L17.0593 12.333H15.9993C15.8225 12.333 15.653 12.2628 15.5279 12.1377C15.4029 12.0127 15.3327 11.8432 15.3327 11.6663V10.6063ZM17.9993 19.6663C17.9993 19.8432 17.9291 20.0127 17.8041 20.1377C17.6791 20.2628 17.5095 20.333 17.3327 20.333H10.666C10.4892 20.333 10.3196 20.2628 10.1946 20.1377C10.0696 20.0127 9.99935 19.8432 9.99935 19.6663V10.333C9.99935 10.1562 10.0696 9.98663 10.1946 9.8616C10.3196 9.73658 10.4892 9.66634 10.666 9.66634H13.9993V11.6663C13.9993 12.1968 14.2101 12.7055 14.5851 13.0806C14.9602 13.4556 15.4689 13.6663 15.9993 13.6663H17.9993V19.6663Z" fill="#00BD62"/>
</svg>
