<svg width="29" height="30" viewBox="0 0 29 30" fill="none" xmlns="http://www.w3.org/2000/svg">
<rect width="28.0952" height="30" rx="4" fill="#EDFFF7"/>
<path d="M19.3331 13.4471V13.3338C19.3371 12.1997 18.9773 11.0943 18.3065 10.1799C17.6357 9.26553 16.6893 8.59041 15.6064 8.25377H15.5664C15.0071 8.08326 14.4243 8.00226 13.8397 8.01377C12.4476 8.09017 11.1371 8.69494 10.1757 9.70465C9.21431 10.7144 8.67448 12.0529 8.66638 13.4471C8.27572 13.5845 7.93736 13.8398 7.698 14.1778C7.45863 14.5157 7.33008 14.9196 7.33008 15.3338C7.33008 15.7479 7.45863 16.1518 7.698 16.4898C7.93736 16.8277 8.27572 17.083 8.66638 17.2204C8.8037 18.537 9.42566 19.7554 10.4114 20.6388C11.3971 21.5223 12.6761 22.0076 13.9997 22.0004H14.1531C15.433 21.9385 16.6497 21.425 17.587 20.5512C18.5243 19.6773 19.1217 18.4996 19.2731 17.2271C19.6683 17.0974 20.0133 16.8478 20.26 16.5128C20.5067 16.1779 20.6428 15.7744 20.6494 15.3585C20.656 14.9425 20.5328 14.5349 20.2968 14.1923C20.0609 13.8497 19.724 13.5892 19.3331 13.4471ZM14.1197 20.6671C13.1546 20.695 12.212 20.3729 11.4659 19.7603C10.7197 19.1477 10.2202 18.2858 10.0597 17.3338H17.9064C17.7437 18.235 17.281 19.0548 16.5936 19.6599C15.9062 20.2651 15.0343 20.62 14.1197 20.6671ZM18.6664 16.0004H9.33305C9.15624 16.0004 8.98667 15.9302 8.86165 15.8052C8.73662 15.6802 8.66638 15.5106 8.66638 15.3338C8.66638 15.157 8.73662 14.9874 8.86165 14.8624C8.98667 14.7373 9.15624 14.6671 9.33305 14.6671H10.6664C10.8432 14.6671 11.0128 14.5969 11.1378 14.4718C11.2628 14.3468 11.3331 14.1772 11.3331 14.0004C11.3331 13.8236 11.2628 13.6541 11.1378 13.529C11.0128 13.404 10.8432 13.3338 10.6664 13.3338H9.99972C10.0296 12.6422 10.2272 11.9682 10.5757 11.3701C10.9241 10.7719 11.4128 10.2675 11.9997 9.90044V12.0004C11.9997 12.1772 12.07 12.3468 12.195 12.4718C12.32 12.5969 12.4896 12.6671 12.6664 12.6671C12.8432 12.6671 13.0128 12.5969 13.1378 12.4718C13.2628 12.3468 13.3331 12.1772 13.3331 12.0004V9.39377C13.514 9.36354 13.6965 9.34351 13.8797 9.33377H13.9997C14.2231 9.33692 14.446 9.35697 14.6664 9.39377V12.0004C14.6664 12.1772 14.7366 12.3468 14.8616 12.4718C14.9867 12.5969 15.1562 12.6671 15.3331 12.6671C15.5099 12.6671 15.6794 12.5969 15.8045 12.4718C15.9295 12.3468 15.9997 12.1772 15.9997 12.0004V9.88044C16.2825 10.0442 16.5463 10.2387 16.7864 10.4604C17.1708 10.8337 17.4762 11.2804 17.6846 11.774C17.8931 12.2676 18.0002 12.798 17.9997 13.3338H17.3331C17.1562 13.3338 16.9867 13.404 16.8616 13.529C16.7366 13.6541 16.6664 13.8236 16.6664 14.0004C16.6664 14.1772 16.7366 14.3468 16.8616 14.4718C16.9867 14.5969 17.1562 14.6671 17.3331 14.6671H18.6664C18.8432 14.6671 19.0128 14.7373 19.1378 14.8624C19.2628 14.9874 19.3331 15.157 19.3331 15.3338C19.3331 15.5106 19.2628 15.6802 19.1378 15.8052C19.0128 15.9302 18.8432 16.0004 18.6664 16.0004Z" fill="#00BD62"/>
</svg>
