<svg width="29" height="30" viewBox="0 0 29 30" fill="none" xmlns="http://www.w3.org/2000/svg">
<rect width="28.0952" height="30" rx="4" fill="#EDFFF7"/>
<path d="M14.666 16.333H11.9993C11.8225 16.333 11.653 16.4032 11.5279 16.5283C11.4029 16.6533 11.3327 16.8229 11.3327 16.9997C11.3327 17.1765 11.4029 17.3461 11.5279 17.4711C11.653 17.5961 11.8225 17.6663 11.9993 17.6663H14.666C14.8428 17.6663 15.0124 17.5961 15.1374 17.4711C15.2624 17.3461 15.3327 17.1765 15.3327 16.9997C15.3327 16.8229 15.2624 16.6533 15.1374 16.5283C15.0124 16.4032 14.8428 16.333 14.666 16.333ZM17.3327 9.66634H16.546C16.4085 9.27731 16.154 8.94034 15.8174 8.70163C15.4808 8.46293 15.0786 8.33417 14.666 8.33301H13.3327C12.9201 8.33417 12.5179 8.46293 12.1813 8.70163C11.8447 8.94034 11.5902 9.27731 11.4527 9.66634H10.666C10.1356 9.66634 9.62687 9.87705 9.2518 10.2521C8.87673 10.6272 8.66602 11.1359 8.66602 11.6663V19.6663C8.66602 20.1968 8.87673 20.7055 9.2518 21.0806C9.62687 21.4556 10.1356 21.6663 10.666 21.6663H17.3327C17.8631 21.6663 18.3718 21.4556 18.7469 21.0806C19.122 20.7055 19.3327 20.1968 19.3327 19.6663V11.6663C19.3327 11.1359 19.122 10.6272 18.7469 10.2521C18.3718 9.87705 17.8631 9.66634 17.3327 9.66634ZM12.666 10.333C12.666 10.1562 12.7363 9.98663 12.8613 9.8616C12.9863 9.73658 13.1559 9.66634 13.3327 9.66634H14.666C14.8428 9.66634 15.0124 9.73658 15.1374 9.8616C15.2624 9.98663 15.3327 10.1562 15.3327 10.333V10.9997H12.666V10.333ZM17.9993 19.6663C17.9993 19.8432 17.9291 20.0127 17.8041 20.1377C17.6791 20.2628 17.5095 20.333 17.3327 20.333H10.666C10.4892 20.333 10.3196 20.2628 10.1946 20.1377C10.0696 20.0127 9.99935 19.8432 9.99935 19.6663V11.6663C9.99935 11.4895 10.0696 11.32 10.1946 11.1949C10.3196 11.0699 10.4892 10.9997 10.666 10.9997H11.3327V11.6663C11.3327 11.8432 11.4029 12.0127 11.5279 12.1377C11.653 12.2628 11.8225 12.333 11.9993 12.333H15.9993C16.1762 12.333 16.3457 12.2628 16.4708 12.1377C16.5958 12.0127 16.666 11.8432 16.666 11.6663V10.9997H17.3327C17.5095 10.9997 17.6791 11.0699 17.8041 11.1949C17.9291 11.32 17.9993 11.4895 17.9993 11.6663V19.6663ZM15.9993 13.6663H11.9993C11.8225 13.6663 11.653 13.7366 11.5279 13.8616C11.4029 13.9866 11.3327 14.1562 11.3327 14.333C11.3327 14.5098 11.4029 14.6794 11.5279 14.8044C11.653 14.9294 11.8225 14.9997 11.9993 14.9997H15.9993C16.1762 14.9997 16.3457 14.9294 16.4708 14.8044C16.5958 14.6794 16.666 14.5098 16.666 14.333C16.666 14.1562 16.5958 13.9866 16.4708 13.8616C16.3457 13.7366 16.1762 13.6663 15.9993 13.6663Z" fill="#00BD62"/>
</svg>
