<svg width="331" height="96" viewBox="0 0 331 96" fill="none" xmlns="http://www.w3.org/2000/svg">
<path d="M108.287 39.4613C108.287 54.492 117.942 66.2314 133.192 66.2314C141.64 66.2314 148.662 62.5011 152.172 56.2474V66.9994C152.172 77.2027 145.59 83.7855 135.496 83.7855C126.5 83.7855 120.575 79.1775 119.258 71.2782H108.945C110.92 84.8826 120.904 93.1111 135.496 93.1111C151.953 93.1111 162.376 82.3592 162.376 65.4634V14.0078H153.16L152.392 23.114C148.991 16.4215 142.298 12.4718 133.631 12.4718C118.052 12.4718 108.287 24.3209 108.287 39.4613ZM118.6 39.2419C118.6 29.3677 124.744 21.4683 135.057 21.4683C145.59 21.4683 151.734 28.9288 151.734 39.2419C151.734 49.7744 145.37 57.2349 134.947 57.2349C124.854 57.2349 118.6 49.3355 118.6 39.2419Z" fill="white"/>
<path d="M194.923 68.9742C208.198 68.9742 217.195 62.5011 219.828 50.9812H210.173C208.418 57.1252 203.151 60.4166 195.142 60.4166C184.939 60.4166 179.014 54.1629 178.246 42.8624L219.718 42.7527V38.9127C219.718 23.0043 209.734 12.4718 194.484 12.4718C178.905 12.4718 168.263 24.1014 168.263 40.8876C168.263 57.564 179.124 68.9742 194.923 68.9742ZM194.484 21.1392C203.59 21.1392 209.405 27.0637 209.405 35.9505H178.466C179.782 26.5151 185.488 21.1392 194.484 21.1392Z" fill="white"/>
<path d="M236.065 67.6576V39.2419C236.065 28.8191 241.66 21.9072 251.315 21.9072C259.214 21.9072 264.261 26.2957 264.261 37.1573V67.6576H274.574V34.8533C274.574 21.1392 268.101 12.4718 253.948 12.4718C246.378 12.4718 239.575 16.0924 236.174 22.2363L235.077 14.0078H225.751V67.6576H236.065Z" fill="white"/>
<path d="M320.456 14.0078V42.3139C320.456 53.8338 315.299 59.868 305.864 59.868C297.964 59.868 293.027 55.4795 293.027 43.9596V14.0078H282.714V47.3607C282.714 60.5263 289.736 68.9742 302.243 68.9742C310.142 68.9742 317.274 65.1342 320.346 59.5388L321.443 67.6576H330.659V14.0078H320.456Z" fill="white"/>
<path d="M11.713 74.2606C7.76155 69.2231 8.64258 61.9363 13.68 57.985C18.7173 54.0336 26.0043 54.9145 29.9556 59.9519C32.4594 63.1447 35.8923 65.4818 39.7805 66.6429C40.2904 64.9342 40.8011 63.2253 41.311 61.516C38.4834 60.6721 35.9869 58.9721 34.1661 56.6494C28.3909 49.287 17.7413 47.9994 10.3778 53.7744C3.01538 59.5496 1.72783 70.1993 7.50284 77.5628C18.565 91.6663 36.5446 98.4591 54.1689 95.1916C53.8437 93.4377 53.5186 91.6846 53.1934 89.9307C37.528 92.8347 21.5445 86.7969 11.7118 74.2608L11.713 74.2606Z" fill="white"/>
<path d="M22.944 65.4532C22.0318 64.2908 20.3506 64.0878 19.1882 64.9993C18.0257 65.9115 17.8228 67.5927 18.7343 68.7551C26.4946 78.649 39.0942 83.4318 51.4651 81.1806C56.2029 80.3178 60.7028 78.4555 64.6645 75.7175C63.6505 74.2502 62.6364 72.7837 61.6224 71.3164C49.2071 79.8973 32.2585 77.3279 22.9435 65.4533L22.944 65.4532Z" fill="white"/>
<path d="M57.3807 81.438C42.9287 86.5941 26.7988 81.9297 17.3293 69.8564C15.8097 67.9186 16.1487 65.1165 18.0858 63.5969C20.0237 62.0772 22.8258 62.4162 24.3454 64.3534C31.9413 74.0378 45.1635 77.2895 56.3854 72.2337C55.6529 70.6079 54.9203 68.982 54.187 67.3555C45.2104 71.4009 34.6315 68.7988 28.555 61.0515C25.2117 56.7886 19.046 56.0437 14.7831 59.3871C10.5203 62.7305 9.77538 68.8961 13.1188 73.159C24.7993 88.0512 45.1531 93.018 62.3808 85.1814C61.6425 83.5578 60.9041 81.9348 60.1651 80.3113C59.2529 80.7259 58.3269 81.1013 57.382 81.4381L57.3807 81.438Z" fill="white"/>
<path d="M42.3805 26.6546C47.7439 25.8908 51.472 20.9232 50.7082 15.5605C49.9437 10.197 44.9768 6.46896 39.6141 7.23267C20.8762 9.90239 6.39718 25.0447 4.57031 43.8836C6.34526 44.056 8.12013 44.2276 9.89597 44.4C9.99272 43.402 10.1309 42.4119 10.3113 41.4255C13.0719 26.331 25.1766 14.6948 40.3662 12.5308C42.8038 12.1838 45.0618 13.8781 45.4088 16.3157C45.7558 18.7534 44.0615 21.0113 41.6239 21.359C29.4392 23.0947 20.0125 32.9202 18.7797 45.166C20.554 45.3442 22.329 45.5232 24.1032 45.7014C25.0896 35.9043 32.6317 28.0443 42.3794 26.6562L42.3805 26.6546Z" fill="white"/>
<path d="M41.3675 19.5905C42.8304 19.3817 43.8465 18.0272 43.6385 16.5651C43.4304 15.1022 42.0752 14.0853 40.6131 14.2941C28.1651 16.0676 17.7223 24.588 13.4876 36.4288C11.8654 40.963 11.2288 45.7916 11.6195 50.5913C13.3974 50.4466 15.1746 50.3018 16.9525 50.1571C15.7267 35.1151 26.4267 21.7205 41.3684 19.592L41.3675 19.5905Z" fill="white"/>
<path d="M39.3556 5.46808C45.6938 4.56531 51.5643 8.97134 52.467 15.3097C53.3697 21.6478 48.9637 27.5184 42.6254 28.421C38.6085 28.9935 34.868 30.7969 31.9182 33.5837C33.1432 34.88 34.3682 36.1764 35.5931 37.4727C37.7377 35.446 40.4583 34.1337 43.3796 33.7176C52.6435 32.3981 59.0828 23.8179 57.7632 14.5551C56.4444 5.29191 47.8642 -1.14812 38.6007 0.17147C20.8555 2.70003 5.9834 14.8752 0 31.772C1.68111 32.367 3.36229 32.9628 5.04334 33.5578C10.3617 18.5384 23.5815 7.7154 39.3553 5.46953L39.3556 5.46808Z" fill="white"/>
<path d="M82.0069 16.5706C80.6509 17.7287 79.2943 18.8875 77.9382 20.0456C88.286 32.1605 91.0481 49.0203 85.1079 63.8047C82.7205 69.7456 75.9698 72.6264 70.0287 70.239C64.0878 67.8516 61.2071 61.1009 63.5945 55.1598C65.1075 51.3945 65.4152 47.2532 64.4768 43.3062C62.7419 43.7186 61.0069 44.1318 59.272 44.5443C59.9551 47.4155 59.7311 50.4271 58.6304 53.1652C55.1417 61.8479 59.3521 71.7149 68.0341 75.203C76.7168 78.6918 86.5837 74.4814 90.0719 65.7987C96.7549 49.1671 93.6472 30.2 82.0061 16.5702L82.0069 16.5706Z" fill="white"/>
<path d="M71.8716 58.4818C71.321 59.853 71.9859 61.4105 73.3564 61.962C74.7276 62.5126 76.2851 61.8477 76.8365 60.4772C81.5249 48.8099 79.3666 35.5064 71.2315 25.9195C68.116 22.2473 64.2524 19.2815 59.9001 17.22C59.1363 18.832 58.3732 20.4434 57.6094 22.0553C71.2481 28.5151 77.4982 44.4787 71.8716 58.4828L71.8716 58.4818Z" fill="white"/>
<path d="M78.4918 61.1439C77.5738 63.4288 74.9776 64.5367 72.6926 63.6186C70.4076 62.7006 69.2998 60.1036 70.2179 57.8186C74.8066 46.3986 71.0115 33.3208 61.0223 26.1306C59.9806 27.5782 58.9388 29.0259 57.8965 30.4734C65.8881 36.2253 68.9238 46.6872 65.2531 55.8223C63.2329 60.8489 65.6707 66.5615 70.6972 68.5817C75.7237 70.6019 81.4364 68.1641 83.4566 63.1376C90.5136 45.5757 84.6387 25.4662 69.2374 14.464C68.2008 15.9153 67.1641 17.3665 66.1276 18.8178C66.9438 19.4004 67.7316 20.0151 68.4962 20.6647C80.1876 30.603 84.2132 46.9038 78.492 61.1426L78.4918 61.1439Z" fill="white"/>
</svg>
