<svg width="986" height="1024" viewBox="0 0 986 1024" fill="none" xmlns="http://www.w3.org/2000/svg">
<g opacity="0.1">
<path d="M167.113 895.566C167.117 895.565 167.119 895.561 167.116 895.558C110.742 823.681 123.314 719.716 195.186 663.34C267.06 606.962 371.032 619.53 427.411 691.404C461.487 734.859 507.626 767.204 559.959 784.475C564.156 785.859 568.618 783.44 569.882 779.206C575.634 759.935 581.392 740.663 587.145 721.386C588.408 717.153 585.994 712.712 581.813 711.284C544.607 698.569 511.818 675.323 487.487 644.283C405.085 539.235 253.134 520.864 148.07 603.263C43.0216 685.665 24.6505 837.616 107.05 942.68C263.236 1141.81 516.071 1238.79 765.003 1195.63C769.356 1194.87 772.238 1190.69 771.432 1186.35C767.765 1166.57 764.098 1146.79 760.43 1127.01C759.625 1122.67 755.439 1119.81 751.084 1120.56C530.106 1158.54 305.755 1072.33 167.11 895.574C167.107 895.571 167.109 895.566 167.113 895.566Z" fill="white"/>
<path d="M327.365 769.895C327.367 769.894 327.367 769.893 327.366 769.891C314.35 753.308 290.365 750.413 273.78 763.417C257.194 776.433 254.298 800.42 267.304 817.006C378.03 958.174 557.804 1026.42 734.314 994.295C799.289 982.463 861.128 957.456 916.028 920.84C919.703 918.389 920.61 913.4 918.098 909.765C906.661 893.22 895.225 876.679 883.789 860.133C881.277 856.498 876.277 855.609 872.594 858.05C696.093 975.051 458.617 937.216 327.364 769.898C327.363 769.897 327.364 769.895 327.365 769.895Z" fill="white"/>
<path d="M818.728 997.978C818.722 997.977 818.716 997.978 818.71 997.98C612.508 1071.54 382.369 1004.99 247.258 832.729C225.575 805.08 230.412 765.098 258.052 743.417C285.702 721.734 325.683 726.571 347.365 754.211C454.093 890.284 638.668 937.35 797.175 869.865C801.24 868.134 803.046 863.383 801.231 859.354C792.969 841.018 784.707 822.68 776.438 804.338C774.623 800.31 769.878 798.532 765.805 800.242C639.342 853.324 492.477 815.532 407.428 707.098C359.726 646.274 271.752 635.646 210.928 683.35C150.105 731.054 139.477 819.027 187.181 879.85C352.189 1090.23 638.508 1161.78 882.738 1054.66C886.784 1052.89 888.579 1048.13 886.75 1044.11C878.422 1025.8 870.094 1007.49 861.76 989.179C859.93 985.159 855.192 983.388 851.143 985.154C840.496 989.795 829.71 994.067 818.746 997.976C818.74 997.978 818.734 997.978 818.728 997.978Z" fill="white"/>
<path d="M604.685 216.329C604.689 216.322 604.697 216.317 604.705 216.316C681.225 205.412 734.411 134.536 723.514 58.0245C712.606 -18.5024 641.737 -71.6948 565.221 -60.798C300.514 -23.0835 95.3767 189.082 66.0372 454.167C65.5512 458.558 68.7732 462.491 73.1703 462.917C93.1884 464.86 113.207 466.798 133.233 468.741C137.631 469.167 141.536 465.947 142.031 461.556C143.334 450.005 145.029 438.521 147.123 427.072C186.512 211.701 359.223 45.6727 575.951 14.7973C610.733 9.84636 642.95 34.0198 647.9 68.8001C652.851 103.581 628.678 135.799 593.897 140.759C422.695 165.147 289.653 301.468 268.838 472.473C268.304 476.86 271.517 480.8 275.913 481.242C295.924 483.254 315.94 485.27 335.949 487.282C340.345 487.723 344.257 484.505 344.813 480.122C362.093 344.059 468.237 235.776 604.664 216.342C604.672 216.341 604.68 216.336 604.685 216.329Z" fill="white"/>
<path d="M590.239 115.517C611.112 112.538 625.61 93.2118 622.642 72.3496C619.674 51.4768 600.337 36.9678 579.475 39.9464C401.864 65.2509 252.865 186.823 192.443 355.769C169.297 420.463 160.215 489.359 165.79 557.843C191.157 555.778 216.514 553.712 241.881 551.647C224.392 337.025 377.06 145.909 590.252 115.538L590.239 115.517Z" fill="white"/>
<path d="M561.531 -85.97C561.533 -85.9763 561.538 -85.981 561.545 -85.9819C651.975 -98.8562 735.731 -35.9916 748.609 54.4417C761.49 144.876 698.624 228.638 608.187 241.517C553.517 249.309 502.435 273.08 461.309 309.768C458.012 312.709 457.876 317.783 460.91 320.995C474.726 335.614 488.54 350.234 502.355 364.853C505.39 368.064 510.443 368.194 513.771 365.288C543.386 339.426 579.911 322.649 618.949 317.09C751.128 298.262 843.005 175.839 824.177 43.6751C805.36 -88.494 682.937 -180.382 550.762 -161.553C300.218 -125.853 89.8138 44.6254 2.71914 281.789C1.1959 285.937 3.37709 290.524 7.54246 291.999C26.5013 298.711 45.4606 305.428 64.4189 312.14C68.5835 313.615 73.154 311.42 74.6829 307.275C152.283 96.8984 339.106 -54.2871 561.518 -85.9581C561.525 -85.9591 561.53 -85.9637 561.531 -85.97Z" fill="white"/>
<path d="M1170.09 72.4349C1170.09 72.4355 1170.09 72.4367 1170.09 72.4374C1152.77 87.2291 1135.44 102.028 1118.12 116.822C1114.76 119.691 1114.38 124.747 1117.2 128.144C1260.59 300.529 1298.1 537.915 1214.34 746.381C1180.27 831.148 1083.95 872.25 999.184 838.186C914.418 804.122 873.315 707.803 907.379 623.034C927.972 571.788 932.917 515.661 921.708 461.714C920.81 457.388 916.485 454.733 912.186 455.755C892.621 460.408 873.055 465.066 853.49 469.719C849.191 470.741 846.552 475.053 847.405 479.388C854.996 517.972 851.259 557.985 836.552 594.574C786.774 718.461 846.848 859.245 970.724 909.015C1094.61 958.793 1235.39 898.719 1285.16 774.832C1380.52 537.533 1336.18 266.909 1170.09 72.4372C1170.09 72.4359 1170.09 72.4339 1170.09 72.4349Z" fill="white"/>
<path d="M1025.48 670.434C1025.48 670.432 1025.48 670.432 1025.48 670.433C1017.62 689.997 1027.11 712.216 1046.66 720.083C1066.23 727.94 1088.45 718.453 1096.32 698.898C1163.21 532.426 1132.42 342.609 1016.35 205.822C973.619 155.46 921.03 114.41 861.868 85.1794C857.907 83.2224 853.134 84.9316 851.242 88.924C842.63 107.103 834.022 125.277 825.409 143.456C823.517 147.449 825.247 152.224 829.203 154.193C1018.78 248.523 1104.76 473.111 1025.48 670.434C1025.48 670.435 1025.48 670.435 1025.48 670.434Z" fill="white"/>
<path d="M1119.94 708.402C1119.94 708.408 1119.94 708.414 1119.93 708.42C1106.83 741.016 1069.79 756.82 1037.19 743.721C1004.59 730.623 988.783 693.569 1001.88 660.966C1066.36 500.507 1014.83 317.11 877.135 213.586C873.603 210.931 868.585 211.743 866.004 215.329C854.256 231.655 842.507 247.98 830.754 264.305C828.172 267.891 829.003 272.89 832.521 275.564C941.721 358.552 982.42 504.625 931.044 632.482C902.22 704.202 937.002 785.711 1008.72 814.535C1080.44 843.36 1161.95 808.578 1190.77 736.858C1290.47 488.765 1209.29 205.04 994.388 47.0808C990.828 44.464 985.81 45.2883 983.242 48.8838C971.552 65.2499 959.862 81.6161 948.172 97.9823C945.604 101.578 946.442 106.57 949.997 109.194C959.349 116.097 968.443 123.307 977.317 130.847C1144.13 272.646 1201.57 505.224 1119.94 708.384C1119.94 708.39 1119.94 708.396 1119.94 708.402Z" fill="white"/>
</g>
</svg>
