<svg width="32" height="32" viewBox="0 0 32 32" fill="none" xmlns="http://www.w3.org/2000/svg">
<path d="M3.90437 24.7536C2.58719 23.0744 2.88087 20.6454 4.56001 19.3283C6.23916 18.0112 8.66817 18.3048 9.98529 19.984C10.8199 21.0482 11.9642 21.8273 13.2603 22.2143C13.4302 21.6447 13.6005 21.0751 13.7705 20.5053C12.8279 20.224 11.9957 19.6574 11.3888 18.8831C9.46372 16.429 5.91381 15.9998 3.45928 17.9248C1.00513 19.8499 0.575935 23.3998 2.50096 25.8543C6.18837 30.5555 12.1816 32.8198 18.0565 31.7306C17.9481 31.146 17.8397 30.5616 17.7313 29.977C12.5094 30.945 7.18155 28.9324 3.90397 24.7536L3.90437 24.7536Z" fill="#00BD62"/>
<path d="M7.648 21.818C7.34393 21.4305 6.78354 21.3629 6.39606 21.6667C6.00857 21.9708 5.94092 22.5312 6.24475 22.9187C8.83156 26.2167 13.0315 27.8109 17.1551 27.0605C18.7344 26.7729 20.2344 26.1522 21.555 25.2395C21.217 24.7504 20.8789 24.2615 20.5409 23.7724C16.4025 26.6328 10.7529 25.7763 7.64784 21.8181L7.648 21.818Z" fill="#00BD62"/>
<path d="M19.127 27.146C14.3097 28.8647 8.93299 27.3099 5.77645 23.2854C5.26991 22.6395 5.38291 21.7054 6.02864 21.1989C6.67459 20.6923 7.60864 20.8053 8.11518 21.4511C10.6472 24.6792 15.0546 25.7631 18.7953 24.0778C18.5511 23.5359 18.3069 22.9939 18.0625 22.4518C15.0702 23.8002 11.5439 22.9329 9.51839 20.3504C8.40395 18.9294 6.3487 18.6811 4.92773 19.7956C3.50676 20.9101 3.25845 22.9653 4.37293 24.3863C8.26649 29.3504 15.0511 31.006 20.7938 28.3938C20.5476 27.8526 20.3015 27.3116 20.0552 26.7704C19.7511 26.9086 19.4424 27.0337 19.1275 27.146L19.127 27.146Z" fill="#00BD62"/>
<path d="M14.1269 8.88522C15.9148 8.63061 17.1575 6.97473 16.9029 5.18714C16.648 3.3993 14.9924 2.15661 13.2048 2.41119C6.95876 3.3011 2.1324 8.34858 1.52344 14.6283C2.11509 14.6857 2.70672 14.743 3.29867 14.8004C3.33092 14.4677 3.37699 14.1377 3.43713 13.8089C4.35734 8.77736 8.39224 4.89857 13.4555 4.17726C14.2681 4.06159 15.0207 4.62634 15.1364 5.43888C15.252 6.25145 14.6873 7.00411 13.8747 7.12001C9.81315 7.69857 6.67089 10.9738 6.25995 15.0557C6.85136 15.1151 7.44305 15.1748 8.03444 15.2342C8.36325 11.9685 10.8773 9.34845 14.1266 8.88574L14.1269 8.88522Z" fill="#00BD62"/>
<path d="M13.7892 6.53071C14.2769 6.46112 14.6156 6.00962 14.5463 5.52223C14.4769 5.0346 14.0252 4.69563 13.5378 4.76522C9.3884 5.35639 5.90746 8.19657 4.49586 12.1435C3.95513 13.6549 3.74295 15.2645 3.87318 16.8644C4.46581 16.8162 5.0582 16.7679 5.65084 16.7197C5.24226 11.7056 8.80893 7.24073 13.7896 6.53121L13.7892 6.53071Z" fill="#00BD62"/>
<path d="M13.1187 1.82271C15.2314 1.52178 17.1883 2.99047 17.4891 5.10327C17.7901 7.21601 16.3214 9.17288 14.2086 9.47376C12.8696 9.66459 11.6228 10.2657 10.6395 11.1947C11.0478 11.6268 11.4562 12.0589 11.8645 12.491C12.5793 11.8154 13.4862 11.378 14.46 11.2393C17.548 10.7994 19.6944 7.93938 19.2546 4.85174C18.815 1.76398 15.9549 -0.382709 12.867 0.0571573C6.95189 0.900018 1.99448 4.95845 0 10.5907C0.560374 10.7891 1.12077 10.9877 1.68113 11.186C3.45394 6.17952 7.86055 2.57182 13.1185 1.82319L13.1187 1.82271Z" fill="#00BD62"/>
<path d="M27.3357 5.5232C26.8837 5.90924 26.4315 6.29548 25.9795 6.68153C29.4288 10.7198 30.3495 16.3399 28.3694 21.268C27.5736 23.2484 25.3233 24.2086 23.3429 23.4128C21.3626 22.617 20.4024 20.3667 21.1982 18.3864C21.7025 17.1313 21.8051 15.7508 21.4923 14.4351C20.914 14.5726 20.3357 14.7103 19.7574 14.8478C19.985 15.8049 19.9104 16.8088 19.5435 17.7215C18.3806 20.6158 19.784 23.9048 22.678 25.0675C25.5723 26.2304 28.8613 24.827 30.0241 21.9327C32.2518 16.3888 31.2158 10.0663 27.3354 5.52304L27.3357 5.5232Z" fill="#00BD62"/>
<path d="M23.9573 19.4945C23.7737 19.9516 23.9953 20.4708 24.4522 20.6546C24.9092 20.8381 25.4284 20.6165 25.6122 20.1597C27.175 16.2705 26.4556 11.836 23.7439 8.64033C22.7054 7.41627 21.4175 6.42765 19.9667 5.74048C19.7121 6.27782 19.4577 6.81494 19.2031 7.35227C23.7494 9.50554 25.8328 14.8268 23.9572 19.4949L23.9573 19.4945Z" fill="#00BD62"/>
<path d="M26.164 20.381C25.858 21.1426 24.9926 21.5119 24.2309 21.2059C23.4692 20.8999 23.1 20.0342 23.406 19.2726C24.9356 15.4658 23.6705 11.1065 20.3408 8.7098C19.9935 9.19233 19.6463 9.67488 19.2988 10.1574C21.9627 12.0747 22.9746 15.5621 21.7511 18.6071C21.0777 20.2827 21.8902 22.1869 23.5658 22.8603C25.2413 23.5337 27.1455 22.7211 27.8189 21.0456C30.1713 15.1915 28.213 8.48831 23.0792 4.82089C22.7336 5.30465 22.3881 5.7884 22.0426 6.27215C22.3146 6.46638 22.5772 6.67128 22.8321 6.88782C26.7293 10.2006 28.0711 15.6343 26.1641 20.3805L26.164 20.381Z" fill="#00BD62"/>
</svg>
