<svg width="16" height="16" viewBox="0 0 16 16" fill="none" xmlns="http://www.w3.org/2000/svg">
<path d="M7.33399 5.99992H8.66732C8.84413 5.99992 9.0137 6.07016 9.13872 6.19518C9.26375 6.32021 9.33399 6.48977 9.33399 6.66659C9.33399 6.8434 9.40423 7.01297 9.52925 7.13799C9.65427 7.26301 9.82384 7.33325 10.0007 7.33325C10.1775 7.33325 10.347 7.26301 10.4721 7.13799C10.5971 7.01297 10.6673 6.8434 10.6673 6.66659C10.6673 6.13615 10.4566 5.62744 10.0815 5.25237C9.70646 4.8773 9.19775 4.66659 8.66732 4.66659H7.33399C6.80355 4.66659 6.29485 4.8773 5.91977 5.25237C5.5447 5.62744 5.33399 6.13615 5.33399 6.66659V9.33325C5.33399 9.86369 5.5447 10.3724 5.91977 10.7475C6.29485 11.1225 6.80355 11.3333 7.33399 11.3333H8.66732C9.19775 11.3333 9.70646 11.1225 10.0815 10.7475C10.4566 10.3724 10.6673 9.86369 10.6673 9.33325C10.6673 9.15644 10.5971 8.98687 10.4721 8.86185C10.347 8.73682 10.1775 8.66659 10.0007 8.66659C9.82384 8.66659 9.65427 8.73682 9.52925 8.86185C9.40423 8.98687 9.33399 9.15644 9.33399 9.33325C9.33399 9.51006 9.26375 9.67963 9.13872 9.80466C9.0137 9.92968 8.84413 9.99992 8.66732 9.99992H7.33399C7.15718 9.99992 6.98761 9.92968 6.86258 9.80466C6.73756 9.67963 6.66732 9.51006 6.66732 9.33325V6.66659C6.66732 6.48977 6.73756 6.32021 6.86258 6.19518C6.98761 6.07016 7.15718 5.99992 7.33399 5.99992ZM8.00065 1.33325C6.68211 1.33325 5.39318 1.72425 4.29685 2.45679C3.20052 3.18933 2.34604 4.23052 1.84146 5.4487C1.33687 6.66687 1.20485 8.00731 1.46209 9.30052C1.71932 10.5937 2.35426 11.7816 3.28661 12.714C4.21896 13.6463 5.40685 14.2813 6.70005 14.5385C7.99326 14.7957 9.3337 14.6637 10.5519 14.1591C11.7701 13.6545 12.8112 12.8 13.5438 11.7037C14.2763 10.6074 14.6673 9.31846 14.6673 7.99992C14.6673 7.12444 14.4949 6.25753 14.1599 5.4487C13.8248 4.63986 13.3338 3.90493 12.7147 3.28587C12.0956 2.66682 11.3607 2.17575 10.5519 1.84072C9.74304 1.50569 8.87613 1.33325 8.00065 1.33325ZM8.00065 13.3333C6.94582 13.3333 5.91467 13.0205 5.03761 12.4344C4.16055 11.8484 3.47696 11.0154 3.0733 10.0409C2.66963 9.06636 2.56401 7.994 2.7698 6.95944C2.97559 5.92487 3.48354 4.97456 4.22942 4.22868C4.9753 3.4828 5.92561 2.97485 6.96017 2.76906C7.99474 2.56328 9.06709 2.66889 10.0416 3.07256C11.0162 3.47623 11.8491 4.15982 12.4352 5.03688C13.0212 5.91394 13.334 6.94509 13.334 7.99992C13.334 9.41441 12.7721 10.771 11.7719 11.7712C10.7717 12.7713 9.41514 13.3333 8.00065 13.3333Z" fill="#666666"/>
</svg>
