<svg width="68" height="48" viewBox="0 0 68 48" fill="none" xmlns="http://www.w3.org/2000/svg">
<path d="M12.2657 44.6845C12.2657 46.1578 12.1324 46.8956 11.3752 47.1008L11.0892 47.1772L11.5672 48L11.7201 47.9805C13.2674 47.771 14.086 46.7778 14.086 45.1037V39.1602H12.2657V44.6845ZM15.7625 46.4174H17.5697V39.1598H15.7625V46.4174ZM32.5531 42.7877C32.5531 44.4249 31.8263 45.5227 30.7437 45.5227C29.6588 45.5227 28.9298 44.4249 28.9298 42.7877C28.9298 41.1507 29.6588 40.0505 30.7436 40.0505C31.8263 40.0505 32.553 41.1507 32.553 42.7877H32.5531ZM30.7436 39.0356C28.4496 39.0356 27.0265 40.4741 27.0265 42.7899C27.0265 45.1079 28.4498 46.5463 30.7436 46.5463C33.0354 46.5463 34.4585 45.1079 34.4585 42.7899C34.4585 40.4741 33.0354 39.0356 30.7436 39.0356ZM50.2812 42.7877C50.2812 44.4249 49.5522 45.5227 48.4718 45.5227C47.3848 45.5227 46.6579 44.4249 46.6579 42.7877C46.6579 41.1507 47.3847 40.0505 48.4717 40.0505C49.5522 40.0505 50.2811 41.1507 50.2811 42.7877H50.2812ZM48.4717 39.0356C46.1777 39.0356 44.7524 40.4741 44.7524 42.7899C44.7524 45.1079 46.1777 46.5463 48.4717 46.5463C50.7634 46.5463 52.1866 45.1079 52.1866 42.7899C52.1866 40.4741 50.7634 39.0356 48.4717 39.0356ZM64.0265 42.7877C64.0265 44.4249 63.2996 45.5227 62.2147 45.5227C61.1322 45.5227 60.4053 44.4249 60.4053 42.7877C60.4053 41.1507 61.1322 40.0505 62.2147 40.0505C63.2996 40.0505 64.0265 41.1507 64.0265 42.7877ZM62.2147 39.0356C59.9229 39.0356 58.4976 40.4741 58.4976 42.7899C58.4976 45.1079 59.9229 46.5463 62.2147 46.5463C64.5087 46.5463 65.934 45.1079 65.934 42.7899C65.934 40.4741 64.5087 39.0356 62.2147 39.0356ZM7.43274 42.957C7.93915 42.3544 8.50436 41.6802 8.75538 41.3788V44.0965C8.36318 43.6636 7.91892 43.2808 7.43274 42.957ZM5.40927 43.0662C4.34184 44.3541 3.4841 45.2142 2.80967 45.6177C1.26422 46.5454 0.838632 44.677 2.76162 43.4306C3.50813 42.9482 4.63873 42.7365 5.40927 43.0662ZM8.75538 39.1569C8.75538 39.1569 7.09216 41.0952 6.09681 42.2605C4.93563 41.8307 3.44697 41.5972 1.70947 42.6688C0.0659068 43.6816 -1.16954 46.7265 1.80559 46.7396C3.28114 46.7462 4.71737 46.1677 6.53332 44.0177C6.58556 43.9565 6.67949 43.8475 6.72973 43.7885C7.53959 44.3823 8.18999 45.2116 8.75538 46.4187H10.556V39.1567L8.75538 39.1569ZM56.2701 46.4174V40.3648C56.4534 40.3648 57.5186 40.4127 58.2652 40.5305V39.1598H52.4307V40.5305C53.175 40.4127 54.2423 40.3648 54.4257 40.3648V46.4174H56.2701ZM41.5746 42.2143L39.5512 46.4181H39.0229L37.0235 42.1575C37.03 42.199 37.0322 42.2514 37.03 42.3017C36.8642 43.6352 36.6829 45.7177 36.6654 46.4183H35.1944C35.4824 44.9515 36.1046 40.6166 36.2726 39.1607H37.4513L39.5707 43.6023L41.806 39.1607H42.8645C43.0478 40.6144 43.3491 43.0504 43.9405 46.4183H41.8867C41.8626 45.6956 41.7012 43.6332 41.5681 42.3606C41.5646 42.3118 41.5668 42.2626 41.5746 42.2143ZM24.3399 43.1954C24.4054 43.2719 24.4839 43.3898 24.5406 43.4903L24.5166 43.0034V39.1596H25.8416V46.4172L24.7829 46.4194L20.8236 42.0386C20.7449 41.96 20.6577 41.8247 20.5987 41.7264L20.6228 42.2001V46.417H19.2978V39.1594H20.6248L24.3399 43.1954ZM67.3595 45.7439C67.3595 45.3489 67.0364 45.0258 66.6435 45.0258C66.4531 45.0259 66.2706 45.1016 66.1359 45.2363C66.0013 45.3709 65.9256 45.5535 65.9254 45.7439H66.015C66.0155 45.5775 66.082 45.4182 66.1998 45.3008C66.3176 45.1834 66.4772 45.1175 66.6435 45.1175C66.8095 45.1179 66.9686 45.1841 67.086 45.3015C67.2034 45.4188 67.2695 45.5779 67.2699 45.7439H67.3595ZM67.2703 45.7439C67.2699 45.9099 67.2038 46.0691 67.0863 46.1865C66.9689 46.3039 66.8098 46.3701 66.6437 46.3704C66.4773 46.3705 66.3177 46.3046 66.1999 46.1871C66.0821 46.0696 66.0157 45.9103 66.0152 45.7439H65.9256C65.9262 45.9339 66.0022 46.116 66.1368 46.2502C66.2714 46.3844 66.4537 46.4598 66.6437 46.4598C66.8334 46.459 67.015 46.3833 67.1491 46.2492C67.2832 46.1151 67.3588 45.9335 67.3597 45.7439H67.2703Z" fill="white"/>
<path d="M66.4745 45.8295H66.7015C66.8063 45.8295 66.8127 45.8732 66.8127 45.989C66.8127 46.0718 66.8172 46.1155 66.828 46.157H66.9853V46.1329C66.9547 46.1198 66.9547 46.0893 66.9547 45.9671C66.9547 45.8098 66.9263 45.7858 66.8695 45.7554C66.935 45.727 66.9743 45.6484 66.9743 45.5566C66.9743 45.4847 66.9416 45.3209 66.7583 45.3209H66.3436V46.157H66.4832V45.4629H66.7299C66.8151 45.4629 66.8325 45.5304 66.8325 45.5741C66.8325 45.6549 66.7954 45.6877 66.7189 45.6877H66.4745V45.8295ZM47.4867 8.61671C49.676 8.61671 51.4483 6.84227 51.4483 4.65297C51.4483 2.46585 49.6758 0.691406 47.4867 0.691406C45.2996 0.691406 43.5273 2.46604 43.5273 4.65297C43.5273 6.84227 45.2996 8.61671 47.4865 8.61671" fill="white"/>
<path d="M33.9138 7.00204V14.742C31.958 14.7835 30.0372 14.5281 27.9941 14.0348L33.9138 7.00204ZM19.4837 15.829L17.4603 17.9702C15.8777 19.6487 14.0377 21.9101 12.1475 21.9101C11.3857 21.9101 10.8205 21.5304 10.4777 20.9672C9.90357 20.0286 9.94289 18.5793 10.7025 17.5184C12.3199 15.2614 14.6903 14.8948 17.1808 15.2441C18.3224 15.4035 18.9293 15.6043 19.4835 15.8291L19.4837 15.829ZM50.1031 23.1304V12.507C50.0878 11.7625 49.4678 11.1624 48.7171 11.1624H46.052C44.2927 11.1624 42.5989 12.7253 39.3248 13.891C39.3227 13.891 39.3161 1.27259 39.3161 1.26385L39.3181 1.25948H39.3161C39.2855 0.558656 38.7092 0 38.0018 0H33.907C33.3373 0 32.8747 0.246653 32.4249 0.722485L22.5133 12.2975C21.4568 11.9286 19.6144 11.3939 17.3074 11.1735C13.1426 10.7785 9.91886 12.4131 8.05703 14.4934C3.82916 19.2146 6.87838 25.6123 12.8132 25.6123C16.7072 25.6123 19.2261 24.0231 22.9629 19.9569C23.9583 18.872 24.9012 17.7106 24.9012 17.7106L24.9099 17.6997C27.6604 18.5052 30.1244 18.8763 33.9114 18.8763V24.0471C33.9114 24.774 34.503 25.3632 35.2299 25.3632H38.0018C38.3509 25.3632 38.6856 25.2246 38.9324 24.9778C39.1793 24.7309 39.3179 24.3962 39.3179 24.0471V17.9726C41.2256 17.3941 42.9677 16.6912 44.849 15.6655L44.8446 26.6948C43.8187 27.3889 40.9091 29.3883 40.9091 29.3883C38.7502 30.9229 39.333 32.1974 40.3371 33.0707C41.3718 33.9633 42.7163 34.293 44.1918 34.293C47.4353 34.293 50.0807 31.5014 50.0938 27.1293C55.3673 23.9292 61.5531 19.7648 61.2803 14.4302C61.2803 12.5859 59.7197 11.1627 58.0041 11.1627C56.2012 11.1627 54.7409 12.623 54.7409 14.4258C54.7409 15.478 55.2386 16.41 56.0113 17.008C55.0662 19.1951 52.8748 21.1443 50.1026 23.1304" fill="white"/>
</svg>
