<svg width="69" height="48" viewBox="0 0 69 48" fill="none" xmlns="http://www.w3.org/2000/svg">
<path d="M32.6478 0.00476074L0 32.6152H36.2623L48.96 19.9239V0.0103891H40.334" fill="#00BD62"/>
<path d="M14.5056 18.1336L0.00976562 32.6221H14.5067V18.1326" fill="white"/>
<path d="M28.1089 24.4624L36.2625 32.611L68.9085 3.43323e-05H32.6454L19.9453 12.6927V32.6056H28.5706L20.4301 24.4703L28.5691 16.3235H36.2639L28.0957 24.497L28.1083 24.4623" fill="white"/>
<path d="M19.9474 40.4586H21.9349V43.6816L24.2437 40.4586H26.4707L23.7276 43.8854L26.7518 47.916H24.28L21.9319 44.4573V47.916H19.9434V40.458H19.9454L19.9475 40.4576L19.9474 40.4586ZM27.2987 39.8556H29.1937V47.9164H27.2982V39.856L27.2987 39.8561V39.8556ZM33.6983 45.402C33.1419 45.402 32.741 45.4631 32.4959 45.5833C32.2505 45.7023 32.1288 45.8975 32.1288 46.1632C32.1288 46.3548 32.1941 46.5114 32.3254 46.6311C32.4567 46.7499 32.6303 46.8086 32.8471 46.8086C33.1911 46.8086 33.4718 46.6939 33.6906 46.4624C33.9085 46.2325 34.0182 45.9306 34.0182 45.5597V45.402H33.6983ZM35.8023 45.0254V47.9168H34.16L34.1187 47.0572C33.8949 47.3747 33.6242 47.6089 33.3073 47.7568C32.9904 47.9062 32.6087 47.9787 32.16 47.9787C31.5995 47.9787 31.1539 47.8203 30.8209 47.5013C30.4889 47.1838 30.3219 46.7569 30.3219 46.2267C30.3219 45.6154 30.5643 45.1614 31.0462 44.8649C31.5306 44.5698 32.2736 44.4219 33.2775 44.4219H34.018V44.3489C34.018 44.0466 33.9033 43.8153 33.6719 43.6553C33.4425 43.4942 33.1049 43.4127 32.6642 43.4127C32.4485 43.4127 32.1995 43.4505 31.9243 43.5279C31.6477 43.6054 31.3499 43.7172 31.0329 43.8651L31.0008 42.6167C31.3081 42.4877 31.6415 42.3902 31.9997 42.3282C32.3579 42.2654 32.7533 42.2338 33.1838 42.2338C34.0864 42.2338 34.7488 42.4582 35.1698 42.9079C35.5902 43.3585 35.802 44.0632 35.802 45.026V45.0235L35.8023 45.0254ZM40.243 43.6275C39.8694 43.6275 39.5709 43.7599 39.3511 44.0265C39.13 44.2905 39.0202 44.654 39.0202 45.1089C39.0202 45.5732 39.1248 45.938 39.3345 46.2004C39.5445 46.463 39.8331 46.5947 40.1997 46.5947C40.5474 46.5947 40.8229 46.4655 41.0302 46.2089C41.2356 45.9508 41.3391 45.6061 41.3391 45.1777C41.3391 44.7143 41.2365 44.3407 41.0328 44.0559C40.826 43.7697 40.5635 43.6272 40.243 43.6272V43.6275ZM37.1248 39.8556H39.0202V43.1544C39.2395 42.8489 39.4997 42.6195 39.7985 42.4691C40.0968 42.3187 40.4438 42.2434 40.8362 42.2434C41.5777 42.2434 42.1693 42.4989 42.6114 43.0116C43.0534 43.5242 43.2758 44.2132 43.2758 45.0768C43.2758 45.951 43.0485 46.6564 42.5933 47.1946C42.1379 47.7318 41.5454 48 40.814 48C40.3775 48 39.9891 47.8972 39.6472 47.6955C39.3064 47.4938 39.0279 47.1977 38.815 46.8088V47.9164H37.1248V39.855V39.8556ZM44.4976 42.3891H46.3927V47.9164H44.4976V42.3896V42.3891ZM44.4976 39.8556H46.3927V41.3922H44.4976V39.8556ZM53.6328 44.6828V47.9163H51.754V45.0772C51.754 44.6433 51.677 44.3196 51.5219 44.1078C51.3681 43.8971 51.1357 43.7904 50.8209 43.7904C50.4918 43.7904 50.2298 43.9237 50.0308 44.1909C49.8339 44.4555 49.7353 44.8112 49.7353 45.2604V47.9162H47.8406V42.39H49.562V43.383C49.7793 43.0118 50.0599 42.7291 50.4032 42.5348C50.7447 42.3407 51.1304 42.243 51.561 42.243C52.2362 42.243 52.7501 42.4512 53.1027 42.8646C53.4548 43.2806 53.6336 43.887 53.6336 44.6838" fill="white"/>
</svg>
