<svg width="83" height="48" viewBox="0 0 83 48" fill="none" xmlns="http://www.w3.org/2000/svg">
<path d="M54.9576 0.00018692C52.284 1.86303 47.6581 2.37083 43.5227 2.81527L43.4984 2.86826C43.54 5.2528 43.2744 7.63389 42.7093 9.95246C41.7041 13.9889 39.7519 17.692 36.9133 20.9551C35.685 22.3604 34.3334 23.6521 32.8742 24.8136V24.8274C38.9758 22.9151 46.3465 19.3448 51.0826 12.7319C55.7597 6.19983 55.3308 2.34654 54.9689 0.00018692H54.9576ZM28.8091 8.64688C26.0071 12.1512 25.0548 17.3639 25.902 24.58C25.9663 25.2519 26.0427 25.7979 26.1025 26.1816L26.1355 26.2033C29.1894 24.712 41.1043 17.9125 41.0505 3.09825L41.0218 3.07398C35.3239 3.67294 31.3248 5.49671 28.8091 8.64688ZM56.6555 7.46719C55.7753 9.87691 54.5652 12.1529 53.06 14.2293C48.2518 20.8552 41.1121 24.5193 35.9741 26.4229C34.2979 27.0488 32.7458 27.5167 31.3933 27.876V27.896C32.0531 27.9299 32.7032 27.9472 33.3439 27.9498H33.6746C36.8656 27.9368 39.8083 27.5384 42.4645 26.7588C46.1841 25.666 49.277 23.8509 51.6555 21.3656C55.1485 17.7163 56.8899 12.8448 56.6702 7.46719H56.6555Z" fill="white"/>
<path d="M9.87467 37.6664C9.05817 37.1079 7.41297 36.4691 5.71201 36.4691C3.94307 36.4691 2.80328 37.2168 2.80328 38.3871C2.80328 39.4206 3.74178 39.8955 5.30593 40.088L6.80299 40.278C9.55051 40.6457 11.1687 41.8021 11.1687 43.9422C11.1687 46.4039 8.96493 47.996 5.44187 47.996C3.8507 47.996 1.70097 47.6152 0 46.336L1.03435 44.6768C2.00421 45.4245 3.29214 46.051 5.45233 46.051C7.57418 46.051 8.8804 45.3565 8.8804 44.0773C8.8804 43.1249 8.03776 42.5271 6.2819 42.3092L4.78571 42.1323C1.89354 41.7751 0.49321 40.4688 0.49321 38.5099C0.49321 36.0317 2.54622 34.5372 5.68848 34.5372C7.72929 34.5372 9.59321 35.0758 10.8445 35.9385L9.87467 37.6664Z" fill="white"/>
<path d="M24.7143 42.3053C24.7143 46.2092 21.9127 47.9912 18.8245 47.9912C15.7093 47.9912 12.9199 46.2092 12.9199 42.3053V34.7939H15.1516V42.0997C15.1516 44.7383 16.7157 45.9086 18.8245 45.9086C20.9333 45.9086 22.4879 44.7383 22.4879 42.0997V34.7939H24.7186L24.7143 42.3053Z" fill="white"/>
<path d="M37.8561 36.4099L29.8976 45.706H37.9789V47.7241H26.9453V46.1077L34.9988 36.8299H27.1771V34.7935H37.8561V36.4099Z" fill="white"/>
<path d="M41.3115 41.2589C41.3115 43.8295 43.1074 45.9113 45.7591 45.9113C48.3715 45.9113 50.1945 43.9114 50.1945 41.2589C50.1945 38.6063 48.3715 36.6204 45.7591 36.6204C43.0664 36.6187 41.3115 38.6865 41.3115 41.2589ZM52.2893 47.7238H50.0585V46.0001C49.0381 47.2114 47.5289 48 45.502 48C41.87 48 39.0371 45.1706 39.0371 41.2667C39.0371 37.3629 41.8665 34.5317 45.502 34.5317C47.5289 34.5317 49.0381 35.322 50.0585 36.5455V34.794H52.2893V47.7238Z" fill="white"/>
<path d="M67.1846 39.6932V47.724H64.9539V40.4182C64.9539 38.0384 63.6485 36.6363 61.3986 36.6363C59.3168 36.6363 57.5749 38.0654 57.5749 40.4731V47.724H55.3633V34.7933H57.5662V36.4804C58.6284 35.0243 60.3015 34.5215 61.7985 34.5215C64.9809 34.5232 67.1846 36.591 67.1846 39.6932Z" fill="white"/>
<path d="M71.4163 41.2589C71.4163 43.9655 73.3752 45.9113 75.9728 45.9113C78.5713 45.9113 80.5311 43.9655 80.5311 41.2589C80.5311 38.5523 78.5582 36.6205 75.9728 36.6205C73.3882 36.6205 71.4163 38.5497 71.4163 41.2589ZM82.8167 41.2589C82.8167 45.0948 79.8923 47.9922 75.9728 47.9922C72.0541 47.9922 69.1445 45.0939 69.1445 41.2589C69.1445 37.4239 72.0541 34.5248 75.9728 34.5248C79.8923 34.5248 82.8167 37.4221 82.8167 41.2589Z" fill="white"/>
</svg>
