<svg width="132" height="48" viewBox="0 0 132 48" fill="none" xmlns="http://www.w3.org/2000/svg">
<path fill-rule="evenodd" clip-rule="evenodd" d="M112.43 19.0609L129.3 5.08927C129.793 4.68027 130.532 4.74912 130.94 5.24341H130.941C131.35 5.73668 131.28 6.47451 130.787 6.88351L113.917 20.8562C113.424 21.2652 112.685 21.1953 112.276 20.7021V20.701C111.867 20.2078 111.937 19.4699 112.43 19.0609Z" fill="white"/>
<path fill-rule="evenodd" clip-rule="evenodd" d="M102.978 15.4063H124.883C125.523 15.4063 126.047 15.9304 126.047 16.5716C126.047 17.2128 125.523 17.7369 124.883 17.7369H102.978C102.337 17.7369 101.812 17.2128 101.812 16.5716C101.812 15.9304 102.337 15.4063 102.978 15.4063Z" fill="white"/>
<path d="M99.4548 0.259359L122.978 19.362C123.476 19.7658 123.552 20.5037 123.149 21L123.148 21.0011C122.744 21.4984 122.006 21.5745 121.509 21.1706L97.9853 2.06902C97.489 1.66516 97.4119 0.92732 97.8158 0.429947C98.2196 -0.0684528 98.9575 -0.144499 99.4548 0.259359Z" fill="white"/>
<path fill-rule="evenodd" clip-rule="evenodd" d="M116.676 9.26954L122.081 30.4963C122.239 31.118 121.86 31.7551 121.239 31.9134H121.238C120.618 32.0716 119.98 31.6924 119.822 31.0718L114.417 9.84502C114.259 9.2233 114.638 8.58617 115.258 8.42792C115.88 8.26966 116.517 8.64886 116.676 9.26954Z" fill="white"/>
<path d="M94.9846 46.43C93.9066 45.573 93.2449 44.7416 92.7105 43.4694C92.3405 42.448 92.2295 41.6649 92.208 40.5808C92.2378 38.2799 92.6344 36.61 94.402 35.0542C95.6125 34.0594 96.9793 33.4952 98.4745 33.077C101.145 32.3299 105.145 32.0237 108.125 31.8171L109.887 31.6897V29.9304L109.852 29.2193C109.748 28.4095 109.666 27.9101 109.31 27.1733L109.129 26.8639C108.436 25.8589 107.803 25.4088 106.692 24.9341C105.731 24.5713 104.909 24.3997 103.894 24.2651C103.185 24.189 102.516 24.1489 101.805 24.1304C100.758 24.1212 99.9142 24.1911 98.8835 24.3771C98.3326 24.485 97.8045 24.6093 97.2629 24.7522C96.4285 24.9834 95.6176 25.2403 94.8058 25.5332L94.5684 25.6205V22.3403L94.6897 22.3136L94.9374 22.2602C95.5241 22.1368 96.1109 22.0228 96.7008 21.9128C97.752 21.7207 98.7643 21.5634 99.8289 21.4535C101.038 21.3404 102.203 21.2932 103.417 21.3004C104.615 21.3199 105.758 21.3826 106.948 21.5223C107.932 21.6539 108.824 21.8203 109.779 22.0865C110.7 22.3681 111.453 22.6671 112.277 23.1717C112.926 23.6012 113.397 24.0154 113.879 24.6288C114.299 25.2012 114.556 25.7027 114.795 26.3717C115.139 27.423 115.24 28.3591 115.253 29.4618V46.9963V47.2593L115.243 47.2696C114.815 47.6879 113.784 47.9838 112.587 47.9838C111.39 47.9838 110.359 47.6879 109.93 47.2696L109.889 47.2234V46.9963V42.0431V33.5353L107.742 33.7593C105.223 34.0214 102.465 34.1272 100.202 35.344C98.7314 36.275 98.0603 37.2605 97.7716 38.9859C97.6339 40.4287 97.7459 41.667 98.4991 42.9299C100.669 46.0056 104.744 45.1804 107.909 44.42V47.1473C103.987 48.0342 98.2741 48.773 94.9846 46.43ZM77.4563 45.2852C78.5353 45.3253 79.4695 45.3017 80.53 45.0859C82.5914 44.6666 84.1411 43.9226 84.6621 41.7132C84.7659 40.8253 84.7587 40.3917 84.3918 39.5778C83.9222 38.5347 83.3334 38.1484 82.3365 37.6962C81.425 37.3129 80.5351 37.0919 79.5774 36.87C78.3206 36.5894 77.0391 36.388 75.7967 36.0664C74.5635 35.7416 73.4743 35.3481 72.3665 34.6976C71.5423 34.1725 70.9525 33.6771 70.3873 32.8746C69.784 31.9281 69.5415 31.1173 69.4275 30.0085C69.3062 28.8195 69.3452 27.9584 69.7635 26.8383C70.0235 26.1436 70.339 25.6308 70.7983 25.0491C71.6204 24.0647 72.4353 23.4532 73.5647 22.8521C74.5913 22.3352 75.5902 21.9868 76.7051 21.7114C78.0431 21.4072 79.2763 21.288 80.6461 21.2562C81.7991 21.2469 82.8925 21.2983 84.0373 21.4298C85.1759 21.5799 86.185 21.7967 87.2908 22.1009C87.8837 22.2745 88.4489 22.4564 89.0275 22.6733L89.0871 22.6969V26.1127L88.9935 26.0603C88.1416 25.5856 87.3288 25.1868 86.4173 24.8467C85.5469 24.5343 84.7011 24.3093 83.7917 24.1407C82.6787 23.9557 81.6614 23.891 80.531 23.9547C79.7079 24.0184 79.0276 24.1376 78.2384 24.3863C77.5272 24.6371 77.0761 24.8673 76.439 25.3019C75.5994 26.0275 75.3209 26.4436 75.0537 27.5257C74.9777 28.538 75.0455 29.0641 75.5059 29.9756C75.918 30.5942 76.2139 30.8943 76.8356 31.2776C77.4759 31.6311 78.0832 31.8459 78.781 32.0566C79.863 32.369 80.9503 32.6063 82.056 32.815C84.7022 33.3041 87.9937 34.082 89.531 36.5134C89.8979 37.1639 90.0664 37.6798 90.2113 38.4104C90.3613 39.3507 90.3921 40.2077 90.2359 41.1449C89.9133 42.7573 89.1703 43.9945 87.9413 45.0777C86.8705 45.9686 85.7401 46.5554 84.4401 47.0415C83.0816 47.5183 81.9039 47.7403 80.4714 47.88C79.5691 47.954 78.6987 47.9797 77.7924 47.9735C76.8171 47.954 75.9025 47.8913 74.9335 47.7752C74.0086 47.6478 73.166 47.4813 72.2606 47.2573C71.2803 47.0004 70.3523 46.7208 69.4048 46.3571L69.2466 46.2934V42.6833L69.263 42.6936L69.409 42.783L69.5611 42.8713C70.5455 43.4283 71.6739 43.937 72.7374 44.3203C74.3539 44.8917 75.7361 45.1979 77.4563 45.2852ZM61.2896 32.7399C61.19 30.3651 61.2619 28.5791 60.0976 26.4714C57.6159 22.4647 51.5374 22.665 48.7084 26.1775C47.134 28.3509 47.0785 30.2315 46.9635 32.7399H61.2896ZM46.1013 45.1691C44.3409 43.7993 43.2794 42.3318 42.4953 40.2437C41.9137 38.5563 41.7092 37.0457 41.6557 35.2679C41.6342 32.8797 41.889 30.7864 42.7851 28.5595C43.6421 26.5721 44.828 25.0019 46.5678 23.6834C50.5149 20.8605 57.2685 20.4392 61.5137 22.5911C63.832 23.8499 65.1073 25.6924 65.8842 28.1844C66.3713 29.8759 66.5203 31.4379 66.5367 33.1931V34.6709H46.9881C47.2995 38.8739 47.7917 42.1962 52.1026 44.0634C54.1281 44.8978 56.6222 45.1075 58.8007 44.94C59.8222 44.8465 60.7399 44.6707 61.7284 44.4035C63.2432 43.9771 64.6644 43.3554 66.027 42.5476V46.1834C63.1558 47.3405 60.4706 47.9129 57.3425 47.9828C56.4639 47.9961 55.6058 47.9818 54.7282 47.9335C53.0594 47.8132 51.5796 47.5882 49.9744 47.1042C48.5018 46.6263 47.355 46.0827 46.1013 45.1691ZM5.68147 22.365H13.4956V25.5177H10.2842C8.2485 25.5177 6.39568 25.713 5.67942 26.5423C5.67634 28.6787 5.6712 25.0224 5.6712 39.3712C5.74724 42.4521 7.46955 44.0418 9.81872 44.7231C11.6808 45.2688 13.1729 44.9379 14.9353 44.569V47.4248C12.9242 47.7382 10.909 48.1369 8.98736 47.917C4.31781 47.3826 0.425143 45.2924 0.359375 39.8388V16.639V16.3749L0.368626 16.3657C0.797148 15.9484 1.82786 15.6525 3.02505 15.6525C4.22327 15.6525 5.25295 15.9484 5.68147 16.3657V22.365ZM19.0869 46.43C18.0079 45.573 17.3471 44.7416 16.8128 43.4694C16.4428 42.448 16.3308 41.6649 16.3103 40.5808C16.339 38.2799 16.7357 36.61 18.5032 35.0542C19.7148 34.0594 21.0805 33.4952 22.5767 33.077C25.2465 32.3299 29.2461 32.0237 32.2262 31.8171L33.9896 31.6897V29.9304L33.9536 29.2193C33.8499 28.4095 33.7687 27.9101 33.4121 27.1733L33.2312 26.8639C32.5376 25.8589 31.9056 25.4088 30.7947 24.9341C29.8328 24.5713 29.0107 24.3997 27.9954 24.2651C27.2874 24.189 26.6184 24.1489 25.9073 24.1304C24.8591 24.1212 24.0165 24.1911 22.9847 24.3771C22.4349 24.485 21.9067 24.6093 21.3641 24.7522C20.5307 24.9834 19.7199 25.2403 18.9071 25.5332L18.6697 25.6205V22.3403L18.791 22.3136L19.0396 22.2602C19.6264 22.1368 20.2132 22.0228 20.802 21.9128C21.8533 21.7207 22.8665 21.5634 23.9301 21.4535C25.1397 21.3404 26.305 21.2932 27.5197 21.3004C28.7168 21.3199 29.8606 21.3826 31.0506 21.5223C32.033 21.6539 32.925 21.8203 33.8807 22.0865C34.8025 22.3681 35.5547 22.6671 36.3778 23.1717C37.0283 23.6012 37.499 24.0154 37.9809 24.6288C38.4002 25.2012 38.6581 25.7027 38.8965 26.3717C39.2398 27.423 39.3425 28.3591 39.3549 29.4618V46.9963V47.2593L39.3456 47.2696C38.9171 47.6879 37.8864 47.9838 36.6882 47.9838C35.491 47.9838 34.4603 47.6879 34.0317 47.2696L33.9906 47.2234V46.9963V42.0431V33.5353L31.8429 33.7593C29.3242 34.0214 26.567 34.1272 24.3032 35.344C22.8326 36.275 22.1626 37.2605 21.8728 38.9859C21.7361 40.4287 21.8471 41.667 22.6014 42.9299C24.7707 46.0056 28.8453 45.1804 32.0104 44.42V47.1473C28.089 48.0342 22.3764 48.773 19.0869 46.43Z" fill="white"/>
</svg>
