<svg width="203" height="40" viewBox="0 0 203 40" fill="none" xmlns="http://www.w3.org/2000/svg">
<path fill-rule="evenodd" clip-rule="evenodd" d="M30.9021 2.12468C31.2662 1.48126 31.7942 0.945737 32.4324 0.572546C33.0705 0.199356 33.7962 0.00181164 34.5355 0L44.2411 0L25.1441 37.8671C24.9204 38.4915 24.5093 39.0315 23.9669 39.4133C23.4246 39.7951 22.7775 40 22.1143 40C21.451 40 20.8039 39.7951 20.2616 39.4133C19.7192 39.0315 19.3081 38.4915 19.0844 37.8671L13.9424 27.5705H14.8476C15.5883 27.5093 16.31 27.3043 16.9723 26.9671C18.3313 26.3545 19.412 25.2558 20.0021 23.8869L30.9021 2.12468ZM14.8476 2.12468C15.2117 1.48126 15.7397 0.945737 16.3778 0.572546C17.016 0.199356 17.7416 0.00181164 18.4809 0L27.8723 0L16.6706 22.1143C16.3936 22.6088 16.0006 23.0286 15.5253 23.3374C15.0501 23.6462 14.5068 23.8348 13.9424 23.8869C13.3723 23.8328 12.8245 23.6379 12.3483 23.3197C11.8721 23.0015 11.4825 22.57 11.2143 22.064L6.05973 11.8177C6.36146 11.8177 6.66319 12.1195 6.96492 12.1195C7.54324 11.8177 8.18441 11.8177 8.80044 11.516H9.10217C10.1947 10.9148 11.047 9.9559 11.516 8.80044H11.8177L14.8476 2.13725V2.12468ZM12.4212 0L8.48614 7.26665C8.30254 7.75073 7.96665 8.16204 7.52903 8.43867C7.09141 8.7153 6.57576 8.84227 6.05973 8.80044C5.56172 8.7589 5.08109 8.59777 4.65867 8.33074C4.23624 8.06372 3.8845 7.69869 3.63333 7.26665L0 0H12.4212Z" fill="white"/>
<path fill-rule="evenodd" clip-rule="evenodd" d="M170.275 27.2687H176.636V13.9424H170.275V27.2687ZM170.275 12.7229H176.636V8.48608H170.275V12.7229ZM133.615 22.7805C133.615 23.6983 133.615 24.9052 132.106 24.9052C131.188 24.9052 131.188 24 131.188 23.0948C131.188 22.1896 131.49 21.2719 133.615 20.9701V22.7805ZM139.675 18.5437C139.752 17.8364 139.68 17.1208 139.463 16.443C139.246 15.7652 138.89 15.1403 138.417 14.6087C137.467 14.1321 136.442 13.8217 135.388 13.6909H132.659C126.298 13.6909 125.116 15.5139 125.116 18.242H131.176C131.176 16.9848 131.176 16.9848 131.478 16.7208C131.563 16.5474 131.693 16.4 131.854 16.2938C132.016 16.1877 132.202 16.1268 132.395 16.1173C133.653 16.1173 133.653 16.7208 133.653 17.9403V18.8455L131.83 19.1472C129.114 19.4489 127.895 19.4489 126.688 20.4044C126.116 20.7489 125.647 21.2387 125.326 21.824C125.006 22.4093 124.847 23.0691 124.865 23.736C124.865 26.4641 126.386 27.6711 129.114 27.6711C129.958 27.7198 130.803 27.5817 131.587 27.2666C132.372 26.9515 133.077 26.4672 133.653 25.8481V27.3693H139.712V18.5689L139.675 18.5437ZM105.441 20.3038V22.7177C105.458 23.1552 105.348 23.5884 105.125 23.9653C104.902 24.3422 104.575 24.6467 104.184 24.8423C104.184 25.1441 103.882 25.1441 103.58 25.1441C102.323 25.1441 102.323 23.3337 102.323 22.4159V18.4809C102.323 17.8774 102.323 16.6579 103.228 16.3562C103.228 16.0545 103.53 16.0545 103.832 16.0545C104.077 16.0197 104.328 16.0585 104.552 16.1659C104.775 16.2733 104.962 16.4445 105.089 16.6579C105.391 17.274 105.391 17.5757 105.391 20.3038H105.441ZM111.501 20.6056C111.501 19.3483 111.802 16.9722 110.243 15.451C108.433 13.3263 105.403 13.3263 104.485 13.3263C102.263 13.2136 100.055 13.7416 98.124 14.8475C96.0119 16.6579 96.0119 19.3861 96.0119 21.209C96.0119 23.032 96.3513 26.4013 100.576 27.2687C101.665 27.532 102.788 27.6337 103.907 27.5705C105.164 27.5705 108.156 27.5705 109.967 25.7475C111.488 24.2389 111.488 21.8125 111.488 20.6056H111.501ZM77.8704 20.3038V22.7177C77.8455 23.6066 77.5223 24.4612 76.9526 25.1441H76.3491C74.8405 25.1441 74.8405 23.3337 74.8405 22.4159V18.4809C74.8405 17.8774 74.8405 16.6579 75.7457 16.3562C75.7457 16.0545 76.0474 16.0545 76.3491 16.0545C76.5949 16.0197 76.8454 16.0585 77.0691 16.1659C77.2928 16.2733 77.4798 16.4445 77.6064 16.6579C77.9081 17.274 77.9081 17.5757 77.9081 20.3038H77.8704ZM84.2318 20.6056C84.2318 19.3483 84.2318 16.9722 82.7106 15.451C80.9002 13.3263 77.8704 13.6281 76.9526 13.6281C74.8465 13.2719 72.6835 13.7207 70.8929 14.8853C68.479 16.6956 68.479 19.4238 68.479 21.2467C68.479 23.0697 68.7808 26.4013 73.0176 27.3065C74.1072 27.5703 75.2298 27.6719 76.3491 27.6082C77.6064 27.6082 80.5985 27.6082 82.4089 25.7852C83.9301 24.2766 83.9301 21.8502 84.2318 20.6433V20.6056ZM119.685 20.9073C119.592 20.3787 119.663 19.8344 119.888 19.347C120.112 18.8596 120.48 18.4522 120.942 18.1791H123.67V13.6281H123.369C120.641 13.6281 120.037 16.0545 119.735 16.6579V13.9424H113.311V27.2687H119.685V20.9073ZM156.647 17.6008C156.712 17.0598 156.664 16.5111 156.506 15.9895C156.348 15.468 156.084 14.9849 155.729 14.571C155.36 14.2449 154.93 13.9957 154.464 13.8381C153.998 13.6805 153.505 13.6177 153.014 13.6532C152.172 13.643 151.337 13.7988 150.557 14.1116C149.776 14.4244 149.064 14.8881 148.463 15.4762V13.9675H142.063V27.2939H148.425V18.1791C148.425 17.5757 148.425 16.6579 149.33 16.6579C149.502 16.6266 149.679 16.6375 149.846 16.6896C150.013 16.7418 150.164 16.8336 150.288 16.9572C150.412 17.0808 150.503 17.2325 150.555 17.3993C150.608 17.5662 150.618 17.7432 150.587 17.9151V27.3065H156.647V17.6008ZM168.465 16.6831V13.9424H165.12V10.2965L159.061 11.5537V22.4536C159.061 23.7109 159.061 25.4835 159.979 26.4013C161.104 27.2654 162.496 27.71 163.914 27.6585C165.422 27.6585 166.34 27.3568 167.245 27.3568V24.2389C166.34 24.2389 165.737 24.2389 165.422 23.6354C165.12 23.3337 165.12 23.032 165.12 21.5107V16.6579L168.465 16.6831ZM202.095 17.6008C202.095 16.3436 202.095 14.571 199.97 13.9675C199.398 13.713 198.772 13.605 198.147 13.6532C196.33 13.7544 194.611 14.509 193.307 15.7779C193.307 15.1744 192.402 13.6532 189.975 13.6532C189.13 13.606 188.284 13.7448 187.498 14.0598C186.711 14.3747 186.004 14.8582 185.424 15.4762V13.9675H179.063V27.2939H185.424V18.4934C185.424 17.5883 185.424 16.6705 186.33 16.6705C187.587 16.6705 187.587 17.5883 187.587 18.7952V27.2813H193.609V18.1791C193.609 17.5757 193.609 16.6579 194.866 16.6579C195.784 16.6579 195.784 17.5757 196.123 18.4809V27.2813H202.183V17.6008H202.095ZM95.4461 16.6831V13.9424H92.1145V10.2965L86.0422 11.5537V22.4536C86.0422 23.7109 85.7405 25.4835 86.96 26.4013C88.0632 27.307 89.471 27.7568 90.895 27.6585C92.1522 27.6585 93.0197 27.3568 93.9249 27.3568V24.2389C93.5972 24.2798 93.2646 24.2468 92.9513 24.1423C92.638 24.0379 92.3521 23.8647 92.1145 23.6354V16.6579L95.4461 16.6831ZM69.1454 8.48608H62.105L60.3449 19.7004C60.3449 20.3038 60.0432 20.6056 60.0432 21.209V23.6354C60.0432 22.7177 59.7415 21.5107 59.7415 21.209C59.7662 20.5871 59.6635 19.9668 59.4397 19.3861L57.5665 8.48608H50.6016L55.1401 27.2687H64.5314L69.1454 8.48608Z" fill="white"/>
</svg>
