<svg width="600" height="616" viewBox="0 0 600 616" fill="none" xmlns="http://www.w3.org/2000/svg">
<g opacity="0.3">
<path d="M74.8102 475.688C74.8102 475.688 74.8102 475.688 74.8102 475.688C74.8014 475.695 74.793 475.702 74.7849 475.709C74.793 475.702 74.8015 475.695 74.8102 475.688ZM87.4198 371.357C54.9549 396.822 49.2597 443.771 74.6863 476.255C74.6986 476.278 74.7132 476.301 74.73 476.322C136.389 554.932 235.716 593.745 334.021 578.146C337.685 577.565 341.183 579.965 341.857 583.597L345.506 603.278C346.181 606.916 343.774 610.411 340.134 611C229.588 628.869 117.788 585.339 48.4485 496.935C11.5802 449.926 19.8001 381.937 66.8023 345.068C113.812 308.2 181.8 316.42 218.669 363.422C228.918 376.497 242.491 386.508 257.906 392.453C261.389 393.796 263.408 397.523 262.353 401.058C261.218 404.861 260.082 408.663 258.947 412.465C258.173 415.056 257.4 417.647 256.626 420.238C255.566 423.788 251.833 425.801 248.38 424.553C226.329 416.58 206.907 402.566 192.381 384.041L192.029 384.317L192.381 384.041C166.899 351.556 119.906 345.875 87.4198 371.357Z" stroke="#00BD62" stroke-width="0.89266"/>
<path d="M147.355 419.934C147.355 419.934 147.355 419.934 147.355 419.934C147.302 419.975 147.238 420.005 147.165 420.019C147.239 420.005 147.303 419.975 147.355 419.934ZM123.28 417.022C130.525 411.342 140.997 412.594 146.7 419.819C146.708 419.832 146.717 419.845 146.727 419.858L146.727 419.858C205.106 494.277 310.141 511.821 389.307 461.494C392.443 459.501 396.62 460.258 398.72 463.295C400.801 466.307 402.883 469.319 404.965 472.33C406.677 474.806 408.388 477.282 410.1 479.759C412.205 482.803 411.442 486.974 408.346 488.967C384.477 504.329 357.803 514.868 329.834 519.961C250.694 534.363 170.091 503.766 120.446 440.472C114.755 433.214 116.022 422.718 123.28 417.022Z" stroke="#00BD62" stroke-width="0.89266"/>
<path d="M115.664 407.334L115.664 407.334C128.28 397.44 146.524 399.647 156.417 412.259L156.066 412.535L156.417 412.259C203.513 472.304 284.434 493.672 354.719 465.436C358.132 464.064 359.637 460.099 358.116 456.723C355.375 450.64 352.634 444.557 349.891 438.473C348.374 435.107 344.407 433.61 340.94 434.962C284.699 456.887 220.299 439.58 182.7 391.643L183.051 391.368L182.7 391.643C161.42 364.511 122.176 359.769 95.0432 381.05C67.9103 402.33 63.169 441.574 84.4495 468.707C157.728 562.133 284.346 594.519 393.167 548.514C396.562 547.078 398.059 543.104 396.527 539.737C393.764 533.662 391.001 527.588 388.236 521.513C386.707 518.152 382.739 516.666 379.315 518.097C375.586 519.654 371.817 521.113 367.999 522.474C367.999 522.474 367.999 522.474 367.999 522.474L115.664 407.334ZM115.664 407.334C103.052 417.227 100.845 435.471 110.738 448.087L111.09 447.812L115.664 407.334Z" stroke="#00BD62" stroke-width="0.89266"/>
<path d="M271.619 170.427L271.619 170.427C271.589 170.431 271.559 170.439 271.531 170.449C211.253 179.067 164.104 226.168 154.968 285.814C154.405 289.492 151.124 292.179 147.452 291.81C144.109 291.474 140.771 291.138 137.432 290.802C134.135 290.47 130.838 290.138 127.537 289.806C123.853 289.435 121.17 286.149 121.689 282.507C132.38 207.525 191.344 148.126 266.89 137.365L266.827 136.923L266.89 137.365C282.76 135.101 293.79 120.4 291.531 104.53C289.272 88.6595 274.571 77.6293 258.701 79.8884L258.764 80.3303L258.701 79.8884C161.139 93.7873 83.3915 168.526 65.6603 265.477C64.9312 269.464 64.3094 273.46 63.7937 277.472C63.3204 281.154 60.048 283.848 56.3708 283.492C53.4946 283.213 50.6186 282.934 47.7429 282.656C43.9773 282.291 40.212 281.926 36.4467 281.56C32.7646 281.203 30.0713 277.92 30.5257 274.263C45.0926 157.012 136.453 63.5571 254.006 46.8086C288.139 41.9477 319.753 65.6763 324.619 99.8144C329.48 133.946 305.754 165.563 271.619 170.427ZM271.598 170.439C271.599 170.439 271.6 170.439 271.601 170.439L271.601 170.439C271.6 170.439 271.599 170.439 271.598 170.439Z" stroke="#00BD62" stroke-width="0.89266"/>
<path d="M265.125 125.139L265.125 125.139C265.092 125.144 265.061 125.152 265.032 125.163C171.439 138.544 103.771 220.719 107.783 314.41C107.942 318.123 105.198 321.362 101.518 321.661L81.5675 323.286C77.8781 323.587 74.6473 320.84 74.4693 317.163C73.0974 288.812 77.3043 260.44 86.8809 233.673L86.4606 233.522L86.8809 233.673C113.972 157.924 180.777 103.417 260.41 92.0711L260.41 92.0711C269.539 90.7678 278 97.1167 279.299 106.25C280.598 115.378 274.256 123.833 265.125 125.139Z" stroke="#00BD62" stroke-width="0.89266"/>
<path d="M252.229 34.6102C252.199 34.6145 252.169 34.6217 252.141 34.6316L252.291 35.0521L252.229 34.6101C252.229 34.6102 252.229 34.6102 252.229 34.6102Z" stroke="#00BD62" stroke-width="0.89266"/>
<mask id="path-7-inside-1_2257_3927" fill="white">
<path d="M525.701 106.226C525.701 106.226 525.701 106.227 525.701 106.227C518.819 112.105 511.934 117.985 505.05 123.864C502.051 126.426 501.707 130.931 504.19 133.996C566.75 211.208 582.77 316.457 545.58 409.017C530.276 447.101 487.001 465.568 448.916 450.263C410.832 434.959 392.366 391.685 407.67 353.599C416.48 331.676 418.915 307.765 414.78 284.604C414.087 280.721 410.216 278.352 406.379 279.265C399.889 280.809 393.4 282.353 386.91 283.897C383.073 284.81 380.731 288.659 381.342 292.556C383.888 308.8 382.013 325.476 375.848 340.813C353.484 396.473 380.474 459.725 436.13 482.085C491.79 504.45 555.041 477.459 577.402 421.799C620.242 315.185 600.322 193.599 525.7 106.227C525.699 106.226 525.7 106.225 525.701 106.226Z"/>
</mask>
<path d="M545.58 409.017L546.409 409.35L546.409 409.35L545.58 409.017ZM448.916 450.263L448.583 451.092H448.583L448.916 450.263ZM407.67 353.599L406.842 353.267V353.267L407.67 353.599ZM375.848 340.813L375.02 340.48L375.02 340.48L375.848 340.813ZM436.13 482.085L436.462 481.257H436.462L436.13 482.085ZM577.402 421.799L576.573 421.467L576.573 421.467L577.402 421.799ZM386.91 283.897L386.703 283.029L386.91 283.897ZM505.05 123.864L505.63 124.543L505.05 123.864ZM525.7 106.227L525.021 106.807L525.7 106.227ZM414.78 284.604L413.901 284.761L414.78 284.604ZM406.379 279.265L406.172 278.396L406.379 279.265ZM525.701 106.227L526.281 106.906L525.701 106.227ZM525.121 105.548C518.239 111.426 511.354 117.306 504.471 123.185L505.63 124.543C512.514 118.664 519.399 112.784 526.281 106.906L525.121 105.548ZM503.497 134.558C565.853 211.518 581.82 316.426 544.752 408.684L546.409 409.35C583.719 316.489 567.648 210.897 504.884 133.434L503.497 134.558ZM544.752 408.684C529.632 446.311 486.877 464.556 449.249 449.435L448.583 451.092C487.126 466.58 530.921 447.891 546.409 409.35L544.752 408.684ZM449.249 449.435C411.622 434.315 393.378 391.56 408.498 353.932L406.842 353.267C391.353 391.809 410.042 435.604 448.583 451.092L449.249 449.435ZM408.498 353.932C417.371 331.853 419.823 307.772 415.659 284.447L413.901 284.761C418.007 307.757 415.589 331.499 406.842 353.267L408.498 353.932ZM406.172 278.396C399.684 279.94 393.192 281.485 386.703 283.029L387.117 284.765C393.607 283.221 400.095 281.677 406.586 280.133L406.172 278.396ZM380.46 292.694C382.981 308.78 381.125 325.293 375.02 340.48L376.677 341.146C382.902 325.659 384.795 308.82 382.224 292.417L380.46 292.694ZM375.02 340.48C352.472 396.598 379.684 460.369 435.797 482.914L436.462 481.257C381.265 459.08 354.496 396.349 376.677 341.146L375.02 340.48ZM435.797 482.914C491.914 505.462 555.686 478.25 578.23 422.132L576.573 421.467C554.397 476.669 491.665 503.438 436.462 481.257L435.797 482.914ZM578.23 422.132C621.195 315.21 601.216 193.272 526.379 105.647L525.021 106.807C599.427 193.927 619.29 315.161 576.573 421.467L578.23 422.132ZM386.703 283.029C382.371 284.059 379.784 288.38 380.46 292.694L382.224 292.417C381.678 288.937 383.774 285.56 387.117 284.765L386.703 283.029ZM504.471 123.185C501.092 126.071 500.719 131.13 503.497 134.558L504.884 133.434C502.696 130.733 503.011 126.78 505.63 124.543L504.471 123.185ZM526.379 105.647C526.705 106.03 526.619 106.521 526.382 106.802C526.141 107.087 525.654 107.258 525.216 106.976L526.185 105.476C525.747 105.193 525.259 105.365 525.018 105.65C524.781 105.931 524.694 106.423 525.021 106.807L526.379 105.647ZM415.659 284.447C414.87 280.026 410.475 277.373 406.172 278.396L406.586 280.133C409.957 279.331 413.304 281.416 413.901 284.761L415.659 284.447ZM526.281 106.906C526.735 106.517 526.687 105.8 526.185 105.476L525.216 106.976C524.715 106.652 524.667 105.936 525.121 105.548L526.281 106.906Z" fill="#00BD62" mask="url(#path-7-inside-1_2257_3927)"/>
<path d="M461.142 375.059L461.144 375.054L461.142 375.059ZM461.143 375.062C496.403 287.298 459.075 187.559 375.909 144.172C372.614 142.453 371.181 138.457 372.762 135.119C374.335 131.801 375.907 128.483 377.478 125.164C378.763 122.453 380.047 119.742 381.332 117.03C382.916 113.685 386.909 112.261 390.183 113.945C415.423 126.933 437.891 144.764 456.284 166.443L456.625 166.154L456.284 166.443C508.326 227.772 522.134 312.878 492.141 387.517C488.698 396.074 478.974 400.226 470.412 396.787C461.87 393.351 457.719 383.654 461.124 375.103C461.131 375.09 461.137 375.076 461.143 375.062ZM461.174 374.909C461.181 374.692 461.043 374.543 460.895 374.482C460.895 374.481 460.895 374.481 460.895 374.481C461.055 374.543 461.182 374.692 461.174 374.909Z" stroke="#00BD62" stroke-width="0.89266"/>
<path d="M503.576 392.128L503.577 392.128C503.582 392.114 503.587 392.101 503.591 392.087C540.321 300.639 514.462 195.955 439.377 132.129L439.377 132.129C436.287 129.504 433.138 126.967 429.922 124.515C426.969 122.264 426.271 118.083 428.419 115.076L440.051 98.7906C442.202 95.7798 446.392 95.0886 449.333 97.3112C543.59 168.556 578.848 294.398 534.576 404.572C521.718 436.566 485.357 452.082 453.363 439.223C421.37 426.365 405.854 390.005 418.712 358.011L418.298 357.844L418.712 358.011C441.424 301.488 424.215 237.067 377.108 199.321C374.203 196.994 373.517 192.807 375.674 189.811C379.573 184.396 383.47 178.981 387.367 173.566C389.53 170.56 393.717 169.88 396.611 172.151C456.205 218.899 478.16 299.67 449.71 370.475C443.733 385.352 450.945 402.259 465.822 408.236C480.697 414.213 497.598 407.002 503.576 392.128Z" stroke="#00BD62" stroke-width="0.89266"/>
</g>
</svg>
