<svg width="498" height="490" viewBox="0 0 498 490" fill="none" xmlns="http://www.w3.org/2000/svg">
<circle cx="251.232" cy="239.726" r="239.726" fill="#D9FBEB"/>
<path d="M458.276 37.2656C459.138 31.0662 450.373 25.9583 443.803 25.4344C440.66 25.1724 437.407 25.6527 434.427 24.6158C427.988 22.3783 425.412 14.0615 419.147 11.4093C414.443 9.42286 409.04 11.191 404.489 13.483C399.938 15.7751 395.43 18.6565 390.3 18.9403C385.869 19.224 381.067 17.576 377.203 19.7479C374.322 21.3524 372.837 24.6813 370.152 26.635C367.467 28.5886 364.149 28.9707 360.929 29.1453C357.71 29.3199 354.381 29.3527 351.412 30.6951C348.443 32.0376 346.042 35.1482 346.653 38.3353L458.276 37.2656Z" fill="#EBEBEB"/>
<path d="M380.006 115.282C380.792 109.607 372.77 104.935 366.756 104.444C363.886 104.215 360.895 104.651 358.177 103.702C352.284 101.65 349.926 94.0317 344.174 91.6087C339.874 89.7969 334.93 91.4123 330.76 93.5078C326.591 95.6034 322.465 98.2447 317.816 98.5503C313.756 98.8013 309.357 97.3061 305.81 99.2816C303.169 100.755 301.782 103.8 299.349 105.601C296.915 107.402 293.891 107.729 290.901 107.882C287.91 108.035 284.887 108.079 282.169 109.312C279.451 110.545 277.247 113.383 277.803 116.286L380.006 115.282Z" fill="#F5F5F5"/>
<path d="M164.282 53.7467C164.97 47.3944 157.919 42.1664 152.626 41.6316C150.094 41.3697 147.474 41.8608 145.073 40.8021C139.889 38.4664 137.793 29.9531 132.761 27.2464C128.985 25.2163 124.63 27.0172 120.963 29.3638C117.296 31.7104 113.672 34.6682 109.568 35.0065C106.01 35.2903 102.136 33.6095 99.0249 35.8251C96.7001 37.4732 95.4777 40.8785 93.3385 42.8868C91.1992 44.895 88.5143 45.277 85.9167 45.4517C83.319 45.6263 80.6231 45.67 78.2765 47.0452C76.9572 47.8406 75.8932 48.9971 75.2104 50.3782C74.5276 51.7592 74.2546 53.3068 74.4237 54.8381L164.282 53.7467Z" fill="#EBEBEB"/>
<path d="M88.0672 119.364H86.5719C84.227 119.364 82.3262 121.265 82.3262 123.61V123.861C82.3262 126.206 84.227 128.107 86.5719 128.107H88.0672C90.412 128.107 92.3129 126.206 92.3129 123.861V123.61C92.3129 121.265 90.412 119.364 88.0672 119.364Z" fill="#F5F5F5"/>
<path d="M92.6297 123.741H82.0209C80.1281 123.741 78.5938 125.275 78.5938 127.168V128.161C78.5938 130.054 80.1281 131.588 82.0209 131.588H92.6297C94.5225 131.588 96.0569 130.054 96.0569 128.161V127.168C96.0569 125.275 94.5225 123.741 92.6297 123.741Z" fill="white"/>
<path d="M3.43807 212.748H9.74663V219.821H3.43807C2.98566 219.821 2.53769 219.731 2.11986 219.558C1.70202 219.384 1.32253 219.13 1.00313 218.81C0.683738 218.489 0.430721 218.109 0.258585 217.691C0.0864501 217.272 -0.0014189 216.824 1.73259e-05 216.372V216.164C0.00578278 215.256 0.370549 214.387 1.01469 213.747C1.65882 213.107 2.53001 212.748 3.43807 212.748Z" fill="white"/>
<path d="M483.257 227.505H11.9707V282.819H483.257V227.505Z" fill="#EBEBEB"/>
<path d="M212.56 283.725C212.331 284.085 337.76 282.317 337.76 282.317C337.76 282.317 341.132 236.924 384.943 236.171C428.753 235.418 432.082 280.92 432.082 280.92H492.112V148.069H212.56V283.725Z" fill="#EBEBEB"/>
<path d="M26.762 133.87L5.15137 200.568V282.819H47.0956C47.0956 282.819 47.2048 233.835 93.1546 234.654C139.104 235.472 140.425 282.819 140.425 282.819H165.321V135.845C165.322 135.006 165.158 134.174 164.838 133.398C164.518 132.622 164.048 131.917 163.455 131.323C162.862 130.729 162.157 130.258 161.382 129.936C160.607 129.615 159.775 129.449 158.936 129.449H32.8413C31.4916 129.452 30.177 129.88 29.0853 130.674C27.9936 131.468 27.1805 132.586 26.762 133.87Z" fill="#F5F5F5"/>
<path d="M23.5657 143.737C23.5657 143.737 29.6778 143.245 27.866 149.936C26.0542 156.627 14.1465 196.181 14.1465 196.181L5.73145 198.789L23.5657 143.737Z" fill="#EBEBEB"/>
<path d="M23.5649 143.736C23.5589 143.841 23.5368 143.944 23.4994 144.042L23.2483 144.882C23.0082 145.657 22.6808 146.727 22.2551 148.091C21.3711 150.896 20.0722 154.902 18.5333 159.846C15.3463 169.789 10.8932 183.52 6.0035 198.876L5.65424 198.516L9.65984 197.272L14.0256 195.907L13.8401 196.093C18.446 180.704 22.5716 166.962 25.5295 157.019C26.2716 154.553 26.9483 152.326 27.5486 150.361C27.8358 149.468 27.9974 148.538 28.0289 147.6C28.0454 146.826 27.8286 146.066 27.4067 145.417C27.0571 144.901 26.5638 144.499 25.9879 144.26C25.5723 144.067 25.1313 143.935 24.6781 143.867C24.307 143.802 24.0233 143.791 23.8268 143.769C23.7292 143.785 23.6297 143.785 23.5321 143.769H23.8268C24.1138 143.746 24.4021 143.746 24.689 143.769C25.1582 143.819 25.6177 143.937 26.0534 144.118C26.6642 144.358 27.1941 144.767 27.5814 145.297C28.0465 145.982 28.2903 146.794 28.2799 147.622C28.2718 148.584 28.1248 149.54 27.8433 150.46C27.2649 152.435 26.6209 154.673 25.9006 157.15C22.9646 167.104 18.9153 180.867 14.3858 196.279V196.431H14.2439L9.87813 197.796L5.87253 199.04L5.34863 199.193L5.52326 198.68C10.5439 183.29 15.0516 169.527 18.3041 159.573C19.9303 154.662 21.251 150.7 22.1678 147.917C22.6262 146.585 22.9755 145.537 23.2593 144.784C23.3793 144.446 23.4775 144.184 23.543 143.976L23.5649 143.736Z" fill="white"/>
<path d="M45.2075 148.178L33.5073 181.893C33.1431 182.938 33.0343 184.055 33.1902 185.15C33.346 186.246 33.7619 187.288 34.403 188.19C35.0441 189.091 35.8919 189.827 36.8753 190.334C37.8588 190.841 38.9494 191.105 40.0559 191.105H76.0736C77.327 191.105 78.5291 190.607 79.4154 189.72C80.3017 188.834 80.7996 187.632 80.7996 186.379V147.61C80.7996 147.101 80.699 146.596 80.5036 146.125C80.3082 145.654 80.0218 145.227 79.6609 144.867C79.2999 144.507 78.8715 144.222 78.4001 144.028C77.9288 143.834 77.4238 143.734 76.914 143.736H51.4506C50.0773 143.735 48.7379 144.163 47.6189 144.959C46.4999 145.755 45.657 146.88 45.2075 148.178Z" fill="#EBEBEB"/>
<path d="M45.2076 148.178C45.3554 147.611 45.6031 147.076 45.9388 146.596C46.8753 145.177 48.3211 144.173 49.9772 143.791C51.1718 143.605 52.3821 143.539 53.5899 143.594H57.8683H68.2916H75.9317C76.4892 143.573 77.0475 143.595 77.6017 143.66C78.1861 143.762 78.7414 143.989 79.2294 144.326C79.7174 144.664 80.1265 145.103 80.4285 145.613C80.7443 146.134 80.9348 146.72 80.9851 147.327C80.9851 147.949 80.9851 148.506 80.9851 149.095C80.9851 150.274 80.9851 151.463 80.9851 152.675C80.9851 155.098 80.9851 157.586 80.9851 160.14C80.9851 165.248 80.9851 170.618 80.9851 176.174V184.654C80.9851 185.375 80.9851 186.073 80.9851 186.837C80.9394 187.609 80.7072 188.358 80.3084 189.02C79.9105 189.692 79.3625 190.262 78.7073 190.686C78.0521 191.11 77.3076 191.377 76.532 191.465H43.3194C42.0314 191.465 40.7981 191.465 39.5211 191.465C38.2443 191.372 37.0157 190.938 35.963 190.21C34.9674 189.504 34.1649 188.56 33.629 187.463C33.0932 186.367 32.8412 185.153 32.8961 183.934C33.02 182.807 33.3068 181.704 33.7474 180.66C34.1076 179.568 34.4568 178.608 34.8388 177.615C35.5373 175.617 36.214 173.707 36.8471 171.884L42.9374 154.618L44.5854 149.794L45.0329 148.582C45.08 148.443 45.1384 148.308 45.2076 148.178C45.1789 148.323 45.1388 148.465 45.0875 148.604L44.6946 149.794C44.3235 150.885 43.7887 152.479 43.112 154.509L37.1963 171.83L35.199 177.615L34.1076 180.66C33.6894 181.67 33.421 182.737 33.3108 183.825C33.272 184.971 33.5251 186.108 34.0463 187.129C34.5675 188.151 35.3397 189.023 36.2904 189.664C37.2613 190.331 38.3906 190.73 39.5648 190.821C40.7763 190.821 42.0642 190.821 43.3303 190.821H76.5539C77.2415 190.74 77.901 190.501 78.4805 190.122C79.0601 189.744 79.5438 189.236 79.8937 188.638C80.2461 188.051 80.4555 187.389 80.5049 186.706C80.5049 186.019 80.5049 185.276 80.5049 184.523C80.5049 181.649 80.5049 178.822 80.5049 176.043C80.5049 170.487 80.5049 165.128 80.5049 160.01C80.5049 157.456 80.5049 154.967 80.5049 152.544C80.5049 151.333 80.5049 150.143 80.5049 148.964C80.5049 148.386 80.5049 147.774 80.5049 147.24C80.4581 146.703 80.2901 146.185 80.0138 145.722C79.7485 145.268 79.3876 144.876 78.956 144.575C78.5245 144.273 78.0326 144.069 77.5143 143.976C76.9855 143.916 76.4529 143.894 75.9208 143.911H74.3601H68.2916H57.8683H53.5899C52.402 143.843 51.2104 143.89 50.0317 144.053C48.4128 144.4 46.9854 145.347 46.0371 146.705C45.7248 147.175 45.4475 147.667 45.2076 148.178Z" fill="white"/>
<path d="M165.966 139.414C165.966 139.578 134.402 139.709 95.4809 139.709C56.5599 139.709 24.9844 139.578 24.9844 139.414C24.9844 139.25 56.5381 139.13 95.4809 139.13C134.424 139.13 165.966 139.261 165.966 139.414Z" fill="white"/>
<path d="M91.399 224.383C91.2353 224.383 91.1152 205.458 91.1152 182.112C91.1152 158.766 91.2353 139.829 91.399 139.829C91.5627 139.829 91.6828 158.755 91.6828 182.112C91.6828 205.469 91.5518 224.383 91.399 224.383Z" fill="white"/>
<path d="M76.9366 203.766C77.5144 203.68 78.064 203.459 78.541 203.122C79.0706 202.71 79.4253 202.114 79.5343 201.452C79.6105 201.024 79.5882 200.584 79.469 200.166C79.3499 199.748 79.137 199.363 78.8466 199.04C78.5053 198.677 78.0651 198.423 77.5806 198.308C77.0244 198.225 76.4607 198.203 75.8997 198.243H72.0469H63.2171C62.5535 198.27 61.925 198.549 61.4599 199.023C60.9948 199.497 60.728 200.131 60.7141 200.795C60.7002 201.459 60.9401 202.103 61.385 202.596C61.8298 203.09 62.446 203.395 63.108 203.449L70.3006 203.515L75.1576 203.613C75.7526 203.597 76.348 203.633 76.9366 203.722C76.348 203.811 75.7526 203.848 75.1576 203.831L70.3006 203.919L63.0862 203.973C62.2994 203.942 61.5546 203.61 61.006 203.045C60.4574 202.48 60.1471 201.726 60.1393 200.939C60.1062 200.11 60.3957 199.3 60.9469 198.68C61.2361 198.365 61.587 198.114 61.9775 197.941C62.3681 197.768 62.7901 197.678 63.2171 197.675H72.0469H75.8997C76.499 197.651 77.0991 197.691 77.6897 197.795C78.2487 197.944 78.7528 198.251 79.1413 198.68C79.4645 199.052 79.6961 199.494 79.8174 199.972C79.9387 200.449 79.9464 200.949 79.8399 201.43C79.7778 201.8 79.6425 202.153 79.442 202.47C79.2414 202.787 78.9797 203.06 78.672 203.275C78.2991 203.542 77.8626 203.708 77.4059 203.755C77.2521 203.792 77.092 203.796 76.9366 203.766Z" fill="white"/>
<path d="M21.6092 282.819C21.5926 282.692 21.5926 282.564 21.6092 282.437C21.6092 282.164 21.6092 281.804 21.6092 281.346C21.6092 280.342 21.6092 278.923 21.6092 277.111C21.6092 273.389 21.5546 268.063 21.5219 261.503C21.5219 248.297 21.5219 230.113 21.4346 210.031C21.4346 205.665 21.4346 201.375 21.4346 197.272V197.195C26.0405 180.823 30.1006 166.329 33.0148 155.96C34.4883 150.82 35.667 146.694 36.4965 143.813C36.9004 142.416 37.2278 141.324 37.457 140.538C37.5552 140.189 37.6425 139.916 37.708 139.698C37.7349 139.6 37.7714 139.505 37.8172 139.414C37.8305 139.512 37.8305 139.611 37.8172 139.709L37.6098 140.571C37.4024 141.357 37.1077 142.448 36.7366 143.845L33.4623 156.037L21.8821 197.326V210.02C21.8821 230.102 21.8275 248.286 21.8057 261.492C21.8057 268.041 21.7293 273.378 21.7074 277.1C21.7074 278.912 21.7074 280.374 21.7074 281.335C21.7074 281.804 21.7074 282.164 21.7074 282.426C21.69 282.561 21.6571 282.692 21.6092 282.819Z" fill="white"/>
<path d="M43.4832 269.034H7.44366C3.33264 269.034 0 272.366 0 276.477V276.936C0 281.047 3.33264 284.379 7.44366 284.379H43.4832C47.5942 284.379 50.9269 281.047 50.9269 276.936V276.477C50.9269 272.366 47.5942 269.034 43.4832 269.034Z" fill="white"/>
<path d="M134.815 143.736H115.212C107.273 143.736 100.838 150.172 100.838 158.111V177.713C100.838 185.652 107.273 192.087 115.212 192.087H134.815C142.753 192.087 149.189 185.652 149.189 177.713V158.111C149.189 150.172 142.753 143.736 134.815 143.736Z" fill="white"/>
<path d="M217.906 212.748H165.32V269.885H217.906V212.748Z" fill="#EBEBEB"/>
<path d="M292.17 199.814H223.201C218.759 199.814 215.157 203.416 215.157 207.858V261.852C215.157 266.295 218.759 269.896 223.201 269.896H292.17C296.612 269.896 300.214 266.295 300.214 261.852V207.858C300.214 203.416 296.612 199.814 292.17 199.814Z" fill="white"/>
<path d="M282.752 205.185H231.181C225.557 205.185 220.998 209.744 220.998 215.368V259.091C220.998 264.715 225.557 269.274 231.181 269.274H282.752C288.376 269.274 292.935 264.715 292.935 259.091V215.368C292.935 209.744 288.376 205.185 282.752 205.185Z" fill="#F5F5F5"/>
<path d="M234.181 221.087H234.007C232.343 221.087 230.994 222.436 230.994 224.1V233.061C230.994 234.724 232.343 236.073 234.007 236.073H234.181C235.845 236.073 237.194 234.724 237.194 233.061V224.1C237.194 222.436 235.845 221.087 234.181 221.087Z" fill="#EBEBEB"/>
<path d="M244.602 221.087H244.427C242.764 221.087 241.415 222.436 241.415 224.1V233.061C241.415 234.724 242.764 236.073 244.427 236.073H244.602C246.266 236.073 247.614 234.724 247.614 233.061V224.1C247.614 222.436 246.266 221.087 244.602 221.087Z" fill="#EBEBEB"/>
<path d="M255.026 221.087H254.851C253.188 221.087 251.839 222.436 251.839 224.1V233.061C251.839 234.724 253.188 236.073 254.851 236.073H255.026C256.69 236.073 258.038 234.724 258.038 233.061V224.1C258.038 222.436 256.69 221.087 255.026 221.087Z" fill="#EBEBEB"/>
<path d="M284.897 229.795C286.163 224.414 282.826 219.026 277.445 217.761C272.064 216.496 266.677 219.833 265.412 225.214C264.147 230.594 267.483 235.982 272.864 237.247C278.245 238.512 283.632 235.176 284.897 229.795Z" fill="white"/>
<path d="M242.003 253.361C242.003 254.54 241.653 255.692 240.997 256.673C240.342 257.653 239.411 258.417 238.321 258.867C237.232 259.318 236.033 259.435 234.877 259.205C233.72 258.974 232.659 258.405 231.826 257.571C230.993 256.736 230.426 255.673 230.197 254.517C229.968 253.36 230.088 252.161 230.541 251.073C230.993 249.984 231.759 249.054 232.74 248.4C233.722 247.747 234.875 247.399 236.054 247.401C236.836 247.401 237.611 247.556 238.333 247.855C239.055 248.155 239.712 248.594 240.264 249.147C240.817 249.701 241.255 250.358 241.553 251.081C241.851 251.804 242.004 252.579 242.003 253.361Z" fill="white"/>
<path d="M255.542 259.32C258.834 259.32 261.502 256.652 261.502 253.361C261.502 250.069 258.834 247.401 255.542 247.401C252.251 247.401 249.583 250.069 249.583 253.361C249.583 256.652 252.251 259.32 255.542 259.32Z" fill="white"/>
<path d="M280.97 253.361C280.97 254.539 280.621 255.691 279.966 256.671C279.311 257.651 278.38 258.415 277.292 258.866C276.203 259.317 275.004 259.435 273.848 259.205C272.692 258.976 271.631 258.408 270.797 257.575C269.964 256.741 269.396 255.679 269.166 254.523C268.936 253.367 269.054 252.169 269.505 251.08C269.956 249.991 270.72 249.061 271.7 248.406C272.68 247.751 273.832 247.401 275.011 247.401C275.794 247.4 276.57 247.553 277.293 247.852C278.017 248.151 278.674 248.59 279.228 249.144C279.782 249.697 280.221 250.355 280.52 251.078C280.819 251.802 280.972 252.578 280.97 253.361Z" fill="white"/>
<path d="M280.772 227.504C280.772 228.618 280.441 229.707 279.822 230.633C279.204 231.559 278.324 232.281 277.295 232.708C276.266 233.134 275.133 233.245 274.041 233.028C272.948 232.811 271.945 232.274 271.157 231.487C270.37 230.699 269.833 229.696 269.616 228.603C269.399 227.511 269.51 226.378 269.937 225.349C270.363 224.32 271.085 223.441 272.011 222.822C272.937 222.203 274.026 221.873 275.14 221.873C276.633 221.873 278.066 222.466 279.122 223.522C280.178 224.578 280.772 226.011 280.772 227.504Z" fill="#F5F5F5"/>
<path d="M318.792 197.37H492.146V211.559H318.792C316.968 211.559 315.22 210.834 313.93 209.545C312.64 208.255 311.916 206.506 311.916 204.683V204.268C311.913 203.363 312.089 202.467 312.433 201.63C312.777 200.793 313.283 200.033 313.922 199.392C314.561 198.751 315.32 198.243 316.156 197.896C316.991 197.549 317.887 197.37 318.792 197.37Z" fill="white"/>
<path d="M329.974 247.107C329.909 247.107 329.974 246.387 329.614 245.175C329.139 243.45 328.102 241.933 326.667 240.864C325.622 240.081 324.397 239.572 323.105 239.381C321.813 239.191 320.494 239.325 319.267 239.772C317.822 240.321 316.578 241.296 315.698 242.566C314.719 243.899 314.191 245.508 314.191 247.161C314.191 248.814 314.719 250.424 315.698 251.756C316.605 253.004 317.863 253.954 319.311 254.485C320.62 254.962 322.032 255.087 323.404 254.845C324.88 254.571 326.249 253.888 327.355 252.873C328.461 251.857 329.259 250.552 329.658 249.104C329.985 247.882 329.952 247.161 330.018 247.161C330.039 247.335 330.039 247.511 330.018 247.685C330.009 248.182 329.947 248.676 329.832 249.159C329.479 250.69 328.688 252.086 327.556 253.176C326.425 254.267 325.001 255.006 323.458 255.304C321.916 255.597 320.321 255.445 318.862 254.866C317.402 254.286 316.138 253.302 315.218 252.029C314.167 250.607 313.6 248.886 313.6 247.118C313.6 245.35 314.167 243.628 315.218 242.206C316.194 240.877 317.548 239.873 319.103 239.325C320.407 238.853 321.808 238.719 323.177 238.937C324.546 239.155 325.837 239.716 326.929 240.569C328.399 241.71 329.426 243.327 329.832 245.142C329.947 245.625 330.009 246.119 330.018 246.616C330.023 246.781 330.008 246.945 329.974 247.107Z" fill="white"/>
<path d="M488.715 268.281H437.515C432.844 268.281 429.057 272.068 429.057 276.74V277.253C429.057 281.925 432.844 285.712 437.515 285.712H488.715C493.387 285.712 497.174 281.925 497.174 277.253V276.74C497.174 272.068 493.387 268.281 488.715 268.281Z" fill="white"/>
<path d="M387.586 316.351C408.3 315.703 424.567 298.387 423.92 277.673C423.272 256.959 405.956 240.692 385.242 241.34C364.528 241.987 348.261 259.304 348.908 280.017C349.556 300.731 366.872 316.998 387.586 316.351Z" fill="white"/>
<path d="M348.9 278.202C348.9 278.202 348.9 278.268 348.9 278.3C348.784 283.255 349.65 288.183 351.449 292.801C353.248 297.419 355.944 301.635 359.381 305.205C362.818 308.775 366.928 311.629 371.474 313.602C376.021 315.575 380.912 316.628 385.868 316.7C390.823 316.772 395.744 315.862 400.345 314.022C404.947 312.182 409.138 309.449 412.678 305.98C416.217 302.511 419.035 298.376 420.967 293.812C422.9 289.249 423.909 284.348 423.937 279.392V279.294L348.9 278.202Z" fill="white"/>
<path d="M360.068 278.464C359.993 283.675 361.465 288.79 364.297 293.164C367.129 297.538 371.195 300.974 375.98 303.037C380.764 305.101 386.054 305.699 391.179 304.756C396.303 303.814 401.034 301.373 404.771 297.742C408.509 294.111 411.086 289.454 412.177 284.358C413.267 279.263 412.823 273.959 410.899 269.116C408.975 264.273 405.659 260.11 401.369 257.152C397.079 254.194 392.008 252.575 386.798 252.499C383.338 252.448 379.901 253.08 376.685 254.358C373.469 255.635 370.537 257.534 368.054 259.945C365.572 262.356 363.59 265.233 362.219 268.41C360.849 271.588 360.118 275.004 360.068 278.464Z" fill="#FAFAFA"/>
<path d="M386.795 252.499C379.808 252.4 373.067 255.079 368.055 259.948C363.043 264.817 360.169 271.477 360.065 278.464L412.75 279.217C412.846 272.234 410.167 265.498 405.3 260.488C400.434 255.479 393.778 252.605 386.795 252.499Z" fill="#F5F5F5"/>
<path d="M370.367 278.584C370.316 281.758 371.207 284.876 372.928 287.544C374.649 290.211 377.123 292.308 380.037 293.569C382.95 294.83 386.172 295.198 389.295 294.627C392.417 294.056 395.301 292.572 397.579 290.362C399.858 288.152 401.43 285.315 402.096 282.212C402.763 279.108 402.493 275.876 401.322 272.926C400.151 269.975 398.131 267.438 395.518 265.636C392.904 263.834 389.815 262.848 386.641 262.802C382.392 262.743 378.293 264.372 375.243 267.33C372.192 270.288 370.439 274.335 370.367 278.584Z" fill="white"/>
<path d="M96.1769 316.36C116.89 315.695 133.142 298.364 132.477 277.651C131.811 256.938 114.48 240.686 93.7672 241.351C73.0541 242.017 56.8021 259.347 57.4675 280.061C58.1329 300.774 75.4637 317.026 96.1769 316.36Z" fill="white"/>
<path d="M57.4747 278.202V278.3C57.403 283.227 58.3023 288.119 60.1213 292.698C61.9403 297.276 64.6434 301.452 68.0761 304.986C71.5088 308.52 75.604 311.343 80.1279 313.295C84.6517 315.246 89.5157 316.287 94.4419 316.359C99.3682 316.431 104.26 315.531 108.839 313.712C113.418 311.893 117.593 309.19 121.127 305.758C124.662 302.325 127.485 298.23 129.436 293.706C131.388 289.182 132.429 284.318 132.501 279.392C132.506 279.359 132.506 279.326 132.501 279.294L57.4747 278.202Z" fill="white"/>
<path d="M68.652 278.464C68.5792 283.672 70.052 288.784 72.8844 293.155C75.7167 297.526 79.7813 300.959 84.5644 303.02C89.3475 305.08 94.6342 305.677 99.7563 304.734C104.878 303.79 109.606 301.349 113.341 297.72C117.076 294.09 119.651 289.434 120.74 284.341C121.829 279.248 121.384 273.947 119.461 269.107C117.538 264.267 114.222 260.106 109.934 257.149C105.646 254.193 100.578 252.575 95.3706 252.499C91.911 252.448 88.4754 253.08 85.26 254.358C82.0446 255.636 79.1126 257.534 76.6313 259.946C74.15 262.357 72.1682 265.234 70.7991 268.411C69.43 271.589 68.7004 275.005 68.652 278.464Z" fill="#FAFAFA"/>
<path d="M95.368 252.499C88.3819 252.4 81.6424 255.079 76.6319 259.949C71.6213 264.818 68.75 271.478 68.6494 278.464L121.323 279.217C121.373 275.759 120.742 272.324 119.465 269.109C118.188 265.895 116.29 262.963 113.88 260.482C111.47 258.001 108.594 256.019 105.418 254.649C102.242 253.279 98.8267 252.549 95.368 252.499Z" fill="#F5F5F5"/>
<path d="M78.9435 278.584C78.8921 281.758 79.7831 284.875 81.5038 287.543C83.2245 290.21 85.6977 292.306 88.6104 293.568C91.5231 294.829 94.7444 295.198 97.8668 294.628C100.989 294.058 103.872 292.575 106.152 290.366C108.431 288.157 110.004 285.321 110.671 282.218C111.339 279.115 111.071 275.884 109.901 272.933C108.732 269.982 106.714 267.445 104.102 265.641C101.49 263.838 98.4015 262.85 95.2279 262.802C90.9771 262.741 86.8755 264.368 83.8228 267.326C80.77 270.285 79.0153 274.334 78.9435 278.584Z" fill="white"/>
<path d="M138.042 269.034H342.328V278.289C342.328 279.905 341.686 281.454 340.544 282.596C339.402 283.738 337.853 284.38 336.238 284.38H151.129C147.655 284.38 144.324 283 141.867 280.543C139.411 278.087 138.031 274.756 138.031 271.282V269.023L138.042 269.034Z" fill="white"/>
<path d="M479.458 153.985H203.443C201.315 153.985 199.59 155.71 199.59 157.838V158.067C199.59 160.195 201.315 161.92 203.443 161.92H479.458C481.586 161.92 483.311 160.195 483.311 158.067V157.838C483.311 155.71 481.586 153.985 479.458 153.985Z" fill="white"/>
<path d="M479.458 183.945H203.443C201.315 183.945 199.59 185.67 199.59 187.798V188.027C199.59 190.155 201.315 191.88 203.443 191.88H479.458C481.586 191.88 483.311 190.155 483.311 188.027V187.798C483.311 185.67 481.586 183.945 479.458 183.945Z" fill="white"/>
<path d="M218.361 157.958H212.871V184.949H218.361V157.958Z" fill="white"/>
<path d="M241.231 157.958H235.741V184.949H241.231V157.958Z" fill="white"/>
<path d="M264.099 157.958H258.609V184.949H264.099V157.958Z" fill="white"/>
<path d="M286.961 157.958H281.471V184.949H286.961V157.958Z" fill="white"/>
<path d="M309.832 157.958H304.342V184.949H309.832V157.958Z" fill="white"/>
<path d="M332.691 157.958H327.201V184.949H332.691V157.958Z" fill="white"/>
<path d="M355.561 157.958H350.071V184.949H355.561V157.958Z" fill="white"/>
<path d="M378.426 157.958H372.936V184.949H378.426V157.958Z" fill="white"/>
<path d="M401.291 157.958H395.801V184.949H401.291V157.958Z" fill="white"/>
<path d="M423.002 157.958H417.512V184.949H423.002V157.958Z" fill="white"/>
<path d="M444.699 157.958H439.209V184.949H444.699V157.958Z" fill="white"/>
<path d="M466.396 157.958H460.906V184.949H466.396V157.958Z" fill="white"/>
<path d="M146.394 269.852C146.394 269.852 146.394 269.732 146.273 269.492C146.153 269.252 146.099 268.859 145.979 268.401C145.859 267.942 145.706 267.309 145.488 266.633C145.269 265.956 144.986 265.148 144.691 264.264C144.396 263.38 143.949 262.409 143.534 261.35C143.119 260.291 142.53 259.167 141.973 257.967C140.593 255.269 139.036 252.666 137.313 250.174C132.892 243.635 127.257 238.006 120.712 233.595C118.813 232.344 116.817 231.249 114.742 230.32C112.554 229.393 110.321 228.577 108.051 227.875C105.709 227.138 103.326 226.54 100.913 226.086C98.4257 225.622 95.9094 225.33 93.382 225.212C88.3988 224.959 83.4064 225.478 78.582 226.751C74.0984 227.983 69.8212 229.87 65.8885 232.35C56.6704 238.289 49.295 246.685 44.5944 256.591C44.0596 257.814 43.503 258.949 43.1537 260.019C42.8044 261.088 42.4006 262.081 42.1386 262.987C41.8767 263.893 41.6693 264.69 41.4729 265.399C41.2764 266.109 41.2109 266.709 41.1018 267.189C40.9926 267.67 40.9271 268.019 40.8726 268.281C40.8519 268.407 40.819 268.532 40.7743 268.652C40.7575 268.525 40.7575 268.397 40.7743 268.27C40.7743 267.986 40.8726 267.615 40.949 267.178C41.0254 266.742 41.1127 266.087 41.2655 265.367C41.4183 264.646 41.6475 263.85 41.8767 262.933C42.1059 262.016 42.4988 261.034 42.8481 259.942C43.1973 258.851 43.7431 257.705 44.256 256.471C45.5358 253.705 47.0321 251.045 48.731 248.515C53.1655 241.9 58.8944 236.253 65.572 231.914C69.539 229.396 73.857 227.48 78.3856 226.227C83.2681 224.924 88.324 224.39 93.3711 224.645C95.9353 224.768 98.488 225.067 101.011 225.54C103.448 226.008 105.857 226.613 108.226 227.352C110.55 228.072 112.788 228.934 114.949 229.84C117.05 230.765 119.073 231.86 120.996 233.114C127.583 237.579 133.236 243.284 137.64 249.912C139.358 252.425 140.901 255.055 142.257 257.781C142.803 259.004 143.348 260.128 143.785 261.197C144.222 262.267 144.604 263.249 144.876 264.144L145.63 266.545C145.826 267.244 145.946 267.844 146.066 268.324C146.186 268.805 146.252 269.154 146.306 269.416C146.356 269.557 146.385 269.704 146.394 269.852Z" fill="white"/>
<path d="M45.0214 166.853H43.3843C42.0961 166.853 40.8608 166.341 39.9499 165.43C39.0391 164.52 38.5273 163.284 38.5273 161.996V139.414H41.8017V161.996C41.8017 162.416 41.9684 162.818 42.2652 163.115C42.562 163.412 42.9645 163.579 43.3843 163.579H45.0214V166.853Z" fill="white"/>
<path d="M21.6094 241.322H2.11621V254.245H21.6094V241.322Z" fill="white"/>
<path d="M29.6773 213.96C29.208 214.429 29.6773 254.245 29.6773 254.245H45.9071C45.9071 254.245 57.2691 229.884 83.0163 225.573V213.96H29.6773Z" fill="white"/>
<path d="M51.8023 148.069H51.4094C47.8831 148.069 45.0244 150.928 45.0244 154.454V171.001C45.0244 174.527 47.8831 177.386 51.4094 177.386H51.8023C55.3286 177.386 58.1872 174.527 58.1872 171.001V154.454C58.1872 150.928 55.3286 148.069 51.8023 148.069Z" fill="#F5F5F5"/>
<path d="M170.081 268.674C169.928 268.674 169.797 256.144 169.797 240.689C169.797 225.235 169.928 212.694 170.081 212.694C170.233 212.694 170.364 225.224 170.364 240.689C170.364 256.155 170.244 268.674 170.081 268.674Z" fill="white"/>
<path d="M180.088 268.674C179.936 268.674 179.805 256.144 179.805 240.689C179.805 225.235 179.936 212.694 180.088 212.694C180.241 212.694 180.372 225.224 180.372 240.689C180.372 256.155 180.241 268.674 180.088 268.674Z" fill="white"/>
<path d="M190.098 268.674C189.935 268.674 189.814 256.144 189.814 240.689C189.814 225.235 189.935 212.694 190.098 212.694C190.262 212.694 190.382 225.224 190.382 240.689C190.382 256.155 190.251 268.674 190.098 268.674Z" fill="white"/>
<path d="M200.101 268.674C199.937 268.674 199.817 256.144 199.817 240.689C199.817 225.235 199.937 212.694 200.101 212.694C200.265 212.694 200.385 225.224 200.385 240.689C200.385 256.155 200.254 268.674 200.101 268.674Z" fill="white"/>
<path d="M210.103 268.674C209.95 268.674 209.819 256.144 209.819 240.689C209.819 225.235 209.95 212.694 210.103 212.694C210.256 212.694 210.387 225.224 210.387 240.689C210.387 256.155 210.267 268.674 210.103 268.674Z" fill="white"/>
<path d="M234.018 216.044C235.145 216.044 236.059 215.131 236.059 214.003C236.059 212.876 235.145 211.962 234.018 211.962C232.89 211.962 231.977 212.876 231.977 214.003C231.977 215.131 232.89 216.044 234.018 216.044Z" fill="white"/>
<path d="M239.625 216.044C240.752 216.044 241.666 215.131 241.666 214.003C241.666 212.876 240.752 211.962 239.625 211.962C238.498 211.962 237.584 212.876 237.584 214.003C237.584 215.131 238.498 216.044 239.625 216.044Z" fill="white"/>
<path d="M247.274 214.003C247.274 214.407 247.155 214.802 246.93 215.137C246.706 215.473 246.387 215.735 246.014 215.889C245.642 216.044 245.231 216.084 244.835 216.005C244.439 215.926 244.076 215.732 243.79 215.447C243.505 215.161 243.31 214.797 243.232 214.402C243.153 214.006 243.193 213.595 243.348 213.222C243.502 212.849 243.764 212.531 244.099 212.306C244.435 212.082 244.83 211.962 245.233 211.962C245.775 211.962 246.294 212.177 246.677 212.56C247.059 212.943 247.274 213.462 247.274 214.003Z" fill="white"/>
<path d="M383.37 236.105C383.206 236.105 383.086 230.866 383.086 224.416C383.086 217.965 383.206 212.737 383.37 212.737C383.533 212.737 383.654 217.965 383.654 224.416C383.654 230.866 383.49 236.105 383.37 236.105Z" fill="white"/>
<path d="M492.143 211.537C492.143 211.537 492.143 211.221 492.143 210.599C492.143 209.976 492.143 209.071 492.143 207.881C492.143 205.491 492.143 201.965 492.088 197.37L492.197 197.479L423.13 197.61H372.553H318.635C317.43 197.637 316.255 197.996 315.241 198.647C313.9 199.51 312.916 200.828 312.469 202.358C312.25 203.12 312.161 203.913 312.207 204.705C312.212 205.49 312.364 206.267 312.654 206.997C313.076 208.093 313.785 209.055 314.707 209.783C315.629 210.51 316.729 210.977 317.893 211.133C318.685 211.2 319.479 211.221 320.273 211.199H339.264H375.15L435.966 211.275L477.026 211.363H488.213H491.127H492.143H491.171H488.29H477.168L436.173 211.45L375.281 211.526H339.264H320.273C319.453 211.549 318.633 211.524 317.817 211.45C316.98 211.344 316.17 211.085 315.427 210.686C313.929 209.872 312.768 208.553 312.152 206.964C311.831 206.173 311.665 205.329 311.661 204.476C311.609 203.625 311.705 202.772 311.945 201.954C312.369 200.495 313.248 199.208 314.453 198.282C315.658 197.356 317.127 196.837 318.646 196.803H372.455H423.032L492.099 196.934H492.197V197.032C492.197 201.649 492.197 205.196 492.143 207.608C492.143 208.787 492.143 209.682 492.143 210.304C492.143 210.926 492.143 211.537 492.143 211.537Z" fill="white"/>
<path d="M139.717 380.973C139.717 381.137 120.169 381.257 96.0592 381.257C71.9492 381.257 52.4014 381.137 52.4014 380.973C52.4014 380.81 71.9492 380.689 96.0592 380.689C120.169 380.689 139.717 380.82 139.717 380.973Z" fill="white"/>
<path d="M335.89 380.973C335.89 381.137 316.342 381.257 292.232 381.257C268.122 381.257 248.574 381.137 248.574 380.973C248.574 380.81 268.122 380.689 292.232 380.689C316.342 380.689 335.89 380.82 335.89 380.973Z" fill="white"/>
<path d="M103.964 425.558C105.1 426.094 106.117 426.854 106.953 427.792C107.789 428.729 108.428 429.825 108.832 431.015C109.613 433.422 109.833 435.975 109.476 438.48C108.931 443.326 106.202 448.216 103.211 452.091C99.1294 448.533 98.1907 442.322 97.9179 439.135C97.4813 434.115 99.7297 424.761 103.964 425.514" fill="#00BD62"/>
<path d="M107.914 460.124C107.632 458.734 107.724 457.295 108.18 455.953C108.637 454.61 109.441 453.413 110.511 452.483C111.589 451.574 112.837 450.889 114.183 450.467C115.528 450.046 116.944 449.896 118.348 450.028C119.001 450.019 119.648 450.154 120.244 450.421C120.839 450.689 121.369 451.084 121.797 451.578C122.106 452.104 122.269 452.703 122.269 453.313C122.269 453.923 122.106 454.522 121.797 455.048C121.185 456.104 120.304 456.978 119.243 457.58C115.707 459.763 111.887 461.291 107.881 460.091" fill="#00BD62"/>
<path d="M100.864 463.038C100.371 460.103 99.1866 457.328 97.4082 454.943C95.6298 452.557 93.3089 450.629 90.6374 449.318C89.2731 448.663 87.4941 448.227 86.3699 449.253C85.2457 450.279 85.4967 452.091 86.0533 453.498C87.2485 456.424 89.2839 458.93 91.9025 460.7C94.5212 462.47 97.6055 463.424 100.766 463.442" fill="#00BD62"/>
<path d="M199.093 436.047L200.392 461.696C200.392 461.696 174.765 471.629 174.547 476.387L224.36 475.656L224.022 435.611L199.093 436.047Z" fill="#263238"/>
<path d="M215.768 459.306C216.248 459.446 216.661 459.758 216.927 460.183C217.192 460.608 217.293 461.115 217.208 461.609C217.086 462.095 216.783 462.516 216.361 462.785C215.939 463.055 215.43 463.154 214.938 463.061C214.432 462.906 213.999 462.573 213.72 462.124C213.441 461.674 213.334 461.138 213.421 460.616C213.599 460.121 213.963 459.714 214.436 459.482C214.908 459.25 215.452 459.21 215.953 459.372" fill="white"/>
<path d="M224.361 475.656L224.165 471.618L176.479 473.801C176.479 473.801 174.296 474.794 174.547 476.355L224.361 475.656Z" fill="#455A64"/>
<path d="M199.582 461.456C199.582 461.696 200.815 461.784 202.015 462.548C203.216 463.312 203.882 464.327 204.1 464.229C204.318 464.13 203.947 462.733 202.463 461.827C200.979 460.922 199.527 461.227 199.582 461.456Z" fill="white"/>
<path d="M194.388 463.694C194.388 463.923 195.403 464.327 196.243 465.342C197.084 466.357 197.335 467.438 197.575 467.427C197.815 467.416 197.957 466.041 196.887 464.796C195.817 463.552 194.388 463.454 194.388 463.694Z" fill="white"/>
<path d="M191.515 469.992C191.734 469.992 192.05 468.813 191.406 467.492C190.762 466.172 189.616 465.659 189.518 465.855C189.42 466.051 190.14 466.761 190.609 467.863C191.079 468.966 191.275 469.97 191.515 469.992Z" fill="white"/>
<path d="M199.934 455.573C200.043 455.792 201.156 455.442 202.531 455.519C203.906 455.595 204.987 456.01 205.107 455.792C205.227 455.573 204.19 454.7 202.564 454.7C200.938 454.7 199.814 455.399 199.934 455.573Z" fill="white"/>
<path d="M292.258 431.048L295.652 461.947L305.388 485.599C305.552 486.003 305.632 486.437 305.623 486.873C305.613 487.31 305.514 487.739 305.332 488.136C305.15 488.533 304.889 488.888 304.564 489.18C304.24 489.472 303.859 489.694 303.445 489.834C302.964 489.995 302.451 490.039 301.95 489.961C301.449 489.884 300.973 489.686 300.564 489.386C295.27 485.501 275.843 471.137 275.723 468.856C275.581 466.226 269.971 436.527 269.971 436.527L292.258 431.048Z" fill="#263238"/>
<path d="M303.449 489.812L275.442 466.761L275.617 468.07C275.77 469.196 276.315 470.232 277.156 470.996C279.415 473.037 285.789 478.516 300.48 489.375C300.901 489.687 301.392 489.89 301.91 489.966C302.428 490.043 302.956 489.99 303.449 489.812Z" fill="#455A64"/>
<path d="M294.617 477.293C294.802 477.359 295.283 475.645 296.996 474.532C298.71 473.419 300.445 473.582 300.456 473.44C300.467 473.298 300.052 473.178 299.365 473.167C298.404 473.193 297.471 473.491 296.673 474.026C295.875 474.561 295.245 475.312 294.857 476.191C294.529 476.813 294.54 477.282 294.617 477.293Z" fill="white"/>
<path d="M297.356 481.125C297.531 481.234 298.382 480.099 299.91 479.433C300.88 479.114 301.868 478.851 302.868 478.647C302.934 478.483 301.362 478.025 299.594 478.811C297.826 479.597 297.149 481.059 297.356 481.125Z" fill="white"/>
<path d="M289.835 472.557C289.999 472.677 291.297 470.93 293.589 469.686C295.881 468.442 298.042 468.213 298.021 468.005C296.355 467.794 294.669 468.18 293.262 469.097C290.806 470.428 289.671 472.48 289.835 472.557Z" fill="white"/>
<path d="M288.013 463.247C288.122 463.421 289.727 462.483 291.932 462.155C294.136 461.828 295.959 462.079 296.003 461.883C296.046 461.686 294.169 461.053 291.812 461.479C289.454 461.904 287.893 463.127 288.013 463.247Z" fill="white"/>
<path d="M286.791 454.209C286.9 454.373 288.482 453.118 290.829 452.921C293.176 452.725 294.966 453.587 295.053 453.401C295.14 453.216 294.704 452.987 293.961 452.67C292.951 452.277 291.862 452.127 290.783 452.233C289.704 452.34 288.665 452.699 287.751 453.281C287.042 453.74 286.725 454.155 286.791 454.209Z" fill="white"/>
<path d="M290.6 451.207C290.653 450.811 290.616 450.408 290.491 450.029C290.238 448.977 289.786 447.984 289.159 447.104C288.732 446.407 288.088 445.87 287.326 445.576C287.073 445.505 286.804 445.511 286.555 445.595C286.306 445.679 286.087 445.835 285.929 446.045C285.656 446.48 285.551 447 285.634 447.507C285.84 448.533 286.398 449.454 287.211 450.111C288.024 450.769 289.041 451.122 290.087 451.109C291.121 451.075 292.121 450.735 292.962 450.133C293.803 449.531 294.447 448.693 294.813 447.726C294.901 447.48 294.936 447.219 294.915 446.96C294.895 446.7 294.819 446.448 294.693 446.219C294.541 446.004 294.326 445.842 294.077 445.756C293.829 445.67 293.559 445.664 293.307 445.739C292.573 446.008 291.922 446.463 291.419 447.06C290.672 447.841 290.066 448.746 289.629 449.734C289.449 450.073 289.337 450.444 289.301 450.825C289.947 449.559 290.774 448.393 291.757 447.366C292.22 446.875 292.792 446.501 293.427 446.274C293.566 446.233 293.714 446.236 293.851 446.283C293.987 446.33 294.106 446.419 294.191 446.536C294.26 446.693 294.295 446.862 294.295 447.033C294.295 447.204 294.26 447.373 294.191 447.529C293.85 448.356 293.279 449.068 292.546 449.58C291.813 450.093 290.948 450.385 290.054 450.422C289.171 450.425 288.312 450.129 287.618 449.582C286.924 449.035 286.437 448.269 286.234 447.409C286.165 447.059 286.223 446.695 286.398 446.383C286.482 446.265 286.6 446.176 286.737 446.127C286.874 446.078 287.022 446.072 287.162 446.11C287.784 446.363 288.314 446.801 288.679 447.366C289.549 448.518 290.2 449.82 290.6 451.207Z" fill="white"/>
<path d="M197.761 288.004L195.447 349.605L195.163 401.056C195.163 401.056 193.482 443.862 195.916 454.536C195.916 454.536 227.568 455.628 227.568 454.536C227.568 453.445 231.934 382.501 231.934 382.501C231.934 382.501 240.229 328.409 240.502 321.991C240.894 316.428 241.564 310.887 242.51 305.39C242.51 305.39 254.418 358.129 254.691 372.056C254.963 385.983 271.291 454.787 271.291 454.787L297.803 452.604L291.101 341.223C291.101 341.223 285.982 269.853 286.233 268.991C286.484 268.128 202.792 272.974 202.792 272.723C202.792 272.472 197.761 288.004 197.761 288.004Z" fill="#00BD62"/>
<g opacity="0.3">
<path opacity="0.3" d="M197.282 290.656C197.282 290.656 199.672 293.144 217.147 295.174C224.604 295.893 232.097 296.173 239.587 296.015L240.187 290.656L241.693 296.015C248.569 295.829 257.705 294.738 263.522 294.257C271.601 293.39 279.496 291.269 286.923 287.971H244.76L239.303 277.733L235.93 288.887L197.282 290.656Z" fill="black"/>
</g>
<path d="M258.536 350.828L263.993 402.671C270.228 405.313 277.12 405.988 283.749 404.603C294.663 402.257 294.587 400.5 294.587 400.5L291.476 348.743C281.26 351.646 270.182 352.083 258.536 350.828Z" fill="#263238"/>
<path d="M228.496 349.889L225.833 401.918C219.746 404.906 212.889 405.954 206.187 404.919C195.12 403.173 195.131 401.416 195.131 401.416L195.415 349.572C205.86 351.941 216.949 351.766 228.496 349.889Z" fill="#263238"/>
<path d="M263.217 419.37L295.589 416.347L296.266 427.753L265.629 430.285L263.217 419.796" fill="white"/>
<path d="M296.516 431.911L266.676 434.967L269.142 445.74L297.204 443.349L296.516 431.911Z" fill="white"/>
<path d="M264.021 423.343L295.825 420.342L296.044 424.085L264.872 427.043L264.021 423.343Z" fill="white"/>
<path d="M267.605 438.809L296.736 436.059L296.954 439.802L268.457 442.509L267.605 438.809Z" fill="white"/>
<path d="M194.128 417.22L194.357 428.451L228.967 430.579L229.687 418.595L194.128 417.22Z" fill="white"/>
<path d="M194.183 420.254L229.447 422.557L229.273 426.639L194.324 424.795L194.183 420.254Z" fill="white"/>
<path d="M194.464 433.166C194.464 436.626 194.671 440.501 194.911 444.637L227.993 446.525L228.572 437.041L228.637 435.338L194.464 433.166Z" fill="white"/>
<path d="M194.529 436.2L228.484 438.535L228.222 442.617L194.649 440.74L194.529 436.2Z" fill="white"/>
<g opacity="0.3">
<path opacity="0.3" d="M197.409 295.185L218.463 299.092C216.469 308.632 214.476 318.175 212.482 327.721L196.667 320.146L196.973 308.141L199.898 302.792L197.278 299.518L197.409 295.185Z" fill="black"/>
</g>
<path d="M306.613 207.346C306.613 207.346 307.519 202.489 307.705 201.125C307.89 199.76 297.696 165.936 294.062 157.903C292.501 154.476 289.412 151.595 286.367 149.423C282.018 146.349 276.646 145.081 271.382 145.887H271.152L278.279 200.033L277.494 200.099C279.339 206.057 280.869 212.108 282.078 218.228C283.988 227.974 289.805 259.779 289.805 260.794C289.805 261.809 312.431 265.127 312.431 265.127C314.352 249.508 306.613 207.346 306.613 207.346Z" fill="#00BD62"/>
<path d="M291.429 265.127C291.517 265.859 292.313 270.355 292.313 270.355L289.301 274.721C287.991 276.609 283.407 288.419 283.407 288.419C283.406 288.742 283.474 289.062 283.607 289.357C283.739 289.652 283.934 289.914 284.177 290.128C284.42 290.341 284.706 290.499 285.016 290.592C285.326 290.685 285.652 290.711 285.972 290.667C288.526 290.514 293.536 284.621 294.595 284.446C295.653 284.271 298.033 288.059 298.033 288.059C298.033 288.059 298.12 292.424 296.799 293.69C295.479 294.957 290.36 299.672 290.72 301.876C291.08 304.081 294.682 303.459 296.712 302.837C298.742 302.215 301.907 301.876 302.868 300.654C303.828 299.431 310.18 293.079 310.704 292.206C311.228 291.333 310.617 281.554 310.704 278.825C310.792 276.096 311.676 268.696 311.676 268.696L312.374 265.149L290.72 261.329L291.429 265.127Z" fill="#263238"/>
<path d="M289.768 260.837L290.717 265.127L312.371 268.903V265.127L289.768 260.837Z" fill="#455A64"/>
<path d="M310.768 233.759C310.768 233.759 306.512 228.913 297.114 230.19C288.688 231.336 285.349 235.865 285.349 235.865L287.073 245.579C287.073 245.579 299.483 238.321 311.871 244.488L310.768 233.759Z" fill="white"/>
<path d="M311.054 236.487C311.054 236.487 306.689 232.285 297.302 233.562C288.876 234.708 286.071 238.965 286.071 238.965L286.606 242.316C286.606 242.316 299.049 234.195 311.447 240.307L311.054 236.487Z" fill="white"/>
<path d="M287.225 166.799C287.279 167.34 287.279 167.884 287.225 168.425C287.225 169.517 287.094 170.968 286.941 172.791C286.505 177.629 285.776 182.437 284.759 187.187C283.726 191.955 282.395 196.654 280.775 201.256C280.153 203.013 279.607 204.421 279.203 205.381C279.024 205.892 278.797 206.386 278.526 206.855C278.637 206.325 278.794 205.807 278.996 205.305C279.345 204.323 279.825 202.893 280.393 201.125C281.539 197.589 282.979 192.655 284.191 187.111C285.402 181.566 286.123 176.48 286.549 172.791C286.756 170.946 286.92 169.44 287.007 168.425C287.038 167.878 287.111 167.335 287.225 166.799Z" fill="#263238"/>
<path d="M291.584 187.831C291.268 188.897 290.836 189.926 290.296 190.898C289.107 193.297 287.75 195.609 286.236 197.818C284.728 200.04 283.073 202.159 281.281 204.159C280.57 205.017 279.773 205.8 278.901 206.495C279.533 205.583 280.225 204.715 280.975 203.897C282.274 202.315 284.02 200.077 285.767 197.501C287.513 194.925 288.943 192.47 289.925 190.669C290.416 189.688 290.97 188.74 291.584 187.831Z" fill="#263238"/>
<path d="M213.346 124.33C229.587 117.951 247.516 117.285 264.186 122.442C265.065 122.62 265.864 123.076 266.467 123.741C267.558 125.269 266.368 127.365 265.179 128.838C259.852 135.387 254.013 141.935 246.319 145.395C243.976 146.632 241.298 147.087 238.678 146.694C236.277 146.181 234.313 144.588 232.37 143.038C225.254 137.253 218.061 131.392 212.647 124.003" fill="#00BD62"/>
<g opacity="0.3">
<path opacity="0.3" d="M213.348 124.33C229.589 117.951 247.518 117.285 264.187 122.442C265.067 122.62 265.866 123.076 266.469 123.741C267.56 125.269 266.37 127.365 265.181 128.838C259.854 135.387 254.015 141.935 246.32 145.395C243.977 146.632 241.3 147.087 238.68 146.694C236.279 146.181 234.315 144.588 232.372 143.038C225.256 137.253 218.063 131.392 212.649 124.003" fill="black"/>
</g>
<path d="M266.818 102.578C269.936 96.8175 271.494 90.3422 271.337 83.7942C271.42 81.2368 270.785 78.7073 269.503 76.4924C268.03 74.3095 262.726 71.7446 260.379 70.4458L261.601 79.09C261.601 79.09 266.415 84.711 266.709 85.3331C267.004 85.9552 266.818 102.578 266.818 102.578Z" fill="#263238"/>
<path d="M226.696 106.245C225.107 101.561 223.927 96.7483 223.171 91.8602C222.413 86.9535 222.885 81.9355 224.546 77.2566C224.819 76.5581 227.111 71.8758 227.82 71.9631C228.355 71.9631 226.925 76.3944 227.187 76.8637C229.556 81.4361 230.481 86.6198 229.839 91.7292C229.317 96.6699 228.252 101.538 226.663 106.245" fill="#263238"/>
<path d="M226.477 87.3848C226.205 74.986 233.277 64.5299 245.665 64.6609L246.757 64.7373C252.315 65.1103 257.528 67.5642 261.357 71.61C265.187 75.6557 267.35 80.996 267.418 86.5662C267.56 97.306 267.57 109.181 267.112 114.944C266.152 126.797 254.167 127.834 254.167 127.834L254.32 147.36L226.172 148.091L226.477 87.3848Z" fill="#E49384"/>
<path d="M254.227 127.779C248.745 127.395 243.488 125.448 239.078 122.169C239.078 122.169 242.221 132.058 254.14 131.785L254.227 127.779Z" fill="#A86B62"/>
<path d="M261.633 96.2257C261.61 96.6687 261.415 97.085 261.088 97.3851C260.761 97.6852 260.33 97.845 259.887 97.8301C259.67 97.8331 259.455 97.7924 259.254 97.7105C259.053 97.6286 258.871 97.5071 258.718 97.3534C258.566 97.1996 258.445 97.0166 258.365 96.8154C258.284 96.6141 258.245 96.3988 258.249 96.182C258.272 95.7391 258.468 95.3227 258.794 95.0226C259.121 94.7225 259.552 94.5627 259.996 94.5776C260.212 94.5761 260.426 94.6178 260.626 94.7003C260.826 94.7827 261.008 94.9042 261.161 95.0577C261.313 95.2112 261.433 95.3936 261.514 95.5941C261.595 95.7947 261.636 96.0094 261.633 96.2257Z" fill="#263238"/>
<path d="M264.602 91.3034C264.383 91.5107 263.161 90.4739 261.327 90.3538C259.494 90.2337 258.107 91.0523 257.922 90.8122C257.736 90.5721 258.075 90.3211 258.686 89.9391C259.51 89.4445 260.467 89.2194 261.425 89.2951C262.382 89.3735 263.288 89.756 264.012 90.3865C264.547 90.7904 264.711 91.2051 264.602 91.3034Z" fill="#263238"/>
<path d="M245.374 95.6911C245.349 96.1321 245.152 96.5457 244.826 96.8435C244.499 97.1412 244.069 97.2995 243.628 97.2846C243.41 97.289 243.194 97.2494 242.992 97.1682C242.79 97.0869 242.607 96.9657 242.453 96.8118C242.299 96.6578 242.177 96.4744 242.096 96.2724C242.015 96.0704 241.975 95.8541 241.98 95.6365C242.005 95.1954 242.202 94.7818 242.528 94.4841C242.855 94.1863 243.285 94.028 243.726 94.043C243.943 94.04 244.159 94.0807 244.36 94.1624C244.562 94.2442 244.744 94.3655 244.898 94.5191C245.052 94.6728 245.173 94.8556 245.255 95.0569C245.337 95.2582 245.377 95.4738 245.374 95.6911Z" fill="#263238"/>
<path d="M246.692 90.8558C246.463 91.0632 245.252 90.0263 243.418 89.9063C241.584 89.7862 240.144 90.6048 240.013 90.3756C239.882 90.1464 240.155 89.8845 240.766 89.5025C241.595 89.0099 242.554 88.7815 243.516 88.8476C244.473 88.926 245.379 89.3085 246.103 89.939C246.638 90.321 246.801 90.7358 246.692 90.8558Z" fill="#263238"/>
<path d="M252.279 105.285C253.261 105.042 254.27 104.928 255.281 104.947C255.75 104.947 256.198 104.87 256.296 104.554C256.365 104.077 256.289 103.59 256.078 103.157C255.717 102 255.335 100.788 254.986 99.5113C253.414 94.3379 252.312 90.0921 252.519 90.0266C252.727 89.9612 254.178 94.1196 255.794 99.293C256.176 100.57 256.536 101.792 256.885 102.949C257.14 103.531 257.183 104.184 257.005 104.794C256.924 104.953 256.808 105.093 256.667 105.202C256.525 105.312 256.361 105.388 256.187 105.427C255.924 105.476 255.657 105.494 255.39 105.482C254.349 105.55 253.303 105.484 252.279 105.285Z" fill="#263238"/>
<path d="M246.833 106.136C247.128 106.136 246.997 108.112 248.591 109.64C250.184 111.168 252.312 111.08 252.312 111.364C252.312 111.484 251.821 111.714 250.926 111.681C249.766 111.615 248.665 111.144 247.816 110.349C247.001 109.587 246.516 108.538 246.462 107.424C246.44 106.627 246.691 106.136 246.833 106.136Z" fill="#263238"/>
<path d="M247.092 83.4231C246.874 83.9034 245.073 83.5432 242.912 83.6523C240.751 83.7615 238.994 84.2308 238.732 83.7724C238.623 83.5541 238.961 83.1066 239.682 82.6809C240.65 82.1476 241.731 81.8486 242.836 81.8078C243.941 81.7592 245.042 81.9645 246.056 82.4081C246.82 82.7682 247.18 83.2157 247.092 83.4231Z" fill="#263238"/>
<path d="M264.263 85.1916C263.914 85.5845 262.691 85.0606 261.174 84.9406C259.657 84.8205 258.369 85.0279 258.107 84.5804C257.987 84.3621 258.216 83.9583 258.806 83.5981C259.586 83.175 260.477 82.9998 261.36 83.096C262.247 83.1644 263.089 83.5165 263.761 84.1002C264.274 84.5586 264.405 84.9951 264.263 85.1916Z" fill="#263238"/>
<path d="M226.851 96.2369C226.655 96.1386 218.862 93.2681 218.567 101.399C218.273 109.531 226.502 108.145 226.524 107.948C226.546 107.752 226.851 96.2369 226.851 96.2369Z" fill="#E49384"/>
<path d="M224.154 104.739C224.154 104.739 224.001 104.837 223.761 104.936C223.588 105.008 223.403 105.046 223.215 105.046C223.028 105.046 222.842 105.008 222.67 104.936C222.157 104.582 221.747 104.099 221.482 103.535C221.218 102.971 221.108 102.347 221.163 101.727C221.166 101.031 221.327 100.344 221.633 99.7185C221.707 99.459 221.847 99.2227 222.038 99.0318C222.228 98.8409 222.465 98.7016 222.724 98.6271C222.888 98.5881 223.06 98.6083 223.21 98.6843C223.359 98.7602 223.478 98.8869 223.543 99.0418C223.641 99.271 223.543 99.4348 223.63 99.4457C223.717 99.4566 223.816 99.3256 223.761 98.9873C223.719 98.7839 223.612 98.5999 223.455 98.4634C223.238 98.2867 222.96 98.2007 222.681 98.2232C222.344 98.2778 222.026 98.4178 221.759 98.6298C221.491 98.8419 221.282 99.1191 221.153 99.4348C220.784 100.127 220.589 100.899 220.585 101.683C220.585 103.32 221.36 104.881 222.528 105.263C222.742 105.336 222.971 105.359 223.196 105.331C223.421 105.303 223.637 105.223 223.827 105.099C224.132 104.936 224.176 104.761 224.154 104.739Z" fill="#A86B62"/>
<path d="M262.583 72.9344C263.915 72.2467 260.084 67.87 256.886 66.3202C252.062 63.9627 244.629 62.4019 240.088 63.5588C234.631 64.945 230.036 67.5208 227.177 72.3886C224.408 77.3613 223.018 82.9831 223.149 88.673C223.035 90.4001 223.385 92.1262 224.164 93.6718C225.256 95.4945 227.439 96.6842 227.231 99.1291C227.148 100.035 227.427 100.938 228.006 101.639C229.458 103.266 231.28 101.825 232.197 100.351C234.064 97.219 234.38 93.4208 234.62 89.7754C234.946 87.1931 234.842 84.5748 234.315 82.0261C233.954 80.6618 233.354 79.363 233.07 77.9768C232.883 77.2943 232.848 76.5791 232.967 75.8814C233.085 75.1838 233.355 74.5206 233.758 73.9385C233.962 73.6991 234.189 73.4798 234.435 73.2836C235.597 72.327 236.992 71.6957 238.478 71.4541C239.964 71.2125 241.488 71.3692 242.893 71.9084C247.423 73.6547 255.183 76.2742 257.268 74.7898C258.753 73.8634 260.028 72.6366 261.011 71.188L262.583 72.9344Z" fill="#263238"/>
<path d="M240.547 62.4779C242.79 61.7441 245.157 61.4627 247.51 61.65C249.863 61.8374 252.156 62.4897 254.255 63.5693C255.382 64.1215 256.384 64.8967 257.202 65.8479C258.02 66.7991 258.637 67.9065 259.014 69.1029C259.625 71.526 258.523 74.4619 256.176 75.346L256.012 75.4333C252.52 76.5248 250.271 75.99 246.844 74.6911C243.963 73.5997 241.387 71.7442 238.538 70.6746C235.442 69.5309 232.074 69.3408 228.868 70.1289C232.021 66.5961 236.049 63.9571 240.547 62.4779Z" fill="#263238"/>
<path d="M225.805 97.7541C225.79 97.6637 225.79 97.5716 225.805 97.4812C225.805 97.2739 225.805 97.001 225.805 96.6626C225.805 95.9096 225.805 94.8399 225.739 93.4756C225.739 90.6379 225.641 86.5668 225.564 81.4697L233.434 68.7871L233.499 68.678H233.619L258.854 67.27H258.952L259.039 67.3573L269.048 77.7588L269.135 77.8461V77.9662C269.059 79.6034 268.982 81.3497 268.895 83.1178C268.655 88.3786 268.415 93.5084 268.174 98.4635C268.12 99.7078 268.065 100.93 268 102.153C267.991 103.377 267.845 104.596 267.563 105.787C267.019 108.109 265.893 110.254 264.289 112.019C262.71 113.658 260.737 114.864 258.559 115.523C257.534 115.862 256.483 116.114 255.415 116.276C254.324 116.385 253.32 116.472 252.305 116.516C248.485 116.471 244.744 115.425 241.456 113.482C238.746 111.928 236.245 110.035 234.012 107.85C232.32 106.221 230.738 104.482 229.275 102.644C228.075 101.127 227.223 99.8933 226.656 99.0529C226.383 98.6273 226.176 98.2998 226.045 98.0706C225.97 97.9616 225.907 97.8445 225.859 97.7214C225.859 97.7214 225.936 97.8305 226.088 98.0379C226.241 98.2452 226.47 98.5945 226.754 98.9874C227.344 99.806 228.228 101.018 229.45 102.502C230.932 104.309 232.529 106.019 234.231 107.621C236.472 109.736 238.965 111.569 241.652 113.078C244.887 114.955 248.555 115.955 252.294 115.981C253.298 115.981 254.313 115.85 255.35 115.741C256.384 115.579 257.403 115.331 258.395 114.999C260.492 114.356 262.389 113.187 263.907 111.605C265.46 109.909 266.55 107.841 267.072 105.602C267.353 104.447 267.496 103.264 267.498 102.076C267.552 100.865 267.607 99.6314 267.662 98.3981C267.891 93.432 268.131 88.3022 268.371 83.0414C268.458 81.2733 268.546 79.516 268.622 77.8789L268.698 78.0862L258.701 67.532L258.919 67.6193L233.619 69.0272L233.805 68.9181L225.837 81.5461V81.4479V93.4538C225.837 94.829 225.837 95.8986 225.837 96.6626V97.4921C225.815 97.6559 225.805 97.7541 225.805 97.7541Z" fill="white"/>
<path d="M268.979 74.1568L260.509 70.6096L260.247 70.5332L246.495 67.5972C246.222 67.5422 245.938 67.5649 245.677 67.6627L236.028 71.2099C235.919 71.2444 235.816 71.296 235.723 71.3627L226.314 77.6167C226.131 77.7381 225.976 77.8991 225.863 78.088C225.75 78.2769 225.68 78.4888 225.659 78.7081L225.299 83.3467C225.288 83.4081 225.288 83.4709 225.299 83.5323L226.194 102.578C226.208 102.959 226.37 103.32 226.645 103.585C226.919 103.849 227.286 103.997 227.668 103.997C227.867 103.997 228.065 103.957 228.249 103.879C228.432 103.801 228.599 103.687 228.737 103.543C228.876 103.399 228.984 103.229 229.055 103.043C229.126 102.856 229.159 102.657 229.152 102.458L228.945 97.3391C228.945 91.5108 227.155 80.5526 235.057 76.0231C242.959 71.4936 251.734 72.6287 255.794 73.3928C259.854 74.1568 265.29 76.547 266.305 79.0464C267.167 81.1639 267.462 97.5246 267.527 102.534C267.533 102.924 267.692 103.296 267.97 103.57C268.248 103.844 268.622 103.997 269.012 103.997C269.39 103.995 269.753 103.85 270.029 103.59C270.304 103.331 270.471 102.977 270.496 102.6L271.817 80.4981C271.829 80.2825 271.795 80.0668 271.718 79.865L269.743 74.9317C269.596 74.586 269.323 74.309 268.979 74.1568Z" fill="#455A64"/>
<path d="M270.236 80.7055C269.581 77.4312 266.242 71.5156 249.084 70.8825C236.467 70.4023 231.37 75.3465 228.259 78.8501C227.122 80.1663 226.478 81.837 226.437 83.576C226.437 83.576 226.142 88.8914 226.142 90.5722L226.207 96.0294L221.154 93.8465C217.105 91.6636 216.603 88.5749 218.251 86.4684C218.251 86.4684 218.251 83.4341 218.676 77.6604C219.211 70.4132 223.042 62.3802 229.154 59.2914C233.608 57.2008 238.31 55.686 243.147 54.7837L243.856 52.1861C243.922 51.9667 244.056 51.7737 244.238 51.6346C244.421 51.4956 244.642 51.4174 244.871 51.4111H250.852C251.081 51.4174 251.303 51.4956 251.485 51.6346C251.667 51.7737 251.801 51.9667 251.867 52.1861L252.544 54.62C252.544 54.62 263.851 58.6802 267.824 64.1046C271.797 69.5291 273.281 79.2757 273.281 79.2757C273.516 82.1405 273.545 85.0183 273.369 87.8872C273.802 88.3057 274.149 88.8057 274.389 89.3585C274.628 89.9113 274.756 90.506 274.765 91.1084C274.775 91.7109 274.665 92.3092 274.442 92.869C274.219 93.4288 273.888 93.939 273.467 94.3704C272.146 95.7347 270.858 96.8371 270.858 96.8371L270.782 90.6813L270.236 80.7055Z" fill="#00BD62"/>
<path d="M224.144 91.2709C224.017 91.1599 223.907 91.0313 223.817 90.8889C223.62 90.6379 223.347 90.2449 223.009 89.732C222.038 88.2782 221.277 86.6945 220.75 85.0278C220.475 83.7312 220.488 82.3904 220.786 81.0991C221.083 79.8077 221.66 78.597 222.474 77.5514C223.427 76.3585 224.494 75.2619 225.661 74.2771C226.872 73.1788 228.147 72.1547 229.481 71.2101C230.827 70.2677 232.23 69.411 233.683 68.6452C235.091 67.8921 236.499 67.2919 237.743 66.5824C238.939 65.9634 239.982 65.0875 240.799 64.0175C241.438 63.0357 241.89 61.944 242.131 60.7978C242.611 58.6803 242.775 56.9013 242.971 55.6898C243.07 55.0786 243.157 54.5983 243.222 54.2927C243.246 54.1266 243.294 53.9649 243.364 53.8125C243.364 53.8125 243.31 54.4892 243.201 55.7116C243.067 57.4475 242.837 59.1746 242.513 60.8851C242.319 62.199 241.807 63.4456 241.021 64.5166C240.236 65.5875 239.2 66.4503 238.005 67.0299C236.728 67.783 235.331 68.3942 233.945 69.1364C231.083 70.6636 228.412 72.5248 225.989 74.6809C224.838 75.6446 223.785 76.7195 222.845 77.8898C222.062 78.8712 221.499 80.0102 221.196 81.2288C220.893 82.4475 220.856 83.7172 221.088 84.9514C221.587 86.5992 222.295 88.1763 223.194 89.6447C223.806 90.6706 224.177 91.2382 224.144 91.2709Z" fill="#263238"/>
<g opacity="0.3">
<path opacity="0.3" d="M224.143 91.2709C224.143 91.2709 220.661 86.4467 220.661 83.478C220.662 82.936 220.713 82.3952 220.814 81.8626C221.235 79.792 222.26 77.8927 223.761 76.4054C226.939 73.1708 230.626 70.4792 234.676 68.4379C236.858 67.3464 239.347 66.255 240.853 64.3449C242.763 61.8346 242.741 57.1523 243.353 53.8125C243.353 53.8125 241.661 60.8087 239.762 63.1989C237.863 65.5892 229.819 67.4883 222.681 74.8774C215.543 82.2665 220.323 87.7892 222.255 89.5792C223.084 90.3104 224.143 91.2709 224.143 91.2709Z" fill="black"/>
</g>
<path d="M273.205 78.7081C272.64 77.1449 271.805 75.693 270.738 74.4187C267.981 71.4811 264.633 69.1601 260.915 67.6081C259.821 67.1685 258.793 66.5809 257.859 65.8618C257.025 65.1256 256.356 64.2219 255.894 63.2096C255.01 61.3105 254.355 59.5969 253.711 58.1562C253.068 56.7155 252.707 55.5149 252.456 54.6854C252.292 54.2608 252.182 53.817 252.129 53.3647C252.35 53.7599 252.529 54.1769 252.664 54.609C252.98 55.4167 253.46 56.5845 254.083 58.0034C254.705 59.4223 255.436 61.1467 256.265 62.9695C256.718 63.9074 257.352 64.7459 258.132 65.4361C259.034 66.1214 260.025 66.6796 261.079 67.0951C264.869 68.6658 268.251 71.081 270.967 74.1568C271.773 75.1294 272.397 76.2383 272.812 77.4311C272.936 77.7446 273.028 78.0701 273.085 78.4025C273.216 78.5771 273.227 78.6972 273.205 78.7081Z" fill="#263238"/>
<path d="M240.086 106.06C239.91 105.752 239.778 105.422 239.693 105.077C239.464 104.433 239.169 103.495 238.831 102.327C238.143 99.9804 237.292 96.717 236.528 93.0715C235.688 89.1205 235.131 85.5297 234.836 83.1285L235.207 83.063C235.524 84.7984 235.709 85.9335 235.72 86.25H235.655C235.655 86.1299 235.655 86.0972 235.655 86.0972C235.655 86.0972 235.655 86.0972 235.655 86.25V86.4792L235.568 86.2609C235.448 85.9771 235.153 84.8639 234.749 83.1394L235.12 83.0739C235.535 85.4533 236.157 89.0114 236.997 92.9624C237.761 96.586 238.547 99.8603 239.126 102.218C239.527 103.477 239.848 104.76 240.086 106.06Z" fill="white"/>
<path d="M242.261 103.462C241.346 100.643 240.617 97.7658 240.078 94.8507C239.354 91.9786 238.822 89.0617 238.484 86.1191C239.394 88.9441 240.123 91.824 240.667 94.7416C241.379 97.6126 241.911 100.525 242.261 103.462Z" fill="white"/>
<path d="M264.976 105.602C264.793 102.581 264.793 99.5524 264.976 96.5318C264.963 93.5 265.145 90.4704 265.521 87.4619C265.706 90.486 265.706 93.5186 265.521 96.5427C265.531 99.5709 265.349 102.597 264.976 105.602Z" fill="white"/>
<g opacity="0.3">
<path opacity="0.3" d="M268.848 70.5876C266.862 69.0705 264.482 68.0772 262.42 66.7457C258.054 63.9843 255.183 58.92 252.542 54.5215C254.015 58.3743 254.834 61.6705 256.908 64.3445C259.233 67.3569 263.336 68.23 266.578 70.2274C269.117 71.7894 271.138 74.068 272.384 76.7761C272.483 74.364 270.824 72.1047 268.848 70.5876Z" fill="black"/>
</g>
<path d="M203.063 210.915V224.59C215.791 224.62 228.505 225.386 241.144 226.882C262.918 229.382 278.908 225.005 278.908 225.005V212.006L203.063 210.915Z" fill="#263238"/>
<path d="M209.374 139.654C209.374 139.654 207.355 136.02 208.752 133.629C209.556 132.213 210.677 131.003 212.027 130.093V123.785C212.027 123.785 225.91 125.04 232.48 130.333C236.767 133.968 240.531 138.177 243.668 142.841C243.668 142.841 251.744 135.136 256.034 132.363C260.323 129.591 266.512 121.252 266.512 121.252L270.299 123.152L269.535 126.306C269.535 126.306 276.356 133.629 277.24 138.039C277.34 138.542 277.269 139.063 277.04 139.521C276.811 139.979 276.436 140.349 275.974 140.571C274.337 141.324 268.629 142.918 268.629 142.918C268.629 142.918 275.669 149.783 277.273 154.924C278.878 160.064 282.534 195.307 280.264 202.249C277.994 209.19 275.974 211.984 275.974 211.984L207.65 210.915L204.277 140.735L209.898 139.643" fill="#00BD62"/>
<path d="M206.272 182.996C240.587 164.791 280.632 182.996 280.632 182.996L279.541 170.488C279.541 170.488 266.804 163.612 244.953 162.04C231.396 161.237 217.856 163.892 205.606 169.757L206.272 182.996Z" fill="white"/>
<path d="M209.049 178.259C242.054 163.426 280.418 179.907 280.418 179.907L280.134 173.031C280.134 173.031 266.546 165.85 244.695 164.878C222.845 163.907 207.761 171.427 207.761 171.427L209.049 178.259Z" fill="white"/>
<path d="M214.888 139.425C214.888 139.425 201.332 138.803 198.614 144.882L203.067 218.926L213.218 220.192L214.888 139.425Z" fill="#263238"/>
<path d="M266.589 143.245C269.724 142.751 272.933 143.036 275.932 144.075C281.04 146.072 281.389 147.425 281.989 153.614C282.589 159.802 283.026 168.305 283.026 178.357C283.026 188.409 278.529 214.659 278.529 220.138L266.916 219.81C266.916 219.81 272.374 183.312 271.118 173.828C269.863 164.343 266.589 143.245 266.589 143.245Z" fill="#263238"/>
<path d="M272.044 142.263C271.623 142.435 271.183 142.559 270.734 142.634L267.122 143.452C264.077 144.151 259.875 145.111 255.247 146.279C250.619 147.447 246.515 148.582 243.459 149.423L239.89 150.405C239.456 150.544 239.011 150.643 238.559 150.7C238.959 150.479 239.384 150.307 239.825 150.187C240.654 149.892 241.855 149.499 243.339 149.03C246.33 148.091 250.477 146.847 255.116 145.755C259.754 144.664 263.967 143.682 267.045 143.092C268.573 142.797 269.829 142.579 270.691 142.448C271.134 142.336 271.588 142.274 272.044 142.263Z" fill="#263238"/>
<path d="M270.093 125.051C269.999 125.402 269.852 125.737 269.657 126.044C269.186 126.918 268.654 127.757 268.063 128.554C266.088 131.17 263.729 133.474 261.067 135.387C258.425 137.296 255.641 139 252.739 140.484C251.648 141.062 250.72 141.51 250.098 141.815C249.78 141.996 249.438 142.132 249.083 142.219C250.192 141.453 251.348 140.757 252.543 140.135C255.366 138.553 258.099 136.815 260.729 134.928C263.347 133.04 265.706 130.816 267.747 128.314C269.286 126.372 270.006 124.996 270.093 125.051Z" fill="#263238"/>
<path d="M231.661 137.134C231.585 137.199 230.766 136.293 229.227 135.082C225.196 131.895 220.241 130.103 215.104 129.974C213.139 129.974 211.928 130.105 211.917 129.974C212.184 129.859 212.468 129.789 212.757 129.766C213.533 129.632 214.317 129.563 215.104 129.559C220.373 129.468 225.49 131.321 229.478 134.765C230.079 135.276 230.637 135.835 231.148 136.435C231.487 136.861 231.661 137.112 231.661 137.134Z" fill="#263238"/>
<path d="M228.496 149.183C227.595 148.479 226.778 147.673 226.062 146.781C224.352 144.646 222.306 142.802 220.004 141.324C217.605 140.057 214.925 139.411 212.211 139.447C210.116 139.447 208.861 139.862 208.839 139.763C209.104 139.602 209.396 139.491 209.701 139.436C210.515 139.218 211.349 139.086 212.19 139.043C214.999 138.884 217.798 139.503 220.277 140.833C222.639 142.312 224.705 144.218 226.367 146.454C227.127 147.323 227.838 148.234 228.496 149.183Z" fill="#263238"/>
<path d="M290.717 288.222C290.526 288.28 290.327 288.309 290.128 288.309L288.414 288.408L282.204 288.812L261.717 289.903L242.661 290.798H242.573V290.623C241.853 287.709 241.264 285.319 240.838 283.573C240.652 282.787 240.51 282.154 240.39 281.641C240.329 281.416 240.292 281.186 240.281 280.953C240.383 281.162 240.46 281.382 240.51 281.608C240.663 282.11 240.838 282.699 241.067 283.507L242.988 290.525L242.77 290.361L261.815 289.324L282.313 288.364L288.534 288.146H290.226C290.391 288.16 290.555 288.185 290.717 288.222Z" fill="#263238"/>
<path d="M204.246 224.383C204.246 224.383 195.514 241.966 194.543 258.807C193.957 269.428 194.227 280.079 195.35 290.656H237.557C237.557 290.656 239.739 278.486 239.739 279.097C239.739 279.709 242.632 290.656 242.632 290.656L290.655 288.222C290.655 288.222 286.835 247.402 278.846 224.918L260.619 220.116H205.643L204.246 224.383Z" fill="#00BD62"/>
<path d="M239.301 274.011H194.355C194.181 270.322 194.192 266.513 194.355 262.584H239.203L239.301 274.011Z" fill="white"/>
<path d="M239.349 266.175H194.239V270.41H239.349V266.175Z" fill="white"/>
<path d="M287.425 262.038L239.652 262.584C239.47 266.273 239.47 270.082 239.652 274.011L289.182 273.869L287.425 262.038Z" fill="white"/>
<path d="M288.038 266.186H239.513V270.421H288.715L288.038 266.186Z" fill="white"/>
<path d="M252.637 135.06C252.637 135.06 252.528 135.18 252.299 135.387L251.273 136.293L247.289 139.753L232.369 152.599L232.434 152.446C232.675 157.118 232.816 162.346 233.166 168.032C233.515 173.719 233.962 179.874 234.388 186.39C235.316 199.488 236.342 213.982 237.422 229.306C238.055 238.583 238.634 247.577 239.125 256.123C239.616 264.669 240.02 272.756 239.922 280.244C239.169 283.9 238.459 287.36 237.739 290.667V290.842H237.553L206.818 290.743L198.327 290.689H196.144C195.642 290.689 195.38 290.689 195.38 290.689H196.144H198.327L206.818 290.634L237.553 290.536L237.335 290.711C238.004 287.414 238.703 283.94 239.431 280.287C239.507 272.844 239.038 264.745 238.579 256.21C238.121 247.675 237.488 238.67 236.855 229.393C235.763 214.113 234.781 199.531 233.875 186.488C233.428 179.94 233.035 173.806 232.718 168.119C232.402 162.433 232.26 157.205 232.063 152.512V152.424L232.14 152.359L247.169 139.655L251.218 136.26L252.31 135.398C252.506 135.147 252.637 135.06 252.637 135.06Z" fill="#263238"/>
<g opacity="0.3">
<path opacity="0.3" d="M250.399 217.715C250.279 215.663 249.995 213.469 248.663 211.908C247.98 211.191 247.148 210.631 246.226 210.268C245.305 209.904 244.315 209.745 243.326 209.802C241.348 209.937 239.409 210.417 237.596 211.221C234.66 212.378 231.604 213.895 230.109 216.678C228.515 219.647 229.094 223.227 229.727 226.588C231.298 234.869 232.874 243.156 234.453 251.451L232.935 256.548C236.09 257.029 238.993 254.366 240.019 251.32C241.045 248.275 240.685 245.012 240.554 241.836C240.423 238.66 240.554 235.232 242.464 232.646C244.166 230.277 247.048 228.946 248.707 226.545C250.366 224.143 250.562 220.738 250.399 217.715Z" fill="black"/>
</g>
<path d="M213.106 210.991C213.106 210.991 213.98 204.519 215.791 200.808C217.603 197.097 240.087 198.331 243.078 199.007C246.068 199.684 248.153 205.753 249.168 210.871C250.183 215.99 248.469 223.216 248.469 223.216L224.512 219.243L213.106 210.991Z" fill="#263238"/>
<path d="M245.679 205.763L257.619 145.385L261.93 144.37L247.829 209.463L245.679 205.763Z" fill="#455A64"/>
<path d="M214.113 208.295L211.712 139.403H215.587L216.634 204.89L214.113 208.295Z" fill="#455A64"/>
<path d="M234.837 201.66H226.793C219.234 201.66 213.106 207.787 213.106 215.346V216.176C213.106 223.735 219.234 229.863 226.793 229.863H234.837C242.396 229.863 248.524 223.735 248.524 216.176V215.346C248.524 207.787 242.396 201.66 234.837 201.66Z" fill="white"/>
<path d="M234.837 229.863C236.188 229.75 237.525 229.513 238.832 229.153C240.33 228.664 241.736 227.926 242.99 226.97C244.672 225.704 246.026 224.053 246.941 222.157C247.48 221.073 247.866 219.92 248.087 218.73C248.307 217.436 248.376 216.121 248.295 214.812C248.164 211.754 246.991 208.833 244.969 206.536C242.947 204.238 240.2 202.702 237.184 202.184C235.497 201.97 233.796 201.901 232.098 201.976H226.793C223.461 201.987 220.251 203.232 217.783 205.472C215.316 207.712 213.766 210.786 213.434 214.102C213.3 215.587 213.347 217.082 213.576 218.555C213.816 219.937 214.269 221.274 214.918 222.517C215.54 223.668 216.315 224.729 217.221 225.672C218.075 226.521 219.037 227.255 220.081 227.854C221.882 228.914 223.91 229.532 225.996 229.655C227.841 229.754 229.456 229.71 230.766 229.754H233.789H234.575C234.662 229.739 234.75 229.739 234.837 229.754C234.751 229.77 234.662 229.77 234.575 229.754H233.789L230.766 229.808C229.456 229.808 227.863 229.885 225.975 229.808C223.83 229.702 221.74 229.092 219.873 228.029C218.789 227.41 217.791 226.65 216.905 225.77C215.961 224.791 215.153 223.69 214.504 222.495C213.824 221.212 213.345 219.831 213.085 218.403C213.085 218.031 212.954 217.66 212.921 217.311L212.855 216.165C212.855 215.412 212.855 214.637 212.855 213.84C213.189 210.386 214.794 207.18 217.36 204.844C219.926 202.508 223.269 201.21 226.739 201.201H232.043C233.775 201.125 235.509 201.202 237.227 201.431C240.358 201.982 243.205 203.593 245.289 205.993C247.374 208.394 248.57 211.438 248.677 214.615C248.753 215.962 248.672 217.314 248.437 218.643C247.759 221.997 245.871 224.984 243.132 227.036C241.839 228.005 240.388 228.743 238.843 229.219C237.865 229.5 236.858 229.668 235.841 229.721H234.75L234.837 229.863Z" fill="#455A64"/>
<path d="M237.194 230.266C237.194 228.53 236.504 226.864 235.276 225.636C234.048 224.408 232.382 223.718 230.645 223.718C228.909 223.718 227.243 224.408 226.015 225.636C224.787 226.864 224.097 228.53 224.097 230.266V247.555H237.194V230.266Z" fill="#455A64"/>
<path d="M238.027 237.786H223.511C222.788 237.786 222.201 238.373 222.201 239.096V239.172C222.201 239.896 222.788 240.482 223.511 240.482H238.027C238.75 240.482 239.337 239.896 239.337 239.172V239.096C239.337 238.373 238.75 237.786 238.027 237.786Z" fill="#455A64"/>
<path d="M238.024 240.482C238.024 240.482 238.155 240.482 238.384 240.362C238.544 240.304 238.691 240.215 238.814 240.098C238.938 239.982 239.037 239.841 239.105 239.685C239.207 239.446 239.234 239.18 239.182 238.924C239.129 238.669 238.999 238.435 238.81 238.256C238.692 238.15 238.554 238.069 238.404 238.018C238.253 237.968 238.095 237.948 237.937 237.961H236.736C233.353 237.961 228.67 238.048 223.508 238.048C223.259 238.06 223.022 238.156 222.835 238.32C222.649 238.485 222.524 238.709 222.482 238.954C222.449 239.199 222.5 239.448 222.627 239.66C222.754 239.872 222.949 240.035 223.18 240.122C223.296 240.162 223.418 240.181 223.541 240.177H226.597L232.545 240.231L236.551 240.318C237.045 240.301 237.539 240.342 238.024 240.438C237.537 240.52 237.044 240.557 236.551 240.548L232.545 240.635L226.597 240.7H223.541C223.359 240.701 223.179 240.675 223.006 240.624C222.64 240.5 222.331 240.251 222.131 239.921C221.932 239.59 221.855 239.2 221.915 238.819C221.975 238.438 222.168 238.091 222.459 237.838C222.751 237.585 223.122 237.443 223.508 237.437C228.67 237.437 233.331 237.437 236.736 237.524H237.937C238.138 237.517 238.339 237.551 238.527 237.624C238.714 237.697 238.885 237.808 239.028 237.95C239.253 238.177 239.4 238.469 239.449 238.784C239.498 239.1 239.446 239.423 239.301 239.707C239.212 239.879 239.087 240.029 238.934 240.148C238.782 240.266 238.605 240.351 238.417 240.395C238.298 240.463 238.161 240.494 238.024 240.482Z" fill="#263238"/>
<path d="M230.77 257.258C235.141 257.258 238.683 253.715 238.683 249.345C238.683 244.974 235.141 241.432 230.77 241.432C226.4 241.432 222.857 244.974 222.857 249.345C222.857 253.715 226.4 257.258 230.77 257.258Z" fill="#455A64"/>
<path d="M240.319 209.463C240.319 209.463 240.111 209.747 239.653 210.195C239.195 210.642 238.562 211.286 237.656 212.017C235.387 213.943 233.003 215.729 230.518 217.365C228.033 218.999 225.449 220.475 222.779 221.786C221.753 222.277 220.902 222.659 220.313 222.877C220.019 223.034 219.702 223.141 219.374 223.194C220.413 222.537 221.488 221.94 222.594 221.404C224.591 220.312 227.309 218.762 230.234 216.863C233.159 214.964 235.691 213.087 237.416 211.679C238.342 210.888 239.311 210.148 240.319 209.463Z" fill="white"/>
<path d="M233.449 210.915C231.46 212.253 229.405 213.491 227.293 214.625C225.268 215.932 223.177 217.134 221.028 218.227C222.868 216.656 224.869 215.284 226.999 214.134C229.031 212.839 231.193 211.76 233.449 210.915Z" fill="white"/>
<path d="M237.653 247.555C237.653 247.555 237.718 247.697 237.795 247.981C237.878 248.408 237.904 248.845 237.871 249.279C237.714 250.884 237.138 252.42 236.201 253.733C235.58 254.67 234.765 255.462 233.811 256.057C232.667 256.692 231.359 256.969 230.056 256.854C228.559 256.754 227.136 256.166 226.005 255.181C224.873 254.195 224.096 252.866 223.791 251.397C223.531 250.26 223.534 249.079 223.801 247.944C224.068 246.809 224.591 245.75 225.33 244.848C226.661 243.287 228.557 242.318 230.602 242.152C231.928 242.214 233.227 242.556 234.411 243.156C235.317 243.632 236.09 244.326 236.659 245.176C237.024 245.71 237.3 246.3 237.478 246.922C237.559 247.135 237.603 247.36 237.609 247.588C237.303 246.794 236.912 246.037 236.441 245.328C235.871 244.551 235.122 243.922 234.258 243.495C233.109 242.926 231.851 242.609 230.569 242.567C228.662 242.744 226.901 243.666 225.669 245.132C224.99 245.99 224.518 246.992 224.289 248.061C224.06 249.131 224.08 250.238 224.348 251.299C224.624 252.655 225.335 253.885 226.373 254.8C227.411 255.716 228.72 256.269 230.1 256.374C231.303 256.492 232.514 256.253 233.582 255.686C234.493 255.131 235.274 254.386 235.874 253.503C236.805 252.255 237.416 250.797 237.653 249.258C237.702 248.691 237.702 248.121 237.653 247.555Z" fill="#263238"/>
<g opacity="0.3">
<path opacity="0.3" d="M239.51 150.383C244.631 150.634 249.765 150.245 254.79 149.226C259.778 148.135 264.373 146.476 268.117 142.983C258.741 145.253 249.693 147.261 240.47 150.11" fill="black"/>
</g>
<path d="M198.614 144.85C197.577 145.264 192.982 149.215 190.483 152.359C187.983 155.502 175.879 184.284 172.954 205.141C170.029 225.999 169.625 260.805 169.625 260.805L192.982 259.768L201.954 197.392L201.452 192.044L198.614 144.85Z" fill="#00BD62"/>
<path d="M170.649 231.336C170.649 231.336 175.757 227.778 185.155 229.055C193.581 230.146 196.604 234.621 196.604 234.621L195.196 244.444C195.196 244.444 182.481 237.328 170.093 243.451L170.649 231.336Z" fill="white"/>
<path d="M170.456 234.708C170.456 234.708 175.564 231.15 184.961 232.427C193.387 233.518 196.192 237.83 196.192 237.83L195.668 241.18C195.668 241.18 182.68 232.372 170.281 238.485L170.456 234.708Z" fill="white"/>
<path d="M192.528 156.692C192.734 157.192 192.902 157.706 193.03 158.231C193.314 159.235 193.696 160.697 194.122 162.498C195.028 166.111 196.185 171.132 197.396 176.687L200.605 190.876L201.609 195.176C201.76 195.693 201.863 196.223 201.915 196.759C201.699 196.265 201.524 195.754 201.391 195.231C201.096 194.227 200.692 192.775 200.223 190.974C199.273 187.372 198.04 182.363 196.84 176.785C195.639 171.208 194.537 166.318 193.718 162.597C193.336 160.861 193.009 159.41 192.768 158.285C192.637 157.763 192.556 157.23 192.528 156.692Z" fill="#263238"/>
<path d="M119.505 238.703C119.505 238.703 109.813 246.768 113.12 249.704C116.428 252.64 166.088 279.37 176.162 284.947C186.728 290.808 186.215 290.535 202.357 303.906L206.297 292.38C206.297 292.38 172.277 276.521 164.495 270.278C156.713 264.035 119.505 238.703 119.505 238.703Z" fill="#455A64"/>
<path d="M207.78 289.761L212.648 292.795L220.222 280.342C220.222 280.342 223.988 289.979 222.514 293.832C221.041 297.685 211.174 314.078 209.253 318.335C207.332 322.592 205.881 325.975 205.881 325.975L190.601 316.359C191.797 313.896 193.44 311.675 195.447 309.811C198.284 307.475 207.78 289.761 207.78 289.761Z" fill="white"/>
<path d="M207.782 289.761C207.717 289.946 207.637 290.125 207.542 290.296L206.745 291.824C206.047 293.156 205.01 295.098 203.645 297.532C202.281 299.966 200.6 302.913 198.494 306.187C197.959 306.995 197.402 307.835 196.769 308.654C196.44 309.087 196.075 309.493 195.678 309.866C195.296 310.258 194.892 310.564 194.586 310.957C193.055 312.609 191.775 314.477 190.788 316.502L190.701 316.185L205.981 325.768L205.577 325.899L207.607 321.271C208.306 319.71 208.95 318.084 209.79 316.523C213.403 309.746 217.179 303.426 220.355 297.532C220.759 296.79 221.141 296.059 221.447 295.349C221.827 294.658 222.127 293.926 222.342 293.166C222.575 291.654 222.535 290.113 222.222 288.615C221.702 285.831 220.935 283.099 219.93 280.451H220.312L212.672 292.861V292.959L212.563 292.894L209.015 290.602L208.088 289.99L207.76 289.761L208.066 289.925L209.004 290.471L212.694 292.653H212.53L220.028 280.156L220.246 279.774L220.399 280.189C221.437 282.856 222.233 285.61 222.778 288.419C223.111 289.984 223.159 291.595 222.92 293.177C222.698 293.981 222.387 294.757 221.993 295.491C221.636 296.219 221.272 296.946 220.901 297.674C217.747 303.633 213.971 309.92 210.369 316.676C209.55 318.215 208.906 319.83 208.186 321.391L206.156 326.008L206.025 326.303L205.752 326.139L190.472 316.502L190.286 316.371L190.384 316.174C191.404 314.109 192.721 312.205 194.292 310.52C194.674 310.128 195.11 309.767 195.47 309.429C195.837 309.073 196.177 308.69 196.486 308.283C197.108 307.475 197.664 306.657 198.199 305.849C200.382 302.575 202.03 299.682 203.438 297.27L206.712 291.638L207.564 290.154C207.628 290.018 207.7 289.887 207.782 289.761Z" fill="#263238"/>
<path d="M190.078 284.741L197.282 288.015C197.457 284.443 196.705 280.886 195.099 277.69C193.014 273.4 189.882 267.867 189.882 267.867C189.82 266.283 190.174 264.71 190.908 263.305L191.617 261.962C189.971 260.996 188.058 260.583 186.16 260.783C183.77 260.958 180.834 260.641 178.52 261.067L169.657 262.737C169.657 262.737 170.268 271.032 170.268 274.415C170.268 275.212 169.657 284.413 169.657 284.413L170.334 288.353C170.334 288.353 181.565 298.176 183.071 297.925C184.577 297.674 184.577 297.107 184.577 297.107C184.577 297.107 186.204 299.42 187.47 299.42C188.736 299.42 190.94 300.697 191.41 299.42C191.879 298.144 191.29 295.622 190.133 293.821C189.368 292.833 188.414 292.006 187.328 291.387C186.734 291.011 186.246 290.487 185.912 289.868C185.577 289.249 185.407 288.555 185.418 287.851L185.505 280.211C185.505 280.211 189.925 281.641 190.078 284.741Z" fill="#263238"/>
<path d="M169.625 260.838V263.926L190.897 263.403L192.982 259.801L169.625 260.838Z" fill="#455A64"/>
</svg>
