<svg width="615" height="490" viewBox="0 0 615 490" fill="none" xmlns="http://www.w3.org/2000/svg">
<circle cx="298.576" cy="256.469" r="233.531" fill="#D9FBEB"/>
<path d="M90.9749 102.594H505.167C506.281 102.594 507.385 102.813 508.415 103.24C509.445 103.666 510.381 104.292 511.169 105.08C511.957 105.868 512.582 106.804 513.009 107.834C513.435 108.863 513.655 109.967 513.655 111.082V410.713H82.4867V111.161C82.4762 110.04 82.688 108.928 83.1099 107.889C83.5317 106.85 84.1553 105.905 84.9445 105.108C85.7338 104.311 86.6731 103.679 87.7081 103.247C88.7432 102.816 89.8535 102.594 90.9749 102.594Z" fill="#263238"/>
<path d="M505.163 121.697H90.9717V386.421H505.163V121.697Z" fill="#EDFFF7"/>
<path opacity="0.2" d="M294.297 117.065C296.58 117.065 298.432 115.214 298.432 112.931C298.432 110.647 296.58 108.796 294.297 108.796C292.013 108.796 290.162 110.647 290.162 112.931C290.162 115.214 292.013 117.065 294.297 117.065Z" fill="white"/>
<path opacity="0.2" d="M302.861 116.032C304.574 116.032 305.962 114.643 305.962 112.931C305.962 111.218 304.574 109.83 302.861 109.83C301.148 109.83 299.76 111.218 299.76 112.931C299.76 114.643 301.148 116.032 302.861 116.032Z" fill="white"/>
<path opacity="0.2" d="M299.756 391.849C299.213 391.658 298.642 391.557 298.067 391.55C296.993 391.55 295.944 391.869 295.051 392.465C294.159 393.061 293.464 393.909 293.053 394.9C292.642 395.892 292.535 396.983 292.744 398.036C292.953 399.089 293.47 400.056 294.229 400.815C294.988 401.574 295.955 402.09 297.008 402.3C298.061 402.509 299.152 402.402 300.143 401.991C301.135 401.58 301.982 400.885 302.579 399.992C303.175 399.1 303.493 398.051 303.493 396.977C303.504 396.878 303.504 396.778 303.493 396.679C302.456 396.344 301.544 395.704 300.877 394.842C300.211 393.98 299.82 392.937 299.756 391.849Z" fill="white"/>
<path d="M545.799 406.498V410.474C545.792 411.706 545.391 412.904 544.654 413.891C543.917 414.879 542.883 415.604 541.704 415.961L511.687 424.747C507.959 425.858 504.088 426.421 500.198 426.417H95.9848C92.1007 426.42 88.2369 425.857 84.5148 424.747L54.4782 415.881C53.2952 415.528 52.2569 414.804 51.5161 413.816C50.7754 412.829 50.3712 411.629 50.3633 410.395V406.419L545.799 406.498Z" fill="#263238"/>
<path opacity="0.2" d="M545.799 406.498V410.474C545.792 411.706 545.391 412.904 544.654 413.891C543.917 414.879 542.883 415.604 541.704 415.961L511.687 424.747C507.959 425.858 504.088 426.421 500.198 426.417H95.9848C92.1007 426.42 88.2369 425.857 84.5148 424.747L54.4782 415.881C53.2952 415.528 52.2569 414.804 51.5161 413.816C50.7754 412.829 50.3712 411.629 50.3633 410.395V406.419L545.799 406.498Z" fill="white"/>
<path opacity="0.2" d="M545.799 406.499V410.475C545.798 411.505 545.516 412.515 544.984 413.397H51.1783C50.646 412.515 50.3643 411.505 50.3633 410.475V406.499H545.799Z" fill="white"/>
<path opacity="0.2" d="M332.943 406.499V408.209C332.943 408.43 332.899 408.65 332.814 408.855C332.729 409.06 332.605 409.246 332.448 409.403C332.291 409.56 332.105 409.685 331.9 409.77C331.695 409.855 331.475 409.898 331.253 409.898H264.938C264.714 409.901 264.493 409.859 264.285 409.775C264.078 409.692 263.889 409.568 263.73 409.41C263.571 409.253 263.445 409.066 263.359 408.86C263.273 408.653 263.229 408.432 263.229 408.209V406.499H332.943Z" fill="black"/>
<path opacity="0.1" d="M505.163 121.697C505.163 121.697 447.893 349.089 90.9717 386.421V121.697H505.163Z" fill="white"/>
<path d="M481.72 128.646V323.265L449.309 355.675H321.158C319.834 355.671 318.566 355.142 317.631 354.204C316.696 353.267 316.171 351.996 316.171 350.672V128.646C316.171 127.321 316.696 126.051 317.631 125.113C318.566 124.176 319.834 123.647 321.158 123.643H476.686C477.345 123.639 477.999 123.765 478.61 124.015C479.22 124.264 479.776 124.632 480.243 125.097C480.711 125.562 481.083 126.115 481.336 126.724C481.589 127.333 481.72 127.986 481.72 128.646Z" fill="#00BD62"/>
<path opacity="0.6" d="M481.72 137.144V323.264L449.309 355.675H321.158C319.834 355.671 318.566 355.142 317.631 354.204C316.696 353.266 316.171 351.996 316.171 350.672V137.144H481.72Z" fill="white"/>
<path opacity="0.6" d="M477.37 129.826C477.373 130.306 477.234 130.776 476.969 131.177C476.705 131.578 476.327 131.891 475.885 132.077C475.442 132.262 474.954 132.313 474.483 132.221C474.012 132.129 473.578 131.9 473.238 131.561C472.897 131.223 472.665 130.791 472.57 130.32C472.475 129.85 472.522 129.362 472.705 128.918C472.888 128.474 473.199 128.095 473.598 127.828C473.997 127.561 474.466 127.418 474.946 127.418C475.264 127.416 475.579 127.477 475.873 127.597C476.167 127.717 476.434 127.894 476.659 128.118C476.884 128.342 477.063 128.608 477.185 128.901C477.307 129.194 477.37 129.509 477.37 129.826Z" fill="white"/>
<path opacity="0.6" d="M468.141 129.826C468.141 130.303 468 130.768 467.735 131.164C467.47 131.56 467.094 131.869 466.654 132.051C466.214 132.234 465.73 132.281 465.263 132.188C464.796 132.095 464.366 131.866 464.03 131.529C463.693 131.192 463.463 130.763 463.37 130.296C463.278 129.829 463.325 129.345 463.508 128.905C463.69 128.465 463.998 128.089 464.395 127.824C464.791 127.559 465.256 127.418 465.732 127.418C466.049 127.416 466.363 127.477 466.657 127.597C466.95 127.717 467.216 127.895 467.44 128.119C467.664 128.343 467.841 128.609 467.962 128.902C468.082 129.195 468.143 129.509 468.141 129.826Z" fill="white"/>
<path opacity="0.6" d="M458.927 129.826C458.93 130.307 458.79 130.778 458.525 131.179C458.259 131.58 457.881 131.893 457.438 132.078C456.994 132.263 456.505 132.313 456.034 132.22C455.562 132.127 455.129 131.896 454.789 131.556C454.449 131.216 454.218 130.782 454.125 130.311C454.032 129.839 454.081 129.351 454.267 128.907C454.452 128.464 454.765 128.085 455.166 127.82C455.567 127.555 456.038 127.415 456.518 127.418C457.157 127.418 457.77 127.672 458.221 128.123C458.673 128.575 458.927 129.188 458.927 129.826Z" fill="white"/>
<path d="M416.772 152.138H328.055C327.643 152.138 327.247 151.975 326.956 151.683C326.665 151.392 326.501 150.997 326.501 150.584C326.501 150.172 326.665 149.777 326.956 149.486C327.247 149.194 327.643 149.031 328.055 149.031H416.772C417.184 149.031 417.579 149.194 417.871 149.486C418.162 149.777 418.326 150.172 418.326 150.584C418.326 150.997 418.162 151.392 417.871 151.683C417.579 151.975 417.184 152.138 416.772 152.138Z" fill="#00BD62"/>
<path d="M391.701 160.636H327.998C327.586 160.636 327.191 160.473 326.899 160.181C326.608 159.89 326.444 159.495 326.444 159.083C326.444 158.67 326.608 158.275 326.899 157.984C327.191 157.693 327.586 157.529 327.998 157.529H391.701C392.113 157.529 392.508 157.693 392.799 157.984C393.091 158.275 393.254 158.67 393.254 159.083C393.254 159.495 393.091 159.89 392.799 160.181C392.508 160.473 392.113 160.636 391.701 160.636Z" fill="#00BD62"/>
<path d="M460.478 291.863H347.057C346.645 291.863 346.249 291.7 345.958 291.408C345.667 291.117 345.503 290.722 345.503 290.31C345.503 289.898 345.667 289.502 345.958 289.211C346.249 288.92 346.645 288.756 347.057 288.756H460.478C460.89 288.756 461.285 288.92 461.577 289.211C461.868 289.502 462.032 289.898 462.032 290.31C462.032 290.722 461.868 291.117 461.577 291.408C461.285 291.7 460.89 291.863 460.478 291.863Z" fill="#00BD62"/>
<path d="M441.515 325.813H328.094C327.682 325.813 327.287 325.649 326.995 325.358C326.704 325.067 326.54 324.671 326.54 324.259C326.54 323.847 326.704 323.452 326.995 323.161C327.287 322.869 327.682 322.706 328.094 322.706H441.515C441.927 322.706 442.323 322.869 442.614 323.161C442.905 323.452 443.069 323.847 443.069 324.259C443.069 324.671 442.905 325.067 442.614 325.358C442.323 325.649 441.927 325.813 441.515 325.813Z" fill="#00BD62"/>
<path d="M460.478 300.378H328.055C327.643 300.378 327.247 300.214 326.956 299.923C326.665 299.631 326.501 299.236 326.501 298.824C326.501 298.412 326.665 298.017 326.956 297.726C327.247 297.434 327.643 297.271 328.055 297.271H460.478C460.89 297.271 461.286 297.434 461.577 297.726C461.868 298.017 462.032 298.412 462.032 298.824C462.032 299.236 461.868 299.631 461.577 299.923C461.286 300.214 460.89 300.378 460.478 300.378Z" fill="#00BD62"/>
<path d="M460.478 308.846H328.055C327.643 308.846 327.247 308.682 326.956 308.391C326.665 308.1 326.501 307.705 326.501 307.292C326.501 306.88 326.665 306.485 326.956 306.194C327.247 305.902 327.643 305.739 328.055 305.739H460.478C460.89 305.739 461.286 305.902 461.577 306.194C461.868 306.485 462.032 306.88 462.032 307.292C462.032 307.705 461.868 308.1 461.577 308.391C461.286 308.682 460.89 308.846 460.478 308.846Z" fill="#00BD62"/>
<path d="M460.478 317.33H328.055C327.643 317.33 327.247 317.166 326.956 316.875C326.665 316.583 326.501 316.188 326.501 315.776C326.501 315.364 326.665 314.969 326.956 314.677C327.247 314.386 327.643 314.222 328.055 314.222H460.478C460.89 314.222 461.286 314.386 461.577 314.677C461.868 314.969 462.032 315.364 462.032 315.776C462.032 316.188 461.868 316.583 461.577 316.875C461.286 317.166 460.89 317.33 460.478 317.33Z" fill="#00BD62"/>
<path opacity="0.5" d="M481.691 323.265L449.28 355.676V323.265H481.691Z" fill="#00BD62"/>
<path opacity="0.4" d="M481.69 137.144H472.539V323.264H481.69V137.144Z" fill="black"/>
<path d="M477.056 234.391C476.162 234.391 475.304 234.036 474.672 233.404C474.04 232.772 473.685 231.914 473.685 231.02V212.002C473.705 211.122 474.069 210.284 474.699 209.668C475.329 209.053 476.175 208.708 477.056 208.708C477.499 208.708 477.937 208.796 478.346 208.965C478.755 209.135 479.127 209.383 479.44 209.696C479.753 210.009 480.002 210.381 480.171 210.79C480.341 211.199 480.428 211.637 480.428 212.08V231.098C480.407 231.978 480.043 232.816 479.413 233.432C478.783 234.047 477.937 234.392 477.056 234.391Z" fill="#00BD62"/>
<path d="M460.478 245.251H347.057C346.645 245.251 346.249 245.088 345.958 244.796C345.667 244.505 345.503 244.11 345.503 243.698C345.503 243.286 345.667 242.891 345.958 242.599C346.249 242.308 346.645 242.144 347.057 242.144H460.478C460.89 242.144 461.285 242.308 461.577 242.599C461.868 242.891 462.032 243.286 462.032 243.698C462.032 244.11 461.868 244.505 461.577 244.796C461.285 245.088 460.89 245.251 460.478 245.251Z" fill="#00BD62"/>
<path d="M441.515 279.202H328.094C327.682 279.202 327.287 279.038 326.995 278.747C326.704 278.455 326.54 278.06 326.54 277.648C326.54 277.236 326.704 276.841 326.995 276.549C327.287 276.258 327.682 276.094 328.094 276.094H441.515C441.927 276.094 442.323 276.258 442.614 276.549C442.905 276.841 443.069 277.236 443.069 277.648C443.069 278.06 442.905 278.455 442.614 278.747C442.323 279.038 441.927 279.202 441.515 279.202Z" fill="#00BD62"/>
<path d="M460.478 253.767H328.055C327.643 253.767 327.247 253.603 326.956 253.312C326.665 253.02 326.501 252.625 326.501 252.213C326.501 251.801 326.665 251.406 326.956 251.114C327.247 250.823 327.643 250.659 328.055 250.659H460.478C460.89 250.659 461.286 250.823 461.577 251.114C461.868 251.406 462.032 251.801 462.032 252.213C462.032 252.625 461.868 253.02 461.577 253.312C461.286 253.603 460.89 253.767 460.478 253.767Z" fill="#00BD62"/>
<path d="M460.478 262.235H328.055C327.643 262.235 327.247 262.071 326.956 261.78C326.665 261.488 326.501 261.093 326.501 260.681C326.501 260.269 326.665 259.874 326.956 259.582C327.247 259.291 327.643 259.127 328.055 259.127H460.478C460.89 259.127 461.286 259.291 461.577 259.582C461.868 259.874 462.032 260.269 462.032 260.681C462.032 261.093 461.868 261.488 461.577 261.78C461.286 262.071 460.89 262.235 460.478 262.235Z" fill="#00BD62"/>
<path d="M460.478 270.718H328.055C327.643 270.718 327.247 270.555 326.956 270.263C326.665 269.972 326.501 269.577 326.501 269.165C326.501 268.752 326.665 268.357 326.956 268.066C327.247 267.775 327.643 267.611 328.055 267.611H460.478C460.89 267.611 461.286 267.775 461.577 268.066C461.868 268.357 462.032 268.752 462.032 269.165C462.032 269.577 461.868 269.972 461.577 270.263C461.286 270.555 460.89 270.718 460.478 270.718Z" fill="#00BD62"/>
<path d="M460.467 170.751H327.655V220.315H460.467V170.751Z" fill="#00BD62"/>
<path opacity="0.2" d="M327.655 212.36H331.275V203.348H335.439V185.558H341.25V196.512H349.236V211.07H358.761V200.924H366.638L371.843 195.704V183.631H375.028V200.924H383.045V207.077H391.342V175.692L393.642 173.392V182H398.94V185.869L404.021 190.965V200.147H411.323V192.876H430.372V187.453H434.676V177.976H436.214V192.876H438.637L444.122 187.391H449.28V182.435H451.891V187.453H455.262V207.994H458.929V197.739L460.483 197.832V170.751H327.655V212.36Z" fill="black"/>
<path d="M460.478 228.162H424.742C424.33 228.162 423.935 227.998 423.644 227.707C423.352 227.415 423.188 227.02 423.188 226.608C423.188 226.196 423.352 225.801 423.644 225.509C423.935 225.218 424.33 225.054 424.742 225.054H460.478C460.89 225.054 461.285 225.218 461.576 225.509C461.868 225.801 462.031 226.196 462.031 226.608C462.031 227.02 461.868 227.415 461.576 227.707C461.285 227.998 460.89 228.162 460.478 228.162Z" fill="#00BD62"/>
<path opacity="0.2" d="M384.876 127.56V278.299L358.871 301.219H316.551V132.307C316.551 131.066 317.11 129.876 318.107 128.997C319.104 128.118 320.456 127.622 321.868 127.618L384.876 127.56Z" fill="black"/>
<path opacity="0.4" d="M477.056 234.391C476.162 234.391 475.304 234.036 474.672 233.404C474.04 232.772 473.685 231.914 473.685 231.02V212.002C473.705 211.122 474.069 210.284 474.699 209.668C475.329 209.053 476.175 208.708 477.056 208.708C477.499 208.708 477.937 208.796 478.346 208.965C478.755 209.135 479.127 209.383 479.44 209.696C479.753 210.009 480.002 210.381 480.171 210.79C480.341 211.199 480.428 211.637 480.428 212.08V231.098C480.407 231.978 480.043 232.816 479.413 233.432C478.783 234.047 477.937 234.392 477.056 234.391Z" fill="white"/>
<path d="M285.547 152.898V347.517L253.136 379.928H125.017C123.693 379.924 122.424 379.395 121.489 378.457C120.554 377.519 120.029 376.249 120.029 374.925V152.898C120.029 151.574 120.554 150.304 121.489 149.366C122.424 148.429 123.693 147.9 125.017 147.896H280.544C281.871 147.896 283.143 148.423 284.082 149.361C285.02 150.299 285.547 151.572 285.547 152.898Z" fill="#00BD62"/>
<path opacity="0.6" d="M285.547 161.413V347.533L253.136 379.944H125.017C123.693 379.94 122.424 379.411 121.489 378.473C120.554 377.535 120.029 376.265 120.029 374.941V161.413H285.547Z" fill="white"/>
<path opacity="0.6" d="M281.291 154.095C281.294 154.575 281.154 155.045 280.89 155.446C280.626 155.846 280.248 156.159 279.805 156.345C279.363 156.531 278.875 156.581 278.404 156.489C277.933 156.398 277.499 156.168 277.159 155.83C276.818 155.491 276.586 155.06 276.491 154.589C276.396 154.118 276.443 153.63 276.626 153.186C276.809 152.743 277.12 152.363 277.519 152.096C277.918 151.829 278.387 151.687 278.867 151.687C279.185 151.685 279.499 151.745 279.793 151.865C280.087 151.986 280.355 152.163 280.58 152.386C280.805 152.61 280.984 152.876 281.106 153.17C281.228 153.463 281.291 153.777 281.291 154.095Z" fill="white"/>
<path opacity="0.6" d="M271.965 154.095C271.968 154.576 271.828 155.046 271.563 155.447C271.298 155.848 270.919 156.161 270.476 156.347C270.032 156.532 269.544 156.581 269.072 156.488C268.6 156.395 268.167 156.164 267.827 155.824C267.487 155.484 267.256 155.051 267.163 154.579C267.07 154.108 267.119 153.619 267.305 153.176C267.49 152.732 267.803 152.354 268.204 152.089C268.605 151.823 269.076 151.684 269.556 151.687C269.873 151.685 270.187 151.745 270.481 151.866C270.774 151.986 271.04 152.163 271.264 152.387C271.488 152.611 271.665 152.878 271.786 153.171C271.906 153.464 271.967 153.778 271.965 154.095Z" fill="white"/>
<path opacity="0.6" d="M262.785 154.095C262.788 154.575 262.649 155.045 262.384 155.446C262.12 155.846 261.742 156.159 261.3 156.345C260.857 156.531 260.369 156.581 259.898 156.489C259.427 156.398 258.993 156.168 258.653 155.83C258.312 155.491 258.08 155.06 257.985 154.589C257.89 154.118 257.938 153.63 258.121 153.186C258.303 152.743 258.614 152.363 259.013 152.096C259.412 151.829 259.881 151.687 260.361 151.687C260.679 151.685 260.994 151.745 261.288 151.865C261.582 151.986 261.849 152.163 262.074 152.386C262.299 152.61 262.478 152.876 262.6 153.17C262.722 153.463 262.785 153.777 262.785 154.095Z" fill="white"/>
<path d="M159.476 177.246H131.913C131.501 177.246 131.106 177.082 130.814 176.791C130.523 176.499 130.359 176.104 130.359 175.692C130.359 175.28 130.523 174.885 130.814 174.593C131.106 174.302 131.501 174.138 131.913 174.138H159.476C159.888 174.138 160.283 174.302 160.575 174.593C160.866 174.885 161.03 175.28 161.03 175.692C161.03 176.104 160.866 176.499 160.575 176.791C160.283 177.082 159.888 177.246 159.476 177.246Z" fill="#00BD62"/>
<path d="M172.529 185.728H131.977C131.564 185.728 131.169 185.564 130.878 185.273C130.587 184.982 130.423 184.586 130.423 184.174C130.423 183.762 130.587 183.367 130.878 183.076C131.169 182.784 131.564 182.621 131.977 182.621H172.529C172.941 182.621 173.336 182.784 173.627 183.076C173.919 183.367 174.082 183.762 174.082 184.174C174.082 184.586 173.919 184.982 173.627 185.273C173.336 185.564 172.941 185.728 172.529 185.728Z" fill="#00BD62"/>
<path d="M159.93 194.211H131.963C131.551 194.211 131.156 194.048 130.864 193.756C130.573 193.465 130.409 193.07 130.409 192.658C130.409 192.246 130.573 191.85 130.864 191.559C131.156 191.268 131.551 191.104 131.963 191.104H159.93C160.342 191.104 160.737 191.268 161.029 191.559C161.32 191.85 161.484 192.246 161.484 192.658C161.484 193.07 161.32 193.465 161.029 193.756C160.737 194.048 160.342 194.211 159.93 194.211Z" fill="#00BD62"/>
<path d="M264.325 333.223H150.903C150.491 333.223 150.096 333.059 149.805 332.768C149.513 332.477 149.35 332.082 149.35 331.669C149.35 331.257 149.513 330.862 149.805 330.571C150.096 330.279 150.491 330.116 150.903 330.116H264.325C264.737 330.116 265.132 330.279 265.424 330.571C265.715 330.862 265.879 331.257 265.879 331.669C265.879 332.082 265.715 332.477 265.424 332.768C265.132 333.059 264.737 333.223 264.325 333.223Z" fill="#00BD62"/>
<path d="M202.172 341.707H131.913C131.501 341.707 131.106 341.543 130.814 341.251C130.523 340.96 130.359 340.565 130.359 340.153C130.359 339.741 130.523 339.346 130.814 339.054C131.106 338.763 131.501 338.599 131.913 338.599H202.172C202.584 338.599 202.98 338.763 203.271 339.054C203.562 339.346 203.726 339.741 203.726 340.153C203.726 340.565 203.562 340.96 203.271 341.251C202.98 341.543 202.584 341.707 202.172 341.707Z" fill="#00BD62"/>
<path opacity="0.5" d="M285.549 347.533L253.139 379.943V347.533H285.549Z" fill="#00BD62"/>
<path opacity="0.4" d="M285.549 161.413H276.397V347.533H285.549V161.413Z" fill="black"/>
<path d="M280.961 334.792C280.067 334.792 279.21 334.437 278.577 333.805C277.945 333.173 277.59 332.315 277.59 331.421V312.403C277.59 311.509 277.945 310.652 278.577 310.019C279.21 309.387 280.067 309.032 280.961 309.032C281.404 309.032 281.843 309.119 282.252 309.288C282.661 309.458 283.032 309.706 283.346 310.019C283.659 310.332 283.907 310.704 284.076 311.113C284.246 311.522 284.333 311.961 284.333 312.403V331.452C284.325 332.341 283.966 333.19 283.335 333.816C282.703 334.442 281.85 334.792 280.961 334.792Z" fill="#00BD62"/>
<path d="M264.328 177.246H242.995C242.583 177.246 242.188 177.082 241.896 176.791C241.605 176.499 241.441 176.104 241.441 175.692C241.441 175.28 241.605 174.885 241.896 174.593C242.188 174.302 242.583 174.138 242.995 174.138H264.328C264.74 174.138 265.135 174.302 265.426 174.593C265.718 174.885 265.881 175.28 265.881 175.692C265.881 176.104 265.718 176.499 265.426 176.791C265.135 177.082 264.74 177.246 264.328 177.246Z" fill="#00BD62"/>
<path d="M264.323 185.728H253.322C252.91 185.728 252.515 185.564 252.224 185.273C251.932 184.982 251.769 184.586 251.769 184.174C251.769 183.762 251.932 183.367 252.224 183.076C252.515 182.784 252.91 182.621 253.322 182.621H264.354C264.766 182.621 265.161 182.784 265.452 183.076C265.744 183.367 265.907 183.762 265.907 184.174C265.907 184.586 265.744 184.982 265.452 185.273C265.161 185.564 264.766 185.728 264.354 185.728H264.323Z" fill="#00BD62"/>
<path d="M264.325 216.694H150.903C150.491 216.694 150.096 216.531 149.805 216.239C149.513 215.948 149.35 215.553 149.35 215.141C149.35 214.729 149.513 214.333 149.805 214.042C150.096 213.751 150.491 213.587 150.903 213.587H264.325C264.737 213.587 265.132 213.751 265.424 214.042C265.715 214.333 265.879 214.729 265.879 215.141C265.879 215.553 265.715 215.948 265.424 216.239C265.132 216.531 264.737 216.694 264.325 216.694Z" fill="#00BD62"/>
<path d="M264.321 225.178H131.913C131.501 225.178 131.106 225.014 130.814 224.723C130.523 224.431 130.359 224.036 130.359 223.624C130.359 223.212 130.523 222.817 130.814 222.525C131.106 222.234 131.501 222.07 131.913 222.07H264.321C264.733 222.07 265.128 222.234 265.42 222.525C265.711 222.817 265.875 223.212 265.875 223.624C265.875 224.036 265.711 224.431 265.42 224.723C265.128 225.014 264.733 225.178 264.321 225.178Z" fill="#00BD62"/>
<path d="M186.635 233.661H131.913C131.501 233.661 131.106 233.497 130.814 233.206C130.523 232.915 130.359 232.52 130.359 232.107C130.359 231.695 130.523 231.3 130.814 231.009C131.106 230.717 131.501 230.554 131.913 230.554H186.635C187.047 230.554 187.442 230.717 187.734 231.009C188.025 231.3 188.189 231.695 188.189 232.107C188.189 232.52 188.025 232.915 187.734 233.206C187.442 233.497 187.047 233.661 186.635 233.661Z" fill="#00BD62"/>
<path opacity="0.7" d="M206.058 244.925H153.884V258.909H206.058V244.925Z" fill="#00BD62"/>
<path opacity="0.3" d="M177.516 262.016H153.884V313.646H177.516V262.016Z" fill="#00BD62"/>
<path opacity="0.3" d="M236.294 262.016H209.15V313.646H236.294V262.016Z" fill="#00BD62"/>
<path opacity="0.7" d="M264.323 244.925H209.15V258.909H264.323V244.925Z" fill="#00BD62"/>
<path opacity="0.3" d="M264.34 262.016H239.418V313.646H264.34V262.016Z" fill="#00BD62"/>
<path opacity="0.5" d="M150.775 262.016H131.913V313.646H150.775V262.016Z" fill="#00BD62"/>
<path d="M150.775 244.925H131.913V258.909H150.775V244.925Z" fill="#00BD62"/>
<path opacity="0.3" d="M206.042 262.016H180.623V313.646H206.042V262.016Z" fill="#00BD62"/>
<path opacity="0.4" d="M280.961 334.792C280.067 334.792 279.21 334.437 278.577 333.805C277.945 333.173 277.59 332.315 277.59 331.421V312.403C277.59 311.509 277.945 310.652 278.577 310.019C279.21 309.387 280.067 309.032 280.961 309.032C281.404 309.032 281.843 309.119 282.252 309.288C282.661 309.458 283.032 309.706 283.346 310.019C283.659 310.332 283.907 310.704 284.076 311.113C284.246 311.522 284.333 311.961 284.333 312.403V331.452C284.325 332.341 283.966 333.19 283.335 333.816C282.703 334.442 281.85 334.792 280.961 334.792Z" fill="white"/>
<path opacity="0.2" d="M285.235 164.523V301.219H201.441C200.257 301.215 199.123 300.769 198.287 299.977C197.452 299.185 196.982 298.113 196.982 296.994V160.299H280.763C281.949 160.299 283.087 160.744 283.925 161.536C284.764 162.328 285.235 163.403 285.235 164.523Z" fill="black"/>
<path d="M403.217 103.365L208.598 103.365L176.187 135.776L176.187 263.895C176.191 265.22 176.72 266.488 177.658 267.423C178.596 268.358 179.866 268.883 181.19 268.883L403.217 268.883C404.541 268.883 405.811 268.358 406.749 267.423C407.687 266.488 408.216 265.22 408.22 263.895V108.368C408.22 107.041 407.693 105.769 406.754 104.83C405.816 103.892 404.544 103.365 403.217 103.365Z" fill="#00BD62"/>
<path opacity="0.6" d="M397.999 103.882L208.877 103.882L175.944 136.214L175.944 264.025C175.948 265.346 176.485 266.611 177.438 267.544C178.391 268.476 179.682 269 181.027 269L397.999 269V103.882Z" fill="white"/>
<path d="M208.594 103.362L176.183 135.772H208.594V103.362Z" fill="#F4F83D"/>
<path fill-rule="evenodd" clip-rule="evenodd" d="M197.379 114.576L187.795 124.16C188.976 126.455 191.368 128.026 194.128 128.026C198.059 128.026 201.245 124.839 201.245 120.909C201.245 118.149 199.675 115.757 197.379 114.576Z" fill="#2F80ED"/>
<path opacity="0.4" d="M397.679 103.829V112.369L208.362 112.369V103.829L397.679 103.829Z" fill="black"/>
<path d="M359.615 107.95C359.615 108.844 359.97 109.701 360.602 110.334C361.235 110.966 362.092 111.321 362.986 111.321H381.926C382.82 111.321 383.678 110.966 384.31 110.334C384.943 109.701 385.298 108.844 385.298 107.95C385.298 107.055 384.943 106.198 384.31 105.566C383.678 104.933 382.82 104.578 381.926 104.578H362.909C362.028 104.598 361.19 104.963 360.575 105.593C359.959 106.223 359.615 107.069 359.615 107.95Z" fill="#00BD62"/>
<path opacity="0.4" d="M359.615 107.95C359.615 108.844 359.97 109.701 360.602 110.334C361.235 110.966 362.092 111.321 362.986 111.321H381.926C382.82 111.321 383.678 110.966 384.31 110.334C384.943 109.701 385.298 108.844 385.298 107.95C385.298 107.055 384.943 106.198 384.31 105.566C383.678 104.933 382.82 104.578 381.926 104.578H362.909C362.028 104.598 361.19 104.963 360.575 105.593C359.959 106.223 359.615 107.069 359.615 107.95Z" fill="white"/>
<path d="M229.546 198.416C234.959 198.416 238.367 196.031 239.01 191.753H233.824C233.483 193.419 232.234 194.517 229.697 194.517C226.706 194.517 224.927 192.624 224.776 189.331H239.048V187.816C239.048 180.737 234.505 177.746 229.394 177.746C223.64 177.746 219.21 181.797 219.21 188.043V188.346C219.21 194.668 223.564 198.416 229.546 198.416ZM224.851 185.961C225.268 183.16 226.934 181.532 229.394 181.532C232.006 181.532 233.521 182.97 233.71 185.961H224.851ZM252.598 198.416C258.996 198.416 262.933 194.593 262.933 189.785C262.933 184.182 259.564 182.403 253.014 181.57C248.85 180.964 247.979 180.055 247.979 178.125C247.979 176.307 249.342 175.058 252.03 175.058C254.718 175.058 256.157 176.194 256.535 178.655H262.176C261.684 173.279 258.125 170.553 252.03 170.553C246.049 170.553 242.187 173.998 242.187 178.617C242.187 183.841 245.026 185.923 251.954 186.832C255.929 187.438 257.065 188.195 257.065 190.353C257.065 192.473 255.286 193.949 252.598 193.949C248.585 193.949 247.563 191.943 247.298 189.52H241.43C241.771 194.934 245.178 198.416 252.598 198.416ZM276.094 194.252C272.99 194.252 271.249 191.981 271.249 188.195V187.892C271.249 184.106 273.066 181.91 276.094 181.91C279.161 181.91 280.94 184.182 280.94 187.968V188.233C280.94 191.981 279.161 194.252 276.094 194.252ZM276.057 198.416C282 198.416 286.505 194.441 286.505 188.195V187.892C286.505 181.721 282.038 177.746 276.094 177.746C270.151 177.746 265.646 181.797 265.646 188.005V188.308C265.646 194.479 270.151 198.416 276.057 198.416ZM299.158 198.416C304.912 198.416 308.32 195.161 308.622 190.466H303.663C303.398 193.003 301.619 194.29 299.423 194.29C296.356 194.29 294.577 192.246 294.577 188.271V187.968C294.577 184.182 296.47 182.062 299.309 182.062C301.543 182.062 302.944 183.122 303.322 185.431H308.509C308.017 179.752 303.777 177.746 299.196 177.746C293.555 177.746 288.974 181.645 288.974 188.043V188.346C288.974 194.82 293.366 198.416 299.158 198.416ZM312.224 198H317.675V178.2H312.224V198ZM314.912 175.512C316.691 175.512 318.054 174.225 318.054 172.522C318.054 170.818 316.691 169.531 314.912 169.531C313.17 169.531 311.807 170.818 311.807 172.522C311.807 174.225 313.17 175.512 314.912 175.512ZM328.058 198.416C331.162 198.416 332.904 197.205 334.039 195.615V198H339.377V185.09C339.377 179.715 335.932 177.746 331.086 177.746C326.241 177.746 322.53 179.828 322.19 184.523H327.376C327.603 182.819 328.588 181.721 330.746 181.721C333.244 181.721 333.964 183.008 333.964 185.355V186.15H331.73C325.673 186.15 321.433 187.892 321.433 192.511C321.433 196.675 324.461 198.416 328.058 198.416ZM329.686 194.593C327.679 194.593 326.808 193.646 326.808 192.208C326.808 190.088 328.663 189.406 331.844 189.406H333.964V191.072C333.964 193.268 332.109 194.593 329.686 194.593ZM344.24 198H349.692V169.228H344.24V198Z" fill="#00BD62"/>
<path opacity="0.7" d="M32.5684 127.59C32.8797 127.465 33.7204 121.342 34.6234 114.063C36.5071 98.7713 45.521 86.947 56.9324 84.6196L65.1523 82.9327C65.1523 82.9327 52.2464 82.9327 46.8754 79.1527C35.464 71.1553 32.8642 47.5068 32.8642 47.5068C32.8642 47.5068 29.7506 71.1553 18.2769 79.1527C12.8904 82.9327 0 82.9327 0 82.9327L8.21993 84.6196C19.6002 86.947 28.6297 98.7713 30.5134 114.063C31.4164 121.404 32.2415 127.465 32.5684 127.59Z" fill="#00E577" fill-opacity="0.35"/>
<path opacity="0.7" d="M507.641 69.2242C507.887 69.1247 508.553 64.247 509.268 58.4486C510.759 46.267 517.895 36.8476 526.929 34.9936L533.436 33.6498C533.436 33.6498 523.219 33.6498 518.967 30.6386C509.933 24.2678 507.875 5.4292 507.875 5.4292C507.875 5.4292 505.41 24.2678 496.327 30.6386C492.062 33.6498 481.857 33.6498 481.857 33.6498L488.365 34.9936C497.374 36.8476 504.523 46.267 506.014 58.4486C506.729 64.2968 507.382 69.1247 507.641 69.2242Z" fill="#00E577" fill-opacity="0.35"/>
<path opacity="0.7" d="M342.044 74.6537C342.329 74.5372 343.1 68.8294 343.928 62.044C345.654 47.7889 353.917 36.7663 364.377 34.5967L371.912 33.0241C371.912 33.0241 360.082 33.0241 355.159 29.5004C344.698 22.0452 342.315 0 342.315 0C342.315 0 339.461 22.0452 328.943 29.5004C324.006 33.0241 312.189 33.0241 312.189 33.0241L319.724 34.5967C330.156 36.7663 338.433 47.7889 340.16 62.044C340.988 68.8876 341.744 74.5372 342.044 74.6537Z" fill="#00E577" fill-opacity="0.35"/>
<path opacity="0.7" d="M578.218 401.772C578.568 401.63 579.514 394.677 580.529 386.411C582.649 369.046 592.789 355.619 605.627 352.976L614.875 351.06C614.875 351.06 600.355 351.06 594.313 346.767C581.475 337.686 578.55 310.831 578.55 310.831C578.55 310.831 575.048 337.686 562.14 346.767C556.08 351.06 541.578 351.06 541.578 351.06L550.826 352.976C563.628 355.619 573.787 369.046 575.906 386.411C576.922 394.748 577.85 401.63 578.218 401.772Z" fill="#00E577" fill-opacity="0.35"/>
<path opacity="0.7" d="M237.53 74.6541C237.672 74.5969 238.058 71.7948 238.472 68.4638C239.335 61.4658 243.466 56.0548 248.697 54.9897L252.464 54.2177C252.464 54.2177 246.549 54.2177 244.087 52.4879C238.857 48.828 237.665 38.0059 237.665 38.0059C237.665 38.0059 236.238 48.828 230.979 52.4879C228.511 54.2177 222.603 54.2177 222.603 54.2177L226.37 54.9897C231.586 56.0548 235.724 61.4658 236.588 68.4638C237.002 71.8234 237.38 74.5969 237.53 74.6541Z" fill="#00E577" fill-opacity="0.35"/>
<path opacity="0.7" d="M17.642 392.271C17.7847 392.214 18.17 389.412 18.5839 386.081C19.4473 379.083 23.5786 373.672 28.8089 372.607L32.5763 371.835C32.5763 371.835 26.6611 371.835 24.1994 370.105C18.9692 366.445 17.7776 355.623 17.7776 355.623C17.7776 355.623 16.3505 366.445 11.0918 370.105C8.62293 371.835 2.71484 371.835 2.71484 371.835L6.48231 372.607C11.6983 373.672 15.8368 379.083 16.7002 386.081C17.114 389.441 17.4922 392.214 17.642 392.271Z" fill="#00E577" fill-opacity="0.35"/>
<path opacity="0.7" d="M74.6467 317.618C74.984 317.484 75.8947 310.946 76.8729 303.174C78.9136 286.845 88.6787 274.22 101.041 271.734L109.946 269.933C109.946 269.933 95.9645 269.933 90.146 265.897C77.7836 257.357 74.9671 232.105 74.9671 232.105C74.9671 232.105 71.594 257.357 59.1642 265.897C53.3288 269.933 39.3643 269.933 39.3643 269.933L48.2692 271.734C60.5978 274.22 70.3797 286.845 72.4204 303.174C73.3986 311.013 74.2925 317.484 74.6467 317.618Z" fill="#00E577" fill-opacity="0.35"/>
<path opacity="0.7" d="M329.829 475.069C330.062 474.978 330.693 470.516 331.37 465.211C332.783 454.066 339.543 445.448 348.102 443.752L354.267 442.522C354.267 442.522 344.587 442.522 340.559 439.768C332 433.939 330.05 416.704 330.05 416.704C330.05 416.704 327.715 433.939 319.11 439.768C315.07 442.522 305.402 442.522 305.402 442.522L311.567 443.752C320.102 445.448 326.875 454.066 328.287 465.211C328.965 470.561 329.583 474.978 329.829 475.069Z" fill="#00E577" fill-opacity="0.35"/>
<path opacity="0.7" d="M561.935 88.2276C562.09 88.1662 562.511 85.1566 562.962 81.5788C563.904 74.0625 568.411 68.2506 574.117 67.1066L578.227 66.2775C578.227 66.2775 571.774 66.2775 569.088 64.4195C563.382 60.4886 562.082 48.8647 562.082 48.8647C562.082 48.8647 560.526 60.4886 554.789 64.4195C552.096 66.2775 545.65 66.2775 545.65 66.2775L549.76 67.1066C555.45 68.2506 559.965 74.0625 560.907 81.5788C561.359 85.1873 561.771 88.1662 561.935 88.2276Z" fill="#00E577" fill-opacity="0.35"/>
</svg>
