<svg width="604" height="616" viewBox="0 0 604 616" fill="none" xmlns="http://www.w3.org/2000/svg">
<g opacity="0.3">
<path d="M74.9079 476.288C74.9079 476.288 74.9078 476.288 74.9078 476.288C74.8991 476.295 74.8906 476.302 74.8825 476.309C74.8907 476.302 74.8991 476.295 74.9079 476.288ZM87.5175 371.957C55.0526 397.423 49.3573 444.371 74.784 476.855C74.7963 476.878 74.8108 476.901 74.8277 476.922C136.487 555.532 235.814 594.345 334.119 578.747C337.783 578.165 341.281 580.565 341.954 584.197L345.604 603.879C346.279 607.516 343.871 611.012 340.231 611.6C229.686 629.47 117.886 585.939 48.5462 497.535C11.6779 450.526 19.8978 382.538 66.9 345.668C113.909 308.8 181.898 317.02 218.767 364.022C229.016 377.097 242.588 387.108 258.004 393.053C261.486 394.397 263.506 398.124 262.451 401.659C261.315 405.461 260.18 409.263 259.045 413.065C258.271 415.656 257.497 418.247 256.724 420.838C255.664 424.388 251.93 426.401 248.478 425.153C226.427 417.181 207.005 403.166 192.478 384.642L192.127 384.917L192.478 384.642C166.996 352.156 120.003 346.475 87.5175 371.957Z" stroke="#00BD62" stroke-width="0.89266"/>
<path d="M147.453 420.534C147.452 420.534 147.452 420.534 147.452 420.534C147.4 420.575 147.336 420.605 147.262 420.62C147.337 420.605 147.4 420.575 147.453 420.534ZM123.378 417.623C130.622 411.942 141.095 413.194 146.797 420.419C146.806 420.432 146.815 420.446 146.825 420.458L146.825 420.458C205.203 494.877 310.238 512.422 389.405 462.095C392.541 460.101 396.717 460.858 398.817 463.896C400.899 466.907 402.981 469.919 405.063 472.93C406.774 475.406 408.486 477.882 410.198 480.359C412.303 483.404 411.54 487.574 408.443 489.567C384.575 504.929 357.901 515.468 329.931 520.561C250.791 534.963 170.189 504.366 120.543 441.072C114.853 433.815 116.12 423.318 123.378 417.623Z" stroke="#00BD62" stroke-width="0.89266"/>
<path d="M115.762 407.935L115.762 407.935C128.378 398.041 146.621 400.248 156.515 412.86L156.164 413.136L156.515 412.86C203.61 472.905 284.532 494.273 354.816 466.037C358.23 464.665 359.734 460.7 358.213 457.324C355.472 451.241 352.731 445.158 349.989 439.073C348.472 435.708 344.504 434.211 341.037 435.563C284.797 457.488 220.396 440.181 182.798 392.244L183.149 391.969L182.798 392.244C161.518 365.111 122.274 360.37 95.1408 381.651C68.008 402.931 63.2667 442.175 84.5472 469.308C157.825 562.734 284.443 595.12 393.265 549.115C396.659 547.679 398.156 543.705 396.625 540.338C393.862 534.263 391.098 528.189 388.334 522.114C386.804 518.753 382.837 517.267 379.413 518.698C375.684 520.255 371.914 521.714 368.097 523.075C368.097 523.075 368.097 523.075 368.096 523.075L115.762 407.935ZM115.762 407.935C103.15 417.828 100.943 436.072 110.836 448.688L111.187 448.413L115.762 407.935Z" stroke="#00BD62" stroke-width="0.89266"/>
<path d="M271.717 171.027L271.717 171.028C271.686 171.032 271.657 171.039 271.629 171.049C211.35 179.667 164.202 226.769 155.066 286.415C154.503 290.093 151.222 292.779 147.549 292.41C144.207 292.074 140.868 291.738 137.53 291.402C134.233 291.07 130.935 290.738 127.635 290.406C123.95 290.036 121.268 286.75 121.787 283.108C132.478 208.125 191.442 148.726 266.987 137.965L266.924 137.523L266.987 137.965C282.857 135.701 293.888 121.001 291.629 105.13C289.37 89.2598 274.669 78.2297 258.799 80.4888L258.861 80.9306L258.799 80.4888C161.236 94.3876 83.4891 169.127 65.758 266.077C65.0288 270.064 64.407 274.06 63.8913 278.072C63.4181 281.754 60.1457 284.449 56.4685 284.092C53.5922 283.813 50.7163 283.535 47.8406 283.256C44.0749 282.891 40.3096 282.526 36.5444 282.161C32.8623 281.804 30.169 278.52 30.6234 274.863C45.1903 157.612 136.551 64.1575 254.103 47.409C288.237 42.548 319.851 66.2767 324.717 100.415C329.578 134.546 305.852 166.163 271.717 171.027ZM271.696 171.04C271.697 171.039 271.698 171.039 271.699 171.039L271.699 171.039C271.698 171.039 271.697 171.039 271.696 171.04Z" stroke="#00BD62" stroke-width="0.89266"/>
<path d="M265.223 125.74L265.223 125.74C265.19 125.744 265.159 125.752 265.129 125.763C171.536 139.145 103.868 221.32 107.88 315.01C108.039 318.723 105.296 321.962 101.615 322.262L81.6651 323.887C77.9758 324.187 74.7449 321.441 74.5669 317.763C73.195 289.413 77.4019 261.041 86.9785 234.273L86.5583 234.123L86.9786 234.273C114.069 158.525 180.874 104.017 260.508 92.6717L260.508 92.6717C269.636 91.3683 278.098 97.7172 279.397 106.851C280.695 115.978 274.354 124.433 265.223 125.74Z" stroke="#00BD62" stroke-width="0.89266"/>
<path d="M252.326 35.2108C252.296 35.215 252.267 35.2223 252.239 35.2322L252.389 35.6526L252.327 35.2107C252.326 35.2107 252.326 35.2108 252.326 35.2108Z" stroke="#00BD62" stroke-width="0.89266"/>
<mask id="path-7-inside-1_2265_3943" fill="white">
<path d="M525.798 106.827C525.799 106.827 525.799 106.828 525.798 106.828C518.916 112.706 512.032 118.586 505.148 124.465C502.149 127.027 501.805 131.532 504.288 134.597C566.848 211.809 582.867 317.059 545.678 409.618C530.374 447.702 487.099 466.169 449.014 450.865C410.93 435.56 392.463 392.286 407.768 354.2C416.577 332.277 419.013 308.366 414.878 285.205C414.185 281.322 410.314 278.953 406.477 279.866C399.987 281.41 393.497 282.954 387.008 284.498C383.17 285.411 380.829 289.26 381.439 293.157C383.986 309.401 382.111 326.077 375.946 341.414C353.582 397.074 380.572 460.326 436.227 482.686C491.887 505.051 555.139 478.061 577.499 422.4C620.34 315.786 600.419 194.201 525.797 106.828C525.797 106.827 525.798 106.826 525.798 106.827Z"/>
</mask>
<path d="M545.678 409.618L546.506 409.951L546.506 409.951L545.678 409.618ZM449.014 450.865L448.681 451.693H448.681L449.014 450.865ZM407.768 354.2L406.939 353.868V353.868L407.768 354.2ZM375.946 341.414L375.118 341.081L375.118 341.081L375.946 341.414ZM436.227 482.686L436.56 481.858H436.56L436.227 482.686ZM577.499 422.4L576.671 422.068L576.671 422.068L577.499 422.4ZM387.008 284.498L386.801 283.63L387.008 284.498ZM505.148 124.465L505.728 125.144L505.148 124.465ZM525.797 106.828L525.119 107.408L525.797 106.828ZM414.878 285.205L413.999 285.362L414.878 285.205ZM406.477 279.866L406.27 278.998L406.477 279.866ZM525.798 106.828L526.378 107.507L525.798 106.828ZM525.219 106.149C518.337 112.027 511.452 117.907 504.568 123.786L505.728 125.144C512.611 119.265 519.496 113.385 526.378 107.507L525.219 106.149ZM503.594 135.159C565.951 212.119 581.918 317.027 544.85 409.285L546.506 409.951C583.817 317.09 567.745 211.498 504.981 134.035L503.594 135.159ZM544.85 409.285C529.729 446.912 486.974 465.157 449.347 450.036L448.681 451.693C487.224 467.181 531.018 448.492 546.506 409.951L544.85 409.285ZM449.347 450.036C411.72 434.916 393.475 392.161 408.596 354.533L406.939 353.868C391.451 392.41 410.14 436.205 448.681 451.693L449.347 450.036ZM408.596 354.533C417.468 332.454 419.921 308.373 415.757 285.048L413.999 285.362C418.105 308.358 415.687 332.1 406.939 353.868L408.596 354.533ZM406.27 278.998C399.781 280.541 393.29 282.086 386.801 283.63L387.214 285.366C393.705 283.823 400.193 282.278 406.683 280.734L406.27 278.998ZM380.558 293.295C383.079 309.381 381.223 325.894 375.118 341.081L376.774 341.747C383 326.26 384.893 309.421 382.321 293.018L380.558 293.295ZM375.118 341.081C352.57 397.199 379.782 460.97 435.895 483.515L436.56 481.858C381.362 459.681 354.594 396.95 376.774 341.747L375.118 341.081ZM435.894 483.515C492.012 506.063 555.783 478.851 578.328 422.733L576.671 422.068C554.494 477.27 491.763 504.039 436.56 481.858L435.894 483.515ZM578.328 422.733C621.292 315.811 601.314 193.873 526.476 106.248L525.119 107.408C599.525 194.528 619.388 315.762 576.671 422.068L578.328 422.733ZM386.801 283.63C382.468 284.66 379.881 288.981 380.558 293.295L382.321 293.018C381.776 289.538 383.872 286.161 387.214 285.366L386.801 283.63ZM504.568 123.786C501.189 126.672 500.817 131.731 503.594 135.159L504.981 134.035C502.793 131.334 503.108 127.381 505.728 125.144L504.568 123.786ZM526.476 106.248C526.803 106.631 526.716 107.122 526.48 107.403C526.239 107.688 525.751 107.859 525.314 107.577L526.283 106.077C525.845 105.794 525.356 105.966 525.115 106.251C524.878 106.532 524.791 107.024 525.119 107.408L526.476 106.248ZM415.757 285.048C414.967 280.627 410.573 277.974 406.27 278.998L406.683 280.734C410.054 279.932 413.402 282.017 413.999 285.362L415.757 285.048ZM526.378 107.507C526.833 107.118 526.785 106.401 526.283 106.077L525.314 107.577C524.812 107.253 524.765 106.537 525.219 106.149L526.378 107.507Z" fill="#00BD62" mask="url(#path-7-inside-1_2265_3943)"/>
<path d="M461.24 375.66L461.242 375.655L461.24 375.66ZM461.241 375.663C496.501 287.899 459.173 188.159 376.007 144.773C372.712 143.054 371.279 139.058 372.86 135.72C374.432 132.402 376.004 129.084 377.576 125.765C378.86 123.054 380.145 120.343 381.429 117.631C383.014 114.286 387.007 112.862 390.281 114.546C415.521 127.534 437.989 145.365 456.382 167.044L456.722 166.755L456.382 167.044C508.424 228.373 522.232 313.479 492.239 388.118C488.796 396.675 479.071 400.827 470.51 397.388C461.968 393.951 457.816 384.255 461.222 375.704C461.229 375.691 461.235 375.677 461.241 375.663ZM461.272 375.51C461.279 375.293 461.141 375.144 460.992 375.083C460.992 375.082 460.993 375.082 460.993 375.082C461.153 375.144 461.279 375.293 461.272 375.51Z" stroke="#00BD62" stroke-width="0.89266"/>
<path d="M503.674 392.729L503.674 392.728C503.68 392.715 503.684 392.701 503.689 392.687C540.418 301.239 514.559 196.556 439.474 132.73L439.474 132.73C436.384 130.104 433.236 127.568 430.019 125.116C427.067 122.865 426.369 118.683 428.516 115.677L440.149 99.3912C442.299 96.3803 446.49 95.6892 449.431 97.9118C543.688 169.156 578.945 294.998 534.673 405.173C521.815 437.166 485.455 452.682 453.461 439.824C421.467 426.966 405.951 390.605 418.81 358.611L418.395 358.445L418.81 358.611C441.522 302.089 424.312 237.668 377.206 199.922C374.301 197.594 373.615 193.408 375.772 190.411C379.67 184.996 383.568 179.581 387.465 174.166C389.627 171.161 393.814 170.481 396.709 172.751C456.303 219.499 478.258 300.271 449.808 371.076C443.83 385.952 451.043 402.86 465.919 408.837C480.795 414.814 497.696 407.603 503.674 392.729Z" stroke="#00BD62" stroke-width="0.89266"/>
</g>
<g opacity="0.7">
<path d="M50.6543 440.853C52.5647 449.968 57.9568 457.979 65.6834 463.179C73.3915 468.302 82.2876 471.355 91.5167 472.046C100.451 472.881 110.053 471.863 117.183 466.419C124.313 460.975 127.804 450.171 122.927 442.64C116.031 431.986 101.219 431.084 88.561 432.002C75.9032 432.921 62.5941 436.611 50.6543 440.853Z" fill="#00BD62"/>
<path d="M164.257 374.708C171.518 380.54 176.216 388.976 177.349 398.22C178.426 407.416 177.109 416.735 173.525 425.272C170.185 433.622 164.958 441.704 156.826 445.595C148.694 449.486 137.522 447.699 133.03 439.934C126.668 428.963 132.596 415.337 139.125 404.466C145.654 393.595 155.056 383.425 164.257 374.708Z" fill="#00BD62"/>
<path d="M25.8281 383.76C25.8724 392.657 29.3827 401.187 35.6137 407.539C41.8495 413.8 49.5891 418.354 58.0906 420.764C66.2898 423.269 75.4742 424.104 83.139 420.414C90.8039 416.723 96.1809 407.238 93.1584 399.273C88.7332 387.984 75.0233 384.244 63.0168 382.724C51.0102 381.205 37.818 382.09 25.8281 383.76Z" fill="#00BD62"/>
<path d="M144.768 343.549C150.447 350.399 153.232 359.193 152.533 368.063C151.768 376.865 148.755 385.324 143.783 392.627C139.091 399.808 132.611 406.37 124.312 408.474C116.013 410.579 105.843 406.805 103.121 398.622C99.2635 387.133 107.413 375.511 115.612 366.593C123.811 357.676 134.565 349.945 144.768 343.549Z" fill="#00BD62"/>
<path d="M9.86289 326.449C9.19477 334.91 11.8549 343.298 17.2772 349.827C22.6954 356.273 29.6832 361.213 37.5665 364.172C45.1478 367.194 53.8146 368.747 61.4293 365.842C69.0441 362.936 74.7885 354.369 72.5342 346.538C69.1944 335.483 56.5031 330.907 45.2313 328.453C33.9595 325.998 21.3852 325.814 9.86289 326.449Z" fill="#00BD62"/>
<path d="M126.001 297.76C130.851 304.715 132.793 313.29 131.411 321.656C130.006 329.948 126.493 337.74 121.208 344.283C116.198 350.729 109.519 356.457 101.47 357.793C93.4208 359.129 84.0694 354.67 82.1323 346.755C79.377 335.55 88.0438 325.146 96.5269 317.348C105.451 309.556 115.361 302.97 126.001 297.76Z" fill="#00BD62"/>
<path d="M6.65313 272.461C5.00543 280.345 6.50354 288.56 10.8279 295.355C15.169 302.086 21.1663 307.589 28.2449 311.336C35.0247 315.093 43.0068 317.598 50.538 315.761C58.0693 313.924 64.5819 306.56 63.3295 298.895C61.5427 288.074 50.1039 282.196 39.7672 278.556C29.0435 275.084 17.9103 273.035 6.65313 272.461Z" fill="#00BD62"/>
<path d="M119.54 259.352C123.269 266.494 124.071 274.806 121.778 282.53C119.484 290.177 115.264 297.106 109.521 302.652C104.01 308.129 97.03 312.671 89.2817 313.005C81.5334 313.339 73.2507 307.996 72.3656 300.264C71.1299 289.376 80.5481 280.626 89.4821 274.28C98.8091 268.017 108.914 262.999 119.54 259.352Z" fill="#00BD62"/>
<path d="M15.3713 212.861C12.7041 220.017 12.9317 227.93 16.0059 234.921C19.1067 241.85 23.9441 247.86 30.0498 252.371C35.8777 256.863 42.9915 260.353 50.3223 259.702C57.6532 259.051 64.7836 253.022 64.7001 245.725C64.5832 235.321 54.6807 228.208 45.513 223.298C35.9637 218.52 25.8306 215.011 15.3713 212.861Z" fill="#00BD62"/>
<path d="M123.091 216.77C125.575 223.993 125.144 231.901 121.889 238.812C118.604 245.656 113.612 251.54 107.394 255.895C101.466 260.237 94.2687 263.543 86.9545 262.708C79.6403 261.873 72.6602 255.728 72.9274 248.381C73.3114 237.977 83.3976 231.114 92.6822 226.455C102.351 221.91 112.575 218.654 123.091 216.77Z" fill="#00BD62"/>
<path d="M33.0056 158.323C29.5954 164.685 28.8045 172.127 30.8013 179.063C32.8231 185.946 36.5844 192.192 41.7225 197.198C46.5986 202.208 52.8106 206.333 59.7573 206.65C66.7041 206.967 74.1519 202.308 75.0202 195.412C76.2225 185.659 67.873 177.727 59.9911 172.033C51.6393 166.294 42.5656 161.684 33.0056 158.323Z" fill="#00BD62"/>
<path d="M133.397 175.74C134.797 182.825 133.377 190.176 129.439 196.23C125.497 202.223 120.072 207.095 113.692 210.374C107.58 213.714 100.333 215.868 93.653 214.148C86.9734 212.428 81.1454 205.798 82.3478 198.918C84.0177 189.25 94.3543 184.106 103.639 180.917C113.289 177.896 123.294 176.156 133.397 175.74Z" fill="#00BD62"/>
<path d="M97.5427 132.189C97.1319 131.502 96.4693 131.003 95.6959 130.797C94.9224 130.591 94.0992 130.695 93.4013 131.087C86.2199 134.781 80.3018 140.53 76.4018 147.602C73.6832 152.503 72.8686 158.235 74.114 163.7C76.8026 174.821 91.5644 178.345 98.7951 169.461C104.373 162.598 105.208 153.096 103.972 144.413C103.287 139.703 99.9807 136.23 97.5427 132.189Z" fill="#00BD62"/>
<path d="M252.632 506.112C213.74 502.322 176.318 485.372 144.222 457.234C113.541 430.1 90.6456 395.279 77.894 356.356C58.2894 295.371 62.6478 224.534 90.1844 156.903L93.2737 158.172C66.1045 225.018 61.7127 295.037 81.1336 355.371C106.666 434.774 177.336 495.442 252.999 502.873L252.632 506.112Z" fill="#00BD62"/>
<path d="M558.468 440.853C556.561 449.97 551.168 457.981 543.439 463.179C535.723 468.3 526.822 471.353 517.589 472.046C508.671 472.881 499.053 471.863 491.922 466.419C484.792 460.975 481.302 450.171 486.178 442.64C493.075 431.986 507.887 431.084 520.561 432.002C533.236 432.921 546.528 436.611 558.468 440.853Z" fill="#00BD62"/>
<path d="M444.868 374.708C437.62 380.546 432.935 388.981 431.81 398.22C430.741 407.416 432.058 416.733 435.634 425.272C438.974 433.622 444.2 441.704 452.333 445.595C460.465 449.486 471.637 447.699 476.129 439.934C482.491 428.963 476.58 415.337 470.034 404.466C463.488 393.595 454.07 383.425 444.868 374.708Z" fill="#00BD62"/>
<path d="M583.303 383.76C583.259 392.657 579.749 401.187 573.518 407.539C567.284 413.803 559.544 418.357 551.041 420.764C542.842 423.269 533.657 424.104 525.993 420.414C518.328 416.723 512.951 407.238 516.073 399.273C520.482 387.984 534.192 384.244 546.132 382.724C558.071 381.205 571.314 382.09 583.303 383.76Z" fill="#00BD62"/>
<path d="M464.356 343.549C458.675 350.397 455.895 359.194 456.608 368.063C457.357 376.869 460.371 385.331 465.358 392.627C470.034 399.808 476.513 406.37 484.812 408.474C493.112 410.579 503.281 406.805 506.003 398.622C509.861 387.133 501.712 375.511 493.513 366.593C485.313 357.676 474.626 349.945 464.356 343.549Z" fill="#00BD62"/>
<path d="M599.269 326.449C599.937 334.91 597.276 343.298 591.854 349.827C586.436 356.273 579.448 361.213 571.565 364.172C563.984 367.194 555.333 368.747 547.702 365.842C540.071 362.936 534.343 354.369 536.614 346.538C539.954 335.483 552.628 330.907 563.9 328.453C575.172 325.998 587.746 325.814 599.269 326.449Z" fill="#00BD62"/>
<path d="M483.138 297.76C478.274 304.71 476.326 313.287 477.71 321.656C479.13 329.953 482.661 337.746 487.964 344.283C492.973 350.729 499.653 356.457 507.718 357.793C515.784 359.129 525.102 354.67 527.056 346.755C529.795 335.55 521.144 325.146 512.645 317.348C503.708 309.556 493.788 302.97 483.138 297.76Z" fill="#00BD62"/>
<path d="M602.469 272.461C604.116 280.345 602.618 288.56 598.294 295.355C593.953 302.086 587.955 307.589 580.877 311.336C574.097 315.093 566.132 317.598 558.584 315.761C551.036 313.924 544.54 306.56 545.792 298.895C547.579 288.074 559.018 282.196 569.371 278.556C580.089 275.083 591.217 273.034 602.469 272.461Z" fill="#00BD62"/>
<path d="M489.523 259.352C485.794 266.494 484.992 274.806 487.285 282.53C489.629 290.189 493.901 297.118 499.692 302.652C505.186 308.129 512.166 312.671 519.915 313.005C527.663 313.339 535.946 307.996 536.831 300.264C538.067 289.376 528.665 280.626 519.714 274.28C510.346 268.007 500.195 262.988 489.523 259.352Z" fill="#00BD62"/>
<path d="M593.79 212.861C596.452 220.019 596.218 227.933 593.138 234.921C590.037 241.85 585.2 247.86 579.094 252.371C573.267 256.863 566.153 260.353 558.839 259.702C551.524 259.051 544.361 253.022 544.444 245.725C544.561 235.321 554.463 228.208 563.631 223.298C573.186 218.519 583.325 215.01 593.79 212.861Z" fill="#00BD62"/>
<path d="M486.026 216.77C483.542 223.993 483.973 231.901 487.229 238.812C490.514 245.656 495.505 251.54 501.723 255.895C507.651 260.237 514.849 263.543 522.163 262.708C529.477 261.873 536.457 255.728 536.19 248.381C535.806 237.977 525.736 231.114 516.435 226.455C506.766 221.91 496.543 218.654 486.026 216.77Z" fill="#00BD62"/>
<path d="M576.125 158.323C579.535 164.685 580.326 172.127 578.329 179.063C576.316 185.95 572.554 192.198 567.408 197.198C562.532 202.208 556.32 206.333 549.373 206.65C542.426 206.967 534.979 202.308 534.11 195.412C532.908 185.659 541.257 177.727 549.223 172.033C557.548 166.299 566.593 161.69 576.125 158.323Z" fill="#00BD62"/>
<path d="M475.727 175.741C474.327 182.826 475.747 190.177 479.685 196.231C483.627 202.224 489.052 207.096 495.432 210.375C501.544 213.715 508.708 215.869 515.471 214.149C522.234 212.429 527.978 205.799 526.776 198.919C525.106 189.251 514.786 184.107 505.485 180.918C495.835 177.897 485.83 176.157 475.727 175.741Z" fill="#00BD62"/>
<path d="M511.581 132.189C511.995 131.501 512.661 131.001 513.437 130.796C514.213 130.59 515.039 130.694 515.74 131.087C522.913 134.786 528.824 140.535 532.722 147.602C535.441 152.504 536.256 158.236 535.01 163.7C532.322 174.822 517.56 178.345 510.329 169.461C504.752 162.598 503.917 153.096 505.169 144.413C505.837 139.704 509.143 136.23 511.581 132.189Z" fill="#00BD62"/>
<path d="M356.499 506.112L356.182 502.772C431.811 495.358 502.532 434.691 528.048 355.371C547.418 295.121 543.077 225.118 515.857 158.206L518.963 156.937C546.483 224.567 550.842 295.404 531.237 356.389C518.49 395.301 495.6 430.111 464.925 457.234C432.88 485.372 395.391 502.322 356.499 506.112Z" fill="#00BD62"/>
</g>
<path d="M115.537 175.068H479.671C480.651 175.068 481.621 175.261 482.526 175.636C483.432 176.011 484.255 176.561 484.947 177.254C485.64 177.947 486.19 178.77 486.565 179.675C486.94 180.58 487.133 181.551 487.133 182.531V445.949H108.075V182.601C108.065 181.615 108.252 180.637 108.622 179.723C108.993 178.81 109.541 177.979 110.235 177.279C110.929 176.578 111.755 176.022 112.665 175.643C113.575 175.264 114.551 175.068 115.537 175.068Z" fill="#263238"/>
<path d="M479.667 191.863H115.533V424.594H479.667V191.863Z" fill="#EDFFF7"/>
<path opacity="0.2" d="M294.282 187.792C296.289 187.792 297.917 186.164 297.917 184.157C297.917 182.149 296.289 180.521 294.282 180.521C292.274 180.521 290.646 182.149 290.646 184.157C290.646 186.164 292.274 187.792 294.282 187.792Z" fill="white"/>
<path opacity="0.2" d="M301.816 186.883C303.322 186.883 304.542 185.663 304.542 184.157C304.542 182.651 303.322 181.431 301.816 181.431C300.31 181.431 299.09 182.651 299.09 184.157C299.09 185.663 300.31 186.883 301.816 186.883Z" fill="white"/>
<path opacity="0.2" d="M299.087 429.365C298.609 429.197 298.107 429.108 297.601 429.103C296.657 429.103 295.735 429.382 294.95 429.907C294.166 430.431 293.554 431.176 293.193 432.048C292.832 432.92 292.738 433.879 292.922 434.804C293.106 435.73 293.56 436.58 294.227 437.247C294.895 437.914 295.745 438.369 296.67 438.553C297.596 438.737 298.555 438.642 299.427 438.281C300.299 437.92 301.044 437.309 301.568 436.524C302.092 435.74 302.372 434.817 302.372 433.874C302.382 433.786 302.382 433.699 302.372 433.611C301.46 433.317 300.659 432.754 300.072 431.996C299.486 431.239 299.142 430.321 299.087 429.365Z" fill="white"/>
<path d="M515.391 442.245V445.74C515.385 446.823 515.033 447.876 514.385 448.744C513.737 449.612 512.828 450.25 511.791 450.563L485.402 458.288C482.124 459.265 478.721 459.759 475.301 459.756H119.94C116.525 459.758 113.128 459.264 109.856 458.288L83.4496 450.493C82.4096 450.183 81.4968 449.547 80.8455 448.678C80.1943 447.81 79.839 446.755 79.832 445.67V442.175L515.391 442.245Z" fill="#263238"/>
<path opacity="0.2" d="M515.391 442.245V445.74C515.385 446.823 515.033 447.876 514.385 448.744C513.737 449.612 512.828 450.25 511.791 450.563L485.402 458.288C482.124 459.265 478.721 459.759 475.301 459.756H119.94C116.525 459.758 113.128 459.264 109.856 458.288L83.4496 450.493C82.4096 450.183 81.4968 449.547 80.8455 448.678C80.1943 447.81 79.839 446.755 79.832 445.67V442.175L515.391 442.245Z" fill="white"/>
<path opacity="0.2" d="M515.391 442.244V445.739C515.39 446.645 515.143 447.533 514.675 448.308H80.5486C80.0806 447.533 79.8329 446.645 79.832 445.739V442.244H515.391Z" fill="white"/>
<path opacity="0.2" d="M328.26 442.244V443.747C328.26 443.942 328.221 444.135 328.147 444.316C328.072 444.496 327.963 444.66 327.825 444.797C327.687 444.935 327.523 445.045 327.343 445.119C327.162 445.194 326.969 445.233 326.774 445.233H268.474C268.277 445.235 268.082 445.198 267.9 445.125C267.718 445.051 267.552 444.942 267.412 444.804C267.272 444.666 267.161 444.501 267.085 444.32C267.01 444.138 266.971 443.944 266.971 443.747V442.244H328.26Z" fill="black"/>
<path opacity="0.1" d="M479.667 191.863C479.667 191.863 429.318 391.773 115.533 424.594V191.863H479.667Z" fill="white"/>
<path fill-rule="evenodd" clip-rule="evenodd" d="M202.469 358.448H304.748L404.842 258.336H202.469V358.448Z" fill="url(#paint0_linear_2265_3943)"/>
<path fill-rule="evenodd" clip-rule="evenodd" d="M322.566 278.359H302.58L302.646 325.367L285.242 278.343H267.985L253.129 317.616C251.549 307.622 241.218 304.174 233.089 301.591C227.72 299.867 222.023 297.331 222.081 294.528C222.125 292.227 225.129 290.094 231.097 290.412C235.102 290.628 238.639 290.95 245.676 294.35L252.595 282.292C246.179 279.026 237.307 276.964 230.032 276.957H229.987C221.504 276.957 214.441 279.705 210.063 284.232C207.01 287.391 205.364 291.409 205.297 295.852C205.186 301.965 207.426 306.299 212.134 309.763C216.112 312.677 221.2 314.568 225.682 315.956C231.211 317.669 235.727 319.16 235.671 322.332C235.627 323.489 235.191 324.57 234.359 325.442C232.98 326.866 230.866 327.4 227.941 327.458C222.296 327.578 218.114 326.69 211.449 322.751L205.293 334.964C211.952 338.751 219.019 340.651 227.051 340.651L228.857 340.637C235.847 340.51 241.52 338.835 246.027 335.209C246.286 335.002 246.517 334.793 246.757 334.582L246.001 338.479L262.864 338.426L265.89 330.679C269.071 331.765 272.688 332.366 276.528 332.366C280.27 332.366 283.79 331.796 286.911 330.773L289.02 338.426L319.276 338.455L319.35 320.795H325.788C341.35 320.795 350.549 312.875 350.549 299.593C350.544 284.801 341.601 278.359 322.566 278.359ZM276.528 318.541C274.203 318.541 272.023 318.136 270.148 317.425L276.457 297.502H276.579L282.786 317.48C280.918 318.148 278.789 318.541 276.526 318.541H276.528ZM323.737 307.095H319.345V291.039H323.739C329.59 291.039 334.262 292.988 334.262 298.964C334.257 305.149 329.59 307.095 323.739 307.095" fill="white"/>
<path opacity="0.7" d="M438.436 156.009C438.643 155.926 439.2 151.839 439.8 146.979C441.049 136.771 447.029 128.878 454.599 127.324L460.053 126.198C460.053 126.198 451.491 126.198 447.928 123.675C440.357 118.336 438.632 102.55 438.632 102.55C438.632 102.55 436.567 118.336 428.955 123.675C425.382 126.198 416.83 126.198 416.83 126.198L422.283 127.324C429.833 128.878 435.823 136.771 437.073 146.979C437.672 151.88 438.219 155.926 438.436 156.009Z" fill="#00E577" fill-opacity="0.35"/>
<path opacity="0.7" d="M299.668 160.559C299.907 160.461 300.553 155.678 301.247 149.992C302.694 138.047 309.618 128.81 318.383 126.992L324.698 125.674C324.698 125.674 314.784 125.674 310.658 122.721C301.892 116.474 299.895 98 299.895 98C299.895 98 297.503 116.474 288.69 122.721C284.552 125.674 274.65 125.674 274.65 125.674L280.965 126.992C289.706 128.81 296.642 138.047 298.089 149.992C298.783 155.727 299.417 160.461 299.668 160.559Z" fill="#00E577" fill-opacity="0.35"/>
<path opacity="0.7" d="M497.58 434.681C497.874 434.562 498.666 428.735 499.518 421.809C501.294 407.257 509.791 396.005 520.549 393.79L528.299 392.184C528.299 392.184 516.132 392.184 511.068 388.587C500.31 380.977 497.859 358.473 497.859 358.473C497.859 358.473 494.924 380.977 484.107 388.587C479.029 392.184 466.877 392.184 466.877 392.184L474.626 393.79C485.355 396.005 493.867 407.257 495.643 421.809C496.494 428.795 497.272 434.562 497.58 434.681Z" fill="#00E577" fill-opacity="0.35"/>
<path opacity="0.7" d="M212.087 160.559C212.207 160.512 212.529 158.163 212.876 155.372C213.6 149.508 217.062 144.973 221.445 144.081L224.602 143.434C224.602 143.434 219.645 143.434 217.582 141.984C213.199 138.918 212.201 129.849 212.201 129.849C212.201 129.849 211.005 138.918 206.598 141.984C204.529 143.434 199.578 143.434 199.578 143.434L202.735 144.081C207.106 144.973 210.574 149.508 211.298 155.372C211.644 158.187 211.961 160.512 212.087 160.559Z" fill="#00E577" fill-opacity="0.35"/>
<path opacity="0.7" d="M289.432 496.103C289.628 496.027 290.156 492.287 290.723 487.842C291.907 478.502 297.572 471.281 304.744 469.86L309.911 468.829C309.911 468.829 301.799 468.829 298.424 466.521C291.252 461.636 289.618 447.193 289.618 447.193C289.618 447.193 287.661 461.636 280.45 466.521C277.064 468.829 268.963 468.829 268.963 468.829L274.129 469.86C281.281 471.281 286.956 478.502 288.14 487.842C288.708 492.325 289.226 496.027 289.432 496.103Z" fill="#00E577" fill-opacity="0.35"/>
<path opacity="0.7" d="M483.933 171.933C484.064 171.881 484.416 169.359 484.794 166.361C485.583 160.063 489.36 155.192 494.141 154.234L497.586 153.539C497.586 153.539 492.178 153.539 489.928 151.982C485.146 148.688 484.057 138.947 484.057 138.947C484.057 138.947 482.752 148.688 477.945 151.982C475.688 153.539 470.287 153.539 470.287 153.539L473.731 154.234C478.499 155.192 482.283 160.063 483.072 166.361C483.45 169.385 483.796 171.881 483.933 171.933Z" fill="#00E577" fill-opacity="0.35"/>
<defs>
<linearGradient id="paint0_linear_2265_3943" x1="303.655" y1="258.336" x2="303.655" y2="358.45" gradientUnits="userSpaceOnUse">
<stop stop-color="#00AEEF"/>
<stop offset="0.212" stop-color="#0097DC"/>
<stop offset="0.519" stop-color="#007CC5"/>
<stop offset="0.792" stop-color="#006CB8"/>
<stop offset="1" stop-color="#0066B3"/>
</linearGradient>
</defs>
</svg>
