<svg width="598" height="420" viewBox="0 0 598 420" fill="none" xmlns="http://www.w3.org/2000/svg">
<circle cx="292.122" cy="214.693" r="205.307" fill="#D9FBEB"/>
<g opacity="0.7">
<path d="M44.6543 342.853C46.5647 351.968 51.9568 359.979 59.6834 365.179C67.3915 370.302 76.2876 373.355 85.5167 374.046C94.4507 374.881 104.053 373.863 111.183 368.419C118.313 362.975 121.804 352.171 116.927 344.64C110.031 333.986 95.2188 333.084 82.561 334.002C69.9032 334.921 56.5941 338.611 44.6543 342.853Z" fill="#00BD62"/>
<path d="M158.257 276.708C165.518 282.54 170.216 290.976 171.349 300.22C172.426 309.416 171.109 318.735 167.525 327.272C164.185 335.622 158.958 343.704 150.826 347.595C142.694 351.486 131.522 349.699 127.03 341.934C120.668 330.963 126.596 317.337 133.125 306.466C139.654 295.595 149.056 285.425 158.257 276.708Z" fill="#00BD62"/>
<path d="M19.8281 285.76C19.8724 294.657 23.3827 303.187 29.6137 309.539C35.8495 315.8 43.5891 320.354 52.0906 322.764C60.2898 325.269 69.4742 326.104 77.139 322.414C84.8039 318.723 90.1809 309.238 87.1584 301.273C82.7332 289.984 69.0233 286.244 57.0168 284.724C45.0102 283.205 31.818 284.09 19.8281 285.76Z" fill="#00BD62"/>
<path d="M138.768 245.548C144.447 252.398 147.232 261.192 146.533 270.062C145.768 278.865 142.755 287.323 137.783 294.627C133.091 301.807 126.611 308.37 118.312 310.474C110.013 312.578 99.8429 308.804 97.1209 300.622C93.2635 289.133 101.413 277.51 109.612 268.593C117.811 259.676 128.565 251.944 138.768 245.548Z" fill="#00BD62"/>
<path d="M3.86386 228.448C3.19574 236.909 5.85589 245.297 11.2782 251.827C16.6963 258.272 23.6841 263.213 31.5675 266.171C39.1488 269.194 47.8156 270.747 55.4303 267.841C63.045 264.936 68.7895 256.369 66.5351 248.537C63.1953 237.482 50.5041 232.907 39.2323 230.452C27.9605 227.997 15.3862 227.814 3.86386 228.448Z" fill="#00BD62"/>
<path d="M120.001 199.76C124.851 206.715 126.793 215.29 125.411 223.656C124.006 231.948 120.493 239.74 115.208 246.283C110.198 252.729 103.519 258.457 95.4698 259.793C87.4208 261.129 78.0694 256.67 76.1323 248.755C73.377 237.55 82.0438 227.146 90.5269 219.348C99.4512 211.556 109.361 204.97 120.001 199.76Z" fill="#00BD62"/>
<path d="M0.653125 174.461C-0.99457 182.345 0.503536 190.56 4.82787 197.355C9.169 204.086 15.1663 209.589 22.2449 213.336C29.0247 217.093 37.0068 219.598 44.538 217.761C52.0693 215.924 58.5819 208.56 57.3295 200.895C55.5427 190.074 44.1039 184.196 33.7672 180.556C23.0435 177.084 11.9103 175.035 0.653125 174.461Z" fill="#00BD62"/>
<path d="M113.54 161.351C117.269 168.493 118.071 176.806 115.778 184.529C113.484 192.176 109.264 199.106 103.521 204.652C98.0102 210.129 91.03 214.671 83.2817 215.005C75.5334 215.339 67.2507 209.995 66.3656 202.264C65.1299 191.376 74.5481 182.626 83.4821 176.28C92.8091 170.017 102.914 164.998 113.54 161.351Z" fill="#00BD62"/>
<path d="M9.37135 114.862C6.70407 122.017 6.93171 129.931 10.0059 136.921C13.1067 143.85 17.9441 149.861 24.0498 154.372C29.8777 158.864 36.9915 162.354 44.3223 161.702C51.6532 161.051 58.7836 155.023 58.7001 147.725C58.5832 137.322 48.6807 130.208 39.513 125.299C29.9637 120.521 19.8306 117.012 9.37135 114.862Z" fill="#00BD62"/>
<path d="M117.09 118.77C119.574 125.993 119.143 133.901 115.888 140.812C112.603 147.656 107.611 153.54 101.393 157.895C95.4649 162.237 88.2677 165.543 80.9535 164.708C73.6394 163.873 66.6592 157.728 66.9264 150.381C67.3105 139.977 77.3966 133.114 86.6813 128.455C96.3501 123.91 106.574 120.654 117.09 118.77Z" fill="#00BD62"/>
<path d="M27.0046 60.3237C23.5944 66.6855 22.8035 74.1275 24.8003 81.0639C26.8221 87.9468 30.5834 94.1926 35.7215 99.1989C40.5976 104.209 46.8096 108.333 53.7564 108.651C60.7031 108.968 68.1509 104.309 69.0192 97.4122C70.2216 87.66 61.8721 79.7279 53.9901 74.0336C45.6384 68.2945 36.5646 63.6847 27.0046 60.3237Z" fill="#00BD62"/>
<path d="M127.396 77.7397C128.796 84.8244 127.376 92.1758 123.438 98.2294C119.496 104.223 114.071 109.095 107.691 112.373C101.579 115.713 94.3316 117.867 87.652 116.147C80.9724 114.427 75.1445 107.798 76.3468 100.918C78.0167 91.2492 88.3534 86.1059 97.638 82.9164C107.288 79.8956 117.293 78.1552 127.396 77.7397Z" fill="#00BD62"/>
<path d="M91.5427 34.1894C91.1319 33.5025 90.4693 33.003 89.6959 32.7972C88.9224 32.5914 88.0992 32.6955 87.4013 33.0873C80.2199 36.7813 74.3018 42.5309 70.4018 49.6026C67.6832 54.5038 66.8686 60.2358 68.114 65.7004C70.8026 76.8219 85.5644 80.3454 92.7951 71.4615C98.3726 64.5983 99.2075 55.0965 97.9718 46.4131C97.2871 41.704 93.9807 38.2306 91.5427 34.1894Z" fill="#00BD62"/>
<path d="M246.631 408.113C207.739 404.322 170.317 387.373 138.221 359.235C107.54 332.101 84.6447 297.28 71.893 258.356C52.2884 197.372 56.6468 126.535 84.1834 58.9038L87.2728 60.1729C60.1035 127.019 55.7117 197.038 75.1326 257.371C100.665 336.775 171.335 397.442 246.998 404.873L246.631 408.113Z" fill="#00BD62"/>
<path d="M552.468 342.853C550.561 351.97 545.168 359.981 537.439 365.179C529.723 370.3 520.822 373.353 511.589 374.046C502.671 374.881 493.053 373.863 485.922 368.419C478.792 362.975 475.302 352.171 480.178 344.64C487.075 333.986 501.887 333.084 514.561 334.002C527.236 334.921 540.528 338.611 552.468 342.853Z" fill="#00BD62"/>
<path d="M438.868 276.708C431.62 282.546 426.935 290.981 425.81 300.22C424.741 309.416 426.058 318.733 429.634 327.272C432.974 335.622 438.2 343.704 446.333 347.595C454.465 351.486 465.637 349.699 470.129 341.934C476.491 330.963 470.58 317.337 464.034 306.466C457.488 295.595 448.07 285.425 438.868 276.708Z" fill="#00BD62"/>
<path d="M577.303 285.76C577.259 294.657 573.749 303.187 567.518 309.539C561.284 315.803 553.544 320.357 545.041 322.764C536.842 325.269 527.657 326.104 519.993 322.414C512.328 318.723 506.951 309.238 510.073 301.273C514.482 289.984 528.192 286.244 540.132 284.724C552.071 283.205 565.314 284.09 577.303 285.76Z" fill="#00BD62"/>
<path d="M458.356 245.548C452.675 252.397 449.895 261.193 450.608 270.062C451.357 278.868 454.371 287.33 459.358 294.627C464.034 301.807 470.513 308.37 478.812 310.474C487.112 312.578 497.281 308.804 500.003 300.622C503.861 289.133 495.712 277.51 487.513 268.593C479.313 259.676 468.626 251.944 458.356 245.548Z" fill="#00BD62"/>
<path d="M593.269 228.448C593.937 236.909 591.276 245.297 585.854 251.827C580.436 258.272 573.448 263.213 565.565 266.171C557.984 269.194 549.333 270.747 541.702 267.841C534.071 264.936 528.343 256.369 530.614 248.537C533.954 237.482 546.628 232.907 557.9 230.452C569.172 227.997 581.746 227.814 593.269 228.448Z" fill="#00BD62"/>
<path d="M477.138 199.76C472.274 206.71 470.326 215.287 471.71 223.656C473.13 231.953 476.661 239.746 481.964 246.283C486.973 252.729 493.653 258.457 501.718 259.793C509.784 261.129 519.102 256.67 521.056 248.755C523.795 237.55 515.144 227.146 506.645 219.348C497.708 211.556 487.788 204.97 477.138 199.76Z" fill="#00BD62"/>
<path d="M596.469 174.461C598.116 182.345 596.618 190.56 592.294 197.355C587.953 204.086 581.955 209.589 574.877 213.336C568.097 217.093 560.132 219.598 552.584 217.761C545.036 215.924 538.54 208.56 539.792 200.895C541.579 190.074 553.018 184.196 563.371 180.556C574.089 177.083 585.217 175.034 596.469 174.461Z" fill="#00BD62"/>
<path d="M483.523 161.351C479.794 168.493 478.992 176.806 481.285 184.529C483.629 192.189 487.901 199.118 493.692 204.652C499.186 210.129 506.166 214.671 513.915 215.005C521.663 215.339 529.946 209.995 530.831 202.264C532.067 191.376 522.665 182.626 513.714 176.28C504.346 170.006 494.195 164.987 483.523 161.351Z" fill="#00BD62"/>
<path d="M587.789 114.862C590.451 122.019 590.217 129.933 587.137 136.921C584.036 143.85 579.199 149.861 573.093 154.372C567.266 158.864 560.152 162.354 552.838 161.702C545.523 161.051 538.36 155.023 538.443 147.725C538.56 137.322 548.462 130.208 557.63 125.299C567.185 120.519 577.324 117.01 587.789 114.862Z" fill="#00BD62"/>
<path d="M480.026 118.77C477.542 125.993 477.973 133.901 481.229 140.812C484.514 147.656 489.505 153.54 495.723 157.895C501.651 162.237 508.849 165.543 516.163 164.708C523.477 163.873 530.457 157.728 530.19 150.381C529.806 139.977 519.736 133.114 510.435 128.455C500.766 123.91 490.543 120.654 480.026 118.77Z" fill="#00BD62"/>
<path d="M570.124 60.3237C573.534 66.6855 574.325 74.1275 572.328 81.0639C570.315 87.9508 566.553 94.1988 561.407 99.1989C556.531 104.209 550.319 108.333 543.372 108.651C536.425 108.968 528.978 104.309 528.109 97.4122C526.907 87.66 535.256 79.7279 543.222 74.0336C551.547 68.2999 560.592 63.6901 570.124 60.3237Z" fill="#00BD62"/>
<path d="M469.727 77.7407C468.327 84.8254 469.747 92.1768 473.685 98.2304C477.627 104.224 483.052 109.096 489.432 112.374C495.544 115.714 502.708 117.868 509.471 116.148C516.234 114.428 521.978 107.799 520.776 100.919C519.106 91.2502 508.786 86.1069 499.485 82.9174C489.835 79.8966 479.83 78.1562 469.727 77.7407Z" fill="#00BD62"/>
<path d="M505.582 34.1892C505.996 33.5011 506.662 33.0012 507.438 32.7955C508.214 32.5898 509.04 32.6943 509.741 33.087C516.914 36.7862 522.825 42.5349 526.723 49.6023C529.442 54.5036 530.257 60.2356 529.011 65.7001C526.323 76.8217 511.561 80.3451 504.33 71.4613C498.753 64.598 497.918 55.0963 499.17 46.4128C499.838 41.7037 503.144 38.2303 505.582 34.1892Z" fill="#00BD62"/>
<path d="M350.5 408.113L350.183 404.773C425.812 397.359 496.533 336.691 522.049 257.371C541.419 197.121 537.078 127.119 509.858 60.2061L512.964 58.937C540.484 126.568 544.843 197.405 525.238 258.39C512.491 297.301 489.601 332.112 458.926 359.235C426.881 387.373 389.392 404.322 350.5 408.113Z" fill="#00BD62"/>
</g>
<path d="M109.537 77.0679H473.671C474.651 77.0679 475.621 77.2609 476.526 77.6359C477.432 78.0109 478.255 78.5606 478.947 79.2535C479.64 79.9465 480.19 80.7691 480.565 81.6745C480.94 82.5799 481.133 83.5502 481.133 84.5302V347.949H102.075V84.6001C102.065 83.6143 102.252 82.6364 102.622 81.7229C102.993 80.8095 103.541 79.9786 104.235 79.2782C104.929 78.5778 105.755 78.0219 106.665 77.6425C107.575 77.2631 108.551 77.0678 109.537 77.0679Z" fill="#263238"/>
<path d="M473.668 93.8623H109.534V326.593H473.668V93.8623Z" fill="#EDFFF7"/>
<path opacity="0.2" d="M288.283 89.7906C290.29 89.7906 291.918 88.1631 291.918 86.1556C291.918 84.148 290.29 82.5205 288.283 82.5205C286.275 82.5205 284.647 84.148 284.647 86.1556C284.647 88.1631 286.275 89.7906 288.283 89.7906Z" fill="white"/>
<path opacity="0.2" d="M295.817 88.8822C297.323 88.8822 298.543 87.6617 298.543 86.156C298.543 84.6503 297.323 83.4297 295.817 83.4297C294.311 83.4297 293.091 84.6503 293.091 86.156C293.091 87.6617 294.311 88.8822 295.817 88.8822Z" fill="white"/>
<path opacity="0.2" d="M293.088 331.364C292.61 331.197 292.108 331.108 291.602 331.102C290.658 331.102 289.736 331.382 288.951 331.906C288.167 332.43 287.555 333.176 287.194 334.047C286.833 334.919 286.739 335.878 286.923 336.804C287.107 337.729 287.561 338.579 288.228 339.247C288.896 339.914 289.746 340.368 290.671 340.552C291.597 340.736 292.556 340.642 293.428 340.281C294.3 339.92 295.045 339.308 295.569 338.524C296.093 337.739 296.373 336.817 296.373 335.873C296.383 335.786 296.383 335.698 296.373 335.611C295.461 335.317 294.66 334.754 294.073 333.996C293.487 333.238 293.143 332.321 293.088 331.364Z" fill="white"/>
<path d="M509.391 344.244V347.739C509.385 348.822 509.033 349.875 508.385 350.743C507.737 351.611 506.828 352.249 505.791 352.562L479.402 360.287C476.124 361.264 472.721 361.758 469.301 361.755H113.94C110.525 361.757 107.128 361.263 103.856 360.287L77.4496 352.493C76.4096 352.182 75.4968 351.546 74.8455 350.677C74.1943 349.809 73.839 348.754 73.832 347.669V344.174L509.391 344.244Z" fill="#263238"/>
<path opacity="0.2" d="M509.391 344.244V347.739C509.385 348.822 509.033 349.875 508.385 350.743C507.737 351.611 506.828 352.249 505.791 352.562L479.402 360.287C476.124 361.264 472.721 361.758 469.301 361.755H113.94C110.525 361.757 107.128 361.263 103.856 360.287L77.4496 352.493C76.4096 352.182 75.4968 351.546 74.8455 350.677C74.1943 349.809 73.839 348.754 73.832 347.669V344.174L509.391 344.244Z" fill="white"/>
<path opacity="0.2" d="M509.391 344.244V347.739C509.39 348.644 509.143 349.533 508.675 350.308H74.5486C74.0806 349.533 73.8329 348.644 73.832 347.739V344.244H509.391Z" fill="white"/>
<path opacity="0.2" d="M322.26 344.244V345.747C322.26 345.942 322.221 346.135 322.147 346.315C322.072 346.495 321.963 346.659 321.825 346.797C321.687 346.935 321.523 347.044 321.343 347.119C321.162 347.194 320.969 347.232 320.774 347.232H262.474C262.277 347.234 262.082 347.198 261.9 347.124C261.718 347.05 261.552 346.941 261.412 346.803C261.272 346.665 261.161 346.5 261.085 346.319C261.01 346.138 260.971 345.943 260.971 345.747V344.244H322.26Z" fill="black"/>
<path opacity="0.1" d="M473.668 93.8623C473.668 93.8623 423.319 293.772 109.534 326.593V93.8623H473.668Z" fill="white"/>
<path fill-rule="evenodd" clip-rule="evenodd" d="M196.469 260.448H298.748L398.842 160.336H196.469V260.448Z" fill="url(#paint0_linear_1822_6635)"/>
<path fill-rule="evenodd" clip-rule="evenodd" d="M316.565 180.358H296.579L296.645 227.366L279.241 180.343H261.984L247.128 219.615C245.548 209.622 235.217 206.174 227.088 203.591C221.719 201.867 216.022 199.33 216.08 196.527C216.124 194.227 219.128 192.093 225.096 192.412C229.101 192.627 232.638 192.95 239.675 196.349L246.594 184.291C240.178 181.026 231.306 178.963 224.031 178.957H223.986C215.503 178.957 208.44 181.704 204.062 186.231C201.009 189.39 199.363 193.408 199.296 197.851C199.185 203.965 201.425 208.298 206.133 211.762C210.111 214.677 215.199 216.568 219.681 217.956C225.21 219.669 229.726 221.159 229.67 224.332C229.626 225.489 229.19 226.57 228.358 227.442C226.979 228.866 224.865 229.4 221.94 229.458C216.295 229.578 212.113 228.69 205.448 224.75L199.292 236.964C205.951 240.75 213.018 242.65 221.05 242.65L222.856 242.637C229.846 242.51 235.519 240.835 240.026 237.208C240.285 237.002 240.516 236.792 240.756 236.581L240 240.479L256.863 240.425L259.889 232.679C263.07 233.765 266.687 234.365 270.527 234.365C274.269 234.365 277.789 233.796 280.91 232.772L283.019 240.425L313.275 240.454L313.349 222.795H319.787C335.349 222.795 344.548 214.875 344.548 201.593C344.543 186.801 335.6 180.358 316.565 180.358ZM270.527 220.541C268.202 220.541 266.022 220.136 264.147 219.424L270.456 199.502H270.578L276.785 219.48C274.917 220.147 272.788 220.541 270.525 220.541H270.527ZM317.736 209.095H313.344V193.039H317.738C323.589 193.039 328.261 194.988 328.261 200.963C328.256 207.148 323.589 209.095 317.738 209.095" fill="white"/>
<path opacity="0.7" d="M432.436 58.0093C432.643 57.9259 433.2 53.8385 433.8 48.9795C435.049 38.7714 441.029 30.8781 448.599 29.3245L454.053 28.1984C454.053 28.1984 445.491 28.1984 441.928 25.675C434.357 20.3364 432.632 4.5498 432.632 4.5498C432.632 4.5498 430.567 20.3364 422.955 25.675C419.382 28.1984 410.83 28.1984 410.83 28.1984L416.283 29.3245C423.833 30.8781 429.823 38.7714 431.073 48.9795C431.672 53.8802 432.219 57.9259 432.436 58.0093Z" fill="#00E577" fill-opacity="0.35"/>
<path opacity="0.7" d="M293.667 62.559C293.906 62.4614 294.552 57.6783 295.246 51.9922C296.693 40.0466 303.617 30.8097 312.382 28.9916L318.697 27.6739C318.697 27.6739 308.783 27.6738 304.657 24.721C295.891 18.4736 293.894 0 293.894 0C293.894 0 291.503 18.4736 282.689 24.721C278.551 27.6738 268.649 27.6739 268.649 27.6739L274.964 28.9916C283.705 30.8097 290.641 40.0466 292.088 51.9922C292.782 57.7271 293.416 62.4614 293.667 62.559Z" fill="#00E577" fill-opacity="0.35"/>
<path opacity="0.7" d="M491.579 336.681C491.873 336.562 492.665 330.735 493.517 323.809C495.293 309.257 503.79 298.005 514.548 295.79L522.298 294.184C522.298 294.184 510.131 294.184 505.067 290.587C494.309 282.977 491.858 260.473 491.858 260.473C491.858 260.473 488.923 282.977 478.106 290.587C473.028 294.184 460.876 294.184 460.876 294.184L468.625 295.79C479.354 298.005 487.866 309.257 489.642 323.809C490.493 330.795 491.271 336.562 491.579 336.681Z" fill="#00E577" fill-opacity="0.35"/>
<path opacity="0.7" d="M206.087 62.5589C206.207 62.511 206.529 60.1629 206.876 57.3716C207.6 51.5074 211.062 46.9729 215.445 46.0804L218.602 45.4335C218.602 45.4335 213.645 45.4335 211.582 43.9839C207.199 40.917 206.201 31.8481 206.201 31.8481C206.201 31.8481 205.005 40.917 200.598 43.9839C198.529 45.4335 193.578 45.4335 193.578 45.4335L196.735 46.0804C201.106 46.9729 204.574 51.5074 205.298 57.3716C205.644 60.1869 205.961 62.511 206.087 62.5589Z" fill="#00E577" fill-opacity="0.35"/>
<path opacity="0.7" d="M283.431 398.103C283.627 398.027 284.155 394.287 284.722 389.842C285.906 380.502 291.571 373.281 298.743 371.86L303.91 370.829C303.91 370.829 295.798 370.829 292.423 368.521C285.251 363.636 283.617 349.193 283.617 349.193C283.617 349.193 281.66 363.636 274.449 368.521C271.063 370.829 262.962 370.829 262.962 370.829L268.128 371.86C275.28 373.281 280.955 380.502 282.139 389.842C282.707 394.325 283.225 398.027 283.431 398.103Z" fill="#00E577" fill-opacity="0.35"/>
<path opacity="0.7" d="M477.933 73.9334C478.064 73.8819 478.416 71.3599 478.794 68.3618C479.583 62.0632 483.36 57.1929 488.141 56.2343L491.586 55.5394C491.586 55.5394 486.178 55.5394 483.928 53.9825C479.146 50.6884 478.057 40.9478 478.057 40.9478C478.057 40.9478 476.752 50.6884 471.945 53.9825C469.688 55.5394 464.287 55.5394 464.287 55.5394L467.731 56.2343C472.499 57.1929 476.283 62.0632 477.072 68.3618C477.45 71.3857 477.796 73.8819 477.933 73.9334Z" fill="#00E577" fill-opacity="0.35"/>
<defs>
<linearGradient id="paint0_linear_1822_6635" x1="297.655" y1="160.336" x2="297.655" y2="260.45" gradientUnits="userSpaceOnUse">
<stop stop-color="#00AEEF"/>
<stop offset="0.212" stop-color="#0097DC"/>
<stop offset="0.519" stop-color="#007CC5"/>
<stop offset="0.792" stop-color="#006CB8"/>
<stop offset="1" stop-color="#0066B3"/>
</linearGradient>
</defs>
</svg>
