<svg width="631" height="616" viewBox="0 0 631 616" fill="none" xmlns="http://www.w3.org/2000/svg">
<path opacity="0.8" d="M65.576 211.702C65.8779 211.581 66.6929 205.645 67.5684 198.588C69.3947 183.762 78.1339 172.298 89.1976 170.042L97.1671 168.406C97.1671 168.406 84.6544 168.406 79.4471 164.741C68.3834 156.987 65.8628 134.06 65.8628 134.06C65.8628 134.06 62.844 156.987 51.72 164.741C46.4976 168.406 34 168.406 34 168.406L41.9695 170.042C53.003 172.298 61.7573 183.762 63.5836 198.588C64.4591 205.705 65.259 211.581 65.576 211.702Z" fill="#00E577" fill-opacity="0.35"/>
<path opacity="0.8" d="M526.171 155.115C526.41 155.018 527.056 150.289 527.749 144.668C529.195 132.857 536.113 123.725 544.872 121.927L551.181 120.624C551.181 120.624 541.275 120.624 537.153 117.705C528.394 111.528 526.399 93.2637 526.399 93.2637C526.399 93.2637 524.009 111.528 515.202 117.705C511.068 120.624 501.174 120.624 501.174 120.624L507.483 121.927C516.218 123.725 523.148 132.857 524.594 144.668C525.287 150.338 525.921 155.018 526.171 155.115Z" fill="#00E577" fill-opacity="0.35"/>
<path opacity="0.8" d="M365.62 160.379C365.897 160.266 366.644 154.732 367.447 148.153C369.121 134.333 377.132 123.646 387.274 121.542L394.579 120.018C394.579 120.018 383.109 120.018 378.336 116.601C368.194 109.373 365.883 88 365.883 88C365.883 88 363.116 109.373 352.919 116.601C348.132 120.018 336.676 120.018 336.676 120.018L343.981 121.542C354.095 123.646 362.12 134.333 363.794 148.153C364.597 154.789 365.33 160.266 365.62 160.379Z" fill="#00E577" fill-opacity="0.35"/>
<path opacity="0.8" d="M594.599 477.53C594.939 477.393 595.856 470.651 596.841 462.637C598.895 445.801 608.727 432.783 621.173 430.22L630.139 428.363C630.139 428.363 616.062 428.363 610.204 424.201C597.758 415.396 594.922 389.359 594.922 389.359C594.922 389.359 591.526 415.396 579.011 424.201C573.136 428.363 559.076 428.363 559.076 428.363L568.042 430.22C580.454 432.783 590.303 445.801 592.358 462.637C593.343 470.72 594.243 477.393 594.599 477.53Z" fill="#00E577" fill-opacity="0.35"/>
<path opacity="0.8" d="M264.293 160.379C264.431 160.324 264.805 157.607 265.206 154.378C266.043 147.593 270.048 142.347 275.119 141.314L278.772 140.566C278.772 140.566 273.037 140.566 270.65 138.888C265.579 135.34 264.424 124.848 264.424 124.848C264.424 124.848 263.041 135.34 257.942 138.888C255.548 140.566 249.82 140.566 249.82 140.566L253.473 141.314C258.53 142.347 262.542 147.593 263.379 154.378C263.781 157.635 264.147 160.324 264.293 160.379Z" fill="#00E577" fill-opacity="0.35"/>
<path opacity="0.8" d="M51.1051 468.319C51.2435 468.263 51.6171 465.546 52.0183 462.317C52.8554 455.532 56.8609 450.286 61.9317 449.253L65.5844 448.505C65.5844 448.505 59.8494 448.505 57.4627 446.828C52.3919 443.28 51.2366 432.787 51.2366 432.787C51.2366 432.787 49.853 443.28 44.7545 446.828C42.3609 448.505 36.6328 448.505 36.6328 448.505L40.2855 449.253C45.3425 450.286 49.3549 455.532 50.192 462.317C50.5932 465.574 50.9599 468.263 51.1051 468.319Z" fill="#00E577" fill-opacity="0.35"/>
<path opacity="0.8" d="M106.371 395.94C106.698 395.811 107.581 389.472 108.53 381.936C110.508 366.105 119.976 353.864 131.961 351.455L140.595 349.708C140.595 349.708 127.04 349.708 121.398 345.795C109.413 337.516 106.682 313.033 106.682 313.033C106.682 313.033 103.412 337.516 91.3607 345.795C85.7031 349.708 72.1641 349.708 72.1641 349.708L80.7976 351.455C92.7506 353.864 102.234 366.105 104.213 381.936C105.161 389.536 106.028 395.811 106.371 395.94Z" fill="#00E577" fill-opacity="0.35"/>
<path opacity="0.8" d="M353.778 548.594C354.004 548.506 354.615 544.179 355.272 539.036C356.642 528.231 363.196 519.875 371.494 518.231L377.471 517.039C377.471 517.039 368.087 517.039 364.181 514.368C355.883 508.717 353.993 492.007 353.993 492.007C353.993 492.007 351.729 508.717 343.386 514.368C339.469 517.039 330.096 517.039 330.096 517.039L336.073 518.231C344.348 519.875 350.914 528.231 352.283 539.036C352.94 544.223 353.54 548.506 353.778 548.594Z" fill="#00E577" fill-opacity="0.35"/>
<path opacity="0.8" d="M578.811 173.538C578.962 173.479 579.37 170.561 579.808 167.092C580.721 159.805 585.09 154.17 590.622 153.061L594.607 152.257C594.607 152.257 588.351 152.257 585.747 150.456C580.215 146.645 578.955 135.375 578.955 135.375C578.955 135.375 577.445 146.645 571.883 150.456C569.272 152.257 563.023 152.257 563.023 152.257L567.008 153.061C572.525 154.17 576.902 159.805 577.815 167.092C578.253 170.591 578.653 173.479 578.811 173.538Z" fill="#00E577" fill-opacity="0.35"/>
<path d="M180.416 564.146H191.424L191.898 538.648H180.89L180.416 564.146Z" fill="#B55B52"/>
<path d="M114.338 564.146H125.346L130.25 538.648H119.242L114.338 564.146Z" fill="#B55B52"/>
<path d="M126.086 562.828H113.73C113.514 562.824 113.304 562.896 113.136 563.032C112.968 563.167 112.853 563.357 112.811 563.569L110.87 573.362C110.827 573.604 110.837 573.852 110.9 574.089C110.964 574.326 111.079 574.545 111.238 574.732C111.397 574.919 111.595 575.069 111.818 575.17C112.042 575.271 112.285 575.322 112.53 575.318C116.841 575.318 118.93 574.992 124.382 574.992C127.731 574.992 134.635 575.333 139.198 575.333C143.762 575.333 144.31 570.77 142.398 570.355C133.879 568.503 130.546 565.91 127.849 563.495C127.357 563.075 126.734 562.839 126.086 562.828Z" fill="#263238"/>
<path d="M191.323 562.828H179.307C179.091 562.824 178.881 562.896 178.713 563.032C178.545 563.167 178.43 563.357 178.389 563.569L176.448 573.362C176.402 573.601 176.409 573.848 176.47 574.084C176.531 574.32 176.643 574.539 176.799 574.726C176.955 574.913 177.151 575.064 177.372 575.166C177.593 575.268 177.834 575.32 178.077 575.318C182.418 575.318 188.671 574.992 194.123 574.992C200.494 574.992 201.16 575.333 208.642 575.333C213.161 575.333 214.302 570.77 212.391 570.355C203.738 568.473 201.546 568.266 193.99 563.688C193.198 563.159 192.274 562.862 191.323 562.828Z" fill="#263238"/>
<path d="M188.447 216.006L203.47 211.19C203.47 211.19 218.983 247.134 224.213 249.371C231.295 252.334 241.177 262.009 248.185 267.861C248.422 269.713 247.547 274.587 246.451 275.861C233.769 272.898 217.99 265.638 212.804 260.853C200.996 249.934 188.447 216.006 188.447 216.006Z" fill="#B55B52"/>
<path d="M184.949 207.738C180.727 217.368 197.676 247.948 197.676 247.948L220.137 237.577C217.371 228.256 213.642 219.249 209.01 210.701C201.943 198.36 189.586 197.16 184.949 207.738Z" fill="#00BD62"/>
<path opacity="0.2" d="M206.079 230.703C201.175 223.932 193.219 222.021 186.137 221.665C189.811 233.77 197.693 247.948 197.693 247.948L210.509 242.022C210.081 237.918 208.55 234.007 206.079 230.703Z" fill="black"/>
<path d="M246.671 266.794L259.753 268.883L256.375 282.706C251.792 280.747 247.535 278.099 243.752 274.854L246.671 266.794Z" fill="#B55B52"/>
<path d="M271.1 274.735L266.314 282.35L256.373 282.706L259.751 268.883L271.1 274.735Z" fill="#B55B52"/>
<path opacity="0.2" d="M191.899 538.663L191.647 551.805H180.639L180.891 538.663H191.899Z" fill="black"/>
<path opacity="0.2" d="M119.225 538.663H130.248L127.714 551.805H116.691L119.225 538.663Z" fill="black"/>
<path d="M199.338 201.486C199.338 201.486 211.517 236.006 202.301 301.211H143.438C142.816 292.173 147.409 243.503 137.66 200.923C144.157 199.662 150.73 198.831 157.336 198.434C165.67 197.952 174.025 197.952 182.359 198.434C188.089 199.016 193.765 200.037 199.338 201.486Z" fill="#00BD62"/>
<path opacity="0.2" d="M172.816 242.096H155.807L155.422 231.384H172.43L172.816 242.096Z" fill="black"/>
<path d="M173.216 241.666H156.207L155.422 231.384H172.43L173.216 241.666Z" fill="white"/>
<path d="M162.014 237.74H157.376L157.006 233.088H161.658L162.014 237.74Z" fill="#00BD62"/>
<path d="M171.467 235.34H163.111L163.037 234.422H171.393L171.467 235.34Z" fill="#E0E0E0"/>
<path d="M169.851 237.148H163.258L163.184 236.215H169.777L169.851 237.148Z" fill="#E0E0E0"/>
<path d="M162.18 239.8H157.528L157.469 238.866H162.106L162.18 239.8Z" fill="#E0E0E0"/>
<path d="M163.452 239.8H171.808L171.734 238.866H163.393L163.452 239.8Z" fill="#E0E0E0"/>
<path d="M164.089 233.295C163.845 233.292 163.61 233.198 163.432 233.031C163.254 232.863 163.145 232.635 163.126 232.392L162.963 230.362C162.955 230.247 162.97 230.132 163.008 230.024C163.046 229.915 163.106 229.816 163.183 229.731C163.261 229.647 163.355 229.579 163.46 229.532C163.565 229.485 163.678 229.46 163.793 229.458C164.037 229.461 164.272 229.555 164.45 229.723C164.628 229.89 164.737 230.118 164.756 230.362L164.919 232.392C164.931 232.507 164.919 232.624 164.883 232.734C164.847 232.845 164.788 232.946 164.709 233.032C164.63 233.117 164.534 233.185 164.428 233.231C164.321 233.276 164.205 233.298 164.089 233.295Z" fill="#263238"/>
<path opacity="0.2" d="M150.695 211.442C151.851 218.45 150.058 235.147 143.851 254.586C143.55 237.988 141.785 221.448 138.576 205.16V205.071C142.517 204.686 149.599 204.864 150.695 211.442Z" fill="black"/>
<path d="M159.999 175.024C161.777 183.084 162.799 193.055 157.303 198.433C157.303 198.433 160.74 206.597 175.704 206.597C189.364 206.597 182.327 198.433 182.327 198.433C173.289 196.285 173.437 185.188 174.919 178.936L159.999 175.024Z" fill="#B55B52"/>
<path d="M175.692 205.16L180.003 209.946L178.907 213.294C178.819 213.562 178.651 213.796 178.426 213.966C178.201 214.136 177.929 214.232 177.647 214.242L174.684 214.39C174.442 214.397 174.201 214.343 173.984 214.234C173.767 214.126 173.58 213.966 173.44 213.768L171.084 210.301L175.692 205.16Z" fill="#263238"/>
<path d="M175.692 205.16C173.818 208.129 172.159 211.228 170.728 214.434C170.728 214.434 152.772 208.078 153.424 198.404C155.37 197.462 157.246 196.382 159.039 195.174C159.039 195.174 159.824 201.322 175.692 205.16Z" fill="white"/>
<path d="M175.689 205.16C177.933 207.754 179.808 210.646 181.26 213.753C183.259 211.807 184.677 209.344 185.357 206.639C186.037 203.934 185.953 201.093 185.112 198.434C183.544 197.813 181.929 197.317 180.282 196.952C180.282 196.952 181.542 203.086 175.689 205.16Z" fill="white"/>
<path d="M177.304 212.613C177.748 212.435 185.111 249.993 186.193 259.194C188.341 271.446 182.578 284.973 182.563 284.944C179.572 276.434 177.792 267.547 177.274 258.542C176.429 242.896 176.059 221.636 174.637 212.613H177.304Z" fill="#263238"/>
<path opacity="0.2" d="M174.9 178.936C173.797 183.291 173.93 187.868 175.285 192.151C173.884 191.941 172.522 191.527 171.241 190.922C166.129 188.536 163.536 184.788 160.87 179.202C160.633 177.721 160.351 176.387 160.055 175.024L174.9 178.936Z" fill="black"/>
<path d="M178.074 150.623L182.149 163.705C183.086 162.683 183.738 161.433 184.041 160.079C184.343 158.726 184.286 157.317 183.873 155.993C183.461 154.669 182.708 153.476 181.691 152.534C180.673 151.591 179.426 150.933 178.074 150.623Z" fill="#263238"/>
<path d="M153.23 165.217C156.401 175.766 157.675 182.107 164.386 186.433C174.372 192.937 186.254 185.203 186.24 173.973C186.24 163.869 181.039 148.312 169.676 146.297C167.187 145.841 164.622 146.041 162.235 146.878C159.847 147.714 157.718 149.159 156.058 151.068C154.399 152.978 153.265 155.287 152.769 157.768C152.273 160.249 152.432 162.816 153.23 165.217Z" fill="#B55B52"/>
<path d="M157.511 173.173C160.474 171.247 161.704 161.32 158.992 157.854C168.489 157.424 173.186 154.209 173.438 152.475C176.771 153.957 185.098 154.52 184.046 150.312C183.563 148.624 182.61 147.108 181.299 145.94C179.987 144.773 178.371 144.003 176.638 143.719C173.364 140.252 165.156 137.348 159.363 142.045C149.229 142.045 143.865 150.194 146.695 153.409C145.5 154.109 144.508 155.11 143.819 156.312C143.13 157.514 142.768 158.876 142.768 160.261C142.768 161.647 143.13 163.008 143.819 164.21C144.508 165.412 145.5 166.413 146.695 167.113C143.999 171.203 155.718 180.314 157.511 173.173Z" fill="#263238"/>
<path d="M151.244 178.047C152.212 179.031 153.365 179.813 154.636 180.349C155.907 180.886 157.272 181.166 158.652 181.173C162.282 181.173 163.097 177.692 161.185 174.758C159.496 172.106 155.57 168.906 152.296 170.313C149.022 171.721 148.859 175.603 151.244 178.047Z" fill="#B55B52"/>
<path d="M163.615 301.211C163.615 301.211 164.786 315.049 166.282 333.806C167.971 355.066 170.06 382.698 171.319 403.692C171.319 403.81 171.319 403.899 171.319 403.988C171.556 407.974 171.764 411.722 171.927 415.144C173.601 449.443 177.038 549.257 177.038 549.257H195.677C195.677 549.257 205.07 447.398 205.455 412.492C205.84 378.92 202.299 301.211 202.299 301.211H163.615Z" fill="#263238"/>
<path d="M175.674 543.568C175.585 543.568 175.822 549.657 175.822 549.657H197.335L198.061 542.812L175.674 543.568Z" fill="#00E577" fill-opacity="0.35"/>
<path opacity="0.2" d="M166.221 333.806C167.91 355.066 169.999 382.698 171.258 403.692C171.258 403.81 171.258 403.899 171.258 403.988C175.821 384.046 177.658 359.244 177.021 318.412L166.221 333.806Z" fill="black"/>
<path d="M181.422 301.211C181.422 301.211 171.051 380.742 164.917 412.329C158.25 446.835 132.781 549.331 132.781 549.331H112.617C112.617 549.331 128.529 449.621 131.967 415.455C135.715 378.416 143.434 301.285 143.434 301.285L181.422 301.211Z" fill="#263238"/>
<path d="M112.484 543.998L111.625 549.628H133.775L135.582 543.168L112.484 543.998Z" fill="#00E577" fill-opacity="0.35"/>
<path d="M169.953 164.713C170.16 165.588 170.783 166.195 171.346 166.077C171.909 165.958 172.205 165.143 171.998 164.284C171.79 163.424 171.168 162.802 170.605 162.921C170.042 163.039 169.76 163.854 169.953 164.713Z" fill="#263238"/>
<path d="M179.69 162.609C179.897 163.469 180.52 164.091 181.083 163.958C181.646 163.824 181.927 163.039 181.735 162.165C181.542 161.291 180.905 160.683 180.342 160.802C179.779 160.92 179.557 161.735 179.69 162.609Z" fill="#263238"/>
<path d="M176.699 163.706C178.372 166.149 180.365 168.357 182.626 170.269C182.136 170.821 181.529 171.258 180.85 171.547C180.171 171.837 179.437 171.972 178.699 171.944L176.699 163.706Z" fill="#A02724"/>
<path d="M177.023 175.321C177.089 175.301 177.144 175.255 177.178 175.194C177.211 175.134 177.219 175.062 177.2 174.995C177.192 174.963 177.177 174.933 177.157 174.907C177.136 174.88 177.111 174.858 177.082 174.841C177.053 174.825 177.021 174.814 176.988 174.81C176.955 174.806 176.921 174.809 176.889 174.818C175.82 175.1 174.699 175.13 173.616 174.903C172.534 174.677 171.518 174.201 170.652 173.514C170.628 173.488 170.6 173.468 170.568 173.454C170.536 173.44 170.501 173.433 170.467 173.433C170.432 173.433 170.397 173.44 170.366 173.454C170.334 173.468 170.305 173.488 170.281 173.514C170.256 173.536 170.236 173.563 170.222 173.594C170.208 173.625 170.201 173.658 170.201 173.692C170.201 173.725 170.208 173.758 170.222 173.789C170.236 173.82 170.256 173.847 170.281 173.869C171.207 174.633 172.302 175.164 173.475 175.416C174.648 175.669 175.865 175.636 177.023 175.321Z" fill="#263238"/>
<path d="M166.222 162.179C166.299 162.162 166.371 162.128 166.433 162.079C166.494 162.031 166.544 161.968 166.578 161.898C166.82 161.297 167.204 160.763 167.696 160.343C168.189 159.922 168.776 159.627 169.408 159.483C169.543 159.461 169.665 159.386 169.745 159.275C169.826 159.164 169.859 159.026 169.837 158.89C169.815 158.754 169.741 158.631 169.631 158.548C169.52 158.465 169.382 158.428 169.245 158.446C168.445 158.603 167.696 158.956 167.065 159.473C166.435 159.99 165.942 160.655 165.63 161.409C165.574 161.537 165.571 161.681 165.621 161.811C165.671 161.941 165.77 162.047 165.896 162.105C165.994 162.166 166.108 162.192 166.222 162.179Z" fill="#263238"/>
<path d="M183.226 158.165C183.305 158.146 183.377 158.104 183.434 158.046C183.483 157.999 183.522 157.943 183.548 157.88C183.575 157.818 183.588 157.751 183.588 157.683C183.588 157.615 183.575 157.548 183.548 157.486C183.522 157.424 183.483 157.367 183.434 157.32C182.893 156.683 182.206 156.186 181.433 155.868C180.66 155.551 179.822 155.424 178.989 155.498C178.921 155.507 178.856 155.529 178.797 155.564C178.738 155.599 178.687 155.646 178.647 155.702C178.606 155.757 178.578 155.82 178.563 155.887C178.548 155.954 178.547 156.023 178.559 156.09C178.569 156.159 178.591 156.225 178.626 156.284C178.661 156.344 178.707 156.396 178.762 156.437C178.818 156.479 178.88 156.509 178.947 156.525C179.014 156.542 179.084 156.545 179.152 156.535C179.811 156.486 180.472 156.594 181.08 156.852C181.688 157.11 182.226 157.509 182.649 158.016C182.719 158.096 182.812 158.152 182.915 158.179C183.018 158.205 183.126 158.2 183.226 158.165Z" fill="#263238"/>
<path d="M131.018 213.428L145.834 219.561C145.834 219.561 134.9 251.119 134.1 256.142C140.1 258.364 146.693 267.298 154.694 273.135C154.487 274.943 151.02 279.388 149.627 280.351C137.686 274.558 119.373 266.542 118.514 259.609C116.41 244.052 131.018 213.428 131.018 213.428Z" fill="#B55B52"/>
<path d="M151.125 272.439H163.525L159.984 284.648C159.984 284.648 152.325 284.188 147.791 278.573L151.125 272.439Z" fill="#B55B52"/>
<path d="M170.948 274.884L167.185 285.774L159.984 284.737L163.525 272.528L170.948 274.884Z" fill="#B55B52"/>
<path d="M137.656 200.923C127.285 202.404 116.232 238.525 116.232 238.525L140.13 247.578C144.677 238.965 148.637 230.055 151.983 220.909C156.709 207.619 148.783 199.293 137.656 200.923Z" fill="#00BD62"/>
<path d="M129.775 564.784C130.519 564.846 131.261 564.653 131.879 564.236C132.078 564.068 132.229 563.851 132.318 563.607C132.406 563.363 132.429 563.099 132.383 562.843C132.382 562.691 132.338 562.543 132.257 562.415C132.176 562.286 132.06 562.183 131.924 562.117C130.709 561.495 127.197 563.673 126.797 563.925C126.752 563.951 126.717 563.991 126.696 564.039C126.674 564.087 126.668 564.14 126.679 564.191C126.695 564.24 126.722 564.284 126.758 564.32C126.794 564.356 126.838 564.383 126.886 564.399C127.833 564.631 128.801 564.76 129.775 564.784ZM131.361 562.517C131.473 562.492 131.589 562.492 131.701 562.517C131.753 562.551 131.795 562.597 131.824 562.651C131.853 562.706 131.866 562.767 131.864 562.828C131.895 563.001 131.881 563.179 131.824 563.344C131.767 563.51 131.668 563.659 131.538 563.777C130.306 564.333 128.908 564.402 127.627 563.969C128.763 563.243 130.032 562.75 131.361 562.517Z" fill="#00BD62"/>
<path d="M126.945 564.399C126.983 564.414 127.025 564.414 127.063 564.399C128.189 563.777 130.338 561.436 130.026 560.147C129.983 559.955 129.876 559.783 129.723 559.659C129.569 559.535 129.379 559.467 129.182 559.465C128.986 559.436 128.787 559.45 128.597 559.506C128.408 559.562 128.233 559.66 128.086 559.791C126.826 560.843 126.604 564.014 126.604 564.147C126.601 564.195 126.612 564.243 126.636 564.285C126.659 564.327 126.695 564.361 126.737 564.384C126.767 564.404 126.803 564.417 126.839 564.419C126.875 564.422 126.912 564.415 126.945 564.399ZM129.063 559.954H129.182C129.523 559.954 129.552 560.147 129.567 560.206C129.715 560.932 128.367 562.754 127.256 563.614C127.297 562.366 127.721 561.16 128.471 560.162C128.634 560.017 128.845 559.938 129.063 559.939V559.954Z" fill="#00BD62"/>
<path d="M195.944 564.784C196.882 564.871 197.823 564.636 198.61 564.117C198.78 563.955 198.909 563.755 198.986 563.533C199.063 563.312 199.087 563.075 199.055 562.843C199.047 562.698 199.001 562.558 198.924 562.437C198.846 562.315 198.738 562.215 198.61 562.146C197.262 561.406 192.891 563.628 192.403 563.91C192.353 563.932 192.313 563.971 192.289 564.019C192.264 564.068 192.258 564.123 192.269 564.176C192.277 564.23 192.301 564.28 192.338 564.32C192.375 564.359 192.424 564.387 192.477 564.398C193.618 564.63 194.779 564.759 195.944 564.784ZM197.884 562.517C198.052 562.509 198.219 562.54 198.373 562.606C198.423 562.634 198.464 562.675 198.492 562.725C198.521 562.774 198.536 562.83 198.536 562.887C198.562 563.04 198.55 563.197 198.501 563.345C198.452 563.492 198.367 563.625 198.255 563.732C197.588 564.324 195.781 564.428 193.336 564.028C194.755 563.269 196.293 562.758 197.884 562.517Z" fill="#00BD62"/>
<path d="M192.522 564.399H192.641C193.944 563.791 196.522 561.435 196.285 560.176C196.285 559.88 196.019 559.509 195.307 559.45C195.043 559.408 194.772 559.426 194.516 559.503C194.259 559.58 194.023 559.714 193.826 559.895C192.448 561.035 192.226 563.998 192.211 564.132C192.212 564.178 192.223 564.223 192.244 564.264C192.264 564.305 192.293 564.341 192.329 564.369C192.388 564.401 192.456 564.412 192.522 564.399ZM195.1 559.954H195.263C195.737 559.954 195.767 560.176 195.782 560.235C195.915 560.991 194.167 562.858 192.818 563.673C192.908 562.425 193.39 561.237 194.196 560.28C194.446 560.06 194.767 559.938 195.1 559.939V559.954Z" fill="#00BD62"/>
<path d="M507.761 213.91V399.493L476.855 430.399H354.654C353.392 430.395 352.182 429.89 351.29 428.996C350.399 428.102 349.898 426.891 349.898 425.628V213.91C349.898 212.648 350.399 211.437 351.29 210.542C352.182 209.648 353.392 209.144 354.654 209.14H502.96C503.589 209.136 504.213 209.256 504.795 209.494C505.377 209.732 505.907 210.083 506.353 210.527C506.799 210.97 507.153 211.497 507.395 212.078C507.636 212.659 507.761 213.281 507.761 213.91Z" fill="#00BD62"/>
<path opacity="0.6" d="M507.761 222.015V399.493L476.855 430.399H354.654C353.392 430.395 352.182 429.89 351.29 428.996C350.399 428.102 349.898 426.891 349.898 425.628V222.015H507.761Z" fill="white"/>
<path opacity="0.6" d="M503.613 215.037C503.616 215.494 503.483 215.943 503.23 216.325C502.978 216.707 502.618 217.005 502.196 217.183C501.774 217.36 501.309 217.408 500.86 217.32C500.41 217.233 499.997 217.014 499.672 216.691C499.348 216.368 499.126 215.957 499.036 215.508C498.945 215.059 498.99 214.594 499.165 214.171C499.339 213.747 499.635 213.385 500.016 213.131C500.396 212.876 500.844 212.74 501.301 212.74C501.604 212.738 501.904 212.796 502.185 212.911C502.465 213.025 502.72 213.194 502.935 213.408C503.15 213.621 503.32 213.875 503.436 214.154C503.553 214.434 503.613 214.734 503.613 215.037Z" fill="white"/>
<path opacity="0.6" d="M494.812 215.037C494.812 215.491 494.677 215.935 494.425 216.313C494.172 216.69 493.814 216.985 493.394 217.158C492.974 217.332 492.513 217.378 492.067 217.289C491.622 217.2 491.213 216.982 490.891 216.661C490.57 216.339 490.351 215.93 490.263 215.485C490.174 215.039 490.22 214.578 490.394 214.158C490.567 213.738 490.862 213.38 491.239 213.127C491.617 212.875 492.061 212.74 492.515 212.74C492.817 212.738 493.117 212.796 493.396 212.911C493.676 213.026 493.93 213.195 494.143 213.409C494.357 213.622 494.526 213.876 494.641 214.156C494.756 214.435 494.814 214.735 494.812 215.037Z" fill="white"/>
<path opacity="0.6" d="M486.027 215.037C486.03 215.495 485.896 215.944 485.643 216.326C485.391 216.709 485.03 217.007 484.607 217.184C484.184 217.361 483.718 217.408 483.268 217.319C482.819 217.23 482.405 217.01 482.081 216.686C481.757 216.362 481.537 215.949 481.448 215.499C481.359 215.049 481.406 214.583 481.583 214.16C481.76 213.737 482.058 213.376 482.441 213.124C482.823 212.871 483.272 212.737 483.73 212.74C484.339 212.74 484.923 212.982 485.354 213.413C485.785 213.844 486.027 214.428 486.027 215.037Z" fill="white"/>
<path d="M445.83 236.312H361.232C360.839 236.312 360.462 236.156 360.184 235.878C359.906 235.6 359.75 235.223 359.75 234.83C359.75 234.437 359.906 234.06 360.184 233.783C360.462 233.505 360.839 233.349 361.232 233.349H445.83C446.223 233.349 446.6 233.505 446.877 233.783C447.155 234.06 447.311 234.437 447.311 234.83C447.311 235.223 447.155 235.6 446.877 235.878C446.6 236.156 446.223 236.312 445.83 236.312Z" fill="#00BD62"/>
<path d="M421.92 244.416H361.175C360.782 244.416 360.405 244.26 360.127 243.982C359.849 243.704 359.693 243.328 359.693 242.935C359.693 242.542 359.849 242.165 360.127 241.887C360.405 241.609 360.782 241.453 361.175 241.453H421.92C422.313 241.453 422.689 241.609 422.967 241.887C423.245 242.165 423.401 242.542 423.401 242.935C423.401 243.328 423.245 243.704 422.967 243.982C422.689 244.26 422.313 244.416 421.92 244.416Z" fill="#00BD62"/>
<path d="M487.506 369.55H379.351C378.958 369.55 378.581 369.394 378.303 369.116C378.025 368.838 377.869 368.461 377.869 368.068C377.869 367.676 378.025 367.299 378.303 367.021C378.581 366.743 378.958 366.587 379.351 366.587H487.506C487.899 366.587 488.276 366.743 488.554 367.021C488.831 367.299 488.988 367.676 488.988 368.068C488.988 368.461 488.831 368.838 488.554 369.116C488.276 369.394 487.899 369.55 487.506 369.55Z" fill="#00BD62"/>
<path d="M469.422 401.922H361.267C360.874 401.922 360.497 401.766 360.219 401.488C359.941 401.21 359.785 400.834 359.785 400.441C359.785 400.048 359.941 399.671 360.219 399.393C360.497 399.115 360.874 398.959 361.267 398.959H469.422C469.815 398.959 470.192 399.115 470.47 399.393C470.747 399.671 470.904 400.048 470.904 400.441C470.904 400.834 470.747 401.21 470.47 401.488C470.192 401.766 469.815 401.922 469.422 401.922Z" fill="#00BD62"/>
<path d="M487.507 377.669H361.232C360.839 377.669 360.462 377.513 360.184 377.235C359.906 376.957 359.75 376.581 359.75 376.188C359.75 375.795 359.906 375.418 360.184 375.14C360.462 374.862 360.839 374.706 361.232 374.706H487.507C487.899 374.706 488.276 374.862 488.554 375.14C488.832 375.418 488.988 375.795 488.988 376.188C488.988 376.581 488.832 376.957 488.554 377.235C488.276 377.513 487.899 377.669 487.507 377.669Z" fill="#00BD62"/>
<path d="M487.507 385.743H361.232C360.839 385.743 360.462 385.587 360.184 385.309C359.906 385.032 359.75 384.655 359.75 384.262C359.75 383.869 359.906 383.492 360.184 383.214C360.462 382.936 360.839 382.78 361.232 382.78H487.507C487.899 382.78 488.276 382.936 488.554 383.214C488.832 383.492 488.988 383.869 488.988 384.262C488.988 384.655 488.832 385.032 488.554 385.309C488.276 385.587 487.899 385.743 487.507 385.743Z" fill="#00BD62"/>
<path d="M487.507 393.833H361.232C360.839 393.833 360.462 393.677 360.184 393.399C359.906 393.121 359.75 392.745 359.75 392.352C359.75 391.959 359.906 391.582 360.184 391.304C360.462 391.026 360.839 390.87 361.232 390.87H487.507C487.899 390.87 488.276 391.026 488.554 391.304C488.832 391.582 488.988 391.959 488.988 392.352C488.988 392.745 488.832 393.121 488.554 393.399C488.276 393.677 487.899 393.833 487.507 393.833Z" fill="#00BD62"/>
<path opacity="0.5" d="M507.734 399.493L476.828 430.399V399.493H507.734Z" fill="#00BD62"/>
<path opacity="0.4" d="M507.73 222.015H499.004V399.493H507.73V222.015Z" fill="black"/>
<path d="M503.315 314.746C502.462 314.746 501.644 314.408 501.041 313.805C500.438 313.202 500.1 312.384 500.1 311.531V293.397C500.119 292.557 500.466 291.758 501.067 291.171C501.668 290.584 502.475 290.256 503.315 290.256C503.737 290.256 504.155 290.339 504.545 290.501C504.935 290.662 505.289 290.899 505.588 291.198C505.887 291.496 506.123 291.85 506.285 292.241C506.447 292.631 506.53 293.049 506.53 293.471V311.605C506.51 312.445 506.163 313.244 505.562 313.831C504.961 314.418 504.155 314.747 503.315 314.746Z" fill="#00BD62"/>
<path d="M487.506 325.103H379.351C378.958 325.103 378.581 324.947 378.303 324.669C378.025 324.391 377.869 324.014 377.869 323.621C377.869 323.228 378.025 322.851 378.303 322.574C378.581 322.296 378.958 322.14 379.351 322.14H487.506C487.899 322.14 488.276 322.296 488.554 322.574C488.831 322.851 488.988 323.228 488.988 323.621C488.988 324.014 488.831 324.391 488.554 324.669C488.276 324.947 487.899 325.103 487.506 325.103Z" fill="#00BD62"/>
<path d="M469.422 357.476H361.267C360.874 357.476 360.497 357.32 360.219 357.042C359.941 356.764 359.785 356.387 359.785 355.994C359.785 355.601 359.941 355.225 360.219 354.947C360.497 354.669 360.874 354.513 361.267 354.513H469.422C469.815 354.513 470.192 354.669 470.47 354.947C470.747 355.225 470.904 355.601 470.904 355.994C470.904 356.387 470.747 356.764 470.47 357.042C470.192 357.32 469.815 357.476 469.422 357.476Z" fill="#00BD62"/>
<path d="M487.507 333.222H361.232C360.839 333.222 360.462 333.066 360.184 332.788C359.906 332.51 359.75 332.133 359.75 331.74C359.75 331.347 359.906 330.971 360.184 330.693C360.462 330.415 360.839 330.259 361.232 330.259H487.507C487.899 330.259 488.276 330.415 488.554 330.693C488.832 330.971 488.988 331.347 488.988 331.74C488.988 332.133 488.832 332.51 488.554 332.788C488.276 333.066 487.899 333.222 487.507 333.222Z" fill="#00BD62"/>
<path d="M487.507 341.297H361.232C360.839 341.297 360.462 341.141 360.184 340.863C359.906 340.585 359.75 340.209 359.75 339.816C359.75 339.423 359.906 339.046 360.184 338.768C360.462 338.49 360.839 338.334 361.232 338.334H487.507C487.899 338.334 488.276 338.49 488.554 338.768C488.832 339.046 488.988 339.423 488.988 339.816C488.988 340.209 488.832 340.585 488.554 340.863C488.276 341.141 487.899 341.297 487.507 341.297Z" fill="#00BD62"/>
<path d="M487.507 349.386H361.232C360.839 349.386 360.462 349.23 360.184 348.952C359.906 348.674 359.75 348.297 359.75 347.904C359.75 347.511 359.906 347.135 360.184 346.857C360.462 346.579 360.839 346.423 361.232 346.423H487.507C487.899 346.423 488.276 346.579 488.554 346.857C488.832 347.135 488.988 347.511 488.988 347.904C488.988 348.297 488.832 348.674 488.554 348.952C488.276 349.23 487.899 349.386 487.507 349.386Z" fill="#00BD62"/>
<path d="M487.495 254.062H360.85V301.324H487.495V254.062Z" fill="#00BD62"/>
<path opacity="0.2" d="M360.85 293.738H364.302V285.145H368.272V268.181H373.813V278.626H381.429V292.508H390.511V282.834H398.022L402.986 277.856V266.344H406.023V282.834H413.668V288.701H421.58V258.773L423.772 256.58V264.788H428.824V268.477L433.669 273.337V282.093H440.633V275.159H458.797V269.988H462.901V260.951H464.368V275.159H466.679L471.909 269.929H476.828V265.203H479.317V269.988H482.532V289.575H486.028V279.797L487.51 279.885V254.062H360.85V293.738Z" fill="black"/>
<path d="M487.505 308.805H453.429C453.036 308.805 452.659 308.649 452.381 308.371C452.103 308.093 451.947 307.716 451.947 307.323C451.947 306.93 452.103 306.554 452.381 306.276C452.659 305.998 453.036 305.842 453.429 305.842H487.505C487.898 305.842 488.275 305.998 488.553 306.276C488.831 306.554 488.987 306.93 488.987 307.323C488.987 307.716 488.831 308.093 488.553 308.371C488.275 308.649 487.898 308.805 487.505 308.805Z" fill="#00BD62"/>
<path opacity="0.2" d="M411.014 209.14V362.513L387.753 385.833H349.898V213.97C349.898 212.707 350.399 211.496 351.29 210.601C352.182 209.707 353.392 209.203 354.654 209.199L411.014 209.14Z" fill="black"/>
<path opacity="0.4" d="M503.315 314.746C502.462 314.746 501.644 314.408 501.041 313.805C500.438 313.202 500.1 312.384 500.1 311.531V293.397C500.119 292.557 500.466 291.758 501.067 291.171C501.668 290.584 502.475 290.256 503.315 290.256C503.737 290.256 504.155 290.339 504.545 290.501C504.935 290.662 505.289 290.899 505.588 291.198C505.887 291.496 506.123 291.85 506.285 292.241C506.447 292.631 506.53 293.049 506.53 293.471V311.605C506.51 312.445 506.163 313.244 505.562 313.831C504.961 314.418 504.155 314.747 503.315 314.746Z" fill="white"/>
<path d="M320.694 237.037V422.62L289.788 453.526H167.617C166.354 453.522 165.145 453.017 164.253 452.123C163.362 451.229 162.861 450.018 162.861 448.755V237.037C162.861 235.775 163.362 234.563 164.253 233.669C165.145 232.775 166.354 232.271 167.617 232.267H315.923C317.188 232.267 318.402 232.769 319.297 233.664C320.191 234.559 320.694 235.772 320.694 237.037Z" fill="#00BD62"/>
<path opacity="0.6" d="M320.694 245.156V422.635L289.788 453.54H167.617C166.354 453.536 165.145 453.032 164.253 452.138C163.362 451.244 162.861 450.032 162.861 448.77V245.156H320.694Z" fill="white"/>
<path opacity="0.6" d="M316.634 238.177C316.637 238.635 316.504 239.083 316.252 239.465C316 239.847 315.64 240.146 315.218 240.323C314.796 240.5 314.331 240.548 313.881 240.461C313.432 240.373 313.019 240.154 312.694 239.832C312.369 239.509 312.148 239.097 312.057 238.649C311.967 238.2 312.012 237.734 312.186 237.311C312.361 236.888 312.657 236.526 313.037 236.271C313.418 236.017 313.865 235.881 314.323 235.881C314.626 235.879 314.926 235.937 315.206 236.051C315.487 236.166 315.742 236.335 315.956 236.548C316.171 236.762 316.342 237.016 316.458 237.295C316.574 237.575 316.634 237.875 316.634 238.177Z" fill="white"/>
<path opacity="0.6" d="M307.744 238.177C307.747 238.636 307.613 239.085 307.36 239.467C307.107 239.849 306.747 240.148 306.324 240.325C305.901 240.501 305.435 240.548 304.985 240.46C304.535 240.371 304.122 240.151 303.798 239.826C303.474 239.502 303.253 239.089 303.165 238.639C303.076 238.19 303.123 237.724 303.3 237.301C303.477 236.878 303.775 236.517 304.158 236.264C304.54 236.011 304.989 235.878 305.447 235.881C305.749 235.879 306.049 235.937 306.328 236.052C306.608 236.166 306.862 236.335 307.075 236.549C307.289 236.763 307.458 237.017 307.573 237.296C307.687 237.576 307.746 237.875 307.744 238.177Z" fill="white"/>
<path opacity="0.6" d="M298.99 238.177C298.993 238.635 298.86 239.083 298.607 239.465C298.355 239.847 297.995 240.146 297.573 240.323C297.151 240.5 296.686 240.548 296.237 240.461C295.787 240.373 295.374 240.154 295.049 239.832C294.725 239.509 294.503 239.097 294.413 238.649C294.322 238.2 294.367 237.734 294.542 237.311C294.716 236.888 295.012 236.526 295.393 236.271C295.773 236.017 296.221 235.881 296.678 235.881C296.981 235.879 297.281 235.937 297.562 236.051C297.842 236.166 298.097 236.335 298.312 236.548C298.527 236.762 298.697 237.016 298.813 237.295C298.93 237.575 298.99 237.875 298.99 238.177Z" fill="white"/>
<path d="M200.478 260.254H174.194C173.802 260.254 173.425 260.098 173.147 259.82C172.869 259.542 172.713 259.166 172.713 258.773C172.713 258.38 172.869 258.003 173.147 257.725C173.425 257.447 173.802 257.291 174.194 257.291H200.478C200.871 257.291 201.247 257.447 201.525 257.725C201.803 258.003 201.959 258.38 201.959 258.773C201.959 259.166 201.803 259.542 201.525 259.82C201.247 260.098 200.871 260.254 200.478 260.254Z" fill="#00BD62"/>
<path d="M212.922 268.343H174.253C173.86 268.343 173.483 268.187 173.205 267.909C172.928 267.631 172.771 267.254 172.771 266.861C172.771 266.469 172.928 266.092 173.205 265.814C173.483 265.536 173.86 265.38 174.253 265.38H212.922C213.315 265.38 213.692 265.536 213.97 265.814C214.248 266.092 214.404 266.469 214.404 266.861C214.404 267.254 214.248 267.631 213.97 267.909C213.692 268.187 213.315 268.343 212.922 268.343Z" fill="#00BD62"/>
<path d="M200.908 276.433H174.239C173.846 276.433 173.47 276.277 173.192 275.999C172.914 275.721 172.758 275.344 172.758 274.951C172.758 274.558 172.914 274.182 173.192 273.904C173.47 273.626 173.846 273.47 174.239 273.47H200.908C201.301 273.47 201.678 273.626 201.955 273.904C202.233 274.182 202.389 274.558 202.389 274.951C202.389 275.344 202.233 275.721 201.955 275.999C201.678 276.277 201.301 276.433 200.908 276.433Z" fill="#00BD62"/>
<path d="M300.459 408.99H192.304C191.911 408.99 191.534 408.833 191.256 408.556C190.978 408.278 190.822 407.901 190.822 407.508C190.822 407.115 190.978 406.738 191.256 406.46C191.534 406.182 191.911 406.026 192.304 406.026H300.459C300.852 406.026 301.229 406.182 301.507 406.46C301.785 406.738 301.941 407.115 301.941 407.508C301.941 407.901 301.785 408.278 301.507 408.556C301.229 408.833 300.852 408.99 300.459 408.99Z" fill="#00BD62"/>
<path d="M241.191 417.079H174.194C173.802 417.079 173.425 416.923 173.147 416.645C172.869 416.368 172.713 415.991 172.713 415.598C172.713 415.205 172.869 414.828 173.147 414.55C173.425 414.272 173.802 414.116 174.194 414.116H241.191C241.584 414.116 241.961 414.272 242.239 414.55C242.517 414.828 242.673 415.205 242.673 415.598C242.673 415.991 242.517 416.368 242.239 416.645C241.961 416.923 241.584 417.079 241.191 417.079Z" fill="#00BD62"/>
<path opacity="0.5" d="M320.697 422.635L289.791 453.54V422.635H320.697Z" fill="#00BD62"/>
<path opacity="0.4" d="M320.693 245.156H311.967V422.635H320.693V245.156Z" fill="black"/>
<path d="M316.322 410.485C315.47 410.485 314.652 410.147 314.049 409.544C313.446 408.941 313.107 408.123 313.107 407.27V389.136C313.107 388.283 313.446 387.465 314.049 386.863C314.652 386.26 315.47 385.921 316.322 385.921C316.745 385.921 317.163 386.004 317.553 386.166C317.943 386.327 318.297 386.564 318.596 386.863C318.894 387.161 319.131 387.516 319.293 387.906C319.454 388.296 319.537 388.714 319.537 389.136V407.3C319.53 408.148 319.187 408.958 318.585 409.554C317.983 410.151 317.17 410.485 316.322 410.485Z" fill="#00BD62"/>
<path d="M300.458 260.254H280.116C279.723 260.254 279.347 260.098 279.069 259.82C278.791 259.542 278.635 259.166 278.635 258.773C278.635 258.38 278.791 258.003 279.069 257.725C279.347 257.447 279.723 257.291 280.116 257.291H300.458C300.851 257.291 301.228 257.447 301.506 257.725C301.784 258.003 301.94 258.38 301.94 258.773C301.94 259.166 301.784 259.542 301.506 259.82C301.228 260.098 300.851 260.254 300.458 260.254Z" fill="#00BD62"/>
<path d="M300.456 268.343H289.966C289.573 268.343 289.196 268.187 288.918 267.909C288.64 267.631 288.484 267.254 288.484 266.861C288.484 266.469 288.64 266.092 288.918 265.814C289.196 265.536 289.573 265.38 289.966 265.38H300.485C300.878 265.38 301.255 265.536 301.533 265.814C301.811 266.092 301.967 266.469 301.967 266.861C301.967 267.254 301.811 267.631 301.533 267.909C301.255 268.187 300.878 268.343 300.485 268.343H300.456Z" fill="#00BD62"/>
<path d="M300.459 297.871H192.304C191.911 297.871 191.534 297.715 191.256 297.437C190.978 297.16 190.822 296.783 190.822 296.39C190.822 295.997 190.978 295.62 191.256 295.342C191.534 295.064 191.911 294.908 192.304 294.908H300.459C300.852 294.908 301.229 295.064 301.507 295.342C301.785 295.62 301.941 295.997 301.941 296.39C301.941 296.783 301.785 297.16 301.507 297.437C301.229 297.715 300.852 297.871 300.459 297.871Z" fill="#00BD62"/>
<path d="M300.455 305.96H174.194C173.802 305.96 173.425 305.804 173.147 305.526C172.869 305.248 172.713 304.872 172.713 304.479C172.713 304.086 172.869 303.709 173.147 303.431C173.425 303.153 173.802 302.997 174.194 302.997H300.455C300.848 302.997 301.224 303.153 301.502 303.431C301.78 303.709 301.936 304.086 301.936 304.479C301.936 304.872 301.78 305.248 301.502 305.526C301.224 305.804 300.848 305.96 300.455 305.96Z" fill="#00BD62"/>
<path d="M226.376 314.05H174.194C173.802 314.05 173.425 313.894 173.147 313.616C172.869 313.338 172.713 312.961 172.713 312.568C172.713 312.176 172.869 311.799 173.147 311.521C173.425 311.243 173.802 311.087 174.194 311.087H226.376C226.769 311.087 227.145 311.243 227.423 311.521C227.701 311.799 227.857 312.176 227.857 312.568C227.857 312.961 227.701 313.338 227.423 313.616C227.145 313.894 226.769 314.05 226.376 314.05Z" fill="#00BD62"/>
<path opacity="0.7" d="M244.894 324.791H195.143V338.125H244.894V324.791Z" fill="#00BD62"/>
<path opacity="0.3" d="M217.677 341.089H195.143V390.322H217.677V341.089Z" fill="#00BD62"/>
<path opacity="0.3" d="M273.727 341.089H247.844V390.322H273.727V341.089Z" fill="#00BD62"/>
<path opacity="0.7" d="M300.455 324.791H247.844V338.125H300.455V324.791Z" fill="#00BD62"/>
<path opacity="0.3" d="M300.47 341.089H276.705V390.322H300.47V341.089Z" fill="#00BD62"/>
<path opacity="0.5" d="M192.182 341.089H174.195V390.322H192.182V341.089Z" fill="#00BD62"/>
<path d="M192.182 324.791H174.195V338.125H192.182V324.791Z" fill="#00BD62"/>
<path opacity="0.3" d="M244.879 341.089H220.641V390.322H244.879V341.089Z" fill="#00BD62"/>
<path opacity="0.4" d="M316.322 410.485C315.47 410.485 314.652 410.147 314.049 409.544C313.446 408.941 313.107 408.123 313.107 407.27V389.136C313.107 388.283 313.446 387.465 314.049 386.863C314.652 386.26 315.47 385.921 316.322 385.921C316.745 385.921 317.163 386.004 317.553 386.166C317.943 386.327 318.297 386.564 318.596 386.863C318.894 387.161 319.131 387.516 319.293 387.906C319.454 388.296 319.537 388.714 319.537 389.136V407.3C319.53 408.148 319.187 408.958 318.585 409.554C317.983 410.151 317.17 410.485 316.322 410.485Z" fill="white"/>
<path opacity="0.2" d="M320.694 237.037V391.418H231.311C230.048 391.414 228.838 390.91 227.947 390.015C227.055 389.121 226.555 387.91 226.555 386.647V232.267H315.924C317.189 232.267 318.402 232.769 319.297 233.664C320.192 234.559 320.694 235.772 320.694 237.037Z" fill="black"/>
<path d="M399.178 152.913V338.496L368.273 369.402H246.102C244.839 369.398 243.629 368.893 242.738 367.999C241.846 367.105 241.346 365.894 241.346 364.631V152.913C241.346 151.651 241.846 150.439 242.738 149.545C243.629 148.651 244.839 148.146 246.102 148.143H394.408C395.673 148.143 396.886 148.645 397.781 149.54C398.676 150.435 399.178 151.648 399.178 152.913Z" fill="#00BD62"/>
<path opacity="0.6" d="M399.178 161.018V338.496L368.273 369.402H246.102C244.839 369.398 243.629 368.893 242.738 367.999C241.846 367.105 241.346 365.894 241.346 364.631V161.018H399.178Z" fill="white"/>
<path opacity="0.6" d="M392.748 156.336C394.016 156.336 395.044 155.308 395.044 154.04C395.044 152.771 394.016 151.743 392.748 151.743C391.479 151.743 390.451 152.771 390.451 154.04C390.451 155.308 391.479 156.336 392.748 156.336Z" fill="white"/>
<path opacity="0.6" d="M383.947 156.336C385.215 156.336 386.243 155.308 386.243 154.04C386.243 152.771 385.215 151.743 383.947 151.743C382.679 151.743 381.65 152.771 381.65 154.04C381.65 155.308 382.679 156.336 383.947 156.336Z" fill="white"/>
<path opacity="0.6" d="M377.46 154.04C377.463 154.498 377.33 154.947 377.077 155.329C376.824 155.712 376.463 156.01 376.04 156.187C375.618 156.364 375.152 156.411 374.702 156.322C374.252 156.233 373.839 156.013 373.515 155.689C373.191 155.365 372.97 154.951 372.882 154.502C372.793 154.052 372.84 153.586 373.017 153.163C373.193 152.74 373.492 152.379 373.874 152.127C374.257 151.874 374.706 151.74 375.164 151.743C375.466 151.741 375.766 151.799 376.045 151.914C376.325 152.029 376.578 152.198 376.792 152.411C377.006 152.625 377.175 152.879 377.29 153.159C377.404 153.438 377.462 153.738 377.46 154.04Z" fill="white"/>
<path d="M330.894 176.174H300.714C300.321 176.174 299.944 176.018 299.666 175.74C299.389 175.462 299.232 175.085 299.232 174.693C299.232 174.3 299.389 173.923 299.666 173.645C299.944 173.367 300.321 173.211 300.714 173.211H330.894C331.287 173.211 331.664 173.367 331.941 173.645C332.219 173.923 332.375 174.3 332.375 174.693C332.375 175.085 332.219 175.462 331.941 175.74C331.664 176.018 331.287 176.174 330.894 176.174Z" fill="#00BD62"/>
<path d="M343.304 184.204H288.337C287.944 184.204 287.567 184.048 287.289 183.77C287.012 183.493 286.855 183.116 286.855 182.723C286.855 182.33 287.012 181.953 287.289 181.675C287.567 181.397 287.944 181.241 288.337 181.241H343.304C343.697 181.241 344.073 181.397 344.351 181.675C344.629 181.953 344.785 182.33 344.785 182.723C344.785 183.116 344.629 183.493 344.351 183.77C344.073 184.048 343.697 184.204 343.304 184.204Z" fill="#00BD62"/>
<path d="M331.34 192.309H300.345C299.952 192.309 299.575 192.153 299.297 191.875C299.019 191.597 298.863 191.22 298.863 190.827C298.863 190.434 299.019 190.057 299.297 189.78C299.575 189.502 299.952 189.346 300.345 189.346H331.458C331.851 189.346 332.228 189.502 332.506 189.78C332.783 190.057 332.94 190.434 332.94 190.827C332.94 191.22 332.783 191.597 332.506 191.875C332.228 192.153 331.851 192.309 331.458 192.309H331.34Z" fill="#00BD62"/>
<path d="M378.941 213.733H270.712C270.319 213.733 269.942 213.577 269.664 213.299C269.387 213.021 269.23 212.644 269.23 212.251C269.23 211.858 269.387 211.481 269.664 211.203C269.942 210.926 270.319 210.77 270.712 210.77H378.867C379.26 210.77 379.637 210.926 379.915 211.203C380.193 211.481 380.349 211.858 380.349 212.251C380.349 212.644 380.193 213.021 379.915 213.299C379.637 213.577 379.26 213.733 378.867 213.733H378.941Z" fill="#00BD62"/>
<path d="M360.852 246.105H252.696C252.303 246.105 251.927 245.949 251.649 245.671C251.371 245.393 251.215 245.016 251.215 244.623C251.215 244.23 251.371 243.853 251.649 243.576C251.927 243.298 252.303 243.142 252.696 243.142H360.852C361.245 243.142 361.621 243.298 361.899 243.576C362.177 243.853 362.333 244.23 362.333 244.623C362.333 245.016 362.177 245.393 361.899 245.671C361.621 245.949 361.245 246.105 360.852 246.105Z" fill="#00BD62"/>
<path d="M378.938 221.822H252.663C252.27 221.822 251.893 221.665 251.616 221.388C251.338 221.11 251.182 220.733 251.182 220.34C251.182 219.947 251.338 219.57 251.616 219.292C251.893 219.014 252.27 218.858 252.663 218.858H378.938C379.331 218.858 379.708 219.014 379.986 219.292C380.264 219.57 380.42 219.947 380.42 220.34C380.42 220.733 380.264 221.11 379.986 221.388C379.708 221.665 379.331 221.822 378.938 221.822Z" fill="#00BD62"/>
<path d="M378.938 229.926H252.663C252.27 229.926 251.893 229.77 251.616 229.492C251.338 229.214 251.182 228.837 251.182 228.444C251.182 228.052 251.338 227.675 251.616 227.397C251.893 227.119 252.27 226.963 252.663 226.963H378.938C379.331 226.963 379.708 227.119 379.986 227.397C380.264 227.675 380.42 228.052 380.42 228.444C380.42 228.837 380.264 229.214 379.986 229.492C379.708 229.77 379.331 229.926 378.938 229.926Z" fill="#00BD62"/>
<path d="M378.938 238.015H252.663C252.27 238.015 251.893 237.859 251.616 237.581C251.338 237.303 251.182 236.926 251.182 236.533C251.182 236.14 251.338 235.764 251.616 235.486C251.893 235.208 252.27 235.052 252.663 235.052H378.938C379.331 235.052 379.708 235.208 379.986 235.486C380.264 235.764 380.42 236.14 380.42 236.533C380.42 236.926 380.264 237.303 379.986 237.581C379.708 237.859 379.331 238.015 378.938 238.015Z" fill="#00BD62"/>
<path d="M378.941 295.219H270.712C270.319 295.219 269.942 295.063 269.664 294.785C269.387 294.507 269.23 294.13 269.23 293.737C269.23 293.344 269.387 292.968 269.664 292.69C269.942 292.412 270.319 292.256 270.712 292.256H378.867C379.26 292.256 379.637 292.412 379.915 292.69C380.193 292.968 380.349 293.344 380.349 293.737C380.349 294.13 380.193 294.507 379.915 294.785C379.637 295.063 379.26 295.219 378.867 295.219H378.941Z" fill="#00BD62"/>
<path d="M360.852 327.591H252.696C252.303 327.591 251.927 327.435 251.649 327.157C251.371 326.879 251.215 326.502 251.215 326.11C251.215 325.717 251.371 325.34 251.649 325.062C251.927 324.784 252.303 324.628 252.696 324.628H360.852C361.245 324.628 361.621 324.784 361.899 325.062C362.177 325.34 362.333 325.717 362.333 326.11C362.333 326.502 362.177 326.879 361.899 327.157C361.621 327.435 361.245 327.591 360.852 327.591Z" fill="#00BD62"/>
<path d="M378.938 303.308H252.663C252.27 303.308 251.893 303.152 251.616 302.874C251.338 302.596 251.182 302.219 251.182 301.826C251.182 301.433 251.338 301.057 251.616 300.779C251.893 300.501 252.27 300.345 252.663 300.345H378.938C379.331 300.345 379.708 300.501 379.986 300.779C380.264 301.057 380.42 301.433 380.42 301.826C380.42 302.219 380.264 302.596 379.986 302.874C379.708 303.152 379.331 303.308 378.938 303.308Z" fill="#00BD62"/>
<path d="M378.938 311.412H252.663C252.27 311.412 251.893 311.256 251.616 310.978C251.338 310.701 251.182 310.324 251.182 309.931C251.182 309.538 251.338 309.161 251.616 308.883C251.893 308.605 252.27 308.449 252.663 308.449H378.938C379.331 308.449 379.708 308.605 379.986 308.883C380.264 309.161 380.42 309.538 380.42 309.931C380.42 310.324 380.264 310.701 379.986 310.978C379.708 311.256 379.331 311.412 378.938 311.412Z" fill="#00BD62"/>
<path d="M378.938 319.502H252.663C252.27 319.502 251.893 319.346 251.616 319.068C251.338 318.79 251.182 318.414 251.182 318.021C251.182 317.628 251.338 317.251 251.616 316.973C251.893 316.695 252.27 316.539 252.663 316.539H378.938C379.331 316.539 379.708 316.695 379.986 316.973C380.264 317.251 380.42 317.628 380.42 318.021C380.42 318.414 380.264 318.79 379.986 319.068C379.708 319.346 379.331 319.502 378.938 319.502Z" fill="#00BD62"/>
<path d="M378.938 172.855H363.781V193.035H378.938V172.855Z" fill="#00BD62"/>
<path d="M261.08 189.657C265.72 189.657 269.481 185.896 269.481 181.256C269.481 176.617 265.72 172.855 261.08 172.855C256.441 172.855 252.68 176.617 252.68 181.256C252.68 185.896 256.441 189.657 261.08 189.657Z" fill="#00BD62"/>
<path d="M252.187 256.698C252.228 257.139 252.432 257.55 252.759 257.849C253.087 258.148 253.514 258.314 253.958 258.314C254.401 258.314 254.829 258.148 255.156 257.849C255.484 257.55 255.688 257.139 255.728 256.698C255.751 256.452 255.722 256.204 255.643 255.969C255.564 255.735 255.437 255.52 255.271 255.337C255.104 255.155 254.901 255.009 254.675 254.909C254.449 254.809 254.205 254.758 253.958 254.758C253.71 254.758 253.466 254.809 253.24 254.909C253.014 255.009 252.811 255.155 252.644 255.337C252.478 255.52 252.351 255.735 252.272 255.969C252.194 256.204 252.165 256.452 252.187 256.698Z" fill="#00BD62"/>
<path d="M252.191 264.788C252.189 265.14 252.291 265.486 252.485 265.781C252.679 266.075 252.957 266.306 253.282 266.442C253.608 266.578 253.966 266.615 254.313 266.547C254.659 266.479 254.977 266.309 255.226 266.059C255.476 265.81 255.646 265.492 255.714 265.146C255.782 264.799 255.745 264.441 255.609 264.115C255.473 263.79 255.242 263.512 254.948 263.318C254.653 263.124 254.307 263.022 253.955 263.024C253.487 263.024 253.039 263.21 252.708 263.541C252.377 263.872 252.191 264.32 252.191 264.788Z" fill="#00BD62"/>
<path d="M252.187 272.891C252.228 273.333 252.432 273.743 252.759 274.042C253.087 274.341 253.514 274.507 253.958 274.507C254.401 274.507 254.829 274.341 255.156 274.042C255.484 273.743 255.688 273.333 255.728 272.891C255.751 272.645 255.722 272.397 255.643 272.163C255.564 271.928 255.437 271.713 255.271 271.531C255.104 271.348 254.901 271.202 254.675 271.102C254.449 271.003 254.205 270.951 253.958 270.951C253.71 270.951 253.466 271.003 253.24 271.102C253.014 271.202 252.811 271.348 252.644 271.531C252.478 271.713 252.351 271.928 252.272 272.163C252.194 272.397 252.165 272.645 252.187 272.891Z" fill="#00BD62"/>
<path d="M252.187 280.981C252.228 281.423 252.432 281.833 252.759 282.132C253.087 282.431 253.514 282.597 253.958 282.597C254.401 282.597 254.829 282.431 255.156 282.132C255.484 281.833 255.688 281.423 255.728 280.981C255.751 280.735 255.722 280.487 255.643 280.253C255.564 280.018 255.437 279.803 255.271 279.62C255.104 279.438 254.901 279.292 254.675 279.192C254.449 279.093 254.205 279.041 253.958 279.041C253.71 279.041 253.466 279.093 253.24 279.192C253.014 279.292 252.811 279.438 252.644 279.62C252.478 279.803 252.351 280.018 252.272 280.253C252.194 280.487 252.165 280.735 252.187 280.981Z" fill="#00BD62"/>
<path d="M279.365 258.179H260.105C259.712 258.179 259.335 258.023 259.057 257.745C258.779 257.467 258.623 257.09 258.623 256.697C258.623 256.304 258.779 255.928 259.057 255.65C259.335 255.372 259.712 255.216 260.105 255.216H279.365C279.758 255.216 280.135 255.372 280.413 255.65C280.691 255.928 280.847 256.304 280.847 256.697C280.847 257.09 280.691 257.467 280.413 257.745C280.135 258.023 279.758 258.179 279.365 258.179Z" fill="#00BD62"/>
<path d="M297.456 266.269H260.075C259.682 266.269 259.306 266.113 259.028 265.835C258.75 265.557 258.594 265.18 258.594 264.787C258.594 264.394 258.75 264.017 259.028 263.74C259.306 263.462 259.682 263.306 260.075 263.306H297.456C297.848 263.306 298.225 263.462 298.503 263.74C298.781 264.017 298.937 264.394 298.937 264.787C298.937 265.18 298.781 265.557 298.503 265.835C298.225 266.113 297.848 266.269 297.456 266.269Z" fill="#00BD62"/>
<path d="M275.232 274.373H260.075C259.682 274.373 259.306 274.217 259.028 273.939C258.75 273.662 258.594 273.285 258.594 272.892C258.594 272.499 258.75 272.122 259.028 271.844C259.306 271.566 259.682 271.41 260.075 271.41H275.232C275.625 271.41 276.002 271.566 276.28 271.844C276.557 272.122 276.713 272.499 276.713 272.892C276.713 273.285 276.557 273.662 276.28 273.939C276.002 274.217 275.625 274.373 275.232 274.373Z" fill="#00BD62"/>
<path d="M291.529 282.463H260.075C259.682 282.463 259.306 282.307 259.028 282.029C258.75 281.751 258.594 281.375 258.594 280.982C258.594 280.589 258.75 280.212 259.028 279.934C259.306 279.656 259.682 279.5 260.075 279.5H291.529C291.922 279.5 292.299 279.656 292.577 279.934C292.855 280.212 293.011 280.589 293.011 280.982C293.011 281.375 292.855 281.751 292.577 282.029C292.299 282.307 291.922 282.463 291.529 282.463Z" fill="#00BD62"/>
<path opacity="0.5" d="M399.181 338.496L368.275 369.402V338.496H399.181Z" fill="#00BD62"/>
<path opacity="0.2" d="M378.938 172.855L363.781 193.035H378.938V172.855Z" fill="black"/>
<path opacity="0.2" d="M265.985 176.352H256.162V186.174H265.985V176.352Z" fill="black"/>
<path opacity="0.4" d="M399.164 161.018H390.438V338.496H399.164V161.018Z" fill="black"/>
<path d="M394.807 194.487C393.954 194.487 393.136 194.148 392.533 193.545C391.931 192.942 391.592 192.124 391.592 191.272V173.211C391.592 172.358 391.931 171.541 392.533 170.938C393.136 170.335 393.954 169.996 394.807 169.996C395.66 169.996 396.477 170.335 397.08 170.938C397.683 171.541 398.022 172.358 398.022 173.211V191.346C398.002 192.185 397.655 192.984 397.054 193.571C396.454 194.158 395.647 194.487 394.807 194.487Z" fill="#00BD62"/>
<path opacity="0.4" d="M394.807 194.487C393.954 194.487 393.136 194.148 392.533 193.545C391.931 192.942 391.592 192.124 391.592 191.272V173.211C391.592 172.358 391.931 171.541 392.533 170.938C393.136 170.335 393.954 169.996 394.807 169.996C395.66 169.996 396.477 170.335 397.08 170.938C397.683 171.541 398.022 172.358 398.022 173.211V191.346C398.002 192.185 397.655 192.984 397.054 193.571C396.454 194.158 395.647 194.487 394.807 194.487Z" fill="white"/>
<path d="M497.16 195.5C495.678 202.76 494.315 216.079 499.397 220.924C495.282 227.597 489.148 232.787 481.885 235.74C472.166 229.65 476.818 220.924 476.818 220.924C484.922 218.983 484.715 212.983 483.292 207.338L497.16 195.5Z" fill="#FF8B7B"/>
<path d="M502.009 225.221C507.298 221.576 507.683 214.657 507.683 214.657C507.683 214.657 488.423 209.724 477.933 212.687C474.718 215.146 469.592 219.724 469.592 219.724C469.592 219.724 470.896 222.687 476.822 224.554C482.748 226.421 502.009 225.221 502.009 225.221Z" fill="#263238"/>
<path d="M524.394 230.836C528.009 236.051 531.254 241.207 534.335 246.674C537.485 252.099 540.334 257.693 542.869 263.431C543.491 264.912 544.128 266.394 544.691 267.875L545.121 269.001L545.343 269.564L545.447 269.846L545.625 270.364C546.065 271.726 546.251 273.158 546.173 274.587C546.009 276.803 545.405 278.964 544.395 280.943C543.589 282.578 542.626 284.131 541.521 285.58C537.494 290.72 532.66 295.173 527.209 298.766L523.179 294.055C526.949 289.751 530.307 285.103 533.209 280.173C533.788 279.091 534.284 277.967 534.691 276.809C534.996 276.032 535.128 275.198 535.076 274.365C535.076 274.142 534.987 274.054 534.943 274.083L534.839 273.846L534.602 273.357L534.157 272.365C533.565 271.061 532.883 269.772 532.246 268.468C530.932 265.86 529.535 263.273 528.053 260.705C526.572 258.127 525.09 255.563 523.609 253.03C520.512 247.978 517.282 242.852 514.082 237.992L524.394 230.836Z" fill="#FF8B7B"/>
<path d="M525.311 292.781L512.125 291.788L519.414 301.878C519.414 301.878 527.222 300.915 529.059 296.174L525.311 292.781Z" fill="#FF8B7B"/>
<path d="M503.562 297.507L510.141 305.626L521.371 301.492L512.126 291.788L503.562 297.507Z" fill="#FF8B7B"/>
<path d="M519.55 223.547L511.164 234.985L511.772 249.104L526.009 262.023C526.009 262.023 533.314 256.823 539.67 251.564C531.699 233.296 524.498 225.028 519.55 223.547Z" fill="#00BD62"/>
<path opacity="0.2" d="M516.513 234.392L512.068 249.296L516.854 253.637C516.158 243.207 516.513 234.392 516.513 234.392Z" fill="black"/>
<path d="M454.684 232.258C454.492 241.147 455.736 259.593 461.974 297.966H511.696C510.866 277.728 509.873 265.045 519.548 223.502C512.904 222.149 506.169 221.287 499.398 220.924C491.882 220.39 484.336 220.39 476.819 220.924C471.96 221.368 466.759 222.154 462.803 222.835C460.566 223.217 458.531 224.367 457.049 226.086C455.568 227.806 454.731 229.988 454.684 232.258Z" fill="#00BD62"/>
<path opacity="0.2" d="M464.407 235.71L455.518 250.126C455.977 255.252 456.658 261.401 457.621 268.749L464.866 264.453C467.859 242.644 464.407 235.71 464.407 235.71Z" fill="black"/>
<path d="M465.857 239.563C463.857 246.452 461.724 253.297 459.516 260.113C457.308 266.928 455.071 273.758 452.775 280.544L452.33 281.818L451.619 283.477C451.141 284.496 450.602 285.486 450.004 286.44C448.841 288.273 447.479 289.972 445.945 291.507C443.048 294.377 439.725 296.781 436.092 298.634C429.236 302.071 421.801 304.206 414.165 304.93L413.143 298.811C416.371 297.823 419.533 296.63 422.61 295.241C425.636 293.911 428.532 292.304 431.262 290.441C433.843 288.757 436.164 286.705 438.152 284.351C439.066 283.281 439.851 282.108 440.493 280.855C440.812 280.273 441.089 279.669 441.322 279.047L441.619 278.218L441.974 276.943C443.811 270.054 445.708 263.209 447.723 256.379C449.738 249.549 451.693 242.734 453.871 235.963L465.857 239.563Z" fill="#FF8B7B"/>
<path d="M467.369 232.807C465.28 227.799 458.702 224.555 458.702 224.555C451.635 229.162 448.716 233.978 444.02 257.386C451.546 260.764 462.747 260.735 462.747 260.735L468.851 244.986C468.851 244.986 469.473 237.815 467.369 232.807Z" fill="#00BD62"/>
<path d="M415.688 298.158L403.332 297.966L411.199 307.611C411.199 307.611 418.933 306.129 420.489 301.344L415.688 298.158Z" fill="#FF8B7B"/>
<path d="M395.127 304.174L402.15 311.893L411.202 307.611L403.335 297.966L395.127 304.174Z" fill="#FF8B7B"/>
<path d="M471.294 180.358C471.131 181.321 470.465 182.018 469.813 181.914C469.161 181.81 468.805 180.921 468.983 179.943C469.161 178.966 469.813 178.269 470.465 178.462C471.117 178.654 471.428 179.38 471.294 180.358Z" fill="#263238"/>
<path d="M470.736 178.492L468.514 177.41C468.514 177.41 469.388 179.44 470.736 178.492Z" fill="#263238"/>
<path d="M470.881 174.27C470.776 174.226 470.686 174.152 470.622 174.057C470.559 173.962 470.525 173.851 470.525 173.737C470.525 173.623 470.559 173.511 470.622 173.416C470.686 173.321 470.776 173.247 470.881 173.203C471.701 172.781 472.61 172.561 473.533 172.561C474.456 172.561 475.365 172.781 476.185 173.203C476.314 173.286 476.407 173.415 476.443 173.564C476.479 173.714 476.455 173.871 476.378 174.003C476.341 174.07 476.291 174.128 476.231 174.174C476.171 174.221 476.103 174.255 476.029 174.274C475.956 174.294 475.879 174.298 475.804 174.287C475.729 174.276 475.657 174.25 475.592 174.211C474.944 173.877 474.225 173.702 473.496 173.702C472.767 173.702 472.048 173.877 471.4 174.211C471.325 174.263 471.238 174.296 471.148 174.306C471.057 174.316 470.966 174.304 470.881 174.27Z" fill="#263238"/>
<path d="M471.223 183.544C469.967 185.612 468.431 187.496 466.66 189.144C467.093 189.586 467.616 189.927 468.195 190.145C468.773 190.362 469.392 190.451 470.009 190.404L471.223 183.544Z" fill="#FF5652"/>
<path d="M504.826 182.166C501.982 194.019 501.033 199.041 493.907 204.108C483.195 211.724 469.313 205.59 468.572 193.204C467.92 182.018 472.676 164.58 485.21 161.898C487.971 161.294 490.84 161.405 493.546 162.222C496.251 163.038 498.703 164.533 500.669 166.564C502.634 168.594 504.048 171.094 504.775 173.824C505.503 176.555 505.521 179.427 504.826 182.166Z" fill="#FF8B7B"/>
<path d="M516.124 187.755C517.275 177.749 510.096 168.704 500.089 167.553C490.082 166.402 481.037 173.581 479.886 183.588C478.736 193.595 485.915 202.64 495.922 203.791C505.928 204.941 514.973 197.762 516.124 187.755Z" fill="#263238"/>
<path d="M485.579 182.685C498.913 173.914 519.359 169.143 514.914 155.513C511.329 144.534 494.928 144.016 482.32 149.157C465.03 156.15 472.26 191.441 485.579 182.685Z" fill="#263238"/>
<path d="M502.543 163.217C502.427 163.218 502.312 163.19 502.208 163.135C502.105 163.081 502.017 163.002 501.951 162.906L487.905 143.364C487.821 143.202 487.797 143.016 487.838 142.838C487.88 142.661 487.985 142.505 488.133 142.398C488.281 142.292 488.462 142.242 488.644 142.259C488.825 142.276 488.994 142.358 489.12 142.49L503.151 162.046C503.263 162.204 503.308 162.4 503.278 162.591C503.247 162.782 503.143 162.953 502.988 163.069C502.861 163.168 502.704 163.22 502.543 163.217Z" fill="#00BD62"/>
<path d="M511.118 168.151C510.965 168.15 510.815 168.104 510.689 168.018C510.609 167.961 510.54 167.89 510.488 167.807C510.436 167.725 510.4 167.632 510.384 167.536C510.367 167.44 510.37 167.341 510.392 167.246C510.414 167.15 510.454 167.06 510.511 166.98L524.541 147.438C524.655 147.277 524.829 147.168 525.023 147.135C525.218 147.101 525.417 147.147 525.579 147.261C525.74 147.375 525.849 147.548 525.882 147.742C525.916 147.937 525.87 148.137 525.756 148.298L511.711 167.855C511.643 167.947 511.554 168.023 511.45 168.074C511.347 168.126 511.234 168.152 511.118 168.151Z" fill="#00BD62"/>
<path d="M518.324 188.739C528.248 182.572 532.263 171.087 527.292 163.088C522.32 155.089 510.245 153.604 500.321 159.772C490.397 165.94 486.382 177.424 491.353 185.423C496.324 193.422 508.399 194.907 518.324 188.739Z" fill="#263238"/>
<path d="M461.979 297.966C461.979 297.966 466.171 390.164 466.986 427.5C467.816 466.347 468.186 557.05 468.186 557.05H477.994C477.994 557.05 493.625 481.667 489.002 427.5C495.996 385.912 500.722 297.966 500.722 297.966H461.979Z" fill="#FF8B7B"/>
<path d="M474.969 297.966C474.969 297.966 498.318 394.52 507.875 430.626C517.905 468.54 531.447 554.235 531.58 557.05H540.054C540.054 557.05 542.721 458.05 529.313 424.389C529.313 382.208 511.756 297.966 511.756 297.966H474.969Z" fill="#FF8B7B"/>
<path d="M534.409 554.68C541.639 553.48 541.625 557.006 542.232 560.799C542.669 563.076 542.33 565.434 541.269 567.496C538.854 571.733 541.269 578 533.105 578C524.942 578 524.142 576.222 526.216 572.429C528.146 568.601 529.456 564.49 530.098 560.251C530.513 558.058 531.194 555.213 534.409 554.68Z" fill="#263238"/>
<path d="M541.792 561.82C541.969 566.71 542.443 577.999 542.443 577.999H541.155C541.155 577.999 539.673 565.969 538.799 562.724L541.792 561.82Z" fill="#263238"/>
<path d="M484.079 186.359C483.17 188.52 481.445 190.235 479.278 191.13C476.315 192.3 474.597 189.796 475.115 186.893C475.574 184.27 477.649 180.522 480.686 180.596C481.348 180.628 481.992 180.825 482.56 181.168C483.128 181.511 483.601 181.99 483.938 182.562C484.274 183.134 484.463 183.78 484.488 184.443C484.512 185.106 484.372 185.764 484.079 186.359Z" fill="#FF8B7B"/>
<g opacity="0.2">
<path opacity="0.2" d="M466.879 422.922C466.879 424.522 466.953 426.048 466.983 427.5C467.116 433.427 467.234 440.731 467.338 448.672L489.799 443.338C489.695 437.931 489.429 432.612 488.999 427.5C489.443 424.819 489.888 421.944 490.332 418.907L466.879 422.922Z" fill="black"/>
<path opacity="0.2" d="M529.211 424.389C529.211 420.67 529.062 416.626 528.811 412.329L504.172 416.537C505.535 421.841 506.765 426.611 507.831 430.627C508.483 433.086 509.145 435.733 509.817 438.568L532.04 433.293C531.28 430.27 530.335 427.297 529.211 424.389Z" fill="black"/>
</g>
<path d="M461.979 297.966L463.46 444.79L533.094 429.974C534.191 346.191 527.657 317.212 511.73 297.966H461.979Z" fill="#263238"/>
<path opacity="0.2" d="M508.866 334.205C508.866 334.205 495.324 345.465 478.73 349.199C496.02 347.88 504.791 343.02 508.866 334.205Z" fill="black"/>
<path d="M460.094 288.736C460.239 291.896 460.551 295.046 461.027 298.173C461.116 299.062 461.368 305.848 461.649 307.389C461.931 308.93 518.794 308.026 517.668 305.67C516.542 303.315 512.882 298.499 512.882 297.462C512.882 296.425 512.497 288.765 512.023 288.128C511.549 287.491 460.375 286.336 460.094 288.736Z" fill="#00BD62"/>
<path opacity="0.2" d="M460.094 288.736C460.239 291.896 460.551 295.046 461.027 298.173C461.116 299.062 461.368 305.848 461.649 307.389C461.931 308.93 518.794 308.026 517.668 305.67C516.542 303.315 512.882 298.499 512.882 297.462C512.882 296.425 512.497 288.765 512.023 288.128C511.549 287.491 460.375 286.336 460.094 288.736Z" fill="white"/>
<path d="M468.141 553.479C465.593 560.813 458.215 573.881 458.215 573.881L472.216 570.014L479.09 559.213L477.609 556.369L468.141 553.479Z" fill="#FF8B7B"/>
<path d="M479.696 555.553C480.293 556.805 480.578 558.183 480.526 559.568C480.437 564.591 479.874 577.94 479.874 577.94H478.704C478.71 573.833 478.502 569.728 478.081 565.643C477.489 562.324 476.052 568.176 473.829 571.465C471.607 574.754 467.251 577.762 459.577 577.94C450.598 578.162 446.968 577.762 449.576 575.584C452.183 573.406 458.095 572.014 458.095 572.014C460.532 571.949 462.909 571.246 464.989 569.974C467.069 568.703 468.779 566.908 469.948 564.769C472.614 559.953 475.874 555.168 478.081 554.042C478.45 554.15 478.788 554.343 479.068 554.606C479.349 554.868 479.564 555.193 479.696 555.553Z" fill="#263238"/>
<g opacity="0.3">
<path d="M74.8102 475.688C74.8102 475.688 74.8102 475.688 74.8102 475.687C74.8014 475.694 74.793 475.701 74.7849 475.709C74.793 475.701 74.8015 475.694 74.8102 475.688ZM87.4198 371.357C54.9549 396.822 49.2597 443.77 74.6863 476.255C74.6986 476.278 74.7132 476.3 74.73 476.322C136.389 554.931 235.716 593.744 334.021 578.146C337.685 577.565 341.183 579.965 341.857 583.597L345.506 603.278C346.181 606.916 343.774 610.411 340.134 611C229.588 628.869 117.788 585.339 48.4485 496.935C11.5802 449.925 19.8001 381.937 66.8023 345.068C113.812 308.199 181.8 316.419 218.669 363.422C228.918 376.496 242.491 386.508 257.906 392.453C261.389 393.796 263.408 397.523 262.353 401.058C261.218 404.861 260.082 408.663 258.947 412.465C258.173 415.056 257.4 417.646 256.626 420.237C255.566 423.788 251.833 425.801 248.38 424.553C226.329 416.58 206.907 402.565 192.381 384.041L192.029 384.317L192.381 384.041C166.899 351.555 119.906 345.875 87.4198 371.357Z" stroke="#00BD62" stroke-width="0.89266"/>
<path d="M147.355 419.934C147.355 419.934 147.355 419.934 147.355 419.934C147.302 419.974 147.238 420.005 147.165 420.019C147.239 420.004 147.303 419.974 147.355 419.934ZM123.28 417.022C130.525 411.341 140.997 412.594 146.7 419.818C146.708 419.832 146.717 419.845 146.727 419.858L146.727 419.858C205.106 494.277 310.141 511.821 389.307 461.494C392.443 459.5 396.62 460.257 398.72 463.295C400.801 466.307 402.883 469.318 404.965 472.33C406.677 474.806 408.388 477.282 410.1 479.758C412.205 482.803 411.442 486.974 408.346 488.967C384.477 504.329 357.803 514.867 329.834 519.961C250.694 534.363 170.091 503.766 120.446 440.472C114.755 433.214 116.022 422.718 123.28 417.022Z" stroke="#00BD62" stroke-width="0.89266"/>
<path d="M115.664 407.334L115.664 407.334C128.28 397.441 146.524 399.648 156.417 412.26L156.066 412.535L156.417 412.26C203.513 472.304 284.434 493.673 354.719 465.436C358.132 464.065 359.637 460.099 358.116 456.724C355.375 450.641 352.634 444.557 349.891 438.473C348.374 435.108 344.407 433.61 340.94 434.962C284.699 456.888 220.299 439.58 182.7 391.644L183.051 391.368L182.7 391.644C161.42 364.511 122.176 359.77 95.0432 381.05C67.9103 402.331 63.169 441.574 84.4495 468.707C157.728 562.133 284.346 594.519 393.167 548.514C396.562 547.079 398.059 543.105 396.527 539.737C393.764 533.662 391.001 527.588 388.236 521.513C386.707 518.152 382.739 516.667 379.315 518.097C375.586 519.655 371.817 521.113 367.999 522.474C367.999 522.474 367.999 522.474 367.999 522.475L115.664 407.334ZM115.664 407.334C103.052 417.228 100.845 435.471 110.738 448.088L111.09 447.812L115.664 407.334Z" stroke="#00BD62" stroke-width="0.89266"/>
<path d="M271.619 170.427L271.619 170.427C271.589 170.431 271.559 170.439 271.531 170.449C211.253 179.066 164.104 226.168 154.968 285.814C154.405 289.492 151.124 292.179 147.452 291.809C144.109 291.473 140.771 291.137 137.432 290.801C134.135 290.47 130.838 290.138 127.537 289.806C123.853 289.435 121.17 286.149 121.689 282.507C132.38 207.524 191.344 148.126 266.89 137.364L266.827 136.922L266.89 137.364C282.76 135.101 293.79 120.4 291.531 104.53C289.272 88.6593 274.571 77.6291 258.701 79.8882L258.764 80.3301L258.701 79.8882C161.139 93.787 83.3915 168.526 65.6603 265.477C64.9312 269.464 64.3094 273.459 63.7937 277.472C63.3204 281.154 60.048 283.848 56.3708 283.492C53.4946 283.213 50.6186 282.934 47.7429 282.655C43.9773 282.29 40.212 281.925 36.4467 281.56C32.7646 281.203 30.0713 277.92 30.5257 274.262C45.0926 157.011 136.453 63.5569 254.006 46.8084C288.139 41.9474 319.753 65.6761 324.619 99.8142C329.48 133.946 305.754 165.562 271.619 170.427ZM271.598 170.439C271.599 170.439 271.6 170.439 271.601 170.439L271.601 170.439C271.6 170.439 271.599 170.439 271.598 170.439Z" stroke="#00BD62" stroke-width="0.89266"/>
<path d="M265.125 125.139L265.125 125.139C265.092 125.144 265.061 125.152 265.032 125.163C171.439 138.544 103.771 220.719 107.783 314.41C107.942 318.123 105.198 321.362 101.518 321.661L81.5675 323.286C77.8781 323.586 74.6473 320.84 74.4693 317.163C73.0974 288.812 77.3043 260.44 86.8809 233.673L86.4606 233.522L86.8809 233.672C113.972 157.924 180.777 103.417 260.41 92.0711L260.41 92.0711C269.539 90.7677 278 97.1166 279.299 106.25C280.598 115.378 274.256 123.833 265.125 125.139Z" stroke="#00BD62" stroke-width="0.89266"/>
<path d="M252.229 34.6102C252.199 34.6145 252.169 34.6217 252.141 34.6316L252.291 35.0521L252.229 34.6101C252.229 34.6102 252.229 34.6102 252.229 34.6102Z" stroke="#00BD62" stroke-width="0.89266"/>
<mask id="path-189-inside-1_2265_3941" fill="white">
<path d="M525.701 106.226C525.701 106.226 525.701 106.227 525.701 106.227C518.819 112.105 511.934 117.986 505.05 123.865C502.051 126.426 501.707 130.932 504.19 133.996C566.75 211.208 582.77 316.458 545.58 409.018C530.276 447.102 487.001 465.568 448.916 450.264C410.832 434.96 392.366 391.685 407.67 353.6C416.48 331.677 418.915 307.765 414.78 284.604C414.087 280.721 410.216 278.353 406.379 279.265C399.889 280.809 393.4 282.354 386.91 283.897C383.073 284.81 380.731 288.659 381.342 292.556C383.888 308.801 382.013 325.477 375.848 340.814C353.484 396.474 380.474 459.725 436.13 482.086C491.79 504.45 555.041 477.46 577.402 421.8C620.242 315.186 600.322 193.6 525.7 106.227C525.699 106.227 525.7 106.226 525.701 106.226Z"/>
</mask>
<path d="M545.58 409.018L546.409 409.35L546.409 409.35L545.58 409.018ZM448.916 450.264L448.583 451.092H448.583L448.916 450.264ZM407.67 353.6L406.842 353.267V353.267L407.67 353.6ZM375.848 340.814L375.02 340.481L375.02 340.481L375.848 340.814ZM436.13 482.086L436.462 481.258H436.462L436.13 482.086ZM577.402 421.8L576.573 421.467L576.573 421.467L577.402 421.8ZM386.91 283.897L386.703 283.029L386.91 283.897ZM505.05 123.865L505.63 124.543L505.05 123.865ZM525.7 106.227L525.021 106.807L525.7 106.227ZM414.78 284.604L413.901 284.761L414.78 284.604ZM406.379 279.265L406.172 278.397L406.379 279.265ZM525.701 106.227L526.281 106.906L525.701 106.227ZM525.121 105.549C518.239 111.426 511.354 117.307 504.471 123.186L505.63 124.543C512.514 118.664 519.399 112.784 526.281 106.906L525.121 105.549ZM503.497 134.558C565.853 211.519 581.82 316.426 544.752 408.685L546.409 409.35C583.719 316.49 567.648 210.897 504.884 133.434L503.497 134.558ZM544.752 408.685C529.632 446.311 486.877 464.556 449.249 449.436L448.583 451.092C487.126 466.58 530.921 447.892 546.409 409.35L544.752 408.685ZM449.249 449.436C411.622 434.315 393.378 391.56 408.498 353.933L406.842 353.267C391.353 391.81 410.042 435.604 448.583 451.092L449.249 449.436ZM408.498 353.933C417.371 331.854 419.823 307.773 415.659 284.447L413.901 284.761C418.007 307.758 415.589 331.499 406.842 353.267L408.498 353.933ZM406.172 278.397C399.684 279.94 393.192 281.486 386.703 283.029L387.117 284.766C393.607 283.222 400.095 281.678 406.586 280.134L406.172 278.397ZM380.46 292.694C382.981 308.78 381.125 325.293 375.02 340.481L376.677 341.147C382.902 325.66 384.795 308.821 382.224 292.418L380.46 292.694ZM375.02 340.481C352.472 396.598 379.684 460.37 435.797 482.914L436.462 481.258C381.265 459.081 354.496 396.349 376.677 341.147L375.02 340.481ZM435.797 482.914C491.914 505.462 555.686 478.25 578.23 422.133L576.573 421.467C554.397 476.67 491.665 503.438 436.462 481.258L435.797 482.914ZM578.23 422.133C621.195 315.21 601.216 193.273 526.379 105.648L525.021 106.807C599.427 193.927 619.29 315.161 576.573 421.467L578.23 422.133ZM386.703 283.029C382.371 284.06 379.784 288.381 380.46 292.694L382.224 292.418C381.678 288.937 383.774 285.561 387.117 284.766L386.703 283.029ZM504.471 123.186C501.092 126.072 500.719 131.13 503.497 134.558L504.884 133.434C502.696 130.734 503.011 126.78 505.63 124.543L504.471 123.186ZM526.379 105.648C526.705 106.03 526.619 106.522 526.382 106.802C526.141 107.087 525.654 107.259 525.216 106.976L526.185 105.476C525.747 105.193 525.259 105.365 525.018 105.651C524.781 105.932 524.694 106.424 525.021 106.807L526.379 105.648ZM415.659 284.447C414.87 280.027 410.475 277.373 406.172 278.397L406.586 280.134C409.957 279.332 413.304 281.416 413.901 284.761L415.659 284.447ZM526.281 106.906C526.735 106.518 526.687 105.801 526.185 105.476L525.216 106.976C524.715 106.652 524.667 105.936 525.121 105.549L526.281 106.906Z" fill="#00BD62" mask="url(#path-189-inside-1_2265_3941)"/>
<path d="M461.142 375.059L461.144 375.055L461.142 375.059ZM461.143 375.062C496.403 287.298 459.075 187.559 375.909 144.172C372.614 142.453 371.181 138.457 372.762 135.12C374.335 131.801 375.907 128.483 377.478 125.165C378.763 122.453 380.047 119.742 381.332 117.031C382.916 113.686 386.909 112.261 390.183 113.946C415.423 126.933 437.891 144.764 456.284 166.443L456.625 166.154L456.284 166.443C508.326 227.773 522.134 312.879 492.141 387.518C488.698 396.075 478.974 400.226 470.412 396.788C461.87 393.351 457.719 383.654 461.124 375.104C461.131 375.091 461.137 375.077 461.143 375.062ZM461.174 374.91C461.181 374.692 461.043 374.543 460.895 374.482C460.895 374.482 460.895 374.482 460.895 374.481C461.055 374.543 461.182 374.692 461.174 374.91Z" stroke="#00BD62" stroke-width="0.89266"/>
<path d="M503.576 392.128L503.577 392.128C503.582 392.114 503.587 392.101 503.591 392.087C540.321 300.639 514.462 195.955 439.377 132.129L439.377 132.129C436.287 129.504 433.138 126.967 429.922 124.515C426.969 122.264 426.271 118.083 428.419 115.076L440.051 98.7906C442.202 95.7797 446.392 95.0886 449.333 97.3112C543.59 168.556 578.848 294.398 534.576 404.572C521.718 436.566 485.357 452.082 453.363 439.223C421.37 426.365 405.854 390.005 418.712 358.011L418.298 357.844L418.712 358.011C441.424 301.488 424.215 237.067 377.108 199.321C374.203 196.994 373.517 192.807 375.674 189.811C379.573 184.396 383.47 178.981 387.367 173.566C389.53 170.56 393.717 169.88 396.611 172.151C456.205 218.899 478.16 299.67 449.71 370.475C443.733 385.352 450.945 402.259 465.822 408.236C480.697 414.213 497.598 407.002 503.576 392.128Z" stroke="#00BD62" stroke-width="0.89266"/>
</g>
</svg>
