<svg width="597" height="490" viewBox="0 0 597 490" fill="none" xmlns="http://www.w3.org/2000/svg">
<circle cx="298.301" cy="237.619" r="222.688" fill="#D9FBEB"/>
<path opacity="0.8" d="M31.576 123.702C31.8779 123.581 32.6929 117.645 33.5684 110.588C35.3947 95.7619 44.1339 84.298 55.1976 82.0415L63.1671 80.406C63.1671 80.406 50.6544 80.406 45.4471 76.7411C34.3834 68.9875 31.8628 46.0596 31.8628 46.0596C31.8628 46.0596 28.844 68.9875 17.72 76.7411C12.4976 80.406 0 80.406 0 80.406L7.96947 82.0415C19.003 84.298 27.7573 95.7619 29.5836 110.588C30.4591 117.705 31.259 123.581 31.576 123.702Z" fill="#00E577" fill-opacity="0.35"/>
<path opacity="0.8" d="M492.172 67.1148C492.411 67.0183 493.057 62.2893 493.75 56.6675C495.196 44.8571 502.114 35.7248 510.873 33.9273L517.182 32.6244C517.182 32.6244 507.276 32.6244 503.154 29.7049C494.395 23.5283 492.399 5.26367 492.399 5.26367C492.399 5.26367 490.01 23.5283 481.203 29.7049C477.069 32.6244 467.175 32.6244 467.175 32.6244L473.484 33.9273C482.219 35.7248 489.149 44.8571 490.595 56.6675C491.288 62.3375 491.922 67.0183 492.172 67.1148Z" fill="#00E577" fill-opacity="0.35"/>
<path opacity="0.8" d="M331.621 72.379C331.898 72.266 332.645 66.7321 333.448 60.1534C335.122 46.3327 343.133 35.646 353.275 33.5425L360.58 32.0179C360.58 32.0179 349.11 32.0178 344.337 28.6015C334.195 21.3735 331.884 0 331.884 0C331.884 0 329.117 21.3735 318.92 28.6015C314.133 32.0178 302.677 32.0179 302.677 32.0179L309.982 33.5425C320.096 35.646 328.121 46.3327 329.795 60.1534C330.598 66.7885 331.331 72.266 331.621 72.379Z" fill="#00E577" fill-opacity="0.35"/>
<path opacity="0.8" d="M560.599 389.53C560.939 389.393 561.856 382.651 562.841 374.637C564.895 357.801 574.727 344.783 587.173 342.22L596.139 340.363C596.139 340.363 582.062 340.363 576.204 336.201C563.758 327.396 560.922 301.359 560.922 301.359C560.922 301.359 557.526 327.396 545.011 336.201C539.136 340.363 525.076 340.363 525.076 340.363L534.042 342.22C546.454 344.783 556.303 357.801 558.358 374.637C559.343 382.72 560.243 389.393 560.599 389.53Z" fill="#00E577" fill-opacity="0.35"/>
<path opacity="0.8" d="M230.293 72.3791C230.431 72.3237 230.805 69.607 231.206 66.3775C232.043 59.5928 236.048 54.3466 241.119 53.314L244.772 52.5655C244.772 52.5655 239.037 52.5655 236.65 50.8884C231.579 47.3401 230.424 36.8477 230.424 36.8477C230.424 36.8477 229.041 47.3401 223.942 50.8884C221.548 52.5655 215.82 52.5655 215.82 52.5655L219.473 53.314C224.53 54.3466 228.542 59.5928 229.379 66.3775C229.781 69.6348 230.147 72.3237 230.293 72.3791Z" fill="#00E577" fill-opacity="0.35"/>
<path opacity="0.8" d="M17.1051 380.319C17.2435 380.263 17.6171 377.546 18.0183 374.317C18.8554 367.532 22.8609 362.286 27.9317 361.253L31.5844 360.505C31.5844 360.505 25.8494 360.505 23.4627 358.828C18.3919 355.28 17.2366 344.787 17.2366 344.787C17.2366 344.787 15.853 355.28 10.7545 358.828C8.36087 360.505 2.63281 360.505 2.63281 360.505L6.28548 361.253C11.3425 362.286 15.3549 367.532 16.192 374.317C16.5932 377.574 16.9599 380.263 17.1051 380.319Z" fill="#00E577" fill-opacity="0.35"/>
<path opacity="0.8" d="M72.3724 307.94C72.6994 307.81 73.5824 301.471 74.5308 293.936C76.5093 278.105 85.9768 265.864 97.9624 263.454L106.596 261.708C106.596 261.708 93.0407 261.708 87.3994 257.794C75.4137 249.515 72.683 225.033 72.683 225.033C72.683 225.033 69.4128 249.515 57.3617 257.794C51.7041 261.708 38.165 261.708 38.165 261.708L46.7986 263.454C58.7516 265.864 68.2354 278.105 70.214 293.936C71.1624 301.536 72.029 307.81 72.3724 307.94Z" fill="#00E577" fill-opacity="0.35"/>
<path opacity="0.8" d="M319.779 460.594C320.005 460.505 320.616 456.179 321.273 451.035C322.643 440.23 329.197 431.875 337.495 430.23L343.472 429.038C343.472 429.038 334.087 429.038 330.182 426.367C321.884 420.717 319.994 404.006 319.994 404.006C319.994 404.006 317.73 420.717 309.387 426.367C305.47 429.038 296.097 429.038 296.097 429.038L302.074 430.23C310.349 431.875 316.915 440.23 318.284 451.035C318.941 456.223 319.541 460.505 319.779 460.594Z" fill="#00E577" fill-opacity="0.35"/>
<path opacity="0.8" d="M544.811 85.5385C544.962 85.4789 545.37 82.561 545.808 79.0923C546.721 71.805 551.09 66.1701 556.622 65.061L560.607 64.2571C560.607 64.2571 554.351 64.2571 551.747 62.4558C546.215 58.6446 544.955 47.375 544.955 47.375C544.955 47.375 543.445 58.6446 537.883 62.4558C535.272 64.2571 529.023 64.2571 529.023 64.2571L533.008 65.061C538.525 66.1701 542.902 71.805 543.815 79.0923C544.253 82.5908 544.653 85.4789 544.811 85.5385Z" fill="#00E577" fill-opacity="0.35"/>
<path d="M146.415 476.147H157.423L157.897 450.649H146.889L146.415 476.147Z" fill="#B55B52"/>
<path d="M80.3379 476.147H91.346L96.25 450.649H85.2419L80.3379 476.147Z" fill="#B55B52"/>
<path d="M92.0863 474.828H79.7299C79.5142 474.824 79.3039 474.896 79.1359 475.032C78.968 475.167 78.853 475.357 78.8113 475.569L76.8705 485.362C76.8266 485.604 76.8368 485.852 76.9004 486.089C76.9639 486.326 77.0791 486.545 77.2378 486.732C77.3965 486.919 77.5947 487.069 77.8181 487.17C78.0415 487.271 78.2846 487.322 78.5298 487.318C82.8412 487.318 84.9303 486.992 90.3825 486.992C93.7308 486.992 100.635 487.333 105.198 487.333C109.762 487.333 110.31 482.77 108.398 482.355C99.8794 480.503 96.5458 477.91 93.8493 475.495C93.357 475.075 92.7336 474.839 92.0863 474.828Z" fill="#263238"/>
<path d="M157.323 474.828H145.307C145.091 474.824 144.881 474.896 144.713 475.032C144.545 475.167 144.43 475.357 144.389 475.569L142.448 485.362C142.402 485.601 142.409 485.848 142.47 486.084C142.531 486.32 142.643 486.539 142.799 486.726C142.955 486.913 143.151 487.064 143.372 487.166C143.593 487.268 143.834 487.32 144.077 487.318C148.418 487.318 154.671 486.992 160.123 486.992C166.494 486.992 167.16 487.333 174.642 487.333C179.161 487.333 180.302 482.77 178.391 482.355C169.738 480.473 167.546 480.266 159.99 475.688C159.198 475.159 158.274 474.862 157.323 474.828Z" fill="#263238"/>
<path d="M154.448 128.006L169.471 123.191C169.471 123.191 184.984 159.134 190.214 161.371C197.295 164.334 207.178 174.009 214.186 179.861C214.423 181.713 213.548 186.588 212.452 187.862C199.77 184.899 183.991 177.639 178.805 172.853C166.997 161.934 154.448 128.006 154.448 128.006Z" fill="#B55B52"/>
<path d="M150.948 119.738C146.726 129.369 163.675 159.949 163.675 159.949L186.136 149.577C183.37 140.257 179.641 131.25 175.009 122.702C167.942 110.36 155.585 109.16 150.948 119.738Z" fill="#00BD62"/>
<path opacity="0.2" d="M172.079 142.703C167.175 135.932 159.219 134.021 152.137 133.665C155.811 145.77 163.693 159.948 163.693 159.948L176.509 154.022C176.081 149.918 174.55 146.007 172.079 142.703Z" fill="black"/>
<path d="M212.671 178.795L225.753 180.884L222.375 194.707C217.792 192.748 213.535 190.1 209.752 186.855L212.671 178.795Z" fill="#B55B52"/>
<path d="M237.1 186.736L232.314 194.351L222.373 194.706L225.751 180.883L237.1 186.736Z" fill="#B55B52"/>
<path opacity="0.2" d="M157.898 450.664L157.646 463.806H146.638L146.89 450.664H157.898Z" fill="black"/>
<path opacity="0.2" d="M85.2259 450.664H96.2488L93.7153 463.806H82.6924L85.2259 450.664Z" fill="black"/>
<path d="M165.337 113.486C165.337 113.486 177.516 148.007 168.3 213.211H109.437C108.815 204.174 113.408 155.504 103.659 112.923C110.156 111.663 116.729 110.831 123.335 110.434C131.669 109.952 140.024 109.952 148.358 110.434C154.088 111.017 159.764 112.037 165.337 113.486Z" fill="#00BD62"/>
<path opacity="0.2" d="M138.815 154.097H121.806L121.421 143.385H138.429L138.815 154.097Z" fill="black"/>
<path d="M139.215 153.667H122.206L121.421 143.385H138.429L139.215 153.667Z" fill="white"/>
<path d="M128.015 149.741H123.377L123.007 145.089H127.659L128.015 149.741Z" fill="#00BD62"/>
<path d="M137.468 147.341H129.112L129.038 146.422H137.394L137.468 147.341Z" fill="#E0E0E0"/>
<path d="M135.851 149.148H129.258L129.184 148.215H135.777L135.851 149.148Z" fill="#E0E0E0"/>
<path d="M128.179 151.8H123.527L123.468 150.867H128.105L128.179 151.8Z" fill="#E0E0E0"/>
<path d="M129.452 151.8H137.808L137.734 150.867H129.393L129.452 151.8Z" fill="#E0E0E0"/>
<path d="M130.089 145.296C129.845 145.293 129.61 145.198 129.432 145.031C129.254 144.864 129.145 144.636 129.126 144.392L128.963 142.362C128.955 142.248 128.97 142.133 129.008 142.024C129.046 141.916 129.106 141.816 129.183 141.732C129.261 141.647 129.355 141.579 129.46 141.532C129.565 141.485 129.678 141.46 129.793 141.458C130.037 141.461 130.272 141.556 130.45 141.723C130.628 141.891 130.737 142.119 130.756 142.362L130.919 144.392C130.931 144.508 130.919 144.624 130.883 144.735C130.847 144.845 130.788 144.947 130.709 145.032C130.63 145.118 130.534 145.186 130.428 145.231C130.321 145.277 130.205 145.299 130.089 145.296Z" fill="#263238"/>
<path opacity="0.2" d="M116.695 123.442C117.851 130.45 116.058 147.147 109.851 166.586C109.55 149.988 107.785 133.448 104.576 117.16V117.071C108.517 116.686 115.599 116.864 116.695 123.442Z" fill="black"/>
<path d="M126 87.0254C127.778 95.0852 128.8 105.056 123.304 110.434C123.304 110.434 126.741 118.598 141.705 118.598C155.365 118.598 148.328 110.434 148.328 110.434C139.29 108.286 139.438 97.189 140.92 90.9368L126 87.0254Z" fill="#B55B52"/>
<path d="M141.692 117.161L146.003 121.947L144.907 125.295C144.819 125.563 144.651 125.797 144.426 125.967C144.201 126.137 143.929 126.233 143.647 126.243L140.684 126.391C140.442 126.397 140.201 126.344 139.984 126.235C139.767 126.127 139.58 125.967 139.44 125.769L137.084 122.302L141.692 117.161Z" fill="#263238"/>
<path d="M141.692 117.161C139.818 120.13 138.159 123.229 136.728 126.435C136.728 126.435 118.772 120.079 119.424 110.405C121.37 109.463 123.246 108.383 125.039 107.175C125.039 107.175 125.824 113.323 141.692 117.161Z" fill="white"/>
<path d="M141.688 117.161C143.932 119.755 145.807 122.646 147.259 125.754C149.258 123.808 150.676 121.345 151.356 118.64C152.036 115.935 151.952 113.094 151.111 110.434C149.543 109.813 147.928 109.318 146.281 108.953C146.281 108.953 147.541 115.086 141.688 117.161Z" fill="white"/>
<path d="M143.303 124.613C143.747 124.436 151.111 161.994 152.192 171.194C154.34 183.447 148.577 196.974 148.562 196.944C145.571 188.435 143.791 179.547 143.273 170.542C142.428 154.897 142.058 133.636 140.636 124.613H143.303Z" fill="#263238"/>
<path opacity="0.2" d="M140.901 90.9368C139.798 95.2921 139.931 99.8688 141.286 104.152C139.885 103.942 138.523 103.528 137.242 102.923C132.13 100.537 129.537 96.789 126.871 91.2035C126.633 89.7219 126.352 88.3884 126.056 87.0254L140.901 90.9368Z" fill="black"/>
<path d="M144.074 62.6235L148.149 75.7059C149.086 74.6835 149.738 73.4332 150.041 72.0798C150.343 70.7264 150.286 69.3172 149.873 67.9931C149.461 66.669 148.708 65.4763 147.691 64.534C146.673 63.5918 145.426 62.933 144.074 62.6235Z" fill="#263238"/>
<path d="M119.23 77.2174C122.401 87.7663 123.675 94.1074 130.386 98.4336C140.372 104.938 152.254 97.2039 152.24 85.9735C152.24 75.8692 147.039 60.3126 135.676 58.2977C133.187 57.8416 130.622 58.0417 128.235 58.8783C125.847 59.7149 123.718 61.1591 122.058 63.0686C120.399 64.9781 119.265 67.2871 118.769 69.7681C118.273 72.2491 118.432 74.8165 119.23 77.2174Z" fill="#B55B52"/>
<path d="M123.511 85.1735C126.474 83.2475 127.704 73.3209 124.992 69.854C134.489 69.4243 139.186 66.2093 139.438 64.4759C142.771 65.9574 151.098 66.5204 150.046 62.3127C149.563 60.6245 148.61 59.1083 147.299 57.941C145.987 56.7736 144.371 56.0033 142.638 55.7197C139.364 52.2528 131.156 49.3489 125.363 54.0455C115.229 54.0455 109.865 62.1942 112.695 65.4093C111.5 66.1095 110.508 67.1104 109.819 68.3125C109.13 69.5146 108.768 70.876 108.768 72.2616C108.768 73.6471 109.13 75.0085 109.819 76.2106C110.508 77.4127 111.5 78.4136 112.695 79.1139C109.999 83.203 121.718 92.3147 123.511 85.1735Z" fill="#263238"/>
<path d="M117.244 90.0477C118.212 91.031 119.365 91.8134 120.636 92.3499C121.907 92.8864 123.272 93.1664 124.652 93.1739C128.282 93.1739 129.097 89.6922 127.185 86.7586C125.496 84.1066 121.57 80.9064 118.296 82.3139C115.022 83.7214 114.859 87.6031 117.244 90.0477Z" fill="#B55B52"/>
<path d="M129.615 213.211C129.615 213.211 130.786 227.049 132.282 245.806C133.971 267.067 136.06 294.698 137.319 315.692C137.319 315.811 137.319 315.9 137.319 315.989C137.556 319.974 137.764 323.722 137.927 327.145C139.601 361.443 143.038 461.257 143.038 461.257H161.677C161.677 461.257 171.07 359.399 171.455 324.493C171.84 290.92 168.299 213.211 168.299 213.211H129.615Z" fill="#263238"/>
<path d="M141.674 455.569C141.585 455.569 141.822 461.658 141.822 461.658H163.335L164.061 454.813L141.674 455.569Z" fill="#00E577" fill-opacity="0.35"/>
<path opacity="0.2" d="M132.222 245.807C133.911 267.067 136 294.699 137.259 315.693C137.259 315.811 137.259 315.9 137.259 315.989C141.822 296.047 143.659 271.245 143.022 230.413L132.222 245.807Z" fill="black"/>
<path d="M147.422 213.211C147.422 213.211 137.051 292.743 130.917 324.33C124.25 358.836 98.7815 461.331 98.7815 461.331H78.6172C78.6172 461.331 94.5293 361.621 97.9666 327.456C101.715 290.417 109.434 213.286 109.434 213.286L147.422 213.211Z" fill="#263238"/>
<path d="M78.4853 455.998L77.626 461.628H99.7756L101.583 455.168L78.4853 455.998Z" fill="#00E577" fill-opacity="0.35"/>
<path d="M135.954 76.7139C136.161 77.5881 136.784 78.1955 137.347 78.077C137.91 77.9585 138.206 77.1436 137.999 76.2843C137.791 75.425 137.169 74.8027 136.606 74.9212C136.043 75.0398 135.761 75.8546 135.954 76.7139Z" fill="#263238"/>
<path d="M145.69 74.6099C145.897 75.4692 146.52 76.0915 147.083 75.9581C147.646 75.8248 147.927 75.0396 147.735 74.1654C147.542 73.2913 146.905 72.6838 146.342 72.8024C145.779 72.9209 145.557 73.7358 145.69 74.6099Z" fill="#263238"/>
<path d="M142.698 75.7065C144.371 78.1496 146.364 80.3571 148.625 82.2699C148.135 82.8218 147.528 83.2582 146.849 83.5477C146.17 83.8372 145.436 83.9726 144.698 83.9441L142.698 75.7065Z" fill="#A02724"/>
<path d="M143.023 87.3218C143.089 87.3012 143.144 87.2557 143.178 87.1949C143.211 87.134 143.219 87.0626 143.2 86.9958C143.192 86.9636 143.177 86.9335 143.157 86.907C143.136 86.8806 143.111 86.8585 143.082 86.842C143.053 86.8254 143.021 86.8148 142.988 86.8107C142.955 86.8066 142.921 86.8091 142.889 86.8181C141.82 87.1008 140.699 87.1302 139.616 86.9039C138.534 86.6775 137.518 86.2017 136.652 85.5143C136.628 85.4887 136.6 85.4683 136.568 85.4543C136.536 85.4403 136.501 85.4331 136.467 85.4331C136.432 85.4331 136.397 85.4403 136.366 85.4543C136.334 85.4683 136.305 85.4887 136.281 85.5143C136.256 85.5365 136.236 85.5639 136.222 85.5945C136.208 85.6252 136.201 85.6584 136.201 85.6921C136.201 85.7257 136.208 85.7589 136.222 85.7896C136.236 85.8203 136.256 85.8476 136.281 85.8699C137.207 86.6337 138.302 87.1643 139.475 87.4169C140.648 87.6696 141.865 87.6369 143.023 87.3218Z" fill="#263238"/>
<path d="M132.221 74.1801C132.298 74.1632 132.37 74.129 132.432 74.0803C132.493 74.0315 132.543 73.9694 132.577 73.8986C132.819 73.2976 133.203 72.7641 133.695 72.3436C134.188 71.923 134.775 71.628 135.407 71.4836C135.542 71.4617 135.664 71.3871 135.744 71.276C135.825 71.165 135.858 71.0265 135.836 70.891C135.815 70.7545 135.74 70.632 135.63 70.5491C135.519 70.4661 135.381 70.4294 135.244 70.4465C134.444 70.6043 133.695 70.9574 133.064 71.4743C132.434 71.9913 131.941 72.6561 131.629 73.4096C131.573 73.5375 131.57 73.682 131.62 73.8122C131.67 73.9423 131.769 74.0478 131.895 74.106C131.993 74.1671 132.108 74.1932 132.221 74.1801Z" fill="#263238"/>
<path d="M149.227 70.1656C149.306 70.1465 149.378 70.1054 149.435 70.0471C149.484 70.0001 149.523 69.9437 149.549 69.8813C149.576 69.819 149.589 69.7519 149.589 69.6841C149.589 69.6163 149.576 69.5492 149.549 69.4869C149.523 69.4245 149.484 69.3681 149.435 69.3211C148.893 68.6843 148.207 68.1865 147.434 67.8694C146.661 67.5524 145.823 67.4253 144.99 67.4988C144.922 67.5077 144.857 67.5303 144.798 67.5654C144.739 67.6004 144.688 67.6471 144.648 67.7026C144.607 67.758 144.579 67.8211 144.564 67.888C144.549 67.9548 144.548 68.0241 144.56 68.0914C144.57 68.1598 144.592 68.2257 144.627 68.2852C144.662 68.3448 144.708 68.3968 144.763 68.4382C144.819 68.4795 144.881 68.5095 144.948 68.5263C145.015 68.5431 145.085 68.5463 145.153 68.5359C145.812 68.4866 146.473 68.5954 147.081 68.8531C147.689 69.1108 148.227 69.51 148.65 70.0175C148.72 70.0969 148.813 70.1535 148.916 70.1799C149.019 70.2063 149.127 70.2013 149.227 70.1656Z" fill="#263238"/>
<path d="M97.0184 125.428L111.834 131.561C111.834 131.561 100.9 163.119 100.1 168.142C106.1 170.364 112.693 179.298 120.694 185.135C120.487 186.943 117.02 191.388 115.627 192.351C103.686 186.558 85.3732 178.542 84.5139 171.609C82.41 156.052 97.0184 125.428 97.0184 125.428Z" fill="#B55B52"/>
<path d="M117.126 184.439H129.526L125.985 196.648C125.985 196.648 118.326 196.188 113.792 190.573L117.126 184.439Z" fill="#B55B52"/>
<path d="M136.947 186.884L133.184 197.774L125.983 196.737L129.524 184.528L136.947 186.884Z" fill="#B55B52"/>
<path d="M103.657 112.924C93.286 114.405 82.2334 150.526 82.2334 150.526L106.131 159.579C110.678 150.966 114.638 142.056 117.984 132.91C122.71 119.62 114.784 111.294 103.657 112.924Z" fill="#00BD62"/>
<path d="M95.7744 476.785C96.5176 476.847 97.2598 476.653 97.8782 476.236C98.077 476.069 98.2281 475.852 98.3166 475.607C98.405 475.363 98.4275 475.1 98.3819 474.844C98.3806 474.692 98.3369 474.543 98.2557 474.415C98.1746 474.287 98.0592 474.184 97.9226 474.118C96.7078 473.495 93.1964 475.673 92.7964 475.925C92.7514 475.952 92.7158 475.992 92.6946 476.04C92.6733 476.087 92.6675 476.141 92.6779 476.192C92.6938 476.24 92.7209 476.284 92.7569 476.32C92.7929 476.356 92.8369 476.383 92.8853 476.399C93.8316 476.632 94.8003 476.761 95.7744 476.785ZM97.3597 474.518C97.4719 474.493 97.5882 474.493 97.7004 474.518C97.7522 474.551 97.7944 474.597 97.823 474.652C97.8516 474.706 97.8655 474.767 97.8634 474.829C97.8936 475.002 97.8796 475.179 97.8226 475.345C97.7656 475.511 97.6675 475.659 97.5374 475.777C96.3049 476.333 94.9073 476.402 93.6261 475.97C94.7623 475.243 96.0313 474.75 97.3597 474.518Z" fill="#00BD62"/>
<path d="M92.9457 476.399C92.9838 476.414 93.0261 476.414 93.0642 476.399C94.1902 475.777 96.3385 473.436 96.0274 472.147C95.984 471.955 95.877 471.783 95.7237 471.659C95.5704 471.536 95.3798 471.467 95.1829 471.466C94.9874 471.436 94.7879 471.45 94.5984 471.507C94.4089 471.563 94.2342 471.66 94.0865 471.792C92.8272 472.844 92.6049 476.014 92.6049 476.147C92.6021 476.196 92.6132 476.243 92.6368 476.285C92.6605 476.327 92.6957 476.362 92.7383 476.384C92.7685 476.405 92.8036 476.417 92.84 476.42C92.8764 476.422 92.9129 476.415 92.9457 476.399ZM95.0643 471.955H95.1829C95.5236 471.955 95.5533 472.147 95.5681 472.206C95.7162 472.932 94.368 474.755 93.2568 475.614C93.2982 474.366 93.7224 473.161 94.4717 472.162C94.6353 472.018 94.8462 471.939 95.0643 471.94V471.955Z" fill="#00BD62"/>
<path d="M161.943 476.784C162.881 476.871 163.822 476.636 164.609 476.117C164.779 475.955 164.908 475.755 164.985 475.534C165.062 475.312 165.086 475.076 165.054 474.843C165.046 474.699 165 474.559 164.923 474.437C164.845 474.315 164.737 474.215 164.609 474.147C163.261 473.406 158.89 475.629 158.402 475.91C158.352 475.933 158.312 475.971 158.288 476.02C158.263 476.068 158.257 476.124 158.268 476.177C158.276 476.23 158.3 476.281 158.337 476.32C158.374 476.36 158.423 476.387 158.476 476.399C159.617 476.631 160.778 476.76 161.943 476.784ZM163.883 474.517C164.051 474.51 164.218 474.54 164.372 474.606C164.422 474.635 164.463 474.676 164.491 474.725C164.52 474.775 164.535 474.831 164.535 474.888C164.561 475.041 164.549 475.198 164.5 475.345C164.451 475.492 164.366 475.625 164.254 475.732C163.587 476.325 161.78 476.429 159.335 476.029C160.754 475.27 162.292 474.758 163.883 474.517Z" fill="#00BD62"/>
<path d="M158.521 476.399H158.64C159.943 475.792 162.521 473.436 162.284 472.176C162.284 471.88 162.018 471.51 161.306 471.451C161.042 471.408 160.771 471.426 160.515 471.503C160.258 471.58 160.022 471.714 159.825 471.895C158.447 473.036 158.225 475.999 158.21 476.132C158.211 476.178 158.222 476.223 158.243 476.264C158.263 476.305 158.292 476.341 158.328 476.369C158.387 476.402 158.455 476.412 158.521 476.399ZM161.099 471.954H161.262C161.736 471.954 161.766 472.177 161.781 472.236C161.914 472.991 160.166 474.858 158.817 475.673C158.907 474.425 159.389 473.237 160.195 472.28C160.445 472.06 160.766 471.939 161.099 471.939V471.954Z" fill="#00BD62"/>
<path d="M473.762 125.91V311.493L442.856 342.399H320.655C319.393 342.395 318.183 341.89 317.291 340.996C316.4 340.102 315.899 338.891 315.899 337.628V125.91C315.899 124.648 316.4 123.437 317.291 122.542C318.183 121.648 319.393 121.144 320.655 121.14H468.961C469.59 121.136 470.214 121.256 470.796 121.494C471.378 121.732 471.908 122.083 472.354 122.527C472.8 122.97 473.154 123.497 473.396 124.078C473.637 124.659 473.762 125.281 473.762 125.91Z" fill="#00BD62"/>
<path opacity="0.6" d="M473.762 134.015V311.493L442.856 342.399H320.655C319.393 342.395 318.183 341.89 317.291 340.996C316.4 340.102 315.899 338.891 315.899 337.628V134.015H473.762Z" fill="white"/>
<path opacity="0.6" d="M469.615 127.036C469.618 127.494 469.485 127.942 469.232 128.324C468.98 128.706 468.62 129.005 468.198 129.182C467.776 129.359 467.311 129.407 466.862 129.32C466.412 129.232 465.999 129.013 465.674 128.691C465.35 128.368 465.128 127.956 465.038 127.507C464.947 127.059 464.992 126.593 465.167 126.17C465.341 125.747 465.637 125.385 466.018 125.13C466.398 124.876 466.846 124.74 467.303 124.74C467.606 124.738 467.906 124.796 468.187 124.91C468.467 125.025 468.722 125.194 468.937 125.407C469.152 125.621 469.322 125.874 469.438 126.154C469.555 126.434 469.615 126.733 469.615 127.036Z" fill="white"/>
<path opacity="0.6" d="M460.813 127.036C460.813 127.49 460.678 127.934 460.426 128.312C460.173 128.69 459.815 128.984 459.395 129.158C458.975 129.332 458.514 129.377 458.068 129.289C457.623 129.2 457.213 128.981 456.892 128.66C456.571 128.339 456.352 127.93 456.264 127.484C456.175 127.039 456.221 126.577 456.395 126.157C456.568 125.738 456.863 125.379 457.24 125.127C457.618 124.874 458.062 124.74 458.516 124.74C458.818 124.738 459.118 124.796 459.397 124.911C459.677 125.025 459.931 125.194 460.144 125.408C460.358 125.622 460.527 125.876 460.642 126.155C460.757 126.435 460.815 126.734 460.813 127.036Z" fill="white"/>
<path opacity="0.6" d="M452.028 127.036C452.031 127.495 451.897 127.944 451.644 128.326C451.392 128.708 451.031 129.007 450.608 129.184C450.185 129.36 449.719 129.407 449.269 129.319C448.82 129.23 448.406 129.009 448.082 128.685C447.758 128.361 447.538 127.948 447.449 127.498C447.36 127.049 447.407 126.583 447.584 126.16C447.761 125.737 448.059 125.376 448.442 125.123C448.824 124.87 449.273 124.737 449.731 124.74C450.34 124.74 450.924 124.982 451.355 125.412C451.786 125.843 452.028 126.427 452.028 127.036Z" fill="white"/>
<path d="M411.831 148.312H327.233C326.84 148.312 326.463 148.156 326.185 147.878C325.907 147.6 325.751 147.223 325.751 146.83C325.751 146.437 325.907 146.06 326.185 145.783C326.463 145.505 326.84 145.349 327.233 145.349H411.831C412.224 145.349 412.6 145.505 412.878 145.783C413.156 146.06 413.312 146.437 413.312 146.83C413.312 147.223 413.156 147.6 412.878 147.878C412.6 148.156 412.224 148.312 411.831 148.312Z" fill="#00BD62"/>
<path d="M387.922 156.416H327.177C326.784 156.416 326.407 156.26 326.129 155.982C325.851 155.704 325.695 155.328 325.695 154.935C325.695 154.542 325.851 154.165 326.129 153.887C326.407 153.609 326.784 153.453 327.177 153.453H387.922C388.315 153.453 388.691 153.609 388.969 153.887C389.247 154.165 389.403 154.542 389.403 154.935C389.403 155.328 389.247 155.704 388.969 155.982C388.691 156.26 388.315 156.416 387.922 156.416Z" fill="#00BD62"/>
<path d="M453.508 281.551H345.353C344.96 281.551 344.583 281.394 344.305 281.117C344.027 280.839 343.871 280.462 343.871 280.069C343.871 279.676 344.027 279.299 344.305 279.021C344.583 278.744 344.96 278.587 345.353 278.587H453.508C453.901 278.587 454.278 278.744 454.556 279.021C454.833 279.299 454.99 279.676 454.99 280.069C454.99 280.462 454.833 280.839 454.556 281.117C454.278 281.394 453.901 281.551 453.508 281.551Z" fill="#00BD62"/>
<path d="M435.422 313.923H327.267C326.874 313.923 326.497 313.767 326.219 313.489C325.941 313.211 325.785 312.834 325.785 312.441C325.785 312.048 325.941 311.671 326.219 311.393C326.497 311.116 326.874 310.959 327.267 310.959H435.422C435.815 310.959 436.192 311.116 436.47 311.393C436.747 311.671 436.904 312.048 436.904 312.441C436.904 312.834 436.747 313.211 436.47 313.489C436.192 313.767 435.815 313.923 435.422 313.923Z" fill="#00BD62"/>
<path d="M453.508 289.669H327.233C326.84 289.669 326.463 289.513 326.185 289.235C325.907 288.957 325.751 288.581 325.751 288.188C325.751 287.795 325.907 287.418 326.185 287.14C326.463 286.862 326.84 286.706 327.233 286.706H453.508C453.9 286.706 454.277 286.862 454.555 287.14C454.833 287.418 454.989 287.795 454.989 288.188C454.989 288.581 454.833 288.957 454.555 289.235C454.277 289.513 453.9 289.669 453.508 289.669Z" fill="#00BD62"/>
<path d="M453.508 297.743H327.233C326.84 297.743 326.463 297.587 326.185 297.309C325.907 297.032 325.751 296.655 325.751 296.262C325.751 295.869 325.907 295.492 326.185 295.214C326.463 294.936 326.84 294.78 327.233 294.78H453.508C453.9 294.78 454.277 294.936 454.555 295.214C454.833 295.492 454.989 295.869 454.989 296.262C454.989 296.655 454.833 297.032 454.555 297.309C454.277 297.587 453.9 297.743 453.508 297.743Z" fill="#00BD62"/>
<path d="M453.508 305.833H327.233C326.84 305.833 326.463 305.677 326.185 305.399C325.907 305.121 325.751 304.745 325.751 304.352C325.751 303.959 325.907 303.582 326.185 303.304C326.463 303.026 326.84 302.87 327.233 302.87H453.508C453.9 302.87 454.277 303.026 454.555 303.304C454.833 303.582 454.989 303.959 454.989 304.352C454.989 304.745 454.833 305.121 454.555 305.399C454.277 305.677 453.9 305.833 453.508 305.833Z" fill="#00BD62"/>
<path opacity="0.5" d="M473.735 311.494L442.829 342.399V311.494H473.735Z" fill="#00BD62"/>
<path opacity="0.4" d="M473.732 134.015H465.006V311.493H473.732V134.015Z" fill="black"/>
<path d="M469.316 226.746C468.463 226.746 467.645 226.408 467.042 225.805C466.439 225.202 466.101 224.384 466.101 223.531V205.397C466.12 204.557 466.467 203.758 467.068 203.171C467.669 202.584 468.476 202.256 469.316 202.256C469.738 202.256 470.156 202.339 470.546 202.501C470.936 202.662 471.29 202.899 471.589 203.198C471.888 203.496 472.124 203.85 472.286 204.241C472.448 204.631 472.531 205.049 472.531 205.471V223.605C472.511 224.445 472.164 225.244 471.563 225.831C470.962 226.418 470.156 226.747 469.316 226.746Z" fill="#00BD62"/>
<path d="M453.508 237.103H345.353C344.96 237.103 344.583 236.947 344.305 236.669C344.027 236.391 343.871 236.014 343.871 235.621C343.871 235.228 344.027 234.851 344.305 234.574C344.583 234.296 344.96 234.14 345.353 234.14H453.508C453.901 234.14 454.278 234.296 454.556 234.574C454.833 234.851 454.99 235.228 454.99 235.621C454.99 236.014 454.833 236.391 454.556 236.669C454.278 236.947 453.901 237.103 453.508 237.103Z" fill="#00BD62"/>
<path d="M435.422 269.475H327.267C326.874 269.475 326.497 269.319 326.219 269.041C325.941 268.764 325.785 268.387 325.785 267.994C325.785 267.601 325.941 267.224 326.219 266.946C326.497 266.668 326.874 266.512 327.267 266.512H435.422C435.815 266.512 436.192 266.668 436.47 266.946C436.747 267.224 436.904 267.601 436.904 267.994C436.904 268.387 436.747 268.764 436.47 269.041C436.192 269.319 435.815 269.475 435.422 269.475Z" fill="#00BD62"/>
<path d="M453.508 245.222H327.233C326.84 245.222 326.463 245.066 326.185 244.788C325.907 244.511 325.751 244.134 325.751 243.741C325.751 243.348 325.907 242.971 326.185 242.693C326.463 242.415 326.84 242.259 327.233 242.259H453.508C453.9 242.259 454.277 242.415 454.555 242.693C454.833 242.971 454.989 243.348 454.989 243.741C454.989 244.134 454.833 244.511 454.555 244.788C454.277 245.066 453.9 245.222 453.508 245.222Z" fill="#00BD62"/>
<path d="M453.508 253.297H327.233C326.84 253.297 326.463 253.141 326.185 252.863C325.907 252.585 325.751 252.208 325.751 251.815C325.751 251.422 325.907 251.045 326.185 250.767C326.463 250.49 326.84 250.333 327.233 250.333H453.508C453.9 250.333 454.277 250.49 454.555 250.767C454.833 251.045 454.989 251.422 454.989 251.815C454.989 252.208 454.833 252.585 454.555 252.863C454.277 253.141 453.9 253.297 453.508 253.297Z" fill="#00BD62"/>
<path d="M453.508 261.386H327.233C326.84 261.386 326.463 261.23 326.185 260.952C325.907 260.674 325.751 260.297 325.751 259.904C325.751 259.511 325.907 259.135 326.185 258.857C326.463 258.579 326.84 258.423 327.233 258.423H453.508C453.9 258.423 454.277 258.579 454.555 258.857C454.833 259.135 454.989 259.511 454.989 259.904C454.989 260.297 454.833 260.674 454.555 260.952C454.277 261.23 453.9 261.386 453.508 261.386Z" fill="#00BD62"/>
<path d="M453.496 166.061H326.851V213.323H453.496V166.061Z" fill="#00BD62"/>
<path opacity="0.2" d="M326.851 205.738H330.303V197.145H334.273V180.18H339.814V190.626H347.43V204.508H356.512V194.833H364.023L368.987 189.855V178.343H372.024V194.833H379.669V200.7H387.58V170.772L389.773 168.58V176.788H394.825V180.477L399.67 185.336V194.093H406.634V187.159H424.798V181.988H428.902V172.95H430.368V187.159H432.68L437.91 181.929H442.829V177.202H445.318V181.988H448.533V201.574H452.029V191.796L453.511 191.885V166.061H326.851V205.738Z" fill="black"/>
<path d="M453.507 220.805H419.431C419.038 220.805 418.661 220.649 418.383 220.372C418.105 220.094 417.949 219.717 417.949 219.324C417.949 218.931 418.105 218.554 418.383 218.276C418.661 217.998 419.038 217.842 419.431 217.842H453.507C453.9 217.842 454.277 217.998 454.555 218.276C454.833 218.554 454.989 218.931 454.989 219.324C454.989 219.717 454.833 220.094 454.555 220.372C454.277 220.649 453.9 220.805 453.507 220.805Z" fill="#00BD62"/>
<path opacity="0.2" d="M377.015 121.14V274.513L353.754 297.833H315.899V125.97C315.899 124.707 316.4 123.496 317.291 122.601C318.183 121.707 319.393 121.203 320.655 121.199L377.015 121.14Z" fill="black"/>
<path opacity="0.4" d="M469.316 226.746C468.463 226.746 467.645 226.408 467.042 225.805C466.439 225.202 466.101 224.384 466.101 223.531V205.397C466.12 204.557 466.467 203.758 467.068 203.171C467.669 202.584 468.476 202.256 469.316 202.256C469.738 202.256 470.156 202.339 470.546 202.501C470.936 202.662 471.29 202.899 471.589 203.198C471.888 203.496 472.124 203.85 472.286 204.241C472.448 204.631 472.531 205.049 472.531 205.471V223.605C472.511 224.445 472.164 225.244 471.563 225.831C470.962 226.418 470.156 226.747 469.316 226.746Z" fill="white"/>
<path d="M286.694 149.037V334.62L255.788 365.526H133.617C132.354 365.522 131.145 365.017 130.253 364.123C129.362 363.229 128.861 362.018 128.861 360.755V149.037C128.861 147.775 129.362 146.563 130.253 145.669C131.145 144.775 132.354 144.271 133.617 144.267H281.923C283.188 144.267 284.402 144.769 285.297 145.664C286.191 146.559 286.694 147.772 286.694 149.037Z" fill="#00BD62"/>
<path opacity="0.6" d="M286.694 157.156V334.635L255.788 365.54H133.617C132.354 365.536 131.145 365.032 130.253 364.138C129.362 363.244 128.861 362.032 128.861 360.77V157.156H286.694Z" fill="white"/>
<path opacity="0.6" d="M282.635 150.178C282.638 150.636 282.505 151.084 282.253 151.466C282.001 151.848 281.641 152.146 281.219 152.324C280.797 152.501 280.331 152.549 279.882 152.461C279.433 152.374 279.02 152.155 278.695 151.832C278.37 151.51 278.149 151.098 278.058 150.649C277.968 150.2 278.013 149.735 278.187 149.312C278.362 148.888 278.658 148.527 279.038 148.272C279.419 148.017 279.866 147.881 280.324 147.881C280.627 147.879 280.927 147.937 281.207 148.052C281.488 148.166 281.743 148.335 281.957 148.549C282.172 148.762 282.343 149.016 282.459 149.296C282.575 149.575 282.635 149.875 282.635 150.178Z" fill="white"/>
<path opacity="0.6" d="M273.744 150.178C273.747 150.636 273.613 151.085 273.36 151.467C273.107 151.85 272.747 152.148 272.324 152.325C271.901 152.502 271.435 152.549 270.985 152.46C270.535 152.371 270.122 152.151 269.798 151.827C269.474 151.503 269.253 151.09 269.165 150.64C269.076 150.19 269.123 149.724 269.3 149.301C269.477 148.878 269.775 148.518 270.158 148.265C270.54 148.012 270.989 147.878 271.447 147.881C271.749 147.879 272.049 147.937 272.328 148.052C272.608 148.167 272.862 148.336 273.075 148.55C273.289 148.763 273.458 149.017 273.573 149.297C273.687 149.576 273.746 149.876 273.744 150.178Z" fill="white"/>
<path opacity="0.6" d="M264.99 150.178C264.993 150.636 264.86 151.084 264.607 151.466C264.355 151.848 263.995 152.146 263.573 152.324C263.151 152.501 262.686 152.549 262.237 152.461C261.787 152.374 261.374 152.155 261.049 151.832C260.725 151.51 260.503 151.098 260.413 150.649C260.322 150.2 260.367 149.735 260.542 149.312C260.716 148.888 261.012 148.527 261.393 148.272C261.773 148.017 262.221 147.881 262.678 147.881C262.981 147.879 263.281 147.937 263.562 148.052C263.842 148.166 264.097 148.335 264.312 148.549C264.527 148.762 264.697 149.016 264.813 149.296C264.93 149.575 264.99 149.875 264.99 150.178Z" fill="white"/>
<path d="M166.478 172.254H140.194C139.802 172.254 139.425 172.098 139.147 171.82C138.869 171.542 138.713 171.165 138.713 170.772C138.713 170.379 138.869 170.002 139.147 169.724C139.425 169.447 139.802 169.291 140.194 169.291H166.478C166.871 169.291 167.247 169.447 167.525 169.724C167.803 170.002 167.959 170.379 167.959 170.772C167.959 171.165 167.803 171.542 167.525 171.82C167.247 172.098 166.871 172.254 166.478 172.254Z" fill="#00BD62"/>
<path d="M178.921 180.343H140.252C139.859 180.343 139.482 180.186 139.204 179.909C138.927 179.631 138.771 179.254 138.771 178.861C138.771 178.468 138.927 178.091 139.204 177.813C139.482 177.535 139.859 177.379 140.252 177.379H178.921C179.314 177.379 179.691 177.535 179.969 177.813C180.247 178.091 180.403 178.468 180.403 178.861C180.403 179.254 180.247 179.631 179.969 179.909C179.691 180.186 179.314 180.343 178.921 180.343Z" fill="#00BD62"/>
<path d="M166.908 188.432H140.239C139.846 188.432 139.47 188.276 139.192 187.998C138.914 187.721 138.758 187.344 138.758 186.951C138.758 186.558 138.914 186.181 139.192 185.903C139.47 185.625 139.846 185.469 140.239 185.469H166.908C167.301 185.469 167.678 185.625 167.955 185.903C168.233 186.181 168.389 186.558 168.389 186.951C168.389 187.344 168.233 187.721 167.955 187.998C167.678 188.276 167.301 188.432 166.908 188.432Z" fill="#00BD62"/>
<path d="M266.459 320.989H158.304C157.911 320.989 157.534 320.833 157.256 320.555C156.978 320.277 156.822 319.9 156.822 319.507C156.822 319.115 156.978 318.738 157.256 318.46C157.534 318.182 157.911 318.026 158.304 318.026H266.459C266.852 318.026 267.229 318.182 267.507 318.46C267.785 318.738 267.941 319.115 267.941 319.507C267.941 319.9 267.785 320.277 267.507 320.555C267.229 320.833 266.852 320.989 266.459 320.989Z" fill="#00BD62"/>
<path d="M207.191 329.079H140.194C139.802 329.079 139.425 328.923 139.147 328.645C138.869 328.367 138.713 327.99 138.713 327.597C138.713 327.204 138.869 326.827 139.147 326.55C139.425 326.272 139.802 326.116 140.194 326.116H207.191C207.584 326.116 207.961 326.272 208.239 326.55C208.517 326.827 208.673 327.204 208.673 327.597C208.673 327.99 208.517 328.367 208.239 328.645C207.961 328.923 207.584 329.079 207.191 329.079Z" fill="#00BD62"/>
<path opacity="0.5" d="M286.697 334.635L255.791 365.54V334.635H286.697Z" fill="#00BD62"/>
<path opacity="0.4" d="M286.694 157.156H277.968V334.635H286.694V157.156Z" fill="black"/>
<path d="M282.322 322.486C281.47 322.486 280.652 322.147 280.049 321.544C279.446 320.941 279.107 320.124 279.107 319.271V301.136C279.107 300.284 279.446 299.466 280.049 298.863C280.652 298.26 281.47 297.921 282.322 297.921C282.745 297.921 283.163 298.005 283.553 298.166C283.943 298.328 284.297 298.564 284.596 298.863C284.894 299.162 285.131 299.516 285.293 299.906C285.454 300.296 285.537 300.714 285.537 301.136V319.301C285.53 320.148 285.187 320.958 284.585 321.555C283.983 322.151 283.17 322.486 282.322 322.486Z" fill="#00BD62"/>
<path d="M266.459 172.254H246.117C245.724 172.254 245.348 172.098 245.07 171.82C244.792 171.542 244.636 171.165 244.636 170.772C244.636 170.379 244.792 170.002 245.07 169.724C245.348 169.447 245.724 169.291 246.117 169.291H266.459C266.852 169.291 267.229 169.447 267.507 169.724C267.785 170.002 267.941 170.379 267.941 170.772C267.941 171.165 267.785 171.542 267.507 171.82C267.229 172.098 266.852 172.254 266.459 172.254Z" fill="#00BD62"/>
<path d="M266.456 180.343H255.966C255.573 180.343 255.196 180.186 254.918 179.909C254.64 179.631 254.484 179.254 254.484 178.861C254.484 178.468 254.64 178.091 254.918 177.813C255.196 177.535 255.573 177.379 255.966 177.379H266.485C266.878 177.379 267.255 177.535 267.533 177.813C267.811 178.091 267.967 178.468 267.967 178.861C267.967 179.254 267.811 179.631 267.533 179.909C267.255 180.186 266.878 180.343 266.485 180.343H266.456Z" fill="#00BD62"/>
<path d="M266.459 209.871H158.304C157.911 209.871 157.534 209.715 157.256 209.437C156.978 209.159 156.822 208.782 156.822 208.389C156.822 207.996 156.978 207.62 157.256 207.342C157.534 207.064 157.911 206.908 158.304 206.908H266.459C266.852 206.908 267.229 207.064 267.507 207.342C267.785 207.62 267.941 207.996 267.941 208.389C267.941 208.782 267.785 209.159 267.507 209.437C267.229 209.715 266.852 209.871 266.459 209.871Z" fill="#00BD62"/>
<path d="M266.455 217.961H140.194C139.802 217.961 139.425 217.805 139.147 217.527C138.869 217.249 138.713 216.872 138.713 216.479C138.713 216.086 138.869 215.709 139.147 215.432C139.425 215.154 139.802 214.998 140.194 214.998H266.455C266.848 214.998 267.224 215.154 267.502 215.432C267.78 215.709 267.936 216.086 267.936 216.479C267.936 216.872 267.78 217.249 267.502 217.527C267.224 217.805 266.848 217.961 266.455 217.961Z" fill="#00BD62"/>
<path d="M192.376 226.05H140.194C139.802 226.05 139.425 225.894 139.147 225.616C138.869 225.338 138.713 224.961 138.713 224.568C138.713 224.175 138.869 223.798 139.147 223.52C139.425 223.243 139.802 223.086 140.194 223.086H192.376C192.769 223.086 193.145 223.243 193.423 223.52C193.701 223.798 193.857 224.175 193.857 224.568C193.857 224.961 193.701 225.338 193.423 225.616C193.145 225.894 192.769 226.05 192.376 226.05Z" fill="#00BD62"/>
<path opacity="0.7" d="M210.895 236.791H161.144V250.125H210.895V236.791Z" fill="#00BD62"/>
<path opacity="0.3" d="M183.678 253.088H161.144V302.321H183.678V253.088Z" fill="#00BD62"/>
<path opacity="0.3" d="M239.727 253.088H213.844V302.321H239.727V253.088Z" fill="#00BD62"/>
<path opacity="0.7" d="M266.455 236.791H213.844V250.125H266.455V236.791Z" fill="#00BD62"/>
<path opacity="0.3" d="M266.471 253.088H242.706V302.321H266.471V253.088Z" fill="#00BD62"/>
<path opacity="0.5" d="M158.181 253.088H140.194V302.321H158.181V253.088Z" fill="#00BD62"/>
<path d="M158.181 236.791H140.194V250.125H158.181V236.791Z" fill="#00BD62"/>
<path opacity="0.3" d="M210.879 253.088H186.641V302.321H210.879V253.088Z" fill="#00BD62"/>
<path opacity="0.4" d="M282.322 322.486C281.47 322.486 280.652 322.147 280.049 321.544C279.446 320.941 279.107 320.124 279.107 319.271V301.136C279.107 300.284 279.446 299.466 280.049 298.863C280.652 298.26 281.47 297.921 282.322 297.921C282.745 297.921 283.163 298.005 283.553 298.166C283.943 298.328 284.297 298.564 284.596 298.863C284.894 299.162 285.131 299.516 285.293 299.906C285.454 300.296 285.537 300.714 285.537 301.136V319.301C285.53 320.148 285.187 320.958 284.585 321.555C283.983 322.151 283.17 322.486 282.322 322.486Z" fill="white"/>
<path opacity="0.2" d="M286.695 149.037V303.418H197.312C196.049 303.414 194.839 302.91 193.948 302.015C193.056 301.121 192.556 299.91 192.556 298.647V144.267H281.924C283.19 144.267 284.403 144.769 285.298 145.664C286.193 146.559 286.695 147.772 286.695 149.037Z" fill="black"/>
<path d="M365.177 64.9133V250.496L334.272 281.402H212.101C210.838 281.398 209.628 280.893 208.737 279.999C207.845 279.105 207.345 277.894 207.345 276.631V64.9133C207.345 63.6506 207.845 62.4394 208.737 61.5451C209.628 60.6508 210.838 60.1465 212.101 60.1426H360.407C361.672 60.1426 362.885 60.6452 363.78 61.5399C364.675 62.4346 365.177 63.648 365.177 64.9133Z" fill="#00BD62"/>
<path opacity="0.6" d="M365.177 73.0176V250.496L334.272 281.402H212.101C210.838 281.398 209.628 280.893 208.737 279.999C207.845 279.105 207.345 277.894 207.345 276.631V73.0176H365.177Z" fill="white"/>
<path opacity="0.6" d="M358.748 68.3356C360.016 68.3356 361.044 67.3074 361.044 66.0391C361.044 64.7708 360.016 63.7427 358.748 63.7427C357.479 63.7427 356.451 64.7708 356.451 66.0391C356.451 67.3074 357.479 68.3356 358.748 68.3356Z" fill="white"/>
<path opacity="0.6" d="M349.946 68.3356C351.214 68.3356 352.242 67.3074 352.242 66.0391C352.242 64.7708 351.214 63.7427 349.946 63.7427C348.678 63.7427 347.649 64.7708 347.649 66.0391C347.649 67.3074 348.678 68.3356 349.946 68.3356Z" fill="white"/>
<path opacity="0.6" d="M343.459 66.0392C343.462 66.4975 343.329 66.9465 343.076 67.3288C342.823 67.7111 342.462 68.0097 342.039 68.1864C341.617 68.3632 341.151 68.4102 340.701 68.3215C340.251 68.2328 339.838 68.0124 339.514 67.6883C339.19 67.3641 338.969 66.951 338.881 66.5012C338.792 66.0515 338.839 65.5856 339.016 65.1627C339.192 64.7397 339.491 64.3789 339.873 64.1261C340.256 63.8732 340.705 63.7398 341.163 63.7427C341.465 63.7408 341.765 63.7988 342.044 63.9135C342.324 64.0282 342.578 64.1973 342.791 64.411C343.005 64.6246 343.174 64.8785 343.289 65.158C343.403 65.4375 343.461 65.7371 343.459 66.0392Z" fill="white"/>
<path d="M296.892 88.1741H266.712C266.319 88.1741 265.942 88.018 265.664 87.7402C265.387 87.4623 265.23 87.0855 265.23 86.6925C265.23 86.2996 265.387 85.9227 265.664 85.6449C265.942 85.367 266.319 85.2109 266.712 85.2109H296.892C297.285 85.2109 297.662 85.367 297.939 85.6449C298.217 85.9227 298.373 86.2996 298.373 86.6925C298.373 87.0855 298.217 87.4623 297.939 87.7402C297.662 88.018 297.285 88.1741 296.892 88.1741Z" fill="#00BD62"/>
<path d="M309.304 96.2044H254.337C253.944 96.2044 253.567 96.0483 253.289 95.7704C253.012 95.4926 252.855 95.1157 252.855 94.7228C252.855 94.3299 253.012 93.953 253.289 93.6752C253.567 93.3973 253.944 93.2412 254.337 93.2412H309.304C309.697 93.2412 310.073 93.3973 310.351 93.6752C310.629 93.953 310.785 94.3299 310.785 94.7228C310.785 95.1157 310.629 95.4926 310.351 95.7704C310.073 96.0483 309.697 96.2044 309.304 96.2044Z" fill="#00BD62"/>
<path d="M297.339 104.308H266.344C265.951 104.308 265.574 104.152 265.296 103.874C265.018 103.597 264.862 103.22 264.862 102.827C264.862 102.434 265.018 102.057 265.296 101.779C265.574 101.501 265.951 101.345 266.344 101.345H297.457C297.85 101.345 298.227 101.501 298.505 101.779C298.783 102.057 298.939 102.434 298.939 102.827C298.939 103.22 298.783 103.597 298.505 103.874C298.227 104.152 297.85 104.308 297.457 104.308H297.339Z" fill="#00BD62"/>
<path d="M344.939 125.732H236.71C236.317 125.732 235.94 125.576 235.662 125.298C235.385 125.02 235.229 124.644 235.229 124.251C235.229 123.858 235.385 123.481 235.662 123.203C235.94 122.925 236.317 122.769 236.71 122.769H344.865C345.258 122.769 345.635 122.925 345.913 123.203C346.191 123.481 346.347 123.858 346.347 124.251C346.347 124.644 346.191 125.02 345.913 125.298C345.635 125.576 345.258 125.732 344.865 125.732H344.939Z" fill="#00BD62"/>
<path d="M326.852 158.104H218.696C218.303 158.104 217.927 157.948 217.649 157.67C217.371 157.392 217.215 157.016 217.215 156.623C217.215 156.23 217.371 155.853 217.649 155.575C217.927 155.297 218.303 155.141 218.696 155.141H326.852C327.245 155.141 327.621 155.297 327.899 155.575C328.177 155.853 328.333 156.23 328.333 156.623C328.333 157.016 328.177 157.392 327.899 157.67C327.621 157.948 327.245 158.104 326.852 158.104Z" fill="#00BD62"/>
<path d="M344.936 133.822H218.661C218.268 133.822 217.891 133.665 217.614 133.388C217.336 133.11 217.18 132.733 217.18 132.34C217.18 131.947 217.336 131.57 217.614 131.292C217.891 131.014 218.268 130.858 218.661 130.858H344.936C345.329 130.858 345.706 131.014 345.984 131.292C346.262 131.57 346.418 131.947 346.418 132.34C346.418 132.733 346.262 133.11 345.984 133.388C345.706 133.665 345.329 133.822 344.936 133.822Z" fill="#00BD62"/>
<path d="M344.936 141.926H218.661C218.268 141.926 217.891 141.769 217.614 141.492C217.336 141.214 217.18 140.837 217.18 140.444C217.18 140.051 217.336 139.674 217.614 139.396C217.891 139.118 218.268 138.962 218.661 138.962H344.936C345.329 138.962 345.706 139.118 345.984 139.396C346.262 139.674 346.418 140.051 346.418 140.444C346.418 140.837 346.262 141.214 345.984 141.492C345.706 141.769 345.329 141.926 344.936 141.926Z" fill="#00BD62"/>
<path d="M344.936 150.015H218.661C218.268 150.015 217.891 149.859 217.614 149.581C217.336 149.304 217.18 148.927 217.18 148.534C217.18 148.141 217.336 147.764 217.614 147.486C217.891 147.208 218.268 147.052 218.661 147.052H344.936C345.329 147.052 345.706 147.208 345.984 147.486C346.262 147.764 346.418 148.141 346.418 148.534C346.418 148.927 346.262 149.304 345.984 149.581C345.706 149.859 345.329 150.015 344.936 150.015Z" fill="#00BD62"/>
<path d="M344.939 207.219H236.71C236.317 207.219 235.94 207.063 235.662 206.785C235.385 206.507 235.229 206.13 235.229 205.737C235.229 205.344 235.385 204.968 235.662 204.69C235.94 204.412 236.317 204.256 236.71 204.256H344.865C345.258 204.256 345.635 204.412 345.913 204.69C346.191 204.968 346.347 205.344 346.347 205.737C346.347 206.13 346.191 206.507 345.913 206.785C345.635 207.063 345.258 207.219 344.865 207.219H344.939Z" fill="#00BD62"/>
<path d="M326.852 239.591H218.696C218.303 239.591 217.927 239.435 217.649 239.157C217.371 238.879 217.215 238.502 217.215 238.11C217.215 237.717 217.371 237.34 217.649 237.062C217.927 236.784 218.303 236.628 218.696 236.628H326.852C327.245 236.628 327.621 236.784 327.899 237.062C328.177 237.34 328.333 237.717 328.333 238.11C328.333 238.502 328.177 238.879 327.899 239.157C327.621 239.435 327.245 239.591 326.852 239.591Z" fill="#00BD62"/>
<path d="M344.936 215.308H218.661C218.268 215.308 217.891 215.152 217.614 214.874C217.336 214.597 217.18 214.22 217.18 213.827C217.18 213.434 217.336 213.057 217.614 212.779C217.891 212.501 218.268 212.345 218.661 212.345H344.936C345.329 212.345 345.706 212.501 345.984 212.779C346.262 213.057 346.418 213.434 346.418 213.827C346.418 214.22 346.262 214.597 345.984 214.874C345.706 215.152 345.329 215.308 344.936 215.308Z" fill="#00BD62"/>
<path d="M344.936 223.412H218.661C218.268 223.412 217.891 223.256 217.614 222.978C217.336 222.701 217.18 222.324 217.18 221.931C217.18 221.538 217.336 221.161 217.614 220.883C217.891 220.605 218.268 220.449 218.661 220.449H344.936C345.329 220.449 345.706 220.605 345.984 220.883C346.262 221.161 346.418 221.538 346.418 221.931C346.418 222.324 346.262 222.701 345.984 222.978C345.706 223.256 345.329 223.412 344.936 223.412Z" fill="#00BD62"/>
<path d="M344.936 231.502H218.661C218.268 231.502 217.891 231.346 217.614 231.068C217.336 230.79 217.18 230.414 217.18 230.021C217.18 229.628 217.336 229.251 217.614 228.973C217.891 228.695 218.268 228.539 218.661 228.539H344.936C345.329 228.539 345.706 228.695 345.984 228.973C346.262 229.251 346.418 229.628 346.418 230.021C346.418 230.414 346.262 230.79 345.984 231.068C345.706 231.346 345.329 231.502 344.936 231.502Z" fill="#00BD62"/>
<path d="M344.938 84.855H329.781V105.034H344.938V84.855Z" fill="#00BD62"/>
<path d="M227.078 101.656C231.718 101.656 235.479 97.895 235.479 93.2555C235.479 88.616 231.718 84.855 227.078 84.855C222.439 84.855 218.678 88.616 218.678 93.2555C218.678 97.895 222.439 101.656 227.078 101.656Z" fill="#00BD62"/>
<path d="M218.187 168.697C218.228 169.139 218.432 169.55 218.759 169.848C219.087 170.147 219.514 170.313 219.958 170.313C220.401 170.313 220.829 170.147 221.156 169.848C221.484 169.55 221.688 169.139 221.728 168.697C221.751 168.451 221.722 168.203 221.643 167.969C221.564 167.735 221.437 167.519 221.271 167.337C221.104 167.154 220.901 167.008 220.675 166.909C220.449 166.809 220.205 166.757 219.958 166.757C219.71 166.757 219.466 166.809 219.24 166.909C219.014 167.008 218.811 167.154 218.644 167.337C218.478 167.519 218.351 167.735 218.272 167.969C218.194 168.203 218.165 168.451 218.187 168.697Z" fill="#00BD62"/>
<path d="M218.19 176.787C218.188 177.14 218.29 177.486 218.484 177.78C218.678 178.075 218.956 178.305 219.281 178.442C219.607 178.578 219.965 178.614 220.312 178.546C220.658 178.478 220.976 178.309 221.225 178.059C221.475 177.809 221.645 177.491 221.713 177.145C221.781 176.799 221.744 176.44 221.608 176.115C221.472 175.789 221.241 175.512 220.947 175.317C220.652 175.123 220.306 175.021 219.954 175.024C219.486 175.024 219.038 175.21 218.707 175.54C218.376 175.871 218.19 176.319 218.19 176.787Z" fill="#00BD62"/>
<path d="M218.187 184.892C218.228 185.333 218.432 185.744 218.759 186.043C219.087 186.342 219.514 186.507 219.958 186.507C220.401 186.507 220.829 186.342 221.156 186.043C221.484 185.744 221.688 185.333 221.728 184.892C221.751 184.646 221.722 184.397 221.643 184.163C221.564 183.929 221.437 183.714 221.271 183.531C221.104 183.349 220.901 183.203 220.675 183.103C220.449 183.003 220.205 182.952 219.958 182.952C219.71 182.952 219.466 183.003 219.24 183.103C219.014 183.203 218.811 183.349 218.644 183.531C218.478 183.714 218.351 183.929 218.272 184.163C218.194 184.397 218.165 184.646 218.187 184.892Z" fill="#00BD62"/>
<path d="M218.187 192.981C218.228 193.423 218.432 193.833 218.759 194.132C219.087 194.431 219.514 194.597 219.958 194.597C220.401 194.597 220.829 194.431 221.156 194.132C221.484 193.833 221.688 193.423 221.728 192.981C221.751 192.735 221.722 192.487 221.643 192.253C221.564 192.018 221.437 191.803 221.271 191.62C221.104 191.438 220.901 191.292 220.675 191.192C220.449 191.093 220.205 191.041 219.958 191.041C219.71 191.041 219.466 191.093 219.24 191.192C219.014 191.292 218.811 191.438 218.644 191.62C218.478 191.803 218.351 192.018 218.272 192.253C218.194 192.487 218.165 192.735 218.187 192.981Z" fill="#00BD62"/>
<path d="M245.364 170.179H226.104C225.711 170.179 225.334 170.023 225.056 169.746C224.778 169.468 224.622 169.091 224.622 168.698C224.622 168.305 224.778 167.928 225.056 167.65C225.334 167.372 225.711 167.216 226.104 167.216H245.364C245.757 167.216 246.134 167.372 246.412 167.65C246.69 167.928 246.846 168.305 246.846 168.698C246.846 169.091 246.69 169.468 246.412 169.746C246.134 170.023 245.757 170.179 245.364 170.179Z" fill="#00BD62"/>
<path d="M263.455 178.269H226.074C225.681 178.269 225.305 178.113 225.027 177.835C224.749 177.557 224.593 177.18 224.593 176.787C224.593 176.394 224.749 176.017 225.027 175.74C225.305 175.462 225.681 175.306 226.074 175.306H263.455C263.848 175.306 264.224 175.462 264.502 175.74C264.78 176.017 264.936 176.394 264.936 176.787C264.936 177.18 264.78 177.557 264.502 177.835C264.224 178.113 263.848 178.269 263.455 178.269Z" fill="#00BD62"/>
<path d="M241.231 186.373H226.074C225.681 186.373 225.305 186.217 225.027 185.939C224.749 185.662 224.593 185.285 224.593 184.892C224.593 184.499 224.749 184.122 225.027 183.844C225.305 183.566 225.681 183.41 226.074 183.41H241.231C241.624 183.41 242.001 183.566 242.279 183.844C242.556 184.122 242.712 184.499 242.712 184.892C242.712 185.285 242.556 185.662 242.279 185.939C242.001 186.217 241.624 186.373 241.231 186.373Z" fill="#00BD62"/>
<path d="M257.528 194.463H226.074C225.681 194.463 225.305 194.307 225.027 194.029C224.749 193.751 224.593 193.375 224.593 192.982C224.593 192.589 224.749 192.212 225.027 191.934C225.305 191.656 225.681 191.5 226.074 191.5H257.528C257.921 191.5 258.298 191.656 258.576 191.934C258.854 192.212 259.01 192.589 259.01 192.982C259.01 193.375 258.854 193.751 258.576 194.029C258.298 194.307 257.921 194.463 257.528 194.463Z" fill="#00BD62"/>
<path opacity="0.5" d="M365.18 250.496L334.274 281.401V250.496H365.18Z" fill="#00BD62"/>
<path opacity="0.2" d="M344.938 84.855L329.781 105.034H344.938V84.855Z" fill="black"/>
<path opacity="0.2" d="M231.984 88.3516H222.161V98.1744H231.984V88.3516Z" fill="black"/>
<path opacity="0.4" d="M365.164 73.0176H356.438V250.496H365.164V73.0176Z" fill="black"/>
<path d="M360.806 106.487C359.953 106.487 359.135 106.148 358.532 105.545C357.93 104.942 357.591 104.124 357.591 103.272V85.2111C357.591 84.3584 357.93 83.5407 358.532 82.9377C359.135 82.3348 359.953 81.9961 360.806 81.9961C361.659 81.9961 362.476 82.3348 363.079 82.9377C363.682 83.5407 364.021 84.3584 364.021 85.2111V103.346C364.002 104.185 363.654 104.984 363.053 105.571C362.453 106.158 361.646 106.487 360.806 106.487Z" fill="#00BD62"/>
<path opacity="0.4" d="M360.806 106.487C359.953 106.487 359.135 106.148 358.532 105.545C357.93 104.942 357.591 104.124 357.591 103.272V85.2111C357.591 84.3584 357.93 83.5407 358.532 82.9377C359.135 82.3348 359.953 81.9961 360.806 81.9961C361.659 81.9961 362.476 82.3348 363.079 82.9377C363.682 83.5407 364.021 84.3584 364.021 85.2111V103.346C364.002 104.185 363.654 104.984 363.053 105.571C362.453 106.158 361.646 106.487 360.806 106.487Z" fill="white"/>
<path d="M463.161 107.5C461.679 114.76 460.316 128.08 465.398 132.924C461.283 139.598 455.149 144.787 447.886 147.74C438.167 141.651 442.819 132.924 442.819 132.924C450.923 130.983 450.716 124.983 449.293 119.338L463.161 107.5Z" fill="#FF8B7B"/>
<path d="M468.01 137.221C473.299 133.576 473.684 126.657 473.684 126.657C473.684 126.657 454.424 121.724 443.934 124.687C440.719 127.146 435.593 131.724 435.593 131.724C435.593 131.724 436.897 134.687 442.823 136.554C448.749 138.421 468.01 137.221 468.01 137.221Z" fill="#263238"/>
<path d="M490.394 142.836C494.009 148.052 497.254 153.207 500.335 158.675C503.485 164.099 506.334 169.693 508.869 175.431C509.491 176.913 510.128 178.394 510.691 179.876L511.121 181.002L511.343 181.565L511.447 181.846L511.625 182.365C512.065 183.727 512.251 185.158 512.173 186.587C512.009 188.803 511.405 190.964 510.395 192.943C509.589 194.578 508.626 196.131 507.521 197.581C503.494 202.72 498.66 207.173 493.209 210.767L489.179 206.055C492.949 201.752 496.307 197.104 499.209 192.173C499.788 191.091 500.284 189.967 500.691 188.81C500.996 188.033 501.128 187.198 501.076 186.365C501.076 186.143 500.987 186.054 500.943 186.084L500.839 185.847L500.602 185.358L500.157 184.365C499.565 183.061 498.883 181.772 498.246 180.469C496.932 177.861 495.535 175.273 494.053 172.705C492.572 170.127 491.09 167.564 489.609 165.03C486.512 159.978 483.282 154.852 480.082 149.992L490.394 142.836Z" fill="#FF8B7B"/>
<path d="M491.312 204.781L478.126 203.788L485.415 213.878C485.415 213.878 493.223 212.915 495.06 208.174L491.312 204.781Z" fill="#FF8B7B"/>
<path d="M469.563 209.507L476.142 217.626L487.372 213.492L478.127 203.788L469.563 209.507Z" fill="#FF8B7B"/>
<path d="M485.55 135.546L477.164 146.984L477.772 161.104L492.009 174.023C492.009 174.023 499.314 168.823 505.67 163.563C497.699 145.295 490.498 137.028 485.55 135.546Z" fill="#00BD62"/>
<path opacity="0.2" d="M482.512 146.392L478.067 161.297L482.853 165.638C482.157 155.207 482.512 146.392 482.512 146.392Z" fill="black"/>
<path d="M420.685 144.258C420.493 153.147 421.737 171.593 427.975 209.966H477.697C476.867 189.728 475.874 177.045 485.549 135.502C478.905 134.149 472.17 133.287 465.399 132.924C457.882 132.39 450.337 132.39 442.82 132.924C437.961 133.368 432.76 134.154 428.804 134.835C426.567 135.217 424.532 136.367 423.05 138.086C421.569 139.806 420.732 141.988 420.685 144.258Z" fill="#00BD62"/>
<path opacity="0.2" d="M430.407 147.71L421.518 162.126C421.977 167.252 422.658 173.401 423.621 180.75L430.866 176.453C433.859 154.644 430.407 147.71 430.407 147.71Z" fill="black"/>
<path d="M431.858 151.563C429.858 158.452 427.725 165.297 425.517 172.113C423.309 178.928 421.072 185.758 418.776 192.544L418.331 193.818L417.62 195.477C417.142 196.496 416.603 197.486 416.005 198.44C414.842 200.273 413.48 201.972 411.946 203.507C409.049 206.377 405.726 208.781 402.093 210.634C395.237 214.071 387.802 216.206 380.166 216.93L379.144 210.811C382.372 209.823 385.534 208.63 388.611 207.241C391.637 205.911 394.533 204.304 397.263 202.441C399.844 200.757 402.165 198.705 404.153 196.351C405.067 195.281 405.852 194.108 406.493 192.855C406.813 192.273 407.09 191.669 407.323 191.047L407.62 190.218L407.975 188.943C409.812 182.054 411.709 175.209 413.724 168.379C415.739 161.549 417.694 154.734 419.872 147.963L431.858 151.563Z" fill="#FF8B7B"/>
<path d="M433.37 144.807C431.281 139.799 424.703 136.555 424.703 136.555C417.636 141.162 414.717 145.978 410.021 169.386C417.547 172.764 428.748 172.735 428.748 172.735L434.852 156.986C434.852 156.986 435.474 149.815 433.37 144.807Z" fill="#00BD62"/>
<path d="M381.688 210.159L369.332 209.966L377.199 219.611C377.199 219.611 384.933 218.13 386.489 213.344L381.688 210.159Z" fill="#FF8B7B"/>
<path d="M361.127 216.174L368.15 223.893L377.202 219.611L369.335 209.966L361.127 216.174Z" fill="#FF8B7B"/>
<path d="M437.294 92.3587C437.131 93.3217 436.465 94.0181 435.813 93.9144C435.161 93.8106 434.805 92.9217 434.983 91.9439C435.161 90.966 435.813 90.2697 436.465 90.4623C437.117 90.6549 437.428 91.3809 437.294 92.3587Z" fill="#263238"/>
<path d="M436.736 90.4917L434.514 89.4102C434.514 89.4102 435.388 91.4399 436.736 90.4917Z" fill="#263238"/>
<path d="M436.881 86.2695C436.776 86.2256 436.686 86.1515 436.622 86.0566C436.559 85.9617 436.525 85.8502 436.525 85.7361C436.525 85.622 436.559 85.5105 436.622 85.4156C436.686 85.3207 436.776 85.2466 436.881 85.2028C437.701 84.7804 438.61 84.5601 439.533 84.5601C440.456 84.5601 441.365 84.7804 442.185 85.2028C442.314 85.2852 442.407 85.4147 442.443 85.5639C442.479 85.7131 442.455 85.8705 442.378 86.0028C442.341 86.0691 442.291 86.1273 442.231 86.1739C442.171 86.2205 442.103 86.2544 442.029 86.2738C441.956 86.2932 441.879 86.2975 441.804 86.2866C441.729 86.2757 441.657 86.2497 441.592 86.2102C440.944 85.8762 440.225 85.702 439.496 85.702C438.767 85.702 438.048 85.8762 437.4 86.2102C437.325 86.2624 437.238 86.2952 437.148 86.3055C437.057 86.3159 436.966 86.3035 436.881 86.2695Z" fill="#263238"/>
<path d="M437.223 95.5439C435.967 97.6115 434.431 99.4961 432.66 101.144C433.093 101.586 433.616 101.927 434.195 102.145C434.773 102.362 435.392 102.451 436.009 102.404L437.223 95.5439Z" fill="#FF5652"/>
<path d="M470.826 94.1662C467.982 106.019 467.033 111.041 459.907 116.108C449.195 123.724 435.313 117.59 434.572 105.204C433.92 94.018 438.676 76.5798 451.21 73.8981C453.971 73.2938 456.84 73.4052 459.546 74.2218C462.251 75.0383 464.703 76.5329 466.669 78.5636C468.634 80.5943 470.048 83.0937 470.775 85.8245C471.503 88.5552 471.521 91.4267 470.826 94.1662Z" fill="#FF8B7B"/>
<path d="M482.124 99.7554C483.275 89.7486 476.096 80.7037 466.089 79.5529C456.082 78.4022 447.037 85.5814 445.886 95.5882C444.736 105.595 451.915 114.64 461.922 115.791C471.928 116.941 480.973 109.762 482.124 99.7554Z" fill="#263238"/>
<path d="M451.58 94.6852C464.914 85.9143 485.36 81.1436 480.915 67.5131C477.33 56.5346 460.929 56.016 448.321 61.1571C431.031 68.1502 438.261 103.441 451.58 94.6852Z" fill="#263238"/>
<path d="M468.543 75.2169C468.427 75.2176 468.312 75.1896 468.208 75.1354C468.105 75.0811 468.017 75.0023 467.951 74.9057L453.905 55.3637C453.821 55.2024 453.797 55.0159 453.838 54.8384C453.88 54.661 453.985 54.5046 454.133 54.3981C454.281 54.2917 454.462 54.2423 454.644 54.2591C454.825 54.2759 454.994 54.3578 455.12 54.4896L469.151 74.0464C469.263 74.2044 469.308 74.3997 469.278 74.5908C469.247 74.7818 469.143 74.9533 468.988 75.0687C468.861 75.1679 468.704 75.2203 468.543 75.2169Z" fill="#00BD62"/>
<path d="M477.119 80.1509C476.966 80.1502 476.816 80.1038 476.69 80.0175C476.61 79.9614 476.541 79.8899 476.489 79.8073C476.437 79.7247 476.401 79.6325 476.385 79.536C476.368 79.4396 476.371 79.3409 476.393 79.2455C476.415 79.1502 476.455 79.0601 476.512 78.9804L490.542 59.4384C490.656 59.2773 490.83 59.1681 491.024 59.1347C491.219 59.1014 491.418 59.1467 491.58 59.2606C491.741 59.3746 491.85 59.5479 491.883 59.7423C491.917 59.9368 491.871 60.1366 491.757 60.2977L477.712 79.8546C477.644 79.9474 477.555 80.0227 477.451 80.0743C477.348 80.1258 477.235 80.1521 477.119 80.1509Z" fill="#00BD62"/>
<path d="M484.324 100.739C494.248 94.5717 498.263 83.0872 493.292 75.088C488.32 67.0889 476.245 65.6042 466.321 71.7719C456.397 77.9395 452.382 89.4241 457.353 97.4232C462.324 105.422 474.399 106.907 484.324 100.739Z" fill="#263238"/>
<path d="M427.979 209.966C427.979 209.966 432.171 302.165 432.986 339.501C433.816 378.348 434.186 469.05 434.186 469.05H443.994C443.994 469.05 459.625 393.667 455.002 339.501C461.996 297.913 466.722 209.966 466.722 209.966H427.979Z" fill="#FF8B7B"/>
<path d="M440.969 209.966C440.969 209.966 464.318 306.521 473.875 342.627C483.905 380.54 497.447 466.235 497.58 469.05H506.054C506.054 469.05 508.721 370.051 495.313 336.389C495.313 294.209 477.756 209.966 477.756 209.966H440.969Z" fill="#FF8B7B"/>
<path d="M500.409 466.68C507.639 465.48 507.625 469.006 508.232 472.799C508.669 475.076 508.33 477.434 507.269 479.496C504.854 483.733 507.269 490 499.105 490C490.942 490 490.142 488.222 492.216 484.429C494.146 480.601 495.456 476.49 496.098 472.251C496.513 470.058 497.194 467.213 500.409 466.68Z" fill="#263238"/>
<path d="M507.791 473.821C507.968 478.71 508.443 490 508.443 490H507.154C507.154 490 505.672 477.969 504.798 474.725L507.791 473.821Z" fill="#263238"/>
<path d="M450.08 98.3591C449.171 100.52 447.446 102.235 445.279 103.13C442.316 104.3 440.598 101.796 441.116 98.8925C441.575 96.2701 443.65 92.5217 446.687 92.5958C447.349 92.6282 447.993 92.8249 448.561 93.1681C449.129 93.5113 449.602 93.9903 449.939 94.5619C450.275 95.1335 450.464 95.7798 450.489 96.4427C450.513 97.1056 450.373 97.7641 450.08 98.3591Z" fill="#FF8B7B"/>
<g opacity="0.2">
<path opacity="0.2" d="M432.88 334.923C432.88 336.523 432.954 338.049 432.984 339.501C433.117 345.427 433.235 352.731 433.339 360.673L455.8 355.339C455.696 349.931 455.43 344.612 455 339.501C455.444 336.819 455.889 333.945 456.333 330.908L432.88 334.923Z" fill="black"/>
<path opacity="0.2" d="M495.211 336.39C495.211 332.671 495.062 328.626 494.811 324.33L470.172 328.537C471.535 333.841 472.765 338.612 473.831 342.627C474.483 345.086 475.145 347.734 475.817 350.568L498.04 345.294C497.28 342.271 496.335 339.297 495.211 336.39Z" fill="black"/>
</g>
<path d="M427.979 209.966L429.46 356.791L499.094 341.975C500.191 258.192 493.657 229.212 477.73 209.966H427.979Z" fill="#263238"/>
<path opacity="0.2" d="M474.866 246.206C474.866 246.206 461.324 257.466 444.73 261.199C462.02 259.881 470.791 255.021 474.866 246.206Z" fill="black"/>
<path d="M426.094 200.736C426.239 203.896 426.551 207.047 427.027 210.174C427.116 211.063 427.368 217.849 427.649 219.389C427.931 220.93 484.794 220.026 483.668 217.671C482.542 215.315 478.882 210.5 478.882 209.463C478.882 208.426 478.497 200.766 478.023 200.129C477.549 199.492 426.375 198.336 426.094 200.736Z" fill="#00BD62"/>
<path opacity="0.2" d="M426.094 200.736C426.239 203.896 426.551 207.047 427.027 210.174C427.116 211.063 427.368 217.849 427.649 219.389C427.931 220.93 484.794 220.026 483.668 217.671C482.542 215.315 478.882 210.5 478.882 209.463C478.882 208.426 478.497 200.766 478.023 200.129C477.549 199.492 426.375 198.336 426.094 200.736Z" fill="white"/>
<path d="M434.14 465.479C431.592 472.813 424.214 485.881 424.214 485.881L438.215 482.014L445.089 471.213L443.608 468.369L434.14 465.479Z" fill="#FF8B7B"/>
<path d="M445.696 467.554C446.293 468.805 446.578 470.183 446.526 471.569C446.437 476.591 445.874 489.94 445.874 489.94H444.704C444.71 485.833 444.502 481.729 444.081 477.643C443.489 474.324 442.052 480.177 439.829 483.466C437.607 486.755 433.251 489.763 425.577 489.94C416.598 490.163 412.968 489.763 415.576 487.585C418.183 485.407 424.095 484.014 424.095 484.014C426.532 483.949 428.909 483.246 430.989 481.975C433.069 480.703 434.779 478.908 435.948 476.769C438.614 471.954 441.874 467.168 444.081 466.042C444.45 466.151 444.788 466.344 445.068 466.606C445.349 466.869 445.564 467.193 445.696 467.554Z" fill="#263238"/>
</svg>
