<svg width="38" height="40" viewBox="0 0 38 40" fill="none" xmlns="http://www.w3.org/2000/svg">
<rect width="37.4603" height="40" rx="8" fill="#E5FFF3"/>
<path d="M19 10C16.4364 10.0073 13.9735 10.9989 12.12 12.77V11C12.12 10.7348 12.0146 10.4804 11.8271 10.2929C11.6396 10.1054 11.3852 10 11.12 10C10.8548 10 10.6004 10.1054 10.4129 10.2929C10.2254 10.4804 10.12 10.7348 10.12 11V15.5C10.12 15.7652 10.2254 16.0196 10.4129 16.2071C10.6004 16.3946 10.8548 16.5 11.12 16.5H15.62C15.8852 16.5 16.1396 16.3946 16.3271 16.2071C16.5146 16.0196 16.62 15.7652 16.62 15.5C16.62 15.2348 16.5146 14.9804 16.3271 14.7929C16.1396 14.6054 15.8852 14.5 15.62 14.5H13.22C14.5058 13.1564 16.2195 12.3027 18.0665 12.0857C19.9136 11.8687 21.7785 12.302 23.3407 13.311C24.9028 14.3201 26.0646 15.8419 26.6263 17.6148C27.188 19.3877 27.1145 21.3009 26.4184 23.0254C25.7223 24.7499 24.4472 26.1781 22.8122 27.0643C21.1772 27.9505 19.2845 28.2394 17.4596 27.8813C15.6346 27.5232 13.9915 26.5405 12.8126 25.1022C11.6337 23.6638 10.9928 21.8597 11 20C11 19.7348 10.8946 19.4804 10.7071 19.2929C10.5196 19.1054 10.2652 19 10 19C9.73478 19 9.48043 19.1054 9.29289 19.2929C9.10536 19.4804 9 19.7348 9 20C9 21.9778 9.58649 23.9112 10.6853 25.5557C11.7841 27.2002 13.3459 28.4819 15.1732 29.2388C17.0004 29.9957 19.0111 30.1937 20.9509 29.8079C22.8907 29.422 24.6725 28.4696 26.0711 27.0711C27.4696 25.6725 28.422 23.8907 28.8079 21.9509C29.1937 20.0111 28.9957 18.0004 28.2388 16.1732C27.4819 14.3459 26.2002 12.7841 24.5557 11.6853C22.9112 10.5865 20.9778 10 19 10ZM19 16C18.7348 16 18.4804 16.1054 18.2929 16.2929C18.1054 16.4804 18 16.7348 18 17V20C18 20.2652 18.1054 20.5196 18.2929 20.7071C18.4804 20.8946 18.7348 21 19 21H21C21.2652 21 21.5196 20.8946 21.7071 20.7071C21.8946 20.5196 22 20.2652 22 20C22 19.7348 21.8946 19.4804 21.7071 19.2929C21.5196 19.1054 21.2652 19 21 19H20V17C20 16.7348 19.8946 16.4804 19.7071 16.2929C19.5196 16.1054 19.2652 16 19 16Z" fill="#00BD62"/>
</svg>
