<svg width="38" height="40" viewBox="0 0 38 40" fill="none" xmlns="http://www.w3.org/2000/svg">
<rect width="37.4603" height="40" rx="8" fill="#E5FFF3"/>
<path d="M30 29V27C29.9993 26.1137 29.7044 25.2528 29.1614 24.5523C28.6184 23.8519 27.8581 23.3516 27 23.13" stroke="#00BD62" stroke-width="2" stroke-linecap="round" stroke-linejoin="round"/>
<path d="M24 29V27C24 25.9391 23.5786 24.9217 22.8284 24.1716C22.0783 23.4214 21.0609 23 20 23H12C10.9391 23 9.92172 23.4214 9.17157 24.1716C8.42143 24.9217 8 25.9391 8 27V29" stroke="#00BD62" stroke-width="2" stroke-linecap="round" stroke-linejoin="round"/>
<path d="M23 11.13C23.8604 11.3503 24.623 11.8507 25.1676 12.5523C25.7122 13.2539 26.0078 14.1168 26.0078 15.005C26.0078 15.8932 25.7122 16.7561 25.1676 17.4577C24.623 18.1593 23.8604 18.6597 23 18.88" stroke="#00BD62" stroke-width="2" stroke-linecap="round" stroke-linejoin="round"/>
<path d="M16 19C18.2091 19 20 17.2091 20 15C20 12.7909 18.2091 11 16 11C13.7909 11 12 12.7909 12 15C12 17.2091 13.7909 19 16 19Z" stroke="#00BD62" stroke-width="2" stroke-linecap="round" stroke-linejoin="round"/>
</svg>
