<svg width="45" height="48" viewBox="0 0 45 48" fill="none" xmlns="http://www.w3.org/2000/svg">
<rect width="44.9524" height="48" rx="8" fill="#EDFFF7"/>
<path d="M31.3327 13.3334H28.666V12C28.666 11.6464 28.5255 11.3073 28.2755 11.0572C28.0254 10.8072 27.6863 10.6667 27.3327 10.6667C26.9791 10.6667 26.6399 10.8072 26.3899 11.0572C26.1398 11.3073 25.9993 11.6464 25.9993 12V13.3334H17.9993V12C17.9993 11.6464 17.8589 11.3073 17.6088 11.0572C17.3588 10.8072 17.0196 10.6667 16.666 10.6667C16.3124 10.6667 15.9733 10.8072 15.7232 11.0572C15.4732 11.3073 15.3327 11.6464 15.3327 12V13.3334H12.666C11.6051 13.3334 10.5877 13.7548 9.83759 14.5049C9.08744 15.2551 8.66602 16.2725 8.66602 17.3334V33.3334C8.66602 34.3942 9.08744 35.4116 9.83759 36.1618C10.5877 36.9119 11.6051 37.3334 12.666 37.3334H31.3327C32.3935 37.3334 33.411 36.9119 34.1611 36.1618C34.9113 35.4116 35.3327 34.3942 35.3327 33.3334V17.3334C35.3327 16.2725 34.9113 15.2551 34.1611 14.5049C33.411 13.7548 32.3935 13.3334 31.3327 13.3334ZM32.666 33.3334C32.666 33.687 32.5255 34.0261 32.2755 34.2762C32.0254 34.5262 31.6863 34.6667 31.3327 34.6667H12.666C12.3124 34.6667 11.9733 34.5262 11.7232 34.2762C11.4732 34.0261 11.3327 33.687 11.3327 33.3334V24H32.666V33.3334ZM32.666 21.3334H11.3327V17.3334C11.3327 16.9797 11.4732 16.6406 11.7232 16.3905C11.9733 16.1405 12.3124 16 12.666 16H15.3327V17.3334C15.3327 17.687 15.4732 18.0261 15.7232 18.2762C15.9733 18.5262 16.3124 18.6667 16.666 18.6667C17.0196 18.6667 17.3588 18.5262 17.6088 18.2762C17.8589 18.0261 17.9993 17.687 17.9993 17.3334V16H25.9993V17.3334C25.9993 17.687 26.1398 18.0261 26.3899 18.2762C26.6399 18.5262 26.9791 18.6667 27.3327 18.6667C27.6863 18.6667 28.0254 18.5262 28.2755 18.2762C28.5255 18.0261 28.666 17.687 28.666 17.3334V16H31.3327C31.6863 16 32.0254 16.1405 32.2755 16.3905C32.5255 16.6406 32.666 16.9797 32.666 17.3334V21.3334Z" fill="#00BD62"/>
</svg>
