<svg width="38" height="40" viewBox="0 0 38 40" fill="none" xmlns="http://www.w3.org/2000/svg">
<rect width="37.4603" height="40" rx="8" fill="#E5FFF3"/>
<path d="M28 19H24.06C23.9903 18.9906 23.9197 18.9906 23.85 19H23.68C23.6277 19.0299 23.5776 19.0633 23.53 19.1C23.4743 19.1368 23.4209 19.1769 23.37 19.22C23.3366 19.2609 23.3065 19.3044 23.28 19.35C23.2342 19.413 23.194 19.48 23.16 19.55L21.56 23.96L17.39 12.66C17.3199 12.467 17.1921 12.3002 17.0239 12.1823C16.8558 12.0645 16.6554 12.0012 16.45 12.0012C16.2446 12.0012 16.0442 12.0645 15.8761 12.1823C15.7079 12.3002 15.5801 12.467 15.51 12.66L13.2 19H10C9.73478 19 9.48043 19.1054 9.29289 19.2929C9.10536 19.4805 9 19.7348 9 20C9 20.2653 9.10536 20.5196 9.29289 20.7072C9.48043 20.8947 9.73478 21 10 21H13.92H14.15H14.3C14.3568 20.9727 14.4105 20.9391 14.46 20.9C14.5157 20.8633 14.5691 20.8232 14.62 20.78L14.71 20.65C14.7577 20.5883 14.7979 20.5212 14.83 20.45L16.45 15.92L20.61 27.34C20.6799 27.5333 20.8076 27.7004 20.9758 27.8185C21.144 27.9366 21.3445 28 21.55 28C21.7555 28 21.956 27.9366 22.1242 27.8185C22.2924 27.7004 22.4201 27.5333 22.49 27.34L24.79 21H28C28.2652 21 28.5196 20.8947 28.7071 20.7072C28.8946 20.5196 29 20.2653 29 20C29 19.7348 28.8946 19.4805 28.7071 19.2929C28.5196 19.1054 28.2652 19 28 19Z" fill="#00BD62"/>
</svg>
