<svg width="20" height="20" viewBox="0 0 20 20" fill="none" xmlns="http://www.w3.org/2000/svg">
<path d="M16.6658 8.05833V7.91666C16.6709 6.49911 16.2211 5.11732 15.3826 3.97434C14.5441 2.83136 13.3612 1.98746 12.0075 1.56666H11.9575C11.2584 1.35352 10.5299 1.25227 9.79916 1.26666C8.05902 1.36216 6.42091 2.11812 5.21916 3.38027C4.01741 4.64241 3.34261 6.3156 3.33249 8.05833C2.84417 8.23011 2.42121 8.54925 2.12201 8.97168C1.8228 9.39411 1.66211 9.899 1.66211 10.4167C1.66211 10.9343 1.8228 11.4392 2.12201 11.8616C2.42121 12.2841 2.84417 12.6032 3.33249 12.775C3.50413 14.4206 4.28159 15.9437 5.51372 17.048C6.74585 18.1523 8.34461 18.7589 9.99916 18.75H10.1908C11.7908 18.6726 13.3116 18.0307 14.4832 16.9384C15.6549 15.8461 16.4016 14.374 16.5908 12.7833C17.0849 12.6213 17.5161 12.3092 17.8245 11.8905C18.1329 11.4718 18.303 10.9675 18.3113 10.4475C18.3196 9.92764 18.1655 9.41809 17.8706 8.98985C17.5756 8.56162 17.1545 8.236 16.6658 8.05833ZM10.1492 17.0833C8.94282 17.1182 7.76457 16.7156 6.83183 15.9498C5.89908 15.184 5.27479 14.1067 5.07416 12.9167H14.8825C14.6791 14.0432 14.1008 15.068 13.2415 15.8244C12.3822 16.5808 11.2924 17.0245 10.1492 17.0833ZM15.8325 11.25H4.16583C3.94481 11.25 3.73285 11.1622 3.57657 11.0059C3.42029 10.8496 3.33249 10.6377 3.33249 10.4167C3.33249 10.1956 3.42029 9.98369 3.57657 9.82741C3.73285 9.67113 3.94481 9.58333 4.16583 9.58333H5.83249C6.05351 9.58333 6.26547 9.49553 6.42175 9.33925C6.57803 9.18297 6.66583 8.97101 6.66583 8.75C6.66583 8.52898 6.57803 8.31702 6.42175 8.16074C6.26547 8.00446 6.05351 7.91666 5.83249 7.91666H4.99916C5.03646 7.05217 5.28355 6.20974 5.71909 5.46205C6.15464 4.71437 6.76556 4.08388 7.49916 3.625V6.25C7.49916 6.47101 7.58696 6.68297 7.74324 6.83925C7.89952 6.99553 8.11148 7.08333 8.33249 7.08333C8.55351 7.08333 8.76547 6.99553 8.92175 6.83925C9.07803 6.68297 9.16583 6.47101 9.16583 6.25V2.99166C9.39202 2.95387 9.62016 2.92883 9.84916 2.91666H9.99916C10.2784 2.9206 10.557 2.94567 10.8325 2.99166V6.25C10.8325 6.47101 10.9203 6.68297 11.0766 6.83925C11.2329 6.99553 11.4448 7.08333 11.6658 7.08333C11.8868 7.08333 12.0988 6.99553 12.2551 6.83925C12.4114 6.68297 12.4992 6.47101 12.4992 6.25V3.6C12.8527 3.80468 13.1824 4.04783 13.4825 4.325C13.963 4.79158 14.3448 5.34993 14.6053 5.96691C14.8659 6.58389 14.9998 7.24693 14.9992 7.91666H14.1658C13.9448 7.91666 13.7329 8.00446 13.5766 8.16074C13.4203 8.31702 13.3325 8.52898 13.3325 8.75C13.3325 8.97101 13.4203 9.18297 13.5766 9.33925C13.7329 9.49553 13.9448 9.58333 14.1658 9.58333H15.8325C16.0535 9.58333 16.2655 9.67113 16.4217 9.82741C16.578 9.98369 16.6658 10.1956 16.6658 10.4167C16.6658 10.6377 16.578 10.8496 16.4217 11.0059C16.2655 11.1622 16.0535 11.25 15.8325 11.25Z" fill="#A3A3A3"/>
</svg>
