<svg width="20" height="20" viewBox="0 0 20 20" fill="none" xmlns="http://www.w3.org/2000/svg">
<path d="M17.4994 8.67499H15.416C15.3058 8.67545 15.1967 8.69778 15.0951 8.7407C14.9936 8.78361 14.9015 8.84625 14.8244 8.92499L13.791 9.99999L11.4577 7.34166C11.3797 7.2584 11.2855 7.19203 11.1809 7.14665C11.0763 7.10128 10.9634 7.07787 10.8494 7.07787C10.7353 7.07787 10.6225 7.10128 10.5178 7.14665C10.4132 7.19203 10.319 7.2584 10.241 7.34166L8.82436 8.75833H7.49936C7.27835 8.75833 7.06638 8.84612 6.9101 9.00241C6.75382 9.15869 6.66603 9.37065 6.66603 9.59166C6.66603 9.81267 6.75382 10.0246 6.9101 10.1809C7.06638 10.3372 7.27835 10.425 7.49936 10.425H9.16603C9.2757 10.4256 9.38442 10.4046 9.48595 10.3631C9.58748 10.3217 9.67983 10.2606 9.75769 10.1833L10.8327 9.06666L13.166 11.725C13.2413 11.8108 13.3334 11.8802 13.4366 11.929C13.5398 11.9777 13.6519 12.0047 13.766 12.0083C13.8757 12.009 13.9844 11.9879 14.0859 11.9465C14.1875 11.905 14.2798 11.8439 14.3577 11.7667L15.7744 10.3417H17.4994C17.7204 10.3417 17.9323 10.2539 18.0886 10.0976C18.2449 9.9413 18.3327 9.72934 18.3327 9.50833C18.3327 9.28731 18.2449 9.07535 18.0886 8.91907C17.9323 8.76279 17.7204 8.67499 17.4994 8.67499ZM11.341 13.0917L9.75769 14.675C9.68022 14.7531 9.58806 14.8151 9.48651 14.8574C9.38496 14.8997 9.27604 14.9215 9.16603 14.9215C9.05602 14.9215 8.94709 14.8997 8.84554 14.8574C8.744 14.8151 8.65183 14.7531 8.57436 14.675L4.23269 10.3333C3.94696 10.0478 3.72029 9.7087 3.56564 9.3355C3.411 8.96231 3.3314 8.5623 3.3314 8.15833C3.3314 7.75436 3.411 7.35435 3.56564 6.98115C3.72029 6.60796 3.94696 6.26889 4.23269 5.98333C4.80908 5.4088 5.58971 5.08619 6.40353 5.08619C7.21734 5.08619 7.99797 5.4088 8.57436 5.98333C8.65183 6.06143 8.744 6.12343 8.84554 6.16574C8.94709 6.20804 9.05602 6.22983 9.16603 6.22983C9.27604 6.22983 9.38496 6.20804 9.48651 6.16574C9.58806 6.12343 9.68022 6.06143 9.75769 5.98333C10.3432 5.42643 11.1204 5.11587 11.9285 5.11587C12.7366 5.11587 13.5138 5.42643 14.0994 5.98333C14.285 6.17145 14.4473 6.3813 14.5827 6.60833C14.704 6.77517 14.8829 6.89108 15.0848 6.93362C15.2867 6.97616 15.4971 6.94231 15.6755 6.83861C15.8538 6.73492 15.9874 6.56876 16.0503 6.37229C16.1132 6.17581 16.101 5.96299 16.016 5.77499C15.8101 5.43295 15.5639 5.11681 15.2827 4.83333C14.4919 4.0332 13.4419 3.54091 12.321 3.44471C11.2001 3.3485 10.0816 3.65467 9.16603 4.30833C8.45841 3.79857 7.62371 3.49422 6.75406 3.42887C5.8844 3.36351 5.0136 3.5397 4.23774 3.93797C3.46189 4.33624 2.81114 4.94112 2.35733 5.68585C1.90352 6.43059 1.66429 7.28622 1.66603 8.15833C1.66578 8.7784 1.78866 9.39235 2.02756 9.96456C2.26646 10.5368 2.61661 11.0558 3.05769 11.4917L7.39936 15.8333C7.86811 16.3015 8.50352 16.5645 9.16603 16.5645C9.82853 16.5645 10.4639 16.3015 10.9327 15.8333L12.4994 14.2667C12.6546 14.1105 12.7417 13.8993 12.7417 13.6792C12.7417 13.459 12.6546 13.2478 12.4994 13.0917C12.344 12.9415 12.1363 12.8575 11.9202 12.8575C11.7041 12.8575 11.4964 12.9415 11.341 13.0917Z" fill="#A3A3A3"/>
</svg>
