<svg width="20" height="20" viewBox="0 0 20 20" fill="none" xmlns="http://www.w3.org/2000/svg">
<path d="M10.834 11.6667H7.50065C7.27964 11.6667 7.06768 11.7545 6.9114 11.9108C6.75511 12.067 6.66732 12.279 6.66732 12.5C6.66732 12.721 6.75511 12.933 6.9114 13.0893C7.06768 13.2455 7.27964 13.3333 7.50065 13.3333H10.834C11.055 13.3333 11.267 13.2455 11.4232 13.0893C11.5795 12.933 11.6673 12.721 11.6673 12.5C11.6673 12.279 11.5795 12.067 11.4232 11.9108C11.267 11.7545 11.055 11.6667 10.834 11.6667ZM14.1673 3.33334H13.184C13.0121 2.84705 12.6939 2.42584 12.2732 2.12745C11.8525 1.82907 11.3498 1.66812 10.834 1.66667H9.16732C8.65153 1.66812 8.14882 1.82907 7.7281 2.12745C7.30738 2.42584 6.98925 2.84705 6.81732 3.33334H5.83398C5.17094 3.33334 4.53506 3.59673 4.06622 4.06557C3.59738 4.53441 3.33398 5.1703 3.33398 5.83334V15.8333C3.33398 16.4964 3.59738 17.1323 4.06622 17.6011C4.53506 18.0699 5.17094 18.3333 5.83398 18.3333H14.1673C14.8304 18.3333 15.4662 18.0699 15.9351 17.6011C16.4039 17.1323 16.6673 16.4964 16.6673 15.8333V5.83334C16.6673 5.1703 16.4039 4.53441 15.9351 4.06557C15.4662 3.59673 14.8304 3.33334 14.1673 3.33334ZM8.33398 4.16667C8.33398 3.94566 8.42178 3.7337 8.57806 3.57742C8.73434 3.42114 8.9463 3.33334 9.16732 3.33334H10.834C11.055 3.33334 11.267 3.42114 11.4232 3.57742C11.5795 3.7337 11.6673 3.94566 11.6673 4.16667V5.00001H8.33398V4.16667ZM15.0007 15.8333C15.0007 16.0544 14.9129 16.2663 14.7566 16.4226C14.6003 16.5789 14.3883 16.6667 14.1673 16.6667H5.83398C5.61297 16.6667 5.40101 16.5789 5.24473 16.4226C5.08845 16.2663 5.00065 16.0544 5.00065 15.8333V5.83334C5.00065 5.61232 5.08845 5.40036 5.24473 5.24408C5.40101 5.0878 5.61297 5.00001 5.83398 5.00001H6.66732V5.83334C6.66732 6.05435 6.75511 6.26631 6.9114 6.42259C7.06768 6.57887 7.27964 6.66667 7.50065 6.66667H12.5007C12.7217 6.66667 12.9336 6.57887 13.0899 6.42259C13.2462 6.26631 13.334 6.05435 13.334 5.83334V5.00001H14.1673C14.3883 5.00001 14.6003 5.0878 14.7566 5.24408C14.9129 5.40036 15.0007 5.61232 15.0007 5.83334V15.8333ZM12.5007 8.33334H7.50065C7.27964 8.33334 7.06768 8.42114 6.9114 8.57742C6.75511 8.7337 6.66732 8.94566 6.66732 9.16667C6.66732 9.38769 6.75511 9.59965 6.9114 9.75593C7.06768 9.91221 7.27964 10 7.50065 10H12.5007C12.7217 10 12.9336 9.91221 13.0899 9.75593C13.2462 9.59965 13.334 9.38769 13.334 9.16667C13.334 8.94566 13.2462 8.7337 13.0899 8.57742C12.9336 8.42114 12.7217 8.33334 12.5007 8.33334Z" fill="#A3A3A3"/>
</svg>
