<svg width="20" height="20" viewBox="0 0 20 20" fill="none" xmlns="http://www.w3.org/2000/svg">
<path d="M10.0007 11.6667C9.77964 11.6667 9.56768 11.7545 9.4114 11.9108C9.25511 12.067 9.16732 12.279 9.16732 12.5V14.1667C9.16732 14.3877 9.25511 14.5996 9.4114 14.7559C9.56768 14.9122 9.77964 15 10.0007 15C10.2217 15 10.4336 14.9122 10.5899 14.7559C10.7462 14.5996 10.834 14.3877 10.834 14.1667V12.5C10.834 12.279 10.7462 12.067 10.5899 11.9108C10.4336 11.7545 10.2217 11.6667 10.0007 11.6667ZM10.3173 9.23334C10.1665 9.16339 9.99814 9.14018 9.83398 9.16667L9.68398 9.21667L9.53398 9.29167L9.40898 9.39167C9.32973 9.47151 9.26745 9.56657 9.22592 9.67112C9.18439 9.77567 9.16445 9.88754 9.16732 10C9.16668 10.1097 9.1877 10.2184 9.22917 10.3199C9.27065 10.4215 9.33175 10.5138 9.40898 10.5917C9.48824 10.6675 9.58169 10.727 9.68398 10.7667C9.78288 10.8133 9.89134 10.8362 10.0007 10.8333C10.1103 10.834 10.219 10.813 10.3206 10.7715C10.4221 10.73 10.5145 10.6689 10.5923 10.5917C10.6696 10.5138 10.7307 10.4215 10.7721 10.3199C10.8136 10.2184 10.8346 10.1097 10.834 10C10.8346 9.89033 10.8136 9.78161 10.7721 9.68008C10.7307 9.57855 10.6696 9.48621 10.5923 9.40834C10.5113 9.33473 10.4183 9.27554 10.3173 9.23334ZM16.6673 7.45001C16.6586 7.37345 16.6419 7.29803 16.6173 7.22501V7.15001C16.5772 7.06432 16.5238 6.98556 16.459 6.91667L11.459 1.91667C11.3901 1.85185 11.3113 1.79841 11.2257 1.75834H11.1423C11.0613 1.71501 10.9742 1.68411 10.884 1.66667H5.83398C5.17094 1.66667 4.53506 1.93006 4.06622 2.3989C3.59738 2.86775 3.33398 3.50363 3.33398 4.16667V15.8333C3.33398 16.4964 3.59738 17.1323 4.06622 17.6011C4.53506 18.0699 5.17094 18.3333 5.83398 18.3333H14.1673C14.8304 18.3333 15.4662 18.0699 15.9351 17.6011C16.4039 17.1323 16.6673 16.4964 16.6673 15.8333V7.50001C16.6673 7.50001 16.6673 7.50001 16.6673 7.45001ZM11.6673 4.50834L13.8257 6.66667H12.5007C12.2796 6.66667 12.0677 6.57887 11.9114 6.42259C11.7551 6.26631 11.6673 6.05435 11.6673 5.83334V4.50834ZM15.0007 15.8333C15.0007 16.0544 14.9129 16.2663 14.7566 16.4226C14.6003 16.5789 14.3883 16.6667 14.1673 16.6667H5.83398C5.61297 16.6667 5.40101 16.5789 5.24473 16.4226C5.08845 16.2663 5.00065 16.0544 5.00065 15.8333V4.16667C5.00065 3.94566 5.08845 3.7337 5.24473 3.57742C5.40101 3.42114 5.61297 3.33334 5.83398 3.33334H10.0007V5.83334C10.0007 6.49638 10.264 7.13227 10.7329 7.60111C11.2017 8.06995 11.8376 8.33334 12.5007 8.33334H15.0007V15.8333Z" fill="#A3A3A3"/>
</svg>
