<svg width="496" height="325" viewBox="0 0 496 325" fill="none" xmlns="http://www.w3.org/2000/svg">
<path d="M40.9749 0.59375H455.167C456.281 0.59375 457.385 0.81329 458.415 1.23986C459.445 1.66643 460.381 2.29169 461.169 3.07989C461.957 3.86809 462.582 4.80381 463.009 5.83365C463.435 6.86348 463.655 7.96726 463.655 9.08195V308.713H32.4867V9.16145C32.4762 8.04009 32.688 6.92776 33.1099 5.88873C33.5317 4.8497 34.1553 3.90459 34.9445 3.10794C35.7338 2.3113 36.6731 1.67892 37.7081 1.24738C38.7432 0.815848 39.8535 0.593701 40.9749 0.59375Z" fill="#263238"/>
<path d="M455.163 19.6973H40.9707V284.421H455.163V19.6973Z" fill="#EDFFF7"/>
<path opacity="0.2" d="M244.297 15.0654C246.58 15.0654 248.432 13.2142 248.432 10.9307C248.432 8.6471 246.58 6.7959 244.297 6.7959C242.013 6.7959 240.162 8.6471 240.162 10.9307C240.162 13.2142 242.013 15.0654 244.297 15.0654Z" fill="white"/>
<path opacity="0.2" d="M252.861 14.0322C254.574 14.0322 255.962 12.6438 255.962 10.9311C255.962 9.21847 254.574 7.83008 252.861 7.83008C251.148 7.83008 249.76 9.21847 249.76 10.9311C249.76 12.6438 251.148 14.0322 252.861 14.0322Z" fill="white"/>
<path opacity="0.2" d="M249.757 289.848C249.214 289.657 248.643 289.557 248.068 289.55C246.994 289.55 245.945 289.868 245.052 290.464C244.16 291.061 243.464 291.908 243.054 292.9C242.643 293.892 242.535 294.983 242.745 296.035C242.954 297.088 243.471 298.055 244.23 298.814C244.989 299.573 245.956 300.09 247.009 300.299C248.061 300.509 249.153 300.401 250.144 299.99C251.136 299.58 251.983 298.884 252.58 297.992C253.176 297.099 253.494 296.05 253.494 294.977C253.505 294.878 253.505 294.778 253.494 294.679C252.457 294.344 251.545 293.703 250.878 292.841C250.212 291.979 249.821 290.936 249.757 289.848Z" fill="white"/>
<path d="M495.799 304.498V308.474C495.792 309.706 495.391 310.904 494.654 311.891C493.917 312.879 492.883 313.604 491.704 313.961L461.687 322.747C457.959 323.858 454.088 324.421 450.198 324.417H45.9848C42.1007 324.42 38.2369 323.857 34.5148 322.747L4.47818 313.881C3.2952 313.528 2.2569 312.804 1.51613 311.816C0.775356 310.829 0.371244 309.629 0.363281 308.395V304.419L495.799 304.498Z" fill="#263238"/>
<path opacity="0.2" d="M495.799 304.498V308.474C495.792 309.706 495.391 310.904 494.654 311.891C493.917 312.879 492.883 313.604 491.704 313.961L461.687 322.747C457.959 323.858 454.088 324.421 450.198 324.417H45.9848C42.1007 324.42 38.2369 323.857 34.5148 322.747L4.47818 313.881C3.2952 313.528 2.2569 312.804 1.51613 311.816C0.775356 310.829 0.371244 309.629 0.363281 308.395V304.419L495.799 304.498Z" fill="white"/>
<path opacity="0.2" d="M495.799 304.499V308.475C495.798 309.505 495.516 310.515 494.984 311.397H1.17831C0.64605 310.515 0.364265 309.505 0.363281 308.475V304.499H495.799Z" fill="white"/>
<path opacity="0.2" d="M282.943 304.499V306.209C282.943 306.43 282.899 306.65 282.814 306.855C282.729 307.06 282.605 307.246 282.448 307.403C282.291 307.56 282.105 307.685 281.9 307.77C281.695 307.855 281.475 307.898 281.253 307.898H214.938C214.714 307.901 214.493 307.859 214.285 307.775C214.078 307.692 213.889 307.568 213.73 307.41C213.571 307.253 213.445 307.066 213.359 306.86C213.273 306.653 213.229 306.432 213.229 306.209V304.499H282.943Z" fill="black"/>
<path opacity="0.1" d="M455.163 19.6973C455.163 19.6973 397.892 247.089 40.9707 284.421V19.6973H455.163Z" fill="white"/>
<path d="M431.719 26.6457V221.265L399.308 253.675H271.157C269.833 253.671 268.565 253.142 267.63 252.204C266.695 251.267 266.17 249.996 266.17 248.672V26.6457C266.17 25.3215 266.695 24.0513 267.63 23.1135C268.565 22.1757 269.833 21.6468 271.157 21.6427H426.685C427.344 21.6386 427.998 21.765 428.609 22.0146C429.219 22.2641 429.775 22.632 430.242 23.097C430.71 23.562 431.082 24.1149 431.335 24.7239C431.588 25.3329 431.719 25.986 431.719 26.6457Z" fill="#00BD62"/>
<path opacity="0.6" d="M431.719 35.1445V221.265L399.308 253.675H271.157C269.833 253.671 268.565 253.142 267.63 252.204C266.695 251.267 266.17 249.996 266.17 248.672V35.1445H431.719Z" fill="white"/>
<path opacity="0.6" d="M427.369 27.8263C427.372 28.3063 427.233 28.7765 426.968 29.1771C426.704 29.5777 426.326 29.8908 425.884 30.0766C425.441 30.2625 424.953 30.3127 424.482 30.221C424.011 30.1292 423.577 29.8996 423.237 29.5612C422.896 29.2229 422.664 28.791 422.569 28.3204C422.474 27.8498 422.521 27.3617 422.704 26.9179C422.887 26.4741 423.198 26.0946 423.597 25.8276C423.996 25.5606 424.465 25.418 424.945 25.418C425.263 25.416 425.578 25.4768 425.872 25.5969C426.166 25.717 426.433 25.894 426.658 26.1179C426.883 26.3417 427.062 26.6079 427.184 26.9011C427.306 27.1943 427.369 27.5087 427.369 27.8263Z" fill="white"/>
<path opacity="0.6" d="M418.139 27.8263C418.139 28.3026 417.998 28.7682 417.733 29.1643C417.468 29.5603 417.092 29.869 416.652 30.0513C416.212 30.2335 415.728 30.2812 415.261 30.1883C414.794 30.0954 414.364 29.866 414.028 29.5292C413.691 29.1924 413.461 28.7633 413.369 28.2961C413.276 27.829 413.323 27.3447 413.506 26.9047C413.688 26.4646 413.997 26.0885 414.393 25.8239C414.789 25.5593 415.254 25.418 415.731 25.418C416.047 25.416 416.361 25.4769 416.655 25.5972C416.948 25.7175 417.214 25.8948 417.438 26.1188C417.662 26.3428 417.839 26.6091 417.96 26.9023C418.08 27.1954 418.141 27.5095 418.139 27.8263Z" fill="white"/>
<path opacity="0.6" d="M408.926 27.8263C408.929 28.307 408.789 28.7777 408.524 29.1787C408.259 29.5797 407.88 29.8927 407.437 30.0781C406.993 30.2635 406.504 30.3128 406.033 30.2198C405.561 30.1267 405.128 29.8956 404.788 29.5557C404.448 29.2158 404.217 28.7825 404.124 28.3109C404.031 27.8392 404.08 27.3506 404.266 26.9071C404.451 26.4636 404.764 26.0852 405.165 25.82C405.566 25.5549 406.037 25.4149 406.517 25.418C407.156 25.418 407.769 25.6718 408.22 26.1234C408.672 26.575 408.926 27.1876 408.926 27.8263Z" fill="white"/>
<path d="M366.771 50.1377H278.054C277.642 50.1377 277.246 49.974 276.955 49.6826C276.664 49.3913 276.5 48.9961 276.5 48.584C276.5 48.1719 276.664 47.7767 276.955 47.4853C277.246 47.194 277.642 47.0303 278.054 47.0303H366.771C367.183 47.0303 367.578 47.194 367.87 47.4853C368.161 47.7767 368.325 48.1719 368.325 48.584C368.325 48.9961 368.161 49.3913 367.87 49.6826C367.578 49.974 367.183 50.1377 366.771 50.1377Z" fill="#00BD62"/>
<path d="M341.7 58.6367H277.997C277.585 58.6367 277.19 58.473 276.898 58.1817C276.607 57.8903 276.443 57.4951 276.443 57.083C276.443 56.6709 276.607 56.2757 276.898 55.9844C277.19 55.693 277.585 55.5293 277.997 55.5293H341.7C342.112 55.5293 342.507 55.693 342.798 55.9844C343.09 56.2757 343.253 56.6709 343.253 57.083C343.253 57.4951 343.09 57.8903 342.798 58.1817C342.507 58.473 342.112 58.6367 341.7 58.6367Z" fill="#00BD62"/>
<path d="M410.477 189.863H297.056C296.644 189.863 296.248 189.7 295.957 189.408C295.666 189.117 295.502 188.722 295.502 188.31C295.502 187.898 295.666 187.502 295.957 187.211C296.248 186.92 296.644 186.756 297.056 186.756H410.477C410.889 186.756 411.285 186.92 411.576 187.211C411.867 187.502 412.031 187.898 412.031 188.31C412.031 188.722 411.867 189.117 411.576 189.408C411.285 189.7 410.889 189.863 410.477 189.863Z" fill="#00BD62"/>
<path d="M391.514 223.813H278.093C277.681 223.813 277.286 223.65 276.994 223.358C276.703 223.067 276.539 222.672 276.539 222.26C276.539 221.848 276.703 221.453 276.994 221.161C277.286 220.87 277.681 220.706 278.093 220.706H391.514C391.926 220.706 392.322 220.87 392.613 221.161C392.904 221.453 393.068 221.848 393.068 222.26C393.068 222.672 392.904 223.067 392.613 223.358C392.322 223.65 391.926 223.813 391.514 223.813Z" fill="#00BD62"/>
<path d="M410.477 198.378H278.054C277.642 198.378 277.246 198.214 276.955 197.923C276.664 197.631 276.5 197.236 276.5 196.824C276.5 196.412 276.664 196.017 276.955 195.726C277.246 195.434 277.642 195.271 278.054 195.271H410.477C410.889 195.271 411.285 195.434 411.576 195.726C411.867 196.017 412.031 196.412 412.031 196.824C412.031 197.236 411.867 197.631 411.576 197.923C411.285 198.214 410.889 198.378 410.477 198.378Z" fill="#00BD62"/>
<path d="M410.477 206.847H278.054C277.642 206.847 277.246 206.683 276.955 206.392C276.664 206.1 276.5 205.705 276.5 205.293C276.5 204.881 276.664 204.486 276.955 204.194C277.246 203.903 277.642 203.739 278.054 203.739H410.477C410.889 203.739 411.285 203.903 411.576 204.194C411.867 204.486 412.031 204.881 412.031 205.293C412.031 205.705 411.867 206.1 411.576 206.392C411.285 206.683 410.889 206.847 410.477 206.847Z" fill="#00BD62"/>
<path d="M410.477 215.33H278.054C277.642 215.33 277.246 215.166 276.955 214.875C276.664 214.584 276.5 214.188 276.5 213.776C276.5 213.364 276.664 212.969 276.955 212.678C277.246 212.386 277.642 212.223 278.054 212.223H410.477C410.889 212.223 411.285 212.386 411.576 212.678C411.867 212.969 412.031 213.364 412.031 213.776C412.031 214.188 411.867 214.584 411.576 214.875C411.285 215.166 410.889 215.33 410.477 215.33Z" fill="#00BD62"/>
<path opacity="0.5" d="M431.69 221.265L399.279 253.675V221.265H431.69Z" fill="#00BD62"/>
<path opacity="0.4" d="M431.689 35.1445H422.537V221.265H431.689V35.1445Z" fill="black"/>
<path d="M427.055 132.391C426.161 132.391 425.303 132.036 424.671 131.403C424.039 130.771 423.684 129.914 423.684 129.019V110.002C423.704 109.121 424.068 108.283 424.698 107.668C425.328 107.052 426.174 106.708 427.055 106.708C427.498 106.708 427.936 106.795 428.345 106.965C428.754 107.134 429.126 107.382 429.439 107.696C429.752 108.009 430.001 108.38 430.17 108.789C430.34 109.198 430.427 109.637 430.427 110.08V129.097C430.406 129.978 430.042 130.816 429.412 131.431C428.782 132.047 427.936 132.391 427.055 132.391Z" fill="#00BD62"/>
<path d="M410.477 143.252H297.056C296.644 143.252 296.248 143.088 295.957 142.797C295.666 142.506 295.502 142.11 295.502 141.698C295.502 141.286 295.666 140.891 295.957 140.6C296.248 140.308 296.644 140.145 297.056 140.145H410.477C410.889 140.145 411.285 140.308 411.576 140.6C411.867 140.891 412.031 141.286 412.031 141.698C412.031 142.11 411.867 142.506 411.576 142.797C411.285 143.088 410.889 143.252 410.477 143.252Z" fill="#00BD62"/>
<path d="M391.514 177.201H278.093C277.681 177.201 277.286 177.038 276.994 176.746C276.703 176.455 276.539 176.06 276.539 175.647C276.539 175.235 276.703 174.84 276.994 174.549C277.286 174.257 277.681 174.094 278.093 174.094H391.514C391.926 174.094 392.322 174.257 392.613 174.549C392.904 174.84 393.068 175.235 393.068 175.647C393.068 176.06 392.904 176.455 392.613 176.746C392.322 177.038 391.926 177.201 391.514 177.201Z" fill="#00BD62"/>
<path d="M410.477 151.767H278.054C277.642 151.767 277.246 151.603 276.955 151.312C276.664 151.02 276.5 150.625 276.5 150.213C276.5 149.801 276.664 149.406 276.955 149.114C277.246 148.823 277.642 148.659 278.054 148.659H410.477C410.889 148.659 411.285 148.823 411.576 149.114C411.867 149.406 412.031 149.801 412.031 150.213C412.031 150.625 411.867 151.02 411.576 151.312C411.285 151.603 410.889 151.767 410.477 151.767Z" fill="#00BD62"/>
<path d="M410.477 160.234H278.054C277.642 160.234 277.246 160.071 276.955 159.779C276.664 159.488 276.5 159.093 276.5 158.681C276.5 158.269 276.664 157.873 276.955 157.582C277.246 157.291 277.642 157.127 278.054 157.127H410.477C410.889 157.127 411.285 157.291 411.576 157.582C411.867 157.873 412.031 158.269 412.031 158.681C412.031 159.093 411.867 159.488 411.576 159.779C411.285 160.071 410.889 160.234 410.477 160.234Z" fill="#00BD62"/>
<path d="M410.477 168.719H278.054C277.642 168.719 277.246 168.555 276.955 168.264C276.664 167.972 276.5 167.577 276.5 167.165C276.5 166.753 276.664 166.358 276.955 166.066C277.246 165.775 277.642 165.611 278.054 165.611H410.477C410.889 165.611 411.285 165.775 411.576 166.066C411.867 166.358 412.031 166.753 412.031 167.165C412.031 167.577 411.867 167.972 411.576 168.264C411.285 168.555 410.889 168.719 410.477 168.719Z" fill="#00BD62"/>
<path d="M410.466 68.751H277.654V118.315H410.466V68.751Z" fill="#00BD62"/>
<path opacity="0.2" d="M277.654 110.36H281.274V101.348H285.438V83.5579H291.249V94.5116H299.235V109.07H308.76V98.9242H316.637L321.842 93.7037V81.6313H325.027V98.9242H333.044V105.077H341.341V73.6918L343.641 71.3923V79.9999H348.939V83.8687L354.02 88.9649V98.1474H361.322V90.8759H380.371V85.4535H384.675V75.9758H386.213V90.8759H388.637L394.121 85.3913H399.28V80.4349H401.89V85.4535H405.261V105.994H408.928V95.7391L410.482 95.8323V68.751H277.654V110.36Z" fill="black"/>
<path d="M410.477 126.162H374.741C374.329 126.162 373.934 125.998 373.643 125.707C373.351 125.416 373.188 125.02 373.188 124.608C373.188 124.196 373.351 123.801 373.643 123.51C373.934 123.218 374.329 123.055 374.741 123.055H410.477C410.889 123.055 411.284 123.218 411.575 123.51C411.867 123.801 412.03 124.196 412.03 124.608C412.03 125.02 411.867 125.416 411.575 125.707C411.284 125.998 410.889 126.162 410.477 126.162Z" fill="#00BD62"/>
<path opacity="0.2" d="M334.876 25.5605V176.3L308.871 199.219H266.551V30.3075C266.551 29.0665 267.11 27.8761 268.107 26.9972C269.104 26.1183 270.456 25.6226 271.868 25.6188L334.876 25.5605Z" fill="black"/>
<path opacity="0.4" d="M427.055 132.391C426.161 132.391 425.303 132.036 424.671 131.403C424.039 130.771 423.684 129.914 423.684 129.019V110.002C423.704 109.121 424.068 108.283 424.698 107.668C425.328 107.052 426.174 106.708 427.055 106.708C427.498 106.708 427.936 106.795 428.345 106.965C428.754 107.134 429.126 107.382 429.439 107.696C429.752 108.009 430.001 108.38 430.17 108.789C430.34 109.198 430.427 109.637 430.427 110.08V129.097C430.406 129.978 430.042 130.816 429.412 131.431C428.782 132.047 427.936 132.391 427.055 132.391Z" fill="white"/>
<path d="M235.547 50.8985V245.517L203.136 277.928H75.0167C73.6925 277.924 72.424 277.395 71.4891 276.457C70.5543 275.519 70.0293 274.249 70.0293 272.925V50.8985C70.0293 49.5743 70.5543 48.3041 71.4891 47.3663C72.424 46.4285 73.6925 45.8996 75.0167 45.8955H230.544C231.871 45.8955 233.143 46.4226 234.082 47.3608C235.02 48.2991 235.547 49.5716 235.547 50.8985Z" fill="#00BD62"/>
<path opacity="0.6" d="M235.547 59.4131V245.533L203.136 277.944H75.0167C73.6925 277.94 72.424 277.411 71.4891 276.473C70.5543 275.535 70.0293 274.265 70.0293 272.941V59.4131H235.547Z" fill="white"/>
<path opacity="0.6" d="M231.291 52.0948C231.294 52.5749 231.154 53.045 230.89 53.4456C230.626 53.8463 230.248 54.1593 229.805 54.3452C229.363 54.531 228.875 54.5812 228.404 54.4895C227.933 54.3977 227.499 54.1681 227.159 53.8298C226.818 53.4914 226.586 53.0596 226.491 52.589C226.396 52.1184 226.443 51.6303 226.626 51.1865C226.809 50.7427 227.12 50.3632 227.519 50.0962C227.918 49.8291 228.387 49.6866 228.867 49.6866C229.185 49.6845 229.499 49.7453 229.793 49.8654C230.087 49.9855 230.355 50.1626 230.58 50.3864C230.805 50.6102 230.984 50.8764 231.106 51.1696C231.228 51.4628 231.291 51.7773 231.291 52.0948Z" fill="white"/>
<path opacity="0.6" d="M221.965 52.0948C221.968 52.5755 221.828 53.0463 221.563 53.4472C221.298 53.8482 220.919 54.1613 220.476 54.3466C220.032 54.532 219.544 54.5813 219.072 54.4883C218.6 54.3953 218.167 54.1641 217.827 53.8242C217.487 53.4843 217.256 53.051 217.163 52.5794C217.07 52.1078 217.119 51.6191 217.305 51.1756C217.49 50.7321 217.803 50.3537 218.204 50.0886C218.605 49.8234 219.076 49.6835 219.556 49.6866C219.873 49.6845 220.187 49.7454 220.481 49.8657C220.774 49.986 221.04 50.1633 221.264 50.3873C221.488 50.6114 221.665 50.8777 221.786 51.1708C221.906 51.4639 221.967 51.778 221.965 52.0948Z" fill="white"/>
<path opacity="0.6" d="M212.785 52.0948C212.788 52.5749 212.649 53.045 212.384 53.4456C212.12 53.8463 211.742 54.1593 211.3 54.3452C210.857 54.531 210.369 54.5812 209.898 54.4895C209.427 54.3977 208.993 54.1681 208.653 53.8298C208.312 53.4914 208.08 53.0596 207.985 52.589C207.89 52.1184 207.938 51.6303 208.121 51.1865C208.303 50.7427 208.614 50.3632 209.013 50.0962C209.412 49.8291 209.881 49.6866 210.361 49.6866C210.679 49.6845 210.994 49.7453 211.288 49.8654C211.582 49.9855 211.849 50.1626 212.074 50.3864C212.299 50.6102 212.478 50.8764 212.6 51.1696C212.722 51.4628 212.785 51.7773 212.785 52.0948Z" fill="white"/>
<path d="M109.476 75.2451H81.9131C81.501 75.2451 81.1058 75.0814 80.8144 74.7901C80.5231 74.4987 80.3594 74.1035 80.3594 73.6914C80.3594 73.2793 80.5231 72.8841 80.8144 72.5928C81.1058 72.3014 81.501 72.1377 81.9131 72.1377H109.476C109.888 72.1377 110.283 72.3014 110.575 72.5928C110.866 72.8841 111.03 73.2793 111.03 73.6914C111.03 74.1035 110.866 74.4987 110.575 74.7901C110.283 75.0814 109.888 75.2451 109.476 75.2451Z" fill="#00BD62"/>
<path d="M122.528 83.7285H81.9756C81.5635 83.7285 81.1683 83.5648 80.8769 83.2735C80.5856 82.9821 80.4219 82.5869 80.4219 82.1748C80.4219 81.7627 80.5856 81.3675 80.8769 81.0762C81.1683 80.7848 81.5635 80.6211 81.9756 80.6211H122.528C122.94 80.6211 123.335 80.7848 123.626 81.0762C123.918 81.3675 124.081 81.7627 124.081 82.1748C124.081 82.5869 123.918 82.9821 123.626 83.2735C123.335 83.5648 122.94 83.7285 122.528 83.7285Z" fill="#00BD62"/>
<path d="M109.929 92.2119H81.9619C81.5499 92.2119 81.1547 92.0482 80.8633 91.7569C80.5719 91.4655 80.4082 91.0703 80.4082 90.6582C80.4082 90.2461 80.5719 89.8509 80.8633 89.5596C81.1547 89.2682 81.5499 89.1045 81.9619 89.1045H109.929C110.341 89.1045 110.736 89.2682 111.028 89.5596C111.319 89.8509 111.483 90.2461 111.483 90.6582C111.483 91.0703 111.319 91.4655 111.028 91.7569C110.736 92.0482 110.341 92.2119 109.929 92.2119Z" fill="#00BD62"/>
<path d="M214.325 231.223H100.903C100.491 231.223 100.096 231.059 99.8047 230.768C99.5133 230.476 99.3496 230.081 99.3496 229.669C99.3496 229.257 99.5133 228.862 99.8047 228.57C100.096 228.279 100.491 228.115 100.903 228.115H214.325C214.737 228.115 215.132 228.279 215.424 228.57C215.715 228.862 215.879 229.257 215.879 229.669C215.879 230.081 215.715 230.476 215.424 230.768C215.132 231.059 214.737 231.223 214.325 231.223Z" fill="#00BD62"/>
<path d="M152.172 239.706H81.9131C81.501 239.706 81.1058 239.542 80.8144 239.251C80.5231 238.96 80.3594 238.564 80.3594 238.152C80.3594 237.74 80.5231 237.345 80.8144 237.054C81.1058 236.762 81.501 236.599 81.9131 236.599H152.172C152.584 236.599 152.98 236.762 153.271 237.054C153.562 237.345 153.726 237.74 153.726 238.152C153.726 238.564 153.562 238.96 153.271 239.251C152.98 239.542 152.584 239.706 152.172 239.706Z" fill="#00BD62"/>
<path opacity="0.5" d="M235.549 245.533L203.139 277.944V245.533H235.549Z" fill="#00BD62"/>
<path opacity="0.4" d="M235.548 59.4131H226.396V245.533H235.548V59.4131Z" fill="black"/>
<path d="M230.961 232.792C230.067 232.792 229.21 232.437 228.577 231.804C227.945 231.172 227.59 230.315 227.59 229.42V210.403C227.59 209.509 227.945 208.651 228.577 208.019C229.21 207.386 230.067 207.031 230.961 207.031C231.404 207.031 231.843 207.118 232.252 207.288C232.661 207.457 233.032 207.706 233.346 208.019C233.659 208.332 233.907 208.704 234.076 209.113C234.246 209.522 234.333 209.96 234.333 210.403V229.451C234.325 230.34 233.966 231.19 233.335 231.815C232.703 232.441 231.85 232.792 230.961 232.792Z" fill="#00BD62"/>
<path d="M214.328 75.2451H192.995C192.583 75.2451 192.188 75.0814 191.896 74.7901C191.605 74.4987 191.441 74.1035 191.441 73.6914C191.441 73.2793 191.605 72.8841 191.896 72.5928C192.188 72.3014 192.583 72.1377 192.995 72.1377H214.328C214.74 72.1377 215.135 72.3014 215.426 72.5928C215.718 72.8841 215.881 73.2793 215.881 73.6914C215.881 74.1035 215.718 74.4987 215.426 74.7901C215.135 75.0814 214.74 75.2451 214.328 75.2451Z" fill="#00BD62"/>
<path d="M214.324 83.7285H203.323C202.911 83.7285 202.516 83.5648 202.225 83.2735C201.933 82.9821 201.77 82.5869 201.77 82.1748C201.77 81.7627 201.933 81.3675 202.225 81.0762C202.516 80.7848 202.911 80.6211 203.323 80.6211H214.355C214.767 80.6211 215.162 80.7848 215.453 81.0762C215.745 81.3675 215.908 81.7627 215.908 82.1748C215.908 82.5869 215.745 82.9821 215.453 83.2735C215.162 83.5648 214.767 83.7285 214.355 83.7285H214.324Z" fill="#00BD62"/>
<path d="M214.325 114.694H100.903C100.491 114.694 100.096 114.531 99.8047 114.239C99.5133 113.948 99.3496 113.553 99.3496 113.141C99.3496 112.729 99.5133 112.333 99.8047 112.042C100.096 111.751 100.491 111.587 100.903 111.587H214.325C214.737 111.587 215.132 111.751 215.424 112.042C215.715 112.333 215.879 112.729 215.879 113.141C215.879 113.553 215.715 113.948 215.424 114.239C215.132 114.531 214.737 114.694 214.325 114.694Z" fill="#00BD62"/>
<path d="M214.321 123.178H81.9131C81.501 123.178 81.1058 123.014 80.8144 122.723C80.5231 122.431 80.3594 122.036 80.3594 121.624C80.3594 121.212 80.5231 120.817 80.8144 120.525C81.1058 120.234 81.501 120.07 81.9131 120.07H214.321C214.733 120.07 215.128 120.234 215.42 120.525C215.711 120.817 215.875 121.212 215.875 121.624C215.875 122.036 215.711 122.431 215.42 122.723C215.128 123.014 214.733 123.178 214.321 123.178Z" fill="#00BD62"/>
<path d="M136.635 131.661H81.9131C81.501 131.661 81.1058 131.497 80.8144 131.206C80.5231 130.915 80.3594 130.52 80.3594 130.107C80.3594 129.695 80.5231 129.3 80.8144 129.009C81.1058 128.717 81.501 128.554 81.9131 128.554H136.635C137.047 128.554 137.442 128.717 137.734 129.009C138.025 129.3 138.189 129.695 138.189 130.107C138.189 130.52 138.025 130.915 137.734 131.206C137.442 131.497 137.047 131.661 136.635 131.661Z" fill="#00BD62"/>
<path opacity="0.7" d="M156.057 142.926H103.883V156.909H156.057V142.926Z" fill="#00BD62"/>
<path opacity="0.3" d="M127.515 160.016H103.883V211.646H127.515V160.016Z" fill="#00BD62"/>
<path opacity="0.3" d="M186.294 160.016H159.15V211.646H186.294V160.016Z" fill="#00BD62"/>
<path opacity="0.7" d="M214.323 142.926H159.15V156.909H214.323V142.926Z" fill="#00BD62"/>
<path opacity="0.3" d="M214.34 160.016H189.418V211.646H214.34V160.016Z" fill="#00BD62"/>
<path opacity="0.5" d="M100.774 160.016H81.9121V211.646H100.774V160.016Z" fill="#00BD62"/>
<path d="M100.774 142.926H81.9121V156.909H100.774V142.926Z" fill="#00BD62"/>
<path opacity="0.3" d="M156.042 160.016H130.623V211.646H156.042V160.016Z" fill="#00BD62"/>
<path opacity="0.4" d="M230.961 232.792C230.067 232.792 229.21 232.437 228.577 231.804C227.945 231.172 227.59 230.315 227.59 229.42V210.403C227.59 209.509 227.945 208.651 228.577 208.019C229.21 207.386 230.067 207.031 230.961 207.031C231.404 207.031 231.843 207.118 232.252 207.288C232.661 207.457 233.032 207.706 233.346 208.019C233.659 208.332 233.907 208.704 234.076 209.113C234.246 209.522 234.333 209.96 234.333 210.403V229.451C234.325 230.34 233.966 231.19 233.335 231.815C232.703 232.441 231.85 232.792 230.961 232.792Z" fill="white"/>
<path opacity="0.2" d="M235.235 62.523V199.219H151.441C150.257 199.215 149.123 198.769 148.287 197.977C147.452 197.185 146.982 196.113 146.982 194.994V58.2988H230.763C231.949 58.2988 233.087 58.7439 233.925 59.5361C234.764 60.3282 235.235 61.4027 235.235 62.523Z" fill="black"/>
<path d="M353.216 1.36502L158.597 1.36502L126.186 33.7756L126.186 161.895C126.19 163.22 126.719 164.488 127.657 165.423C128.595 166.358 129.865 166.883 131.189 166.883L353.216 166.883C354.54 166.883 355.81 166.358 356.748 165.423C357.686 164.488 358.215 163.22 358.219 161.895V6.368C358.219 5.04114 357.692 3.7686 356.753 2.83035C355.815 1.89212 354.543 1.36502 353.216 1.36502Z" fill="#00BD62"/>
<path opacity="0.6" d="M347.998 1.88185L158.876 1.88185L125.943 34.2142L125.943 162.025C125.947 163.346 126.484 164.611 127.437 165.544C128.39 166.476 129.681 167 131.026 167L347.998 167V1.88185Z" fill="white"/>
<path d="M158.594 1.36189L126.183 33.7725L158.594 33.7725V1.36189Z" fill="#F4F83D"/>
<path fill-rule="evenodd" clip-rule="evenodd" d="M147.378 12.5752L137.794 22.159C138.975 24.4549 141.367 26.0254 144.127 26.0254C148.058 26.0254 151.244 22.8389 151.244 18.9082C151.244 16.1488 149.674 13.7561 147.378 12.5752Z" fill="#2F80ED"/>
<path opacity="0.4" d="M347.678 1.82855V10.3691L158.361 10.3691V1.82855L347.678 1.82855Z" fill="black"/>
<path d="M309.614 5.9497C309.614 6.84389 309.969 7.70147 310.601 8.33376C311.234 8.96605 312.091 9.32129 312.985 9.32129L331.925 9.32129C332.82 9.32129 333.677 8.96605 334.309 8.33376C334.942 7.70147 335.297 6.84389 335.297 5.9497C335.297 5.0555 334.942 4.19792 334.309 3.56563C333.677 2.93334 332.82 2.57815 331.925 2.57815L312.908 2.57815C312.027 2.59845 311.189 2.9626 310.574 3.5927C309.958 4.22281 309.614 5.0688 309.614 5.9497Z" fill="#00BD62"/>
<path opacity="0.4" d="M309.614 5.9497C309.614 6.84389 309.969 7.70147 310.601 8.33376C311.234 8.96605 312.091 9.32129 312.985 9.32129L331.925 9.32129C332.82 9.32129 333.677 8.96605 334.309 8.33376C334.942 7.70147 335.297 6.84389 335.297 5.9497C335.297 5.0555 334.942 4.19792 334.309 3.56563C333.677 2.93334 332.82 2.57815 331.925 2.57815L312.908 2.57815C312.027 2.59845 311.189 2.9626 310.574 3.5927C309.958 4.22281 309.614 5.0688 309.614 5.9497Z" fill="white"/>
<path d="M177.545 96.4164C182.958 96.4164 186.366 94.0314 187.009 89.7534H181.823C181.482 91.4192 180.233 92.5171 177.696 92.5171C174.705 92.5171 172.926 90.6242 172.775 87.3305H187.047V85.8162C187.047 78.7368 182.504 75.746 177.393 75.746C171.639 75.746 167.21 79.7968 167.21 86.0434V86.3462C167.21 92.6685 171.563 96.4164 177.545 96.4164ZM172.85 83.9612C173.267 81.1597 174.933 79.5318 177.393 79.5318C180.005 79.5318 181.52 80.9704 181.709 83.9612H172.85ZM200.597 96.4164C206.995 96.4164 210.932 92.5928 210.932 87.7848C210.932 82.1818 207.563 80.4025 201.013 79.5696C196.849 78.9639 195.978 78.0553 195.978 76.1246C195.978 74.3074 197.341 73.0581 200.029 73.0581C202.717 73.0581 204.156 74.1938 204.534 76.6546H210.175C209.683 71.2787 206.124 68.553 200.029 68.553C194.048 68.553 190.186 71.9981 190.186 76.6167C190.186 81.8411 193.025 83.9233 199.953 84.8319C203.928 85.4376 205.064 86.1948 205.064 88.3527C205.064 90.4727 203.285 91.9492 200.597 91.9492C196.584 91.9492 195.562 89.9427 195.297 87.5198H189.429C189.77 92.9335 193.177 96.4164 200.597 96.4164ZM224.093 92.2521C220.989 92.2521 219.248 89.9806 219.248 86.1948V85.8919C219.248 82.1061 221.065 79.9104 224.093 79.9104C227.16 79.9104 228.939 82.1818 228.939 85.9676V86.2326C228.939 89.9806 227.16 92.2521 224.093 92.2521ZM224.056 96.4164C229.999 96.4164 234.504 92.4414 234.504 86.1948V85.8919C234.504 79.7211 230.037 75.746 224.093 75.746C218.15 75.746 213.645 79.7968 213.645 86.0055V86.3084C213.645 92.4792 218.15 96.4164 224.056 96.4164ZM247.157 96.4164C252.911 96.4164 256.319 93.1607 256.621 88.4663H251.662C251.397 91.0027 249.618 92.2899 247.422 92.2899C244.355 92.2899 242.576 90.2456 242.576 86.2705V85.9676C242.576 82.1818 244.469 80.0618 247.308 80.0618C249.542 80.0618 250.943 81.1218 251.321 83.4312H256.508C256.016 77.7525 251.776 75.746 247.195 75.746C241.554 75.746 236.973 79.6454 236.973 86.0434V86.3462C236.973 92.8199 241.365 96.4164 247.157 96.4164ZM260.223 96H265.674V76.2003H260.223V96ZM262.911 73.5124C264.69 73.5124 266.053 72.2252 266.053 70.5216C266.053 68.818 264.69 67.5308 262.911 67.5308C261.169 67.5308 259.806 68.818 259.806 70.5216C259.806 72.2252 261.169 73.5124 262.911 73.5124ZM276.057 96.4164C279.161 96.4164 280.903 95.205 282.038 93.6149V96H287.376V83.0904C287.376 77.7146 283.931 75.746 279.085 75.746C274.24 75.746 270.53 77.8282 270.189 82.5226H275.375C275.602 80.819 276.587 79.7211 278.745 79.7211C281.243 79.7211 281.963 81.0082 281.963 83.3554V84.1505H279.729C273.672 84.1505 269.432 85.8919 269.432 90.5106C269.432 94.675 272.46 96.4164 276.057 96.4164ZM277.685 92.5928C275.678 92.5928 274.807 91.6463 274.807 90.2077C274.807 88.0877 276.662 87.4062 279.843 87.4062H281.963V89.072C281.963 91.2678 280.108 92.5928 277.685 92.5928ZM292.239 96H297.691V67.2279H292.239V96Z" fill="#00BD62"/>
</svg>
