<svg width="600" height="616" viewBox="0 0 600 616" fill="none" xmlns="http://www.w3.org/2000/svg">
<g opacity="0.3">
<path d="M74.8102 475.688C74.8102 475.688 74.8102 475.688 74.8102 475.687C74.8014 475.694 74.793 475.701 74.7849 475.709C74.793 475.701 74.8015 475.694 74.8102 475.688ZM87.4198 371.357C54.9549 396.822 49.2597 443.77 74.6863 476.255C74.6986 476.278 74.7132 476.3 74.73 476.322C136.389 554.931 235.716 593.744 334.021 578.146C337.685 577.565 341.183 579.965 341.857 583.597L345.506 603.278C346.181 606.916 343.774 610.411 340.134 611C229.588 628.869 117.788 585.339 48.4485 496.935C11.5802 449.925 19.8001 381.937 66.8023 345.068C113.812 308.199 181.8 316.419 218.669 363.422C228.918 376.496 242.491 386.508 257.906 392.453C261.389 393.796 263.408 397.523 262.353 401.058C261.218 404.861 260.082 408.663 258.947 412.465C258.173 415.056 257.4 417.646 256.626 420.237C255.566 423.788 251.833 425.801 248.38 424.553C226.329 416.58 206.907 402.565 192.381 384.041L192.029 384.317L192.381 384.041C166.899 351.555 119.906 345.875 87.4198 371.357Z" stroke="#00BD62" stroke-width="0.89266"/>
<path d="M147.355 419.934C147.355 419.934 147.355 419.934 147.355 419.934C147.302 419.974 147.238 420.005 147.165 420.019C147.239 420.004 147.303 419.974 147.355 419.934ZM123.28 417.022C130.525 411.341 140.997 412.594 146.7 419.818C146.708 419.832 146.717 419.845 146.727 419.858L146.727 419.858C205.106 494.277 310.141 511.821 389.307 461.494C392.443 459.5 396.62 460.257 398.72 463.295C400.801 466.307 402.883 469.318 404.965 472.33C406.677 474.806 408.388 477.282 410.1 479.758C412.205 482.803 411.442 486.974 408.346 488.967C384.477 504.329 357.803 514.867 329.834 519.961C250.694 534.363 170.091 503.766 120.446 440.472C114.755 433.214 116.022 422.718 123.28 417.022Z" stroke="#00BD62" stroke-width="0.89266"/>
<path d="M115.664 407.334L115.664 407.334C128.28 397.441 146.524 399.648 156.417 412.26L156.066 412.535L156.417 412.26C203.513 472.304 284.434 493.673 354.719 465.436C358.132 464.065 359.637 460.099 358.116 456.724C355.375 450.641 352.634 444.557 349.891 438.473C348.374 435.108 344.407 433.61 340.94 434.962C284.699 456.888 220.299 439.58 182.7 391.644L183.051 391.368L182.7 391.644C161.42 364.511 122.176 359.77 95.0432 381.05C67.9103 402.331 63.169 441.574 84.4495 468.707C157.728 562.133 284.346 594.519 393.167 548.514C396.562 547.079 398.059 543.105 396.527 539.737C393.764 533.662 391.001 527.588 388.236 521.513C386.707 518.152 382.739 516.667 379.315 518.097C375.586 519.655 371.817 521.113 367.999 522.474C367.999 522.474 367.999 522.474 367.999 522.475L115.664 407.334ZM115.664 407.334C103.052 417.228 100.845 435.471 110.738 448.088L111.09 447.812L115.664 407.334Z" stroke="#00BD62" stroke-width="0.89266"/>
<path d="M271.619 170.427L271.619 170.427C271.589 170.431 271.559 170.439 271.531 170.449C211.253 179.066 164.104 226.168 154.968 285.814C154.405 289.492 151.124 292.179 147.452 291.809C144.109 291.473 140.771 291.137 137.432 290.801C134.135 290.47 130.838 290.138 127.537 289.806C123.853 289.435 121.17 286.149 121.689 282.507C132.38 207.524 191.344 148.126 266.89 137.364L266.827 136.922L266.89 137.364C282.76 135.101 293.79 120.4 291.531 104.53C289.272 88.6593 274.571 77.6291 258.701 79.8882L258.764 80.3301L258.701 79.8882C161.139 93.787 83.3915 168.526 65.6603 265.477C64.9312 269.464 64.3094 273.459 63.7937 277.472C63.3204 281.154 60.048 283.848 56.3708 283.492C53.4946 283.213 50.6186 282.934 47.7429 282.655C43.9773 282.29 40.212 281.925 36.4467 281.56C32.7646 281.203 30.0713 277.92 30.5257 274.262C45.0926 157.011 136.453 63.5569 254.006 46.8084C288.139 41.9474 319.753 65.6761 324.619 99.8142C329.48 133.946 305.754 165.562 271.619 170.427ZM271.598 170.439C271.599 170.439 271.6 170.439 271.601 170.439L271.601 170.439C271.6 170.439 271.599 170.439 271.598 170.439Z" stroke="#00BD62" stroke-width="0.89266"/>
<path d="M265.125 125.139L265.125 125.139C265.092 125.144 265.061 125.152 265.032 125.163C171.439 138.544 103.771 220.719 107.783 314.41C107.942 318.123 105.198 321.362 101.518 321.661L81.5675 323.286C77.8781 323.586 74.6473 320.84 74.4693 317.163C73.0974 288.812 77.3043 260.44 86.8809 233.673L86.4606 233.522L86.8809 233.672C113.972 157.924 180.777 103.417 260.41 92.0711L260.41 92.0711C269.539 90.7677 278 97.1166 279.299 106.25C280.598 115.378 274.256 123.833 265.125 125.139Z" stroke="#00BD62" stroke-width="0.89266"/>
<path d="M252.229 34.6102C252.199 34.6145 252.169 34.6217 252.141 34.6316L252.291 35.0521L252.229 34.6101C252.229 34.6102 252.229 34.6102 252.229 34.6102Z" stroke="#00BD62" stroke-width="0.89266"/>
<mask id="path-7-inside-1_2265_3940" fill="white">
<path d="M525.701 106.226C525.701 106.226 525.701 106.227 525.701 106.227C518.819 112.105 511.934 117.986 505.05 123.865C502.051 126.426 501.707 130.932 504.19 133.996C566.75 211.208 582.77 316.458 545.58 409.018C530.276 447.102 487.001 465.568 448.916 450.264C410.832 434.96 392.366 391.685 407.67 353.6C416.48 331.677 418.915 307.765 414.78 284.604C414.087 280.721 410.216 278.353 406.379 279.265C399.889 280.809 393.4 282.354 386.91 283.897C383.073 284.81 380.731 288.659 381.342 292.556C383.888 308.801 382.013 325.477 375.848 340.814C353.484 396.474 380.474 459.725 436.13 482.086C491.79 504.45 555.041 477.46 577.402 421.8C620.242 315.186 600.322 193.6 525.7 106.227C525.699 106.227 525.7 106.226 525.701 106.226Z"/>
</mask>
<path d="M545.58 409.018L546.409 409.35L546.409 409.35L545.58 409.018ZM448.916 450.264L448.583 451.092H448.583L448.916 450.264ZM407.67 353.6L406.842 353.267V353.267L407.67 353.6ZM375.848 340.814L375.02 340.481L375.02 340.481L375.848 340.814ZM436.13 482.086L436.462 481.258H436.462L436.13 482.086ZM577.402 421.8L576.573 421.467L576.573 421.467L577.402 421.8ZM386.91 283.897L386.703 283.029L386.91 283.897ZM505.05 123.865L505.63 124.543L505.05 123.865ZM525.7 106.227L525.021 106.807L525.7 106.227ZM414.78 284.604L413.901 284.761L414.78 284.604ZM406.379 279.265L406.172 278.397L406.379 279.265ZM525.701 106.227L526.281 106.906L525.701 106.227ZM525.121 105.549C518.239 111.426 511.354 117.307 504.471 123.186L505.63 124.543C512.514 118.664 519.399 112.784 526.281 106.906L525.121 105.549ZM503.497 134.558C565.853 211.519 581.82 316.426 544.752 408.685L546.409 409.35C583.719 316.49 567.648 210.897 504.884 133.434L503.497 134.558ZM544.752 408.685C529.632 446.311 486.877 464.556 449.249 449.436L448.583 451.092C487.126 466.58 530.921 447.892 546.409 409.35L544.752 408.685ZM449.249 449.436C411.622 434.315 393.378 391.56 408.498 353.933L406.842 353.267C391.353 391.81 410.042 435.604 448.583 451.092L449.249 449.436ZM408.498 353.933C417.371 331.854 419.823 307.773 415.659 284.447L413.901 284.761C418.007 307.758 415.589 331.499 406.842 353.267L408.498 353.933ZM406.172 278.397C399.684 279.94 393.192 281.486 386.703 283.029L387.117 284.766C393.607 283.222 400.095 281.678 406.586 280.134L406.172 278.397ZM380.46 292.694C382.981 308.78 381.125 325.293 375.02 340.481L376.677 341.147C382.902 325.66 384.795 308.821 382.224 292.418L380.46 292.694ZM375.02 340.481C352.472 396.598 379.684 460.37 435.797 482.914L436.462 481.258C381.265 459.081 354.496 396.349 376.677 341.147L375.02 340.481ZM435.797 482.914C491.914 505.462 555.686 478.25 578.23 422.133L576.573 421.467C554.397 476.67 491.665 503.438 436.462 481.258L435.797 482.914ZM578.23 422.133C621.195 315.21 601.216 193.273 526.379 105.648L525.021 106.807C599.427 193.927 619.29 315.161 576.573 421.467L578.23 422.133ZM386.703 283.029C382.371 284.06 379.784 288.381 380.46 292.694L382.224 292.418C381.678 288.937 383.774 285.561 387.117 284.766L386.703 283.029ZM504.471 123.186C501.092 126.072 500.719 131.13 503.497 134.558L504.884 133.434C502.696 130.734 503.011 126.78 505.63 124.543L504.471 123.186ZM526.379 105.648C526.705 106.03 526.619 106.522 526.382 106.802C526.141 107.087 525.654 107.259 525.216 106.976L526.185 105.476C525.747 105.193 525.259 105.365 525.018 105.651C524.781 105.932 524.694 106.424 525.021 106.807L526.379 105.648ZM415.659 284.447C414.87 280.027 410.475 277.373 406.172 278.397L406.586 280.134C409.957 279.332 413.304 281.416 413.901 284.761L415.659 284.447ZM526.281 106.906C526.735 106.518 526.687 105.801 526.185 105.476L525.216 106.976C524.715 106.652 524.667 105.936 525.121 105.549L526.281 106.906Z" fill="#00BD62" mask="url(#path-7-inside-1_2265_3940)"/>
<path d="M461.142 375.059L461.144 375.055L461.142 375.059ZM461.143 375.062C496.403 287.298 459.075 187.559 375.909 144.172C372.614 142.453 371.181 138.457 372.762 135.12C374.335 131.801 375.907 128.483 377.478 125.165C378.763 122.453 380.047 119.742 381.332 117.031C382.916 113.686 386.909 112.261 390.183 113.946C415.423 126.933 437.891 144.764 456.284 166.443L456.625 166.154L456.284 166.443C508.326 227.773 522.134 312.879 492.141 387.518C488.698 396.075 478.974 400.226 470.412 396.788C461.87 393.351 457.719 383.654 461.124 375.104C461.131 375.091 461.137 375.077 461.143 375.062ZM461.174 374.91C461.181 374.692 461.043 374.543 460.895 374.482C460.895 374.482 460.895 374.482 460.895 374.481C461.055 374.543 461.182 374.692 461.174 374.91Z" stroke="#00BD62" stroke-width="0.89266"/>
<path d="M503.576 392.128L503.577 392.128C503.582 392.114 503.587 392.101 503.591 392.087C540.321 300.639 514.462 195.955 439.377 132.129L439.377 132.129C436.287 129.504 433.138 126.967 429.922 124.515C426.969 122.264 426.271 118.083 428.419 115.076L440.051 98.7906C442.202 95.7797 446.392 95.0886 449.333 97.3112C543.59 168.556 578.848 294.398 534.576 404.572C521.718 436.566 485.357 452.082 453.363 439.223C421.37 426.365 405.854 390.005 418.712 358.011L418.298 357.844L418.712 358.011C441.424 301.488 424.215 237.067 377.108 199.321C374.203 196.994 373.517 192.807 375.674 189.811C379.573 184.396 383.47 178.981 387.367 173.566C389.53 170.56 393.717 169.88 396.611 172.151C456.205 218.899 478.16 299.67 449.71 370.475C443.733 385.352 450.945 402.259 465.822 408.236C480.697 414.213 497.598 407.002 503.576 392.128Z" stroke="#00BD62" stroke-width="0.89266"/>
</g>
<path d="M531.275 120.266C532.137 114.066 523.372 108.958 516.802 108.434C513.659 108.172 510.406 108.653 507.426 107.616C500.987 105.378 498.411 97.0615 492.146 94.4093C487.442 92.4229 482.039 94.191 477.488 96.483C472.937 98.7751 468.429 101.656 463.299 101.94C458.868 102.224 454.066 100.576 450.202 102.748C447.321 104.352 445.836 107.681 443.151 109.635C440.466 111.589 437.148 111.971 433.929 112.145C430.709 112.32 427.38 112.353 424.411 113.695C421.442 115.038 419.041 118.148 419.652 121.335L531.275 120.266Z" fill="#EBEBEB"/>
<path d="M453.006 198.282C453.792 192.606 445.77 187.935 439.756 187.444C436.886 187.214 433.895 187.651 431.177 186.701C425.284 184.65 422.926 177.031 417.174 174.608C412.874 172.796 407.93 174.412 403.76 176.507C399.591 178.603 395.465 181.244 390.816 181.55C386.756 181.801 382.357 180.306 378.81 182.281C376.169 183.755 374.782 186.8 372.349 188.601C369.915 190.401 366.891 190.729 363.901 190.882C360.91 191.034 357.887 191.078 355.169 192.311C352.451 193.545 350.247 196.383 350.803 199.286L453.006 198.282Z" fill="#F5F5F5"/>
<path d="M237.282 136.747C237.97 130.395 230.919 125.167 225.626 124.632C223.094 124.37 220.474 124.861 218.073 123.803C212.889 121.467 210.793 112.954 205.761 110.247C201.985 108.217 197.63 110.018 193.963 112.364C190.296 114.711 186.672 117.669 182.568 118.007C179.01 118.291 175.136 116.61 172.025 118.826C169.7 120.474 168.478 123.879 166.338 125.887C164.199 127.896 161.514 128.278 158.917 128.452C156.319 128.627 153.623 128.67 151.277 130.046C149.957 130.841 148.893 131.998 148.21 133.379C147.528 134.76 147.255 136.307 147.424 137.839L237.282 136.747Z" fill="#EBEBEB"/>
<path d="M161.067 202.364H159.572C157.227 202.364 155.326 204.265 155.326 206.61V206.861C155.326 209.206 157.227 211.107 159.572 211.107H161.067C163.412 211.107 165.313 209.206 165.313 206.861V206.61C165.313 204.265 163.412 202.364 161.067 202.364Z" fill="#F5F5F5"/>
<path d="M165.63 206.74H155.021C153.128 206.74 151.594 208.275 151.594 210.167V211.161C151.594 213.053 153.128 214.588 155.021 214.588H165.63C167.522 214.588 169.057 213.053 169.057 211.161V210.167C169.057 208.275 167.522 206.74 165.63 206.74Z" fill="white"/>
<path d="M76.4381 295.748H82.7466V302.821H76.4381C75.9857 302.821 75.5377 302.731 75.1199 302.558C74.702 302.384 74.3225 302.13 74.0031 301.81C73.6837 301.489 73.4307 301.109 73.2586 300.691C73.0865 300.272 72.9986 299.824 73 299.372V299.164C73.0058 298.256 73.3705 297.387 74.0147 296.747C74.6588 296.107 75.53 295.748 76.4381 295.748Z" fill="white"/>
<path d="M556.257 310.505H84.9707V365.819H556.257V310.505Z" fill="#EBEBEB"/>
<path d="M285.559 366.725C285.33 367.085 410.759 365.317 410.759 365.317C410.759 365.317 414.131 319.924 457.942 319.171C501.752 318.418 505.081 363.92 505.081 363.92H565.111V231.069H285.559V366.725Z" fill="#EBEBEB"/>
<path d="M99.763 216.87L78.1523 283.568V365.819H120.097C120.097 365.819 120.206 316.835 166.156 317.654C212.105 318.472 213.426 365.819 213.426 365.819H238.322V218.845C238.323 218.006 238.159 217.174 237.839 216.398C237.519 215.622 237.049 214.917 236.456 214.323C235.863 213.729 235.158 213.258 234.383 212.936C233.608 212.615 232.776 212.449 231.937 212.449H105.842C104.493 212.452 103.178 212.88 102.086 213.674C100.995 214.468 100.181 215.586 99.763 216.87Z" fill="#F5F5F5"/>
<path d="M96.5647 226.737C96.5647 226.737 102.677 226.245 100.865 232.936C99.0532 239.627 87.1455 279.181 87.1455 279.181L78.7305 281.789L96.5647 226.737Z" fill="#EBEBEB"/>
<path d="M96.5639 226.736C96.558 226.841 96.5359 226.944 96.4984 227.042L96.2474 227.882C96.0072 228.657 95.6798 229.727 95.2541 231.091C94.3701 233.896 93.0713 237.902 91.5323 242.846C88.3453 252.789 83.8922 266.52 79.0025 281.876L78.6533 281.516L82.6589 280.272L87.0246 278.907L86.8391 279.093C91.445 263.704 95.5707 249.962 98.5285 240.019C99.2707 237.553 99.9474 235.326 100.548 233.361C100.835 232.468 100.996 231.538 101.028 230.6C101.044 229.826 100.828 229.066 100.406 228.417C100.056 227.901 99.5628 227.499 98.9869 227.26C98.5713 227.067 98.1303 226.935 97.6772 226.867C97.3061 226.802 97.0223 226.791 96.8258 226.769C96.7282 226.785 96.6287 226.785 96.5311 226.769H96.8258C97.1128 226.746 97.4011 226.746 97.6881 226.769C98.1573 226.819 98.6167 226.937 99.0524 227.118C99.6632 227.358 100.193 227.767 100.58 228.297C101.046 228.982 101.289 229.794 101.279 230.622C101.271 231.584 101.124 232.54 100.842 233.46C100.264 235.435 99.6199 237.673 98.8996 240.15C95.9636 250.104 91.9143 263.867 87.3848 279.279V279.431H87.2429L82.8772 280.796L78.8715 282.04L78.3477 282.193L78.5223 281.68C83.5429 266.29 88.0506 252.527 91.3031 242.573C92.9294 237.662 94.25 233.7 95.1668 230.917C95.6252 229.585 95.9745 228.537 96.2583 227.784C96.3783 227.446 96.4766 227.184 96.5421 226.976L96.5639 226.736Z" fill="white"/>
<path d="M118.208 231.179L106.507 264.893C106.143 265.938 106.034 267.055 106.19 268.151C106.346 269.246 106.762 270.288 107.403 271.19C108.044 272.092 108.892 272.827 109.875 273.334C110.859 273.841 111.949 274.106 113.056 274.105H149.074C150.327 274.105 151.529 273.607 152.415 272.721C153.302 271.835 153.8 270.633 153.8 269.379V230.611C153.8 230.101 153.699 229.597 153.504 229.126C153.308 228.655 153.022 228.227 152.661 227.867C152.3 227.507 151.871 227.222 151.4 227.028C150.929 226.834 150.424 226.735 149.914 226.736H124.451C123.077 226.736 121.738 227.163 120.619 227.959C119.5 228.756 118.657 229.881 118.208 231.179Z" fill="#EBEBEB"/>
<path d="M118.208 231.178C118.355 230.611 118.603 230.076 118.939 229.596C119.875 228.177 121.321 227.173 122.977 226.791C124.172 226.605 125.382 226.539 126.59 226.594H130.868H141.292H148.932C149.489 226.573 150.048 226.595 150.602 226.66C151.186 226.762 151.741 226.989 152.229 227.326C152.717 227.664 153.127 228.103 153.429 228.613C153.744 229.134 153.935 229.72 153.985 230.327C153.985 230.949 153.985 231.506 153.985 232.095C153.985 233.274 153.985 234.463 153.985 235.675C153.985 238.098 153.985 240.586 153.985 243.14C153.985 248.248 153.985 253.618 153.985 259.174V267.654C153.985 268.375 153.985 269.073 153.985 269.837C153.939 270.609 153.707 271.358 153.308 272.02C152.911 272.692 152.363 273.262 151.707 273.686C151.052 274.11 150.308 274.377 149.532 274.465H116.319C115.031 274.465 113.798 274.465 112.521 274.465C111.244 274.372 110.016 273.938 108.963 273.21C107.967 272.504 107.165 271.56 106.629 270.463C106.093 269.367 105.841 268.153 105.896 266.934C106.02 265.807 106.307 264.704 106.747 263.66C107.108 262.568 107.457 261.608 107.839 260.615C108.537 258.617 109.214 256.707 109.847 254.884L115.937 237.618L117.585 232.794L118.033 231.582C118.08 231.443 118.138 231.308 118.208 231.178C118.179 231.323 118.139 231.465 118.087 231.604L117.695 232.794C117.323 233.885 116.789 235.479 116.112 237.509L110.196 254.83L108.199 260.615L107.108 263.66C106.689 264.67 106.421 265.737 106.311 266.825C106.272 267.971 106.525 269.108 107.046 270.129C107.568 271.151 108.34 272.023 109.29 272.664C110.261 273.331 111.391 273.73 112.565 273.821C113.776 273.821 115.064 273.821 116.33 273.821H149.554C150.241 273.74 150.901 273.501 151.481 273.122C152.06 272.744 152.544 272.236 152.894 271.638C153.246 271.051 153.455 270.389 153.505 269.706C153.505 269.019 153.505 268.276 153.505 267.523C153.505 264.649 153.505 261.822 153.505 259.043C153.505 253.487 153.505 248.128 153.505 243.01C153.505 240.456 153.505 237.967 153.505 235.544C153.505 234.333 153.505 233.143 153.505 231.964C153.505 231.386 153.505 230.774 153.505 230.24C153.458 229.703 153.29 229.185 153.014 228.722C152.748 228.268 152.388 227.876 151.956 227.575C151.524 227.273 151.033 227.069 150.514 226.976C149.985 226.916 149.453 226.894 148.921 226.911H147.36H141.292H130.868H126.59C125.402 226.843 124.21 226.89 123.032 227.053C121.413 227.4 119.985 228.347 119.037 229.705C118.725 230.175 118.448 230.667 118.208 231.178Z" fill="white"/>
<path d="M238.966 222.415C238.966 222.578 207.402 222.709 168.481 222.709C129.56 222.709 97.9844 222.578 97.9844 222.415C97.9844 222.251 129.538 222.131 168.481 222.131C207.424 222.131 238.966 222.262 238.966 222.415Z" fill="white"/>
<path d="M164.399 307.383C164.235 307.383 164.115 288.458 164.115 265.112C164.115 241.766 164.235 222.829 164.399 222.829C164.563 222.829 164.683 241.755 164.683 265.112C164.683 288.469 164.552 307.383 164.399 307.383Z" fill="white"/>
<path d="M149.937 286.766C150.514 286.68 151.064 286.459 151.541 286.122C152.071 285.711 152.425 285.114 152.534 284.452C152.61 284.024 152.588 283.585 152.469 283.167C152.35 282.749 152.137 282.364 151.847 282.04C151.505 281.678 151.065 281.424 150.581 281.309C150.024 281.225 149.461 281.203 148.9 281.243H145.047H136.217C135.553 281.27 134.925 281.549 134.46 282.023C133.995 282.497 133.728 283.131 133.714 283.795C133.7 284.459 133.94 285.104 134.385 285.597C134.83 286.09 135.446 286.395 136.108 286.45L143.301 286.515L148.158 286.613C148.753 286.597 149.348 286.634 149.937 286.723C149.348 286.811 148.753 286.848 148.158 286.832L143.301 286.919L136.086 286.974C135.299 286.943 134.555 286.611 134.006 286.046C133.457 285.481 133.147 284.727 133.139 283.939C133.106 283.11 133.396 282.3 133.947 281.68C134.236 281.366 134.587 281.114 134.978 280.942C135.368 280.769 135.79 280.678 136.217 280.676H145.047H148.9C149.499 280.651 150.099 280.692 150.69 280.796C151.249 280.945 151.753 281.252 152.141 281.68C152.465 282.052 152.696 282.495 152.817 282.972C152.939 283.45 152.946 283.949 152.84 284.431C152.778 284.8 152.643 285.154 152.442 285.471C152.241 285.787 151.98 286.061 151.672 286.275C151.299 286.543 150.863 286.708 150.406 286.755C150.252 286.793 150.092 286.797 149.937 286.766Z" fill="white"/>
<path d="M94.6102 365.819C94.5936 365.692 94.5936 365.564 94.6102 365.437C94.6102 365.164 94.6102 364.804 94.6102 364.346C94.6102 363.342 94.6102 361.923 94.6102 360.111C94.6102 356.389 94.5556 351.063 94.5229 344.503C94.5229 331.297 94.5229 313.113 94.4355 293.031C94.4355 288.665 94.4355 284.375 94.4355 280.272V280.195C99.0414 263.823 103.102 249.329 106.016 238.96C107.489 233.82 108.668 229.694 109.497 226.813C109.901 225.416 110.229 224.324 110.458 223.538C110.556 223.189 110.644 222.916 110.709 222.698C110.736 222.6 110.772 222.505 110.818 222.414C110.831 222.512 110.831 222.611 110.818 222.709L110.611 223.571C110.403 224.357 110.109 225.448 109.738 226.845L106.463 239.037L94.883 280.326V293.02C94.883 313.102 94.8285 331.286 94.8066 344.492C94.8066 351.041 94.7302 356.378 94.7084 360.1C94.7084 361.912 94.7084 363.374 94.7084 364.335C94.7084 364.804 94.7084 365.164 94.7084 365.426C94.691 365.561 94.658 365.692 94.6102 365.819Z" fill="white"/>
<path d="M116.483 352.034H80.4437C76.3326 352.034 73 355.367 73 359.478V359.936C73 364.047 76.3326 367.38 80.4437 367.38H116.483C120.594 367.38 123.927 364.047 123.927 359.936V359.478C123.927 355.367 120.594 352.034 116.483 352.034Z" fill="white"/>
<path d="M207.815 226.736H188.212C180.273 226.736 173.838 233.172 173.838 241.111V260.713C173.838 268.652 180.273 275.087 188.212 275.087H207.815C215.753 275.087 222.189 268.652 222.189 260.713V241.111C222.189 233.172 215.753 226.736 207.815 226.736Z" fill="white"/>
<path d="M290.906 295.748H238.32V352.885H290.906V295.748Z" fill="#EBEBEB"/>
<path d="M365.169 282.814H296.2C291.758 282.814 288.156 286.416 288.156 290.858V344.852C288.156 349.295 291.758 352.896 296.2 352.896H365.169C369.611 352.896 373.213 349.295 373.213 344.852V290.858C373.213 286.416 369.611 282.814 365.169 282.814Z" fill="white"/>
<path d="M355.752 288.185H304.181C298.557 288.185 293.998 292.744 293.998 298.368V342.091C293.998 347.715 298.557 352.274 304.181 352.274H355.752C361.376 352.274 365.935 347.715 365.935 342.091V298.368C365.935 292.744 361.376 288.185 355.752 288.185Z" fill="#F5F5F5"/>
<path d="M307.181 304.087H307.007C305.343 304.087 303.994 305.436 303.994 307.099V316.06C303.994 317.724 305.343 319.072 307.007 319.072H307.181C308.845 319.072 310.194 317.724 310.194 316.06V307.099C310.194 305.436 308.845 304.087 307.181 304.087Z" fill="#EBEBEB"/>
<path d="M317.603 304.087H317.428C315.765 304.087 314.416 305.436 314.416 307.099V316.06C314.416 317.724 315.765 319.072 317.428 319.072H317.603C319.267 319.072 320.615 317.724 320.615 316.06V307.099C320.615 305.436 319.267 304.087 317.603 304.087Z" fill="#EBEBEB"/>
<path d="M328.025 304.087H327.85C326.187 304.087 324.838 305.436 324.838 307.099V316.06C324.838 317.724 326.187 319.072 327.85 319.072H328.025C329.689 319.072 331.037 317.724 331.037 316.06V307.099C331.037 305.436 329.689 304.087 328.025 304.087Z" fill="#EBEBEB"/>
<path d="M357.897 312.795C359.163 307.414 355.826 302.027 350.445 300.762C345.064 299.497 339.677 302.833 338.412 308.214C337.147 313.595 340.483 318.983 345.864 320.248C351.245 321.513 356.632 318.176 357.897 312.795Z" fill="white"/>
<path d="M315.003 336.361C315.003 337.54 314.653 338.692 313.997 339.673C313.342 340.653 312.411 341.417 311.321 341.867C310.232 342.318 309.033 342.435 307.877 342.205C306.72 341.974 305.659 341.405 304.826 340.571C303.993 339.736 303.426 338.673 303.197 337.517C302.968 336.36 303.088 335.161 303.541 334.073C303.993 332.984 304.759 332.054 305.74 331.4C306.722 330.747 307.875 330.399 309.054 330.401C309.836 330.401 310.611 330.556 311.333 330.855C312.055 331.155 312.712 331.594 313.264 332.147C313.817 332.701 314.255 333.358 314.553 334.081C314.851 334.804 315.004 335.579 315.003 336.361Z" fill="white"/>
<path d="M328.541 342.32C331.833 342.32 334.501 339.652 334.501 336.361C334.501 333.069 331.833 330.401 328.541 330.401C325.25 330.401 322.582 333.069 322.582 336.361C322.582 339.652 325.25 342.32 328.541 342.32Z" fill="white"/>
<path d="M353.969 336.361C353.969 337.539 353.62 338.691 352.965 339.671C352.31 340.651 351.38 341.415 350.291 341.866C349.202 342.317 348.003 342.435 346.847 342.205C345.692 341.976 344.63 341.408 343.796 340.575C342.963 339.741 342.395 338.679 342.165 337.523C341.935 336.367 342.053 335.169 342.504 334.08C342.955 332.991 343.719 332.061 344.699 331.406C345.679 330.751 346.831 330.401 348.01 330.401C348.793 330.4 349.569 330.553 350.292 330.852C351.016 331.151 351.673 331.59 352.227 332.144C352.781 332.697 353.22 333.355 353.519 334.078C353.818 334.802 353.971 335.578 353.969 336.361Z" fill="white"/>
<path d="M353.772 310.505C353.772 311.619 353.441 312.708 352.822 313.634C352.204 314.56 351.324 315.282 350.295 315.708C349.266 316.134 348.133 316.246 347.041 316.029C345.948 315.811 344.945 315.275 344.157 314.487C343.37 313.7 342.833 312.696 342.616 311.604C342.399 310.511 342.51 309.379 342.937 308.35C343.363 307.321 344.085 306.441 345.011 305.822C345.937 305.203 347.026 304.873 348.14 304.873C349.633 304.873 351.066 305.466 352.122 306.523C353.178 307.579 353.772 309.011 353.772 310.505Z" fill="#F5F5F5"/>
<path d="M391.792 280.37H565.146V294.559H391.792C389.968 294.559 388.22 293.834 386.93 292.545C385.64 291.255 384.916 289.506 384.916 287.683V287.268C384.913 286.363 385.089 285.467 385.433 284.63C385.777 283.793 386.283 283.033 386.922 282.392C387.561 281.751 388.32 281.243 389.156 280.896C389.991 280.549 390.887 280.37 391.792 280.37Z" fill="white"/>
<path d="M402.974 330.106C402.909 330.106 402.974 329.386 402.614 328.175C402.139 326.45 401.102 324.933 399.667 323.863C398.622 323.081 397.397 322.571 396.105 322.381C394.813 322.19 393.494 322.325 392.267 322.772C390.822 323.321 389.578 324.295 388.698 325.566C387.719 326.898 387.191 328.508 387.191 330.161C387.191 331.814 387.719 333.424 388.698 334.756C389.605 336.003 390.863 336.953 392.311 337.485C393.62 337.962 395.032 338.086 396.404 337.845C397.88 337.571 399.249 336.887 400.355 335.872C401.461 334.857 402.259 333.551 402.658 332.104C402.985 330.881 402.952 330.161 403.018 330.161C403.039 330.335 403.039 330.511 403.018 330.685C403.009 331.181 402.947 331.675 402.832 332.158C402.479 333.689 401.688 335.085 400.556 336.176C399.425 337.267 398.001 338.006 396.458 338.303C394.916 338.597 393.321 338.445 391.862 337.865C390.402 337.285 389.138 336.301 388.218 335.029C387.167 333.607 386.6 331.885 386.6 330.117C386.6 328.349 387.167 326.628 388.218 325.206C389.194 323.877 390.548 322.873 392.103 322.324C393.407 321.852 394.808 321.719 396.177 321.937C397.546 322.154 398.837 322.716 399.929 323.569C401.399 324.709 402.426 326.326 402.832 328.142C402.947 328.625 403.009 329.119 403.018 329.615C403.023 329.78 403.008 329.945 402.974 330.106Z" fill="white"/>
<path d="M561.715 351.281H510.515C505.844 351.281 502.057 355.068 502.057 359.74V360.253C502.057 364.925 505.844 368.712 510.515 368.712H561.715C566.387 368.712 570.174 364.925 570.174 360.253V359.74C570.174 355.068 566.387 351.281 561.715 351.281Z" fill="white"/>
<path d="M460.586 399.351C481.3 398.703 497.567 381.387 496.92 360.673C496.272 339.959 478.956 323.692 458.242 324.34C437.528 324.987 421.261 342.304 421.908 363.017C422.556 383.731 439.872 399.998 460.586 399.351Z" fill="white"/>
<path d="M421.901 361.202C421.901 361.202 421.901 361.268 421.901 361.3C421.785 366.255 422.651 371.183 424.45 375.801C426.249 380.419 428.945 384.635 432.382 388.205C435.819 391.775 439.929 394.629 444.475 396.602C449.022 398.575 453.913 399.628 458.869 399.7C463.824 399.772 468.745 398.862 473.346 397.022C477.948 395.182 482.139 392.449 485.679 388.98C489.218 385.511 492.036 381.376 493.968 376.812C495.901 372.249 496.91 367.348 496.938 362.392V362.294L421.901 361.202Z" fill="white"/>
<path d="M433.067 361.464C432.992 366.675 434.464 371.79 437.296 376.164C440.128 380.538 444.194 383.974 448.979 386.037C453.763 388.101 459.053 388.699 464.178 387.756C469.302 386.814 474.033 384.373 477.77 380.742C481.508 377.111 484.085 372.454 485.176 367.358C486.267 362.263 485.822 356.959 483.898 352.116C481.974 347.273 478.658 343.11 474.368 340.152C470.078 337.194 465.007 335.575 459.797 335.499C456.337 335.448 452.9 336.08 449.684 337.358C446.468 338.635 443.536 340.534 441.054 342.945C438.571 345.356 436.589 348.233 435.218 351.41C433.848 354.588 433.117 358.004 433.067 361.464Z" fill="#FAFAFA"/>
<path d="M459.794 335.499C452.807 335.4 446.066 338.079 441.054 342.948C436.042 347.817 433.168 354.477 433.064 361.464L485.749 362.217C485.845 355.234 483.166 348.498 478.299 343.488C473.433 338.479 466.777 335.605 459.794 335.499Z" fill="#F5F5F5"/>
<path d="M443.367 361.584C443.316 364.758 444.207 367.876 445.928 370.543C447.649 373.21 450.123 375.307 453.037 376.568C455.95 377.829 459.172 378.197 462.295 377.627C465.417 377.056 468.301 375.571 470.579 373.361C472.858 371.151 474.43 368.315 475.096 365.211C475.763 362.107 475.493 358.876 474.322 355.925C473.151 352.975 471.131 350.438 468.518 348.636C465.904 346.833 462.815 345.847 459.641 345.801C455.392 345.743 451.293 347.371 448.243 350.33C445.192 353.288 443.439 357.335 443.367 361.584Z" fill="white"/>
<path d="M169.176 399.361C189.889 398.695 206.141 381.365 205.476 360.652C204.81 339.938 187.479 323.686 166.766 324.352C146.053 325.017 129.801 342.348 130.467 363.061C131.132 383.774 148.463 400.026 169.176 399.361Z" fill="white"/>
<path d="M130.475 361.202V361.3C130.403 366.227 131.302 371.119 133.121 375.698C134.94 380.276 137.643 384.452 141.076 387.986C144.509 391.52 148.604 394.343 153.128 396.295C157.652 398.246 162.516 399.287 167.442 399.359C172.368 399.431 177.26 398.531 181.839 396.712C186.418 394.893 190.593 392.19 194.127 388.758C197.662 385.325 200.485 381.23 202.436 376.706C204.388 372.182 205.429 367.318 205.501 362.392C205.506 362.359 205.506 362.326 205.501 362.294L130.475 361.202Z" fill="white"/>
<path d="M141.651 361.464C141.578 366.672 143.051 371.784 145.883 376.155C148.716 380.526 152.78 383.959 157.563 386.02C162.347 388.08 167.633 388.677 172.755 387.734C177.877 386.79 182.605 384.349 186.34 380.72C190.075 377.09 192.65 372.434 193.739 367.341C194.828 362.248 194.383 356.947 192.46 352.107C190.537 347.267 187.221 343.106 182.933 340.149C178.645 337.193 173.577 335.575 168.37 335.499C164.91 335.448 161.474 336.08 158.259 337.358C155.044 338.636 152.112 340.534 149.63 342.946C147.149 345.357 145.167 348.234 143.798 351.411C142.429 354.589 141.699 358.005 141.651 361.464Z" fill="#FAFAFA"/>
<path d="M168.367 335.499C161.381 335.4 154.641 338.079 149.631 342.949C144.62 347.818 141.749 354.478 141.648 361.464L194.322 362.217C194.372 358.759 193.741 355.324 192.464 352.109C191.187 348.895 189.289 345.963 186.879 343.482C184.469 341.001 181.593 339.019 178.417 337.649C175.241 336.279 171.826 335.549 168.367 335.499Z" fill="#F5F5F5"/>
<path d="M151.944 361.584C151.892 364.757 152.783 367.875 154.504 370.542C156.225 373.209 158.698 375.306 161.61 376.567C164.523 377.828 167.744 378.197 170.867 377.627C173.989 377.057 176.872 375.574 179.152 373.365C181.431 371.156 183.004 368.321 183.671 365.218C184.339 362.115 184.071 358.883 182.901 355.933C181.732 352.982 179.714 350.444 177.102 348.641C174.49 346.838 171.402 345.849 168.228 345.801C163.977 345.74 159.876 347.367 156.823 350.326C153.77 353.285 152.015 357.333 151.944 361.584Z" fill="white"/>
<path d="M211.042 352.033H415.328V361.289C415.328 362.904 414.686 364.453 413.544 365.595C412.402 366.737 410.853 367.379 409.238 367.379H224.129C220.655 367.379 217.324 365.999 214.867 363.543C212.411 361.087 211.031 357.755 211.031 354.282V352.022L211.042 352.033Z" fill="white"/>
<path d="M552.458 236.985H276.443C274.315 236.985 272.59 238.71 272.59 240.838V241.067C272.59 243.195 274.315 244.92 276.443 244.92H552.458C554.586 244.92 556.311 243.195 556.311 241.067V240.838C556.311 238.71 554.586 236.985 552.458 236.985Z" fill="white"/>
<path d="M552.458 266.945H276.443C274.315 266.945 272.59 268.67 272.59 270.798V271.027C272.59 273.155 274.315 274.88 276.443 274.88H552.458C554.586 274.88 556.311 273.155 556.311 271.027V270.798C556.311 268.67 554.586 266.945 552.458 266.945Z" fill="white"/>
<path d="M291.361 240.958H285.871V267.949H291.361V240.958Z" fill="white"/>
<path d="M314.232 240.958H308.742V267.949H314.232V240.958Z" fill="white"/>
<path d="M337.099 240.958H331.609V267.949H337.099V240.958Z" fill="white"/>
<path d="M359.961 240.958H354.471V267.949H359.961V240.958Z" fill="white"/>
<path d="M382.832 240.958H377.342V267.949H382.832V240.958Z" fill="white"/>
<path d="M405.691 240.958H400.201V267.949H405.691V240.958Z" fill="white"/>
<path d="M428.56 240.958H423.07V267.949H428.56V240.958Z" fill="white"/>
<path d="M451.426 240.958H445.936V267.949H451.426V240.958Z" fill="white"/>
<path d="M474.291 240.958H468.801V267.949H474.291V240.958Z" fill="white"/>
<path d="M496.002 240.958H490.512V267.949H496.002V240.958Z" fill="white"/>
<path d="M517.699 240.958H512.209V267.949H517.699V240.958Z" fill="white"/>
<path d="M539.396 240.958H533.906V267.949H539.396V240.958Z" fill="white"/>
<path d="M219.394 352.852C219.394 352.852 219.394 352.732 219.273 352.492C219.153 352.252 219.099 351.859 218.979 351.401C218.859 350.942 218.706 350.309 218.488 349.633C218.269 348.956 217.986 348.148 217.691 347.264C217.396 346.38 216.949 345.409 216.534 344.35C216.119 343.291 215.53 342.167 214.973 340.967C213.593 338.269 212.036 335.666 210.313 333.174C205.892 326.635 200.257 321.006 193.712 316.595C191.813 315.344 189.817 314.249 187.742 313.32C185.554 312.393 183.321 311.577 181.051 310.875C178.709 310.138 176.326 309.54 173.913 309.086C171.426 308.622 168.909 308.33 166.382 308.212C161.399 307.959 156.406 308.478 151.582 309.751C147.098 310.983 142.821 312.87 138.889 315.35C129.67 321.289 122.295 329.685 117.594 339.591C117.06 340.814 116.503 341.949 116.154 343.019C115.804 344.088 115.401 345.081 115.139 345.987C114.877 346.893 114.669 347.69 114.473 348.399C114.276 349.109 114.211 349.709 114.102 350.189C113.993 350.67 113.927 351.019 113.873 351.281C113.852 351.407 113.819 351.532 113.774 351.652C113.758 351.525 113.758 351.397 113.774 351.27C113.774 350.986 113.873 350.615 113.949 350.178C114.025 349.742 114.113 349.087 114.265 348.367C114.418 347.646 114.647 346.85 114.877 345.933C115.106 345.016 115.499 344.034 115.848 342.942C116.197 341.851 116.743 340.705 117.256 339.471C118.536 336.705 120.032 334.045 121.731 331.515C126.165 324.9 131.894 319.253 138.572 314.914C142.539 312.396 146.857 310.48 151.386 309.227C156.268 307.924 161.324 307.39 166.371 307.645C168.935 307.768 171.488 308.067 174.011 308.54C176.448 309.008 178.857 309.613 181.226 310.352C183.55 311.072 185.788 311.934 187.949 312.84C190.05 313.765 192.073 314.86 193.996 316.114C200.583 320.579 206.236 326.284 210.64 332.912C212.358 335.425 213.901 338.055 215.257 340.781C215.803 342.004 216.348 343.128 216.785 344.197C217.222 345.267 217.604 346.249 217.876 347.144L218.63 349.545C218.826 350.244 218.946 350.844 219.066 351.324C219.186 351.805 219.252 352.154 219.306 352.416C219.356 352.557 219.385 352.704 219.394 352.852Z" fill="white"/>
<path d="M118.021 249.853H116.384C115.096 249.853 113.861 249.341 112.95 248.43C112.039 247.52 111.527 246.284 111.527 244.996V222.414H114.802V244.996C114.802 245.416 114.968 245.818 115.265 246.115C115.562 246.412 115.965 246.579 116.384 246.579H118.021V249.853Z" fill="white"/>
<path d="M94.6104 324.322H75.1172V337.245H94.6104V324.322Z" fill="white"/>
<path d="M102.677 296.96C102.208 297.429 102.677 337.245 102.677 337.245H118.907C118.907 337.245 130.269 312.884 156.016 308.573V296.96H102.677Z" fill="white"/>
<path d="M124.801 231.069H124.408C120.882 231.069 118.023 233.928 118.023 237.454V254.001C118.023 257.527 120.882 260.386 124.408 260.386H124.801C128.328 260.386 131.186 257.527 131.186 254.001V237.454C131.186 233.928 128.328 231.069 124.801 231.069Z" fill="#F5F5F5"/>
<path d="M243.081 351.675C242.928 351.675 242.797 339.145 242.797 323.69C242.797 308.235 242.928 295.694 243.081 295.694C243.233 295.694 243.364 308.224 243.364 323.69C243.364 339.156 243.244 351.675 243.081 351.675Z" fill="white"/>
<path d="M253.088 351.675C252.936 351.675 252.805 339.145 252.805 323.69C252.805 308.235 252.936 295.694 253.088 295.694C253.241 295.694 253.372 308.224 253.372 323.69C253.372 339.156 253.241 351.675 253.088 351.675Z" fill="white"/>
<path d="M263.098 351.675C262.935 351.675 262.814 339.145 262.814 323.69C262.814 308.235 262.935 295.694 263.098 295.694C263.262 295.694 263.382 308.224 263.382 323.69C263.382 339.156 263.251 351.675 263.098 351.675Z" fill="white"/>
<path d="M273.1 351.675C272.936 351.675 272.816 339.145 272.816 323.69C272.816 308.235 272.936 295.694 273.1 295.694C273.264 295.694 273.384 308.224 273.384 323.69C273.384 339.156 273.253 351.675 273.1 351.675Z" fill="white"/>
<path d="M283.104 351.675C282.951 351.675 282.82 339.145 282.82 323.69C282.82 308.235 282.951 295.694 283.104 295.694C283.257 295.694 283.388 308.224 283.388 323.69C283.388 339.156 283.268 351.675 283.104 351.675Z" fill="white"/>
<path d="M307.018 299.045C308.145 299.045 309.059 298.131 309.059 297.004C309.059 295.877 308.145 294.963 307.018 294.963C305.89 294.963 304.977 295.877 304.977 297.004C304.977 298.131 305.89 299.045 307.018 299.045Z" fill="white"/>
<path d="M312.625 299.045C313.752 299.045 314.666 298.131 314.666 297.004C314.666 295.877 313.752 294.963 312.625 294.963C311.498 294.963 310.584 295.877 310.584 297.004C310.584 298.131 311.498 299.045 312.625 299.045Z" fill="white"/>
<path d="M320.275 297.004C320.275 297.408 320.156 297.802 319.931 298.138C319.707 298.473 319.388 298.735 319.015 298.89C318.642 299.044 318.232 299.084 317.836 299.006C317.44 298.927 317.077 298.733 316.791 298.447C316.506 298.162 316.311 297.798 316.233 297.402C316.154 297.006 316.194 296.596 316.349 296.223C316.503 295.85 316.765 295.531 317.1 295.307C317.436 295.083 317.831 294.963 318.234 294.963C318.776 294.963 319.295 295.178 319.678 295.561C320.06 295.943 320.275 296.463 320.275 297.004Z" fill="white"/>
<path d="M456.37 319.105C456.206 319.105 456.086 313.866 456.086 307.416C456.086 300.965 456.206 295.737 456.37 295.737C456.533 295.737 456.654 300.965 456.654 307.416C456.654 313.866 456.49 319.105 456.37 319.105Z" fill="white"/>
<path d="M565.144 294.537C565.144 294.537 565.144 294.221 565.144 293.599C565.144 292.976 565.144 292.071 565.144 290.881C565.144 288.491 565.143 284.965 565.089 280.37L565.198 280.479L496.131 280.61H445.554H391.636C390.431 280.637 389.256 280.996 388.242 281.647C386.901 282.51 385.917 283.828 385.47 285.358C385.251 286.12 385.162 286.913 385.208 287.705C385.213 288.49 385.364 289.267 385.655 289.997C386.077 291.093 386.786 292.055 387.708 292.783C388.63 293.51 389.73 293.977 390.894 294.133C391.685 294.2 392.48 294.221 393.274 294.199H412.265H448.151L508.967 294.275L550.027 294.363H561.214H564.128H565.144H564.172H561.291H550.169L509.174 294.45L448.282 294.526H412.265H393.274C392.454 294.549 391.634 294.524 390.818 294.45C389.981 294.344 389.171 294.085 388.428 293.686C386.93 292.872 385.769 291.553 385.153 289.964C384.832 289.173 384.666 288.329 384.662 287.476C384.61 286.625 384.706 285.772 384.946 284.954C385.37 283.495 386.249 282.208 387.454 281.282C388.659 280.356 390.128 279.837 391.647 279.803H445.456H496.033L565.1 279.934H565.198V280.032C565.198 284.649 565.198 288.196 565.144 290.608C565.144 291.787 565.144 292.682 565.144 293.304C565.144 293.926 565.144 294.537 565.144 294.537Z" fill="white"/>
<path d="M212.718 463.973C212.718 464.137 193.17 464.257 169.06 464.257C144.95 464.257 125.402 464.137 125.402 463.973C125.402 463.81 144.95 463.689 169.06 463.689C193.17 463.689 212.718 463.82 212.718 463.973Z" fill="white"/>
<path d="M408.89 463.973C408.89 464.137 389.342 464.257 365.232 464.257C341.122 464.257 321.574 464.137 321.574 463.973C321.574 463.81 341.122 463.689 365.232 463.689C389.342 463.689 408.89 463.82 408.89 463.973Z" fill="white"/>
<path d="M176.964 508.558C178.099 509.095 179.116 509.854 179.952 510.792C180.788 511.73 181.428 512.826 181.831 514.015C182.612 516.422 182.832 518.976 182.475 521.481C181.93 526.327 179.201 531.217 176.21 535.091C172.128 531.533 171.19 525.323 170.917 522.136C170.48 517.115 172.729 507.761 176.964 508.515" fill="#00BD62"/>
<path d="M180.914 543.125C180.632 541.735 180.724 540.296 181.18 538.954C181.637 537.611 182.441 536.414 183.511 535.484C184.589 534.575 185.837 533.89 187.183 533.468C188.528 533.047 189.944 532.897 191.348 533.029C192.001 533.02 192.648 533.155 193.244 533.422C193.839 533.69 194.369 534.085 194.797 534.578C195.106 535.105 195.269 535.704 195.269 536.314C195.269 536.924 195.106 537.523 194.797 538.049C194.185 539.105 193.304 539.979 192.243 540.581C188.707 542.764 184.887 544.292 180.881 543.092" fill="#00BD62"/>
<path d="M173.863 546.039C173.37 543.104 172.186 540.329 170.407 537.944C168.629 535.558 166.308 533.63 163.636 532.319C162.272 531.664 160.493 531.228 159.369 532.254C158.245 533.28 158.496 535.092 159.052 536.499C160.248 539.425 162.283 541.931 164.902 543.701C167.52 545.471 170.605 546.425 173.765 546.443" fill="#00BD62"/>
<path d="M272.092 519.047L273.39 544.696C273.39 544.696 247.763 554.628 247.545 559.387L297.358 558.655L297.02 518.61L272.092 519.047Z" fill="#263238"/>
<path d="M288.767 542.306C289.248 542.446 289.66 542.758 289.926 543.183C290.191 543.607 290.292 544.115 290.207 544.609C290.085 545.094 289.782 545.515 289.36 545.785C288.938 546.055 288.429 546.153 287.937 546.06C287.431 545.906 286.998 545.573 286.719 545.123C286.44 544.673 286.333 544.138 286.42 543.615C286.598 543.12 286.962 542.714 287.435 542.482C287.907 542.249 288.451 542.21 288.952 542.371" fill="white"/>
<path d="M297.361 558.656L297.165 554.617L249.479 556.8C249.479 556.8 247.296 557.793 247.547 559.354L297.361 558.656Z" fill="#455A64"/>
<path d="M272.58 544.456C272.58 544.696 273.813 544.784 275.014 545.548C276.214 546.312 276.88 547.327 277.098 547.229C277.316 547.13 276.945 545.733 275.461 544.827C273.977 543.922 272.525 544.227 272.58 544.456Z" fill="white"/>
<path d="M267.387 546.694C267.387 546.924 268.402 547.327 269.242 548.343C270.083 549.358 270.334 550.438 270.574 550.427C270.814 550.416 270.956 549.041 269.886 547.797C268.817 546.553 267.387 546.454 267.387 546.694Z" fill="white"/>
<path d="M264.514 552.992C264.733 552.992 265.049 551.813 264.405 550.492C263.761 549.172 262.615 548.659 262.517 548.855C262.419 549.051 263.139 549.761 263.608 550.863C264.078 551.966 264.274 552.97 264.514 552.992Z" fill="white"/>
<path d="M272.933 538.573C273.042 538.792 274.155 538.442 275.53 538.519C276.905 538.595 277.986 539.01 278.106 538.792C278.226 538.573 277.189 537.7 275.563 537.7C273.937 537.7 272.813 538.399 272.933 538.573Z" fill="white"/>
<path d="M365.258 514.049L368.652 544.948L378.388 568.599C378.552 569.004 378.632 569.437 378.623 569.874C378.613 570.31 378.514 570.74 378.332 571.137C378.15 571.533 377.889 571.889 377.564 572.181C377.24 572.472 376.859 572.695 376.445 572.834C375.964 572.996 375.451 573.04 374.95 572.962C374.449 572.884 373.973 572.687 373.564 572.387C368.27 568.501 348.843 554.138 348.723 551.856C348.581 549.226 342.971 519.528 342.971 519.528L365.258 514.049Z" fill="#263238"/>
<path d="M376.448 572.812L348.441 549.761L348.616 551.07C348.769 552.196 349.314 553.232 350.155 553.996C352.414 556.037 358.788 561.516 373.479 572.375C373.9 572.687 374.391 572.89 374.909 572.966C375.427 573.043 375.955 572.99 376.448 572.812Z" fill="#455A64"/>
<path d="M367.615 560.293C367.8 560.358 368.281 558.645 369.994 557.531C371.708 556.418 373.443 556.582 373.454 556.44C373.465 556.298 373.05 556.178 372.363 556.167C371.402 556.193 370.469 556.49 369.671 557.025C368.873 557.561 368.243 558.311 367.855 559.19C367.527 559.812 367.538 560.282 367.615 560.293Z" fill="white"/>
<path d="M370.355 564.124C370.529 564.233 371.38 563.098 372.908 562.432C373.878 562.113 374.866 561.851 375.866 561.646C375.932 561.483 374.36 561.024 372.592 561.81C370.824 562.596 370.147 564.059 370.355 564.124Z" fill="white"/>
<path d="M362.834 555.557C362.998 555.677 364.296 553.931 366.588 552.687C368.88 551.442 371.042 551.213 371.02 551.006C369.354 550.794 367.668 551.181 366.261 552.097C363.805 553.429 362.67 555.481 362.834 555.557Z" fill="white"/>
<path d="M361.012 546.246C361.121 546.421 362.726 545.482 364.931 545.155C367.135 544.827 368.958 545.078 369.002 544.882C369.045 544.686 367.168 544.053 364.811 544.478C362.453 544.904 360.892 546.126 361.012 546.246Z" fill="white"/>
<path d="M359.79 537.209C359.899 537.373 361.481 536.118 363.828 535.921C366.175 535.725 367.965 536.587 368.052 536.401C368.139 536.216 367.703 535.987 366.96 535.67C365.95 535.277 364.861 535.127 363.782 535.233C362.703 535.34 361.664 535.699 360.75 536.281C360.041 536.74 359.724 537.155 359.79 537.209Z" fill="white"/>
<path d="M363.599 534.208C363.652 533.812 363.615 533.409 363.49 533.029C363.238 531.978 362.785 530.985 362.158 530.104C361.731 529.407 361.087 528.87 360.325 528.576C360.072 528.505 359.803 528.512 359.554 528.596C359.305 528.679 359.086 528.836 358.928 529.045C358.655 529.481 358.55 530.001 358.633 530.508C358.839 531.533 359.397 532.454 360.21 533.112C361.023 533.77 362.04 534.123 363.086 534.11C364.12 534.075 365.12 533.735 365.961 533.133C366.802 532.531 367.446 531.694 367.812 530.726C367.9 530.481 367.935 530.22 367.914 529.96C367.894 529.7 367.818 529.448 367.692 529.22C367.54 529.005 367.325 528.842 367.076 528.756C366.828 528.67 366.558 528.664 366.306 528.74C365.572 529.008 364.921 529.463 364.418 530.06C363.671 530.841 363.065 531.746 362.628 532.734C362.448 533.073 362.336 533.444 362.3 533.826C362.946 532.559 363.774 531.394 364.756 530.366C365.219 529.876 365.791 529.502 366.426 529.275C366.565 529.234 366.713 529.237 366.85 529.284C366.986 529.331 367.105 529.419 367.19 529.536C367.259 529.693 367.294 529.862 367.294 530.033C367.294 530.204 367.259 530.373 367.19 530.53C366.849 531.357 366.278 532.068 365.545 532.581C364.812 533.094 363.947 533.385 363.053 533.422C362.17 533.426 361.311 533.13 360.617 532.583C359.923 532.036 359.436 531.27 359.233 530.41C359.164 530.059 359.222 529.695 359.397 529.384C359.481 529.266 359.599 529.176 359.736 529.127C359.873 529.078 360.021 529.073 360.161 529.111C360.783 529.364 361.313 529.802 361.678 530.366C362.548 531.518 363.199 532.821 363.599 534.208Z" fill="white"/>
<path d="M270.761 371.004L268.447 432.605L268.163 484.056C268.163 484.056 266.482 526.862 268.916 537.536C268.916 537.536 300.568 538.628 300.568 537.536C300.568 536.445 304.934 465.501 304.934 465.501C304.934 465.501 313.229 411.409 313.502 404.991C313.894 399.428 314.564 393.887 315.51 388.39C315.51 388.39 327.418 441.129 327.691 455.056C327.963 468.983 344.291 537.787 344.291 537.787L370.803 535.604L364.101 424.223C364.101 424.223 358.982 352.853 359.233 351.991C359.484 351.128 275.792 355.974 275.792 355.723C275.792 355.472 270.761 371.004 270.761 371.004Z" fill="#00BD62"/>
<g opacity="0.3">
<path opacity="0.3" d="M270.281 373.656C270.281 373.656 272.672 376.145 290.146 378.175C297.603 378.893 305.096 379.174 312.586 379.015L313.186 373.656L314.692 379.015C321.568 378.83 330.704 377.738 336.521 377.258C344.6 376.39 352.495 374.269 359.922 370.971H317.759L312.302 360.733L308.929 371.888L270.281 373.656Z" fill="black"/>
</g>
<path d="M331.535 433.828L336.992 485.671C343.227 488.313 350.119 488.988 356.748 487.603C367.662 485.257 367.586 483.5 367.586 483.5L364.475 431.743C354.259 434.646 343.181 435.083 331.535 433.828Z" fill="#263238"/>
<path d="M301.496 432.889L298.833 484.918C292.746 487.906 285.889 488.954 279.187 487.919C268.12 486.173 268.131 484.416 268.131 484.416L268.415 432.572C278.86 434.941 289.949 434.766 301.496 432.889Z" fill="#263238"/>
<path d="M336.217 502.37L368.589 499.347L369.266 510.752L338.629 513.284L336.217 502.796" fill="white"/>
<path d="M369.516 514.911L339.676 517.967L342.142 528.74L370.204 526.349L369.516 514.911Z" fill="white"/>
<path d="M337.02 506.343L368.824 503.342L369.043 507.085L337.871 510.043L337.02 506.343Z" fill="white"/>
<path d="M340.605 521.809L369.736 519.059L369.954 522.802L341.457 525.509L340.605 521.809Z" fill="white"/>
<path d="M267.127 500.22L267.356 511.451L301.966 513.579L302.686 501.595L267.127 500.22Z" fill="white"/>
<path d="M267.182 503.254L302.446 505.557L302.272 509.639L267.324 507.794L267.182 503.254Z" fill="white"/>
<path d="M267.463 516.166C267.463 519.626 267.67 523.501 267.91 527.637L300.992 529.525L301.571 520.041L301.636 518.338L267.463 516.166Z" fill="white"/>
<path d="M267.529 519.2L301.484 521.536L301.222 525.618L267.649 523.741L267.529 519.2Z" fill="white"/>
<g opacity="0.3">
<path opacity="0.3" d="M270.408 378.186L291.462 382.093C289.468 391.632 287.475 401.175 285.481 410.722L269.666 403.147L269.972 391.141L272.897 385.793L270.277 382.519L270.408 378.186Z" fill="black"/>
</g>
<path d="M379.611 290.346C379.611 290.346 380.517 285.489 380.703 284.125C380.888 282.761 370.694 248.937 367.06 240.904C365.499 237.477 362.41 234.595 359.365 232.423C355.016 229.349 349.644 228.082 344.38 228.887H344.15L351.278 283.034L350.492 283.099C352.337 289.057 353.867 295.109 355.076 301.228C356.986 310.975 362.803 342.779 362.803 343.794C362.803 344.809 385.429 348.127 385.429 348.127C387.35 332.509 379.611 290.346 379.611 290.346Z" fill="#00BD62"/>
<path d="M364.428 348.127C364.516 348.859 365.312 353.355 365.312 353.355L362.3 357.721C360.99 359.609 356.406 371.419 356.406 371.419C356.405 371.742 356.473 372.062 356.606 372.357C356.739 372.652 356.933 372.914 357.176 373.128C357.419 373.341 357.705 373.499 358.015 373.592C358.325 373.685 358.651 373.711 358.971 373.667C361.525 373.514 366.535 367.621 367.594 367.446C368.652 367.271 371.032 371.059 371.032 371.059C371.032 371.059 371.119 375.424 369.798 376.69C368.478 377.957 363.359 382.672 363.719 384.876C364.079 387.081 367.681 386.459 369.711 385.837C371.741 385.215 374.906 384.876 375.867 383.654C376.827 382.431 383.179 376.079 383.703 375.206C384.227 374.333 383.616 364.554 383.703 361.825C383.791 359.096 384.675 351.696 384.675 351.696L385.373 348.149L363.719 344.329L364.428 348.127Z" fill="#263238"/>
<path d="M362.768 343.838L363.717 348.127L385.371 351.904V348.127L362.768 343.838Z" fill="#455A64"/>
<path d="M383.767 316.759C383.767 316.759 379.511 311.913 370.113 313.19C361.687 314.336 358.348 318.865 358.348 318.865L360.072 328.579C360.072 328.579 372.482 321.321 384.87 327.488L383.767 316.759Z" fill="white"/>
<path d="M384.053 319.488C384.053 319.488 379.688 315.286 370.301 316.563C361.875 317.709 359.07 321.965 359.07 321.965L359.605 325.316C359.605 325.316 372.048 317.196 384.446 323.308L384.053 319.488Z" fill="white"/>
<path d="M360.224 249.799C360.278 250.34 360.278 250.884 360.224 251.425C360.224 252.517 360.093 253.968 359.94 255.791C359.504 260.629 358.775 265.437 357.758 270.187C356.725 274.955 355.394 279.654 353.774 284.256C353.152 286.013 352.606 287.421 352.202 288.381C352.023 288.892 351.796 289.386 351.525 289.855C351.636 289.325 351.793 288.807 351.995 288.305C352.344 287.323 352.824 285.893 353.392 284.125C354.538 280.589 355.978 275.655 357.19 270.111C358.402 264.566 359.122 259.48 359.548 255.791C359.755 253.946 359.919 252.44 360.006 251.425C360.037 250.878 360.11 250.335 360.224 249.799Z" fill="#263238"/>
<path d="M364.583 270.831C364.267 271.897 363.835 272.926 363.295 273.898C362.106 276.297 360.749 278.609 359.235 280.818C357.727 283.04 356.072 285.159 354.28 287.159C353.569 288.017 352.772 288.8 351.9 289.495C352.532 288.583 353.224 287.715 353.974 286.897C355.273 285.315 357.019 283.077 358.766 280.501C360.512 277.925 361.942 275.47 362.924 273.669C363.415 272.688 363.969 271.74 364.583 270.831Z" fill="#263238"/>
<path d="M286.345 207.33C302.586 200.951 320.515 200.285 337.185 205.442C338.064 205.62 338.864 206.076 339.466 206.741C340.557 208.269 339.367 210.365 338.178 211.838C332.851 218.387 327.012 224.935 319.318 228.395C316.975 229.632 314.298 230.087 311.677 229.694C309.276 229.181 307.312 227.588 305.369 226.038C298.253 220.253 291.06 214.392 285.646 207.003" fill="#00BD62"/>
<g opacity="0.3">
<path opacity="0.3" d="M286.347 207.33C302.588 200.951 320.517 200.285 337.186 205.442C338.066 205.62 338.865 206.076 339.468 206.741C340.559 208.269 339.369 210.365 338.18 211.838C332.853 218.387 327.014 224.935 319.32 228.395C316.977 229.632 314.299 230.087 311.679 229.694C309.278 229.181 307.314 227.588 305.371 226.038C298.255 220.253 291.062 214.392 285.648 207.003" fill="black"/>
</g>
<path d="M339.816 185.577C342.934 179.817 344.492 173.342 344.335 166.794C344.418 164.236 343.783 161.707 342.501 159.492C341.028 157.309 335.724 154.744 333.377 153.445L334.599 162.09C334.599 162.09 339.413 167.711 339.707 168.333C340.002 168.955 339.816 185.577 339.816 185.577Z" fill="#263238"/>
<path d="M299.695 189.245C298.106 184.561 296.926 179.748 296.17 174.86C295.412 169.954 295.884 164.936 297.545 160.257C297.818 159.558 300.11 154.876 300.819 154.963C301.354 154.963 299.924 159.394 300.186 159.864C302.555 164.436 303.48 169.62 302.838 174.729C302.316 179.67 301.251 184.538 299.662 189.245" fill="#263238"/>
<path d="M299.476 170.385C299.203 157.986 306.275 147.53 318.663 147.661L319.755 147.738C325.313 148.111 330.526 150.565 334.355 154.61C338.185 158.656 340.349 163.996 340.416 169.567C340.558 180.307 340.568 192.181 340.11 197.944C339.15 209.797 327.165 210.834 327.165 210.834L327.318 230.36L299.17 231.091L299.476 170.385Z" fill="#E49384"/>
<path d="M327.225 210.779C321.743 210.395 316.486 208.448 312.076 205.169C312.076 205.169 315.22 215.057 327.138 214.785L327.225 210.779Z" fill="#A86B62"/>
<path d="M334.632 179.225C334.609 179.668 334.414 180.085 334.087 180.385C333.76 180.685 333.329 180.845 332.886 180.83C332.669 180.833 332.454 180.792 332.253 180.71C332.052 180.628 331.87 180.507 331.717 180.353C331.565 180.199 331.444 180.016 331.364 179.815C331.283 179.614 331.244 179.398 331.248 179.182C331.271 178.739 331.467 178.322 331.793 178.022C332.12 177.722 332.551 177.562 332.995 177.577C333.211 177.576 333.425 177.617 333.625 177.7C333.826 177.782 334.007 177.904 334.16 178.057C334.312 178.211 334.432 178.393 334.513 178.594C334.595 178.794 334.635 179.009 334.632 179.225Z" fill="#263238"/>
<path d="M337.602 174.304C337.383 174.511 336.161 173.474 334.327 173.354C332.494 173.234 331.107 174.053 330.922 173.813C330.736 173.573 331.075 173.322 331.686 172.94C332.51 172.445 333.467 172.22 334.425 172.296C335.382 172.374 336.288 172.756 337.012 173.387C337.547 173.791 337.711 174.206 337.602 174.304Z" fill="#263238"/>
<path d="M318.373 178.691C318.348 179.132 318.151 179.546 317.825 179.843C317.498 180.141 317.068 180.3 316.627 180.285C316.409 180.289 316.193 180.249 315.991 180.168C315.789 180.087 315.606 179.966 315.452 179.812C315.298 179.658 315.176 179.474 315.095 179.272C315.014 179.07 314.974 178.854 314.979 178.636C315.004 178.195 315.201 177.782 315.527 177.484C315.854 177.186 316.284 177.028 316.725 177.043C316.942 177.04 317.158 177.081 317.359 177.162C317.561 177.244 317.743 177.366 317.897 177.519C318.051 177.673 318.172 177.856 318.254 178.057C318.336 178.258 318.376 178.474 318.373 178.691Z" fill="#263238"/>
<path d="M319.69 173.856C319.461 174.064 318.25 173.027 316.416 172.907C314.582 172.787 313.142 173.605 313.011 173.376C312.88 173.147 313.153 172.885 313.764 172.503C314.593 172.01 315.552 171.782 316.514 171.848C317.471 171.927 318.377 172.309 319.101 172.94C319.636 173.322 319.799 173.736 319.69 173.856Z" fill="#263238"/>
<path d="M325.279 188.286C326.261 188.043 327.27 187.929 328.281 187.947C328.75 187.947 329.198 187.871 329.296 187.554C329.365 187.077 329.289 186.59 329.078 186.157C328.717 185 328.335 183.789 327.986 182.512C326.414 177.338 325.312 173.093 325.519 173.027C325.727 172.962 327.178 177.12 328.794 182.294C329.176 183.571 329.536 184.793 329.885 185.95C330.14 186.532 330.183 187.184 330.005 187.794C329.924 187.954 329.808 188.093 329.667 188.203C329.525 188.312 329.361 188.389 329.187 188.427C328.924 188.476 328.657 188.494 328.39 188.482C327.349 188.551 326.303 188.485 325.279 188.286Z" fill="#263238"/>
<path d="M319.831 189.137C320.126 189.137 319.995 191.112 321.589 192.64C323.182 194.168 325.31 194.081 325.31 194.365C325.31 194.485 324.819 194.714 323.924 194.681C322.764 194.615 321.663 194.144 320.814 193.35C320 192.588 319.514 191.539 319.46 190.425C319.438 189.628 319.69 189.137 319.831 189.137Z" fill="#263238"/>
<path d="M320.092 166.423C319.873 166.903 318.072 166.543 315.911 166.652C313.75 166.761 311.993 167.231 311.731 166.772C311.622 166.554 311.96 166.107 312.681 165.681C313.649 165.148 314.73 164.849 315.835 164.808C316.94 164.759 318.041 164.965 319.055 165.408C319.819 165.768 320.179 166.216 320.092 166.423Z" fill="#263238"/>
<path d="M337.263 168.192C336.914 168.585 335.691 168.061 334.174 167.941C332.657 167.821 331.369 168.028 331.107 167.58C330.987 167.362 331.216 166.958 331.806 166.598C332.586 166.175 333.477 166 334.36 166.096C335.247 166.164 336.089 166.516 336.761 167.1C337.274 167.559 337.405 167.995 337.263 168.192Z" fill="#263238"/>
<path d="M299.85 179.236C299.654 179.138 291.861 176.268 291.566 184.399C291.272 192.53 299.501 191.144 299.523 190.948C299.545 190.751 299.85 179.236 299.85 179.236Z" fill="#E49384"/>
<path d="M297.153 187.739C297.153 187.739 297 187.837 296.76 187.936C296.587 188.008 296.402 188.046 296.214 188.046C296.027 188.046 295.841 188.008 295.669 187.936C295.156 187.582 294.746 187.099 294.481 186.535C294.217 185.971 294.107 185.347 294.162 184.727C294.165 184.031 294.326 183.344 294.632 182.719C294.706 182.459 294.846 182.223 295.037 182.032C295.227 181.841 295.464 181.702 295.723 181.627C295.887 181.588 296.059 181.608 296.209 181.684C296.359 181.76 296.477 181.887 296.542 182.042C296.64 182.271 296.542 182.435 296.629 182.446C296.716 182.457 296.815 182.326 296.76 181.987C296.718 181.784 296.611 181.6 296.454 181.463C296.237 181.287 295.959 181.201 295.68 181.223C295.343 181.278 295.025 181.418 294.758 181.63C294.49 181.842 294.281 182.119 294.152 182.435C293.783 183.127 293.588 183.899 293.584 184.683C293.584 186.32 294.359 187.881 295.527 188.263C295.741 188.336 295.97 188.359 296.195 188.331C296.42 188.303 296.636 188.223 296.826 188.099C297.131 187.936 297.175 187.761 297.153 187.739Z" fill="#A86B62"/>
<path d="M335.582 155.934C336.914 155.246 333.083 150.87 329.885 149.32C325.061 146.962 317.628 145.401 313.087 146.558C307.63 147.944 303.035 150.52 300.176 155.388C297.407 160.361 296.017 165.983 296.148 171.673C296.034 173.4 296.384 175.126 297.163 176.671C298.255 178.494 300.438 179.684 300.23 182.129C300.147 183.035 300.426 183.937 301.005 184.639C302.457 186.265 304.279 184.824 305.196 183.351C307.063 180.219 307.379 176.42 307.619 172.775C307.945 170.193 307.841 167.574 307.314 165.026C306.954 163.661 306.353 162.362 306.069 160.976C305.882 160.294 305.847 159.579 305.966 158.881C306.084 158.183 306.355 157.52 306.757 156.938C306.961 156.699 307.188 156.479 307.434 156.283C308.596 155.326 309.991 154.695 311.477 154.454C312.963 154.212 314.487 154.369 315.892 154.908C320.422 156.654 328.182 159.274 330.267 157.789C331.752 156.863 333.027 155.636 334.01 154.188L335.582 155.934Z" fill="#263238"/>
<path d="M313.546 145.478C315.789 144.744 318.156 144.463 320.509 144.65C322.862 144.837 325.155 145.49 327.254 146.569C328.381 147.122 329.383 147.897 330.201 148.848C331.019 149.799 331.636 150.906 332.013 152.103C332.624 154.526 331.522 157.462 329.175 158.346L329.011 158.433C325.519 159.525 323.27 158.99 319.843 157.691C316.962 156.6 314.386 154.744 311.537 153.675C308.441 152.531 305.073 152.341 301.867 153.129C305.02 149.596 309.048 146.957 313.546 145.478Z" fill="#263238"/>
<path d="M298.805 180.754C298.79 180.663 298.79 180.571 298.805 180.481C298.805 180.273 298.805 180.001 298.805 179.662C298.805 178.909 298.805 177.839 298.739 176.475C298.739 173.637 298.641 169.566 298.564 164.469L306.434 151.787L306.499 151.677H306.619L331.854 150.27H331.952L332.039 150.357L342.048 160.758L342.135 160.846V160.966C342.059 162.603 341.982 164.349 341.895 166.117C341.655 171.378 341.415 176.508 341.174 181.463C341.12 182.707 341.065 183.93 341 185.152C340.991 186.376 340.845 187.595 340.563 188.787C340.019 191.109 338.893 193.254 337.289 195.019C335.71 196.657 333.737 197.864 331.559 198.522C330.534 198.862 329.483 199.114 328.415 199.275C327.324 199.385 326.32 199.472 325.305 199.516C321.485 199.471 317.744 198.425 314.456 196.481C311.746 194.927 309.245 193.035 307.012 190.849C305.32 189.221 303.738 187.481 302.275 185.643C301.075 184.126 300.223 182.893 299.656 182.052C299.383 181.627 299.176 181.299 299.045 181.07C298.97 180.961 298.907 180.844 298.859 180.721C298.859 180.721 298.936 180.83 299.088 181.037C299.241 181.245 299.47 181.594 299.754 181.987C300.344 182.806 301.228 184.017 302.45 185.501C303.932 187.308 305.529 189.018 307.231 190.62C309.472 192.736 311.965 194.569 314.652 196.078C317.887 197.954 321.555 198.955 325.294 198.981C326.298 198.981 327.313 198.85 328.35 198.741C329.384 198.579 330.403 198.33 331.395 197.998C333.492 197.355 335.389 196.187 336.907 194.604C338.46 192.908 339.55 190.841 340.072 188.601C340.353 187.447 340.496 186.264 340.498 185.076C340.552 183.864 340.607 182.631 340.662 181.398C340.891 176.431 341.131 171.302 341.371 166.041C341.458 164.273 341.546 162.516 341.622 160.878L341.698 161.086L331.701 150.531L331.919 150.619L306.619 152.027L306.805 151.918L298.837 164.546V164.447V176.453C298.837 177.829 298.837 178.898 298.837 179.662V180.492C298.815 180.655 298.805 180.754 298.805 180.754Z" fill="white"/>
<path d="M341.979 157.157L333.509 153.61L333.247 153.534L319.495 150.598C319.222 150.543 318.938 150.565 318.677 150.663L309.028 154.21C308.919 154.245 308.816 154.296 308.723 154.363L299.314 160.617C299.131 160.739 298.976 160.9 298.863 161.089C298.75 161.277 298.68 161.489 298.659 161.709L298.299 166.347C298.288 166.409 298.288 166.471 298.299 166.533L299.194 185.578C299.208 185.96 299.37 186.321 299.645 186.585C299.919 186.85 300.286 186.998 300.668 186.997C300.867 186.998 301.065 186.957 301.249 186.879C301.432 186.801 301.599 186.687 301.737 186.544C301.876 186.4 301.984 186.23 302.055 186.043C302.126 185.857 302.159 185.658 302.152 185.458L301.945 180.34C301.945 174.511 300.155 163.553 308.057 159.024C315.959 154.494 324.734 155.629 328.794 156.393C332.854 157.157 338.29 159.548 339.305 162.047C340.167 164.164 340.462 180.525 340.527 185.535C340.533 185.925 340.692 186.297 340.97 186.57C341.248 186.844 341.622 186.997 342.012 186.997C342.39 186.995 342.753 186.85 343.029 186.591C343.304 186.332 343.471 185.978 343.496 185.6L344.817 163.499C344.829 163.283 344.795 163.067 344.718 162.866L342.743 157.932C342.596 157.586 342.323 157.31 341.979 157.157Z" fill="#455A64"/>
<path d="M343.235 163.706C342.58 160.431 339.241 154.516 322.083 153.883C309.466 153.402 304.369 158.347 301.258 161.85C300.121 163.166 299.477 164.837 299.436 166.576C299.436 166.576 299.141 171.891 299.141 173.572L299.206 179.029L294.153 176.847C290.104 174.664 289.602 171.575 291.25 169.468C291.25 169.468 291.25 166.434 291.675 160.66C292.21 153.413 296.041 145.38 302.153 142.291C306.607 140.201 311.309 138.686 316.146 137.784L316.855 135.186C316.921 134.967 317.055 134.774 317.237 134.635C317.42 134.496 317.641 134.417 317.87 134.411H323.851C324.08 134.417 324.302 134.496 324.484 134.635C324.666 134.774 324.8 134.967 324.866 135.186L325.543 137.62C325.543 137.62 336.85 141.68 340.823 147.105C344.796 152.529 346.28 162.276 346.28 162.276C346.515 165.14 346.544 168.018 346.368 170.887C346.801 171.306 347.148 171.806 347.388 172.358C347.627 172.911 347.755 173.506 347.764 174.108C347.774 174.711 347.664 175.309 347.441 175.869C347.218 176.429 346.887 176.939 346.466 177.37C345.145 178.735 343.857 179.837 343.857 179.837L343.781 173.681L343.235 163.706Z" fill="#00BD62"/>
<path d="M297.142 174.271C297.015 174.16 296.905 174.031 296.815 173.889C296.618 173.638 296.345 173.245 296.007 172.732C295.036 171.278 294.275 169.694 293.748 168.028C293.474 166.731 293.486 165.39 293.784 164.099C294.082 162.808 294.658 161.597 295.472 160.551C296.425 159.359 297.492 158.262 298.659 157.277C299.87 156.179 301.145 155.155 302.479 154.21C303.825 153.268 305.228 152.411 306.681 151.645C308.089 150.892 309.497 150.292 310.741 149.582C311.937 148.963 312.98 148.087 313.797 147.018C314.436 146.036 314.888 144.944 315.129 143.798C315.609 141.68 315.773 139.901 315.969 138.69C316.068 138.079 316.155 137.598 316.221 137.293C316.244 137.127 316.292 136.965 316.362 136.812C316.362 136.813 316.308 137.489 316.199 138.712C316.065 140.447 315.836 142.175 315.511 143.885C315.317 145.199 314.805 146.446 314.019 147.517C313.234 148.588 312.198 149.45 311.003 150.03C309.726 150.783 308.329 151.394 306.943 152.136C304.081 153.664 301.41 155.525 298.987 157.681C297.836 158.645 296.783 159.719 295.843 160.89C295.06 161.871 294.497 163.01 294.194 164.229C293.891 165.447 293.854 166.717 294.086 167.951C294.585 169.599 295.293 171.176 296.192 172.645C296.804 173.671 297.175 174.238 297.142 174.271Z" fill="#263238"/>
<g opacity="0.3">
<path opacity="0.3" d="M297.143 174.271C297.143 174.271 293.661 169.447 293.661 166.478C293.662 165.936 293.713 165.395 293.814 164.863C294.235 162.792 295.26 160.893 296.761 159.405C299.939 156.171 303.626 153.479 307.676 151.438C309.858 150.346 312.347 149.255 313.853 147.345C315.763 144.835 315.741 140.152 316.353 136.812C316.353 136.812 314.661 143.809 312.762 146.199C310.863 148.589 302.819 150.488 295.681 157.877C288.543 165.266 293.323 170.789 295.255 172.579C296.084 173.31 297.143 174.271 297.143 174.271Z" fill="black"/>
</g>
<path d="M346.205 161.709C345.64 160.145 344.805 158.694 343.738 157.419C340.981 154.482 337.633 152.161 333.915 150.609C332.821 150.169 331.793 149.581 330.859 148.862C330.025 148.126 329.356 147.222 328.894 146.21C328.01 144.311 327.355 142.597 326.711 141.157C326.068 139.716 325.707 138.515 325.456 137.686C325.292 137.261 325.182 136.818 325.129 136.365C325.35 136.76 325.529 137.177 325.664 137.609C325.98 138.417 326.46 139.585 327.083 141.004C327.705 142.423 328.436 144.147 329.265 145.97C329.718 146.908 330.352 147.746 331.132 148.437C332.034 149.122 333.025 149.68 334.079 150.096C337.869 151.666 341.251 154.082 343.967 157.157C344.773 158.13 345.397 159.239 345.812 160.432C345.936 160.745 346.028 161.071 346.085 161.403C346.216 161.578 346.227 161.698 346.205 161.709Z" fill="#263238"/>
<path d="M313.085 189.059C312.909 188.752 312.777 188.421 312.692 188.077C312.463 187.433 312.168 186.494 311.83 185.327C311.142 182.98 310.291 179.716 309.527 176.071C308.687 172.12 308.13 168.529 307.835 166.128L308.206 166.062C308.523 167.798 308.709 168.933 308.719 169.25H308.654C308.654 169.129 308.654 169.097 308.654 169.097C308.654 169.097 308.654 169.097 308.654 169.25V169.479L308.567 169.26C308.447 168.977 308.152 167.863 307.748 166.139L308.119 166.073C308.534 168.453 309.156 172.011 309.996 175.962C310.76 179.586 311.546 182.86 312.125 185.217C312.527 186.476 312.847 187.759 313.085 189.059Z" fill="white"/>
<path d="M315.261 186.462C314.346 183.643 313.617 180.766 313.078 177.851C312.354 174.979 311.822 172.062 311.484 169.119C312.394 171.944 313.123 174.824 313.667 177.742C314.379 180.613 314.911 183.525 315.261 186.462Z" fill="white"/>
<path d="M337.975 188.602C337.792 185.581 337.792 182.552 337.975 179.532C337.962 176.5 338.144 173.47 338.52 170.462C338.705 173.486 338.705 176.519 338.52 179.543C338.53 182.571 338.348 185.597 337.975 188.602Z" fill="white"/>
<g opacity="0.3">
<path opacity="0.3" d="M341.847 153.588C339.861 152.07 337.481 151.077 335.419 149.746C331.053 146.984 328.182 141.92 325.541 137.521C327.014 141.374 327.833 144.67 329.907 147.344C332.232 150.357 336.335 151.23 339.577 153.227C342.116 154.789 344.137 157.068 345.383 159.776C345.482 157.364 343.823 155.105 341.847 153.588Z" fill="black"/>
</g>
<path d="M276.062 293.915V307.591C288.79 307.621 301.504 308.386 314.143 309.883C335.917 312.382 351.907 308.006 351.907 308.006V295.006L276.062 293.915Z" fill="#263238"/>
<path d="M282.374 222.655C282.374 222.655 280.355 219.02 281.752 216.63C282.556 215.214 283.677 214.003 285.027 213.094V206.785C285.027 206.785 298.91 208.04 305.48 213.334C309.767 216.969 313.531 221.178 316.668 225.842C316.668 225.842 324.744 218.136 329.034 215.364C333.323 212.592 339.512 204.253 339.512 204.253L343.299 206.152L342.535 209.306C342.535 209.306 349.356 216.63 350.24 221.039C350.34 221.542 350.269 222.063 350.04 222.522C349.811 222.98 349.436 223.349 348.974 223.572C347.337 224.325 341.629 225.918 341.629 225.918C341.629 225.918 348.669 232.783 350.273 237.924C351.878 243.065 355.534 278.307 353.264 285.249C350.994 292.191 348.974 294.985 348.974 294.985L280.65 293.915L277.277 223.735L282.898 222.644" fill="#00BD62"/>
<path d="M279.271 265.996C313.586 247.79 353.631 265.996 353.631 265.996L352.54 253.488C352.54 253.488 339.803 246.612 317.952 245.04C304.395 244.236 290.855 246.891 278.605 252.756L279.271 265.996Z" fill="white"/>
<path d="M282.048 261.259C315.053 246.426 353.417 262.907 353.417 262.907L353.134 256.031C353.134 256.031 339.545 248.849 317.694 247.878C295.844 246.906 280.76 254.426 280.76 254.426L282.048 261.259Z" fill="white"/>
<path d="M287.887 222.425C287.887 222.425 274.331 221.803 271.613 227.882L276.066 301.926L286.217 303.192L287.887 222.425Z" fill="#263238"/>
<path d="M339.588 226.246C342.723 225.751 345.932 226.036 348.931 227.075C354.039 229.073 354.388 230.426 354.988 236.614C355.588 242.803 356.025 251.305 356.025 261.358C356.025 271.41 351.528 297.659 351.528 303.138L339.915 302.811C339.915 302.811 345.373 266.313 344.117 256.828C342.862 247.343 339.588 226.246 339.588 226.246Z" fill="#263238"/>
<path d="M345.042 225.263C344.621 225.435 344.181 225.559 343.732 225.634L340.12 226.452C337.075 227.151 332.873 228.111 328.245 229.279C323.617 230.447 319.513 231.582 316.457 232.423L312.888 233.405C312.454 233.544 312.009 233.643 311.557 233.7C311.957 233.479 312.382 233.307 312.823 233.187C313.652 232.892 314.853 232.499 316.337 232.03C319.328 231.091 323.475 229.847 328.114 228.755C332.753 227.664 336.965 226.682 340.043 226.092C341.571 225.797 342.827 225.579 343.689 225.448C344.132 225.336 344.586 225.274 345.042 225.263Z" fill="#263238"/>
<path d="M343.092 208.05C342.998 208.402 342.851 208.736 342.656 209.044C342.185 209.917 341.653 210.756 341.062 211.554C339.087 214.17 336.728 216.473 334.066 218.386C331.424 220.296 328.64 222 325.738 223.483C324.647 224.062 323.719 224.509 323.097 224.815C322.779 224.996 322.437 225.132 322.082 225.219C323.191 224.453 324.347 223.757 325.542 223.134C328.365 221.553 331.098 219.814 333.728 217.928C336.346 216.039 338.705 213.816 340.746 211.314C342.285 209.371 343.005 207.996 343.092 208.05Z" fill="#263238"/>
<path d="M304.66 220.134C304.584 220.199 303.765 219.293 302.226 218.082C298.195 214.895 293.24 213.103 288.103 212.974C286.138 212.974 284.927 213.105 284.916 212.974C285.183 212.859 285.467 212.789 285.756 212.766C286.532 212.632 287.316 212.563 288.103 212.559C293.372 212.468 298.489 214.321 302.477 217.765C303.078 218.276 303.636 218.835 304.147 219.435C304.486 219.861 304.66 220.112 304.66 220.134Z" fill="#263238"/>
<path d="M301.495 232.183C300.594 231.479 299.777 230.673 299.061 229.781C297.351 227.646 295.306 225.802 293.003 224.324C290.604 223.057 287.924 222.411 285.21 222.447C283.115 222.447 281.86 222.862 281.838 222.763C282.103 222.602 282.395 222.491 282.7 222.436C283.514 222.218 284.348 222.086 285.189 222.043C287.998 221.884 290.797 222.503 293.276 223.833C295.638 225.312 297.704 227.218 299.367 229.454C300.126 230.323 300.837 231.234 301.495 232.183Z" fill="#263238"/>
<path d="M363.715 371.222C363.524 371.28 363.325 371.309 363.126 371.309L361.412 371.408L355.202 371.812L334.715 372.903L315.659 373.798H315.571V373.623C314.851 370.709 314.262 368.319 313.836 366.573C313.65 365.787 313.509 365.154 313.388 364.641C313.327 364.416 313.29 364.186 313.279 363.953C313.381 364.162 313.458 364.382 313.509 364.608C313.661 365.11 313.836 365.699 314.065 366.507L315.986 373.525L315.768 373.361L334.814 372.324L355.311 371.364L361.532 371.146H363.224C363.389 371.16 363.553 371.185 363.715 371.222Z" fill="#263238"/>
<path d="M277.246 307.384C277.246 307.384 268.514 324.967 267.543 341.808C266.957 352.429 267.227 363.079 268.35 373.656H310.557C310.557 373.656 312.739 361.487 312.739 362.098C312.739 362.709 315.632 373.656 315.632 373.656L363.655 371.222C363.655 371.222 359.835 330.402 351.846 307.919L333.619 303.116H278.643L277.246 307.384Z" fill="#00BD62"/>
<path d="M312.301 357.011H267.355C267.181 353.322 267.192 349.513 267.355 345.584H312.203L312.301 357.011Z" fill="white"/>
<path d="M312.348 349.175H267.238V353.41H312.348V349.175Z" fill="white"/>
<path d="M360.423 345.038L312.65 345.584C312.468 349.273 312.468 353.082 312.65 357.011L362.18 356.869L360.423 345.038Z" fill="white"/>
<path d="M361.037 349.186H312.512V353.42H361.714L361.037 349.186Z" fill="white"/>
<path d="M325.636 218.06C325.636 218.06 325.527 218.18 325.298 218.387L324.272 219.293L320.288 222.753L305.368 235.599L305.434 235.446C305.674 240.118 305.816 245.346 306.165 251.032C306.514 256.719 306.962 262.874 307.387 269.39C308.315 282.488 309.341 296.982 310.421 312.306C311.054 321.583 311.633 330.577 312.124 339.123C312.615 347.669 313.019 355.756 312.921 363.244C312.168 366.9 311.458 370.36 310.738 373.667V373.842H310.552L279.817 373.743L271.326 373.689H269.143C268.641 373.689 268.379 373.689 268.379 373.689H269.143H271.326L279.817 373.634L310.552 373.536L310.334 373.711C311.004 370.414 311.702 366.94 312.43 363.287C312.506 355.844 312.037 347.745 311.578 339.21C311.12 330.675 310.487 321.67 309.854 312.393C308.762 297.113 307.78 282.531 306.874 269.488C306.427 262.94 306.034 256.806 305.717 251.119C305.401 245.433 305.259 240.205 305.062 235.512V235.424L305.139 235.359L320.168 222.655L324.217 219.26L325.309 218.398C325.505 218.147 325.636 218.06 325.636 218.06Z" fill="#263238"/>
<g opacity="0.3">
<path opacity="0.3" d="M323.398 300.714C323.278 298.662 322.994 296.469 321.662 294.908C320.979 294.191 320.147 293.631 319.225 293.267C318.304 292.903 317.314 292.744 316.325 292.801C314.347 292.937 312.408 293.417 310.595 294.22C307.659 295.377 304.603 296.894 303.108 299.677C301.514 302.646 302.093 306.226 302.726 309.588C304.297 317.868 305.873 326.156 307.452 334.451L305.934 339.548C309.089 340.028 311.992 337.365 313.018 334.32C314.044 331.275 313.684 328.011 313.553 324.835C313.422 321.659 313.553 318.232 315.463 315.645C317.165 313.277 320.047 311.945 321.706 309.544C323.365 307.143 323.561 303.738 323.398 300.714Z" fill="black"/>
</g>
<path d="M286.105 293.991C286.105 293.991 286.979 287.519 288.79 283.808C290.602 280.097 313.086 281.33 316.077 282.007C319.067 282.684 321.152 288.752 322.167 293.871C323.182 298.99 321.468 306.215 321.468 306.215L297.511 302.242L286.105 293.991Z" fill="#263238"/>
<path d="M318.678 288.763L330.618 228.384L334.929 227.369L320.828 292.463L318.678 288.763Z" fill="#455A64"/>
<path d="M287.112 291.295L284.711 222.403H288.586L289.633 287.89L287.112 291.295Z" fill="#455A64"/>
<path d="M307.836 284.659H299.792C292.233 284.659 286.105 290.787 286.105 298.346V299.175C286.105 306.734 292.233 312.862 299.792 312.862H307.836C315.395 312.862 321.523 306.734 321.523 299.175V298.346C321.523 290.787 315.395 284.659 307.836 284.659Z" fill="white"/>
<path d="M307.835 312.863C309.186 312.75 310.523 312.513 311.83 312.153C313.328 311.664 314.734 310.926 315.988 309.97C317.67 308.704 319.024 307.053 319.939 305.157C320.478 304.073 320.864 302.92 321.085 301.73C321.305 300.436 321.374 299.121 321.293 297.812C321.162 294.754 319.989 291.833 317.967 289.536C315.946 287.238 313.198 285.702 310.182 285.184C308.495 284.97 306.794 284.901 305.096 284.976H299.791C296.459 284.987 293.249 286.232 290.781 288.472C288.314 290.712 286.764 293.786 286.432 297.102C286.298 298.587 286.345 300.082 286.574 301.555C286.814 302.937 287.267 304.274 287.916 305.517C288.538 306.668 289.313 307.729 290.219 308.672C291.073 309.521 292.035 310.255 293.079 310.854C294.88 311.914 296.908 312.532 298.995 312.655C300.839 312.754 302.454 312.71 303.764 312.754H306.787H307.573C307.66 312.739 307.748 312.739 307.835 312.754C307.749 312.77 307.66 312.77 307.573 312.754H306.787L303.764 312.808C302.454 312.808 300.861 312.885 298.973 312.808C296.828 312.702 294.738 312.092 292.872 311.029C291.787 310.41 290.789 309.65 289.903 308.77C288.959 307.791 288.151 306.69 287.502 305.495C286.822 304.212 286.343 302.831 286.083 301.403C286.083 301.031 285.952 300.66 285.919 300.311L285.854 299.165C285.854 298.412 285.854 297.637 285.854 296.84C286.187 293.386 287.792 290.18 290.358 287.844C292.924 285.508 296.267 284.21 299.737 284.201H305.041C306.773 284.125 308.507 284.202 310.226 284.431C313.356 284.982 316.203 286.593 318.287 288.993C320.372 291.394 321.568 294.438 321.675 297.615C321.751 298.962 321.67 300.314 321.435 301.643C320.757 304.997 318.869 307.984 316.13 310.036C314.837 311.005 313.386 311.743 311.841 312.219C310.863 312.5 309.856 312.668 308.839 312.721H307.748L307.835 312.863Z" fill="#455A64"/>
<path d="M310.193 313.266C310.193 311.53 309.503 309.864 308.275 308.636C307.047 307.408 305.381 306.718 303.644 306.718C301.908 306.718 300.242 307.408 299.014 308.636C297.786 309.864 297.096 311.53 297.096 313.266V330.555H310.193V313.266Z" fill="#455A64"/>
<path d="M311.027 320.786H296.511C295.788 320.786 295.201 321.373 295.201 322.096V322.172C295.201 322.896 295.788 323.482 296.511 323.482H311.027C311.75 323.482 312.337 322.896 312.337 322.172V322.096C312.337 321.373 311.75 320.786 311.027 320.786Z" fill="#455A64"/>
<path d="M311.023 323.482C311.023 323.482 311.154 323.482 311.383 323.362C311.543 323.304 311.69 323.214 311.813 323.098C311.937 322.981 312.036 322.841 312.104 322.685C312.206 322.445 312.233 322.179 312.181 321.924C312.128 321.668 311.998 321.435 311.809 321.255C311.691 321.149 311.553 321.069 311.403 321.018C311.252 320.967 311.094 320.948 310.936 320.96H309.735C306.352 320.96 301.669 321.048 296.507 321.048C296.258 321.059 296.021 321.155 295.834 321.32C295.648 321.485 295.523 321.708 295.481 321.954C295.448 322.199 295.499 322.448 295.626 322.66C295.753 322.872 295.948 323.035 296.179 323.121C296.295 323.162 296.417 323.18 296.54 323.176H299.596L305.544 323.231L309.55 323.318C310.044 323.301 310.538 323.341 311.023 323.438C310.536 323.52 310.043 323.556 309.55 323.547L305.544 323.634L299.596 323.7H296.54C296.359 323.701 296.178 323.675 296.005 323.624C295.64 323.499 295.33 323.25 295.13 322.92C294.931 322.59 294.854 322.2 294.914 321.819C294.975 321.438 295.167 321.09 295.458 320.837C295.75 320.584 296.121 320.442 296.507 320.437C301.669 320.437 306.33 320.437 309.735 320.524H310.936C311.137 320.516 311.338 320.55 311.526 320.624C311.713 320.697 311.884 320.808 312.027 320.95C312.252 321.176 312.399 321.468 312.448 321.784C312.497 322.099 312.445 322.422 312.3 322.707C312.211 322.878 312.086 323.028 311.933 323.147C311.781 323.266 311.604 323.35 311.416 323.394C311.297 323.463 311.16 323.493 311.023 323.482Z" fill="#263238"/>
<path d="M303.77 340.258C308.141 340.258 311.683 336.715 311.683 332.345C311.683 327.974 308.141 324.432 303.77 324.432C299.4 324.432 295.857 327.974 295.857 332.345C295.857 336.715 299.4 340.258 303.77 340.258Z" fill="#455A64"/>
<path d="M313.318 292.464C313.318 292.464 313.111 292.748 312.652 293.195C312.194 293.643 311.561 294.287 310.655 295.018C308.386 296.943 306.002 298.729 303.517 300.366C301.032 302 298.448 303.476 295.778 304.786C294.752 305.277 293.901 305.659 293.312 305.878C293.018 306.035 292.701 306.141 292.373 306.194C293.412 305.538 294.487 304.94 295.593 304.404C297.59 303.313 300.308 301.763 303.233 299.864C306.158 297.965 308.69 296.087 310.415 294.68C311.341 293.888 312.31 293.149 313.318 292.464Z" fill="white"/>
<path d="M306.448 293.915C304.459 295.253 302.404 296.492 300.292 297.626C298.267 298.933 296.176 300.135 294.027 301.228C295.867 299.656 297.868 298.284 299.998 297.135C302.03 295.84 304.192 294.761 306.448 293.915Z" fill="white"/>
<path d="M310.652 330.555C310.652 330.555 310.717 330.697 310.794 330.981C310.877 331.408 310.903 331.845 310.87 332.279C310.713 333.884 310.137 335.42 309.2 336.733C308.579 337.67 307.764 338.462 306.81 339.057C305.666 339.692 304.358 339.969 303.055 339.854C301.558 339.754 300.135 339.166 299.004 338.181C297.872 337.195 297.095 335.866 296.79 334.397C296.53 333.26 296.534 332.079 296.8 330.944C297.067 329.809 297.59 328.75 298.329 327.848C299.66 326.287 301.556 325.318 303.601 325.152C304.927 325.214 306.226 325.556 307.41 326.156C308.316 326.632 309.089 327.326 309.658 328.176C310.023 328.71 310.299 329.3 310.477 329.922C310.558 330.135 310.602 330.36 310.608 330.588C310.302 329.794 309.911 329.037 309.44 328.328C308.87 327.551 308.121 326.922 307.257 326.495C306.108 325.926 304.85 325.609 303.568 325.567C301.661 325.744 299.9 326.666 298.668 328.132C297.989 328.99 297.517 329.992 297.288 331.061C297.059 332.131 297.079 333.238 297.347 334.299C297.623 335.655 298.334 336.885 299.372 337.8C300.41 338.716 301.719 339.269 303.099 339.374C304.302 339.492 305.513 339.253 306.581 338.686C307.492 338.131 308.273 337.386 308.873 336.503C309.804 335.255 310.415 333.797 310.652 332.258C310.701 331.691 310.701 331.121 310.652 330.555Z" fill="#263238"/>
<g opacity="0.3">
<path opacity="0.3" d="M312.508 233.383C317.63 233.635 322.763 233.246 327.788 232.226C332.776 231.135 337.371 229.476 341.115 225.983C331.739 228.254 322.691 230.262 313.468 233.111" fill="black"/>
</g>
<path d="M271.612 227.85C270.575 228.264 265.98 232.215 263.481 235.359C260.981 238.502 248.877 267.284 245.952 288.141C243.027 308.999 242.623 343.805 242.623 343.805L265.98 342.768L274.952 280.392L274.45 275.044L271.612 227.85Z" fill="#00BD62"/>
<path d="M243.648 314.336C243.648 314.336 248.756 310.778 258.154 312.055C266.58 313.146 269.603 317.621 269.603 317.621L268.195 327.444C268.195 327.444 255.48 320.328 243.092 326.451L243.648 314.336Z" fill="white"/>
<path d="M243.454 317.708C243.454 317.708 248.562 314.15 257.959 315.427C266.385 316.518 269.19 320.83 269.19 320.83L268.666 324.18C268.666 324.18 255.678 315.372 243.279 321.485L243.454 317.708Z" fill="white"/>
<path d="M265.527 239.692C265.733 240.192 265.901 240.706 266.029 241.231C266.313 242.235 266.695 243.698 267.121 245.499C268.027 249.112 269.184 254.132 270.395 259.688L273.604 273.876L274.608 278.177C274.759 278.694 274.862 279.223 274.914 279.759C274.698 279.265 274.523 278.754 274.39 278.231C274.095 277.227 273.691 275.776 273.222 273.975C272.272 270.373 271.039 265.363 269.839 259.786C268.638 254.209 267.536 249.319 266.717 245.597C266.335 243.862 266.008 242.41 265.767 241.286C265.636 240.764 265.555 240.23 265.527 239.692Z" fill="#263238"/>
<path d="M192.504 321.703C192.504 321.703 182.812 329.769 186.119 332.705C189.427 335.641 239.087 362.37 249.161 367.948C259.727 373.809 259.214 373.536 275.356 386.906L279.296 375.38C279.296 375.38 245.276 359.522 237.494 353.279C229.712 347.036 192.504 321.703 192.504 321.703Z" fill="#455A64"/>
<path d="M280.779 372.761L285.647 375.795L293.221 363.342C293.221 363.342 296.987 372.979 295.513 376.832C294.04 380.685 284.173 397.078 282.252 401.335C280.331 405.592 278.88 408.975 278.88 408.975L263.6 399.359C264.796 396.896 266.439 394.675 268.446 392.811C271.283 390.475 280.779 372.761 280.779 372.761Z" fill="white"/>
<path d="M280.781 372.761C280.716 372.946 280.636 373.125 280.541 373.296L279.744 374.824C279.046 376.156 278.009 378.098 276.644 380.532C275.28 382.966 273.599 385.913 271.493 389.187C270.958 389.995 270.401 390.835 269.768 391.654C269.439 392.087 269.074 392.493 268.677 392.866C268.295 393.258 267.891 393.564 267.585 393.957C266.054 395.609 264.774 397.477 263.787 399.502L263.7 399.185L278.98 408.768L278.576 408.899L280.606 404.271C281.305 402.71 281.949 401.084 282.789 399.523C286.402 392.746 290.178 386.426 293.354 380.532C293.758 379.79 294.14 379.059 294.446 378.349C294.826 377.658 295.126 376.926 295.341 376.166C295.574 374.654 295.534 373.113 295.221 371.615C294.701 368.831 293.934 366.099 292.929 363.451H293.311L285.671 375.861V375.959L285.562 375.894L282.014 373.602L281.087 372.99L280.759 372.761L281.065 372.925L282.003 373.471L285.693 375.653H285.529L293.027 363.156L293.245 362.774L293.398 363.189C294.436 365.856 295.232 368.61 295.777 371.419C296.11 372.984 296.158 374.595 295.919 376.177C295.697 376.981 295.386 377.757 294.992 378.491C294.635 379.219 294.271 379.946 293.9 380.674C290.746 386.633 286.97 392.92 283.368 399.676C282.549 401.215 281.905 402.83 281.185 404.391L279.155 409.008L279.024 409.303L278.751 409.139L263.471 399.502L263.285 399.371L263.383 399.174C264.403 397.109 265.72 395.205 267.291 393.52C267.673 393.128 268.109 392.767 268.47 392.429C268.836 392.073 269.176 391.69 269.485 391.283C270.107 390.475 270.663 389.657 271.198 388.849C273.381 385.575 275.029 382.682 276.437 380.27L279.711 374.638L280.563 373.154C280.627 373.018 280.699 372.887 280.781 372.761Z" fill="#263238"/>
<path d="M263.077 367.74L270.281 371.014C270.456 367.442 269.704 363.885 268.098 360.689C266.013 356.4 262.881 350.866 262.881 350.866C262.819 349.282 263.173 347.709 263.907 346.304L264.616 344.962C262.97 343.995 261.057 343.582 259.159 343.783C256.769 343.957 253.833 343.641 251.519 344.067L242.656 345.737C242.656 345.737 243.267 354.031 243.267 357.415C243.267 358.212 242.656 367.413 242.656 367.413L243.333 371.353C243.333 371.353 254.564 381.176 256.07 380.925C257.576 380.674 257.576 380.106 257.576 380.106C257.576 380.106 259.203 382.42 260.469 382.42C261.735 382.42 263.939 383.697 264.409 382.42C264.878 381.143 264.289 378.622 263.132 376.821C262.367 375.832 261.413 375.005 260.327 374.387C259.733 374.01 259.245 373.487 258.911 372.868C258.576 372.249 258.406 371.554 258.417 370.851L258.504 363.211C258.504 363.211 262.924 364.64 263.077 367.74Z" fill="#263238"/>
<path d="M242.623 343.838V346.926L263.895 346.403L265.98 342.801L242.623 343.838Z" fill="#455A64"/>
</svg>
