<svg width="498" height="480" viewBox="0 0 498 480" fill="none" xmlns="http://www.w3.org/2000/svg">
<path d="M458.275 27.2656C459.137 21.0662 450.372 15.9583 443.802 15.4344C440.659 15.1724 437.406 15.6527 434.426 14.6158C427.987 12.3783 425.411 4.06151 419.146 1.40929C414.442 -0.577137 409.039 1.19101 404.488 3.48304C399.937 5.77508 395.429 8.65649 390.299 8.94027C385.868 9.22405 381.066 7.57596 377.202 9.74794C374.321 11.3524 372.836 14.6813 370.151 16.635C367.466 18.5886 364.148 18.9707 360.929 19.1453C357.709 19.3199 354.38 19.3527 351.411 20.6951C348.442 22.0376 346.041 25.1482 346.652 28.3353L458.275 27.2656Z" fill="#EBEBEB"/>
<path d="M380.006 105.282C380.792 99.6062 372.77 94.9348 366.756 94.4436C363.886 94.2144 360.895 94.651 358.177 93.7014C352.284 91.6495 349.926 84.0312 344.174 81.6082C339.874 79.7964 334.93 81.4118 330.76 83.5073C326.591 85.6029 322.465 88.2442 317.816 88.5498C313.756 88.8009 309.357 87.3056 305.81 89.2811C303.169 90.7545 301.782 93.7997 299.349 95.6006C296.915 97.4014 293.891 97.7289 290.901 97.8817C287.91 98.0345 284.887 98.0781 282.169 99.3115C279.451 100.545 277.247 103.383 277.803 106.286L380.006 105.282Z" fill="#F5F5F5"/>
<path d="M164.282 43.7471C164.97 37.3949 157.919 32.1669 152.626 31.6321C150.094 31.3702 147.474 31.8613 145.073 30.8026C139.889 28.4669 137.793 19.9536 132.761 17.2468C128.985 15.2168 124.63 17.0176 120.963 19.3643C117.296 21.7109 113.672 24.6687 109.568 25.007C106.01 25.2908 102.136 23.61 99.0249 25.8256C96.7001 27.4737 95.4777 30.879 93.3385 32.8873C91.1992 34.8955 88.5143 35.2775 85.9167 35.4522C83.319 35.6268 80.6231 35.6704 78.2765 37.0457C76.9572 37.841 75.8932 38.9976 75.2104 40.3786C74.5276 41.7597 74.2546 43.3073 74.4237 44.8386L164.282 43.7471Z" fill="#EBEBEB"/>
<path d="M88.0672 109.364H86.5719C84.227 109.364 82.3262 111.265 82.3262 113.61V113.861C82.3262 116.206 84.227 118.107 86.5719 118.107H88.0672C90.412 118.107 92.3129 116.206 92.3129 113.861V113.61C92.3129 111.265 90.412 109.364 88.0672 109.364Z" fill="#F5F5F5"/>
<path d="M92.6297 113.74H82.0209C80.1281 113.74 78.5938 115.275 78.5938 117.167V118.161C78.5938 120.053 80.1281 121.588 82.0209 121.588H92.6297C94.5225 121.588 96.0569 120.053 96.0569 118.161V117.167C96.0569 115.275 94.5225 113.74 92.6297 113.74Z" fill="white"/>
<path d="M3.43807 202.748H9.74663V209.821H3.43807C2.98566 209.821 2.53769 209.731 2.11986 209.558C1.70202 209.384 1.32253 209.13 1.00313 208.81C0.683738 208.489 0.430721 208.109 0.258585 207.691C0.0864501 207.272 -0.0014189 206.824 1.73259e-05 206.372V206.164C0.00578278 205.256 0.370549 204.387 1.01469 203.747C1.65882 203.107 2.53001 202.748 3.43807 202.748Z" fill="white"/>
<path d="M483.257 217.505H11.9707V272.819H483.257V217.505Z" fill="#EBEBEB"/>
<path d="M212.559 273.725C212.33 274.085 337.759 272.317 337.759 272.317C337.759 272.317 341.131 226.924 384.942 226.171C428.752 225.418 432.081 270.92 432.081 270.92H492.111V138.069H212.559V273.725Z" fill="#EBEBEB"/>
<path d="M26.763 123.87L5.15234 190.568V272.819H47.0966C47.0966 272.819 47.2057 223.835 93.1556 224.654C139.105 225.472 140.426 272.819 140.426 272.819H165.322V125.845C165.323 125.006 165.159 124.174 164.839 123.398C164.519 122.622 164.049 121.917 163.456 121.323C162.863 120.729 162.158 120.258 161.383 119.936C160.608 119.615 159.776 119.449 158.937 119.449H32.8423C31.4925 119.452 30.178 119.88 29.0863 120.674C27.9946 121.468 27.1815 122.586 26.763 123.87Z" fill="#F5F5F5"/>
<path d="M23.5647 133.737C23.5647 133.737 29.6768 133.245 27.865 139.936C26.0532 146.627 14.1455 186.181 14.1455 186.181L5.73047 188.789L23.5647 133.737Z" fill="#EBEBEB"/>
<path d="M23.5639 133.736C23.558 133.841 23.5359 133.944 23.4984 134.042L23.2474 134.882C23.0072 135.657 22.6798 136.727 22.2541 138.091C21.3701 140.896 20.0713 144.902 18.5323 149.846C15.3453 159.789 10.8922 173.52 6.00252 188.876L5.65326 188.516L9.65887 187.272L14.0246 185.907L13.8391 186.093C18.445 170.704 22.5707 156.962 25.5285 147.019C26.2707 144.553 26.9474 142.326 27.5477 140.361C27.8348 139.468 27.9964 138.538 28.0279 137.6C28.0444 136.826 27.8276 136.066 27.4058 135.417C27.0561 134.901 26.5628 134.499 25.9869 134.26C25.5713 134.067 25.1303 133.935 24.6772 133.867C24.3061 133.802 24.0223 133.791 23.8258 133.769C23.7282 133.785 23.6287 133.785 23.5311 133.769H23.8258C24.1128 133.746 24.4011 133.746 24.6881 133.769C25.1573 133.819 25.6167 133.937 26.0524 134.118C26.6632 134.358 27.1932 134.767 27.5804 135.297C28.0455 135.982 28.2893 136.794 28.2789 137.622C28.2708 138.584 28.1238 139.54 27.8423 140.46C27.2639 142.435 26.6199 144.673 25.8996 147.15C22.9636 157.104 18.9143 170.867 14.3848 186.279V186.431H14.2429L9.87715 187.796L5.87155 189.04L5.34766 189.193L5.52229 188.68C10.5429 173.29 15.0506 159.527 18.3031 149.573C19.9294 144.662 21.25 140.7 22.1668 137.917C22.6252 136.585 22.9745 135.537 23.2583 134.784C23.3783 134.446 23.4766 134.184 23.5421 133.976L23.5639 133.736Z" fill="white"/>
<path d="M45.2075 138.179L33.5073 171.893C33.1431 172.938 33.0343 174.055 33.1902 175.151C33.346 176.246 33.7619 177.288 34.403 178.19C35.0441 179.092 35.8919 179.827 36.8753 180.334C37.8588 180.841 38.9494 181.106 40.0559 181.105H76.0736C77.327 181.105 78.5291 180.607 79.4154 179.721C80.3017 178.835 80.7996 177.633 80.7996 176.379V137.611C80.7996 137.101 80.699 136.597 80.5036 136.126C80.3082 135.655 80.0218 135.227 79.6609 134.867C79.2999 134.507 78.8715 134.222 78.4001 134.028C77.9288 133.834 77.4238 133.735 76.914 133.736H51.4506C50.0773 133.736 48.7379 134.163 47.6189 134.959C46.4999 135.756 45.657 136.881 45.2075 138.179Z" fill="#EBEBEB"/>
<path d="M45.2076 138.178C45.3554 137.611 45.6031 137.076 45.9388 136.596C46.8753 135.177 48.3211 134.173 49.9772 133.791C51.1718 133.605 52.3821 133.539 53.5899 133.594H57.8683H68.2916H75.9317C76.4892 133.573 77.0475 133.595 77.6017 133.66C78.1861 133.762 78.7414 133.989 79.2294 134.326C79.7174 134.664 80.1265 135.103 80.4285 135.613C80.7443 136.134 80.9348 136.72 80.9851 137.327C80.9851 137.949 80.9851 138.506 80.9851 139.095C80.9851 140.274 80.9851 141.463 80.9851 142.675C80.9851 145.098 80.9851 147.586 80.9851 150.14C80.9851 155.248 80.9851 160.618 80.9851 166.174V174.654C80.9851 175.375 80.9851 176.073 80.9851 176.837C80.9394 177.609 80.7072 178.358 80.3084 179.02C79.9105 179.692 79.3625 180.262 78.7073 180.686C78.0521 181.11 77.3076 181.377 76.532 181.465H43.3194C42.0314 181.465 40.7981 181.465 39.5211 181.465C38.2443 181.372 37.0157 180.938 35.963 180.21C34.9674 179.504 34.1649 178.56 33.629 177.463C33.0932 176.367 32.8412 175.153 32.8961 173.934C33.02 172.807 33.3068 171.704 33.7474 170.66C34.1076 169.568 34.4568 168.608 34.8388 167.615C35.5373 165.617 36.214 163.707 36.8471 161.884L42.9374 144.618L44.5854 139.794L45.0329 138.582C45.08 138.443 45.1384 138.308 45.2076 138.178C45.1789 138.323 45.1388 138.465 45.0875 138.604L44.6946 139.794C44.3235 140.885 43.7887 142.479 43.112 144.509L37.1963 161.83L35.199 167.615L34.1076 170.66C33.6894 171.67 33.421 172.737 33.3108 173.825C33.272 174.971 33.5251 176.108 34.0463 177.129C34.5675 178.151 35.3397 179.023 36.2904 179.664C37.2613 180.331 38.3906 180.73 39.5648 180.821C40.7763 180.821 42.0642 180.821 43.3303 180.821H76.5539C77.2415 180.74 77.901 180.501 78.4805 180.122C79.0601 179.744 79.5438 179.236 79.8937 178.638C80.2461 178.051 80.4555 177.389 80.5049 176.706C80.5049 176.019 80.5049 175.276 80.5049 174.523C80.5049 171.649 80.5049 168.822 80.5049 166.043C80.5049 160.487 80.5049 155.128 80.5049 150.01C80.5049 147.456 80.5049 144.967 80.5049 142.544C80.5049 141.333 80.5049 140.143 80.5049 138.964C80.5049 138.386 80.5049 137.774 80.5049 137.24C80.4581 136.703 80.2901 136.185 80.0138 135.722C79.7485 135.268 79.3876 134.876 78.956 134.575C78.5245 134.273 78.0326 134.069 77.5143 133.976C76.9855 133.916 76.4529 133.894 75.9208 133.911H74.3601H68.2916H57.8683H53.5899C52.402 133.843 51.2104 133.89 50.0317 134.053C48.4128 134.4 46.9854 135.347 46.0371 136.705C45.7248 137.175 45.4475 137.667 45.2076 138.178Z" fill="white"/>
<path d="M165.966 129.415C165.966 129.578 134.402 129.709 95.4809 129.709C56.5599 129.709 24.9844 129.578 24.9844 129.415C24.9844 129.251 56.5381 129.131 95.4809 129.131C134.424 129.131 165.966 129.262 165.966 129.415Z" fill="white"/>
<path d="M91.399 214.383C91.2353 214.383 91.1152 195.458 91.1152 172.112C91.1152 148.766 91.2353 129.829 91.399 129.829C91.5627 129.829 91.6828 148.755 91.6828 172.112C91.6828 195.469 91.5518 214.383 91.399 214.383Z" fill="white"/>
<path d="M76.9366 193.766C77.5144 193.68 78.064 193.459 78.541 193.122C79.0706 192.711 79.4253 192.114 79.5343 191.452C79.6105 191.024 79.5882 190.585 79.469 190.167C79.3499 189.749 79.137 189.364 78.8466 189.04C78.5053 188.678 78.0651 188.424 77.5806 188.309C77.0244 188.225 76.4607 188.203 75.8997 188.243H72.0469H63.2171C62.5535 188.27 61.925 188.549 61.4599 189.023C60.9948 189.497 60.728 190.131 60.7141 190.795C60.7002 191.459 60.9401 192.104 61.385 192.597C61.8298 193.09 62.446 193.395 63.108 193.45L70.3006 193.515L75.1576 193.613C75.7526 193.597 76.348 193.634 76.9366 193.723C76.348 193.811 75.7526 193.848 75.1576 193.832L70.3006 193.919L63.0862 193.974C62.2994 193.943 61.5546 193.611 61.006 193.046C60.4574 192.481 60.1471 191.727 60.1393 190.939C60.1062 190.11 60.3957 189.3 60.9469 188.68C61.2361 188.366 61.587 188.114 61.9775 187.942C62.3681 187.769 62.7901 187.678 63.2171 187.676H72.0469H75.8997C76.499 187.651 77.0991 187.692 77.6897 187.796C78.2487 187.945 78.7528 188.252 79.1413 188.68C79.4645 189.052 79.6961 189.495 79.8174 189.972C79.9387 190.45 79.9464 190.949 79.8399 191.431C79.7778 191.8 79.6425 192.154 79.442 192.471C79.2414 192.787 78.9797 193.061 78.672 193.275C78.2991 193.543 77.8626 193.708 77.4059 193.755C77.2521 193.793 77.092 193.797 76.9366 193.766Z" fill="white"/>
<path d="M21.6102 272.819C21.5936 272.692 21.5936 272.564 21.6102 272.437C21.6102 272.164 21.6102 271.804 21.6102 271.346C21.6102 270.342 21.6102 268.923 21.6102 267.111C21.6102 263.389 21.5556 258.063 21.5229 251.503C21.5229 238.297 21.5229 220.113 21.4355 200.031C21.4355 195.665 21.4355 191.375 21.4355 187.272V187.195C26.0414 170.823 30.1016 156.329 33.0158 145.96C34.4892 140.82 35.668 136.694 36.4975 133.813C36.9013 132.416 37.2288 131.324 37.458 130.538C37.5562 130.189 37.6435 129.916 37.709 129.698C37.7359 129.6 37.7724 129.505 37.8181 129.414C37.8315 129.512 37.8315 129.611 37.8181 129.709L37.6108 130.571C37.4034 131.357 37.1087 132.448 36.7376 133.845L33.4633 146.037L21.883 187.326V200.02C21.883 220.102 21.8285 238.286 21.8066 251.492C21.8066 258.041 21.7302 263.378 21.7084 267.1C21.7084 268.912 21.7084 270.374 21.7084 271.335C21.7084 271.804 21.7084 272.164 21.7084 272.426C21.691 272.561 21.658 272.692 21.6102 272.819Z" fill="white"/>
<path d="M43.4832 259.034H7.44366C3.33264 259.034 0 262.367 0 266.478V266.936C0 271.047 3.33264 274.38 7.44366 274.38H43.4832C47.5942 274.38 50.9269 271.047 50.9269 266.936V266.478C50.9269 262.367 47.5942 259.034 43.4832 259.034Z" fill="white"/>
<path d="M134.815 133.736H115.212C107.273 133.736 100.838 140.172 100.838 148.111V167.713C100.838 175.652 107.273 182.087 115.212 182.087H134.815C142.753 182.087 149.189 175.652 149.189 167.713V148.111C149.189 140.172 142.753 133.736 134.815 133.736Z" fill="white"/>
<path d="M217.906 202.748H165.32V259.885H217.906V202.748Z" fill="#EBEBEB"/>
<path d="M292.169 189.814H223.2C218.758 189.814 215.156 193.416 215.156 197.858V251.852C215.156 256.295 218.758 259.896 223.2 259.896H292.169C296.611 259.896 300.213 256.295 300.213 251.852V197.858C300.213 193.416 296.611 189.814 292.169 189.814Z" fill="white"/>
<path d="M282.752 195.185H231.181C225.557 195.185 220.998 199.744 220.998 205.368V249.091C220.998 254.715 225.557 259.274 231.181 259.274H282.752C288.376 259.274 292.935 254.715 292.935 249.091V205.368C292.935 199.744 288.376 195.185 282.752 195.185Z" fill="#F5F5F5"/>
<path d="M234.181 211.087H234.007C232.343 211.087 230.994 212.436 230.994 214.099V223.06C230.994 224.724 232.343 226.072 234.007 226.072H234.181C235.845 226.072 237.194 224.724 237.194 223.06V214.099C237.194 212.436 235.845 211.087 234.181 211.087Z" fill="#EBEBEB"/>
<path d="M244.603 211.087H244.428C242.765 211.087 241.416 212.436 241.416 214.099V223.06C241.416 224.724 242.765 226.072 244.428 226.072H244.603C246.267 226.072 247.615 224.724 247.615 223.06V214.099C247.615 212.436 246.267 211.087 244.603 211.087Z" fill="#EBEBEB"/>
<path d="M255.025 211.087H254.85C253.187 211.087 251.838 212.436 251.838 214.099V223.06C251.838 224.724 253.187 226.072 254.85 226.072H255.025C256.689 226.072 258.037 224.724 258.037 223.06V214.099C258.037 212.436 256.689 211.087 255.025 211.087Z" fill="#EBEBEB"/>
<path d="M284.897 219.795C286.163 214.414 282.826 209.027 277.445 207.762C272.064 206.497 266.677 209.833 265.412 215.214C264.147 220.595 267.483 225.983 272.864 227.248C278.245 228.513 283.632 225.176 284.897 219.795Z" fill="white"/>
<path d="M242.003 243.361C242.003 244.54 241.653 245.692 240.997 246.673C240.342 247.653 239.411 248.417 238.321 248.867C237.232 249.318 236.033 249.435 234.877 249.205C233.72 248.974 232.659 248.405 231.826 247.571C230.993 246.736 230.426 245.673 230.197 244.517C229.968 243.36 230.088 242.161 230.541 241.073C230.993 239.984 231.759 239.054 232.74 238.4C233.722 237.747 234.875 237.399 236.054 237.401C236.836 237.401 237.611 237.556 238.333 237.855C239.055 238.155 239.712 238.594 240.264 239.147C240.817 239.701 241.255 240.358 241.553 241.081C241.851 241.804 242.004 242.579 242.003 243.361Z" fill="white"/>
<path d="M255.541 249.32C258.833 249.32 261.501 246.652 261.501 243.361C261.501 240.069 258.833 237.401 255.541 237.401C252.25 237.401 249.582 240.069 249.582 243.361C249.582 246.652 252.25 249.32 255.541 249.32Z" fill="white"/>
<path d="M280.969 243.361C280.969 244.539 280.62 245.691 279.965 246.671C279.31 247.651 278.38 248.415 277.291 248.866C276.202 249.317 275.003 249.435 273.847 249.205C272.692 248.976 271.63 248.408 270.796 247.575C269.963 246.741 269.395 245.679 269.165 244.523C268.935 243.367 269.053 242.169 269.504 241.08C269.955 239.991 270.719 239.061 271.699 238.406C272.679 237.751 273.831 237.401 275.01 237.401C275.793 237.4 276.569 237.553 277.292 237.852C278.016 238.151 278.673 238.59 279.227 239.144C279.781 239.697 280.22 240.355 280.519 241.078C280.818 241.802 280.971 242.578 280.969 243.361Z" fill="white"/>
<path d="M280.772 217.505C280.772 218.619 280.441 219.708 279.822 220.634C279.204 221.56 278.324 222.282 277.295 222.708C276.266 223.134 275.133 223.246 274.041 223.029C272.948 222.811 271.945 222.275 271.157 221.487C270.37 220.7 269.833 219.696 269.616 218.604C269.399 217.511 269.51 216.379 269.937 215.35C270.363 214.321 271.085 213.441 272.011 212.822C272.937 212.203 274.026 211.873 275.14 211.873C276.633 211.873 278.066 212.466 279.122 213.523C280.178 214.579 280.772 216.011 280.772 217.505Z" fill="#F5F5F5"/>
<path d="M318.792 187.37H492.146V201.559H318.792C316.968 201.559 315.22 200.834 313.93 199.545C312.64 198.255 311.916 196.506 311.916 194.683V194.268C311.913 193.363 312.089 192.467 312.433 191.63C312.777 190.793 313.283 190.033 313.922 189.392C314.561 188.751 315.32 188.243 316.156 187.896C316.991 187.549 317.887 187.37 318.792 187.37Z" fill="white"/>
<path d="M329.974 237.106C329.909 237.106 329.974 236.386 329.614 235.175C329.139 233.45 328.102 231.933 326.667 230.863C325.622 230.081 324.397 229.571 323.105 229.381C321.813 229.19 320.494 229.325 319.267 229.772C317.822 230.321 316.578 231.295 315.698 232.566C314.719 233.898 314.191 235.508 314.191 237.161C314.191 238.814 314.719 240.424 315.698 241.756C316.605 243.003 317.863 243.953 319.311 244.485C320.62 244.962 322.032 245.086 323.404 244.845C324.88 244.571 326.249 243.887 327.355 242.872C328.461 241.857 329.259 240.551 329.658 239.104C329.985 237.881 329.952 237.161 330.018 237.161C330.039 237.335 330.039 237.511 330.018 237.685C330.009 238.181 329.947 238.675 329.832 239.158C329.479 240.689 328.688 242.085 327.556 243.176C326.425 244.267 325.001 245.006 323.458 245.303C321.916 245.597 320.321 245.445 318.862 244.865C317.402 244.285 316.138 243.301 315.218 242.029C314.167 240.607 313.6 238.885 313.6 237.117C313.6 235.349 314.167 233.628 315.218 232.206C316.194 230.877 317.548 229.873 319.103 229.324C320.407 228.852 321.808 228.719 323.177 228.937C324.546 229.154 325.837 229.716 326.929 230.569C328.399 231.709 329.426 233.326 329.832 235.142C329.947 235.625 330.009 236.119 330.018 236.615C330.023 236.78 330.008 236.945 329.974 237.106Z" fill="white"/>
<path d="M488.715 258.281H437.515C432.844 258.281 429.057 262.068 429.057 266.74V267.253C429.057 271.925 432.844 275.712 437.515 275.712H488.715C493.387 275.712 497.174 271.925 497.174 267.253V266.74C497.174 262.068 493.387 258.281 488.715 258.281Z" fill="white"/>
<path d="M387.586 306.351C408.3 305.703 424.567 288.387 423.92 267.673C423.272 246.959 405.956 230.692 385.242 231.34C364.528 231.987 348.261 249.304 348.908 270.017C349.556 290.731 366.872 306.998 387.586 306.351Z" fill="white"/>
<path d="M348.901 268.202C348.901 268.202 348.901 268.268 348.901 268.3C348.785 273.255 349.651 278.183 351.45 282.801C353.249 287.419 355.945 291.635 359.382 295.205C362.819 298.775 366.929 301.629 371.475 303.602C376.022 305.575 380.913 306.628 385.869 306.7C390.824 306.772 395.745 305.862 400.346 304.022C404.948 302.182 409.139 299.449 412.679 295.98C416.218 292.511 419.036 288.376 420.968 283.812C422.901 279.249 423.91 274.348 423.938 269.392V269.294L348.901 268.202Z" fill="white"/>
<path d="M360.067 268.464C359.992 273.675 361.464 278.79 364.296 283.164C367.128 287.538 371.194 290.974 375.979 293.037C380.763 295.101 386.053 295.699 391.178 294.756C396.302 293.814 401.033 291.373 404.77 287.742C408.508 284.111 411.085 279.454 412.176 274.358C413.267 269.263 412.822 263.959 410.898 259.116C408.974 254.273 405.658 250.11 401.368 247.152C397.078 244.194 392.007 242.575 386.797 242.499C383.337 242.448 379.9 243.08 376.684 244.358C373.468 245.635 370.536 247.534 368.054 249.945C365.571 252.356 363.589 255.233 362.218 258.41C360.848 261.588 360.117 265.004 360.067 268.464Z" fill="#FAFAFA"/>
<path d="M386.794 242.499C379.807 242.4 373.066 245.079 368.054 249.948C363.042 254.817 360.168 261.477 360.064 268.464L412.749 269.217C412.845 262.234 410.166 255.498 405.299 250.488C400.433 245.479 393.777 242.605 386.794 242.499Z" fill="#F5F5F5"/>
<path d="M370.367 268.584C370.316 271.758 371.207 274.876 372.928 277.543C374.649 280.21 377.123 282.307 380.037 283.568C382.95 284.829 386.172 285.197 389.295 284.627C392.417 284.056 395.301 282.571 397.579 280.361C399.858 278.151 401.43 275.315 402.096 272.211C402.763 269.107 402.493 265.876 401.322 262.925C400.151 259.975 398.131 257.438 395.518 255.636C392.904 253.833 389.815 252.847 386.641 252.801C382.392 252.743 378.293 254.371 375.243 257.33C372.192 260.288 370.439 264.335 370.367 268.584Z" fill="white"/>
<path d="M96.1759 306.361C116.889 305.695 133.141 288.365 132.476 267.652C131.81 246.938 114.479 230.686 93.7663 231.352C73.0531 232.017 56.8011 249.348 57.4666 270.061C58.132 290.774 75.4628 307.026 96.1759 306.361Z" fill="white"/>
<path d="M57.4747 268.202V268.3C57.403 273.227 58.3023 278.119 60.1213 282.698C61.9403 287.276 64.6434 291.452 68.0761 294.986C71.5088 298.52 75.604 301.343 80.1279 303.295C84.6517 305.246 89.5157 306.287 94.4419 306.359C99.3682 306.431 104.26 305.531 108.839 303.712C113.418 301.893 117.593 299.19 121.127 295.758C124.662 292.325 127.485 288.23 129.436 283.706C131.388 279.182 132.429 274.318 132.501 269.392C132.506 269.359 132.506 269.326 132.501 269.294L57.4747 268.202Z" fill="white"/>
<path d="M68.651 268.464C68.5782 273.672 70.051 278.784 72.8834 283.155C75.7157 287.526 79.7804 290.959 84.5634 293.02C89.3465 295.08 94.6333 295.677 99.7553 294.734C104.877 293.79 109.605 291.349 113.34 287.72C117.075 284.09 119.65 279.434 120.739 274.341C121.828 269.248 121.383 263.947 119.46 259.107C117.537 254.267 114.221 250.106 109.933 247.149C105.645 244.193 100.577 242.575 95.3696 242.499C91.91 242.448 88.4744 243.08 85.259 244.358C82.0437 245.636 79.1116 247.534 76.6303 249.946C74.1491 252.357 72.1672 255.234 70.7981 258.411C69.429 261.589 68.6994 265.005 68.651 268.464Z" fill="#FAFAFA"/>
<path d="M95.367 242.499C88.3809 242.4 81.6414 245.079 76.6309 249.949C71.6204 254.818 68.749 261.478 68.6484 268.464L121.322 269.217C121.372 265.759 120.741 262.324 119.464 259.109C118.187 255.895 116.289 252.963 113.879 250.482C111.469 248.001 108.593 246.019 105.417 244.649C102.241 243.279 98.8257 242.549 95.367 242.499Z" fill="#F5F5F5"/>
<path d="M78.9435 268.584C78.8921 271.757 79.7831 274.875 81.5038 277.542C83.2245 280.209 85.6977 282.306 88.6104 283.567C91.5231 284.828 94.7444 285.197 97.8668 284.627C100.989 284.057 103.872 282.574 106.152 280.365C108.431 278.156 110.004 275.321 110.671 272.218C111.339 269.115 111.071 265.883 109.901 262.933C108.732 259.982 106.714 257.444 104.102 255.641C101.49 253.838 98.4015 252.849 95.2279 252.801C90.9771 252.74 86.8755 254.367 83.8228 257.326C80.77 260.285 79.0153 264.333 78.9435 268.584Z" fill="white"/>
<path d="M138.042 259.033H342.328V268.289C342.328 269.904 341.686 271.453 340.544 272.595C339.402 273.737 337.853 274.379 336.238 274.379H151.129C147.655 274.379 144.324 272.999 141.867 270.543C139.411 268.087 138.031 264.755 138.031 261.282V259.022L138.042 259.033Z" fill="white"/>
<path d="M479.458 143.985H203.443C201.315 143.985 199.59 145.71 199.59 147.838V148.067C199.59 150.195 201.315 151.92 203.443 151.92H479.458C481.586 151.92 483.311 150.195 483.311 148.067V147.838C483.311 145.71 481.586 143.985 479.458 143.985Z" fill="white"/>
<path d="M479.458 173.945H203.443C201.315 173.945 199.59 175.67 199.59 177.798V178.027C199.59 180.155 201.315 181.88 203.443 181.88H479.458C481.586 181.88 483.311 180.155 483.311 178.027V177.798C483.311 175.67 481.586 173.945 479.458 173.945Z" fill="white"/>
<path d="M218.361 147.958H212.871V174.949H218.361V147.958Z" fill="white"/>
<path d="M241.232 147.958H235.742V174.949H241.232V147.958Z" fill="white"/>
<path d="M264.099 147.958H258.609V174.949H264.099V147.958Z" fill="white"/>
<path d="M286.961 147.958H281.471V174.949H286.961V147.958Z" fill="white"/>
<path d="M309.832 147.958H304.342V174.949H309.832V147.958Z" fill="white"/>
<path d="M332.691 147.958H327.201V174.949H332.691V147.958Z" fill="white"/>
<path d="M355.56 147.958H350.07V174.949H355.56V147.958Z" fill="white"/>
<path d="M378.426 147.958H372.936V174.949H378.426V147.958Z" fill="white"/>
<path d="M401.291 147.958H395.801V174.949H401.291V147.958Z" fill="white"/>
<path d="M423.002 147.958H417.512V174.949H423.002V147.958Z" fill="white"/>
<path d="M444.699 147.958H439.209V174.949H444.699V147.958Z" fill="white"/>
<path d="M466.396 147.958H460.906V174.949H466.396V147.958Z" fill="white"/>
<path d="M146.394 259.852C146.394 259.852 146.394 259.732 146.273 259.492C146.153 259.252 146.099 258.859 145.979 258.401C145.859 257.942 145.706 257.309 145.488 256.633C145.269 255.956 144.986 255.148 144.691 254.264C144.396 253.38 143.949 252.409 143.534 251.35C143.119 250.291 142.53 249.167 141.973 247.967C140.593 245.269 139.036 242.666 137.313 240.174C132.892 233.635 127.257 228.006 120.712 223.595C118.813 222.344 116.817 221.249 114.742 220.32C112.554 219.393 110.321 218.577 108.051 217.875C105.709 217.138 103.326 216.54 100.913 216.086C98.4257 215.622 95.9094 215.33 93.382 215.212C88.3988 214.959 83.4064 215.478 78.582 216.751C74.0984 217.983 69.8212 219.87 65.8885 222.35C56.6704 228.289 49.295 236.685 44.5944 246.591C44.0596 247.814 43.503 248.949 43.1537 250.019C42.8044 251.088 42.4006 252.081 42.1386 252.987C41.8767 253.893 41.6693 254.69 41.4729 255.399C41.2764 256.109 41.2109 256.709 41.1018 257.189C40.9926 257.67 40.9271 258.019 40.8726 258.281C40.8519 258.407 40.819 258.532 40.7743 258.652C40.7575 258.525 40.7575 258.397 40.7743 258.27C40.7743 257.986 40.8726 257.615 40.949 257.178C41.0254 256.742 41.1127 256.087 41.2655 255.367C41.4183 254.646 41.6475 253.85 41.8767 252.933C42.1059 252.016 42.4988 251.034 42.8481 249.942C43.1973 248.851 43.7431 247.705 44.256 246.471C45.5358 243.705 47.0321 241.045 48.731 238.515C53.1655 231.9 58.8944 226.253 65.572 221.914C69.539 219.396 73.857 217.48 78.3856 216.227C83.2681 214.924 88.324 214.39 93.3711 214.645C95.9353 214.768 98.488 215.067 101.011 215.54C103.448 216.008 105.857 216.613 108.226 217.352C110.55 218.072 112.788 218.934 114.949 219.84C117.05 220.765 119.073 221.86 120.996 223.114C127.583 227.579 133.236 233.284 137.64 239.912C139.358 242.425 140.901 245.055 142.257 247.781C142.803 249.004 143.348 250.128 143.785 251.197C144.222 252.267 144.604 253.249 144.876 254.144L145.63 256.545C145.826 257.244 145.946 257.844 146.066 258.324C146.186 258.805 146.252 259.154 146.306 259.416C146.356 259.557 146.385 259.704 146.394 259.852Z" fill="white"/>
<path d="M45.0214 156.853H43.3843C42.0961 156.853 40.8608 156.341 39.9499 155.43C39.0391 154.52 38.5273 153.284 38.5273 151.996V129.414H41.8017V151.996C41.8017 152.416 41.9684 152.818 42.2652 153.115C42.562 153.412 42.9645 153.579 43.3843 153.579H45.0214V156.853Z" fill="white"/>
<path d="M21.6104 231.322H2.11719V244.245H21.6104V231.322Z" fill="white"/>
<path d="M29.6773 203.96C29.208 204.429 29.6773 244.245 29.6773 244.245H45.9071C45.9071 244.245 57.2691 219.884 83.0163 215.573V203.96H29.6773Z" fill="white"/>
<path d="M51.8013 138.069H51.4084C47.8821 138.069 45.0234 140.928 45.0234 144.454V161.001C45.0234 164.527 47.8821 167.386 51.4084 167.386H51.8013C55.3276 167.386 58.1863 164.527 58.1863 161.001V144.454C58.1863 140.928 55.3276 138.069 51.8013 138.069Z" fill="#F5F5F5"/>
<path d="M170.081 258.675C169.928 258.675 169.797 246.145 169.797 230.69C169.797 215.235 169.928 202.694 170.081 202.694C170.233 202.694 170.364 215.224 170.364 230.69C170.364 246.156 170.244 258.675 170.081 258.675Z" fill="white"/>
<path d="M180.088 258.675C179.936 258.675 179.805 246.145 179.805 230.69C179.805 215.235 179.936 202.694 180.088 202.694C180.241 202.694 180.372 215.224 180.372 230.69C180.372 246.156 180.241 258.675 180.088 258.675Z" fill="white"/>
<path d="M190.098 258.675C189.935 258.675 189.814 246.145 189.814 230.69C189.814 215.235 189.935 202.694 190.098 202.694C190.262 202.694 190.382 215.224 190.382 230.69C190.382 246.156 190.251 258.675 190.098 258.675Z" fill="white"/>
<path d="M200.1 258.675C199.936 258.675 199.816 246.145 199.816 230.69C199.816 215.235 199.936 202.694 200.1 202.694C200.264 202.694 200.384 215.224 200.384 230.69C200.384 246.156 200.253 258.675 200.1 258.675Z" fill="white"/>
<path d="M210.104 258.675C209.951 258.675 209.82 246.145 209.82 230.69C209.82 215.235 209.951 202.694 210.104 202.694C210.257 202.694 210.388 215.224 210.388 230.69C210.388 246.156 210.268 258.675 210.104 258.675Z" fill="white"/>
<path d="M234.018 206.045C235.145 206.045 236.059 205.131 236.059 204.004C236.059 202.877 235.145 201.963 234.018 201.963C232.89 201.963 231.977 202.877 231.977 204.004C231.977 205.131 232.89 206.045 234.018 206.045Z" fill="white"/>
<path d="M239.625 206.045C240.752 206.045 241.666 205.131 241.666 204.004C241.666 202.877 240.752 201.963 239.625 201.963C238.498 201.963 237.584 202.877 237.584 204.004C237.584 205.131 238.498 206.045 239.625 206.045Z" fill="white"/>
<path d="M247.275 204.004C247.275 204.408 247.156 204.802 246.931 205.138C246.707 205.473 246.388 205.735 246.015 205.89C245.642 206.044 245.232 206.084 244.836 206.006C244.44 205.927 244.077 205.733 243.791 205.447C243.506 205.162 243.311 204.798 243.233 204.402C243.154 204.006 243.194 203.596 243.349 203.223C243.503 202.85 243.765 202.531 244.1 202.307C244.436 202.083 244.831 201.963 245.234 201.963C245.776 201.963 246.295 202.178 246.678 202.561C247.06 202.943 247.275 203.463 247.275 204.004Z" fill="white"/>
<path d="M383.37 226.105C383.206 226.105 383.086 220.866 383.086 214.416C383.086 207.965 383.206 202.737 383.37 202.737C383.533 202.737 383.654 207.965 383.654 214.416C383.654 220.866 383.49 226.105 383.37 226.105Z" fill="white"/>
<path d="M492.144 201.537C492.144 201.537 492.144 201.221 492.144 200.599C492.144 199.976 492.144 199.071 492.144 197.881C492.144 195.491 492.143 191.965 492.089 187.37L492.198 187.479L423.131 187.61H372.554H318.636C317.431 187.637 316.256 187.996 315.242 188.647C313.901 189.51 312.917 190.828 312.47 192.358C312.251 193.12 312.162 193.913 312.208 194.705C312.213 195.49 312.364 196.267 312.655 196.997C313.077 198.093 313.786 199.055 314.708 199.783C315.63 200.51 316.73 200.977 317.894 201.133C318.685 201.2 319.48 201.221 320.274 201.199H339.265H375.151L435.967 201.275L477.027 201.363H488.214H491.128H492.144H491.172H488.291H477.169L436.174 201.45L375.282 201.526H339.265H320.274C319.454 201.549 318.634 201.524 317.818 201.45C316.981 201.344 316.171 201.085 315.428 200.686C313.93 199.872 312.769 198.553 312.153 196.964C311.832 196.173 311.666 195.329 311.662 194.476C311.61 193.625 311.706 192.772 311.946 191.954C312.37 190.495 313.249 189.208 314.454 188.282C315.659 187.356 317.128 186.837 318.647 186.803H372.456H423.033L492.1 186.934H492.198V187.032C492.198 191.649 492.198 195.196 492.144 197.608C492.144 198.787 492.144 199.682 492.144 200.304C492.144 200.926 492.144 201.537 492.144 201.537Z" fill="white"/>
<path d="M139.718 370.973C139.718 371.137 120.17 371.257 96.0602 371.257C71.9501 371.257 52.4023 371.137 52.4023 370.973C52.4023 370.81 71.9501 370.689 96.0602 370.689C120.17 370.689 139.718 370.82 139.718 370.973Z" fill="white"/>
<path d="M335.89 370.973C335.89 371.137 316.342 371.257 292.232 371.257C268.122 371.257 248.574 371.137 248.574 370.973C248.574 370.81 268.122 370.689 292.232 370.689C316.342 370.689 335.89 370.82 335.89 370.973Z" fill="white"/>
<path d="M103.964 415.558C105.099 416.095 106.116 416.854 106.952 417.792C107.788 418.73 108.428 419.826 108.831 421.015C109.612 423.422 109.832 425.976 109.475 428.481C108.93 433.327 106.201 438.217 103.21 442.091C99.1284 438.533 98.1898 432.323 97.9169 429.136C97.4803 424.115 99.7287 414.761 103.964 415.515" fill="#00BD62"/>
<path d="M107.914 450.125C107.632 448.735 107.724 447.296 108.18 445.954C108.637 444.611 109.441 443.414 110.511 442.484C111.589 441.575 112.837 440.89 114.183 440.468C115.528 440.047 116.944 439.897 118.348 440.029C119.001 440.02 119.648 440.155 120.244 440.422C120.839 440.69 121.369 441.085 121.797 441.578C122.106 442.105 122.269 442.704 122.269 443.314C122.269 443.924 122.106 444.523 121.797 445.049C121.185 446.105 120.304 446.979 119.243 447.581C115.707 449.764 111.887 451.292 107.881 450.092" fill="#00BD62"/>
<path d="M100.863 453.039C100.37 450.104 99.1856 447.329 97.4072 444.944C95.6288 442.558 93.3079 440.63 90.6364 439.319C89.2721 438.664 87.4931 438.228 86.3689 439.254C85.2447 440.28 85.4957 442.092 86.0524 443.499C87.2475 446.425 89.2829 448.931 91.9016 450.701C94.5202 452.471 97.6046 453.425 100.765 453.443" fill="#00BD62"/>
<path d="M199.092 426.047L200.39 451.696C200.39 451.696 174.763 461.628 174.545 466.387L224.358 465.655L224.02 425.61L199.092 426.047Z" fill="#263238"/>
<path d="M215.767 449.306C216.248 449.446 216.66 449.758 216.926 450.183C217.191 450.607 217.292 451.115 217.207 451.609C217.085 452.094 216.782 452.515 216.36 452.785C215.938 453.055 215.429 453.153 214.937 453.06C214.431 452.906 213.998 452.573 213.719 452.123C213.44 451.673 213.333 451.138 213.42 450.615C213.598 450.12 213.962 449.714 214.435 449.482C214.907 449.249 215.451 449.21 215.952 449.371" fill="white"/>
<path d="M224.361 465.656L224.165 461.617L176.479 463.8C176.479 463.8 174.296 464.793 174.547 466.354L224.361 465.656Z" fill="#455A64"/>
<path d="M199.58 451.456C199.58 451.696 200.813 451.784 202.014 452.548C203.214 453.312 203.88 454.327 204.098 454.229C204.316 454.13 203.945 452.733 202.461 451.827C200.977 450.922 199.525 451.227 199.58 451.456Z" fill="white"/>
<path d="M194.387 453.694C194.387 453.924 195.402 454.327 196.242 455.343C197.083 456.358 197.334 457.438 197.574 457.427C197.814 457.416 197.956 456.041 196.886 454.797C195.817 453.553 194.387 453.454 194.387 453.694Z" fill="white"/>
<path d="M191.514 459.992C191.733 459.992 192.049 458.813 191.405 457.492C190.761 456.172 189.615 455.659 189.517 455.855C189.419 456.051 190.139 456.761 190.608 457.863C191.078 458.966 191.274 459.97 191.514 459.992Z" fill="white"/>
<path d="M199.933 445.573C200.042 445.792 201.155 445.442 202.53 445.519C203.905 445.595 204.986 446.01 205.106 445.792C205.226 445.573 204.189 444.7 202.563 444.7C200.937 444.7 199.813 445.399 199.933 445.573Z" fill="white"/>
<path d="M292.258 421.049L295.652 451.948L305.388 475.599C305.552 476.004 305.632 476.437 305.623 476.874C305.613 477.31 305.514 477.74 305.332 478.137C305.15 478.533 304.889 478.889 304.564 479.181C304.24 479.472 303.859 479.695 303.445 479.834C302.964 479.996 302.451 480.04 301.95 479.962C301.449 479.884 300.973 479.687 300.564 479.387C295.27 475.501 275.843 461.138 275.723 458.856C275.581 456.226 269.971 426.528 269.971 426.528L292.258 421.049Z" fill="#263238"/>
<path d="M303.448 479.812L275.441 456.761L275.616 458.07C275.769 459.196 276.314 460.232 277.155 460.996C279.414 463.037 285.788 468.516 300.479 479.375C300.9 479.687 301.391 479.89 301.909 479.966C302.427 480.043 302.955 479.99 303.448 479.812Z" fill="#455A64"/>
<path d="M294.615 467.293C294.8 467.358 295.281 465.645 296.994 464.531C298.708 463.418 300.443 463.582 300.454 463.44C300.465 463.298 300.05 463.178 299.363 463.167C298.402 463.193 297.469 463.49 296.671 464.025C295.873 464.561 295.243 465.311 294.855 466.19C294.527 466.812 294.538 467.282 294.615 467.293Z" fill="white"/>
<path d="M297.355 471.124C297.529 471.233 298.38 470.098 299.908 469.432C300.878 469.113 301.866 468.851 302.866 468.646C302.932 468.483 301.36 468.024 299.592 468.81C297.824 469.596 297.147 471.059 297.355 471.124Z" fill="white"/>
<path d="M289.834 462.557C289.998 462.677 291.296 460.931 293.588 459.687C295.88 458.442 298.042 458.213 298.02 458.006C296.354 457.794 294.668 458.181 293.261 459.097C290.805 460.429 289.67 462.481 289.834 462.557Z" fill="white"/>
<path d="M288.012 453.246C288.121 453.421 289.726 452.482 291.931 452.155C294.135 451.827 295.958 452.078 296.002 451.882C296.045 451.686 294.168 451.053 291.811 451.478C289.453 451.904 287.892 453.126 288.012 453.246Z" fill="white"/>
<path d="M286.79 444.209C286.899 444.373 288.481 443.118 290.828 442.921C293.175 442.725 294.965 443.587 295.052 443.401C295.139 443.216 294.703 442.987 293.96 442.67C292.95 442.277 291.861 442.127 290.782 442.233C289.703 442.34 288.664 442.699 287.75 443.281C287.041 443.74 286.724 444.155 286.79 444.209Z" fill="white"/>
<path d="M290.599 441.208C290.652 440.812 290.615 440.409 290.49 440.029C290.238 438.978 289.785 437.985 289.158 437.104C288.731 436.407 288.087 435.87 287.325 435.576C287.072 435.505 286.803 435.512 286.554 435.596C286.305 435.679 286.086 435.836 285.928 436.045C285.655 436.481 285.55 437.001 285.633 437.508C285.839 438.533 286.397 439.454 287.21 440.112C288.023 440.77 289.04 441.123 290.086 441.11C291.12 441.075 292.12 440.735 292.961 440.133C293.802 439.531 294.446 438.694 294.812 437.726C294.9 437.481 294.935 437.22 294.914 436.96C294.894 436.7 294.818 436.448 294.692 436.22C294.54 436.005 294.325 435.842 294.076 435.756C293.828 435.67 293.558 435.664 293.306 435.74C292.572 436.008 291.921 436.463 291.418 437.06C290.671 437.841 290.065 438.746 289.628 439.734C289.448 440.073 289.336 440.444 289.3 440.826C289.946 439.559 290.774 438.394 291.756 437.366C292.219 436.876 292.791 436.502 293.426 436.275C293.565 436.234 293.713 436.237 293.85 436.284C293.986 436.331 294.105 436.419 294.19 436.536C294.259 436.693 294.294 436.862 294.294 437.033C294.294 437.204 294.259 437.373 294.19 437.53C293.849 438.357 293.278 439.068 292.545 439.581C291.812 440.094 290.947 440.385 290.053 440.422C289.17 440.426 288.311 440.13 287.617 439.583C286.923 439.036 286.436 438.27 286.233 437.41C286.164 437.059 286.222 436.695 286.397 436.384C286.481 436.266 286.599 436.176 286.736 436.127C286.873 436.078 287.021 436.073 287.161 436.111C287.783 436.364 288.313 436.802 288.678 437.366C289.548 438.518 290.199 439.821 290.599 441.208Z" fill="white"/>
<path d="M197.761 278.004L195.447 339.605L195.163 391.056C195.163 391.056 193.482 433.862 195.916 444.536C195.916 444.536 227.568 445.628 227.568 444.536C227.568 443.445 231.934 372.501 231.934 372.501C231.934 372.501 240.229 318.409 240.502 311.991C240.894 306.428 241.564 300.887 242.51 295.39C242.51 295.39 254.418 348.129 254.691 362.056C254.963 375.983 271.291 444.787 271.291 444.787L297.803 442.604L291.101 331.223C291.101 331.223 285.982 259.853 286.233 258.991C286.484 258.128 202.792 262.974 202.792 262.723C202.792 262.472 197.761 278.004 197.761 278.004Z" fill="#00BD62"/>
<g opacity="0.3">
<path opacity="0.3" d="M197.281 280.656C197.281 280.656 199.672 283.145 217.146 285.175C224.603 285.893 232.096 286.174 239.586 286.015L240.186 280.656L241.692 286.015C248.568 285.83 257.704 284.738 263.521 284.258C271.6 283.39 279.495 281.269 286.922 277.971H244.759L239.302 267.733L235.929 278.888L197.281 280.656Z" fill="black"/>
</g>
<path d="M258.535 340.828L263.992 392.671C270.227 395.313 277.119 395.988 283.748 394.603C294.662 392.257 294.586 390.5 294.586 390.5L291.475 338.743C281.259 341.646 270.181 342.083 258.535 340.828Z" fill="#263238"/>
<path d="M228.496 339.889L225.833 391.918C219.746 394.906 212.889 395.954 206.187 394.919C195.12 393.173 195.131 391.416 195.131 391.416L195.415 339.572C205.86 341.941 216.949 341.766 228.496 339.889Z" fill="#263238"/>
<path d="M263.217 409.37L295.589 406.347L296.266 417.752L265.629 420.284L263.217 409.796" fill="white"/>
<path d="M296.516 421.911L266.676 424.967L269.142 435.74L297.204 433.349L296.516 421.911Z" fill="white"/>
<path d="M264.02 413.343L295.824 410.342L296.043 414.085L264.871 417.043L264.02 413.343Z" fill="white"/>
<path d="M267.605 428.809L296.736 426.059L296.954 429.802L268.457 432.509L267.605 428.809Z" fill="white"/>
<path d="M194.127 407.22L194.356 418.451L228.966 420.579L229.686 408.595L194.127 407.22Z" fill="white"/>
<path d="M194.182 410.254L229.446 412.557L229.272 416.639L194.324 414.794L194.182 410.254Z" fill="white"/>
<path d="M194.463 423.166C194.463 426.626 194.67 430.501 194.91 434.637L227.992 436.525L228.571 427.041L228.636 425.338L194.463 423.166Z" fill="white"/>
<path d="M194.529 426.2L228.484 428.536L228.222 432.618L194.649 430.741L194.529 426.2Z" fill="white"/>
<g opacity="0.3">
<path opacity="0.3" d="M197.408 285.186L218.462 289.093C216.468 298.632 214.475 308.175 212.481 317.722L196.666 310.147L196.972 298.141L199.897 292.793L197.277 289.519L197.408 285.186Z" fill="black"/>
</g>
<path d="M306.611 197.346C306.611 197.346 307.517 192.489 307.703 191.125C307.888 189.761 297.694 155.937 294.06 147.904C292.499 144.477 289.41 141.595 286.365 139.423C282.016 136.349 276.644 135.082 271.38 135.887H271.15L278.278 190.034L277.492 190.099C279.337 196.057 280.867 202.109 282.076 208.228C283.986 217.975 289.803 249.779 289.803 250.794C289.803 251.809 312.429 255.127 312.429 255.127C314.35 239.509 306.611 197.346 306.611 197.346Z" fill="#00BD62"/>
<path d="M291.428 255.127C291.516 255.859 292.312 260.355 292.312 260.355L289.3 264.721C287.99 266.609 283.406 278.419 283.406 278.419C283.405 278.742 283.473 279.062 283.606 279.357C283.739 279.652 283.933 279.914 284.176 280.128C284.419 280.341 284.705 280.499 285.015 280.592C285.325 280.685 285.651 280.711 285.971 280.667C288.525 280.514 293.535 274.621 294.594 274.446C295.652 274.271 298.032 278.059 298.032 278.059C298.032 278.059 298.119 282.424 296.798 283.69C295.478 284.957 290.359 289.672 290.719 291.876C291.079 294.081 294.681 293.459 296.711 292.837C298.741 292.215 301.906 291.876 302.867 290.654C303.827 289.431 310.179 283.079 310.703 282.206C311.227 281.333 310.616 271.554 310.703 268.825C310.791 266.096 311.675 258.696 311.675 258.696L312.373 255.149L290.719 251.329L291.428 255.127Z" fill="#263238"/>
<path d="M289.768 250.838L290.717 255.127L312.371 258.904V255.127L289.768 250.838Z" fill="#455A64"/>
<path d="M310.767 223.759C310.767 223.759 306.511 218.913 297.113 220.19C288.687 221.336 285.348 225.865 285.348 225.865L287.072 235.579C287.072 235.579 299.482 228.321 311.87 234.488L310.767 223.759Z" fill="white"/>
<path d="M311.053 226.488C311.053 226.488 306.688 222.286 297.301 223.563C288.875 224.709 286.07 228.965 286.07 228.965L286.605 232.316C286.605 232.316 299.048 224.196 311.446 230.308L311.053 226.488Z" fill="white"/>
<path d="M287.224 156.799C287.278 157.34 287.278 157.884 287.224 158.425C287.224 159.517 287.093 160.968 286.94 162.791C286.504 167.629 285.775 172.437 284.758 177.187C283.725 181.955 282.394 186.654 280.774 191.256C280.152 193.013 279.606 194.421 279.202 195.381C279.023 195.892 278.796 196.386 278.525 196.855C278.636 196.325 278.793 195.807 278.995 195.305C279.344 194.323 279.824 192.893 280.392 191.125C281.538 187.589 282.978 182.655 284.19 177.111C285.402 171.566 286.122 166.48 286.548 162.791C286.755 160.946 286.919 159.44 287.006 158.425C287.037 157.878 287.11 157.335 287.224 156.799Z" fill="#263238"/>
<path d="M291.583 177.831C291.267 178.897 290.835 179.926 290.295 180.898C289.106 183.297 287.749 185.609 286.235 187.818C284.727 190.04 283.072 192.159 281.28 194.159C280.569 195.017 279.772 195.8 278.9 196.495C279.532 195.583 280.224 194.715 280.974 193.897C282.273 192.315 284.019 190.077 285.766 187.501C287.512 184.925 288.942 182.47 289.924 180.669C290.415 179.688 290.969 178.74 291.583 177.831Z" fill="#263238"/>
<path d="M213.345 114.33C229.586 107.951 247.515 107.285 264.185 112.442C265.064 112.62 265.864 113.076 266.466 113.741C267.557 115.269 266.367 117.365 265.178 118.838C259.851 125.387 254.012 131.935 246.318 135.395C243.975 136.632 241.298 137.087 238.677 136.694C236.276 136.181 234.312 134.588 232.369 133.038C225.253 127.253 218.06 121.392 212.646 114.003" fill="#00BD62"/>
<g opacity="0.3">
<path opacity="0.3" d="M213.347 114.33C229.588 107.951 247.517 107.285 264.186 112.442C265.066 112.62 265.865 113.076 266.468 113.741C267.559 115.269 266.369 117.365 265.18 118.838C259.853 125.387 254.014 131.935 246.32 135.395C243.977 136.632 241.299 137.087 238.679 136.694C236.278 136.181 234.314 134.588 232.371 133.038C225.255 127.253 218.062 121.392 212.648 114.003" fill="black"/>
</g>
<path d="M266.816 92.5775C269.934 86.817 271.492 80.3417 271.335 73.7937C271.418 71.2363 270.783 68.7068 269.501 66.4919C268.028 64.309 262.724 61.7441 260.377 60.4453L261.599 69.0896C261.599 69.0896 266.413 74.7105 266.707 75.3326C267.002 75.9548 266.816 92.5775 266.816 92.5775Z" fill="#263238"/>
<path d="M226.695 96.2454C225.106 91.5615 223.926 86.7483 223.17 81.8602C222.412 76.9535 222.884 71.9355 224.545 67.2566C224.818 66.5581 227.11 61.8758 227.819 61.9631C228.354 61.9631 226.924 66.3944 227.186 66.8637C229.555 71.4361 230.48 76.6198 229.838 81.7292C229.316 86.6699 228.251 91.5379 226.662 96.2454" fill="#263238"/>
<path d="M226.476 77.3853C226.203 64.9864 233.275 54.5304 245.663 54.6614L246.755 54.7378C252.313 55.1108 257.526 57.5647 261.355 61.6105C265.185 65.6562 267.349 70.9965 267.416 76.5667C267.558 87.3065 267.568 99.1814 267.11 104.944C266.15 116.797 254.165 117.834 254.165 117.834L254.318 137.36L226.17 138.091L226.476 77.3853Z" fill="#E49384"/>
<path d="M254.225 117.779C248.743 117.395 243.486 115.448 239.076 112.169C239.076 112.169 242.22 122.057 254.138 121.785L254.225 117.779Z" fill="#A86B62"/>
<path d="M261.632 86.2252C261.609 86.6682 261.414 87.0845 261.087 87.3846C260.76 87.6847 260.329 87.8445 259.886 87.8296C259.669 87.8326 259.454 87.7919 259.253 87.71C259.052 87.6281 258.87 87.5066 258.717 87.3529C258.565 87.1991 258.444 87.0161 258.364 86.8149C258.283 86.6137 258.244 86.3983 258.248 86.1815C258.271 85.7386 258.467 85.3222 258.793 85.0221C259.12 84.722 259.551 84.5622 259.995 84.5771C260.211 84.5757 260.425 84.6174 260.625 84.6998C260.826 84.7822 261.007 84.9038 261.16 85.0572C261.312 85.2107 261.432 85.3931 261.513 85.5936C261.595 85.7942 261.635 86.0089 261.632 86.2252Z" fill="#263238"/>
<path d="M264.602 81.3039C264.383 81.5112 263.161 80.4744 261.327 80.3543C259.494 80.2342 258.107 81.0528 257.922 80.8127C257.736 80.5726 258.075 80.3216 258.686 79.9395C259.51 79.445 260.467 79.2199 261.425 79.2956C262.382 79.374 263.288 79.7565 264.012 80.387C264.547 80.7909 264.711 81.2056 264.602 81.3039Z" fill="#263238"/>
<path d="M245.373 85.6911C245.348 86.1321 245.151 86.5457 244.825 86.8435C244.498 87.1412 244.068 87.2995 243.627 87.2846C243.409 87.289 243.193 87.2494 242.991 87.1682C242.789 87.0869 242.606 86.9657 242.452 86.8118C242.298 86.6578 242.176 86.4744 242.095 86.2724C242.014 86.0704 241.974 85.8541 241.979 85.6365C242.004 85.1954 242.201 84.7818 242.527 84.4841C242.854 84.1863 243.284 84.028 243.725 84.043C243.942 84.04 244.158 84.0807 244.359 84.1624C244.561 84.2442 244.743 84.3655 244.897 84.5191C245.051 84.6728 245.172 84.8556 245.254 85.0569C245.336 85.2582 245.376 85.4738 245.373 85.6911Z" fill="#263238"/>
<path d="M246.69 80.8563C246.461 81.0637 245.25 80.0268 243.416 79.9068C241.582 79.7867 240.142 80.6053 240.011 80.3761C239.88 80.1469 240.153 79.885 240.764 79.5029C241.593 79.0104 242.552 78.782 243.514 78.8481C244.471 78.9265 245.377 79.309 246.101 79.9395C246.636 80.3215 246.799 80.7363 246.69 80.8563Z" fill="#263238"/>
<path d="M252.279 95.2855C253.261 95.0427 254.27 94.929 255.281 94.9472C255.75 94.9472 256.198 94.8708 256.296 94.5543C256.365 94.0772 256.289 93.5904 256.078 93.1572C255.717 92.0003 255.335 90.7888 254.986 89.5118C253.414 84.3383 252.312 80.0926 252.519 80.0271C252.727 79.9616 254.178 84.1201 255.794 89.2935C256.176 90.5705 256.536 91.7929 256.885 92.9499C257.14 93.5316 257.183 94.1845 257.005 94.7944C256.924 94.9538 256.808 95.0933 256.667 95.2027C256.525 95.3122 256.361 95.3889 256.187 95.4274C255.924 95.476 255.657 95.4943 255.39 95.482C254.349 95.551 253.303 95.4849 252.279 95.2855Z" fill="#263238"/>
<path d="M246.831 96.1367C247.126 96.1367 246.995 98.1122 248.589 99.6403C250.182 101.168 252.31 101.081 252.31 101.365C252.31 101.485 251.819 101.714 250.924 101.681C249.764 101.615 248.663 101.144 247.814 100.35C247 99.5877 246.514 98.5385 246.46 97.4246C246.438 96.6279 246.69 96.1367 246.831 96.1367Z" fill="#263238"/>
<path d="M247.092 73.4231C246.873 73.9034 245.072 73.5432 242.911 73.6523C240.75 73.7615 238.993 74.2308 238.731 73.7724C238.622 73.5541 238.96 73.1066 239.681 72.6809C240.649 72.1476 241.73 71.8486 242.835 71.8078C243.94 71.7592 245.041 71.9645 246.055 72.4081C246.819 72.7682 247.179 73.2157 247.092 73.4231Z" fill="#263238"/>
<path d="M264.263 75.1916C263.914 75.5845 262.691 75.0606 261.174 74.9406C259.657 74.8205 258.369 75.0279 258.107 74.5804C257.987 74.3621 258.216 73.9583 258.806 73.5981C259.586 73.175 260.477 72.9998 261.36 73.096C262.247 73.1644 263.089 73.5165 263.761 74.1002C264.274 74.5586 264.405 74.9951 264.263 75.1916Z" fill="#263238"/>
<path d="M226.85 86.2364C226.654 86.1382 218.861 83.2677 218.566 91.3989C218.272 99.5302 226.501 98.1441 226.523 97.9476C226.545 97.7511 226.85 86.2364 226.85 86.2364Z" fill="#E49384"/>
<path d="M224.153 94.7392C224.153 94.7392 224 94.8374 223.76 94.9356C223.587 95.0083 223.402 95.0457 223.214 95.0457C223.027 95.0457 222.841 95.0083 222.669 94.9356C222.156 94.5822 221.746 94.0989 221.481 93.535C221.217 92.9712 221.107 92.3471 221.162 91.7268C221.165 91.0305 221.326 90.344 221.632 89.7185C221.706 89.459 221.846 89.2227 222.037 89.0318C222.227 88.8409 222.464 88.7016 222.723 88.6271C222.887 88.5881 223.059 88.6083 223.209 88.6843C223.359 88.7602 223.477 88.8869 223.542 89.0418C223.64 89.271 223.542 89.4348 223.629 89.4457C223.716 89.4566 223.815 89.3256 223.76 88.9873C223.718 88.7839 223.611 88.5999 223.454 88.4634C223.237 88.2867 222.959 88.2007 222.68 88.2232C222.343 88.2778 222.025 88.4178 221.758 88.6298C221.49 88.8419 221.281 89.1191 221.152 89.4348C220.783 90.1271 220.588 90.8987 220.584 91.6831C220.584 93.3203 221.359 94.8811 222.527 95.2631C222.741 95.3361 222.97 95.3593 223.195 95.3309C223.42 95.3025 223.636 95.2234 223.826 95.0994C224.131 94.9356 224.175 94.761 224.153 94.7392Z" fill="#A86B62"/>
<path d="M262.582 62.9339C263.914 62.2463 260.083 57.8696 256.885 56.3197C252.061 53.9622 244.628 52.4014 240.087 53.5583C234.63 54.9445 230.035 57.5203 227.176 62.3881C224.407 67.3608 223.017 72.9826 223.148 78.6725C223.034 80.3996 223.384 82.1258 224.163 83.6713C225.255 85.494 227.438 86.6837 227.23 89.1286C227.147 90.0348 227.426 90.9371 228.005 91.6389C229.457 93.2651 231.279 91.8244 232.196 90.351C234.063 87.2185 234.379 83.4203 234.619 79.7749C234.945 77.1926 234.841 74.5743 234.314 72.0256C233.954 70.6613 233.353 69.3625 233.069 67.9763C232.882 67.2938 232.847 66.5786 232.966 65.8809C233.084 65.1833 233.355 64.5201 233.757 63.938C233.961 63.6986 234.188 63.4793 234.434 63.2831C235.596 62.3265 236.991 61.6952 238.477 61.4536C239.963 61.212 241.487 61.3688 242.892 61.9079C247.422 63.6542 255.182 66.2737 257.267 64.7893C258.752 63.8629 260.027 62.6361 261.01 61.1876L262.582 62.9339Z" fill="#263238"/>
<path d="M240.546 52.4779C242.789 51.7441 245.156 51.4627 247.509 51.65C249.862 51.8374 252.155 52.4897 254.254 53.5693C255.381 54.1215 256.383 54.8967 257.201 55.8479C258.019 56.7991 258.636 57.9065 259.013 59.1029C259.624 61.526 258.522 64.4619 256.175 65.346L256.011 65.4333C252.519 66.5248 250.27 65.99 246.843 64.6911C243.962 63.5997 241.386 61.7442 238.537 60.6746C235.441 59.5309 232.073 59.3408 228.867 60.1289C232.02 56.5961 236.048 53.9571 240.546 52.4779Z" fill="#263238"/>
<path d="M225.805 87.7536C225.79 87.6632 225.79 87.5711 225.805 87.4807C225.805 87.2734 225.805 87.0005 225.805 86.6622C225.805 85.9091 225.805 84.8394 225.739 83.4751C225.739 80.6374 225.641 76.5663 225.564 71.4692L233.434 58.7866L233.499 58.6775H233.619L258.854 57.2695H258.952L259.039 57.3568L269.048 67.7583L269.135 67.8456V67.9657C269.059 69.6029 268.982 71.3492 268.895 73.1173C268.655 78.3781 268.415 83.5079 268.174 88.463C268.12 89.7073 268.065 90.9297 268 92.1521C267.991 93.3762 267.845 94.5954 267.563 95.7866C267.019 98.1086 265.893 100.254 264.289 102.019C262.71 103.657 260.737 104.864 258.559 105.522C257.534 105.862 256.483 106.114 255.415 106.275C254.324 106.385 253.32 106.472 252.305 106.516C248.485 106.471 244.744 105.425 241.456 103.481C238.746 101.927 236.245 100.035 234.012 97.8495C232.32 96.2207 230.738 94.4815 229.275 92.6433C228.075 91.1262 227.223 89.8928 226.656 89.0524C226.383 88.6268 226.176 88.2993 226.045 88.0701C225.97 87.9612 225.907 87.844 225.859 87.7209C225.859 87.7209 225.936 87.83 226.088 88.0374C226.241 88.2448 226.47 88.594 226.754 88.9869C227.344 89.8055 228.228 91.017 229.45 92.5014C230.932 94.3083 232.529 96.0181 234.231 97.6203C236.472 99.736 238.965 101.569 241.652 103.078C244.887 104.954 248.555 105.955 252.294 105.981C253.298 105.981 254.313 105.85 255.35 105.741C256.384 105.579 257.403 105.33 258.395 104.998C260.492 104.355 262.389 103.187 263.907 101.604C265.46 99.908 266.55 97.8407 267.072 95.6011C267.353 94.447 267.496 93.2636 267.498 92.0757C267.552 90.8642 267.607 89.6309 267.662 88.3976C267.891 83.4315 268.131 78.3017 268.371 73.0409C268.458 71.2728 268.546 69.5156 268.622 67.8784L268.698 68.0858L258.701 57.5315L258.919 57.6188L233.619 59.0268L233.805 58.9176L225.837 71.5456V71.4474V83.4533C225.837 84.8285 225.837 85.8981 225.837 86.6622V87.4917C225.815 87.6554 225.805 87.7536 225.805 87.7536Z" fill="white"/>
<path d="M268.979 64.1573L260.509 60.6101L260.247 60.5337L246.495 57.5977C246.222 57.5427 245.938 57.5654 245.677 57.6632L236.028 61.2104C235.919 61.2449 235.816 61.2965 235.723 61.3632L226.314 67.6171C226.131 67.7386 225.976 67.8996 225.863 68.0885C225.75 68.2774 225.68 68.4893 225.659 68.7086L225.299 73.3472C225.288 73.4086 225.288 73.4714 225.299 73.5328L226.194 92.5785C226.208 92.9597 226.37 93.3206 226.645 93.5853C226.919 93.8499 227.286 93.9976 227.668 93.9974C227.867 93.9975 228.065 93.9574 228.249 93.8794C228.432 93.8014 228.599 93.6872 228.737 93.5435C228.876 93.3998 228.984 93.2297 229.055 93.0433C229.126 92.8568 229.159 92.6579 229.152 92.4584L228.945 87.3396C228.945 81.5112 227.155 70.5531 235.057 66.0236C242.959 61.4941 251.734 62.6292 255.794 63.3932C259.854 64.1573 265.29 66.5475 266.305 69.0469C267.167 71.1643 267.462 87.5251 267.527 92.5348C267.533 92.9247 267.692 93.2967 267.97 93.5704C268.248 93.844 268.622 93.9974 269.012 93.9974C269.39 93.9954 269.753 93.8502 270.029 93.591C270.304 93.3317 270.471 92.9778 270.496 92.6003L271.817 70.4986C271.829 70.283 271.795 70.0673 271.718 69.8655L269.743 64.9322C269.596 64.5865 269.323 64.3095 268.979 64.1573Z" fill="#455A64"/>
<path d="M270.235 70.7055C269.58 67.4312 266.241 61.5156 249.083 60.8825C236.466 60.4023 231.369 65.3465 228.258 68.8501C227.121 70.1663 226.477 71.837 226.436 73.576C226.436 73.576 226.141 78.8914 226.141 80.5722L226.206 86.0294L221.153 83.8465C217.104 81.6636 216.602 78.5749 218.25 76.4684C218.25 76.4684 218.25 73.4341 218.675 67.6604C219.21 60.4132 223.041 52.3802 229.153 49.2914C233.607 47.2008 238.309 45.686 243.146 44.7837L243.855 42.1861C243.921 41.9667 244.055 41.7737 244.237 41.6346C244.42 41.4956 244.641 41.4174 244.87 41.4111H250.851C251.08 41.4174 251.302 41.4956 251.484 41.6346C251.666 41.7737 251.8 41.9667 251.866 42.1861L252.543 44.62C252.543 44.62 263.85 48.6802 267.823 54.1046C271.796 59.5291 273.28 69.2757 273.28 69.2757C273.515 72.1405 273.544 75.0183 273.368 77.8872C273.801 78.3057 274.148 78.8057 274.388 79.3585C274.627 79.9113 274.755 80.506 274.764 81.1084C274.774 81.7109 274.664 82.3092 274.441 82.869C274.218 83.4288 273.887 83.939 273.466 84.3704C272.145 85.7347 270.857 86.8371 270.857 86.8371L270.781 80.6813L270.235 70.7055Z" fill="#00BD62"/>
<path d="M224.142 81.2709C224.015 81.1599 223.905 81.0313 223.815 80.8889C223.618 80.6379 223.345 80.2449 223.007 79.732C222.036 78.2782 221.275 76.6945 220.748 75.0278C220.474 73.7312 220.486 72.3904 220.784 71.0991C221.082 69.8077 221.658 68.597 222.472 67.5514C223.425 66.3585 224.492 65.2619 225.659 64.2771C226.87 63.1788 228.145 62.1547 229.479 61.2101C230.825 60.2677 232.228 59.411 233.681 58.6452C235.089 57.8921 236.497 57.2919 237.741 56.5824C238.937 55.9634 239.98 55.0875 240.797 54.0175C241.436 53.0357 241.888 51.944 242.129 50.7978C242.609 48.6803 242.773 46.9013 242.969 45.6898C243.068 45.0786 243.155 44.5983 243.221 44.2927C243.244 44.1266 243.292 43.9649 243.362 43.8125C243.362 43.8125 243.308 44.4892 243.199 45.7116C243.065 47.4475 242.836 49.1746 242.511 50.8851C242.317 52.199 241.805 53.4456 241.019 54.5166C240.234 55.5875 239.198 56.4503 238.003 57.0299C236.726 57.783 235.329 58.3942 233.943 59.1364C231.081 60.6636 228.41 62.5248 225.987 64.6809C224.836 65.6446 223.783 66.7195 222.843 67.8898C222.06 68.8712 221.497 70.0102 221.194 71.2288C220.891 72.4475 220.854 73.7172 221.086 74.9514C221.585 76.5992 222.293 78.1763 223.192 79.6447C223.804 80.6706 224.175 81.2382 224.142 81.2709Z" fill="#263238"/>
<g opacity="0.3">
<path opacity="0.3" d="M224.143 81.2709C224.143 81.2709 220.661 76.4467 220.661 73.478C220.662 72.936 220.713 72.3952 220.814 71.8626C221.235 69.792 222.26 67.8927 223.761 66.4054C226.939 63.1708 230.626 60.4792 234.676 58.4379C236.858 57.3464 239.347 56.255 240.853 54.3449C242.763 51.8346 242.741 47.1523 243.353 43.8125C243.353 43.8125 241.661 50.8087 239.762 53.1989C237.863 55.5892 229.819 57.4883 222.681 64.8774C215.543 72.2665 220.323 77.7892 222.255 79.5792C223.084 80.3104 224.143 81.2709 224.143 81.2709Z" fill="black"/>
</g>
<path d="M273.205 68.7086C272.64 67.1454 271.805 65.6935 270.738 64.4192C267.981 61.4816 264.633 59.1606 260.915 57.6086C259.821 57.169 258.793 56.5814 257.859 55.8623C257.025 55.1261 256.356 54.2224 255.894 53.2101C255.01 51.311 254.355 49.5974 253.711 48.1567C253.068 46.716 252.707 45.5154 252.456 44.6859C252.292 44.2613 252.182 43.8175 252.129 43.3652C252.35 43.7604 252.529 44.1774 252.664 44.6095C252.98 45.4172 253.46 46.585 254.083 48.0039C254.705 49.4228 255.436 51.1472 256.265 52.9699C256.718 53.9079 257.352 54.7464 258.132 55.4366C259.034 56.1218 260.025 56.6801 261.079 57.0956C264.869 58.6663 268.251 61.0815 270.967 64.1573C271.773 65.1298 272.397 66.2388 272.812 67.4316C272.936 67.7451 273.028 68.0706 273.085 68.403C273.216 68.5776 273.227 68.6977 273.205 68.7086Z" fill="#263238"/>
<path d="M240.085 96.0593C239.909 95.7516 239.777 95.421 239.692 95.077C239.463 94.433 239.168 93.4944 238.83 92.3265C238.142 89.9799 237.291 86.7165 236.527 83.0711C235.687 79.12 235.13 75.5292 234.835 73.128L235.206 73.0625C235.523 74.7979 235.709 75.933 235.719 76.2495H235.654C235.654 76.1295 235.654 76.0967 235.654 76.0967C235.654 76.0967 235.654 76.0967 235.654 76.2495V76.4787L235.567 76.2604C235.447 75.9767 235.152 74.8634 234.748 73.1389L235.119 73.0734C235.534 75.4528 236.156 79.0109 236.996 82.9619C237.76 86.5855 238.546 89.8599 239.125 92.2174C239.527 93.4762 239.847 94.7595 240.085 96.0593Z" fill="white"/>
<path d="M242.261 93.4622C241.346 90.6425 240.617 87.7658 240.078 84.8507C239.354 81.9786 238.822 79.0617 238.484 76.1191C239.394 78.9441 240.123 81.824 240.667 84.7416C241.379 87.6126 241.911 90.5251 242.261 93.4622Z" fill="white"/>
<path d="M264.975 95.6017C264.792 92.5812 264.792 89.5524 264.975 86.5318C264.962 83.5 265.144 80.4704 265.52 77.4619C265.705 80.486 265.705 83.5186 265.52 86.5427C265.53 89.5709 265.348 92.5966 264.975 95.6017Z" fill="white"/>
<g opacity="0.3">
<path opacity="0.3" d="M268.847 60.5876C266.861 59.0705 264.481 58.0772 262.419 56.7457C258.053 53.9843 255.182 48.92 252.541 44.5215C254.014 48.3743 254.833 51.6705 256.907 54.3445C259.232 57.3569 263.335 58.23 266.577 60.2274C269.116 61.7894 271.137 64.068 272.383 66.7761C272.482 64.364 270.823 62.1047 268.847 60.5876Z" fill="black"/>
</g>
<path d="M203.062 200.915V214.591C215.79 214.621 228.504 215.386 241.143 216.883C262.917 219.382 278.907 215.006 278.907 215.006V202.006L203.062 200.915Z" fill="#263238"/>
<path d="M209.374 129.655C209.374 129.655 207.355 126.02 208.752 123.63C209.556 122.214 210.677 121.003 212.027 120.094V113.785C212.027 113.785 225.91 115.04 232.48 120.334C236.767 123.969 240.531 128.178 243.668 132.842C243.668 132.842 251.744 125.136 256.034 122.364C260.323 119.592 266.512 111.253 266.512 111.253L270.299 113.152L269.535 116.306C269.535 116.306 276.356 123.63 277.24 128.039C277.34 128.542 277.269 129.063 277.04 129.522C276.811 129.98 276.436 130.349 275.974 130.572C274.337 131.325 268.629 132.918 268.629 132.918C268.629 132.918 275.669 139.783 277.273 144.924C278.878 150.065 282.534 185.307 280.264 192.249C277.994 199.191 275.974 201.985 275.974 201.985L207.65 200.915L204.277 130.735L209.898 129.644" fill="#00BD62"/>
<path d="M206.271 172.996C240.586 154.79 280.631 172.996 280.631 172.996L279.54 160.488C279.54 160.488 266.803 153.612 244.952 152.04C231.395 151.236 217.855 153.891 205.605 159.756L206.271 172.996Z" fill="white"/>
<path d="M209.048 168.259C242.053 153.426 280.417 169.907 280.417 169.907L280.134 163.031C280.134 163.031 266.545 155.849 244.694 154.878C222.844 153.906 207.76 161.426 207.76 161.426L209.048 168.259Z" fill="white"/>
<path d="M214.887 129.425C214.887 129.425 201.331 128.803 198.613 134.882L203.066 208.926L213.217 210.192L214.887 129.425Z" fill="#263238"/>
<path d="M266.588 133.246C269.723 132.751 272.932 133.036 275.931 134.075C281.039 136.073 281.388 137.426 281.988 143.614C282.588 149.803 283.025 158.305 283.025 168.358C283.025 178.41 278.528 204.659 278.528 210.138L266.915 209.811C266.915 209.811 272.373 173.313 271.117 163.828C269.862 154.343 266.588 133.246 266.588 133.246Z" fill="#263238"/>
<path d="M272.042 132.263C271.621 132.435 271.181 132.559 270.732 132.634L267.12 133.452C264.075 134.151 259.873 135.111 255.245 136.279C250.617 137.447 246.513 138.582 243.457 139.423L239.888 140.405C239.454 140.544 239.009 140.643 238.557 140.7C238.957 140.479 239.382 140.307 239.823 140.187C240.652 139.892 241.853 139.499 243.337 139.03C246.328 138.091 250.475 136.847 255.114 135.755C259.753 134.664 263.965 133.682 267.043 133.092C268.571 132.797 269.827 132.579 270.689 132.448C271.132 132.336 271.586 132.274 272.042 132.263Z" fill="#263238"/>
<path d="M270.092 115.05C269.998 115.402 269.851 115.736 269.656 116.044C269.185 116.917 268.653 117.756 268.062 118.554C266.087 121.17 263.728 123.473 261.066 125.386C258.424 127.296 255.64 129 252.738 130.483C251.647 131.062 250.719 131.509 250.097 131.815C249.779 131.996 249.437 132.132 249.082 132.219C250.191 131.453 251.347 130.757 252.542 130.134C255.365 128.553 258.098 126.814 260.728 124.928C263.346 123.039 265.705 120.816 267.746 118.314C269.285 116.371 270.005 114.996 270.092 115.05Z" fill="#263238"/>
<path d="M231.66 127.134C231.584 127.199 230.765 126.293 229.226 125.082C225.195 121.895 220.24 120.103 215.103 119.974C213.138 119.974 211.927 120.105 211.916 119.974C212.183 119.859 212.467 119.789 212.756 119.766C213.532 119.632 214.316 119.563 215.103 119.559C220.372 119.468 225.489 121.321 229.477 124.765C230.078 125.276 230.636 125.835 231.147 126.435C231.486 126.861 231.66 127.112 231.66 127.134Z" fill="#263238"/>
<path d="M228.495 139.183C227.594 138.479 226.777 137.673 226.061 136.781C224.351 134.646 222.306 132.802 220.003 131.324C217.604 130.057 214.924 129.411 212.21 129.447C210.115 129.447 208.86 129.862 208.838 129.763C209.103 129.602 209.395 129.491 209.7 129.436C210.514 129.218 211.348 129.086 212.189 129.043C214.998 128.884 217.797 129.503 220.276 130.833C222.638 132.312 224.704 134.218 226.367 136.454C227.126 137.323 227.837 138.234 228.495 139.183Z" fill="#263238"/>
<path d="M290.715 278.222C290.524 278.28 290.325 278.309 290.126 278.309L288.412 278.408L282.202 278.812L261.715 279.903L242.659 280.798H242.571V280.623C241.851 277.709 241.262 275.319 240.836 273.573C240.65 272.787 240.509 272.154 240.388 271.641C240.327 271.416 240.29 271.186 240.279 270.953C240.381 271.162 240.458 271.382 240.509 271.608C240.661 272.11 240.836 272.699 241.065 273.507L242.986 280.525L242.768 280.361L261.814 279.324L282.311 278.364L288.532 278.146H290.224C290.389 278.16 290.553 278.185 290.715 278.222Z" fill="#263238"/>
<path d="M204.246 214.384C204.246 214.384 195.514 231.967 194.543 248.808C193.957 259.429 194.227 270.079 195.35 280.656H237.557C237.557 280.656 239.739 268.487 239.739 269.098C239.739 269.709 242.632 280.656 242.632 280.656L290.655 278.222C290.655 278.222 286.835 237.402 278.846 214.919L260.619 210.116H205.643L204.246 214.384Z" fill="#00BD62"/>
<path d="M239.301 264.011H194.355C194.181 260.322 194.192 256.513 194.355 252.584H239.203L239.301 264.011Z" fill="white"/>
<path d="M239.348 256.175H194.238V260.41H239.348V256.175Z" fill="white"/>
<path d="M287.423 252.038L239.65 252.584C239.468 256.273 239.468 260.082 239.65 264.011L289.18 263.869L287.423 252.038Z" fill="white"/>
<path d="M288.037 256.186H239.512V260.42H288.714L288.037 256.186Z" fill="white"/>
<path d="M252.636 125.06C252.636 125.06 252.527 125.18 252.298 125.387L251.272 126.293L247.288 129.753L232.368 142.599L232.434 142.446C232.674 147.118 232.816 152.346 233.165 158.032C233.514 163.719 233.962 169.874 234.387 176.39C235.315 189.488 236.341 203.982 237.421 219.306C238.054 228.583 238.633 237.577 239.124 246.123C239.615 254.669 240.019 262.756 239.921 270.244C239.168 273.9 238.458 277.36 237.738 280.667V280.842H237.552L206.817 280.743L198.326 280.689H196.143C195.641 280.689 195.379 280.689 195.379 280.689H196.143H198.326L206.817 280.634L237.552 280.536L237.334 280.711C238.004 277.414 238.702 273.94 239.43 270.287C239.506 262.844 239.037 254.745 238.578 246.21C238.12 237.675 237.487 228.67 236.854 219.393C235.762 204.113 234.78 189.531 233.874 176.488C233.427 169.94 233.034 163.806 232.717 158.119C232.401 152.433 232.259 147.205 232.062 142.512V142.424L232.139 142.359L247.168 129.655L251.217 126.26L252.309 125.398C252.505 125.147 252.636 125.06 252.636 125.06Z" fill="#263238"/>
<g opacity="0.3">
<path opacity="0.3" d="M250.398 207.714C250.278 205.662 249.994 203.469 248.662 201.908C247.979 201.191 247.147 200.631 246.225 200.267C245.304 199.903 244.314 199.744 243.325 199.801C241.347 199.937 239.408 200.417 237.595 201.22C234.659 202.377 231.603 203.894 230.108 206.677C228.514 209.646 229.093 213.226 229.726 216.588C231.297 224.868 232.873 233.156 234.452 241.451L232.934 246.548C236.089 247.028 238.992 244.365 240.018 241.32C241.044 238.275 240.684 235.011 240.553 231.835C240.422 228.659 240.553 225.232 242.463 222.645C244.165 220.277 247.047 218.945 248.706 216.544C250.365 214.143 250.561 210.738 250.398 207.714Z" fill="black"/>
</g>
<path d="M213.105 200.991C213.105 200.991 213.979 194.519 215.79 190.808C217.602 187.097 240.086 188.33 243.077 189.007C246.067 189.684 248.152 195.752 249.167 200.871C250.182 205.99 248.468 213.215 248.468 213.215L224.511 209.242L213.105 200.991Z" fill="#263238"/>
<path d="M245.678 195.763L257.618 135.384L261.929 134.369L247.828 199.463L245.678 195.763Z" fill="#455A64"/>
<path d="M214.112 198.295L211.711 129.403H215.586L216.633 194.89L214.112 198.295Z" fill="#455A64"/>
<path d="M234.836 191.659H226.792C219.233 191.659 213.105 197.787 213.105 205.346V206.175C213.105 213.734 219.233 219.862 226.792 219.862H234.836C242.395 219.862 248.523 213.734 248.523 206.175V205.346C248.523 197.787 242.395 191.659 234.836 191.659Z" fill="white"/>
<path d="M234.835 219.863C236.186 219.75 237.523 219.513 238.83 219.153C240.328 218.664 241.734 217.926 242.988 216.97C244.67 215.704 246.024 214.053 246.939 212.157C247.478 211.073 247.864 209.92 248.085 208.73C248.305 207.436 248.374 206.121 248.293 204.812C248.162 201.754 246.989 198.833 244.967 196.536C242.946 194.238 240.198 192.702 237.182 192.184C235.495 191.97 233.794 191.901 232.096 191.976H226.791C223.459 191.987 220.249 193.232 217.781 195.472C215.314 197.712 213.764 200.786 213.432 204.102C213.298 205.587 213.345 207.082 213.574 208.555C213.814 209.937 214.267 211.274 214.916 212.517C215.538 213.668 216.313 214.729 217.219 215.672C218.073 216.521 219.035 217.255 220.079 217.854C221.88 218.914 223.908 219.532 225.995 219.655C227.839 219.754 229.454 219.71 230.764 219.754H233.787H234.573C234.66 219.739 234.748 219.739 234.835 219.754C234.749 219.77 234.66 219.77 234.573 219.754H233.787L230.764 219.808C229.454 219.808 227.861 219.885 225.973 219.808C223.828 219.702 221.738 219.092 219.872 218.029C218.787 217.41 217.789 216.65 216.903 215.77C215.959 214.791 215.151 213.69 214.502 212.495C213.822 211.212 213.343 209.831 213.083 208.403C213.083 208.031 212.952 207.66 212.919 207.311L212.854 206.165C212.854 205.412 212.854 204.637 212.854 203.84C213.187 200.386 214.792 197.18 217.358 194.844C219.924 192.508 223.267 191.21 226.737 191.201H232.041C233.773 191.125 235.507 191.202 237.226 191.431C240.356 191.982 243.203 193.593 245.287 195.993C247.372 198.394 248.568 201.438 248.675 204.615C248.751 205.962 248.67 207.314 248.435 208.643C247.757 211.997 245.869 214.984 243.13 217.036C241.837 218.005 240.386 218.743 238.841 219.219C237.863 219.5 236.856 219.668 235.839 219.721H234.748L234.835 219.863Z" fill="#455A64"/>
<path d="M237.193 220.266C237.193 218.53 236.503 216.864 235.275 215.636C234.047 214.408 232.381 213.718 230.644 213.718C228.908 213.718 227.242 214.408 226.014 215.636C224.786 216.864 224.096 218.53 224.096 220.266V237.555H237.193V220.266Z" fill="#455A64"/>
<path d="M238.027 227.786H223.511C222.788 227.786 222.201 228.373 222.201 229.096V229.172C222.201 229.896 222.788 230.482 223.511 230.482H238.027C238.75 230.482 239.337 229.896 239.337 229.172V229.096C239.337 228.373 238.75 227.786 238.027 227.786Z" fill="#455A64"/>
<path d="M238.023 230.482C238.023 230.482 238.154 230.482 238.383 230.362C238.543 230.304 238.69 230.214 238.813 230.098C238.937 229.981 239.036 229.841 239.104 229.685C239.206 229.445 239.233 229.179 239.181 228.924C239.128 228.668 238.998 228.435 238.809 228.255C238.691 228.149 238.553 228.069 238.403 228.018C238.252 227.967 238.094 227.948 237.936 227.96H236.735C233.352 227.96 228.669 228.048 223.507 228.048C223.258 228.059 223.021 228.155 222.834 228.32C222.648 228.485 222.523 228.708 222.481 228.954C222.448 229.199 222.499 229.448 222.626 229.66C222.753 229.872 222.948 230.035 223.179 230.121C223.295 230.162 223.417 230.18 223.54 230.176H226.596L232.544 230.231L236.55 230.318C237.044 230.301 237.538 230.341 238.023 230.438C237.536 230.52 237.043 230.556 236.55 230.547L232.544 230.634L226.596 230.7H223.54C223.359 230.701 223.178 230.675 223.005 230.624C222.64 230.499 222.33 230.25 222.13 229.92C221.931 229.59 221.854 229.2 221.914 228.819C221.975 228.438 222.167 228.09 222.458 227.837C222.75 227.584 223.121 227.442 223.507 227.437C228.669 227.437 233.33 227.437 236.735 227.524H237.936C238.137 227.516 238.338 227.55 238.526 227.624C238.713 227.697 238.884 227.808 239.027 227.95C239.252 228.176 239.399 228.468 239.448 228.784C239.497 229.099 239.445 229.422 239.3 229.707C239.211 229.878 239.086 230.028 238.933 230.147C238.781 230.266 238.604 230.35 238.416 230.394C238.297 230.463 238.16 230.493 238.023 230.482Z" fill="#263238"/>
<path d="M230.77 247.258C235.141 247.258 238.683 243.715 238.683 239.345C238.683 234.974 235.141 231.432 230.77 231.432C226.4 231.432 222.857 234.974 222.857 239.345C222.857 243.715 226.4 247.258 230.77 247.258Z" fill="#455A64"/>
<path d="M240.318 199.464C240.318 199.464 240.111 199.748 239.652 200.195C239.194 200.643 238.561 201.287 237.655 202.018C235.386 203.943 233.002 205.729 230.517 207.366C228.032 209 225.448 210.476 222.778 211.786C221.752 212.277 220.901 212.659 220.312 212.878C220.018 213.035 219.701 213.141 219.373 213.194C220.412 212.538 221.487 211.94 222.593 211.404C224.59 210.313 227.308 208.763 230.233 206.864C233.158 204.965 235.69 203.087 237.415 201.68C238.341 200.888 239.31 200.149 240.318 199.464Z" fill="white"/>
<path d="M233.448 200.915C231.459 202.253 229.404 203.492 227.292 204.626C225.267 205.933 223.176 207.135 221.027 208.228C222.867 206.656 224.868 205.284 226.998 204.135C229.03 202.84 231.192 201.761 233.448 200.915Z" fill="white"/>
<path d="M237.652 237.555C237.652 237.555 237.717 237.697 237.794 237.981C237.877 238.408 237.903 238.845 237.87 239.279C237.713 240.884 237.137 242.42 236.2 243.733C235.579 244.67 234.764 245.462 233.81 246.057C232.666 246.692 231.358 246.969 230.055 246.854C228.558 246.754 227.135 246.166 226.004 245.181C224.872 244.195 224.095 242.866 223.79 241.397C223.53 240.26 223.534 239.079 223.8 237.944C224.067 236.809 224.59 235.75 225.329 234.848C226.66 233.287 228.556 232.318 230.601 232.152C231.927 232.214 233.226 232.556 234.41 233.156C235.316 233.632 236.089 234.326 236.658 235.176C237.023 235.71 237.299 236.3 237.477 236.922C237.558 237.135 237.602 237.36 237.608 237.588C237.302 236.794 236.911 236.037 236.44 235.328C235.87 234.551 235.121 233.922 234.257 233.495C233.108 232.926 231.85 232.609 230.568 232.567C228.661 232.744 226.9 233.666 225.668 235.132C224.989 235.99 224.517 236.992 224.288 238.061C224.059 239.131 224.079 240.238 224.347 241.299C224.623 242.655 225.334 243.885 226.372 244.8C227.41 245.716 228.719 246.269 230.099 246.374C231.302 246.492 232.513 246.253 233.581 245.686C234.492 245.131 235.273 244.386 235.873 243.503C236.804 242.255 237.415 240.797 237.652 239.258C237.701 238.691 237.701 238.121 237.652 237.555Z" fill="#263238"/>
<g opacity="0.3">
<path opacity="0.3" d="M239.508 140.383C244.63 140.635 249.763 140.246 254.788 139.226C259.776 138.135 264.371 136.476 268.115 132.983C258.739 135.254 249.691 137.262 240.468 140.111" fill="black"/>
</g>
<path d="M198.612 134.85C197.575 135.264 192.98 139.215 190.481 142.359C187.981 145.502 175.877 174.284 172.952 195.141C170.027 215.999 169.623 250.805 169.623 250.805L192.98 249.768L201.952 187.392L201.45 182.044L198.612 134.85Z" fill="#00BD62"/>
<path d="M170.648 221.336C170.648 221.336 175.756 217.778 185.154 219.055C193.58 220.146 196.603 224.621 196.603 224.621L195.195 234.444C195.195 234.444 182.48 227.328 170.092 233.451L170.648 221.336Z" fill="white"/>
<path d="M170.454 224.708C170.454 224.708 175.562 221.15 184.959 222.427C193.385 223.518 196.19 227.83 196.19 227.83L195.666 231.18C195.666 231.18 182.678 222.372 170.279 228.485L170.454 224.708Z" fill="white"/>
<path d="M192.527 146.692C192.733 147.192 192.901 147.706 193.029 148.231C193.313 149.235 193.695 150.698 194.121 152.499C195.027 156.112 196.184 161.132 197.395 166.688L200.604 180.876L201.608 185.177C201.759 185.694 201.862 186.223 201.914 186.759C201.698 186.265 201.523 185.754 201.39 185.231C201.095 184.227 200.691 182.776 200.222 180.975C199.272 177.373 198.039 172.363 196.839 166.786C195.638 161.209 194.536 156.319 193.717 152.597C193.335 150.862 193.008 149.41 192.767 148.286C192.636 147.764 192.555 147.23 192.527 146.692Z" fill="#263238"/>
<path d="M119.504 228.703C119.504 228.703 109.812 236.769 113.119 239.705C116.427 242.641 166.087 269.37 176.161 274.948C186.727 280.809 186.214 280.536 202.356 293.906L206.296 282.38C206.296 282.38 172.276 266.522 164.494 260.279C156.712 254.036 119.504 228.703 119.504 228.703Z" fill="#455A64"/>
<path d="M207.779 279.761L212.647 282.795L220.221 270.342C220.221 270.342 223.987 279.979 222.513 283.832C221.04 287.685 211.173 304.078 209.252 308.335C207.331 312.592 205.88 315.975 205.88 315.975L190.6 306.359C191.796 303.896 193.439 301.675 195.446 299.811C198.283 297.475 207.779 279.761 207.779 279.761Z" fill="white"/>
<path d="M207.781 279.761C207.716 279.946 207.636 280.125 207.541 280.296L206.744 281.824C206.046 283.156 205.009 285.098 203.644 287.532C202.28 289.966 200.599 292.913 198.493 296.187C197.958 296.995 197.401 297.835 196.768 298.654C196.439 299.087 196.074 299.493 195.677 299.866C195.295 300.258 194.891 300.564 194.585 300.957C193.054 302.609 191.774 304.477 190.787 306.502L190.7 306.185L205.98 315.768L205.576 315.899L207.606 311.271C208.305 309.71 208.949 308.084 209.789 306.523C213.402 299.746 217.178 293.426 220.354 287.532C220.758 286.79 221.14 286.059 221.446 285.349C221.826 284.658 222.126 283.926 222.341 283.166C222.574 281.654 222.534 280.113 222.221 278.615C221.701 275.831 220.934 273.099 219.929 270.451H220.311L212.671 282.861V282.959L212.562 282.894L209.014 280.602L208.087 279.99L207.759 279.761L208.065 279.925L209.003 280.471L212.693 282.653H212.529L220.027 270.156L220.245 269.774L220.398 270.189C221.436 272.856 222.232 275.61 222.777 278.419C223.11 279.984 223.158 281.595 222.919 283.177C222.697 283.981 222.386 284.757 221.992 285.491C221.635 286.219 221.271 286.946 220.9 287.674C217.746 293.633 213.97 299.92 210.368 306.676C209.549 308.215 208.905 309.83 208.185 311.391L206.155 316.008L206.024 316.303L205.751 316.139L190.471 306.502L190.285 306.371L190.383 306.174C191.403 304.109 192.72 302.205 194.291 300.52C194.673 300.128 195.109 299.767 195.47 299.429C195.836 299.073 196.176 298.69 196.485 298.283C197.107 297.475 197.663 296.657 198.198 295.849C200.381 292.575 202.029 289.682 203.437 287.27L206.711 281.638L207.563 280.154C207.627 280.018 207.699 279.887 207.781 279.761Z" fill="#263238"/>
<path d="M190.077 274.74L197.281 278.014C197.456 274.442 196.704 270.885 195.098 267.689C193.013 263.4 189.881 257.866 189.881 257.866C189.819 256.282 190.173 254.709 190.907 253.304L191.616 251.962C189.97 250.995 188.057 250.582 186.159 250.783C183.769 250.957 180.833 250.641 178.519 251.067L169.656 252.737C169.656 252.737 170.267 261.031 170.267 264.415C170.267 265.212 169.656 274.413 169.656 274.413L170.333 278.353C170.333 278.353 181.564 288.176 183.07 287.925C184.576 287.674 184.576 287.106 184.576 287.106C184.576 287.106 186.203 289.42 187.469 289.42C188.735 289.42 190.939 290.697 191.409 289.42C191.878 288.143 191.289 285.622 190.132 283.821C189.367 282.832 188.413 282.005 187.327 281.387C186.733 281.01 186.245 280.487 185.911 279.868C185.576 279.249 185.406 278.554 185.417 277.851L185.504 270.211C185.504 270.211 189.924 271.64 190.077 274.74Z" fill="#263238"/>
<path d="M169.623 250.838V253.926L190.895 253.403L192.98 249.801L169.623 250.838Z" fill="#455A64"/>
</svg>
