<svg width="597" height="490" viewBox="0 0 597 490" fill="none" xmlns="http://www.w3.org/2000/svg">
<path opacity="0.8" d="M31.576 123.702C31.8779 123.581 32.6929 117.645 33.5684 110.588C35.3947 95.7619 44.1339 84.298 55.1976 82.0415L63.1671 80.406C63.1671 80.406 50.6544 80.406 45.4471 76.7411C34.3834 68.9875 31.8628 46.0596 31.8628 46.0596C31.8628 46.0596 28.844 68.9875 17.72 76.7411C12.4976 80.406 0 80.406 0 80.406L7.96947 82.0415C19.003 84.298 27.7573 95.7619 29.5836 110.588C30.4591 117.705 31.259 123.581 31.576 123.702Z" fill="#00E577" fill-opacity="0.35"/>
<path opacity="0.8" d="M492.171 67.1148C492.41 67.0183 493.056 62.2893 493.749 56.6675C495.195 44.8571 502.113 35.7248 510.872 33.9273L517.181 32.6244C517.181 32.6244 507.275 32.6244 503.153 29.7049C494.394 23.5283 492.399 5.26367 492.399 5.26367C492.399 5.26367 490.009 23.5283 481.202 29.7049C477.068 32.6244 467.174 32.6244 467.174 32.6244L473.483 33.9273C482.218 35.7248 489.148 44.8571 490.594 56.6675C491.287 62.3375 491.921 67.0183 492.171 67.1148Z" fill="#00E577" fill-opacity="0.35"/>
<path opacity="0.8" d="M331.62 72.379C331.897 72.266 332.644 66.7321 333.447 60.1534C335.121 46.3327 343.132 35.646 353.274 33.5425L360.579 32.0179C360.579 32.0179 349.109 32.0178 344.336 28.6015C334.194 21.3735 331.883 0 331.883 0C331.883 0 329.116 21.3735 318.919 28.6015C314.132 32.0178 302.676 32.0179 302.676 32.0179L309.981 33.5425C320.095 35.646 328.12 46.3327 329.794 60.1534C330.597 66.7885 331.33 72.266 331.62 72.379Z" fill="#00E577" fill-opacity="0.35"/>
<path opacity="0.8" d="M560.599 389.53C560.939 389.393 561.856 382.651 562.841 374.637C564.895 357.801 574.727 344.783 587.173 342.22L596.139 340.363C596.139 340.363 582.062 340.363 576.204 336.201C563.758 327.396 560.922 301.359 560.922 301.359C560.922 301.359 557.526 327.396 545.011 336.201C539.136 340.363 525.076 340.363 525.076 340.363L534.042 342.22C546.454 344.783 556.303 357.801 558.358 374.637C559.343 382.72 560.243 389.393 560.599 389.53Z" fill="#00E577" fill-opacity="0.35"/>
<path opacity="0.8" d="M230.293 72.3791C230.431 72.3237 230.805 69.607 231.206 66.3775C232.043 59.5928 236.048 54.3466 241.119 53.314L244.772 52.5655C244.772 52.5655 239.037 52.5655 236.65 50.8884C231.579 47.3401 230.424 36.8477 230.424 36.8477C230.424 36.8477 229.041 47.3401 223.942 50.8884C221.548 52.5655 215.82 52.5655 215.82 52.5655L219.473 53.314C224.53 54.3466 228.542 59.5928 229.379 66.3775C229.781 69.6348 230.147 72.3237 230.293 72.3791Z" fill="#00E577" fill-opacity="0.35"/>
<path opacity="0.8" d="M17.1051 380.319C17.2435 380.263 17.6171 377.546 18.0183 374.317C18.8554 367.532 22.8609 362.286 27.9317 361.253L31.5844 360.505C31.5844 360.505 25.8494 360.505 23.4627 358.828C18.3919 355.28 17.2366 344.787 17.2366 344.787C17.2366 344.787 15.853 355.28 10.7545 358.828C8.36087 360.505 2.63281 360.505 2.63281 360.505L6.28548 361.253C11.3425 362.286 15.3549 367.532 16.192 374.317C16.5932 377.574 16.9599 380.263 17.1051 380.319Z" fill="#00E577" fill-opacity="0.35"/>
<path opacity="0.8" d="M72.3714 307.94C72.6984 307.811 73.5814 301.472 74.5298 293.936C76.5083 278.105 85.9758 265.864 97.9615 263.455L106.595 261.708C106.595 261.708 93.0397 261.708 87.3984 257.795C75.4128 249.516 72.6821 225.033 72.6821 225.033C72.6821 225.033 69.4118 249.516 57.3607 257.795C51.7031 261.708 38.1641 261.708 38.1641 261.708L46.7976 263.455C58.7506 265.864 68.2345 278.105 70.213 293.936C71.1614 301.536 72.028 307.811 72.3714 307.94Z" fill="#00E577" fill-opacity="0.35"/>
<path opacity="0.8" d="M319.778 460.594C320.004 460.506 320.615 456.179 321.272 451.036C322.642 440.231 329.196 431.875 337.494 430.231L343.471 429.039C343.471 429.039 334.087 429.039 330.181 426.368C321.883 420.717 319.993 404.007 319.993 404.007C319.993 404.007 317.729 420.717 309.386 426.368C305.469 429.039 296.096 429.039 296.096 429.039L302.073 430.231C310.348 431.875 316.914 440.231 318.283 451.036C318.94 456.223 319.54 460.506 319.778 460.594Z" fill="#00E577" fill-opacity="0.35"/>
<path opacity="0.8" d="M544.811 85.5385C544.962 85.4789 545.37 82.561 545.808 79.0923C546.721 71.805 551.09 66.1701 556.622 65.061L560.607 64.2571C560.607 64.2571 554.351 64.2571 551.747 62.4558C546.215 58.6446 544.955 47.375 544.955 47.375C544.955 47.375 543.445 58.6446 537.883 62.4558C535.272 64.2571 529.023 64.2571 529.023 64.2571L533.008 65.061C538.525 66.1701 542.902 71.805 543.815 79.0923C544.253 82.5908 544.653 85.4789 544.811 85.5385Z" fill="#00E577" fill-opacity="0.35"/>
<path d="M146.416 476.146H157.424L157.898 450.648H146.89L146.416 476.146Z" fill="#B55B52"/>
<path d="M80.3379 476.146H91.346L96.25 450.648H85.2419L80.3379 476.146Z" fill="#B55B52"/>
<path d="M92.0863 474.828H79.7299C79.5142 474.824 79.3039 474.896 79.1359 475.032C78.968 475.167 78.853 475.357 78.8113 475.569L76.8705 485.362C76.8266 485.604 76.8368 485.852 76.9004 486.089C76.9639 486.326 77.0791 486.545 77.2378 486.732C77.3965 486.919 77.5947 487.069 77.8181 487.17C78.0415 487.271 78.2846 487.322 78.5298 487.318C82.8412 487.318 84.9303 486.992 90.3825 486.992C93.7308 486.992 100.635 487.333 105.198 487.333C109.762 487.333 110.31 482.77 108.398 482.355C99.8794 480.503 96.5458 477.91 93.8493 475.495C93.357 475.075 92.7336 474.839 92.0863 474.828Z" fill="#263238"/>
<path d="M157.323 474.828H145.307C145.091 474.824 144.881 474.896 144.713 475.032C144.545 475.167 144.43 475.357 144.389 475.569L142.448 485.362C142.402 485.601 142.409 485.848 142.47 486.084C142.531 486.32 142.643 486.539 142.799 486.726C142.955 486.913 143.151 487.064 143.372 487.166C143.593 487.268 143.834 487.32 144.077 487.318C148.418 487.318 154.671 486.992 160.123 486.992C166.494 486.992 167.16 487.333 174.642 487.333C179.161 487.333 180.302 482.77 178.391 482.355C169.738 480.473 167.546 480.266 159.99 475.688C159.198 475.159 158.274 474.862 157.323 474.828Z" fill="#263238"/>
<path d="M154.447 128.006L169.47 123.19C169.47 123.19 184.983 159.134 190.213 161.371C197.295 164.334 207.177 174.009 214.185 179.861C214.422 181.713 213.547 186.587 212.451 187.861C199.769 184.898 183.99 177.638 178.804 172.853C166.996 161.934 154.447 128.006 154.447 128.006Z" fill="#B55B52"/>
<path d="M150.949 119.738C146.727 129.368 163.676 159.948 163.676 159.948L186.137 149.577C183.371 140.256 179.642 131.249 175.01 122.701C167.943 110.36 155.586 109.16 150.949 119.738Z" fill="#00BD62"/>
<path opacity="0.2" d="M172.079 142.703C167.175 135.932 159.219 134.021 152.137 133.665C155.811 145.77 163.693 159.948 163.693 159.948L176.509 154.022C176.081 149.918 174.55 146.007 172.079 142.703Z" fill="black"/>
<path d="M212.671 178.794L225.753 180.883L222.375 194.706C217.792 192.747 213.535 190.099 209.752 186.854L212.671 178.794Z" fill="#B55B52"/>
<path d="M237.1 186.735L232.314 194.35L222.373 194.706L225.751 180.883L237.1 186.735Z" fill="#B55B52"/>
<path opacity="0.2" d="M157.899 450.663L157.647 463.805H146.639L146.891 450.663H157.899Z" fill="black"/>
<path opacity="0.2" d="M85.2249 450.663H96.2479L93.7144 463.805H82.6914L85.2249 450.663Z" fill="black"/>
<path d="M165.338 113.486C165.338 113.486 177.517 148.006 168.301 213.211H109.438C108.816 204.173 113.409 155.503 103.66 112.923C110.157 111.662 116.73 110.831 123.336 110.434C131.67 109.952 140.025 109.952 148.359 110.434C154.089 111.016 159.765 112.037 165.338 113.486Z" fill="#00BD62"/>
<path opacity="0.2" d="M138.816 154.096H121.807L121.422 143.384H138.43L138.816 154.096Z" fill="black"/>
<path d="M139.216 153.666H122.207L121.422 143.384H138.43L139.216 153.666Z" fill="white"/>
<path d="M128.014 149.74H123.376L123.006 145.088H127.658L128.014 149.74Z" fill="#00BD62"/>
<path d="M137.467 147.34H129.111L129.037 146.422H137.393L137.467 147.34Z" fill="#E0E0E0"/>
<path d="M135.851 149.148H129.258L129.184 148.215H135.777L135.851 149.148Z" fill="#E0E0E0"/>
<path d="M128.18 151.8H123.528L123.469 150.866H128.106L128.18 151.8Z" fill="#E0E0E0"/>
<path d="M129.452 151.8H137.808L137.734 150.866H129.393L129.452 151.8Z" fill="#E0E0E0"/>
<path d="M130.089 145.295C129.845 145.292 129.61 145.198 129.432 145.031C129.254 144.863 129.145 144.635 129.126 144.392L128.963 142.362C128.955 142.247 128.97 142.132 129.008 142.024C129.046 141.915 129.106 141.816 129.183 141.731C129.261 141.647 129.355 141.579 129.46 141.532C129.565 141.485 129.678 141.46 129.793 141.458C130.037 141.461 130.272 141.555 130.45 141.723C130.628 141.89 130.737 142.118 130.756 142.362L130.919 144.392C130.931 144.507 130.919 144.624 130.883 144.734C130.847 144.845 130.788 144.946 130.709 145.032C130.63 145.117 130.534 145.185 130.428 145.231C130.321 145.276 130.205 145.298 130.089 145.295Z" fill="#263238"/>
<path opacity="0.2" d="M116.695 123.442C117.851 130.45 116.058 147.147 109.851 166.586C109.55 149.988 107.785 133.448 104.576 117.16V117.071C108.517 116.686 115.599 116.864 116.695 123.442Z" fill="black"/>
<path d="M125.999 87.0244C127.777 95.0842 128.799 105.055 123.303 110.433C123.303 110.433 126.74 118.597 141.704 118.597C155.364 118.597 148.327 110.433 148.327 110.433C139.289 108.285 139.437 97.188 140.919 90.9358L125.999 87.0244Z" fill="#B55B52"/>
<path d="M141.692 117.16L146.003 121.946L144.907 125.294C144.819 125.562 144.651 125.796 144.426 125.966C144.201 126.136 143.929 126.232 143.647 126.242L140.684 126.39C140.442 126.397 140.201 126.343 139.984 126.234C139.767 126.126 139.58 125.966 139.44 125.768L137.084 122.301L141.692 117.16Z" fill="#263238"/>
<path d="M141.692 117.16C139.818 120.129 138.159 123.228 136.728 126.434C136.728 126.434 118.772 120.078 119.424 110.404C121.37 109.462 123.246 108.382 125.039 107.174C125.039 107.174 125.824 113.322 141.692 117.16Z" fill="white"/>
<path d="M141.689 117.16C143.933 119.754 145.808 122.646 147.26 125.753C149.259 123.807 150.677 121.344 151.357 118.639C152.037 115.934 151.953 113.093 151.112 110.434C149.544 109.813 147.929 109.317 146.282 108.952C146.282 108.952 147.542 115.086 141.689 117.16Z" fill="white"/>
<path d="M143.304 124.613C143.748 124.435 151.111 161.993 152.193 171.194C154.341 183.446 148.578 196.973 148.563 196.944C145.572 188.434 143.792 179.547 143.274 170.542C142.429 154.896 142.059 133.636 140.637 124.613H143.304Z" fill="#263238"/>
<path opacity="0.2" d="M140.9 90.9358C139.797 95.2911 139.93 99.8678 141.285 104.151C139.884 103.941 138.522 103.527 137.241 102.922C132.129 100.536 129.536 96.788 126.87 91.2025C126.633 89.7209 126.351 88.3875 126.055 87.0244L140.9 90.9358Z" fill="black"/>
<path d="M144.074 62.623L148.149 75.7054C149.086 74.683 149.738 73.4327 150.041 72.0793C150.343 70.7259 150.286 69.3167 149.873 67.9926C149.461 66.6685 148.708 65.4758 147.691 64.5336C146.673 63.5913 145.426 62.9325 144.074 62.623Z" fill="#263238"/>
<path d="M119.23 77.2169C122.401 87.7658 123.675 94.1069 130.386 98.4331C140.372 104.937 152.254 97.2034 152.24 85.9731C152.24 75.8687 147.039 60.3121 135.676 58.2972C133.187 57.8411 130.622 58.0412 128.235 58.8778C125.847 59.7144 123.718 61.1586 122.058 63.0681C120.399 64.9777 119.265 67.2867 118.769 69.7676C118.273 72.2486 118.432 74.816 119.23 77.2169Z" fill="#B55B52"/>
<path d="M123.511 85.173C126.474 83.247 127.704 73.3204 124.992 69.8535C134.489 69.4238 139.186 66.2088 139.438 64.4754C142.771 65.9569 151.098 66.5199 150.046 62.3123C149.563 60.624 148.61 59.1078 147.299 57.9405C145.987 56.7731 144.371 56.0028 142.638 55.7192C139.364 52.2523 131.156 49.3484 125.363 54.045C115.229 54.045 109.865 62.1937 112.695 65.4088C111.5 66.109 110.508 67.1099 109.819 68.312C109.13 69.5141 108.768 70.8755 108.768 72.2611C108.768 73.6466 109.13 75.008 109.819 76.2101C110.508 77.4122 111.5 78.4131 112.695 79.1134C109.999 83.2025 121.718 92.3142 123.511 85.173Z" fill="#263238"/>
<path d="M117.244 90.0472C118.212 91.0305 119.365 91.8129 120.636 92.3494C121.907 92.8859 123.272 93.1659 124.652 93.1734C128.282 93.1734 129.097 89.6917 127.185 86.7582C125.496 84.1061 121.57 80.9059 118.296 82.3134C115.022 83.7209 114.859 87.6026 117.244 90.0472Z" fill="#B55B52"/>
<path d="M129.615 213.211C129.615 213.211 130.786 227.049 132.282 245.806C133.971 267.066 136.06 294.698 137.319 315.692C137.319 315.81 137.319 315.899 137.319 315.988C137.556 319.974 137.764 323.722 137.927 327.144C139.601 361.443 143.038 461.257 143.038 461.257H161.677C161.677 461.257 171.07 359.398 171.455 324.492C171.84 290.92 168.299 213.211 168.299 213.211H129.615Z" fill="#263238"/>
<path d="M141.674 455.568C141.585 455.568 141.822 461.657 141.822 461.657H163.335L164.061 454.812L141.674 455.568Z" fill="#00E577" fill-opacity="0.35"/>
<path opacity="0.2" d="M132.221 245.806C133.91 267.066 135.999 294.698 137.258 315.692C137.258 315.81 137.258 315.899 137.258 315.988C141.821 296.046 143.658 271.244 143.021 230.412L132.221 245.806Z" fill="black"/>
<path d="M147.422 213.211C147.422 213.211 137.051 292.742 130.917 324.329C124.25 358.835 98.7815 461.331 98.7815 461.331H78.6172C78.6172 461.331 94.5293 361.621 97.9666 327.455C101.715 290.416 109.434 213.285 109.434 213.285L147.422 213.211Z" fill="#263238"/>
<path d="M78.4843 455.998L77.625 461.628H99.7746L101.582 455.168L78.4843 455.998Z" fill="#00E577" fill-opacity="0.35"/>
<path d="M135.953 76.7134C136.16 77.5876 136.783 78.195 137.346 78.0765C137.909 77.958 138.205 77.1431 137.998 76.2838C137.79 75.4245 137.168 74.8022 136.605 74.9207C136.042 75.0393 135.76 75.8541 135.953 76.7134Z" fill="#263238"/>
<path d="M145.69 74.6094C145.897 75.4687 146.52 76.091 147.083 75.9577C147.646 75.8243 147.927 75.0391 147.735 74.165C147.542 73.2908 146.905 72.6834 146.342 72.8019C145.779 72.9204 145.557 73.7353 145.69 74.6094Z" fill="#263238"/>
<path d="M142.699 75.7061C144.372 78.1491 146.365 80.3566 148.626 82.2694C148.136 82.8213 147.529 83.2577 146.85 83.5472C146.171 83.8367 145.437 83.9721 144.699 83.9436L142.699 75.7061Z" fill="#A02724"/>
<path d="M143.023 87.3213C143.089 87.3007 143.144 87.2552 143.178 87.1944C143.211 87.1335 143.219 87.0621 143.2 86.9954C143.192 86.9631 143.177 86.933 143.157 86.9066C143.136 86.8801 143.111 86.858 143.082 86.8415C143.053 86.8249 143.021 86.8143 142.988 86.8102C142.955 86.8061 142.921 86.8086 142.889 86.8176C141.82 87.1003 140.699 87.1297 139.616 86.9034C138.534 86.6771 137.518 86.2012 136.652 85.5138C136.628 85.4882 136.6 85.4678 136.568 85.4538C136.536 85.4398 136.501 85.4326 136.467 85.4326C136.432 85.4326 136.397 85.4398 136.366 85.4538C136.334 85.4678 136.305 85.4882 136.281 85.5138C136.256 85.536 136.236 85.5634 136.222 85.594C136.208 85.6247 136.201 85.6579 136.201 85.6916C136.201 85.7252 136.208 85.7585 136.222 85.7891C136.236 85.8198 136.256 85.8471 136.281 85.8694C137.207 86.6332 138.302 87.1638 139.475 87.4164C140.648 87.6691 141.865 87.6365 143.023 87.3213Z" fill="#263238"/>
<path d="M132.222 74.1791C132.299 74.1622 132.371 74.1281 132.433 74.0793C132.494 74.0305 132.544 73.9684 132.578 73.8976C132.82 73.2966 133.204 72.7631 133.696 72.3426C134.189 71.9221 134.776 71.627 135.408 71.4826C135.543 71.4608 135.665 71.3861 135.745 71.2751C135.826 71.164 135.859 71.0255 135.837 70.89C135.815 70.7536 135.741 70.631 135.631 70.5481C135.52 70.4652 135.382 70.4284 135.245 70.4455C134.445 70.6033 133.696 70.9564 133.065 71.4733C132.435 71.9903 131.942 72.6551 131.63 73.4087C131.574 73.5366 131.571 73.6811 131.621 73.8112C131.671 73.9413 131.77 74.0468 131.896 74.105C131.994 74.1661 132.108 74.1922 132.222 74.1791Z" fill="#263238"/>
<path d="M149.226 70.1646C149.305 70.1455 149.377 70.1044 149.434 70.0461C149.483 69.9991 149.522 69.9427 149.548 69.8804C149.575 69.818 149.588 69.7509 149.588 69.6831C149.588 69.6153 149.575 69.5482 149.548 69.4859C149.522 69.4235 149.483 69.3671 149.434 69.3201C148.893 68.6833 148.206 68.1855 147.433 67.8685C146.66 67.5514 145.822 67.4243 144.989 67.4978C144.921 67.5067 144.856 67.5293 144.797 67.5644C144.738 67.5994 144.687 67.6461 144.647 67.7016C144.606 67.7571 144.578 67.8202 144.563 67.887C144.548 67.9539 144.547 68.0231 144.559 68.0904C144.569 68.1588 144.591 68.2247 144.626 68.2843C144.661 68.3438 144.707 68.3958 144.762 68.4372C144.818 68.4786 144.88 68.5085 144.947 68.5253C145.014 68.5421 145.084 68.5454 145.152 68.5349C145.811 68.4857 146.472 68.5944 147.08 68.8521C147.688 69.1098 148.226 69.509 148.649 70.0165C148.719 70.0959 148.812 70.1525 148.915 70.1789C149.018 70.2053 149.126 70.2003 149.226 70.1646Z" fill="#263238"/>
<path d="M97.0184 125.428L111.834 131.561C111.834 131.561 100.9 163.119 100.1 168.142C106.1 170.364 112.693 179.298 120.694 185.135C120.487 186.943 117.02 191.388 115.627 192.351C103.686 186.558 85.3732 178.542 84.5139 171.609C82.41 156.052 97.0184 125.428 97.0184 125.428Z" fill="#B55B52"/>
<path d="M117.125 184.439H129.525L125.984 196.648C125.984 196.648 118.325 196.188 113.791 190.573L117.125 184.439Z" fill="#B55B52"/>
<path d="M136.948 186.884L133.185 197.774L125.984 196.737L129.525 184.528L136.948 186.884Z" fill="#B55B52"/>
<path d="M103.656 112.923C93.285 114.404 82.2324 150.525 82.2324 150.525L106.13 159.578C110.677 150.965 114.637 142.055 117.983 132.909C122.709 119.619 114.783 111.293 103.656 112.923Z" fill="#00BD62"/>
<path d="M95.7753 476.784C96.5186 476.846 97.2608 476.653 97.8792 476.236C98.0779 476.068 98.2291 475.851 98.3175 475.607C98.406 475.363 98.4285 475.099 98.3829 474.843C98.3816 474.691 98.3379 474.543 98.2567 474.415C98.1756 474.286 98.0602 474.183 97.9236 474.117C96.7087 473.495 93.1974 475.673 92.7974 475.925C92.7524 475.951 92.7168 475.991 92.6955 476.039C92.6743 476.087 92.6685 476.14 92.6788 476.191C92.6948 476.24 92.7219 476.284 92.7579 476.32C92.7939 476.356 92.8379 476.383 92.8863 476.399C93.8326 476.631 94.8012 476.76 95.7753 476.784ZM97.3606 474.517C97.4728 474.492 97.5892 474.492 97.7014 474.517C97.7532 474.551 97.7954 474.597 97.824 474.651C97.8525 474.706 97.8665 474.767 97.8644 474.828C97.8946 475.001 97.8806 475.179 97.8236 475.344C97.7666 475.51 97.6685 475.659 97.5384 475.777C96.3059 476.333 94.9083 476.402 93.627 475.969C94.7633 475.243 96.0323 474.75 97.3606 474.517Z" fill="#00BD62"/>
<path d="M92.9447 476.399C92.9828 476.414 93.0251 476.414 93.0632 476.399C94.1892 475.777 96.3375 473.436 96.0264 472.147C95.983 471.955 95.876 471.783 95.7227 471.659C95.5694 471.535 95.3788 471.467 95.1819 471.465C94.9864 471.436 94.7869 471.45 94.5974 471.506C94.408 471.562 94.2332 471.66 94.0855 471.791C92.8262 472.843 92.6039 476.014 92.6039 476.147C92.6011 476.195 92.6122 476.243 92.6359 476.285C92.6595 476.327 92.6947 476.361 92.7373 476.384C92.7675 476.404 92.8026 476.417 92.839 476.419C92.8754 476.422 92.9119 476.415 92.9447 476.399ZM95.0634 471.954H95.1819C95.5226 471.954 95.5523 472.147 95.5671 472.206C95.7153 472.932 94.367 474.754 93.2558 475.614C93.2973 474.366 93.7214 473.16 94.4707 472.162C94.6343 472.017 94.8452 471.938 95.0634 471.939V471.954Z" fill="#00BD62"/>
<path d="M161.944 476.784C162.882 476.871 163.823 476.636 164.61 476.117C164.78 475.955 164.909 475.755 164.986 475.533C165.063 475.312 165.087 475.075 165.055 474.843C165.047 474.698 165.001 474.558 164.924 474.437C164.846 474.315 164.738 474.215 164.61 474.146C163.262 473.406 158.891 475.628 158.403 475.91C158.353 475.932 158.313 475.971 158.289 476.019C158.264 476.068 158.258 476.123 158.269 476.176C158.277 476.23 158.301 476.28 158.338 476.32C158.375 476.359 158.424 476.387 158.477 476.398C159.618 476.63 160.779 476.759 161.944 476.784ZM163.884 474.517C164.052 474.509 164.219 474.54 164.373 474.606C164.423 474.634 164.464 474.675 164.492 474.725C164.521 474.774 164.536 474.83 164.536 474.887C164.562 475.04 164.55 475.197 164.501 475.345C164.452 475.492 164.367 475.625 164.255 475.732C163.588 476.324 161.781 476.428 159.336 476.028C160.755 475.269 162.293 474.758 163.884 474.517Z" fill="#00BD62"/>
<path d="M158.522 476.399H158.641C159.944 475.791 162.522 473.435 162.285 472.176C162.285 471.88 162.019 471.509 161.307 471.45C161.043 471.408 160.772 471.426 160.516 471.503C160.259 471.58 160.023 471.714 159.826 471.895C158.448 473.035 158.226 475.998 158.211 476.132C158.212 476.178 158.223 476.223 158.244 476.264C158.264 476.305 158.293 476.341 158.329 476.369C158.388 476.401 158.456 476.412 158.522 476.399ZM161.1 471.954H161.263C161.737 471.954 161.767 472.176 161.782 472.235C161.915 472.991 160.167 474.858 158.818 475.673C158.908 474.425 159.39 473.237 160.196 472.28C160.446 472.06 160.767 471.938 161.1 471.939V471.954Z" fill="#00BD62"/>
<path d="M473.761 125.91V311.493L442.855 342.399H320.654C319.392 342.395 318.182 341.89 317.29 340.996C316.399 340.102 315.898 338.891 315.898 337.628V125.91C315.898 124.648 316.399 123.437 317.29 122.542C318.182 121.648 319.392 121.144 320.654 121.14H468.96C469.589 121.136 470.213 121.256 470.795 121.494C471.377 121.732 471.907 122.083 472.353 122.527C472.799 122.97 473.153 123.497 473.395 124.078C473.636 124.659 473.761 125.281 473.761 125.91Z" fill="#00BD62"/>
<path opacity="0.6" d="M473.761 134.015V311.493L442.855 342.399H320.654C319.392 342.395 318.182 341.89 317.29 340.996C316.399 340.102 315.898 338.891 315.898 337.628V134.015H473.761Z" fill="white"/>
<path opacity="0.6" d="M469.613 127.037C469.616 127.494 469.483 127.943 469.23 128.325C468.978 128.707 468.618 129.005 468.196 129.183C467.774 129.36 467.309 129.408 466.86 129.32C466.41 129.233 465.997 129.014 465.672 128.691C465.348 128.368 465.126 127.957 465.036 127.508C464.945 127.059 464.99 126.594 465.165 126.171C465.339 125.747 465.635 125.385 466.016 125.131C466.396 124.876 466.844 124.74 467.301 124.74C467.604 124.738 467.904 124.796 468.185 124.911C468.465 125.025 468.72 125.194 468.935 125.408C469.15 125.621 469.32 125.875 469.436 126.154C469.553 126.434 469.613 126.734 469.613 127.037Z" fill="white"/>
<path opacity="0.6" d="M460.812 127.037C460.812 127.491 460.677 127.935 460.425 128.313C460.172 128.69 459.814 128.985 459.394 129.158C458.974 129.332 458.513 129.378 458.067 129.289C457.622 129.2 457.213 128.982 456.891 128.661C456.57 128.339 456.351 127.93 456.263 127.485C456.174 127.039 456.22 126.578 456.394 126.158C456.567 125.738 456.862 125.38 457.239 125.127C457.617 124.875 458.061 124.74 458.515 124.74C458.817 124.738 459.117 124.796 459.396 124.911C459.676 125.026 459.93 125.195 460.143 125.409C460.357 125.622 460.526 125.876 460.641 126.156C460.756 126.435 460.814 126.735 460.812 127.037Z" fill="white"/>
<path opacity="0.6" d="M452.027 127.037C452.03 127.495 451.896 127.944 451.643 128.326C451.391 128.709 451.03 129.007 450.607 129.184C450.184 129.361 449.718 129.408 449.268 129.319C448.819 129.23 448.405 129.01 448.081 128.686C447.757 128.362 447.537 127.949 447.448 127.499C447.359 127.049 447.406 126.583 447.583 126.16C447.76 125.737 448.058 125.376 448.441 125.124C448.823 124.871 449.272 124.737 449.73 124.74C450.339 124.74 450.923 124.982 451.354 125.413C451.785 125.844 452.027 126.428 452.027 127.037Z" fill="white"/>
<path d="M411.83 148.312H327.232C326.839 148.312 326.462 148.156 326.184 147.878C325.906 147.6 325.75 147.223 325.75 146.83C325.75 146.437 325.906 146.06 326.184 145.783C326.462 145.505 326.839 145.349 327.232 145.349H411.83C412.223 145.349 412.6 145.505 412.877 145.783C413.155 146.06 413.311 146.437 413.311 146.83C413.311 147.223 413.155 147.6 412.877 147.878C412.6 148.156 412.223 148.312 411.83 148.312Z" fill="#00BD62"/>
<path d="M387.92 156.416H327.175C326.782 156.416 326.405 156.26 326.127 155.982C325.849 155.704 325.693 155.328 325.693 154.935C325.693 154.542 325.849 154.165 326.127 153.887C326.405 153.609 326.782 153.453 327.175 153.453H387.92C388.313 153.453 388.689 153.609 388.967 153.887C389.245 154.165 389.401 154.542 389.401 154.935C389.401 155.328 389.245 155.704 388.967 155.982C388.689 156.26 388.313 156.416 387.92 156.416Z" fill="#00BD62"/>
<path d="M453.506 281.55H345.351C344.958 281.55 344.581 281.394 344.303 281.116C344.025 280.838 343.869 280.461 343.869 280.068C343.869 279.676 344.025 279.299 344.303 279.021C344.581 278.743 344.958 278.587 345.351 278.587H453.506C453.899 278.587 454.276 278.743 454.554 279.021C454.831 279.299 454.988 279.676 454.988 280.068C454.988 280.461 454.831 280.838 454.554 281.116C454.276 281.394 453.899 281.55 453.506 281.55Z" fill="#00BD62"/>
<path d="M435.422 313.922H327.267C326.874 313.922 326.497 313.766 326.219 313.488C325.941 313.21 325.785 312.834 325.785 312.441C325.785 312.048 325.941 311.671 326.219 311.393C326.497 311.115 326.874 310.959 327.267 310.959H435.422C435.815 310.959 436.192 311.115 436.47 311.393C436.747 311.671 436.904 312.048 436.904 312.441C436.904 312.834 436.747 313.21 436.47 313.488C436.192 313.766 435.815 313.922 435.422 313.922Z" fill="#00BD62"/>
<path d="M453.507 289.669H327.232C326.839 289.669 326.462 289.513 326.184 289.235C325.906 288.957 325.75 288.581 325.75 288.188C325.75 287.795 325.906 287.418 326.184 287.14C326.462 286.862 326.839 286.706 327.232 286.706H453.507C453.899 286.706 454.276 286.862 454.554 287.14C454.832 287.418 454.988 287.795 454.988 288.188C454.988 288.581 454.832 288.957 454.554 289.235C454.276 289.513 453.899 289.669 453.507 289.669Z" fill="#00BD62"/>
<path d="M453.507 297.743H327.232C326.839 297.743 326.462 297.587 326.184 297.309C325.906 297.032 325.75 296.655 325.75 296.262C325.75 295.869 325.906 295.492 326.184 295.214C326.462 294.936 326.839 294.78 327.232 294.78H453.507C453.899 294.78 454.276 294.936 454.554 295.214C454.832 295.492 454.988 295.869 454.988 296.262C454.988 296.655 454.832 297.032 454.554 297.309C454.276 297.587 453.899 297.743 453.507 297.743Z" fill="#00BD62"/>
<path d="M453.507 305.833H327.232C326.839 305.833 326.462 305.677 326.184 305.399C325.906 305.121 325.75 304.745 325.75 304.352C325.75 303.959 325.906 303.582 326.184 303.304C326.462 303.026 326.839 302.87 327.232 302.87H453.507C453.899 302.87 454.276 303.026 454.554 303.304C454.832 303.582 454.988 303.959 454.988 304.352C454.988 304.745 454.832 305.121 454.554 305.399C454.276 305.677 453.899 305.833 453.507 305.833Z" fill="#00BD62"/>
<path opacity="0.5" d="M473.734 311.493L442.828 342.399V311.493H473.734Z" fill="#00BD62"/>
<path opacity="0.4" d="M473.73 134.015H465.004V311.493H473.73V134.015Z" fill="black"/>
<path d="M469.315 226.746C468.462 226.746 467.644 226.408 467.041 225.805C466.438 225.202 466.1 224.384 466.1 223.531V205.397C466.119 204.557 466.466 203.758 467.067 203.171C467.668 202.584 468.475 202.256 469.315 202.256C469.737 202.256 470.155 202.339 470.545 202.501C470.935 202.662 471.289 202.899 471.588 203.198C471.887 203.496 472.123 203.85 472.285 204.241C472.447 204.631 472.53 205.049 472.53 205.471V223.605C472.51 224.445 472.163 225.244 471.562 225.831C470.961 226.418 470.155 226.747 469.315 226.746Z" fill="#00BD62"/>
<path d="M453.506 237.103H345.351C344.958 237.103 344.581 236.947 344.303 236.669C344.025 236.391 343.869 236.014 343.869 235.621C343.869 235.228 344.025 234.851 344.303 234.574C344.581 234.296 344.958 234.14 345.351 234.14H453.506C453.899 234.14 454.276 234.296 454.554 234.574C454.831 234.851 454.988 235.228 454.988 235.621C454.988 236.014 454.831 236.391 454.554 236.669C454.276 236.947 453.899 237.103 453.506 237.103Z" fill="#00BD62"/>
<path d="M435.422 269.476H327.267C326.874 269.476 326.497 269.32 326.219 269.042C325.941 268.764 325.785 268.387 325.785 267.994C325.785 267.601 325.941 267.225 326.219 266.947C326.497 266.669 326.874 266.513 327.267 266.513H435.422C435.815 266.513 436.192 266.669 436.47 266.947C436.747 267.225 436.904 267.601 436.904 267.994C436.904 268.387 436.747 268.764 436.47 269.042C436.192 269.32 435.815 269.476 435.422 269.476Z" fill="#00BD62"/>
<path d="M453.507 245.222H327.232C326.839 245.222 326.462 245.066 326.184 244.788C325.906 244.51 325.75 244.133 325.75 243.74C325.75 243.347 325.906 242.971 326.184 242.693C326.462 242.415 326.839 242.259 327.232 242.259H453.507C453.899 242.259 454.276 242.415 454.554 242.693C454.832 242.971 454.988 243.347 454.988 243.74C454.988 244.133 454.832 244.51 454.554 244.788C454.276 245.066 453.899 245.222 453.507 245.222Z" fill="#00BD62"/>
<path d="M453.507 253.297H327.232C326.839 253.297 326.462 253.141 326.184 252.863C325.906 252.585 325.75 252.209 325.75 251.816C325.75 251.423 325.906 251.046 326.184 250.768C326.462 250.49 326.839 250.334 327.232 250.334H453.507C453.899 250.334 454.276 250.49 454.554 250.768C454.832 251.046 454.988 251.423 454.988 251.816C454.988 252.209 454.832 252.585 454.554 252.863C454.276 253.141 453.899 253.297 453.507 253.297Z" fill="#00BD62"/>
<path d="M453.507 261.386H327.232C326.839 261.386 326.462 261.23 326.184 260.952C325.906 260.674 325.75 260.297 325.75 259.904C325.75 259.511 325.906 259.135 326.184 258.857C326.462 258.579 326.839 258.423 327.232 258.423H453.507C453.899 258.423 454.276 258.579 454.554 258.857C454.832 259.135 454.988 259.511 454.988 259.904C454.988 260.297 454.832 260.674 454.554 260.952C454.276 261.23 453.899 261.386 453.507 261.386Z" fill="#00BD62"/>
<path d="M453.495 166.062H326.85V213.324H453.495V166.062Z" fill="#00BD62"/>
<path opacity="0.2" d="M326.85 205.738H330.302V197.145H334.272V180.181H339.813V190.626H347.429V204.508H356.511V194.834H364.022L368.986 189.856V178.344H372.023V194.834H379.668V200.701H387.58V170.773L389.772 168.58V176.788H394.824V180.477L399.669 185.337V194.093H406.633V187.159H424.797V181.988H428.901V172.951H430.368V187.159H432.679L437.909 181.929H442.828V177.203H445.317V181.988H448.532V201.575H452.028V191.797L453.51 191.885V166.062H326.85V205.738Z" fill="black"/>
<path d="M453.505 220.805H419.429C419.036 220.805 418.659 220.649 418.381 220.371C418.103 220.093 417.947 219.716 417.947 219.323C417.947 218.93 418.103 218.554 418.381 218.276C418.659 217.998 419.036 217.842 419.429 217.842H453.505C453.898 217.842 454.275 217.998 454.553 218.276C454.831 218.554 454.987 218.93 454.987 219.323C454.987 219.716 454.831 220.093 454.553 220.371C454.275 220.649 453.898 220.805 453.505 220.805Z" fill="#00BD62"/>
<path opacity="0.2" d="M377.014 121.14V274.513L353.753 297.833H315.898V125.97C315.898 124.707 316.399 123.496 317.29 122.601C318.182 121.707 319.392 121.203 320.654 121.199L377.014 121.14Z" fill="black"/>
<path opacity="0.4" d="M469.315 226.746C468.462 226.746 467.644 226.408 467.041 225.805C466.438 225.202 466.1 224.384 466.1 223.531V205.397C466.119 204.557 466.466 203.758 467.067 203.171C467.668 202.584 468.475 202.256 469.315 202.256C469.737 202.256 470.155 202.339 470.545 202.501C470.935 202.662 471.289 202.899 471.588 203.198C471.887 203.496 472.123 203.85 472.285 204.241C472.447 204.631 472.53 205.049 472.53 205.471V223.605C472.51 224.445 472.163 225.244 471.562 225.831C470.961 226.418 470.155 226.747 469.315 226.746Z" fill="white"/>
<path d="M286.694 149.037V334.62L255.788 365.526H133.617C132.354 365.522 131.145 365.017 130.253 364.123C129.362 363.229 128.861 362.018 128.861 360.755V149.037C128.861 147.775 129.362 146.563 130.253 145.669C131.145 144.775 132.354 144.271 133.617 144.267H281.923C283.188 144.267 284.402 144.769 285.297 145.664C286.191 146.559 286.694 147.772 286.694 149.037Z" fill="#00BD62"/>
<path opacity="0.6" d="M286.694 157.156V334.635L255.788 365.54H133.617C132.354 365.536 131.145 365.032 130.253 364.138C129.362 363.244 128.861 362.032 128.861 360.77V157.156H286.694Z" fill="white"/>
<path opacity="0.6" d="M282.634 150.177C282.637 150.635 282.504 151.083 282.252 151.465C282 151.847 281.64 152.146 281.218 152.323C280.796 152.5 280.331 152.548 279.881 152.461C279.432 152.373 279.019 152.154 278.694 151.832C278.369 151.509 278.148 151.097 278.057 150.649C277.967 150.2 278.012 149.734 278.186 149.311C278.361 148.888 278.657 148.526 279.037 148.271C279.418 148.017 279.865 147.881 280.323 147.881C280.626 147.879 280.926 147.937 281.206 148.051C281.487 148.166 281.742 148.335 281.956 148.548C282.171 148.762 282.342 149.016 282.458 149.295C282.574 149.575 282.634 149.875 282.634 150.177Z" fill="white"/>
<path opacity="0.6" d="M273.744 150.177C273.747 150.636 273.613 151.085 273.36 151.467C273.107 151.849 272.747 152.148 272.324 152.325C271.901 152.501 271.435 152.548 270.985 152.46C270.535 152.371 270.122 152.151 269.798 151.826C269.474 151.502 269.253 151.089 269.165 150.639C269.076 150.19 269.123 149.724 269.3 149.301C269.477 148.878 269.775 148.517 270.158 148.264C270.54 148.011 270.989 147.878 271.447 147.881C271.749 147.879 272.049 147.937 272.328 148.052C272.608 148.166 272.862 148.335 273.075 148.549C273.289 148.763 273.458 149.017 273.573 149.296C273.687 149.576 273.746 149.875 273.744 150.177Z" fill="white"/>
<path opacity="0.6" d="M264.99 150.177C264.993 150.635 264.86 151.083 264.607 151.465C264.355 151.847 263.995 152.146 263.573 152.323C263.151 152.5 262.686 152.548 262.237 152.461C261.787 152.373 261.374 152.154 261.049 151.832C260.725 151.509 260.503 151.097 260.413 150.649C260.322 150.2 260.367 149.734 260.542 149.311C260.716 148.888 261.012 148.526 261.393 148.271C261.773 148.017 262.221 147.881 262.678 147.881C262.981 147.879 263.281 147.937 263.562 148.051C263.842 148.166 264.097 148.335 264.312 148.548C264.527 148.762 264.697 149.016 264.813 149.295C264.93 149.575 264.99 149.875 264.99 150.177Z" fill="white"/>
<path d="M166.478 172.254H140.194C139.802 172.254 139.425 172.098 139.147 171.82C138.869 171.542 138.713 171.166 138.713 170.773C138.713 170.38 138.869 170.003 139.147 169.725C139.425 169.447 139.802 169.291 140.194 169.291H166.478C166.871 169.291 167.247 169.447 167.525 169.725C167.803 170.003 167.959 170.38 167.959 170.773C167.959 171.166 167.803 171.542 167.525 171.82C167.247 172.098 166.871 172.254 166.478 172.254Z" fill="#00BD62"/>
<path d="M178.922 180.343H140.253C139.86 180.343 139.483 180.187 139.205 179.909C138.928 179.631 138.771 179.254 138.771 178.861C138.771 178.469 138.928 178.092 139.205 177.814C139.483 177.536 139.86 177.38 140.253 177.38H178.922C179.315 177.38 179.692 177.536 179.97 177.814C180.248 178.092 180.404 178.469 180.404 178.861C180.404 179.254 180.248 179.631 179.97 179.909C179.692 180.187 179.315 180.343 178.922 180.343Z" fill="#00BD62"/>
<path d="M166.908 188.433H140.239C139.846 188.433 139.47 188.277 139.192 187.999C138.914 187.721 138.758 187.344 138.758 186.951C138.758 186.558 138.914 186.182 139.192 185.904C139.47 185.626 139.846 185.47 140.239 185.47H166.908C167.301 185.47 167.678 185.626 167.955 185.904C168.233 186.182 168.389 186.558 168.389 186.951C168.389 187.344 168.233 187.721 167.955 187.999C167.678 188.277 167.301 188.433 166.908 188.433Z" fill="#00BD62"/>
<path d="M266.459 320.99H158.304C157.911 320.99 157.534 320.833 157.256 320.556C156.978 320.278 156.822 319.901 156.822 319.508C156.822 319.115 156.978 318.738 157.256 318.46C157.534 318.182 157.911 318.026 158.304 318.026H266.459C266.852 318.026 267.229 318.182 267.507 318.46C267.785 318.738 267.941 319.115 267.941 319.508C267.941 319.901 267.785 320.278 267.507 320.556C267.229 320.833 266.852 320.99 266.459 320.99Z" fill="#00BD62"/>
<path d="M207.191 329.079H140.194C139.802 329.079 139.425 328.923 139.147 328.645C138.869 328.368 138.713 327.991 138.713 327.598C138.713 327.205 138.869 326.828 139.147 326.55C139.425 326.272 139.802 326.116 140.194 326.116H207.191C207.584 326.116 207.961 326.272 208.239 326.55C208.517 326.828 208.673 327.205 208.673 327.598C208.673 327.991 208.517 328.368 208.239 328.645C207.961 328.923 207.584 329.079 207.191 329.079Z" fill="#00BD62"/>
<path opacity="0.5" d="M286.697 334.635L255.791 365.54V334.635H286.697Z" fill="#00BD62"/>
<path opacity="0.4" d="M286.693 157.156H277.967V334.635H286.693V157.156Z" fill="black"/>
<path d="M282.322 322.485C281.47 322.485 280.652 322.147 280.049 321.544C279.446 320.941 279.107 320.123 279.107 319.27V301.136C279.107 300.283 279.446 299.465 280.049 298.863C280.652 298.26 281.47 297.921 282.322 297.921C282.745 297.921 283.163 298.004 283.553 298.166C283.943 298.327 284.297 298.564 284.596 298.863C284.894 299.161 285.131 299.516 285.293 299.906C285.454 300.296 285.537 300.714 285.537 301.136V319.3C285.53 320.148 285.187 320.958 284.585 321.554C283.983 322.151 283.17 322.485 282.322 322.485Z" fill="#00BD62"/>
<path d="M266.458 172.254H246.116C245.723 172.254 245.347 172.098 245.069 171.82C244.791 171.542 244.635 171.166 244.635 170.773C244.635 170.38 244.791 170.003 245.069 169.725C245.347 169.447 245.723 169.291 246.116 169.291H266.458C266.851 169.291 267.228 169.447 267.506 169.725C267.784 170.003 267.94 170.38 267.94 170.773C267.94 171.166 267.784 171.542 267.506 171.82C267.228 172.098 266.851 172.254 266.458 172.254Z" fill="#00BD62"/>
<path d="M266.456 180.343H255.966C255.573 180.343 255.196 180.187 254.918 179.909C254.64 179.631 254.484 179.254 254.484 178.861C254.484 178.469 254.64 178.092 254.918 177.814C255.196 177.536 255.573 177.38 255.966 177.38H266.485C266.878 177.38 267.255 177.536 267.533 177.814C267.811 178.092 267.967 178.469 267.967 178.861C267.967 179.254 267.811 179.631 267.533 179.909C267.255 180.187 266.878 180.343 266.485 180.343H266.456Z" fill="#00BD62"/>
<path d="M266.459 209.871H158.304C157.911 209.871 157.534 209.715 157.256 209.437C156.978 209.16 156.822 208.783 156.822 208.39C156.822 207.997 156.978 207.62 157.256 207.342C157.534 207.064 157.911 206.908 158.304 206.908H266.459C266.852 206.908 267.229 207.064 267.507 207.342C267.785 207.62 267.941 207.997 267.941 208.39C267.941 208.783 267.785 209.16 267.507 209.437C267.229 209.715 266.852 209.871 266.459 209.871Z" fill="#00BD62"/>
<path d="M266.455 217.96H140.194C139.802 217.96 139.425 217.804 139.147 217.526C138.869 217.248 138.713 216.872 138.713 216.479C138.713 216.086 138.869 215.709 139.147 215.431C139.425 215.153 139.802 214.997 140.194 214.997H266.455C266.848 214.997 267.224 215.153 267.502 215.431C267.78 215.709 267.936 216.086 267.936 216.479C267.936 216.872 267.78 217.248 267.502 217.526C267.224 217.804 266.848 217.96 266.455 217.96Z" fill="#00BD62"/>
<path d="M192.376 226.05H140.194C139.802 226.05 139.425 225.894 139.147 225.616C138.869 225.338 138.713 224.961 138.713 224.568C138.713 224.176 138.869 223.799 139.147 223.521C139.425 223.243 139.802 223.087 140.194 223.087H192.376C192.769 223.087 193.145 223.243 193.423 223.521C193.701 223.799 193.857 224.176 193.857 224.568C193.857 224.961 193.701 225.338 193.423 225.616C193.145 225.894 192.769 226.05 192.376 226.05Z" fill="#00BD62"/>
<path opacity="0.7" d="M210.894 236.791H161.143V250.125H210.894V236.791Z" fill="#00BD62"/>
<path opacity="0.3" d="M183.677 253.089H161.143V302.322H183.677V253.089Z" fill="#00BD62"/>
<path opacity="0.3" d="M239.727 253.089H213.844V302.322H239.727V253.089Z" fill="#00BD62"/>
<path opacity="0.7" d="M266.455 236.791H213.844V250.125H266.455V236.791Z" fill="#00BD62"/>
<path opacity="0.3" d="M266.47 253.089H242.705V302.322H266.47V253.089Z" fill="#00BD62"/>
<path opacity="0.5" d="M158.182 253.089H140.195V302.322H158.182V253.089Z" fill="#00BD62"/>
<path d="M158.182 236.791H140.195V250.125H158.182V236.791Z" fill="#00BD62"/>
<path opacity="0.3" d="M210.879 253.089H186.641V302.322H210.879V253.089Z" fill="#00BD62"/>
<path opacity="0.4" d="M282.322 322.485C281.47 322.485 280.652 322.147 280.049 321.544C279.446 320.941 279.107 320.123 279.107 319.27V301.136C279.107 300.283 279.446 299.465 280.049 298.863C280.652 298.26 281.47 297.921 282.322 297.921C282.745 297.921 283.163 298.004 283.553 298.166C283.943 298.327 284.297 298.564 284.596 298.863C284.894 299.161 285.131 299.516 285.293 299.906C285.454 300.296 285.537 300.714 285.537 301.136V319.3C285.53 320.148 285.187 320.958 284.585 321.554C283.983 322.151 283.17 322.485 282.322 322.485Z" fill="white"/>
<path opacity="0.2" d="M286.694 149.037V303.418H197.311C196.048 303.414 194.838 302.91 193.947 302.015C193.055 301.121 192.555 299.91 192.555 298.647V144.267H281.924C283.189 144.267 284.402 144.769 285.297 145.664C286.192 146.559 286.694 147.772 286.694 149.037Z" fill="black"/>
<path d="M365.178 64.9133V250.496L334.273 281.402H212.102C210.839 281.398 209.629 280.893 208.738 279.999C207.846 279.105 207.346 277.894 207.346 276.631V64.9133C207.346 63.6506 207.846 62.4394 208.738 61.5451C209.629 60.6508 210.839 60.1465 212.102 60.1426H360.408C361.673 60.1426 362.886 60.6452 363.781 61.5399C364.676 62.4346 365.178 63.648 365.178 64.9133Z" fill="#00BD62"/>
<path opacity="0.6" d="M365.178 73.0176V250.496L334.273 281.402H212.102C210.839 281.398 209.629 280.893 208.738 279.999C207.846 279.105 207.346 277.894 207.346 276.631V73.0176H365.178Z" fill="white"/>
<path opacity="0.6" d="M358.748 68.3361C360.016 68.3361 361.044 67.3079 361.044 66.0396C361.044 64.7713 360.016 63.7432 358.748 63.7432C357.479 63.7432 356.451 64.7713 356.451 66.0396C356.451 67.3079 357.479 68.3361 358.748 68.3361Z" fill="white"/>
<path opacity="0.6" d="M349.947 68.3361C351.215 68.3361 352.243 67.3079 352.243 66.0396C352.243 64.7713 351.215 63.7432 349.947 63.7432C348.679 63.7432 347.65 64.7713 347.65 66.0396C347.65 67.3079 348.679 68.3361 349.947 68.3361Z" fill="white"/>
<path opacity="0.6" d="M343.46 66.0397C343.463 66.498 343.33 66.9469 343.077 67.3293C342.824 67.7116 342.463 68.0102 342.04 68.1869C341.618 68.3637 341.152 68.4107 340.702 68.322C340.252 68.2333 339.839 68.0129 339.515 67.6887C339.191 67.3646 338.97 66.9514 338.882 66.5017C338.793 66.052 338.84 65.5861 339.017 65.1631C339.193 64.7402 339.492 64.3794 339.874 64.1266C340.257 63.8737 340.706 63.7403 341.164 63.7432C341.466 63.7412 341.766 63.7993 342.045 63.914C342.325 64.0287 342.578 64.1978 342.792 64.4115C343.006 64.6251 343.175 64.879 343.29 65.1585C343.404 65.438 343.462 65.7375 343.46 66.0397Z" fill="white"/>
<path d="M296.894 88.1741H266.714C266.321 88.1741 265.944 88.018 265.666 87.7402C265.389 87.4623 265.232 87.0855 265.232 86.6925C265.232 86.2996 265.389 85.9227 265.666 85.6449C265.944 85.367 266.321 85.2109 266.714 85.2109H296.894C297.287 85.2109 297.664 85.367 297.941 85.6449C298.219 85.9227 298.375 86.2996 298.375 86.6925C298.375 87.0855 298.219 87.4623 297.941 87.7402C297.664 88.018 297.287 88.1741 296.894 88.1741Z" fill="#00BD62"/>
<path d="M309.304 96.2044H254.337C253.944 96.2044 253.567 96.0483 253.289 95.7704C253.012 95.4926 252.855 95.1157 252.855 94.7228C252.855 94.3299 253.012 93.953 253.289 93.6752C253.567 93.3973 253.944 93.2412 254.337 93.2412H309.304C309.697 93.2412 310.073 93.3973 310.351 93.6752C310.629 93.953 310.785 94.3299 310.785 94.7228C310.785 95.1157 310.629 95.4926 310.351 95.7704C310.073 96.0483 309.697 96.2044 309.304 96.2044Z" fill="#00BD62"/>
<path d="M297.34 104.309H266.345C265.952 104.309 265.575 104.153 265.297 103.875C265.019 103.597 264.863 103.22 264.863 102.827C264.863 102.434 265.019 102.057 265.297 101.78C265.575 101.502 265.952 101.346 266.345 101.346H297.458C297.851 101.346 298.228 101.502 298.506 101.78C298.783 102.057 298.94 102.434 298.94 102.827C298.94 103.22 298.783 103.597 298.506 103.875C298.228 104.153 297.851 104.309 297.458 104.309H297.34Z" fill="#00BD62"/>
<path d="M344.941 125.733H236.712C236.319 125.733 235.942 125.577 235.664 125.299C235.387 125.021 235.23 124.644 235.23 124.251C235.23 123.858 235.387 123.481 235.664 123.203C235.942 122.926 236.319 122.77 236.712 122.77H344.867C345.26 122.77 345.637 122.926 345.915 123.203C346.193 123.481 346.349 123.858 346.349 124.251C346.349 124.644 346.193 125.021 345.915 125.299C345.637 125.577 345.26 125.733 344.867 125.733H344.941Z" fill="#00BD62"/>
<path d="M326.852 158.105H218.696C218.303 158.105 217.927 157.949 217.649 157.671C217.371 157.393 217.215 157.016 217.215 156.623C217.215 156.23 217.371 155.853 217.649 155.576C217.927 155.298 218.303 155.142 218.696 155.142H326.852C327.245 155.142 327.621 155.298 327.899 155.576C328.177 155.853 328.333 156.23 328.333 156.623C328.333 157.016 328.177 157.393 327.899 157.671C327.621 157.949 327.245 158.105 326.852 158.105Z" fill="#00BD62"/>
<path d="M344.938 133.822H218.663C218.27 133.822 217.893 133.665 217.616 133.388C217.338 133.11 217.182 132.733 217.182 132.34C217.182 131.947 217.338 131.57 217.616 131.292C217.893 131.014 218.27 130.858 218.663 130.858H344.938C345.331 130.858 345.708 131.014 345.986 131.292C346.264 131.57 346.42 131.947 346.42 132.34C346.42 132.733 346.264 133.11 345.986 133.388C345.708 133.665 345.331 133.822 344.938 133.822Z" fill="#00BD62"/>
<path d="M344.938 141.926H218.663C218.27 141.926 217.893 141.77 217.616 141.492C217.338 141.214 217.182 140.837 217.182 140.444C217.182 140.052 217.338 139.675 217.616 139.397C217.893 139.119 218.27 138.963 218.663 138.963H344.938C345.331 138.963 345.708 139.119 345.986 139.397C346.264 139.675 346.42 140.052 346.42 140.444C346.42 140.837 346.264 141.214 345.986 141.492C345.708 141.77 345.331 141.926 344.938 141.926Z" fill="#00BD62"/>
<path d="M344.938 150.015H218.663C218.27 150.015 217.893 149.859 217.616 149.581C217.338 149.303 217.182 148.926 217.182 148.533C217.182 148.14 217.338 147.764 217.616 147.486C217.893 147.208 218.27 147.052 218.663 147.052H344.938C345.331 147.052 345.708 147.208 345.986 147.486C346.264 147.764 346.42 148.14 346.42 148.533C346.42 148.926 346.264 149.303 345.986 149.581C345.708 149.859 345.331 150.015 344.938 150.015Z" fill="#00BD62"/>
<path d="M344.941 207.219H236.712C236.319 207.219 235.942 207.063 235.664 206.785C235.387 206.507 235.23 206.13 235.23 205.737C235.23 205.344 235.387 204.968 235.664 204.69C235.942 204.412 236.319 204.256 236.712 204.256H344.867C345.26 204.256 345.637 204.412 345.915 204.69C346.193 204.968 346.349 205.344 346.349 205.737C346.349 206.13 346.193 206.507 345.915 206.785C345.637 207.063 345.26 207.219 344.867 207.219H344.941Z" fill="#00BD62"/>
<path d="M326.852 239.591H218.696C218.303 239.591 217.927 239.435 217.649 239.157C217.371 238.879 217.215 238.502 217.215 238.11C217.215 237.717 217.371 237.34 217.649 237.062C217.927 236.784 218.303 236.628 218.696 236.628H326.852C327.245 236.628 327.621 236.784 327.899 237.062C328.177 237.34 328.333 237.717 328.333 238.11C328.333 238.502 328.177 238.879 327.899 239.157C327.621 239.435 327.245 239.591 326.852 239.591Z" fill="#00BD62"/>
<path d="M344.938 215.308H218.663C218.27 215.308 217.893 215.152 217.616 214.874C217.338 214.596 217.182 214.219 217.182 213.826C217.182 213.433 217.338 213.057 217.616 212.779C217.893 212.501 218.27 212.345 218.663 212.345H344.938C345.331 212.345 345.708 212.501 345.986 212.779C346.264 213.057 346.42 213.433 346.42 213.826C346.42 214.219 346.264 214.596 345.986 214.874C345.708 215.152 345.331 215.308 344.938 215.308Z" fill="#00BD62"/>
<path d="M344.938 223.412H218.663C218.27 223.412 217.893 223.256 217.616 222.978C217.338 222.701 217.182 222.324 217.182 221.931C217.182 221.538 217.338 221.161 217.616 220.883C217.893 220.605 218.27 220.449 218.663 220.449H344.938C345.331 220.449 345.708 220.605 345.986 220.883C346.264 221.161 346.42 221.538 346.42 221.931C346.42 222.324 346.264 222.701 345.986 222.978C345.708 223.256 345.331 223.412 344.938 223.412Z" fill="#00BD62"/>
<path d="M344.938 231.502H218.663C218.27 231.502 217.893 231.346 217.616 231.068C217.338 230.79 217.182 230.414 217.182 230.021C217.182 229.628 217.338 229.251 217.616 228.973C217.893 228.695 218.27 228.539 218.663 228.539H344.938C345.331 228.539 345.708 228.695 345.986 228.973C346.264 229.251 346.42 229.628 346.42 230.021C346.42 230.414 346.264 230.79 345.986 231.068C345.708 231.346 345.331 231.502 344.938 231.502Z" fill="#00BD62"/>
<path d="M344.938 84.8555H329.781V105.035H344.938V84.8555Z" fill="#00BD62"/>
<path d="M227.08 101.657C231.72 101.657 235.481 97.8955 235.481 93.256C235.481 88.6165 231.72 84.8555 227.08 84.8555C222.441 84.8555 218.68 88.6165 218.68 93.256C218.68 97.8955 222.441 101.657 227.08 101.657Z" fill="#00BD62"/>
<path d="M218.187 168.698C218.228 169.139 218.432 169.55 218.759 169.849C219.087 170.148 219.514 170.314 219.958 170.314C220.401 170.314 220.829 170.148 221.156 169.849C221.484 169.55 221.688 169.139 221.728 168.698C221.751 168.452 221.722 168.204 221.643 167.969C221.564 167.735 221.437 167.52 221.271 167.337C221.104 167.155 220.901 167.009 220.675 166.909C220.449 166.809 220.205 166.758 219.958 166.758C219.71 166.758 219.466 166.809 219.24 166.909C219.014 167.009 218.811 167.155 218.644 167.337C218.478 167.52 218.351 167.735 218.272 167.969C218.194 168.204 218.165 168.452 218.187 168.698Z" fill="#00BD62"/>
<path d="M218.191 176.788C218.189 177.14 218.291 177.486 218.485 177.781C218.679 178.075 218.957 178.306 219.282 178.442C219.608 178.578 219.966 178.615 220.313 178.547C220.659 178.479 220.977 178.309 221.226 178.059C221.476 177.81 221.646 177.492 221.714 177.146C221.782 176.799 221.745 176.441 221.609 176.115C221.473 175.79 221.242 175.512 220.948 175.318C220.653 175.124 220.307 175.022 219.955 175.024C219.487 175.024 219.039 175.21 218.708 175.541C218.377 175.872 218.191 176.32 218.191 176.788Z" fill="#00BD62"/>
<path d="M218.187 184.891C218.228 185.333 218.432 185.743 218.759 186.042C219.087 186.341 219.514 186.507 219.958 186.507C220.401 186.507 220.829 186.341 221.156 186.042C221.484 185.743 221.688 185.333 221.728 184.891C221.751 184.645 221.722 184.397 221.643 184.163C221.564 183.928 221.437 183.713 221.271 183.531C221.104 183.348 220.901 183.202 220.675 183.102C220.449 183.003 220.205 182.951 219.958 182.951C219.71 182.951 219.466 183.003 219.24 183.102C219.014 183.202 218.811 183.348 218.644 183.531C218.478 183.713 218.351 183.928 218.272 184.163C218.194 184.397 218.165 184.645 218.187 184.891Z" fill="#00BD62"/>
<path d="M218.187 192.981C218.228 193.423 218.432 193.833 218.759 194.132C219.087 194.431 219.514 194.597 219.958 194.597C220.401 194.597 220.829 194.431 221.156 194.132C221.484 193.833 221.688 193.423 221.728 192.981C221.751 192.735 221.722 192.487 221.643 192.253C221.564 192.018 221.437 191.803 221.271 191.62C221.104 191.438 220.901 191.292 220.675 191.192C220.449 191.093 220.205 191.041 219.958 191.041C219.71 191.041 219.466 191.093 219.24 191.192C219.014 191.292 218.811 191.438 218.644 191.62C218.478 191.803 218.351 192.018 218.272 192.253C218.194 192.487 218.165 192.735 218.187 192.981Z" fill="#00BD62"/>
<path d="M245.365 170.179H226.105C225.712 170.179 225.335 170.023 225.057 169.745C224.779 169.467 224.623 169.09 224.623 168.697C224.623 168.304 224.779 167.928 225.057 167.65C225.335 167.372 225.712 167.216 226.105 167.216H245.365C245.758 167.216 246.135 167.372 246.413 167.65C246.691 167.928 246.847 168.304 246.847 168.697C246.847 169.09 246.691 169.467 246.413 169.745C246.135 170.023 245.758 170.179 245.365 170.179Z" fill="#00BD62"/>
<path d="M263.456 178.269H226.075C225.682 178.269 225.306 178.113 225.028 177.835C224.75 177.557 224.594 177.18 224.594 176.787C224.594 176.394 224.75 176.017 225.028 175.74C225.306 175.462 225.682 175.306 226.075 175.306H263.456C263.848 175.306 264.225 175.462 264.503 175.74C264.781 176.017 264.937 176.394 264.937 176.787C264.937 177.18 264.781 177.557 264.503 177.835C264.225 178.113 263.848 178.269 263.456 178.269Z" fill="#00BD62"/>
<path d="M241.232 186.373H226.075C225.682 186.373 225.306 186.217 225.028 185.939C224.75 185.662 224.594 185.285 224.594 184.892C224.594 184.499 224.75 184.122 225.028 183.844C225.306 183.566 225.682 183.41 226.075 183.41H241.232C241.625 183.41 242.002 183.566 242.28 183.844C242.557 184.122 242.713 184.499 242.713 184.892C242.713 185.285 242.557 185.662 242.28 185.939C242.002 186.217 241.625 186.373 241.232 186.373Z" fill="#00BD62"/>
<path d="M257.529 194.463H226.075C225.682 194.463 225.306 194.307 225.028 194.029C224.75 193.751 224.594 193.375 224.594 192.982C224.594 192.589 224.75 192.212 225.028 191.934C225.306 191.656 225.682 191.5 226.075 191.5H257.529C257.922 191.5 258.299 191.656 258.577 191.934C258.855 192.212 259.011 192.589 259.011 192.982C259.011 193.375 258.855 193.751 258.577 194.029C258.299 194.307 257.922 194.463 257.529 194.463Z" fill="#00BD62"/>
<path opacity="0.5" d="M365.181 250.496L334.275 281.402V250.496H365.181Z" fill="#00BD62"/>
<path opacity="0.2" d="M344.938 84.8555L329.781 105.035H344.938V84.8555Z" fill="black"/>
<path opacity="0.2" d="M231.985 88.3516H222.162V98.1744H231.985V88.3516Z" fill="black"/>
<path opacity="0.4" d="M365.164 73.0176H356.438V250.496H365.164V73.0176Z" fill="black"/>
<path d="M360.807 106.487C359.954 106.487 359.136 106.148 358.533 105.545C357.931 104.942 357.592 104.124 357.592 103.272V85.2111C357.592 84.3584 357.931 83.5407 358.533 82.9377C359.136 82.3348 359.954 81.9961 360.807 81.9961C361.66 81.9961 362.477 82.3348 363.08 82.9377C363.683 83.5407 364.022 84.3584 364.022 85.2111V103.346C364.002 104.185 363.655 104.984 363.054 105.571C362.454 106.158 361.647 106.487 360.807 106.487Z" fill="#00BD62"/>
<path opacity="0.4" d="M360.807 106.487C359.954 106.487 359.136 106.148 358.533 105.545C357.931 104.942 357.592 104.124 357.592 103.272V85.2111C357.592 84.3584 357.931 83.5407 358.533 82.9377C359.136 82.3348 359.954 81.9961 360.807 81.9961C361.66 81.9961 362.477 82.3348 363.08 82.9377C363.683 83.5407 364.022 84.3584 364.022 85.2111V103.346C364.002 104.185 363.655 104.984 363.054 105.571C362.454 106.158 361.647 106.487 360.807 106.487Z" fill="white"/>
<path d="M463.16 107.5C461.678 114.76 460.315 128.079 465.397 132.924C461.282 139.597 455.148 144.787 447.885 147.74C438.166 141.65 442.818 132.924 442.818 132.924C450.922 130.983 450.715 124.983 449.292 119.338L463.16 107.5Z" fill="#FF8B7B"/>
<path d="M468.009 137.221C473.298 133.576 473.683 126.657 473.683 126.657C473.683 126.657 454.423 121.724 443.933 124.687C440.718 127.146 435.592 131.724 435.592 131.724C435.592 131.724 436.896 134.687 442.822 136.554C448.748 138.421 468.009 137.221 468.009 137.221Z" fill="#263238"/>
<path d="M490.394 142.836C494.009 148.051 497.254 153.207 500.335 158.674C503.485 164.099 506.334 169.693 508.869 175.431C509.491 176.912 510.128 178.394 510.691 179.875L511.121 181.001L511.343 181.564L511.447 181.846L511.625 182.364C512.065 183.726 512.251 185.158 512.173 186.587C512.009 188.803 511.405 190.964 510.395 192.943C509.589 194.578 508.626 196.131 507.521 197.58C503.494 202.72 498.66 207.173 493.209 210.766L489.179 206.055C492.949 201.751 496.307 197.103 499.209 192.173C499.788 191.091 500.284 189.967 500.691 188.809C500.996 188.032 501.128 187.198 501.076 186.365C501.076 186.142 500.987 186.054 500.943 186.083L500.839 185.846L500.602 185.357L500.157 184.365C499.565 183.061 498.883 181.772 498.246 180.468C496.932 177.86 495.535 175.273 494.053 172.705C492.572 170.127 491.09 167.563 489.609 165.03C486.512 159.978 483.282 154.852 480.082 149.992L490.394 142.836Z" fill="#FF8B7B"/>
<path d="M491.311 204.781L478.125 203.788L485.414 213.878C485.414 213.878 493.222 212.915 495.059 208.174L491.311 204.781Z" fill="#FF8B7B"/>
<path d="M469.562 209.507L476.141 217.626L487.371 213.492L478.126 203.788L469.562 209.507Z" fill="#FF8B7B"/>
<path d="M485.55 135.547L477.164 146.985L477.772 161.104L492.009 174.023C492.009 174.023 499.314 168.823 505.67 163.564C497.699 145.296 490.498 137.028 485.55 135.547Z" fill="#00BD62"/>
<path opacity="0.2" d="M482.513 146.392L478.068 161.296L482.854 165.637C482.158 155.207 482.513 146.392 482.513 146.392Z" fill="black"/>
<path d="M420.684 144.258C420.492 153.147 421.736 171.593 427.974 209.966H477.696C476.866 189.728 475.873 177.045 485.548 135.502C478.904 134.149 472.169 133.287 465.398 132.924C457.882 132.39 450.336 132.39 442.819 132.924C437.96 133.368 432.759 134.154 428.803 134.835C426.566 135.217 424.531 136.367 423.049 138.086C421.568 139.806 420.731 141.988 420.684 144.258Z" fill="#00BD62"/>
<path opacity="0.2" d="M430.407 147.71L421.518 162.126C421.977 167.252 422.658 173.401 423.621 180.749L430.866 176.453C433.859 154.644 430.407 147.71 430.407 147.71Z" fill="black"/>
<path d="M431.857 151.563C429.857 158.452 427.724 165.297 425.516 172.113C423.308 178.928 421.071 185.758 418.775 192.544L418.33 193.818L417.619 195.477C417.141 196.496 416.602 197.486 416.004 198.44C414.841 200.273 413.479 201.972 411.945 203.507C409.048 206.377 405.725 208.781 402.092 210.634C395.236 214.071 387.801 216.206 380.165 216.93L379.143 210.811C382.371 209.823 385.533 208.63 388.61 207.241C391.636 205.911 394.532 204.304 397.262 202.441C399.843 200.757 402.164 198.705 404.152 196.351C405.066 195.281 405.851 194.108 406.493 192.855C406.812 192.273 407.089 191.669 407.322 191.047L407.619 190.218L407.974 188.943C409.811 182.054 411.708 175.209 413.723 168.379C415.738 161.549 417.693 154.734 419.871 147.963L431.857 151.563Z" fill="#FF8B7B"/>
<path d="M433.369 144.807C431.28 139.799 424.702 136.555 424.702 136.555C417.635 141.162 414.716 145.978 410.02 169.386C417.546 172.764 428.747 172.735 428.747 172.735L434.851 156.986C434.851 156.986 435.473 149.815 433.369 144.807Z" fill="#00BD62"/>
<path d="M381.688 210.158L369.332 209.966L377.199 219.611C377.199 219.611 384.933 218.129 386.489 213.344L381.688 210.158Z" fill="#FF8B7B"/>
<path d="M361.127 216.174L368.15 223.893L377.202 219.611L369.335 209.966L361.127 216.174Z" fill="#FF8B7B"/>
<path d="M437.294 92.3582C437.131 93.3212 436.465 94.0176 435.813 93.9139C435.161 93.8102 434.805 92.9212 434.983 91.9434C435.161 90.9655 435.813 90.2692 436.465 90.4618C437.117 90.6544 437.428 91.3804 437.294 92.3582Z" fill="#263238"/>
<path d="M436.736 90.4917L434.514 89.4102C434.514 89.4102 435.388 91.4399 436.736 90.4917Z" fill="#263238"/>
<path d="M436.881 86.27C436.776 86.2261 436.686 86.152 436.622 86.0571C436.559 85.9622 436.525 85.8507 436.525 85.7366C436.525 85.6225 436.559 85.511 436.622 85.4161C436.686 85.3212 436.776 85.2471 436.881 85.2032C437.701 84.7809 438.61 84.5605 439.533 84.5605C440.456 84.5605 441.365 84.7809 442.185 85.2032C442.314 85.2857 442.407 85.4152 442.443 85.5644C442.479 85.7136 442.455 85.8709 442.378 86.0033C442.341 86.0696 442.291 86.1278 442.231 86.1744C442.171 86.2209 442.103 86.2549 442.029 86.2743C441.956 86.2937 441.879 86.298 441.804 86.2871C441.729 86.2762 441.657 86.2502 441.592 86.2107C440.944 85.8767 440.225 85.7025 439.496 85.7025C438.767 85.7025 438.048 85.8767 437.4 86.2107C437.325 86.2629 437.238 86.2957 437.148 86.306C437.057 86.3164 436.966 86.304 436.881 86.27Z" fill="#263238"/>
<path d="M437.223 95.5439C435.967 97.6115 434.431 99.4961 432.66 101.144C433.093 101.586 433.616 101.927 434.195 102.145C434.773 102.362 435.392 102.451 436.009 102.404L437.223 95.5439Z" fill="#FF5652"/>
<path d="M470.826 94.1662C467.982 106.019 467.033 111.041 459.907 116.108C449.195 123.724 435.313 117.59 434.572 105.204C433.92 94.018 438.676 76.5798 451.21 73.8981C453.971 73.2938 456.84 73.4052 459.546 74.2218C462.251 75.0383 464.703 76.5329 466.669 78.5636C468.634 80.5943 470.048 83.0937 470.775 85.8245C471.503 88.5552 471.521 91.4267 470.826 94.1662Z" fill="#FF8B7B"/>
<path d="M482.124 99.7554C483.275 89.7486 476.096 80.7037 466.089 79.5529C456.082 78.4022 447.037 85.5814 445.886 95.5882C444.736 105.595 451.915 114.64 461.922 115.791C471.928 116.941 480.973 109.762 482.124 99.7554Z" fill="#263238"/>
<path d="M451.579 94.6847C464.913 85.9138 485.359 81.1431 480.914 67.5126C477.329 56.5341 460.928 56.0155 448.32 61.1566C431.03 68.1497 438.26 103.441 451.579 94.6847Z" fill="#263238"/>
<path d="M468.543 75.2169C468.427 75.2176 468.312 75.1896 468.208 75.1354C468.105 75.0811 468.017 75.0023 467.951 74.9057L453.905 55.3637C453.821 55.2024 453.797 55.0159 453.838 54.8384C453.88 54.661 453.985 54.5046 454.133 54.3981C454.281 54.2917 454.462 54.2423 454.644 54.2591C454.825 54.2759 454.994 54.3578 455.12 54.4896L469.151 74.0464C469.263 74.2044 469.308 74.3997 469.278 74.5908C469.247 74.7818 469.143 74.9533 468.988 75.0687C468.861 75.1679 468.704 75.2203 468.543 75.2169Z" fill="#00BD62"/>
<path d="M477.118 80.1509C476.965 80.1502 476.815 80.1038 476.689 80.0175C476.609 79.9614 476.54 79.8899 476.488 79.8073C476.436 79.7247 476.4 79.6325 476.384 79.536C476.367 79.4396 476.37 79.3409 476.392 79.2455C476.414 79.1502 476.454 79.0601 476.511 78.9804L490.541 59.4384C490.655 59.2773 490.829 59.1681 491.023 59.1347C491.218 59.1014 491.417 59.1467 491.579 59.2606C491.74 59.3746 491.849 59.5479 491.882 59.7423C491.916 59.9368 491.87 60.1366 491.756 60.2977L477.711 79.8546C477.643 79.9474 477.554 80.0227 477.45 80.0743C477.347 80.1258 477.234 80.1521 477.118 80.1509Z" fill="#00BD62"/>
<path d="M484.324 100.739C494.248 94.5717 498.263 83.0872 493.292 75.088C488.32 67.0889 476.245 65.6042 466.321 71.7719C456.397 77.9395 452.382 89.4241 457.353 97.4232C462.324 105.422 474.399 106.907 484.324 100.739Z" fill="#263238"/>
<path d="M427.979 209.966C427.979 209.966 432.171 302.164 432.986 339.5C433.816 378.347 434.186 469.05 434.186 469.05H443.994C443.994 469.05 459.625 393.667 455.002 339.5C461.996 297.912 466.722 209.966 466.722 209.966H427.979Z" fill="#FF8B7B"/>
<path d="M440.969 209.966C440.969 209.966 464.318 306.52 473.875 342.626C483.905 380.54 497.447 466.235 497.58 469.05H506.054C506.054 469.05 508.721 370.05 495.313 336.389C495.313 294.208 477.756 209.966 477.756 209.966H440.969Z" fill="#FF8B7B"/>
<path d="M500.409 466.68C507.639 465.48 507.625 469.006 508.232 472.799C508.669 475.076 508.33 477.434 507.269 479.496C504.854 483.733 507.269 490 499.105 490C490.942 490 490.142 488.222 492.216 484.429C494.146 480.601 495.456 476.49 496.098 472.251C496.513 470.058 497.194 467.213 500.409 466.68Z" fill="#263238"/>
<path d="M507.792 473.82C507.969 478.71 508.443 489.999 508.443 489.999H507.155C507.155 489.999 505.673 477.969 504.799 474.724L507.792 473.82Z" fill="#263238"/>
<path d="M450.079 98.3591C449.17 100.52 447.445 102.235 445.278 103.13C442.315 104.3 440.597 101.796 441.115 98.8925C441.574 96.2701 443.649 92.5217 446.686 92.5958C447.348 92.6282 447.992 92.8249 448.56 93.1681C449.128 93.5113 449.601 93.9903 449.938 94.5619C450.274 95.1335 450.463 95.7798 450.488 96.4427C450.512 97.1056 450.372 97.7641 450.079 98.3591Z" fill="#FF8B7B"/>
<g opacity="0.2">
<path opacity="0.2" d="M432.879 334.922C432.879 336.522 432.953 338.048 432.983 339.5C433.116 345.427 433.234 352.731 433.338 360.672L455.799 355.338C455.695 349.931 455.429 344.612 454.999 339.5C455.443 336.819 455.888 333.944 456.332 330.907L432.879 334.922Z" fill="black"/>
<path opacity="0.2" d="M495.211 336.389C495.211 332.67 495.062 328.626 494.811 324.329L470.172 328.537C471.535 333.841 472.765 338.611 473.831 342.627C474.483 345.086 475.145 347.733 475.817 350.568L498.04 345.293C497.28 342.27 496.335 339.297 495.211 336.389Z" fill="black"/>
</g>
<path d="M427.979 209.966L429.46 356.79L499.094 341.974C500.191 258.191 493.657 229.212 477.73 209.966H427.979Z" fill="#263238"/>
<path opacity="0.2" d="M474.866 246.205C474.866 246.205 461.324 257.465 444.73 261.199C462.02 259.88 470.791 255.02 474.866 246.205Z" fill="black"/>
<path d="M426.094 200.736C426.239 203.896 426.551 207.046 427.027 210.173C427.116 211.062 427.368 217.848 427.649 219.389C427.931 220.93 484.794 220.026 483.668 217.67C482.542 215.315 478.882 210.499 478.882 209.462C478.882 208.425 478.497 200.765 478.023 200.128C477.549 199.491 426.375 198.336 426.094 200.736Z" fill="#00BD62"/>
<path opacity="0.2" d="M426.094 200.736C426.239 203.896 426.551 207.046 427.027 210.173C427.116 211.062 427.368 217.848 427.649 219.389C427.931 220.93 484.794 220.026 483.668 217.67C482.542 215.315 478.882 210.499 478.882 209.462C478.882 208.425 478.497 200.765 478.023 200.128C477.549 199.491 426.375 198.336 426.094 200.736Z" fill="white"/>
<path d="M434.141 465.479C431.593 472.813 424.215 485.881 424.215 485.881L438.216 482.014L445.09 471.213L443.609 468.369L434.141 465.479Z" fill="#FF8B7B"/>
<path d="M445.696 467.553C446.293 468.805 446.578 470.183 446.526 471.568C446.437 476.591 445.874 489.94 445.874 489.94H444.704C444.71 485.833 444.502 481.728 444.081 477.643C443.489 474.324 442.052 480.176 439.829 483.465C437.607 486.754 433.251 489.762 425.577 489.94C416.598 490.162 412.968 489.762 415.576 487.584C418.183 485.406 424.095 484.014 424.095 484.014C426.532 483.949 428.909 483.246 430.989 481.974C433.069 480.703 434.779 478.908 435.948 476.769C438.614 471.953 441.874 467.168 444.081 466.042C444.45 466.15 444.788 466.343 445.068 466.606C445.349 466.868 445.564 467.193 445.696 467.553Z" fill="#263238"/>
</svg>
