<svg width="598" height="409" viewBox="0 0 598 409" fill="none" xmlns="http://www.w3.org/2000/svg">
<g opacity="0.7">
<path d="M44.6543 342.853C46.5647 351.968 51.9568 359.979 59.6834 365.179C67.3915 370.302 76.2876 373.355 85.5167 374.046C94.4507 374.881 104.053 373.863 111.183 368.419C118.313 362.975 121.804 352.171 116.927 344.64C110.031 333.986 95.2188 333.084 82.561 334.002C69.9032 334.921 56.5941 338.611 44.6543 342.853Z" fill="#00BD62"/>
<path d="M158.257 276.708C165.518 282.54 170.216 290.976 171.349 300.22C172.426 309.416 171.109 318.735 167.525 327.272C164.185 335.622 158.958 343.704 150.826 347.595C142.694 351.486 131.522 349.699 127.03 341.934C120.668 330.963 126.596 317.337 133.125 306.466C139.654 295.595 149.056 285.425 158.257 276.708Z" fill="#00BD62"/>
<path d="M19.8281 285.76C19.8724 294.657 23.3827 303.187 29.6137 309.539C35.8495 315.8 43.5891 320.354 52.0906 322.764C60.2898 325.269 69.4742 326.104 77.139 322.414C84.8039 318.723 90.1809 309.238 87.1584 301.273C82.7332 289.984 69.0233 286.244 57.0168 284.724C45.0102 283.205 31.818 284.09 19.8281 285.76Z" fill="#00BD62"/>
<path d="M138.768 245.549C144.447 252.399 147.232 261.193 146.533 270.063C145.768 278.865 142.755 287.324 137.783 294.627C133.091 301.808 126.611 308.37 118.312 310.474C110.013 312.579 99.8429 308.805 97.1209 300.622C93.2635 289.133 101.413 277.511 109.612 268.593C117.811 259.676 128.565 251.945 138.768 245.549Z" fill="#00BD62"/>
<path d="M3.86289 228.449C3.19477 236.91 5.85492 245.298 11.2772 251.827C16.6954 258.273 23.6832 263.213 31.5665 266.172C39.1478 269.194 47.8146 270.747 55.4293 267.842C63.0441 264.936 68.7885 256.369 66.5342 248.538C63.1944 237.483 50.5031 232.907 39.2313 230.453C27.9595 227.998 15.3852 227.814 3.86289 228.449Z" fill="#00BD62"/>
<path d="M120.001 199.76C124.851 206.715 126.793 215.29 125.411 223.656C124.006 231.948 120.493 239.74 115.208 246.283C110.198 252.729 103.519 258.457 95.4698 259.793C87.4208 261.129 78.0694 256.67 76.1323 248.755C73.377 237.55 82.0438 227.146 90.5269 219.348C99.4512 211.556 109.361 204.97 120.001 199.76Z" fill="#00BD62"/>
<path d="M0.653125 174.461C-0.99457 182.345 0.503536 190.56 4.82787 197.355C9.169 204.086 15.1663 209.589 22.2449 213.336C29.0247 217.093 37.0068 219.598 44.538 217.761C52.0693 215.924 58.5819 208.56 57.3295 200.895C55.5427 190.074 44.1039 184.196 33.7672 180.556C23.0435 177.084 11.9103 175.035 0.653125 174.461Z" fill="#00BD62"/>
<path d="M113.54 161.352C117.269 168.494 118.071 176.806 115.778 184.53C113.484 192.177 109.264 199.106 103.521 204.652C98.0102 210.129 91.03 214.671 83.2817 215.005C75.5334 215.339 67.2507 209.996 66.3656 202.264C65.1299 191.376 74.5481 182.626 83.4821 176.28C92.8091 170.017 102.914 164.999 113.54 161.352Z" fill="#00BD62"/>
<path d="M9.37135 114.861C6.70407 122.017 6.93171 129.93 10.0059 136.921C13.1067 143.85 17.9441 149.86 24.0498 154.371C29.8777 158.863 36.9915 162.353 44.3223 161.702C51.6532 161.051 58.7836 155.022 58.7001 147.725C58.5832 137.321 48.6807 130.208 39.513 125.298C29.9637 120.52 19.8306 117.011 9.37135 114.861Z" fill="#00BD62"/>
<path d="M117.091 118.77C119.575 125.993 119.144 133.901 115.889 140.812C112.604 147.656 107.612 153.54 101.394 157.895C95.4659 162.237 88.2687 165.543 80.9545 164.708C73.6403 163.873 66.6602 157.728 66.9274 150.381C67.3114 139.977 77.3976 133.114 86.6822 128.455C96.3511 123.91 106.575 120.654 117.091 118.77Z" fill="#00BD62"/>
<path d="M27.0056 60.3232C23.5954 66.685 22.8045 74.127 24.8013 81.0634C26.8231 87.9463 30.5844 94.1922 35.7225 99.1985C40.5986 104.208 46.8106 108.333 53.7573 108.65C60.7041 108.967 68.1519 104.308 69.0202 97.4117C70.2225 87.6595 61.873 79.7275 53.9911 74.0331C45.6393 68.294 36.5656 63.6842 27.0056 60.3232Z" fill="#00BD62"/>
<path d="M127.397 77.7402C128.797 84.8249 127.377 92.1763 123.439 98.2299C119.497 104.223 114.072 109.095 107.692 112.374C101.58 115.714 94.3326 117.868 87.653 116.148C80.9734 114.428 75.1454 107.798 76.3478 100.918C78.0177 91.2497 88.3543 86.1064 97.639 82.9169C107.289 79.8961 117.294 78.1557 127.397 77.7402Z" fill="#00BD62"/>
<path d="M91.5427 34.1889C91.1319 33.502 90.4693 33.0025 89.6959 32.7967C88.9224 32.5909 88.0992 32.695 87.4013 33.0868C80.2199 36.7808 74.3018 42.5304 70.4018 49.6021C67.6832 54.5033 66.8686 60.2353 68.114 65.6999C70.8026 76.8214 85.5644 80.3449 92.7951 71.4611C98.3726 64.5978 99.2075 55.0961 97.9718 46.4126C97.2871 41.7035 93.9807 38.2301 91.5427 34.1889Z" fill="#00BD62"/>
<path d="M246.632 408.112C207.74 404.322 170.318 387.372 138.222 359.234C107.541 332.1 84.6456 297.279 71.894 258.356C52.2894 197.371 56.6478 126.534 84.1844 58.9033L87.2737 60.1724C60.1045 127.018 55.7127 197.037 75.1336 257.371C100.666 336.774 171.336 397.442 246.999 404.873L246.632 408.112Z" fill="#00BD62"/>
<path d="M552.468 342.853C550.561 351.97 545.168 359.981 537.439 365.179C529.723 370.3 520.822 373.353 511.589 374.046C502.671 374.881 493.053 373.863 485.922 368.419C478.792 362.975 475.302 352.171 480.178 344.64C487.075 333.986 501.887 333.084 514.561 334.002C527.236 334.921 540.528 338.611 552.468 342.853Z" fill="#00BD62"/>
<path d="M438.868 276.708C431.62 282.546 426.935 290.981 425.81 300.22C424.741 309.416 426.058 318.733 429.634 327.272C432.974 335.622 438.2 343.704 446.333 347.595C454.465 351.486 465.637 349.699 470.129 341.934C476.491 330.963 470.58 317.337 464.034 306.466C457.488 295.595 448.07 285.425 438.868 276.708Z" fill="#00BD62"/>
<path d="M577.303 285.76C577.259 294.657 573.749 303.187 567.518 309.539C561.284 315.803 553.544 320.357 545.041 322.764C536.842 325.269 527.657 326.104 519.993 322.414C512.328 318.723 506.951 309.238 510.073 301.273C514.482 289.984 528.192 286.244 540.132 284.724C552.071 283.205 565.314 284.09 577.303 285.76Z" fill="#00BD62"/>
<path d="M458.356 245.549C452.675 252.397 449.895 261.194 450.608 270.063C451.357 278.869 454.371 287.331 459.358 294.627C464.034 301.808 470.513 308.37 478.812 310.474C487.112 312.579 497.281 308.805 500.003 300.622C503.861 289.133 495.712 277.511 487.513 268.593C479.313 259.676 468.626 251.945 458.356 245.549Z" fill="#00BD62"/>
<path d="M593.269 228.449C593.937 236.91 591.276 245.298 585.854 251.827C580.436 258.273 573.448 263.213 565.565 266.172C557.984 269.194 549.333 270.747 541.702 267.842C534.071 264.936 528.343 256.369 530.614 248.538C533.954 237.483 546.628 232.907 557.9 230.453C569.172 227.998 581.746 227.814 593.269 228.449Z" fill="#00BD62"/>
<path d="M477.138 199.76C472.274 206.71 470.326 215.287 471.71 223.656C473.13 231.953 476.661 239.746 481.964 246.283C486.973 252.729 493.653 258.457 501.718 259.793C509.784 261.129 519.102 256.67 521.056 248.755C523.795 237.55 515.144 227.146 506.645 219.348C497.708 211.556 487.788 204.97 477.138 199.76Z" fill="#00BD62"/>
<path d="M596.469 174.461C598.116 182.345 596.618 190.56 592.294 197.355C587.953 204.086 581.955 209.589 574.877 213.336C568.097 217.093 560.132 219.598 552.584 217.761C545.036 215.924 538.54 208.56 539.792 200.895C541.579 190.074 553.018 184.196 563.371 180.556C574.089 177.083 585.217 175.034 596.469 174.461Z" fill="#00BD62"/>
<path d="M483.523 161.352C479.794 168.494 478.992 176.806 481.285 184.53C483.629 192.189 487.901 199.118 493.692 204.652C499.186 210.129 506.166 214.671 513.915 215.005C521.663 215.339 529.946 209.996 530.831 202.264C532.067 191.376 522.665 182.626 513.714 176.28C504.346 170.007 494.195 164.988 483.523 161.352Z" fill="#00BD62"/>
<path d="M587.79 114.861C590.452 122.019 590.218 129.933 587.138 136.921C584.037 143.85 579.2 149.86 573.094 154.371C567.267 158.863 560.153 162.353 552.839 161.702C545.524 161.051 538.361 155.022 538.444 147.725C538.561 137.321 548.463 130.208 557.631 125.298C567.186 120.519 577.325 117.01 587.79 114.861Z" fill="#00BD62"/>
<path d="M480.026 118.77C477.542 125.993 477.973 133.901 481.229 140.812C484.514 147.656 489.505 153.54 495.723 157.895C501.651 162.237 508.849 165.543 516.163 164.708C523.477 163.873 530.457 157.728 530.19 150.381C529.806 139.977 519.736 133.114 510.435 128.455C500.766 123.91 490.543 120.654 480.026 118.77Z" fill="#00BD62"/>
<path d="M570.125 60.3232C573.535 66.685 574.326 74.127 572.329 81.0634C570.316 87.9503 566.554 94.1983 561.408 99.1985C556.532 104.208 550.32 108.333 543.373 108.65C536.426 108.967 528.979 104.308 528.11 97.4117C526.908 87.6595 535.257 79.7275 543.223 74.0331C551.548 68.2994 560.593 63.6896 570.125 60.3232Z" fill="#00BD62"/>
<path d="M469.727 77.7412C468.327 84.8259 469.747 92.1772 473.685 98.2309C477.627 104.224 483.052 109.096 489.432 112.375C495.544 115.715 502.708 117.869 509.471 116.149C516.234 114.429 521.978 107.799 520.776 100.919C519.106 91.2507 508.786 86.1074 499.485 82.9179C489.835 79.8971 479.83 78.1566 469.727 77.7412Z" fill="#00BD62"/>
<path d="M505.581 34.1892C505.995 33.5011 506.661 33.0012 507.437 32.7955C508.213 32.5898 509.039 32.6943 509.74 33.087C516.913 36.7862 522.824 42.5349 526.722 49.6023C529.441 54.5036 530.256 60.2356 529.01 65.7001C526.322 76.8217 511.56 80.3451 504.329 71.4613C498.752 64.598 497.917 55.0963 499.169 46.4128C499.837 41.7037 503.143 38.2303 505.581 34.1892Z" fill="#00BD62"/>
<path d="M350.499 408.112L350.182 404.772C425.811 397.358 496.532 336.691 522.048 257.371C541.418 197.121 537.077 127.118 509.857 60.2056L512.963 58.9365C540.483 126.567 544.842 197.404 525.237 258.389C512.49 297.301 489.6 332.111 458.925 359.234C426.88 387.372 389.391 404.322 350.499 408.112Z" fill="#00BD62"/>
</g>
<path d="M109.537 77.0684H473.671C474.651 77.0684 475.621 77.2614 476.526 77.6364C477.432 78.0114 478.255 78.5611 478.947 79.254C479.64 79.947 480.19 80.7696 480.565 81.675C480.94 82.5804 481.133 83.5507 481.133 84.5307V347.949H102.075V84.6006C102.065 83.6148 102.252 82.6369 102.622 81.7234C102.993 80.8099 103.541 79.9791 104.235 79.2787C104.929 78.5783 105.755 78.0224 106.665 77.643C107.575 77.2636 108.551 77.0683 109.537 77.0684Z" fill="#263238"/>
<path d="M473.667 93.8633H109.533V326.594H473.667V93.8633Z" fill="#EDFFF7"/>
<path opacity="0.2" d="M288.282 89.7916C290.289 89.7916 291.917 88.1641 291.917 86.1565C291.917 84.149 290.289 82.5215 288.282 82.5215C286.274 82.5215 284.646 84.149 284.646 86.1565C284.646 88.1641 286.274 89.7916 288.282 89.7916Z" fill="white"/>
<path opacity="0.2" d="M295.816 88.8832C297.322 88.8832 298.542 87.6626 298.542 86.1569C298.542 84.6513 297.322 83.4307 295.816 83.4307C294.31 83.4307 293.09 84.6513 293.09 86.1569C293.09 87.6626 294.31 88.8832 295.816 88.8832Z" fill="white"/>
<path opacity="0.2" d="M293.087 331.365C292.609 331.197 292.107 331.108 291.601 331.103C290.657 331.103 289.735 331.382 288.95 331.907C288.166 332.431 287.554 333.176 287.193 334.048C286.832 334.92 286.738 335.879 286.922 336.804C287.106 337.73 287.56 338.58 288.227 339.247C288.895 339.914 289.745 340.369 290.67 340.553C291.596 340.737 292.555 340.642 293.427 340.281C294.299 339.92 295.044 339.309 295.568 338.524C296.092 337.74 296.372 336.817 296.372 335.874C296.382 335.786 296.382 335.699 296.372 335.611C295.46 335.317 294.659 334.754 294.072 333.996C293.486 333.239 293.142 332.321 293.087 331.365Z" fill="white"/>
<path d="M509.391 344.245V347.74C509.385 348.823 509.033 349.876 508.385 350.744C507.737 351.612 506.828 352.25 505.791 352.563L479.402 360.288C476.124 361.265 472.721 361.759 469.301 361.756H113.94C110.525 361.758 107.128 361.264 103.856 360.288L77.4496 352.493C76.4096 352.183 75.4968 351.547 74.8455 350.678C74.1943 349.81 73.839 348.755 73.832 347.67V344.175L509.391 344.245Z" fill="#263238"/>
<path opacity="0.2" d="M509.391 344.245V347.74C509.385 348.823 509.033 349.876 508.385 350.744C507.737 351.612 506.828 352.25 505.791 352.563L479.402 360.288C476.124 361.265 472.721 361.759 469.301 361.756H113.94C110.525 361.758 107.128 361.264 103.856 360.288L77.4496 352.493C76.4096 352.183 75.4968 351.547 74.8455 350.678C74.1943 349.81 73.839 348.755 73.832 347.67V344.175L509.391 344.245Z" fill="white"/>
<path opacity="0.2" d="M509.391 344.244V347.739C509.39 348.645 509.143 349.533 508.675 350.308H74.5486C74.0806 349.533 73.8329 348.645 73.832 347.739V344.244H509.391Z" fill="white"/>
<path opacity="0.2" d="M322.26 344.244V345.747C322.26 345.942 322.221 346.135 322.147 346.316C322.072 346.496 321.963 346.66 321.825 346.797C321.687 346.935 321.523 347.045 321.343 347.119C321.162 347.194 320.969 347.233 320.774 347.233H262.474C262.277 347.235 262.082 347.198 261.9 347.125C261.718 347.051 261.552 346.942 261.412 346.804C261.272 346.666 261.161 346.501 261.085 346.32C261.01 346.138 260.971 345.944 260.971 345.747V344.244H322.26Z" fill="black"/>
<path opacity="0.1" d="M473.667 93.8633C473.667 93.8633 423.318 293.773 109.533 326.594V93.8633H473.667Z" fill="white"/>
<path fill-rule="evenodd" clip-rule="evenodd" d="M196.469 260.448H298.748L398.842 160.336H196.469V260.448Z" fill="url(#paint0_linear_2327_5659)"/>
<path fill-rule="evenodd" clip-rule="evenodd" d="M316.566 180.359H296.58L296.646 227.367L279.242 180.343H261.985L247.129 219.616C245.549 209.622 235.218 206.174 227.089 203.591C221.72 201.867 216.023 199.331 216.081 196.528C216.125 194.227 219.129 192.094 225.097 192.412C229.102 192.628 232.639 192.95 239.676 196.35L246.595 184.292C240.179 181.026 231.307 178.964 224.032 178.957H223.987C215.504 178.957 208.441 181.705 204.063 186.232C201.01 189.391 199.364 193.409 199.297 197.852C199.186 203.965 201.426 208.299 206.134 211.763C210.112 214.677 215.2 216.568 219.682 217.956C225.211 219.669 229.727 221.16 229.671 224.332C229.627 225.489 229.191 226.57 228.359 227.442C226.98 228.866 224.866 229.4 221.941 229.458C216.296 229.578 212.114 228.69 205.449 224.751L199.293 236.964C205.952 240.751 213.019 242.651 221.051 242.651L222.857 242.637C229.847 242.51 235.52 240.835 240.027 237.209C240.286 237.002 240.517 236.793 240.757 236.582L240.001 240.479L256.864 240.426L259.89 232.679C263.071 233.765 266.688 234.366 270.528 234.366C274.27 234.366 277.79 233.796 280.911 232.773L283.02 240.426L313.276 240.455L313.35 222.795H319.788C335.35 222.795 344.549 214.875 344.549 201.593C344.544 186.801 335.601 180.359 316.566 180.359ZM270.528 220.541C268.203 220.541 266.023 220.136 264.148 219.425L270.457 199.502H270.579L276.786 219.48C274.918 220.148 272.789 220.541 270.526 220.541H270.528ZM317.737 209.095H313.345V193.039H317.739C323.59 193.039 328.262 194.988 328.262 200.964C328.257 207.149 323.59 209.095 317.739 209.095" fill="white"/>
<path opacity="0.7" d="M432.436 58.0093C432.643 57.9259 433.2 53.8385 433.8 48.9795C435.049 38.7714 441.029 30.8781 448.599 29.3245L454.053 28.1984C454.053 28.1984 445.491 28.1984 441.928 25.675C434.357 20.3364 432.632 4.5498 432.632 4.5498C432.632 4.5498 430.567 20.3364 422.955 25.675C419.382 28.1984 410.83 28.1984 410.83 28.1984L416.283 29.3245C423.833 30.8781 429.823 38.7714 431.073 48.9795C431.672 53.8802 432.219 57.9259 432.436 58.0093Z" fill="#00E577" fill-opacity="0.35"/>
<path opacity="0.7" d="M293.668 62.559C293.907 62.4614 294.553 57.6783 295.247 51.9922C296.694 40.0466 303.618 30.8097 312.383 28.9916L318.698 27.6739C318.698 27.6739 308.784 27.6738 304.658 24.721C295.892 18.4736 293.895 0 293.895 0C293.895 0 291.503 18.4736 282.69 24.721C278.552 27.6738 268.65 27.6739 268.65 27.6739L274.965 28.9916C283.706 30.8097 290.642 40.0466 292.089 51.9922C292.783 57.7271 293.417 62.4614 293.668 62.559Z" fill="#00E577" fill-opacity="0.35"/>
<path opacity="0.7" d="M491.58 336.681C491.874 336.562 492.666 330.735 493.518 323.809C495.294 309.257 503.791 298.005 514.549 295.79L522.299 294.184C522.299 294.184 510.132 294.184 505.068 290.587C494.31 282.977 491.859 260.473 491.859 260.473C491.859 260.473 488.924 282.977 478.107 290.587C473.029 294.184 460.877 294.184 460.877 294.184L468.626 295.79C479.355 298.005 487.867 309.257 489.643 323.809C490.494 330.795 491.272 336.562 491.58 336.681Z" fill="#00E577" fill-opacity="0.35"/>
<path opacity="0.7" d="M206.087 62.5594C206.207 62.5115 206.529 60.1634 206.876 57.3721C207.6 51.5078 211.062 46.9734 215.445 46.0809L218.602 45.434C218.602 45.434 213.645 45.434 211.582 43.9844C207.199 40.9175 206.201 31.8486 206.201 31.8486C206.201 31.8486 205.005 40.9175 200.598 43.9844C198.529 45.434 193.578 45.434 193.578 45.434L196.735 46.0809C201.106 46.9734 204.574 51.5078 205.298 57.3721C205.644 60.1874 205.961 62.5115 206.087 62.5594Z" fill="#00E577" fill-opacity="0.35"/>
<path opacity="0.7" d="M283.432 398.103C283.628 398.027 284.156 394.287 284.723 389.842C285.907 380.502 291.572 373.281 298.744 371.86L303.911 370.829C303.911 370.829 295.799 370.829 292.424 368.521C285.252 363.636 283.618 349.193 283.618 349.193C283.618 349.193 281.661 363.636 274.45 368.521C271.064 370.829 262.963 370.829 262.963 370.829L268.129 371.86C275.281 373.281 280.956 380.502 282.14 389.842C282.708 394.325 283.226 398.027 283.432 398.103Z" fill="#00E577" fill-opacity="0.35"/>
<path opacity="0.7" d="M477.933 73.9329C478.064 73.8815 478.416 71.3594 478.794 68.3613C479.583 62.0627 483.36 57.1924 488.141 56.2338L491.586 55.5389C491.586 55.5389 486.178 55.5389 483.928 53.982C479.146 50.6879 478.057 40.9473 478.057 40.9473C478.057 40.9473 476.752 50.6879 471.945 53.982C469.688 55.5389 464.287 55.5389 464.287 55.5389L467.731 56.2338C472.499 57.1924 476.283 62.0627 477.072 68.3613C477.45 71.3852 477.796 73.8815 477.933 73.9329Z" fill="#00E577" fill-opacity="0.35"/>
<defs>
<linearGradient id="paint0_linear_2327_5659" x1="297.655" y1="160.336" x2="297.655" y2="260.45" gradientUnits="userSpaceOnUse">
<stop stop-color="#00AEEF"/>
<stop offset="0.212" stop-color="#0097DC"/>
<stop offset="0.519" stop-color="#007CC5"/>
<stop offset="0.792" stop-color="#006CB8"/>
<stop offset="1" stop-color="#0066B3"/>
</linearGradient>
</defs>
</svg>
