<svg width="600" height="616" viewBox="0 0 600 616" fill="none" xmlns="http://www.w3.org/2000/svg">
<path d="M118.975 141.594H533.167C534.281 141.594 535.385 141.813 536.415 142.24C537.445 142.666 538.381 143.292 539.169 144.08C539.957 144.868 540.582 145.804 541.009 146.834C541.435 147.863 541.655 148.967 541.655 150.082V449.713H110.487V150.161C110.476 149.04 110.688 147.928 111.11 146.889C111.532 145.85 112.155 144.905 112.945 144.108C113.734 143.311 114.673 142.679 115.708 142.247C116.743 141.816 117.853 141.594 118.975 141.594Z" fill="#263238"/>
<path d="M533.163 160.697H118.971V425.421H533.163V160.697Z" fill="#EDFFF7"/>
<path opacity="0.2" d="M322.297 156.065C324.58 156.065 326.432 154.214 326.432 151.931C326.432 149.647 324.58 147.796 322.297 147.796C320.013 147.796 318.162 149.647 318.162 151.931C318.162 154.214 320.013 156.065 322.297 156.065Z" fill="white"/>
<path opacity="0.2" d="M330.861 155.032C332.574 155.032 333.962 153.644 333.962 151.931C333.962 150.218 332.574 148.83 330.861 148.83C329.148 148.83 327.76 150.218 327.76 151.931C327.76 153.644 329.148 155.032 330.861 155.032Z" fill="white"/>
<path opacity="0.2" d="M327.757 430.848C327.214 430.657 326.643 430.557 326.068 430.55C324.994 430.55 323.945 430.868 323.052 431.464C322.16 432.061 321.464 432.908 321.054 433.9C320.643 434.892 320.535 435.983 320.745 437.035C320.954 438.088 321.471 439.055 322.23 439.814C322.989 440.573 323.956 441.09 325.009 441.299C326.061 441.509 327.153 441.401 328.144 440.99C329.136 440.58 329.983 439.884 330.58 438.992C331.176 438.099 331.494 437.05 331.494 435.977C331.505 435.878 331.505 435.778 331.494 435.679C330.457 435.344 329.545 434.703 328.878 433.841C328.212 432.979 327.821 431.936 327.757 430.848Z" fill="white"/>
<path d="M573.799 445.498V449.474C573.792 450.706 573.391 451.904 572.654 452.891C571.917 453.879 570.883 454.604 569.704 454.961L539.687 463.747C535.959 464.858 532.088 465.421 528.198 465.417H123.985C120.101 465.42 116.237 464.857 112.515 463.747L82.4782 454.881C81.2952 454.528 80.2569 453.804 79.5161 452.816C78.7754 451.829 78.3712 450.629 78.3633 449.395V445.419L573.799 445.498Z" fill="#263238"/>
<path opacity="0.2" d="M573.799 445.498V449.474C573.792 450.706 573.391 451.904 572.654 452.891C571.917 453.879 570.883 454.604 569.704 454.961L539.687 463.747C535.959 464.858 532.088 465.421 528.198 465.417H123.985C120.101 465.42 116.237 464.857 112.515 463.747L82.4782 454.881C81.2952 454.528 80.2569 453.804 79.5161 452.816C78.7754 451.829 78.3712 450.629 78.3633 449.395V445.419L573.799 445.498Z" fill="white"/>
<path opacity="0.2" d="M573.799 445.499V449.475C573.798 450.505 573.516 451.515 572.984 452.397H79.1783C78.646 451.515 78.3643 450.505 78.3633 449.475V445.499H573.799Z" fill="white"/>
<path opacity="0.2" d="M360.943 445.499V447.209C360.943 447.43 360.899 447.65 360.814 447.855C360.729 448.06 360.605 448.246 360.448 448.403C360.291 448.56 360.105 448.685 359.9 448.77C359.695 448.855 359.475 448.898 359.253 448.898H292.938C292.714 448.901 292.493 448.859 292.285 448.775C292.078 448.692 291.889 448.568 291.73 448.41C291.571 448.253 291.445 448.066 291.359 447.86C291.273 447.653 291.229 447.432 291.229 447.209V445.499H360.943Z" fill="black"/>
<path opacity="0.1" d="M533.163 160.697C533.163 160.697 475.892 388.089 118.971 425.421V160.697H533.163Z" fill="white"/>
<path d="M509.719 167.646V362.265L477.308 394.675H349.157C347.833 394.671 346.565 394.142 345.63 393.204C344.695 392.267 344.17 390.996 344.17 389.672V167.646C344.17 166.321 344.695 165.051 345.63 164.113C346.565 163.176 347.833 162.647 349.157 162.643H504.685C505.344 162.639 505.998 162.765 506.609 163.015C507.219 163.264 507.775 163.632 508.242 164.097C508.71 164.562 509.082 165.115 509.335 165.724C509.588 166.333 509.719 166.986 509.719 167.646Z" fill="#00BD62"/>
<path opacity="0.6" d="M509.719 176.145V362.265L477.308 394.675H349.157C347.833 394.671 346.565 394.142 345.63 393.204C344.695 392.267 344.17 390.996 344.17 389.672V176.145H509.719Z" fill="white"/>
<path opacity="0.6" d="M505.369 168.826C505.372 169.306 505.233 169.776 504.968 170.177C504.704 170.578 504.326 170.891 503.884 171.077C503.441 171.262 502.953 171.313 502.482 171.221C502.011 171.129 501.577 170.9 501.237 170.561C500.896 170.223 500.664 169.791 500.569 169.32C500.474 168.85 500.521 168.362 500.704 167.918C500.887 167.474 501.198 167.095 501.597 166.828C501.996 166.561 502.465 166.418 502.945 166.418C503.263 166.416 503.578 166.477 503.872 166.597C504.166 166.717 504.433 166.894 504.658 167.118C504.883 167.342 505.062 167.608 505.184 167.901C505.306 168.194 505.369 168.509 505.369 168.826Z" fill="white"/>
<path opacity="0.6" d="M496.139 168.826C496.139 169.303 495.998 169.768 495.733 170.164C495.468 170.56 495.092 170.869 494.652 171.051C494.212 171.234 493.728 171.281 493.261 171.188C492.794 171.095 492.364 170.866 492.028 170.529C491.691 170.192 491.461 169.763 491.369 169.296C491.276 168.829 491.323 168.345 491.506 167.905C491.688 167.465 491.997 167.089 492.393 166.824C492.789 166.559 493.254 166.418 493.731 166.418C494.047 166.416 494.361 166.477 494.655 166.597C494.948 166.717 495.214 166.895 495.438 167.119C495.662 167.343 495.839 167.609 495.96 167.902C496.08 168.195 496.141 168.509 496.139 168.826Z" fill="white"/>
<path opacity="0.6" d="M486.926 168.826C486.929 169.307 486.789 169.778 486.524 170.179C486.259 170.58 485.88 170.893 485.437 171.078C484.993 171.263 484.504 171.313 484.033 171.22C483.561 171.127 483.128 170.896 482.788 170.556C482.448 170.216 482.217 169.782 482.124 169.311C482.031 168.839 482.08 168.351 482.266 167.907C482.451 167.464 482.764 167.085 483.165 166.82C483.566 166.555 484.037 166.415 484.517 166.418C485.156 166.418 485.769 166.672 486.22 167.123C486.672 167.575 486.926 168.188 486.926 168.826Z" fill="white"/>
<path d="M444.771 191.138H356.054C355.642 191.138 355.246 190.974 354.955 190.683C354.664 190.391 354.5 189.996 354.5 189.584C354.5 189.172 354.664 188.777 354.955 188.485C355.246 188.194 355.642 188.03 356.054 188.03H444.771C445.183 188.03 445.578 188.194 445.87 188.485C446.161 188.777 446.325 189.172 446.325 189.584C446.325 189.996 446.161 190.391 445.87 190.683C445.578 190.974 445.183 191.138 444.771 191.138Z" fill="#00BD62"/>
<path d="M419.7 199.637H355.997C355.585 199.637 355.19 199.473 354.898 199.182C354.607 198.89 354.443 198.495 354.443 198.083C354.443 197.671 354.607 197.276 354.898 196.984C355.19 196.693 355.585 196.529 355.997 196.529H419.7C420.112 196.529 420.507 196.693 420.798 196.984C421.09 197.276 421.253 197.671 421.253 198.083C421.253 198.495 421.09 198.89 420.798 199.182C420.507 199.473 420.112 199.637 419.7 199.637Z" fill="#00BD62"/>
<path d="M488.477 330.863H375.056C374.644 330.863 374.248 330.7 373.957 330.408C373.666 330.117 373.502 329.722 373.502 329.31C373.502 328.898 373.666 328.502 373.957 328.211C374.248 327.92 374.644 327.756 375.056 327.756H488.477C488.889 327.756 489.285 327.92 489.576 328.211C489.867 328.502 490.031 328.898 490.031 329.31C490.031 329.722 489.867 330.117 489.576 330.408C489.285 330.7 488.889 330.863 488.477 330.863Z" fill="#00BD62"/>
<path d="M469.514 364.813H356.093C355.681 364.813 355.286 364.65 354.994 364.358C354.703 364.067 354.539 363.672 354.539 363.26C354.539 362.848 354.703 362.453 354.994 362.161C355.286 361.87 355.681 361.706 356.093 361.706H469.514C469.926 361.706 470.322 361.87 470.613 362.161C470.904 362.453 471.068 362.848 471.068 363.26C471.068 363.672 470.904 364.067 470.613 364.358C470.322 364.65 469.926 364.813 469.514 364.813Z" fill="#00BD62"/>
<path d="M488.477 339.378H356.054C355.642 339.378 355.246 339.214 354.955 338.923C354.664 338.631 354.5 338.236 354.5 337.824C354.5 337.412 354.664 337.017 354.955 336.726C355.246 336.434 355.642 336.271 356.054 336.271H488.477C488.889 336.271 489.285 336.434 489.576 336.726C489.867 337.017 490.031 337.412 490.031 337.824C490.031 338.236 489.867 338.631 489.576 338.923C489.285 339.214 488.889 339.378 488.477 339.378Z" fill="#00BD62"/>
<path d="M488.477 347.847H356.054C355.642 347.847 355.246 347.683 354.955 347.392C354.664 347.1 354.5 346.705 354.5 346.293C354.5 345.881 354.664 345.486 354.955 345.194C355.246 344.903 355.642 344.739 356.054 344.739H488.477C488.889 344.739 489.285 344.903 489.576 345.194C489.867 345.486 490.031 345.881 490.031 346.293C490.031 346.705 489.867 347.1 489.576 347.392C489.285 347.683 488.889 347.847 488.477 347.847Z" fill="#00BD62"/>
<path d="M488.477 356.33H356.054C355.642 356.33 355.246 356.166 354.955 355.875C354.664 355.584 354.5 355.188 354.5 354.776C354.5 354.364 354.664 353.969 354.955 353.678C355.246 353.386 355.642 353.223 356.054 353.223H488.477C488.889 353.223 489.285 353.386 489.576 353.678C489.867 353.969 490.031 354.364 490.031 354.776C490.031 355.188 489.867 355.584 489.576 355.875C489.285 356.166 488.889 356.33 488.477 356.33Z" fill="#00BD62"/>
<path opacity="0.5" d="M509.69 362.265L477.279 394.675V362.265H509.69Z" fill="#00BD62"/>
<path opacity="0.4" d="M509.689 176.145H500.537V362.265H509.689V176.145Z" fill="black"/>
<path d="M505.055 273.391C504.161 273.391 503.303 273.036 502.671 272.403C502.039 271.771 501.684 270.914 501.684 270.019V251.002C501.704 250.121 502.068 249.283 502.698 248.668C503.328 248.052 504.174 247.708 505.055 247.708C505.498 247.708 505.936 247.795 506.345 247.965C506.754 248.134 507.126 248.382 507.439 248.696C507.752 249.009 508.001 249.38 508.17 249.789C508.34 250.198 508.427 250.637 508.427 251.08V270.097C508.406 270.978 508.042 271.816 507.412 272.431C506.782 273.047 505.936 273.391 505.055 273.391Z" fill="#00BD62"/>
<path d="M488.477 284.252H375.056C374.644 284.252 374.248 284.088 373.957 283.797C373.666 283.506 373.502 283.11 373.502 282.698C373.502 282.286 373.666 281.891 373.957 281.6C374.248 281.308 374.644 281.145 375.056 281.145H488.477C488.889 281.145 489.285 281.308 489.576 281.6C489.867 281.891 490.031 282.286 490.031 282.698C490.031 283.11 489.867 283.506 489.576 283.797C489.285 284.088 488.889 284.252 488.477 284.252Z" fill="#00BD62"/>
<path d="M469.514 318.201H356.093C355.681 318.201 355.286 318.038 354.994 317.746C354.703 317.455 354.539 317.06 354.539 316.647C354.539 316.235 354.703 315.84 354.994 315.549C355.286 315.257 355.681 315.094 356.093 315.094H469.514C469.926 315.094 470.322 315.257 470.613 315.549C470.904 315.84 471.068 316.235 471.068 316.647C471.068 317.06 470.904 317.455 470.613 317.746C470.322 318.038 469.926 318.201 469.514 318.201Z" fill="#00BD62"/>
<path d="M488.477 292.767H356.054C355.642 292.767 355.246 292.603 354.955 292.312C354.664 292.02 354.5 291.625 354.5 291.213C354.5 290.801 354.664 290.406 354.955 290.114C355.246 289.823 355.642 289.659 356.054 289.659H488.477C488.889 289.659 489.285 289.823 489.576 290.114C489.867 290.406 490.031 290.801 490.031 291.213C490.031 291.625 489.867 292.02 489.576 292.312C489.285 292.603 488.889 292.767 488.477 292.767Z" fill="#00BD62"/>
<path d="M488.477 301.234H356.054C355.642 301.234 355.246 301.071 354.955 300.779C354.664 300.488 354.5 300.093 354.5 299.681C354.5 299.269 354.664 298.873 354.955 298.582C355.246 298.291 355.642 298.127 356.054 298.127H488.477C488.889 298.127 489.285 298.291 489.576 298.582C489.867 298.873 490.031 299.269 490.031 299.681C490.031 300.093 489.867 300.488 489.576 300.779C489.285 301.071 488.889 301.234 488.477 301.234Z" fill="#00BD62"/>
<path d="M488.477 309.719H356.054C355.642 309.719 355.246 309.555 354.955 309.264C354.664 308.972 354.5 308.577 354.5 308.165C354.5 307.753 354.664 307.358 354.955 307.066C355.246 306.775 355.642 306.611 356.054 306.611H488.477C488.889 306.611 489.285 306.775 489.576 307.066C489.867 307.358 490.031 307.753 490.031 308.165C490.031 308.577 489.867 308.972 489.576 309.264C489.285 309.555 488.889 309.719 488.477 309.719Z" fill="#00BD62"/>
<path d="M488.466 209.751H355.654V259.315H488.466V209.751Z" fill="#00BD62"/>
<path opacity="0.2" d="M355.654 251.36H359.274V242.348H363.438V224.558H369.249V235.512H377.235V250.07H386.76V239.924H394.637L399.842 234.704V222.631H403.027V239.924H411.044V246.077H419.341V214.692L421.641 212.392V221H426.939V224.869L432.02 229.965V239.147H439.322V231.876H458.371V226.453H462.675V216.976H464.213V231.876H466.637L472.121 226.391H477.28V221.435H479.89V226.453H483.261V246.994H486.928V236.739L488.482 236.832V209.751H355.654V251.36Z" fill="black"/>
<path d="M488.477 267.162H452.741C452.329 267.162 451.934 266.998 451.643 266.707C451.351 266.416 451.188 266.02 451.188 265.608C451.188 265.196 451.351 264.801 451.643 264.51C451.934 264.218 452.329 264.055 452.741 264.055H488.477C488.889 264.055 489.284 264.218 489.575 264.51C489.867 264.801 490.03 265.196 490.03 265.608C490.03 266.02 489.867 266.416 489.575 266.707C489.284 266.998 488.889 267.162 488.477 267.162Z" fill="#00BD62"/>
<path opacity="0.2" d="M412.876 166.561V317.3L386.871 340.219H344.551V171.308C344.551 170.067 345.11 168.876 346.107 167.997C347.104 167.118 348.456 166.623 349.868 166.619L412.876 166.561Z" fill="black"/>
<path opacity="0.4" d="M505.055 273.391C504.161 273.391 503.303 273.036 502.671 272.403C502.039 271.771 501.684 270.914 501.684 270.019V251.002C501.704 250.121 502.068 249.283 502.698 248.668C503.328 248.052 504.174 247.708 505.055 247.708C505.498 247.708 505.936 247.795 506.345 247.965C506.754 248.134 507.126 248.382 507.439 248.696C507.752 249.009 508.001 249.38 508.17 249.789C508.34 250.198 508.427 250.637 508.427 251.08V270.097C508.406 270.978 508.042 271.816 507.412 272.431C506.782 273.047 505.936 273.391 505.055 273.391Z" fill="white"/>
<path d="M313.547 191.898V386.517L281.136 418.928H153.017C151.693 418.924 150.424 418.395 149.489 417.457C148.554 416.519 148.029 415.249 148.029 413.925V191.898C148.029 190.574 148.554 189.304 149.489 188.366C150.424 187.429 151.693 186.9 153.017 186.896H308.544C309.871 186.896 311.143 187.423 312.082 188.361C313.02 189.299 313.547 190.572 313.547 191.898Z" fill="#00BD62"/>
<path opacity="0.6" d="M313.547 200.413V386.533L281.136 418.944H153.017C151.693 418.94 150.424 418.411 149.489 417.473C148.554 416.535 148.029 415.265 148.029 413.941V200.413H313.547Z" fill="white"/>
<path opacity="0.6" d="M309.291 193.095C309.294 193.575 309.154 194.045 308.89 194.446C308.626 194.846 308.248 195.159 307.805 195.345C307.363 195.531 306.875 195.581 306.404 195.489C305.933 195.398 305.499 195.168 305.159 194.83C304.818 194.491 304.586 194.06 304.491 193.589C304.396 193.118 304.443 192.63 304.626 192.186C304.809 191.743 305.12 191.363 305.519 191.096C305.918 190.829 306.387 190.687 306.867 190.687C307.185 190.685 307.499 190.745 307.793 190.865C308.087 190.986 308.355 191.163 308.58 191.386C308.805 191.61 308.984 191.876 309.106 192.17C309.228 192.463 309.291 192.777 309.291 193.095Z" fill="white"/>
<path opacity="0.6" d="M299.965 193.095C299.968 193.576 299.828 194.046 299.563 194.447C299.298 194.848 298.919 195.161 298.476 195.347C298.032 195.532 297.544 195.581 297.072 195.488C296.6 195.395 296.167 195.164 295.827 194.824C295.487 194.484 295.256 194.051 295.163 193.579C295.07 193.108 295.119 192.619 295.305 192.176C295.49 191.732 295.803 191.354 296.204 191.089C296.605 190.823 297.076 190.684 297.556 190.687C297.873 190.685 298.187 190.745 298.481 190.866C298.774 190.986 299.04 191.163 299.264 191.387C299.488 191.611 299.665 191.878 299.786 192.171C299.906 192.464 299.967 192.778 299.965 193.095Z" fill="white"/>
<path opacity="0.6" d="M290.785 193.095C290.788 193.575 290.649 194.045 290.384 194.446C290.12 194.846 289.742 195.159 289.3 195.345C288.857 195.531 288.369 195.581 287.898 195.489C287.427 195.398 286.993 195.168 286.653 194.83C286.312 194.491 286.08 194.06 285.985 193.589C285.89 193.118 285.938 192.63 286.121 192.186C286.303 191.743 286.614 191.363 287.013 191.096C287.412 190.829 287.881 190.687 288.361 190.687C288.679 190.685 288.994 190.745 289.288 190.865C289.582 190.986 289.849 191.163 290.074 191.386C290.299 191.61 290.478 191.876 290.6 192.17C290.722 192.463 290.785 192.777 290.785 193.095Z" fill="white"/>
<path d="M187.476 216.245H159.913C159.501 216.245 159.106 216.081 158.814 215.79C158.523 215.499 158.359 215.103 158.359 214.691C158.359 214.279 158.523 213.884 158.814 213.593C159.106 213.301 159.501 213.138 159.913 213.138H187.476C187.888 213.138 188.283 213.301 188.575 213.593C188.866 213.884 189.03 214.279 189.03 214.691C189.03 215.103 188.866 215.499 188.575 215.79C188.283 216.081 187.888 216.245 187.476 216.245Z" fill="#00BD62"/>
<path d="M200.528 224.729H159.976C159.564 224.729 159.168 224.565 158.877 224.273C158.586 223.982 158.422 223.587 158.422 223.175C158.422 222.763 158.586 222.368 158.877 222.076C159.168 221.785 159.564 221.621 159.976 221.621H200.528C200.94 221.621 201.335 221.785 201.626 222.076C201.918 222.368 202.081 222.763 202.081 223.175C202.081 223.587 201.918 223.982 201.626 224.273C201.335 224.565 200.94 224.729 200.528 224.729Z" fill="#00BD62"/>
<path d="M187.929 233.212H159.962C159.55 233.212 159.155 233.048 158.863 232.757C158.572 232.465 158.408 232.07 158.408 231.658C158.408 231.246 158.572 230.851 158.863 230.56C159.155 230.268 159.55 230.104 159.962 230.104H187.929C188.341 230.104 188.736 230.268 189.028 230.56C189.319 230.851 189.483 231.246 189.483 231.658C189.483 232.07 189.319 232.465 189.028 232.757C188.736 233.048 188.341 233.212 187.929 233.212Z" fill="#00BD62"/>
<path d="M292.325 372.223H178.903C178.491 372.223 178.096 372.059 177.805 371.768C177.513 371.476 177.35 371.081 177.35 370.669C177.35 370.257 177.513 369.862 177.805 369.57C178.096 369.279 178.491 369.115 178.903 369.115H292.325C292.737 369.115 293.132 369.279 293.424 369.57C293.715 369.862 293.879 370.257 293.879 370.669C293.879 371.081 293.715 371.476 293.424 371.768C293.132 372.059 292.737 372.223 292.325 372.223Z" fill="#00BD62"/>
<path d="M230.172 380.706H159.913C159.501 380.706 159.106 380.542 158.814 380.251C158.523 379.96 158.359 379.564 158.359 379.152C158.359 378.74 158.523 378.345 158.814 378.054C159.106 377.762 159.501 377.599 159.913 377.599H230.172C230.584 377.599 230.98 377.762 231.271 378.054C231.562 378.345 231.726 378.74 231.726 379.152C231.726 379.564 231.562 379.96 231.271 380.251C230.98 380.542 230.584 380.706 230.172 380.706Z" fill="#00BD62"/>
<path opacity="0.5" d="M313.549 386.533L281.139 418.944V386.533H313.549Z" fill="#00BD62"/>
<path opacity="0.4" d="M313.548 200.413H304.396V386.533H313.548V200.413Z" fill="black"/>
<path d="M308.961 373.792C308.067 373.792 307.21 373.437 306.577 372.804C305.945 372.172 305.59 371.315 305.59 370.42V351.403C305.59 350.509 305.945 349.651 306.577 349.019C307.21 348.386 308.067 348.031 308.961 348.031C309.404 348.031 309.843 348.118 310.252 348.288C310.661 348.457 311.032 348.706 311.346 349.019C311.659 349.332 311.907 349.704 312.076 350.113C312.246 350.522 312.333 350.96 312.333 351.403V370.451C312.325 371.34 311.966 372.19 311.335 372.815C310.703 373.441 309.85 373.792 308.961 373.792Z" fill="#00BD62"/>
<path d="M292.328 216.245H270.995C270.583 216.245 270.188 216.081 269.896 215.79C269.605 215.499 269.441 215.103 269.441 214.691C269.441 214.279 269.605 213.884 269.896 213.593C270.188 213.301 270.583 213.138 270.995 213.138H292.328C292.74 213.138 293.135 213.301 293.426 213.593C293.718 213.884 293.881 214.279 293.881 214.691C293.881 215.103 293.718 215.499 293.426 215.79C293.135 216.081 292.74 216.245 292.328 216.245Z" fill="#00BD62"/>
<path d="M292.324 224.729H281.323C280.911 224.729 280.516 224.565 280.225 224.273C279.933 223.982 279.77 223.587 279.77 223.175C279.77 222.763 279.933 222.368 280.225 222.076C280.516 221.785 280.911 221.621 281.323 221.621H292.355C292.767 221.621 293.162 221.785 293.453 222.076C293.745 222.368 293.908 222.763 293.908 223.175C293.908 223.587 293.745 223.982 293.453 224.273C293.162 224.565 292.767 224.729 292.355 224.729H292.324Z" fill="#00BD62"/>
<path d="M292.325 255.694H178.903C178.491 255.694 178.096 255.531 177.805 255.239C177.513 254.948 177.35 254.553 177.35 254.141C177.35 253.729 177.513 253.333 177.805 253.042C178.096 252.751 178.491 252.587 178.903 252.587H292.325C292.737 252.587 293.132 252.751 293.424 253.042C293.715 253.333 293.879 253.729 293.879 254.141C293.879 254.553 293.715 254.948 293.424 255.239C293.132 255.531 292.737 255.694 292.325 255.694Z" fill="#00BD62"/>
<path d="M292.321 264.178H159.913C159.501 264.178 159.106 264.014 158.814 263.723C158.523 263.431 158.359 263.036 158.359 262.624C158.359 262.212 158.523 261.817 158.814 261.525C159.106 261.234 159.501 261.07 159.913 261.07H292.321C292.733 261.07 293.128 261.234 293.42 261.525C293.711 261.817 293.875 262.212 293.875 262.624C293.875 263.036 293.711 263.431 293.42 263.723C293.128 264.014 292.733 264.178 292.321 264.178Z" fill="#00BD62"/>
<path d="M214.635 272.661H159.913C159.501 272.661 159.106 272.497 158.814 272.206C158.523 271.915 158.359 271.52 158.359 271.107C158.359 270.695 158.523 270.3 158.814 270.009C159.106 269.717 159.501 269.554 159.913 269.554H214.635C215.047 269.554 215.442 269.717 215.734 270.009C216.025 270.3 216.189 270.695 216.189 271.107C216.189 271.52 216.025 271.915 215.734 272.206C215.442 272.497 215.047 272.661 214.635 272.661Z" fill="#00BD62"/>
<path opacity="0.7" d="M234.057 283.926H181.883V297.909H234.057V283.926Z" fill="#00BD62"/>
<path opacity="0.3" d="M205.515 301.016H181.883V352.646H205.515V301.016Z" fill="#00BD62"/>
<path opacity="0.3" d="M264.294 301.016H237.15V352.646H264.294V301.016Z" fill="#00BD62"/>
<path opacity="0.7" d="M292.323 283.926H237.15V297.909H292.323V283.926Z" fill="#00BD62"/>
<path opacity="0.3" d="M292.34 301.016H267.418V352.646H292.34V301.016Z" fill="#00BD62"/>
<path opacity="0.5" d="M178.774 301.016H159.912V352.646H178.774V301.016Z" fill="#00BD62"/>
<path d="M178.774 283.926H159.912V297.909H178.774V283.926Z" fill="#00BD62"/>
<path opacity="0.3" d="M234.042 301.016H208.623V352.646H234.042V301.016Z" fill="#00BD62"/>
<path opacity="0.4" d="M308.961 373.792C308.067 373.792 307.21 373.437 306.577 372.804C305.945 372.172 305.59 371.315 305.59 370.42V351.403C305.59 350.509 305.945 349.651 306.577 349.019C307.21 348.386 308.067 348.031 308.961 348.031C309.404 348.031 309.843 348.118 310.252 348.288C310.661 348.457 311.032 348.706 311.346 349.019C311.659 349.332 311.907 349.704 312.076 350.113C312.246 350.522 312.333 350.96 312.333 351.403V370.451C312.325 371.34 311.966 372.19 311.335 372.815C310.703 373.441 309.85 373.792 308.961 373.792Z" fill="white"/>
<path opacity="0.2" d="M313.235 203.523V340.219H229.441C228.257 340.215 227.123 339.769 226.287 338.977C225.452 338.185 224.982 337.113 224.982 335.994V199.299H308.763C309.949 199.299 311.087 199.744 311.925 200.536C312.764 201.328 313.235 202.403 313.235 203.523Z" fill="black"/>
<path d="M431.216 142.365L236.597 142.365L204.186 174.776L204.186 302.895C204.19 304.22 204.719 305.488 205.657 306.423C206.595 307.358 207.865 307.883 209.189 307.883L431.216 307.883C432.54 307.883 433.81 307.358 434.748 306.423C435.686 305.488 436.215 304.22 436.219 302.895V147.368C436.219 146.041 435.692 144.769 434.753 143.83C433.815 142.892 432.543 142.365 431.216 142.365Z" fill="#00BD62"/>
<path opacity="0.6" d="M425.998 142.882L236.876 142.882L203.943 175.214L203.943 303.025C203.947 304.346 204.484 305.611 205.437 306.544C206.39 307.476 207.681 308 209.026 308L425.998 308V142.882Z" fill="white"/>
<path d="M236.594 142.362L204.183 174.772H236.594V142.362Z" fill="#F4F83D"/>
<path fill-rule="evenodd" clip-rule="evenodd" d="M225.378 153.575L215.794 163.159C216.975 165.455 219.367 167.025 222.127 167.025C226.058 167.025 229.244 163.839 229.244 159.908C229.244 157.149 227.674 154.756 225.378 153.575Z" fill="#2F80ED"/>
<path opacity="0.4" d="M425.678 142.829V151.369L236.361 151.369V142.829L425.678 142.829Z" fill="black"/>
<path d="M387.614 146.95C387.614 147.844 387.969 148.701 388.601 149.334C389.234 149.966 390.091 150.321 390.985 150.321H409.925C410.82 150.321 411.677 149.966 412.309 149.334C412.942 148.701 413.297 147.844 413.297 146.95C413.297 146.055 412.942 145.198 412.309 144.566C411.677 143.933 410.82 143.578 409.925 143.578H390.908C390.027 143.598 389.189 143.963 388.574 144.593C387.958 145.223 387.614 146.069 387.614 146.95Z" fill="#00BD62"/>
<path opacity="0.4" d="M387.614 146.95C387.614 147.844 387.969 148.701 388.601 149.334C389.234 149.966 390.091 150.321 390.985 150.321H409.925C410.82 150.321 411.677 149.966 412.309 149.334C412.942 148.701 413.297 147.844 413.297 146.95C413.297 146.055 412.942 145.198 412.309 144.566C411.677 143.933 410.82 143.578 409.925 143.578H390.908C390.027 143.598 389.189 143.963 388.574 144.593C387.958 145.223 387.614 146.069 387.614 146.95Z" fill="white"/>
<path d="M255.545 237.416C260.958 237.416 264.366 235.031 265.009 230.753H259.823C259.482 232.419 258.233 233.517 255.696 233.517C252.705 233.517 250.926 231.624 250.775 228.331H265.047V226.816C265.047 219.737 260.504 216.746 255.393 216.746C249.639 216.746 245.21 220.797 245.21 227.043V227.346C245.21 233.668 249.563 237.416 255.545 237.416ZM250.85 224.961C251.267 222.16 252.933 220.532 255.393 220.532C258.005 220.532 259.52 221.97 259.709 224.961H250.85ZM278.597 237.416C284.995 237.416 288.932 233.593 288.932 228.785C288.932 223.182 285.563 221.403 279.013 220.57C274.849 219.964 273.978 219.055 273.978 217.125C273.978 215.307 275.341 214.058 278.029 214.058C280.717 214.058 282.156 215.194 282.534 217.655H288.175C287.683 212.279 284.124 209.553 278.029 209.553C272.048 209.553 268.186 212.998 268.186 217.617C268.186 222.841 271.025 224.923 277.953 225.832C281.928 226.438 283.064 227.195 283.064 229.353C283.064 231.473 281.285 232.949 278.597 232.949C274.584 232.949 273.562 230.943 273.297 228.52H267.429C267.77 233.934 271.177 237.416 278.597 237.416ZM302.093 233.252C298.989 233.252 297.248 230.981 297.248 227.195V226.892C297.248 223.106 299.065 220.91 302.093 220.91C305.16 220.91 306.939 223.182 306.939 226.968V227.233C306.939 230.981 305.16 233.252 302.093 233.252ZM302.056 237.416C307.999 237.416 312.504 233.441 312.504 227.195V226.892C312.504 220.721 308.037 216.746 302.093 216.746C296.15 216.746 291.645 220.797 291.645 227.005V227.308C291.645 233.479 296.15 237.416 302.056 237.416ZM325.157 237.416C330.911 237.416 334.319 234.161 334.621 229.466H329.662C329.397 232.003 327.618 233.29 325.422 233.29C322.355 233.29 320.576 231.246 320.576 227.271V226.968C320.576 223.182 322.469 221.062 325.308 221.062C327.542 221.062 328.943 222.122 329.321 224.431H334.508C334.016 218.752 329.776 216.746 325.195 216.746C319.554 216.746 314.973 220.645 314.973 227.043V227.346C314.973 233.82 319.365 237.416 325.157 237.416ZM338.223 237H343.674V217.2H338.223V237ZM340.911 214.512C342.69 214.512 344.053 213.225 344.053 211.522C344.053 209.818 342.69 208.531 340.911 208.531C339.169 208.531 337.806 209.818 337.806 211.522C337.806 213.225 339.169 214.512 340.911 214.512ZM354.057 237.416C357.161 237.416 358.903 236.205 360.038 234.615V237H365.376V224.09C365.376 218.715 361.931 216.746 357.085 216.746C352.24 216.746 348.53 218.828 348.189 223.523H353.375C353.602 221.819 354.587 220.721 356.745 220.721C359.243 220.721 359.963 222.008 359.963 224.355V225.15H357.729C351.672 225.15 347.432 226.892 347.432 231.511C347.432 235.675 350.46 237.416 354.057 237.416ZM355.685 233.593C353.678 233.593 352.807 232.646 352.807 231.208C352.807 229.088 354.662 228.406 357.843 228.406H359.963V230.072C359.963 232.268 358.108 233.593 355.685 233.593ZM370.239 237H375.691V208.228H370.239V237Z" fill="#00BD62"/>
<g opacity="0.3">
<path d="M74.8102 475.688C74.8102 475.688 74.8102 475.688 74.8102 475.687C74.8014 475.694 74.793 475.701 74.7849 475.709C74.793 475.701 74.8015 475.694 74.8102 475.688ZM87.4198 371.357C54.9549 396.822 49.2597 443.77 74.6863 476.255C74.6986 476.278 74.7132 476.3 74.73 476.322C136.389 554.931 235.716 593.744 334.021 578.146C337.685 577.565 341.183 579.965 341.857 583.597L345.506 603.278C346.181 606.916 343.774 610.411 340.134 611C229.588 628.869 117.788 585.339 48.4485 496.935C11.5802 449.925 19.8001 381.937 66.8023 345.068C113.812 308.199 181.8 316.419 218.669 363.422C228.918 376.496 242.491 386.508 257.906 392.453C261.389 393.796 263.408 397.523 262.353 401.058C261.218 404.861 260.082 408.663 258.947 412.465C258.173 415.056 257.4 417.646 256.626 420.237C255.566 423.788 251.833 425.801 248.38 424.553C226.329 416.58 206.907 402.565 192.381 384.041L192.029 384.317L192.381 384.041C166.899 351.555 119.906 345.875 87.4198 371.357Z" stroke="#00BD62" stroke-width="0.89266"/>
<path d="M147.355 419.934C147.355 419.934 147.355 419.934 147.355 419.934C147.302 419.974 147.238 420.005 147.165 420.019C147.239 420.004 147.303 419.974 147.355 419.934ZM123.28 417.022C130.525 411.341 140.997 412.594 146.7 419.818C146.708 419.832 146.717 419.845 146.727 419.858L146.727 419.858C205.106 494.277 310.141 511.821 389.307 461.494C392.443 459.5 396.62 460.257 398.72 463.295C400.801 466.307 402.883 469.318 404.965 472.33C406.677 474.806 408.388 477.282 410.1 479.758C412.205 482.803 411.442 486.974 408.346 488.967C384.477 504.329 357.803 514.867 329.834 519.961C250.694 534.363 170.091 503.766 120.446 440.472C114.755 433.214 116.022 422.718 123.28 417.022Z" stroke="#00BD62" stroke-width="0.89266"/>
<path d="M115.664 407.334L115.664 407.334C128.28 397.441 146.524 399.648 156.417 412.26L156.066 412.535L156.417 412.26C203.513 472.304 284.434 493.673 354.719 465.436C358.132 464.065 359.637 460.099 358.116 456.724C355.375 450.641 352.634 444.557 349.891 438.473C348.374 435.108 344.407 433.61 340.94 434.962C284.699 456.888 220.299 439.58 182.7 391.644L183.051 391.368L182.7 391.644C161.42 364.511 122.176 359.77 95.0432 381.05C67.9103 402.331 63.169 441.574 84.4495 468.707C157.728 562.133 284.346 594.519 393.167 548.514C396.562 547.079 398.059 543.105 396.527 539.737C393.764 533.662 391.001 527.588 388.236 521.513C386.707 518.152 382.739 516.667 379.315 518.097C375.586 519.655 371.817 521.113 367.999 522.474C367.999 522.474 367.999 522.474 367.999 522.475L115.664 407.334ZM115.664 407.334C103.052 417.228 100.845 435.471 110.738 448.088L111.09 447.812L115.664 407.334Z" stroke="#00BD62" stroke-width="0.89266"/>
<path d="M271.619 170.427L271.619 170.427C271.589 170.431 271.559 170.439 271.531 170.449C211.253 179.066 164.104 226.168 154.968 285.814C154.405 289.492 151.124 292.179 147.452 291.809C144.109 291.473 140.771 291.137 137.432 290.801C134.135 290.47 130.838 290.138 127.537 289.806C123.853 289.435 121.17 286.149 121.689 282.507C132.38 207.524 191.344 148.126 266.89 137.364L266.827 136.922L266.89 137.364C282.76 135.101 293.79 120.4 291.531 104.53C289.272 88.6593 274.571 77.6291 258.701 79.8882L258.764 80.3301L258.701 79.8882C161.139 93.787 83.3915 168.526 65.6603 265.477C64.9312 269.464 64.3094 273.459 63.7937 277.472C63.3204 281.154 60.048 283.848 56.3708 283.492C53.4946 283.213 50.6186 282.934 47.7429 282.655C43.9773 282.29 40.212 281.925 36.4467 281.56C32.7646 281.203 30.0713 277.92 30.5257 274.262C45.0926 157.011 136.453 63.5569 254.006 46.8084C288.139 41.9474 319.753 65.6761 324.619 99.8142C329.48 133.946 305.754 165.562 271.619 170.427ZM271.598 170.439C271.599 170.439 271.6 170.439 271.601 170.439L271.601 170.439C271.6 170.439 271.599 170.439 271.598 170.439Z" stroke="#00BD62" stroke-width="0.89266"/>
<path d="M265.125 125.139L265.125 125.139C265.092 125.144 265.061 125.152 265.032 125.163C171.439 138.544 103.771 220.719 107.783 314.41C107.942 318.123 105.198 321.362 101.518 321.661L81.5675 323.286C77.8781 323.586 74.6473 320.84 74.4693 317.163C73.0974 288.812 77.3043 260.44 86.8809 233.673L86.4606 233.522L86.8809 233.672C113.972 157.924 180.777 103.417 260.41 92.0711L260.41 92.0711C269.539 90.7677 278 97.1166 279.299 106.25C280.598 115.378 274.256 123.833 265.125 125.139Z" stroke="#00BD62" stroke-width="0.89266"/>
<path d="M252.229 34.6102C252.199 34.6145 252.169 34.6217 252.141 34.6316L252.291 35.0521L252.229 34.6101C252.229 34.6102 252.229 34.6102 252.229 34.6102Z" stroke="#00BD62" stroke-width="0.89266"/>
<mask id="path-78-inside-1_2265_3942" fill="white">
<path d="M525.701 106.226C525.701 106.226 525.701 106.227 525.701 106.227C518.819 112.105 511.934 117.986 505.05 123.865C502.051 126.426 501.707 130.932 504.19 133.996C566.75 211.208 582.77 316.458 545.58 409.018C530.276 447.102 487.001 465.568 448.916 450.264C410.832 434.96 392.366 391.685 407.67 353.6C416.48 331.677 418.915 307.765 414.78 284.604C414.087 280.721 410.216 278.353 406.379 279.265C399.889 280.809 393.4 282.354 386.91 283.897C383.073 284.81 380.731 288.659 381.342 292.556C383.888 308.801 382.013 325.477 375.848 340.814C353.484 396.474 380.474 459.725 436.13 482.086C491.79 504.45 555.041 477.46 577.402 421.8C620.242 315.186 600.322 193.6 525.7 106.227C525.699 106.227 525.7 106.226 525.701 106.226Z"/>
</mask>
<path d="M545.58 409.018L546.409 409.35L546.409 409.35L545.58 409.018ZM448.916 450.264L448.583 451.092H448.583L448.916 450.264ZM407.67 353.6L406.842 353.267V353.267L407.67 353.6ZM375.848 340.814L375.02 340.481L375.02 340.481L375.848 340.814ZM436.13 482.086L436.462 481.258H436.462L436.13 482.086ZM577.402 421.8L576.573 421.467L576.573 421.467L577.402 421.8ZM386.91 283.897L386.703 283.029L386.91 283.897ZM505.05 123.865L505.63 124.543L505.05 123.865ZM525.7 106.227L525.021 106.807L525.7 106.227ZM414.78 284.604L413.901 284.761L414.78 284.604ZM406.379 279.265L406.172 278.397L406.379 279.265ZM525.701 106.227L526.281 106.906L525.701 106.227ZM525.121 105.549C518.239 111.426 511.354 117.307 504.471 123.186L505.63 124.543C512.514 118.664 519.399 112.784 526.281 106.906L525.121 105.549ZM503.497 134.558C565.853 211.519 581.82 316.426 544.752 408.685L546.409 409.35C583.719 316.49 567.648 210.897 504.884 133.434L503.497 134.558ZM544.752 408.685C529.632 446.311 486.877 464.556 449.249 449.436L448.583 451.092C487.126 466.58 530.921 447.892 546.409 409.35L544.752 408.685ZM449.249 449.436C411.622 434.315 393.378 391.56 408.498 353.933L406.842 353.267C391.353 391.81 410.042 435.604 448.583 451.092L449.249 449.436ZM408.498 353.933C417.371 331.854 419.823 307.773 415.659 284.447L413.901 284.761C418.007 307.758 415.589 331.499 406.842 353.267L408.498 353.933ZM406.172 278.397C399.684 279.94 393.192 281.486 386.703 283.029L387.117 284.766C393.607 283.222 400.095 281.678 406.586 280.134L406.172 278.397ZM380.46 292.694C382.981 308.78 381.125 325.293 375.02 340.481L376.677 341.147C382.902 325.66 384.795 308.821 382.224 292.418L380.46 292.694ZM375.02 340.481C352.472 396.598 379.684 460.37 435.797 482.914L436.462 481.258C381.265 459.081 354.496 396.349 376.677 341.147L375.02 340.481ZM435.797 482.914C491.914 505.462 555.686 478.25 578.23 422.133L576.573 421.467C554.397 476.67 491.665 503.438 436.462 481.258L435.797 482.914ZM578.23 422.133C621.195 315.21 601.216 193.273 526.379 105.648L525.021 106.807C599.427 193.927 619.29 315.161 576.573 421.467L578.23 422.133ZM386.703 283.029C382.371 284.06 379.784 288.381 380.46 292.694L382.224 292.418C381.678 288.937 383.774 285.561 387.117 284.766L386.703 283.029ZM504.471 123.186C501.092 126.072 500.719 131.13 503.497 134.558L504.884 133.434C502.696 130.734 503.011 126.78 505.63 124.543L504.471 123.186ZM526.379 105.648C526.705 106.03 526.619 106.522 526.382 106.802C526.141 107.087 525.654 107.259 525.216 106.976L526.185 105.476C525.747 105.193 525.259 105.365 525.018 105.651C524.781 105.932 524.694 106.424 525.021 106.807L526.379 105.648ZM415.659 284.447C414.87 280.027 410.475 277.373 406.172 278.397L406.586 280.134C409.957 279.332 413.304 281.416 413.901 284.761L415.659 284.447ZM526.281 106.906C526.735 106.518 526.687 105.801 526.185 105.476L525.216 106.976C524.715 106.652 524.667 105.936 525.121 105.549L526.281 106.906Z" fill="#00BD62" mask="url(#path-78-inside-1_2265_3942)"/>
<path d="M461.142 375.059L461.144 375.055L461.142 375.059ZM461.143 375.062C496.403 287.298 459.075 187.559 375.909 144.172C372.614 142.453 371.181 138.457 372.762 135.12C374.335 131.801 375.907 128.483 377.478 125.165C378.763 122.453 380.047 119.742 381.332 117.031C382.916 113.686 386.909 112.261 390.183 113.946C415.423 126.933 437.891 144.764 456.284 166.443L456.625 166.154L456.284 166.443C508.326 227.773 522.134 312.879 492.141 387.518C488.698 396.075 478.974 400.226 470.412 396.788C461.87 393.351 457.719 383.654 461.124 375.104C461.131 375.091 461.137 375.077 461.143 375.062ZM461.174 374.91C461.181 374.692 461.043 374.543 460.895 374.482C460.895 374.482 460.895 374.482 460.895 374.481C461.055 374.543 461.182 374.692 461.174 374.91Z" stroke="#00BD62" stroke-width="0.89266"/>
<path d="M503.576 392.128L503.577 392.128C503.582 392.114 503.587 392.101 503.591 392.087C540.321 300.639 514.462 195.955 439.377 132.129L439.377 132.129C436.287 129.504 433.138 126.967 429.922 124.515C426.969 122.264 426.271 118.083 428.419 115.076L440.051 98.7906C442.202 95.7797 446.392 95.0886 449.333 97.3112C543.59 168.556 578.848 294.398 534.576 404.572C521.718 436.566 485.357 452.082 453.363 439.223C421.37 426.365 405.854 390.005 418.712 358.011L418.298 357.844L418.712 358.011C441.424 301.488 424.215 237.067 377.108 199.321C374.203 196.994 373.517 192.807 375.674 189.811C379.573 184.396 383.47 178.981 387.367 173.566C389.53 170.56 393.717 169.88 396.611 172.151C456.205 218.899 478.16 299.67 449.71 370.475C443.733 385.352 450.945 402.259 465.822 408.236C480.697 414.213 497.598 407.002 503.576 392.128Z" stroke="#00BD62" stroke-width="0.89266"/>
</g>
</svg>
