<svg width="29" height="30" viewBox="0 0 29 30" fill="none" xmlns="http://www.w3.org/2000/svg">
<rect width="28.0952" height="30" rx="4" fill="#EDFFF7"/>
<path d="M20.0002 13.94H18.3335C18.2453 13.9403 18.158 13.9582 18.0768 13.9925C17.9955 14.0269 17.9219 14.077 17.8602 14.14L17.0335 15L15.1668 12.8733C15.1045 12.8067 15.0291 12.7536 14.9454 12.7173C14.8617 12.681 14.7714 12.6623 14.6802 12.6623C14.5889 12.6623 14.4987 12.681 14.4149 12.7173C14.3312 12.7536 14.2559 12.8067 14.1935 12.8733L13.0602 14.0066H12.0002C11.8234 14.0066 11.6538 14.0769 11.5288 14.2019C11.4037 14.3269 11.3335 14.4965 11.3335 14.6733C11.3335 14.8501 11.4037 15.0197 11.5288 15.1447C11.6538 15.2697 11.8234 15.34 12.0002 15.34H13.3335C13.4212 15.3405 13.5082 15.3237 13.5894 15.2905C13.6707 15.2573 13.7445 15.2084 13.8068 15.1466L14.6668 14.2533L16.5335 16.38C16.5937 16.4486 16.6674 16.5041 16.75 16.5431C16.8325 16.5821 16.9222 16.6037 17.0135 16.6066C17.1012 16.6071 17.1882 16.5903 17.2694 16.5572C17.3507 16.524 17.4245 16.4751 17.4868 16.4133L18.6202 15.2733H20.0002C20.177 15.2733 20.3466 15.2031 20.4716 15.078C20.5966 14.953 20.6668 14.7834 20.6668 14.6066C20.6668 14.4298 20.5966 14.2603 20.4716 14.1352C20.3466 14.0102 20.177 13.94 20.0002 13.94ZM15.0735 17.4733L13.8068 18.74C13.7449 18.8025 13.6711 18.8521 13.5899 18.8859C13.5086 18.9197 13.4215 18.9372 13.3335 18.9372C13.2455 18.9372 13.1584 18.9197 13.0771 18.8859C12.9959 18.8521 12.9221 18.8025 12.8602 18.74L9.38684 15.2666C9.15825 15.0382 8.97692 14.7669 8.8532 14.4684C8.72948 14.1698 8.6658 13.8498 8.6658 13.5266C8.6658 13.2035 8.72948 12.8835 8.8532 12.5849C8.97692 12.2863 9.15825 12.0151 9.38684 11.7866C9.84795 11.327 10.4725 11.0689 11.1235 11.0689C11.7746 11.0689 12.3991 11.327 12.8602 11.7866C12.9221 11.8491 12.9959 11.8987 13.0771 11.9326C13.1584 11.9664 13.2455 11.9838 13.3335 11.9838C13.4215 11.9838 13.5086 11.9664 13.5899 11.9326C13.6711 11.8987 13.7449 11.8491 13.8068 11.7866C14.2753 11.3411 14.897 11.0927 15.5435 11.0927C16.19 11.0927 16.8117 11.3411 17.2802 11.7866C17.4287 11.9371 17.5585 12.105 17.6668 12.2866C17.7639 12.4201 17.907 12.5128 18.0685 12.5469C18.23 12.5809 18.3984 12.5538 18.5411 12.4709C18.6838 12.3879 18.7906 12.255 18.8409 12.0978C18.8912 11.9406 18.8815 11.7704 18.8135 11.62C18.6487 11.3463 18.4518 11.0934 18.2268 10.8666C17.5942 10.2265 16.7542 9.83271 15.8575 9.75574C14.9608 9.67878 14.066 9.92371 13.3335 10.4466C12.7674 10.0388 12.0997 9.79535 11.4039 9.74307C10.7082 9.69079 10.0116 9.83173 9.39088 10.1503C8.77019 10.469 8.2496 10.9529 7.88655 11.5487C7.5235 12.1444 7.33211 12.829 7.3335 13.5266C7.3333 14.0227 7.43161 14.5139 7.62273 14.9716C7.81385 15.4294 8.09397 15.8446 8.44684 16.1933L11.9202 19.6666C12.2952 20.0412 12.8035 20.2515 13.3335 20.2515C13.8635 20.2515 14.3718 20.0412 14.7468 19.6666L16.0002 18.4133C16.1243 18.2884 16.194 18.1194 16.194 17.9433C16.194 17.7672 16.1243 17.5982 16.0002 17.4733C15.8759 17.3531 15.7097 17.286 15.5368 17.286C15.3639 17.286 15.1978 17.3531 15.0735 17.4733Z" fill="#00BD62"/>
</svg>
