<svg width="38" height="40" viewBox="0 0 38 40" fill="none" xmlns="http://www.w3.org/2000/svg">
<rect width="37.4603" height="40" rx="8" fill="#E5FFF3"/>
<path d="M17.5 17.5H16.5V16.5C16.5 16.2348 16.3946 15.9804 16.2071 15.7929C16.0196 15.6054 15.7652 15.5 15.5 15.5C15.2348 15.5 14.9804 15.6054 14.7929 15.7929C14.6054 15.9804 14.5 16.2348 14.5 16.5V17.5H13.5C13.2348 17.5 12.9804 17.6054 12.7929 17.7929C12.6054 17.9804 12.5 18.2348 12.5 18.5C12.5 18.7652 12.6054 19.0196 12.7929 19.2071C12.9804 19.3946 13.2348 19.5 13.5 19.5H14.5V20.5C14.5 20.7652 14.6054 21.0196 14.7929 21.2071C14.9804 21.3946 15.2348 21.5 15.5 21.5C15.7652 21.5 16.0196 21.3946 16.2071 21.2071C16.3946 21.0196 16.5 20.7652 16.5 20.5V19.5H17.5C17.7652 19.5 18.0196 19.3946 18.2071 19.2071C18.3946 19.0196 18.5 18.7652 18.5 18.5C18.5 18.2348 18.3946 17.9804 18.2071 17.7929C18.0196 17.6054 17.7652 17.5 17.5 17.5ZM29.93 19.65L29.87 19.54C29.8528 19.4905 29.8292 19.4435 29.8 19.4L27.4 16.2C27.1206 15.8274 26.7582 15.525 26.3416 15.3167C25.9251 15.1084 25.4657 15 25 15H23V14C23 13.2044 22.6839 12.4413 22.1213 11.8787C21.5587 11.3161 20.7956 11 20 11H11C10.2044 11 9.44129 11.3161 8.87868 11.8787C8.31607 12.4413 8 13.2044 8 14V25C8 25.2652 8.10536 25.5196 8.29289 25.7071C8.48043 25.8946 8.73478 26 9 26H10C10 26.7956 10.3161 27.5587 10.8787 28.1213C11.4413 28.6839 12.2044 29 13 29C13.7956 29 14.5587 28.6839 15.1213 28.1213C15.6839 27.5587 16 26.7956 16 26H22C22 26.7956 22.3161 27.5587 22.8787 28.1213C23.4413 28.6839 24.2044 29 25 29C25.7956 29 26.5587 28.6839 27.1213 28.1213C27.6839 27.5587 28 26.7956 28 26H29C29.2652 26 29.5196 25.8946 29.7071 25.7071C29.8946 25.5196 30 25.2652 30 25V20C29.9978 19.8801 29.9741 19.7615 29.93 19.65ZM13 27C12.8022 27 12.6089 26.9414 12.4444 26.8315C12.28 26.7216 12.1518 26.5654 12.0761 26.3827C12.0004 26.2 11.9806 25.9989 12.0192 25.8049C12.0578 25.6109 12.153 25.4327 12.2929 25.2929C12.4327 25.153 12.6109 25.0578 12.8049 25.0192C12.9989 24.9806 13.2 25.0004 13.3827 25.0761C13.5654 25.1518 13.7216 25.28 13.8315 25.4444C13.9414 25.6089 14 25.8022 14 26C14 26.2652 13.8946 26.5196 13.7071 26.7071C13.5196 26.8946 13.2652 27 13 27ZM21 24H15.22C14.9388 23.6906 14.5961 23.4435 14.2138 23.2743C13.8315 23.1052 13.418 23.0178 13 23.0178C12.582 23.0178 12.1685 23.1052 11.7862 23.2743C11.4039 23.4435 11.0612 23.6906 10.78 24H10V14C10 13.7348 10.1054 13.4804 10.2929 13.2929C10.4804 13.1054 10.7348 13 11 13H20C20.2652 13 20.5196 13.1054 20.7071 13.2929C20.8946 13.4804 21 13.7348 21 14V24ZM23 17H25C25.1552 17 25.3084 17.0361 25.4472 17.1056C25.5861 17.175 25.7069 17.2758 25.8 17.4L27 19H23V17ZM25 27C24.8022 27 24.6089 26.9414 24.4444 26.8315C24.28 26.7216 24.1518 26.5654 24.0761 26.3827C24.0004 26.2 23.9806 25.9989 24.0192 25.8049C24.0578 25.6109 24.153 25.4327 24.2929 25.2929C24.4327 25.153 24.6109 25.0578 24.8049 25.0192C24.9989 24.9806 25.2 25.0004 25.3827 25.0761C25.5654 25.1518 25.7216 25.28 25.8315 25.4444C25.9414 25.6089 26 25.8022 26 26C26 26.2652 25.8946 26.5196 25.7071 26.7071C25.5196 26.8946 25.2652 27 25 27ZM28 24H27.22C26.6879 23.414 25.9457 23.0621 25.1553 23.0209C24.3649 22.9797 23.5902 23.2526 23 23.78V21H28V24Z" fill="#00BD62"/>
</svg>
