<svg width="259" height="200" viewBox="0 0 259 200" fill="none" xmlns="http://www.w3.org/2000/svg">
<g opacity="0.7">
<path opacity="0.7" d="M13.711 53.7145C13.8421 53.6619 14.196 51.0842 14.5761 48.0198C15.3692 41.5821 19.1639 36.6042 23.968 35.6244L27.4286 34.9142C27.4286 34.9142 21.9953 34.9142 19.7341 33.3229C14.93 29.956 13.8355 20.0002 13.8355 20.0002C13.8355 20.0002 12.5247 29.956 7.69442 33.3229C5.42673 34.9142 0 34.9142 0 34.9142L3.46052 35.6244C8.25151 36.6042 12.0528 41.5821 12.8459 48.0198C13.226 51.1105 13.5734 53.6619 13.711 53.7145Z" fill="#00BD62"/>
<path opacity="0.7" d="M213.71 29.1425C213.814 29.1006 214.094 27.0472 214.395 24.6061C215.023 19.4777 218.027 15.5123 221.83 14.7318L224.57 14.166C224.57 14.166 220.268 14.166 218.478 12.8983C214.675 10.2163 213.809 2.2854 213.809 2.2854C213.809 2.2854 212.771 10.2163 208.947 12.8983C207.152 14.166 202.855 14.166 202.855 14.166L205.595 14.7318C209.388 15.5123 212.397 19.4777 213.025 24.6061C213.326 27.0681 213.601 29.1006 213.71 29.1425Z" fill="#00BD62"/>
<path opacity="0.7" d="M143.996 31.4286C144.116 31.3795 144.441 28.9766 144.789 26.12C145.516 20.1187 148.995 15.4783 153.398 14.5649L156.571 13.9029C156.571 13.9029 151.59 13.9029 149.517 12.4194C145.114 9.28083 144.11 0 144.11 0C144.11 0 142.909 9.28083 138.481 12.4194C136.402 13.9029 131.428 13.9029 131.428 13.9029L134.6 14.5649C138.992 15.4783 142.476 20.1187 143.203 26.12C143.552 29.0011 143.87 31.3795 143.996 31.4286Z" fill="#00BD62"/>
<path opacity="0.7" d="M243.425 169.142C243.572 169.083 243.971 166.155 244.398 162.676C245.29 155.365 249.559 149.712 254.964 148.599L258.857 147.793C258.857 147.793 252.745 147.793 250.201 145.986C244.796 142.162 243.565 130.857 243.565 130.857C243.565 130.857 242.09 142.162 236.656 145.986C234.105 147.793 228 147.793 228 147.793L231.893 148.599C237.283 149.712 241.559 155.365 242.452 162.676C242.879 166.185 243.27 169.083 243.425 169.142Z" fill="#00BD62"/>
<path opacity="0.7" d="M99.9991 31.4286C100.059 31.4045 100.221 30.2249 100.396 28.8225C100.759 25.8764 102.498 23.5984 104.7 23.15L106.286 22.825C106.286 22.825 103.796 22.825 102.76 22.0968C100.558 20.556 100.056 16 100.056 16C100.056 16 99.4553 20.556 97.2415 22.0968C96.2021 22.825 93.7148 22.825 93.7148 22.825L95.3009 23.15C97.4968 23.5984 99.2391 25.8764 99.6025 28.8225C99.7768 30.2369 99.936 31.4045 99.9991 31.4286Z" fill="#00BD62"/>
<path opacity="0.7" d="M7.42874 165.143C7.48882 165.119 7.65103 163.939 7.82526 162.537C8.18873 159.591 9.928 157.313 12.1299 156.864L13.716 156.539C13.716 156.539 11.2257 156.539 10.1893 155.811C7.98747 154.27 7.48581 149.714 7.48581 149.714C7.48581 149.714 6.88503 154.27 4.67114 155.811C3.63178 156.539 1.14453 156.539 1.14453 156.539L2.7306 156.864C4.92647 157.313 6.66875 159.591 7.03222 162.537C7.20645 163.951 7.36566 165.119 7.42874 165.143Z" fill="#00BD62"/>
<path opacity="0.7" d="M31.4239 133.714C31.5659 133.658 31.9493 130.905 32.3611 127.633C33.2202 120.759 37.3312 115.444 42.5357 114.397L46.2846 113.639C46.2846 113.639 40.3985 113.639 37.949 111.94C32.7445 108.345 31.5588 97.7139 31.5588 97.7139C31.5588 97.7139 30.1388 108.345 24.9059 111.94C22.4493 113.639 16.5703 113.639 16.5703 113.639L20.3192 114.397C25.5094 115.444 29.6276 120.759 30.4867 127.633C30.8985 130.933 31.2748 133.658 31.4239 133.714Z" fill="#00BD62"/>
<path opacity="0.7" d="M138.856 200C138.954 199.961 139.219 198.083 139.504 195.849C140.099 191.157 142.945 187.529 146.548 186.815L149.144 186.298C149.144 186.298 145.069 186.298 143.373 185.138C139.77 182.684 138.949 175.428 138.949 175.428C138.949 175.428 137.966 182.684 134.343 185.138C132.642 186.298 128.572 186.298 128.572 186.298L131.168 186.815C134.761 187.529 137.612 191.157 138.207 195.849C138.492 198.102 138.752 199.961 138.856 200Z" fill="#00BD62"/>
<path opacity="0.7" d="M236.566 37.143C236.632 37.1171 236.809 35.8501 236.999 34.3439C237.396 31.1796 239.293 28.7328 241.695 28.2512L243.425 27.9021C243.425 27.9021 240.709 27.9021 239.578 27.1199C237.176 25.4651 236.629 20.5715 236.629 20.5715C236.629 20.5715 235.973 25.4651 233.558 27.1199C232.424 27.9021 229.711 27.9021 229.711 27.9021L231.441 28.2512C233.837 28.7328 235.737 31.1796 236.134 34.3439C236.324 35.863 236.498 37.1171 236.566 37.143Z" fill="#00BD62"/>
</g>
<path d="M58.0472 44H201.303C201.688 44 202.07 44.0759 202.426 44.2235C202.782 44.371 203.106 44.5873 203.379 44.8599C203.651 45.1325 203.867 45.4561 204.015 45.8123C204.163 46.1685 204.238 46.5503 204.238 46.9358V150.568H55.1115V46.9633C55.1078 46.5754 55.1811 46.1907 55.327 45.8314C55.4729 45.472 55.6886 45.1451 55.9615 44.8696C56.2345 44.594 56.5594 44.3753 56.9174 44.2261C57.2754 44.0768 57.6594 44 58.0472 44Z" fill="#263238"/>
<path d="M201.3 50.6072H58.0449V142.167H201.3V50.6072Z" fill="#EDFFF7"/>
<path opacity="0.2" d="M128.368 49.0054C129.157 49.0054 129.798 48.3652 129.798 47.5753C129.798 46.7855 129.157 46.1453 128.368 46.1453C127.578 46.1453 126.938 46.7855 126.938 47.5753C126.938 48.3652 127.578 49.0054 128.368 49.0054Z" fill="white"/>
<path opacity="0.2" d="M131.332 48.6478C131.925 48.6478 132.405 48.1676 132.405 47.5752C132.405 46.9829 131.925 46.5027 131.332 46.5027C130.74 46.5027 130.26 46.9829 130.26 47.5752C130.26 48.1676 130.74 48.6478 131.332 48.6478Z" fill="white"/>
<path opacity="0.2" d="M130.258 144.044C130.07 143.978 129.873 143.943 129.674 143.94C129.303 143.94 128.94 144.051 128.631 144.257C128.322 144.463 128.082 144.756 127.94 145.099C127.798 145.442 127.761 145.819 127.833 146.184C127.905 146.548 128.084 146.882 128.347 147.145C128.609 147.407 128.944 147.586 129.308 147.658C129.672 147.731 130.049 147.694 130.392 147.552C130.735 147.409 131.028 147.169 131.234 146.86C131.441 146.552 131.551 146.189 131.551 145.817C131.555 145.783 131.555 145.749 131.551 145.714C131.192 145.599 130.877 145.377 130.646 145.079C130.415 144.781 130.28 144.42 130.258 144.044Z" fill="white"/>
<path d="M215.355 149.111V150.486C215.353 150.912 215.214 151.326 214.959 151.668C214.704 152.009 214.347 152.26 213.939 152.383L203.557 155.422C202.267 155.807 200.929 156.001 199.583 156H59.779C58.4356 156.001 57.0993 155.806 55.8119 155.422L45.4232 152.356C45.0141 152.234 44.6549 151.983 44.3987 151.642C44.1425 151.3 44.0028 150.885 44 150.458V149.083L215.355 149.111Z" fill="#263238"/>
<path opacity="0.2" d="M215.355 149.111V150.486C215.353 150.912 215.214 151.326 214.959 151.668C214.704 152.009 214.347 152.26 213.939 152.383L203.557 155.422C202.267 155.807 200.929 156.001 199.583 156H59.779C58.4356 156.001 57.0993 155.806 55.8119 155.422L45.4232 152.356C45.0141 152.234 44.6549 151.983 44.3987 151.642C44.1425 151.3 44.0028 150.885 44 150.458V149.083L215.355 149.111Z" fill="white"/>
<path opacity="0.2" d="M215.355 149.111V150.486C215.355 150.842 215.257 151.192 215.073 151.497H44.2819C44.0978 151.192 44.0003 150.842 44 150.486V149.111H215.355Z" fill="white"/>
<path opacity="0.2" d="M141.735 149.111V149.702C141.735 149.779 141.72 149.855 141.691 149.926C141.661 149.997 141.618 150.061 141.564 150.115C141.51 150.17 141.445 150.213 141.374 150.242C141.303 150.271 141.227 150.287 141.151 150.287H118.214C118.137 150.287 118.06 150.273 117.989 150.244C117.917 150.215 117.852 150.172 117.797 150.118C117.742 150.063 117.698 149.999 117.668 149.927C117.638 149.856 117.623 149.779 117.623 149.702V149.111H141.735Z" fill="black"/>
<path opacity="0.1" d="M201.3 50.6072C201.3 50.6072 181.492 129.255 58.0449 142.167V50.6072H201.3Z" fill="white"/>
<path d="M130.208 126.617C147.258 126.617 161.08 112.795 161.08 95.7452C161.08 78.695 147.258 64.873 130.208 64.873C113.158 64.873 99.3359 78.695 99.3359 95.7452C99.3359 112.795 113.158 126.617 130.208 126.617Z" fill="#00BD62"/>
<path d="M111.025 96.4982L117.563 90.3103L126.589 98.6236L144.359 81.9028L150.816 88.01L126.495 111.094L111.025 96.4982Z" fill="white"/>
</svg>
