<svg width="612" height="616" viewBox="0 0 612 616" fill="none" xmlns="http://www.w3.org/2000/svg">
<g opacity="0.3">
<path d="M74.8093 475.688C74.8092 475.688 74.8092 475.688 74.8092 475.688C74.8004 475.695 74.792 475.702 74.7839 475.709C74.792 475.702 74.8005 475.695 74.8093 475.688ZM87.4188 371.357C54.954 396.822 49.2587 443.771 74.6854 476.255C74.6977 476.278 74.7122 476.301 74.7291 476.322C136.388 554.932 235.715 593.745 334.02 578.146C337.684 577.565 341.182 579.965 341.856 583.597L345.505 603.278C346.18 606.916 343.773 610.411 340.133 611C229.587 628.869 117.787 585.339 48.4475 496.935C11.5793 449.926 19.7992 381.937 66.8014 345.068C113.811 308.2 181.799 316.42 218.668 363.422C228.917 376.497 242.49 386.508 257.905 392.453C261.388 393.796 263.407 397.523 262.352 401.058C261.217 404.861 260.081 408.663 258.946 412.465C258.172 415.056 257.399 417.647 256.625 420.238C255.565 423.788 251.832 425.801 248.379 424.553C226.328 416.58 206.906 402.566 192.38 384.041L192.028 384.317L192.38 384.041C166.898 351.556 119.905 345.875 87.4188 371.357Z" stroke="#00BD62" stroke-width="0.89266"/>
<path d="M147.355 419.934C147.355 419.934 147.355 419.934 147.355 419.934C147.302 419.975 147.238 420.005 147.165 420.019C147.239 420.005 147.303 419.975 147.355 419.934ZM123.28 417.022C130.525 411.342 140.997 412.594 146.7 419.819C146.708 419.832 146.717 419.845 146.727 419.858L146.727 419.858C205.106 494.277 310.141 511.821 389.307 461.494C392.443 459.501 396.62 460.258 398.72 463.295C400.801 466.307 402.883 469.319 404.965 472.33C406.677 474.806 408.388 477.282 410.1 479.759C412.205 482.803 411.442 486.974 408.346 488.967C384.477 504.329 357.803 514.868 329.834 519.961C250.694 534.363 170.091 503.766 120.446 440.472C114.755 433.214 116.022 422.718 123.28 417.022Z" stroke="#00BD62" stroke-width="0.89266"/>
<path d="M115.664 407.334L115.664 407.334C128.28 397.44 146.524 399.647 156.417 412.259L156.066 412.535L156.417 412.259C203.513 472.304 284.434 493.672 354.719 465.436C358.132 464.064 359.637 460.099 358.116 456.723C355.375 450.64 352.634 444.557 349.891 438.473C348.374 435.107 344.407 433.61 340.94 434.962C284.699 456.887 220.299 439.58 182.7 391.643L183.051 391.368L182.7 391.643C161.42 364.511 122.176 359.769 95.0432 381.05C67.9103 402.33 63.169 441.574 84.4495 468.707C157.728 562.133 284.346 594.519 393.167 548.514C396.562 547.078 398.059 543.104 396.527 539.737C393.764 533.662 391.001 527.588 388.236 521.513C386.707 518.152 382.739 516.666 379.315 518.097C375.586 519.654 371.817 521.113 367.999 522.474C367.999 522.474 367.999 522.474 367.999 522.474L115.664 407.334ZM115.664 407.334C103.052 417.227 100.845 435.471 110.738 448.087L111.09 447.812L115.664 407.334Z" stroke="#00BD62" stroke-width="0.89266"/>
<path d="M271.619 170.427L271.619 170.427C271.589 170.432 271.559 170.439 271.531 170.449C211.253 179.067 164.104 226.168 154.968 285.814C154.405 289.492 151.124 292.179 147.452 291.81C144.109 291.474 140.771 291.138 137.432 290.802C134.135 290.47 130.838 290.138 127.537 289.806C123.853 289.436 121.17 286.149 121.689 282.507C132.38 207.525 191.344 148.126 266.89 137.365L266.827 136.923L266.89 137.365C282.76 135.101 293.79 120.4 291.531 104.53C289.272 88.6595 274.571 77.6293 258.701 79.8884L258.764 80.3303L258.701 79.8884C161.139 93.7873 83.3915 168.526 65.6603 265.477C64.9312 269.464 64.3094 273.46 63.7937 277.472C63.3204 281.154 60.048 283.848 56.3708 283.492C53.4946 283.213 50.6186 282.934 47.7429 282.656C43.9773 282.291 40.212 281.926 36.4467 281.56C32.7646 281.203 30.0713 277.92 30.5257 274.263C45.0926 157.012 136.453 63.5571 254.006 46.8086C288.139 41.9477 319.753 65.6763 324.619 99.8144C329.48 133.946 305.754 165.563 271.619 170.427ZM271.598 170.439C271.599 170.439 271.6 170.439 271.601 170.439L271.601 170.439C271.6 170.439 271.599 170.439 271.598 170.439Z" stroke="#00BD62" stroke-width="0.89266"/>
<path d="M265.125 125.139L265.125 125.139C265.092 125.144 265.061 125.152 265.032 125.163C171.439 138.544 103.771 220.719 107.783 314.41C107.942 318.123 105.198 321.362 101.518 321.661L81.5675 323.286C77.8781 323.587 74.6473 320.84 74.4693 317.163C73.0974 288.812 77.3043 260.44 86.8809 233.673L86.4606 233.522L86.8809 233.673C113.972 157.924 180.777 103.417 260.41 92.0711L260.41 92.0711C269.539 90.7678 278 97.1167 279.299 106.25C280.598 115.378 274.256 123.833 265.125 125.139Z" stroke="#00BD62" stroke-width="0.89266"/>
<path d="M252.229 34.6102C252.199 34.6145 252.169 34.6217 252.141 34.6316L252.291 35.0521L252.229 34.6101C252.229 34.6102 252.229 34.6102 252.229 34.6102Z" stroke="#00BD62" stroke-width="0.89266"/>
<mask id="path-7-inside-1_2265_3938" fill="white">
<path d="M525.702 106.226C525.702 106.226 525.702 106.227 525.702 106.227C518.82 112.105 511.935 117.985 505.051 123.864C502.052 126.426 501.708 130.931 504.191 133.996C566.751 211.208 582.771 316.457 545.581 409.017C530.277 447.101 487.002 465.568 448.917 450.263C410.833 434.959 392.367 391.685 407.671 353.599C416.481 331.676 418.916 307.765 414.781 284.604C414.088 280.721 410.217 278.352 406.38 279.265C399.89 280.809 393.4 282.353 386.911 283.897C383.074 284.81 380.732 288.659 381.343 292.556C383.889 308.8 382.014 325.476 375.849 340.813C353.485 396.473 380.475 459.725 436.131 482.085C491.791 504.45 555.042 477.459 577.403 421.799C620.243 315.185 600.323 193.599 525.701 106.227C525.7 106.226 525.701 106.225 525.702 106.226Z"/>
</mask>
<path d="M545.581 409.017L546.41 409.35L546.41 409.35L545.581 409.017ZM448.917 450.263L448.584 451.092H448.584L448.917 450.263ZM407.671 353.599L406.843 353.267V353.267L407.671 353.599ZM375.849 340.813L375.021 340.48L375.021 340.48L375.849 340.813ZM436.131 482.085L436.463 481.257H436.463L436.131 482.085ZM577.403 421.799L576.574 421.467L576.574 421.467L577.403 421.799ZM386.911 283.897L386.704 283.029L386.911 283.897ZM505.051 123.864L505.631 124.543L505.051 123.864ZM525.701 106.227L525.022 106.807L525.701 106.227ZM414.781 284.604L413.902 284.761L414.781 284.604ZM406.38 279.265L406.173 278.396L406.38 279.265ZM525.702 106.227L526.281 106.906L525.702 106.227ZM525.122 105.548C518.24 111.426 511.355 117.306 504.472 123.185L505.631 124.543C512.515 118.664 519.4 112.784 526.281 106.906L525.122 105.548ZM503.498 134.558C565.854 211.518 581.821 316.426 544.753 408.684L546.41 409.35C583.72 316.489 567.649 210.897 504.885 133.434L503.498 134.558ZM544.753 408.684C529.633 446.311 486.878 464.556 449.25 449.435L448.584 451.092C487.127 466.58 530.921 447.891 546.41 409.35L544.753 408.684ZM449.25 449.435C411.623 434.315 393.379 391.56 408.499 353.932L406.843 353.267C391.354 391.809 410.043 435.604 448.584 451.092L449.25 449.435ZM408.499 353.932C417.372 331.853 419.824 307.772 415.66 284.447L413.902 284.761C418.008 307.757 415.59 331.499 406.843 353.267L408.499 353.932ZM406.173 278.396C399.685 279.94 393.193 281.485 386.704 283.029L387.118 284.765C393.608 283.221 400.096 281.677 406.587 280.133L406.173 278.396ZM380.461 292.694C382.982 308.78 381.126 325.293 375.021 340.48L376.678 341.146C382.903 325.659 384.796 308.82 382.225 292.417L380.461 292.694ZM375.021 340.48C352.473 396.598 379.685 460.369 435.798 482.914L436.463 481.257C381.266 459.08 354.497 396.349 376.678 341.146L375.021 340.48ZM435.798 482.914C491.915 505.462 555.687 478.25 578.231 422.132L576.574 421.467C554.398 476.669 491.666 503.438 436.463 481.257L435.798 482.914ZM578.231 422.132C621.196 315.21 601.217 193.272 526.38 105.647L525.022 106.807C599.428 193.927 619.291 315.161 576.574 421.467L578.231 422.132ZM386.704 283.029C382.372 284.059 379.785 288.38 380.461 292.694L382.225 292.417C381.679 288.937 383.775 285.56 387.118 284.765L386.704 283.029ZM504.472 123.185C501.093 126.071 500.72 131.13 503.498 134.558L504.885 133.434C502.697 130.733 503.012 126.78 505.631 124.543L504.472 123.185ZM526.38 105.647C526.706 106.03 526.62 106.521 526.383 106.802C526.142 107.087 525.655 107.258 525.217 106.976L526.186 105.476C525.748 105.193 525.26 105.365 525.019 105.65C524.782 105.931 524.695 106.423 525.022 106.807L526.38 105.647ZM415.66 284.447C414.871 280.026 410.476 277.373 406.173 278.396L406.587 280.133C409.958 279.331 413.305 281.416 413.902 284.761L415.66 284.447ZM526.281 106.906C526.736 106.517 526.688 105.8 526.186 105.476L525.217 106.976C524.716 106.652 524.668 105.936 525.122 105.548L526.281 106.906Z" fill="#00BD62" mask="url(#path-7-inside-1_2265_3938)"/>
<path d="M461.143 375.059L461.145 375.054L461.143 375.059ZM461.144 375.062C496.404 287.298 459.076 187.559 375.91 144.172C372.615 142.453 371.182 138.457 372.763 135.119C374.336 131.801 375.907 128.483 377.479 125.164C378.764 122.453 380.048 119.742 381.333 117.03C382.917 113.685 386.91 112.261 390.184 113.945C415.424 126.933 437.892 144.764 456.285 166.443L456.626 166.154L456.285 166.443C508.327 227.772 522.135 312.878 492.142 387.517C488.699 396.074 478.975 400.226 470.413 396.787C461.871 393.351 457.72 383.654 461.125 375.103C461.132 375.09 461.138 375.076 461.144 375.062ZM461.175 374.909C461.182 374.692 461.044 374.543 460.896 374.482C460.896 374.481 460.896 374.481 460.896 374.481C461.056 374.543 461.183 374.692 461.175 374.909Z" stroke="#00BD62" stroke-width="0.89266"/>
<path d="M503.576 392.128L503.577 392.128C503.582 392.114 503.587 392.101 503.591 392.087C540.321 300.639 514.462 195.955 439.377 132.129L439.377 132.129C436.287 129.504 433.138 126.967 429.922 124.515C426.969 122.264 426.271 118.083 428.419 115.076L440.051 98.7906C442.202 95.7798 446.392 95.0887 449.333 97.3112C543.59 168.556 578.848 294.398 534.576 404.572C521.718 436.566 485.357 452.082 453.363 439.224C421.37 426.365 405.854 390.005 418.712 358.011L418.298 357.844L418.712 358.011C441.424 301.488 424.215 237.067 377.108 199.321C374.203 196.994 373.517 192.807 375.674 189.811C379.573 184.396 383.47 178.981 387.367 173.566C389.53 170.56 393.717 169.88 396.611 172.151C456.205 218.899 478.16 299.671 449.71 370.475C443.733 385.352 450.945 402.259 465.822 408.236C480.697 414.213 497.598 407.002 503.576 392.128Z" stroke="#00BD62" stroke-width="0.89266"/>
</g>
<path d="M306.519 531C460.341 531 585.038 523.72 585.038 514.739C585.038 505.758 460.341 498.478 306.519 498.478C152.697 498.478 28 505.758 28 514.739C28 523.72 152.697 531 306.519 531Z" fill="#F5F5F5"/>
<path d="M360.19 171.224L347.491 175.965C346.543 175.247 351.327 132.152 351.327 132.152L343.627 131.017C343.627 131.017 330.613 175.778 335.008 184.828C340.754 196.55 366.122 184.828 366.122 184.828L360.19 171.224Z" fill="#B97964"/>
<path d="M592.636 197.396L598.547 171.693L259.425 93.7122L253.514 119.415L592.636 197.396Z" fill="#00BD62"/>
<path opacity="0.6" d="M592.636 197.396L598.547 171.693L259.425 93.7122L253.514 119.415L592.636 197.396Z" fill="white"/>
<path opacity="0.2" d="M595.117 186.617L596.061 182.515L256.938 104.534L255.995 108.636L595.117 186.617Z" fill="black"/>
<path d="M268.011 109.255C268.643 106.52 268.54 103.667 267.712 100.985C266.885 98.3031 265.362 95.8879 263.299 93.9849L262.724 93.4534L259.851 92.7783C259.581 92.7182 259.298 92.7676 259.064 92.9156C258.829 93.0636 258.663 93.2983 258.602 93.5684L252.712 119.238C252.68 119.371 252.675 119.509 252.697 119.644C252.719 119.779 252.767 119.909 252.839 120.025C252.911 120.141 253.006 120.242 253.117 120.322C253.228 120.401 253.354 120.458 253.488 120.488L256.361 121.163L257.122 120.933C259.805 120.118 262.225 118.609 264.137 116.558C266.049 114.507 267.385 111.988 268.011 109.255Z" fill="#00BD62"/>
<path opacity="0.2" d="M268.011 109.255C268.643 106.52 268.54 103.667 267.712 100.985C266.885 98.3031 265.362 95.8879 263.299 93.9849L262.724 93.4534L259.851 92.7783C259.581 92.7182 259.298 92.7676 259.064 92.9156C258.829 93.0636 258.663 93.2983 258.602 93.5684L252.712 119.238C252.68 119.371 252.675 119.509 252.697 119.644C252.719 119.779 252.767 119.909 252.839 120.025C252.911 120.141 253.006 120.242 253.117 120.322C253.228 120.401 253.354 120.458 253.488 120.488L256.361 121.163L257.122 120.933C259.805 120.118 262.225 118.609 264.137 116.558C266.049 114.507 267.385 111.988 268.011 109.255Z" fill="black"/>
<path d="M328.055 130.472L344.919 57.0818L338.714 55.6453L320.916 133.057C320.876 133.231 320.87 133.411 320.899 133.586C320.929 133.762 320.993 133.93 321.088 134.081C321.183 134.232 321.306 134.363 321.452 134.466C321.597 134.568 321.762 134.641 321.936 134.68C322.123 134.724 322.317 134.727 322.505 134.69C322.693 134.653 322.871 134.576 323.028 134.465L327.509 131.262C327.777 131.069 327.969 130.79 328.055 130.472Z" fill="#00BD62"/>
<path d="M394.708 145.799L411.658 72.409L405.439 70.9725L387.655 148.384C387.573 148.733 387.633 149.1 387.822 149.404C388.01 149.709 388.312 149.926 388.66 150.008C388.847 150.052 389.041 150.056 389.23 150.019C389.418 149.982 389.596 149.904 389.752 149.792L394.248 146.589C394.484 146.382 394.645 146.105 394.708 145.799Z" fill="#00BD62"/>
<path d="M461.375 161.126L478.24 87.7363L472.034 86.2998L454.236 163.712C454.196 163.885 454.19 164.065 454.22 164.241C454.249 164.417 454.313 164.585 454.408 164.736C454.503 164.887 454.627 165.017 454.772 165.12C454.918 165.223 455.082 165.296 455.256 165.335C455.443 165.373 455.636 165.374 455.824 165.337C456.011 165.3 456.189 165.226 456.348 165.119L460.844 161.902C461.103 161.71 461.29 161.437 461.375 161.126Z" fill="#00BD62"/>
<path d="M528.014 176.439L544.878 103.063L538.673 101.627L520.875 179.039C520.811 179.39 520.88 179.752 521.069 180.054C521.257 180.357 521.552 180.579 521.894 180.676C522.082 180.718 522.277 180.719 522.465 180.68C522.653 180.64 522.831 180.56 522.986 180.447L527.468 177.243C527.738 177.047 527.931 176.762 528.014 176.439Z" fill="#00BD62"/>
<path d="M605.441 141.647L611.352 115.944L272.229 37.9632L266.319 63.6661L605.441 141.647Z" fill="#00BD62"/>
<path opacity="0.7" d="M605.441 141.647L611.352 115.944L272.229 37.9632L266.319 63.6661L605.441 141.647Z" fill="white"/>
<path opacity="0.2" d="M607.938 130.853L608.881 126.752L269.759 48.7708L268.815 52.8726L607.938 130.853Z" fill="black"/>
<path d="M261.389 115.144L278.77 39.4993L272.565 38.0629L254.25 117.73C254.186 118.081 254.255 118.443 254.444 118.745C254.632 119.048 254.927 119.27 255.269 119.368C255.457 119.409 255.652 119.41 255.84 119.371C256.028 119.331 256.206 119.252 256.361 119.138L260.857 115.934C261.119 115.739 261.307 115.46 261.389 115.144Z" fill="#00BD62"/>
<path d="M280.825 53.505C281.452 50.769 281.345 47.9159 280.515 45.2344C279.686 42.553 278.162 40.1384 276.099 38.2352L275.524 37.7037L272.651 37.0286C272.518 36.9966 272.38 36.9914 272.245 37.0132C272.11 37.035 271.981 37.0834 271.864 37.1555C271.748 37.2277 271.647 37.3221 271.568 37.4335C271.488 37.5449 271.432 37.6709 271.401 37.8043L265.454 63.4885C265.422 63.6215 265.417 63.7596 265.439 63.8946C265.461 64.0297 265.509 64.1591 265.581 64.2753C265.653 64.3915 265.748 64.4923 265.859 64.5718C265.971 64.6512 266.097 64.7078 266.23 64.7382L269.103 65.399L269.85 65.1835C272.547 64.3775 274.982 62.8727 276.91 60.8217C278.837 58.7707 280.188 56.2464 280.825 53.505Z" fill="#00BD62"/>
<path opacity="0.1" d="M280.825 53.505C281.452 50.769 281.345 47.9159 280.515 45.2344C279.686 42.553 278.162 40.1384 276.099 38.2352L275.524 37.7037L272.651 37.0286C272.518 36.9966 272.38 36.9914 272.245 37.0132C272.11 37.035 271.981 37.0834 271.864 37.1555C271.748 37.2277 271.647 37.3221 271.568 37.4335C271.488 37.5449 271.432 37.6709 271.401 37.8043L265.454 63.4885C265.422 63.6215 265.417 63.7596 265.439 63.8946C265.461 64.0297 265.509 64.1591 265.581 64.2753C265.653 64.3915 265.748 64.4923 265.859 64.5718C265.971 64.6512 266.097 64.7078 266.23 64.7382L269.103 65.399L269.85 65.1835C272.547 64.3775 274.982 62.8727 276.91 60.8217C278.837 58.7707 280.188 56.2464 280.825 53.505Z" fill="white"/>
<path d="M401.962 181.711C401.203 181.635 400.438 181.635 399.678 181.711C394.138 182.336 388.641 183.296 383.216 184.584C370.891 187.184 357.359 190.674 357.359 190.674L351.326 173.092C351.326 173.092 391.074 150.108 397.523 151.99C397.523 151.99 408.311 182.673 401.962 181.711Z" fill="#263238"/>
<path d="M493.179 199.595C493.179 199.595 503.837 211.877 502.631 227.678C501.424 243.479 461.303 267.899 461.303 267.899L456.189 259.999C456.189 259.999 488.151 233.065 488.869 227.678C489.588 222.291 482.233 210.44 482.233 210.44L493.179 199.595Z" fill="#B97964"/>
<path d="M457.626 257.241C457.626 257.241 464.162 266.003 463.846 267.124C463.53 268.244 458.243 271.534 458.243 271.534C458.243 271.534 459.134 276.763 459.134 277.711C459.134 280.052 454.954 282.983 453.876 282.264C450.012 279.679 448.605 272.683 447.886 269.48C447.168 266.276 455.744 256.278 457.626 257.241Z" fill="#00BD62"/>
<path opacity="0.7" d="M457.626 257.241C457.626 257.241 464.162 266.003 463.846 267.124C463.53 268.244 458.243 271.534 458.243 271.534C458.243 271.534 459.134 276.763 459.134 277.711C459.134 280.052 454.954 282.983 453.876 282.264C450.012 279.679 448.605 272.683 447.886 269.48C447.168 266.276 455.744 256.278 457.626 257.241Z" fill="white"/>
<path d="M399.419 512.144L387.769 513.365L385.586 488.241L397.236 487.006L399.419 512.144Z" fill="#B97964"/>
<path d="M457.568 511.297H446.277L445.344 485.138H456.649L457.568 511.297Z" fill="#B97964"/>
<path d="M444.699 509.989H458.417C458.642 509.988 458.861 510.064 459.037 510.205C459.212 510.347 459.333 510.544 459.379 510.765L461.606 520.82C461.652 521.064 461.644 521.315 461.583 521.556C461.522 521.796 461.408 522.02 461.25 522.212C461.093 522.404 460.895 522.559 460.671 522.666C460.447 522.773 460.202 522.829 459.954 522.831C455.515 522.76 452.283 522.487 446.71 522.487C443.277 522.487 432.92 522.846 428.179 522.846C423.439 522.846 422.821 518.163 424.76 517.732C433.465 515.836 440.016 513.207 442.802 510.707C443.318 510.232 443.998 509.975 444.699 509.989Z" fill="#263238"/>
<path d="M440.977 511.972C440.21 512.03 439.446 511.827 438.808 511.397C438.602 511.224 438.442 511.001 438.344 510.75C438.246 510.499 438.213 510.228 438.248 509.961C438.242 509.805 438.282 509.65 438.364 509.517C438.446 509.384 438.565 509.279 438.707 509.214C439.957 508.567 443.606 510.808 444.008 511.067C444.056 511.088 444.095 511.126 444.118 511.173C444.142 511.22 444.148 511.274 444.137 511.325C444.13 511.379 444.108 511.43 444.072 511.471C444.036 511.512 443.989 511.541 443.936 511.555C442.968 511.802 441.976 511.942 440.977 511.972ZM439.296 509.63C439.177 509.617 439.056 509.643 438.951 509.702C438.88 509.702 438.793 509.803 438.779 510.018C438.757 510.195 438.778 510.376 438.84 510.543C438.903 510.711 439.005 510.861 439.138 510.98C440.405 511.555 441.842 511.627 443.16 511.182C441.985 510.418 440.673 509.891 439.296 509.63Z" fill="#00BD62"/>
<path d="M443.864 511.569H443.735C442.571 510.937 440.316 508.452 440.546 507.26C440.586 507.061 440.693 506.882 440.851 506.754C441.008 506.625 441.205 506.555 441.408 506.556C441.61 506.529 441.816 506.546 442.012 506.606C442.208 506.665 442.389 506.766 442.542 506.901C443.85 507.964 444.122 511.21 444.137 511.368C444.138 511.417 444.126 511.464 444.103 511.507C444.081 511.55 444.048 511.586 444.008 511.612C443.956 511.614 443.906 511.598 443.864 511.569ZM441.594 506.987H441.465C441.12 506.987 441.092 507.188 441.077 507.26C440.933 507.993 442.37 509.874 443.534 510.751C443.461 509.464 442.994 508.23 442.198 507.217C442.033 507.066 441.817 506.984 441.594 506.987Z" fill="#00BD62"/>
<path d="M386.535 509.63H400.253C400.478 509.629 400.697 509.705 400.872 509.846C401.048 509.988 401.169 510.185 401.215 510.406L403.442 520.461C403.488 520.705 403.48 520.956 403.419 521.197C403.358 521.437 403.244 521.661 403.086 521.853C402.929 522.045 402.731 522.2 402.507 522.307C402.283 522.414 402.038 522.47 401.79 522.472C397.351 522.4 394.119 522.128 388.546 522.128C385.112 522.128 374.755 522.487 370.015 522.487C365.275 522.487 364.657 517.804 366.596 517.373C375.301 515.477 381.852 512.848 384.638 510.348C385.154 509.873 385.833 509.616 386.535 509.63Z" fill="#263238"/>
<path d="M382.799 511.613C382.032 511.671 381.268 511.468 380.63 511.038C380.424 510.865 380.264 510.642 380.167 510.391C380.069 510.14 380.035 509.869 380.07 509.601C380.064 509.445 380.105 509.291 380.186 509.158C380.268 509.025 380.388 508.92 380.529 508.854C381.779 508.208 385.428 510.449 385.83 510.708C385.878 510.729 385.917 510.767 385.94 510.814C385.964 510.861 385.971 510.915 385.959 510.966C385.953 511.02 385.93 511.071 385.894 511.112C385.858 511.153 385.811 511.182 385.758 511.196C384.79 511.443 383.798 511.583 382.799 511.613ZM381.118 509.228C380.999 509.215 380.878 509.24 380.774 509.3C380.702 509.3 380.616 509.4 380.601 509.616C380.579 509.793 380.6 509.974 380.662 510.141C380.725 510.309 380.827 510.459 380.96 510.578C382.227 511.153 383.665 511.225 384.983 510.779C383.808 510.016 382.495 509.489 381.118 509.228Z" fill="#00BD62"/>
<path d="M385.686 511.21H385.557C384.393 510.578 382.138 508.093 382.368 506.901C382.408 506.702 382.516 506.523 382.673 506.395C382.83 506.266 383.027 506.196 383.23 506.197C383.433 506.17 383.639 506.187 383.834 506.247C384.03 506.306 384.211 506.407 384.365 506.542C385.672 507.605 385.945 510.851 385.959 511.009C385.96 511.057 385.948 511.105 385.926 511.148C385.903 511.191 385.87 511.227 385.83 511.253C385.779 511.254 385.728 511.239 385.686 511.21ZM383.417 506.628H383.287C382.942 506.628 382.914 506.829 382.899 506.901C382.756 507.633 384.192 509.515 385.356 510.392C385.283 509.105 384.817 507.871 384.02 506.858C383.855 506.707 383.64 506.625 383.417 506.628Z" fill="#00BD62"/>
<path opacity="0.2" d="M397.236 487.006L385.586 488.241L386.721 501.198L398.371 499.977L397.236 487.006Z" fill="black"/>
<path opacity="0.2" d="M456.649 485.152H445.344L445.832 498.641H457.137L456.649 485.152Z" fill="black"/>
<path d="M451.982 255.689H392.052C386.306 286.803 368.522 396.924 381.321 495.05L401.604 492.536C401.604 492.536 399.722 362.276 417.635 314.125C419.704 339.896 422.146 367.275 424.272 381.898C429.486 417.81 440.648 496.3 440.648 496.3H461.304C461.304 496.3 457.081 421.172 455.127 385.877C452.987 347.567 452.068 263.59 451.982 255.689Z" fill="#00BD62"/>
<path opacity="0.2" d="M417.634 314.125C414.685 322.567 412.446 331.24 410.94 340.054C409.259 317.07 415.968 292.794 415.968 292.794L417.634 314.125Z" fill="black"/>
<path d="M378.992 499.776L404.102 496.041L403.34 489.089L377.211 492.507L378.992 499.776Z" fill="#00BD62"/>
<path opacity="0.6" d="M378.992 499.776L404.102 496.041L403.34 489.089L377.211 492.507L378.992 499.776Z" fill="white"/>
<path d="M438.162 496.472H462.524V489.189L437.242 488.715L438.162 496.472Z" fill="#00BD62"/>
<path opacity="0.6" d="M438.162 496.472H462.524V489.189L437.242 488.715L438.162 496.472Z" fill="white"/>
<path d="M391.547 256.408H451.879V263.59L390.771 262.843L391.547 256.408Z" fill="#263238"/>
<path d="M432.487 253.176H430.332V265.931H432.487V253.176Z" fill="#00BD62"/>
<path d="M401.963 253.176H399.809V265.931H401.963V253.176Z" fill="#00BD62"/>
<path opacity="0.2" d="M399.679 181.711C394.139 182.337 388.641 183.296 383.217 184.584C385.443 174.959 397.294 167.087 397.294 167.087L399.679 181.711Z" fill="black"/>
<path d="M419.056 255.158H407.895V263.202H419.056V255.158Z" fill="white"/>
<path d="M464.047 157.362C464.047 157.362 462.223 166.527 459.996 179.843C458.99 185.891 457.899 192.772 456.85 200.083C454.149 218.93 451.765 240.377 451.98 256.408H391.548C391.548 256.408 387.626 189.051 397.524 151.99C397.524 151.99 435.648 150.194 464.047 157.362Z" fill="#263238"/>
<path d="M442.371 153.34C436.869 158.339 423.395 156.486 423.395 156.486C423.395 156.486 414.977 154.188 416.744 151.559C421.7 150.74 424.099 148.428 425.09 145.468C425.632 143.634 425.803 141.71 425.592 139.809C425.51 138.749 425.371 137.694 425.176 136.648L441.825 124.252C439.656 132.454 436.984 147.436 442.371 153.34Z" fill="#B97964"/>
<path opacity="0.2" d="M437.989 132.152C437.328 142.208 429.111 144.908 425.061 145.468C425.603 143.634 425.774 141.71 425.563 139.809L437.989 132.152Z" fill="black"/>
<path d="M439.915 146.991L423.984 154.173L423.05 148.427L417.204 150.482C416.18 150.836 415.306 151.529 414.727 152.445C414.148 153.361 413.897 154.446 414.015 155.524L414.661 161.844L422.749 157.42L426.771 163.166L445.905 153.958L439.915 146.991Z" fill="#263238"/>
<path opacity="0.2" d="M439.915 146.991L423.984 154.173L423.05 148.427L417.204 150.482C416.18 150.836 415.306 151.529 414.727 152.445C414.148 153.361 413.897 154.446 414.015 155.524L414.661 161.844L422.749 157.42L426.771 163.166L445.905 153.958L439.915 146.991Z" fill="white"/>
<path d="M457.855 155.969C457.855 155.969 443.763 203.373 456.203 211.877C456.203 211.877 454.48 250.863 451.994 256.408C431.86 257.5 411.682 257.5 391.547 256.408C389.918 241.623 389.28 226.746 389.637 211.877C389.637 211.877 394.176 206.131 394.176 201.821C394.176 197.512 396.805 163.036 405.424 151.545H410.222C410.222 151.545 403.283 165.665 404.232 178.12C404.232 178.12 425.305 181.711 440.632 179.556C440.632 179.556 445.171 162.792 450.199 154.418L457.855 155.969Z" fill="#00BD62"/>
<path opacity="0.2" d="M401.962 214.75H437.515C437.515 214.75 439.67 243.953 415.221 242.043C396.532 240.606 401.962 214.75 401.962 214.75Z" fill="black"/>
<path d="M413.785 97.9641C413.785 97.9641 409.031 112.975 416.256 120.172C423.482 127.369 427.992 98.7541 427.992 98.7541L413.785 97.9641Z" fill="#263238"/>
<path d="M440.216 133.359C439.587 134.352 438.855 135.277 438.032 136.117C435.922 138.378 433.127 139.884 430.078 140.403C427.029 140.922 423.893 140.426 421.154 138.99C417.58 137.198 414.819 134.118 413.426 130.371C413.228 129.849 413.06 129.317 412.923 128.776C412.584 127.453 412.33 126.11 412.161 124.754C410.854 114.8 413.038 101.541 422.59 97.4612C424.437 96.6638 426.422 96.2386 428.433 96.21C430.444 96.1814 432.441 96.55 434.309 97.2946C436.178 98.0393 437.881 99.1453 439.321 100.549C440.761 101.953 441.909 103.628 442.701 105.477C443.663 107.687 444.082 110.096 443.922 112.501C443.477 122.025 443.563 128.188 440.216 133.359Z" fill="#B97964"/>
<path opacity="0.1" d="M440.217 133.359C439.588 134.352 438.856 135.277 438.033 136.117C435.923 138.378 433.128 139.884 430.079 140.403C427.03 140.922 423.894 140.426 421.154 138.99C417.581 137.198 414.819 134.118 413.426 130.371C413.229 129.849 413.061 129.317 412.923 128.776C412.585 127.453 412.33 126.11 412.162 124.754C413.827 125.737 415.684 126.35 417.606 126.55C418.921 126.417 420.236 126.803 421.269 127.627C424.889 125.458 430.721 125.343 433.408 124.668C436.094 123.993 436.798 113.607 436.798 113.607L440.217 117.356C441.696 124.151 441.538 129.423 440.217 133.359Z" fill="black"/>
<path d="M426.972 115.92C426.972 116.811 426.512 117.572 425.909 117.572C425.306 117.572 424.817 116.839 424.803 115.934C424.789 115.029 425.277 114.282 425.866 114.282C426.455 114.282 426.943 114.986 426.972 115.92Z" fill="#263238"/>
<path d="M416.672 116.049C416.744 116.954 416.198 117.701 415.609 117.701C415.02 117.701 414.532 116.969 414.503 116.064C414.474 115.159 414.977 114.412 415.566 114.412C416.155 114.412 416.658 115.187 416.672 116.049Z" fill="#263238"/>
<path d="M419.946 116.451C418.879 119.253 417.429 121.892 415.637 124.295C416.268 124.737 416.99 125.035 417.75 125.166C418.509 125.298 419.289 125.26 420.032 125.056L419.946 116.451Z" fill="#A24E3F"/>
<path d="M430.117 112.544C430.021 112.557 429.923 112.545 429.833 112.51C429.743 112.475 429.662 112.418 429.6 112.343C429.202 111.803 428.683 111.363 428.084 111.058C427.486 110.754 426.824 110.594 426.153 110.591C426.083 110.599 426.011 110.592 425.944 110.571C425.876 110.551 425.814 110.517 425.76 110.471C425.706 110.425 425.662 110.369 425.631 110.305C425.6 110.242 425.582 110.173 425.578 110.102C425.566 109.963 425.609 109.825 425.698 109.718C425.786 109.611 425.914 109.542 426.052 109.528C426.89 109.521 427.717 109.713 428.466 110.087C429.215 110.462 429.865 111.008 430.362 111.682C430.451 111.791 430.494 111.931 430.48 112.071C430.467 112.211 430.398 112.34 430.29 112.429C430.238 112.476 430.18 112.515 430.117 112.544Z" fill="#263238"/>
<path d="M421.628 129.753C422.942 129.947 424.283 129.817 425.535 129.374C426.787 128.931 427.911 128.188 428.811 127.211C428.86 127.155 428.886 127.083 428.882 127.009C428.878 126.935 428.844 126.865 428.789 126.816C428.734 126.766 428.661 126.741 428.587 126.745C428.513 126.749 428.443 126.782 428.394 126.837C427.545 127.715 426.503 128.382 425.351 128.786C424.199 129.19 422.968 129.32 421.757 129.164C421.686 129.159 421.615 129.179 421.557 129.221C421.499 129.263 421.458 129.325 421.441 129.394C421.435 129.43 421.436 129.467 421.445 129.502C421.453 129.538 421.468 129.571 421.49 129.601C421.511 129.63 421.538 129.655 421.569 129.674C421.601 129.693 421.635 129.705 421.671 129.71L421.628 129.753Z" fill="#263238"/>
<path d="M412.205 112.559C412.101 112.587 411.992 112.587 411.889 112.559C411.761 112.499 411.662 112.393 411.611 112.261C411.56 112.13 411.562 111.985 411.616 111.855C411.958 111.076 412.482 110.392 413.145 109.859C413.807 109.326 414.589 108.961 415.423 108.795C415.563 108.779 415.705 108.817 415.817 108.903C415.93 108.989 416.005 109.115 416.026 109.255C416.039 109.395 415.999 109.534 415.914 109.646C415.829 109.758 415.705 109.833 415.566 109.858C414.914 110.008 414.306 110.309 413.789 110.735C413.273 111.161 412.864 111.702 412.593 112.314C412.548 112.38 412.491 112.435 412.424 112.477C412.358 112.519 412.283 112.547 412.205 112.559Z" fill="#263238"/>
<path d="M435.518 98.7253L434.742 103.624C435.562 104.052 436.189 104.773 436.501 105.644C436.812 106.514 436.784 107.47 436.423 108.321C434.685 112.401 436.825 118.922 439.914 121.594C439.914 121.594 440.072 119.798 441.565 120.273C443.059 120.747 442.327 130.084 439.224 134.451C439.224 134.451 443.835 130.572 446.694 120.833C449.337 111.84 449.897 104.285 448.13 100.722L435.518 98.7253Z" fill="#263238"/>
<path d="M447.93 102.13C447.93 102.13 452.915 94.4303 439.498 90.3794C426.081 86.3286 416.744 92.0888 416.744 92.0888C416.744 92.0888 408.01 102.518 419.617 104.227C431.008 105.879 447.93 102.13 447.93 102.13Z" fill="#263238"/>
<path d="M449.913 121.838C448.704 124.385 446.534 126.348 443.879 127.297C440.36 128.532 438.363 125.429 439.139 121.982C439.843 118.908 442.515 114.483 446.163 114.799C449.812 115.116 451.363 118.692 449.913 121.838Z" fill="#B97964"/>
<path d="M442.441 103.207C442.441 103.207 438.534 140.398 419.645 137.941L421.914 139.478C421.914 139.478 438.893 141.906 444.898 103.566L442.441 103.207Z" fill="#263238"/>
<path opacity="0.2" d="M442.441 103.207C442.441 103.207 438.534 140.398 419.645 137.941L421.914 139.478C421.914 139.478 438.893 141.906 444.898 103.566L442.441 103.207Z" fill="black"/>
<path d="M451.536 106.339C445.962 104.902 427.819 107.933 419.287 107.56C410.754 107.186 407.982 105.793 406.588 104.586C405.195 103.38 410.309 101.713 410.309 101.713C410.309 101.713 410.984 88.7849 421.585 82.8666C424.814 81.1315 428.394 80.1493 432.057 79.9936C434.836 79.7491 437.635 80.0666 440.288 80.9273C453.101 85.2368 452.125 102.475 452.125 102.475C452.125 102.475 457.124 107.703 451.536 106.339Z" fill="#00BD62"/>
<path opacity="0.2" d="M451.536 106.339C445.962 104.902 427.819 107.933 419.287 107.56C410.754 107.186 407.982 105.793 406.588 104.586C405.195 103.38 410.309 101.713 410.309 101.713C410.309 101.713 415.638 105.362 421.097 104.328C426.555 103.293 442.285 98.9982 452.139 102.475C452.139 102.546 457.124 107.703 451.536 106.339Z" fill="black"/>
<path opacity="0.2" d="M440.301 80.9417C434.857 81.8179 430.246 86.8169 428.177 91.5142C425.39 97.7341 415.665 104.687 416.915 90.9396C417.059 89.3452 417.552 87.802 418.359 86.4192C419.165 85.0365 420.266 83.8482 421.584 82.9384C424.813 81.2032 428.393 80.2211 432.055 80.0654C434.835 79.8004 437.639 80.0984 440.301 80.9417Z" fill="black"/>
<path d="M361.914 192.111L352.462 170.133L348.354 173.135L355.967 193.26L361.914 192.111Z" fill="#263238"/>
<path opacity="0.2" d="M361.914 192.111L352.462 170.133L348.354 173.135L355.967 193.26L361.914 192.111Z" fill="white"/>
<path d="M344.92 113.406C344.92 113.406 344.389 117.443 346.055 117.859C349.035 118.701 352.068 119.339 355.134 119.77C356.57 119.77 357.547 114.024 357.547 113.406C357.547 112.788 346.17 109.255 344.92 113.406Z" fill="#00BD62"/>
<path opacity="0.7" d="M344.92 113.406C344.92 113.406 344.389 117.443 346.055 117.859C349.035 118.701 352.068 119.339 355.134 119.77C356.57 119.77 357.547 114.024 357.547 113.406C357.547 112.788 346.17 109.255 344.92 113.406Z" fill="white"/>
<path opacity="0.2" d="M459.996 179.843C458.99 185.891 457.899 192.772 456.85 200.083C452.11 191.364 455.887 176.855 455.887 176.855L459.996 179.843Z" fill="black"/>
<path d="M464.046 157.362C464.046 157.362 472.536 160.163 502.63 209.478L485.277 220.136C485.277 220.136 463.558 190.33 457.855 188.893C457.855 188.893 450.716 164.301 464.046 157.362Z" fill="#263238"/>
<path d="M501.797 206.375L482.232 220.137L485.996 223.555L504.139 211.949L501.797 206.375Z" fill="#263238"/>
<path opacity="0.2" d="M501.797 206.375L482.232 220.137L485.996 223.555L504.139 211.949L501.797 206.375Z" fill="white"/>
<path d="M304.812 142.163C319.997 142.163 332.306 129.853 332.306 114.669C332.306 99.4844 319.997 87.1749 304.812 87.1749C289.628 87.1749 277.318 99.4844 277.318 114.669C277.318 129.853 289.628 142.163 304.812 142.163Z" fill="#263238"/>
<path d="M336.179 496.4L326.676 502.679L311.428 481.919L320.93 475.64L336.179 496.4Z" fill="#7F3E3B"/>
<path d="M325.871 501.652L336.27 494.802C336.442 494.675 336.656 494.621 336.867 494.65C337.079 494.679 337.27 494.789 337.401 494.958L343.498 502.757C343.646 502.967 343.75 503.205 343.805 503.456C343.859 503.708 343.862 503.967 343.813 504.22C343.765 504.472 343.666 504.712 343.522 504.926C343.379 505.139 343.194 505.321 342.978 505.461C339.208 507.866 333.696 511.207 328.99 514.327C323.492 517.954 324.285 520.476 316.901 522.608C312.429 523.908 310.635 519.566 312.455 518.617C320.723 514.249 319.54 512.429 323.973 503.94C324.408 503.033 325.06 502.247 325.871 501.652Z" fill="#263238"/>
<path opacity="0.2" d="M311.428 481.932L319.292 492.631L328.795 486.339L320.943 475.64L311.428 481.932Z" fill="black"/>
<path d="M312.781 161.48C298.482 158.295 283.818 157.996 268.921 159.348C266.427 159.586 264.068 160.588 262.165 162.216C260.261 163.845 258.907 166.021 258.287 168.448C254.894 182.241 249.005 213.348 249.941 260.745L310.064 261.72C311.299 253.27 310.324 214.089 320.464 174.545C320.863 173.182 320.978 171.752 320.804 170.343C320.629 168.934 320.167 167.575 319.448 166.351C318.728 165.127 317.765 164.064 316.618 163.226C315.472 162.388 314.166 161.794 312.781 161.48Z" fill="#263238"/>
<path d="M276.576 169.956L278.162 174.441C278.24 174.659 278.376 174.853 278.554 175.002C278.732 175.15 278.947 175.248 279.176 175.286L281.464 175.637C281.878 175.696 282.299 175.614 282.66 175.403L287.015 172.803L282.569 168.734L276.576 169.956Z" fill="#00BD62"/>
<path d="M281.673 174.272C280.831 173.923 279.912 173.802 279.009 173.921C276.331 178.536 271.95 192.029 270.715 198.048C274.381 210.372 276.032 211.724 276.032 211.724L281.361 197.58C281.361 197.58 280.659 182.683 281.673 174.272Z" fill="#00BD62"/>
<path d="M303.94 131.438C301.509 139.524 298.403 154.448 303.576 160.362C298.676 164.457 292.345 169.15 282.582 168.773C272.819 168.396 275.185 161.805 278.11 158.464C287.47 156.956 287.912 150.145 286.963 143.645L303.94 131.438Z" fill="#7F3E3B"/>
<path d="M306.151 159.881C305.501 159.514 304.818 159.21 304.111 158.971C303.936 158.907 303.745 158.902 303.567 158.956C303.388 159.01 303.233 159.12 303.123 159.27C301.979 160.765 298.196 167.577 282.57 168.773C284.884 170.515 287.627 175.468 288.784 177.873C293.672 175.949 306.515 170.073 306.58 160.674C306.585 160.516 306.548 160.359 306.473 160.22C306.397 160.081 306.287 159.964 306.151 159.881Z" fill="white"/>
<path d="M278.149 158.841C278.198 158.704 278.211 158.557 278.188 158.413C278.164 158.269 278.106 158.134 278.016 158.018C277.927 157.903 277.81 157.812 277.677 157.754C277.544 157.696 277.398 157.672 277.253 157.684C276.71 157.737 276.172 157.824 275.641 157.944C275.516 157.977 275.398 158.03 275.29 158.1C273.99 159.075 266.398 167.655 271.39 175.728C272.989 173.843 277.89 169.657 282.569 168.773C278.539 166.394 276.889 162.559 278.149 158.841Z" fill="white"/>
<path opacity="0.2" d="M297.025 136.417L286.977 143.645C287.226 145.161 287.334 146.697 287.302 148.234C290.85 147.987 296.024 144.503 296.765 140.863C297.116 139.408 297.204 137.903 297.025 136.417Z" fill="black"/>
<path d="M311.897 121.156C308.309 131.919 306.697 138.38 299.82 142.813C289.421 149.469 277.435 141.591 277.799 130.151C278.111 119.843 283.922 103.957 295.621 101.89C307.321 99.8234 315.472 110.379 311.897 121.156Z" fill="#7F3E3B"/>
<path d="M307.776 128.721L301.367 126.122C301.367 126.122 309.037 117.711 309.479 112.615C297.584 110.795 281.023 111.146 287.886 100.044C292.514 92.5697 297.948 92.5827 307.997 96.0016C324.48 101.617 322.296 116.008 318.578 124.211C314.86 132.413 307.776 128.721 307.776 128.721Z" fill="#263238"/>
<path d="M310.74 128.682C310.657 128.68 310.579 128.648 310.519 128.591C307.509 125.803 303.973 123.642 300.119 122.235C300.035 122.205 299.965 122.143 299.926 122.063C299.887 121.983 299.882 121.89 299.911 121.806C299.924 121.764 299.946 121.726 299.974 121.693C300.002 121.66 300.036 121.633 300.075 121.614C300.114 121.595 300.156 121.583 300.199 121.58C300.243 121.578 300.286 121.584 300.327 121.598C304.272 123.037 307.891 125.246 310.974 128.097C311.034 128.16 311.068 128.244 311.068 128.331C311.068 128.419 311.034 128.503 310.974 128.565C310.914 128.633 310.83 128.675 310.74 128.682Z" fill="white"/>
<path d="M287.289 131.789C288.282 132.057 289.318 132.126 290.338 131.993C291.357 131.859 292.34 131.525 293.23 131.009C293.286 130.966 293.325 130.905 293.341 130.837C293.358 130.768 293.351 130.696 293.321 130.632C293.27 130.584 293.203 130.557 293.133 130.557C293.062 130.557 292.995 130.584 292.944 130.632C291.959 131.181 290.861 131.498 289.735 131.558C288.609 131.619 287.483 131.423 286.444 130.983C286.377 130.957 286.302 130.956 286.234 130.983C286.167 131.01 286.112 131.061 286.08 131.126C286.065 131.158 286.057 131.192 286.055 131.227C286.053 131.262 286.059 131.297 286.071 131.329C286.083 131.362 286.102 131.392 286.126 131.418C286.15 131.443 286.178 131.463 286.21 131.477C286.564 131.601 286.924 131.705 287.289 131.789Z" fill="#263238"/>
<path d="M312.508 133.817C310.503 135.857 307.8 137.06 304.942 137.184C301.211 137.275 300.445 133.739 302.342 130.684C304.097 127.954 308.166 124.601 311.442 125.953C314.718 127.304 314.978 131.282 312.508 133.817Z" fill="#7F3E3B"/>
<path d="M281.933 372.424C283.233 315.837 297.429 261.486 297.429 261.486L250.475 260.732C250.475 260.732 253.348 342.46 254.166 376.701C255.011 412.293 313.847 493.124 313.847 493.124L329.954 482.478C329.954 482.478 283.194 417.09 281.933 372.424Z" fill="#00BD62"/>
<g style="mix-blend-mode:multiply" opacity="0.2">
<path d="M286.261 292.62C272.326 310.936 277.266 345.385 281.998 369.72C283.053 342.812 286.164 316.024 291.305 289.591L286.261 292.62Z" fill="black"/>
</g>
<path d="M313.119 494.152L332.268 481.49L328.121 475.562L307.984 488.38L313.119 494.152Z" fill="#263238"/>
<path d="M295.296 120.142C295.049 121.026 294.4 121.65 293.828 121.52C293.256 121.39 292.983 120.584 293.217 119.687C293.451 118.79 294.114 118.179 294.686 118.309C295.257 118.439 295.53 119.258 295.296 120.142Z" fill="#263238"/>
<path d="M285.131 118.257C284.897 119.141 284.234 119.765 283.662 119.635C283.09 119.505 282.83 118.699 283.064 117.802C283.298 116.905 283.961 116.294 284.533 116.424C285.105 116.554 285.378 117.412 285.131 118.257Z" fill="#263238"/>
<path d="M287.912 119.297C286.091 121.495 283.994 123.448 281.672 125.108C282.816 126.641 285.637 126.537 285.637 126.537L287.912 119.297Z" fill="#630F0F"/>
<path d="M299.443 117.685C299.531 117.715 299.627 117.715 299.716 117.685C299.845 117.627 299.948 117.523 300.004 117.393C300.059 117.262 300.063 117.116 300.015 116.983C299.717 116.21 299.23 115.524 298.599 114.988C297.967 114.452 297.212 114.083 296.401 113.915C296.259 113.899 296.116 113.937 296 114.021C295.885 114.105 295.805 114.23 295.777 114.37C295.76 114.438 295.757 114.508 295.769 114.577C295.781 114.646 295.808 114.711 295.847 114.769C295.887 114.827 295.938 114.875 295.997 114.912C296.057 114.948 296.123 114.972 296.193 114.981C296.831 115.117 297.424 115.41 297.92 115.835C298.415 116.26 298.795 116.802 299.027 117.412C299.063 117.492 299.122 117.56 299.195 117.608C299.269 117.656 299.355 117.683 299.443 117.685Z" fill="#263238"/>
<path d="M281.256 113.122C281.334 113.163 281.421 113.184 281.51 113.184C281.598 113.184 281.685 113.163 281.763 113.122C282.312 112.705 282.95 112.422 283.627 112.296C284.304 112.169 285.001 112.203 285.663 112.394C285.8 112.442 285.949 112.437 286.082 112.379C286.215 112.321 286.32 112.215 286.378 112.082C286.405 112.019 286.42 111.951 286.42 111.883C286.42 111.814 286.407 111.746 286.38 111.683C286.353 111.62 286.314 111.562 286.264 111.515C286.215 111.467 286.156 111.43 286.092 111.406C285.271 111.158 284.403 111.107 283.559 111.256C282.714 111.405 281.917 111.75 281.23 112.264C281.171 112.302 281.12 112.352 281.08 112.41C281.04 112.468 281.012 112.533 280.998 112.602C280.983 112.671 280.983 112.742 280.996 112.811C281.009 112.88 281.035 112.946 281.074 113.005C281.123 113.06 281.186 113.1 281.256 113.122Z" fill="#263238"/>
<path d="M324.701 503.667C324.726 503.624 324.739 503.574 324.739 503.524C324.739 503.474 324.726 503.425 324.701 503.381C324.677 503.334 324.639 503.295 324.593 503.269C324.546 503.243 324.493 503.233 324.441 503.238C323.869 503.238 318.89 503.875 318.123 505.279C318.049 505.41 318.01 505.558 318.01 505.708C318.01 505.858 318.049 506.006 318.123 506.137C318.217 506.353 318.364 506.541 318.55 506.684C318.737 506.827 318.956 506.921 319.189 506.956C320.788 507.19 323.297 505.019 324.649 503.693L324.701 503.667ZM318.682 505.448C319.254 504.72 321.802 504.148 323.739 503.875C321.841 505.604 320.229 506.553 319.332 506.475C319.179 506.449 319.034 506.386 318.912 506.291C318.789 506.195 318.692 506.071 318.63 505.929C318.597 505.879 318.58 505.82 318.58 505.76C318.58 505.7 318.597 505.641 318.63 505.591C318.628 505.539 318.647 505.487 318.682 505.448Z" fill="#00BD62"/>
<path d="M324.701 503.667C324.701 503.667 324.701 503.667 324.701 503.602C324.727 503.561 324.74 503.514 324.74 503.466C324.74 503.417 324.727 503.37 324.701 503.329C324.623 503.225 322.843 500.82 321.036 500.625C320.772 500.596 320.504 500.62 320.25 500.696C319.995 500.772 319.759 500.898 319.554 501.067C318.982 501.535 318.982 501.977 319.099 502.25C319.567 503.446 322.999 504.005 324.519 503.771C324.555 503.767 324.59 503.756 324.621 503.738C324.653 503.72 324.68 503.696 324.701 503.667ZM319.684 501.691C319.737 501.612 319.803 501.542 319.879 501.483C320.028 501.357 320.203 501.263 320.391 501.21C320.579 501.156 320.777 501.143 320.971 501.171C322.175 501.532 323.232 502.271 323.986 503.277C322.388 503.355 319.879 502.744 319.593 501.977C319.58 501.99 319.528 501.873 319.684 501.691Z" fill="#00BD62"/>
<path d="M315.992 511.35L304.734 511.181L302.693 485.065L313.938 485.247L315.992 511.35Z" fill="#7F3E3B"/>
<path d="M304.253 509.868L316.498 510.063C316.604 510.061 316.709 510.08 316.808 510.119C316.906 510.158 316.996 510.216 317.072 510.29C317.148 510.363 317.209 510.451 317.251 510.549C317.293 510.646 317.316 510.75 317.317 510.856L317.746 520.892C317.743 521.415 317.534 521.915 317.164 522.285C316.794 522.655 316.293 522.864 315.77 522.868C311.364 522.712 309.999 522.361 304.448 522.27C297.948 522.166 292.904 522.439 285.286 522.27C280.672 522.205 280.243 517.538 282.245 517.07C288.575 515.77 298.403 513.274 301.38 510.57C302.221 509.995 303.242 509.746 304.253 509.868Z" fill="#263238"/>
<path opacity="0.2" d="M302.693 485.078L303.746 498.532L315.004 498.714L313.951 485.26L302.693 485.078Z" fill="black"/>
<path d="M314.171 371.644C313.521 320.946 316.771 281.414 310.115 261.694L270.389 261.057C270.389 261.057 284.35 340.107 288.289 374.088C292.371 409.407 299.092 492.54 299.092 492.54L317.226 492.787C317.226 492.787 321.581 411.201 314.171 371.644Z" fill="#00BD62"/>
<path d="M296.297 496.27L318.93 496.634L320.672 489.29L295.479 488.51L296.297 496.27Z" fill="#263238"/>
<path d="M303.602 510.232C303.651 510.214 303.692 510.182 303.722 510.141C303.752 510.099 303.769 510.049 303.771 509.998C303.783 509.944 303.777 509.889 303.753 509.839C303.73 509.79 303.69 509.75 303.641 509.725C303.147 509.478 298.741 507.268 297.376 508.074C297.244 508.148 297.133 508.253 297.051 508.38C296.969 508.507 296.92 508.652 296.908 508.802C296.874 509.039 296.897 509.281 296.977 509.507C297.056 509.734 297.188 509.938 297.363 510.102C298.559 511.181 301.756 510.648 303.563 510.232H303.602ZM297.714 508.503C298.559 508.191 300.95 509.075 302.692 509.881C300.223 510.362 298.39 510.31 297.727 509.699C297.61 509.592 297.523 509.457 297.473 509.307C297.423 509.157 297.412 508.996 297.441 508.841C297.439 508.782 297.454 508.724 297.484 508.674C297.514 508.623 297.557 508.582 297.61 508.555L297.714 508.503Z" fill="#00BD62"/>
<path d="M303.603 510.232C303.647 510.209 303.685 510.175 303.715 510.135C303.744 510.094 303.764 510.047 303.772 509.998C303.772 509.868 303.551 506.8 302.173 505.656C301.98 505.481 301.75 505.352 301.5 505.278C301.25 505.203 300.987 505.186 300.73 505.227C300.002 505.318 299.781 505.695 299.716 506.007C299.482 507.307 302.069 509.686 303.395 510.271C303.43 510.28 303.467 510.282 303.503 510.275C303.539 510.268 303.573 510.253 303.603 510.232ZM300.509 505.786C300.597 505.752 300.688 505.73 300.782 505.721C300.97 505.693 301.161 505.707 301.343 505.76C301.525 505.814 301.693 505.907 301.835 506.033C302.642 507.019 303.12 508.233 303.2 509.504C301.9 508.698 300.106 506.813 300.249 506.033C300.266 505.972 300.299 505.917 300.345 505.874C300.391 505.83 300.447 505.8 300.509 505.786Z" fill="#00BD62"/>
<path d="M304.422 159.946C297.857 168.149 280.607 179.446 276.044 199.153C271.078 179.524 277.786 158.464 277.786 158.464C274.12 158.191 266.515 157.853 261.172 159.348C259.469 159.839 257.931 160.784 256.724 162.083C255.517 163.382 254.687 164.984 254.322 166.719C250.053 188.175 247.893 209.997 247.874 231.873C247.77 273.146 244.377 337.026 244.377 337.026C244.377 337.026 286.183 339.47 319.15 335.921C319.293 304.371 312.729 250.813 314.431 236.813C316.628 218.808 321.633 183.657 324.116 169.033C324.5 167.001 324.125 164.898 323.061 163.125C321.997 161.351 320.318 160.031 318.344 159.413C314.523 158.447 310.553 158.213 306.645 158.724C305.772 158.824 304.973 159.263 304.422 159.946Z" fill="#00BD62"/>
<path opacity="0.7" d="M304.409 159.946C297.844 168.162 280.594 179.446 276.044 199.153C271.078 179.524 277.786 158.464 277.786 158.464C274.12 158.191 266.515 157.853 261.172 159.348C259.469 159.839 257.931 160.784 256.724 162.083C255.517 163.382 254.687 164.984 254.322 166.719C250.053 188.175 247.893 209.997 247.874 231.873C247.77 273.146 244.377 337.026 244.377 337.026C244.377 337.026 286.183 339.47 319.15 335.921C319.293 304.371 312.729 250.813 314.431 236.813C316.628 218.795 321.633 183.644 324.116 169.033C324.515 167.066 324.188 165.022 323.196 163.278C322.205 161.533 320.615 160.207 318.721 159.543C314.791 158.494 310.693 158.22 306.658 158.737C305.778 158.828 304.97 159.263 304.409 159.946Z" fill="white"/>
<path opacity="0.5" d="M273.873 333.204C271.897 293.062 274.861 209.046 275.342 201.532H276.044C275.563 209.033 272.599 292.997 274.575 333.126L273.873 333.204Z" fill="#00BD62"/>
<path d="M272.742 173.31C268.595 180.564 264.617 188.233 261.042 195.812C259.248 199.621 257.572 203.443 256.129 207.226C255.401 209.111 254.751 210.982 254.192 212.776C253.692 214.321 253.318 215.903 253.074 217.508V217.612C253.09 217.426 253.09 217.239 253.074 217.053C253.055 216.617 253.003 216.182 252.918 215.753C252.806 215.309 252.658 214.874 252.476 214.453C252.303 214.081 252.098 213.725 251.865 213.387C251.433 212.737 250.854 212.198 250.175 211.814C249.759 211.632 250.279 211.892 250.877 211.996C252.535 212.33 254.217 212.525 255.908 212.581C259.945 212.749 263.989 212.71 268.023 212.464C272.17 212.204 276.382 211.827 280.581 211.372C282.687 211.138 284.793 210.865 286.885 210.579L290.031 210.151L291.591 209.904L292.371 209.787L292.748 209.722H292.943H293.06H292.865L292.488 209.8L296.258 227.128L295.829 227.206H295.582H295.413H295.192H294.763L293.931 227.297L292.267 227.479L288.952 227.83L282.336 228.467C277.903 228.883 273.47 229.234 268.959 229.455C264.448 229.676 259.859 229.884 255.076 229.676C252.43 229.593 249.795 229.293 247.198 228.779C245.305 228.404 243.475 227.76 241.764 226.868C240.114 225.994 238.69 224.748 237.604 223.228C236.776 222.058 236.197 220.731 235.901 219.328C235.739 218.62 235.657 217.897 235.654 217.17C235.654 216.858 235.654 216.39 235.654 216.195V215.909C235.928 213.185 236.45 210.492 237.214 207.863C237.877 205.497 238.605 203.261 239.372 201.077C240.932 196.722 242.596 192.549 244.312 188.415C246.028 184.281 247.848 180.239 249.668 176.209C251.488 172.179 253.36 168.214 255.31 164.106L272.742 173.31Z" fill="#00BD62"/>
<g opacity="0.7">
<path opacity="0.7" d="M272.742 173.31C268.595 180.564 264.617 188.233 261.042 195.812C259.248 199.621 257.572 203.443 256.129 207.226C255.401 209.111 254.751 210.983 254.192 212.776C253.692 214.321 253.318 215.903 253.074 217.508V217.612C253.09 217.426 253.09 217.239 253.074 217.053C253.055 216.617 253.003 216.182 252.918 215.753C252.806 215.309 252.658 214.874 252.476 214.453C252.303 214.081 252.098 213.725 251.865 213.387C251.433 212.737 250.854 212.198 250.175 211.814C249.759 211.632 250.279 211.892 250.877 211.996C252.535 212.33 254.217 212.526 255.908 212.581C259.945 212.749 263.989 212.71 268.023 212.464C272.17 212.204 276.382 211.827 280.581 211.373C282.687 211.139 284.793 210.866 286.885 210.58L290.031 210.151L291.591 209.904L292.371 209.787L292.748 209.722H292.943H293.06H292.865L292.488 209.8L296.258 227.128L295.829 227.206H295.582H295.413H295.192H294.763L293.931 227.297L292.267 227.479L288.952 227.83L282.336 228.467C277.903 228.883 273.47 229.234 268.959 229.455C264.448 229.676 259.859 229.884 255.076 229.676C252.43 229.593 249.795 229.293 247.198 228.779C245.305 228.404 243.475 227.76 241.764 226.868C240.114 225.994 238.69 224.748 237.604 223.228C236.776 222.058 236.197 220.731 235.901 219.328C235.739 218.62 235.657 217.897 235.654 217.17C235.654 216.858 235.654 216.39 235.654 216.195V215.909C235.928 213.185 236.45 210.492 237.214 207.863C237.877 205.497 238.605 203.261 239.372 201.077C240.932 196.722 242.596 192.549 244.312 188.415C246.028 184.281 247.848 180.239 249.668 176.209C251.488 172.179 253.36 168.214 255.31 164.106L272.742 173.31Z" fill="white"/>
</g>
<path d="M261.03 211.451L252.541 203.339L246.77 215.402C246.77 215.402 255.271 221.902 259.119 218.002L261.03 211.451Z" fill="#7F3E3B"/>
<path d="M292.072 215.584L299.872 206.784L306.606 218.353C306.606 218.353 298.676 225.503 294.542 221.993L292.072 215.584Z" fill="#7F3E3B"/>
<path d="M311.572 205.731L313.236 210.242C313.553 211.141 313.555 212.122 313.244 213.024C312.932 213.925 312.325 214.695 311.52 215.207L306.632 218.353L299.898 206.784L306.476 203.716C306.939 203.485 307.445 203.353 307.961 203.331C308.478 203.308 308.993 203.395 309.474 203.585C309.955 203.775 310.39 204.065 310.752 204.434C311.113 204.804 311.393 205.246 311.572 205.731Z" fill="#7F3E3B"/>
<path d="M240.803 203.209L239.503 207.824C239.265 208.747 239.346 209.723 239.733 210.593C240.12 211.464 240.79 212.179 241.635 212.621L246.834 215.363L252.606 203.3L245.781 200.778C245.298 200.574 244.776 200.477 244.252 200.491C243.727 200.506 243.212 200.632 242.74 200.863C242.268 201.093 241.852 201.421 241.517 201.826C241.183 202.231 240.94 202.702 240.803 203.209Z" fill="#7F3E3B"/>
<path d="M324.129 167.148C324.597 169.67 324.961 171.919 325.338 174.298C325.715 176.677 326.04 179.004 326.326 181.37C326.937 186.101 327.444 190.859 327.691 195.76C328.012 200.873 327.903 206.005 327.366 211.1C327.029 214.226 326.254 217.289 325.065 220.199C324.693 221.095 324.259 221.964 323.765 222.799C323.453 223.267 323.18 223.709 322.803 224.19L322.53 224.541C322.423 224.692 322.306 224.835 322.179 224.97C321.82 225.385 321.433 225.776 321.022 226.14C319.861 227.134 318.543 227.929 317.122 228.493C316.184 228.874 315.219 229.187 314.236 229.429C311.404 230.051 308.517 230.391 305.617 230.443C303.017 230.521 300.561 230.443 298.13 230.365C293.268 230.17 288.562 229.702 283.83 229.234C279.098 228.766 274.522 228.168 269.908 227.518C265.293 226.868 260.743 226.218 256.037 225.477L259.248 208.032C263.525 208.916 268.01 209.67 272.417 210.385C276.823 211.1 281.269 211.685 285.676 212.165C290.083 212.646 294.477 212.997 298.754 213.179C300.873 213.244 302.978 213.27 304.954 213.179C306.624 213.15 308.287 212.959 309.92 212.607C310.128 212.607 310.349 212.464 310.284 212.464C309.952 212.621 309.645 212.827 309.374 213.075C309.172 213.245 308.985 213.432 308.815 213.634C308.698 213.79 308.815 213.712 308.724 213.738C308.724 213.738 308.815 213.543 308.893 213.322C309.349 211.95 309.633 210.527 309.738 209.085C310.046 205.079 309.981 201.054 309.543 197.06C309.14 192.835 308.516 188.532 307.749 184.229C307.346 182.085 306.904 179.94 306.449 177.795C305.994 175.65 305.461 173.453 304.941 171.516L324.129 167.148Z" fill="#00BD62"/>
<g opacity="0.7">
<path opacity="0.7" d="M324.129 167.148C324.597 169.67 324.961 171.919 325.338 174.298C325.715 176.677 326.04 179.004 326.326 181.37C326.937 186.101 327.444 190.859 327.691 195.76C328.012 200.873 327.903 206.005 327.366 211.1C327.029 214.226 326.254 217.289 325.065 220.199C324.693 221.095 324.259 221.964 323.765 222.799C323.453 223.267 323.18 223.709 322.803 224.19L322.53 224.541C322.423 224.692 322.306 224.836 322.179 224.97C321.82 225.385 321.433 225.776 321.022 226.14C319.861 227.134 318.543 227.929 317.122 228.493C316.184 228.874 315.219 229.187 314.236 229.429C311.404 230.051 308.517 230.391 305.617 230.443C303.017 230.521 300.561 230.443 298.13 230.365C293.268 230.17 288.562 229.702 283.83 229.234C279.098 228.766 274.522 228.168 269.908 227.518C265.293 226.868 260.743 226.218 256.037 225.477L259.248 208.032C263.525 208.916 268.01 209.67 272.417 210.385C276.823 211.1 281.269 211.685 285.676 212.166C290.083 212.647 294.477 212.998 298.754 213.18C300.873 213.245 302.978 213.271 304.954 213.18C306.624 213.15 308.287 212.959 309.92 212.608C310.128 212.608 310.349 212.465 310.284 212.465C309.952 212.621 309.645 212.827 309.374 213.076C309.172 213.245 308.985 213.432 308.815 213.635C308.698 213.791 308.815 213.713 308.724 213.739C308.724 213.739 308.815 213.544 308.893 213.323C309.349 211.95 309.633 210.527 309.738 209.085C310.046 205.079 309.981 201.054 309.543 197.06C309.14 192.835 308.516 188.532 307.749 184.23C307.346 182.085 306.904 179.94 306.449 177.795C305.994 175.65 305.461 173.453 304.941 171.516L324.129 167.148Z" fill="white"/>
</g>
<path d="M294.75 259.952L314.249 274.16C314.249 274.16 316.459 293.244 305.5 295.116C294.542 296.987 292.384 273.705 294.75 259.952Z" fill="#00BD62"/>
<path opacity="0.5" d="M294.75 259.952L314.249 274.16C314.249 274.16 316.459 293.244 305.5 295.116C294.542 296.987 292.384 273.705 294.75 259.952Z" fill="white"/>
<path d="M252.554 259.952L245.417 274.16C245.417 274.16 243.142 293.244 246.34 295.116C249.538 296.987 252.125 273.705 252.554 259.952Z" fill="#00BD62"/>
<path opacity="0.5" d="M252.554 259.952L245.417 274.16C245.417 274.16 243.142 293.244 246.34 295.116C249.538 296.987 252.125 273.705 252.554 259.952Z" fill="white"/>
<path d="M280.373 124.523C280.137 124.522 279.901 124.496 279.671 124.445C279.217 124.332 278.792 124.124 278.425 123.835C278.057 123.546 277.755 123.182 277.539 122.768C277.05 121.68 276.782 120.507 276.751 119.315C276.72 118.123 276.926 116.937 277.357 115.826C278.657 111.679 281.894 108.793 284.494 109.326C284.947 109.441 285.37 109.65 285.738 109.939C286.105 110.227 286.407 110.59 286.626 111.003C287.114 112.09 287.382 113.264 287.413 114.456C287.445 115.647 287.239 116.833 286.808 117.945C285.573 121.793 282.817 124.523 280.373 124.523ZM283.779 109.612C281.478 109.612 278.839 112.212 277.669 115.891C276.812 118.056 276.849 120.474 277.773 122.612C277.968 122.987 278.24 123.316 278.572 123.578C278.903 123.841 279.287 124.03 279.697 124.133C282.141 124.705 285.157 121.91 286.444 117.932C287.267 115.769 287.206 113.369 286.275 111.25C286.084 110.874 285.814 110.544 285.485 110.282C285.155 110.019 284.773 109.831 284.364 109.729C284.174 109.668 283.978 109.629 283.779 109.612Z" fill="white"/>
<path d="M294.217 127.512C293.89 127.51 293.563 127.475 293.242 127.408C292.452 127.194 291.723 126.797 291.116 126.248C290.508 125.699 290.038 125.014 289.746 124.25C288.998 122.433 288.847 120.425 289.317 118.517C290.265 114.331 293.58 111.51 296.7 112.212C297.491 112.426 298.219 112.824 298.827 113.373C299.435 113.922 299.904 114.606 300.197 115.371C300.939 117.185 301.089 119.186 300.626 121.091C299.768 124.848 297.012 127.512 294.217 127.512ZM295.725 112.433C293.125 112.433 290.46 115.033 289.642 118.595C289.19 120.433 289.331 122.366 290.044 124.12C290.315 124.839 290.753 125.483 291.323 125.999C291.893 126.514 292.578 126.886 293.32 127.083C296.245 127.759 299.378 125.03 300.301 121.026C300.752 119.188 300.611 117.254 299.898 115.501C299.626 114.783 299.187 114.139 298.617 113.624C298.048 113.109 297.364 112.736 296.622 112.537C296.328 112.47 296.027 112.436 295.725 112.433Z" fill="white"/>
<path d="M289.252 120.48C289.171 120.483 289.092 120.455 289.031 120.402C288.67 120.052 288.235 119.786 287.758 119.625C287.282 119.463 286.775 119.408 286.275 119.466C286.189 119.483 286.1 119.465 286.026 119.417C285.953 119.368 285.903 119.292 285.885 119.206C285.868 119.12 285.886 119.03 285.935 118.957C285.983 118.884 286.059 118.833 286.145 118.816C286.744 118.738 287.353 118.795 287.927 118.984C288.501 119.173 289.025 119.489 289.46 119.908C289.492 119.938 289.517 119.974 289.534 120.015C289.551 120.055 289.56 120.098 289.56 120.142C289.56 120.185 289.551 120.229 289.534 120.269C289.517 120.309 289.492 120.345 289.46 120.376C289.405 120.433 289.331 120.47 289.252 120.48Z" fill="white"/>
<path d="M292.89 204.509L292.175 202.91C303.251 198.022 310.531 188.142 309.4 182.903C308.802 180.135 305.89 179.55 303.511 179.589C292.084 179.693 288.263 191.002 285.182 200.102C284.792 201.272 284.402 202.39 284.025 203.43L282.387 202.832C282.751 201.805 283.128 200.7 283.531 199.543C286.612 190.443 290.836 177.951 303.498 177.847H303.641C309.257 177.847 310.739 180.772 311.116 182.526C312.403 188.48 304.889 199.153 292.89 204.509Z" fill="#263238"/>
<path d="M290.148 202.572C289.264 204.496 289.628 206.537 290.941 207.135C292.254 207.733 294.048 206.667 294.919 204.743C295.79 202.819 295.439 200.778 294.126 200.18C292.813 199.582 291.019 200.609 290.148 202.572Z" fill="#263238"/>
<path d="M280.255 202.572C279.371 204.496 279.735 206.537 281.048 207.135C282.361 207.733 284.155 206.667 285.026 204.743C285.897 202.819 285.559 200.778 284.233 200.18C282.907 199.582 281.139 200.609 280.255 202.572Z" fill="#263238"/>
<path d="M263.802 183.515C264.031 181.085 262.292 178.934 259.919 178.711C257.546 178.488 255.437 180.277 255.209 182.707C254.98 185.138 256.719 187.289 259.092 187.512C261.465 187.735 263.574 185.945 263.802 183.515Z" fill="#263238"/>
<path d="M304.358 179.576C304.254 179.594 304.149 179.594 304.046 179.576C303.938 179.535 303.839 179.474 303.755 179.395C303.671 179.316 303.603 179.221 303.556 179.116C303.509 179.011 303.483 178.897 303.48 178.782C303.477 178.667 303.497 178.552 303.539 178.445C303.539 178.38 306.308 170.879 301.953 159.634C301.911 159.528 301.891 159.414 301.893 159.299C301.895 159.185 301.92 159.072 301.966 158.967C302.011 158.862 302.078 158.767 302.16 158.687C302.243 158.608 302.34 158.545 302.447 158.503C302.553 158.462 302.667 158.441 302.782 158.443C302.896 158.446 303.01 158.47 303.115 158.516C303.22 158.562 303.315 158.628 303.394 158.711C303.473 158.793 303.536 158.891 303.578 158.997C308.206 170.918 305.294 178.744 305.164 179.069C305.094 179.223 304.981 179.354 304.837 179.444C304.694 179.534 304.527 179.58 304.358 179.576Z" fill="#263238"/>
<path d="M257.819 182.656H257.637C257.412 182.604 257.216 182.466 257.09 182.272C256.964 182.078 256.918 181.844 256.961 181.617C257.13 180.798 261.355 161.441 277.591 157.619C277.817 157.568 278.054 157.608 278.25 157.731C278.447 157.854 278.586 158.05 278.638 158.276C278.689 158.502 278.649 158.739 278.526 158.935C278.403 159.131 278.207 159.271 277.981 159.322C262.837 162.897 258.716 181.786 258.677 181.968C258.633 182.162 258.524 182.337 258.368 182.462C258.212 182.587 258.019 182.656 257.819 182.656Z" fill="#263238"/>
<path d="M140.348 96.4054C130.213 103.741 121.788 132.519 145.96 144.143C170.133 155.767 204.219 154.83 193.919 129.554C183.618 104.279 187.3 89.4143 162.976 86.5324C138.652 83.6505 140.348 96.4054 140.348 96.4054Z" fill="#263238"/>
<path d="M205.487 247.823L210.368 249.519L216.573 258.924C217.48 260.299 217.884 261.945 217.718 263.584L217.359 266.921C217.307 267.474 217.056 267.99 216.653 268.373C216.25 268.755 215.722 268.979 215.167 269.003L208.686 269.224C208.099 269.233 207.529 269.029 207.082 268.648C206.636 268.267 206.343 267.737 206.259 267.156L205.432 259.53C205.432 259.53 202.288 251.919 205.487 247.823Z" fill="#FFB573"/>
<path d="M197.778 171.197C197.668 174.7 197.641 178.451 197.668 182.077C197.696 185.704 197.765 189.399 197.889 193.108C198.151 200.403 198.661 207.683 199.557 214.785L199.64 215.654C199.64 215.654 199.64 215.378 199.64 215.447C199.64 215.516 199.64 215.447 199.64 215.64V215.984L199.75 216.412C199.902 217.019 200.095 217.708 200.302 218.425C200.716 219.804 201.212 221.348 201.681 222.838C202.715 225.83 203.873 228.863 205.059 231.883C206.245 234.903 207.486 237.909 208.768 240.888C210.051 243.866 211.388 246.858 212.74 249.478L202.412 255.49C200.467 252.36 198.895 249.423 197.282 246.417C195.669 243.411 194.166 240.405 192.663 237.371C191.16 234.338 189.726 231.277 188.333 228.105C187.63 226.519 186.954 224.92 186.292 223.21C185.961 222.355 185.644 221.473 185.341 220.452L185.12 219.694L184.886 218.839C184.817 218.549 184.748 218.149 184.679 217.805C184.61 217.46 184.541 216.839 184.5 216.357L184.596 217.225C183.079 209.545 182.018 201.906 181.204 194.267C180.804 190.447 180.459 186.641 180.17 182.808C179.88 178.975 179.646 175.224 179.494 171.225L197.778 171.197Z" fill="#00BD62"/>
<path opacity="0.5" d="M197.778 171.197C197.668 174.7 197.641 178.451 197.668 182.077C197.696 185.704 197.765 189.399 197.889 193.108C198.151 200.403 198.661 207.683 199.557 214.785L199.64 215.654C199.64 215.654 199.64 215.378 199.64 215.447C199.64 215.516 199.64 215.447 199.64 215.64V215.984L199.75 216.412C199.902 217.019 200.095 217.708 200.302 218.425C200.716 219.804 201.212 221.348 201.681 222.838C202.715 225.83 203.873 228.863 205.059 231.883C206.245 234.903 207.486 237.909 208.768 240.888C210.051 243.866 211.388 246.858 212.74 249.478L202.412 255.49C200.467 252.36 198.895 249.423 197.282 246.417C195.669 243.411 194.166 240.405 192.663 237.371C191.16 234.338 189.726 231.277 188.333 228.105C187.63 226.519 186.954 224.92 186.292 223.21C185.961 222.355 185.644 221.473 185.341 220.452L185.12 219.694L184.886 218.839C184.817 218.549 184.748 218.149 184.679 217.805C184.61 217.46 184.541 216.839 184.5 216.357L184.596 217.225C183.079 209.545 182.018 201.906 181.204 194.267C180.804 190.447 180.459 186.641 180.17 182.808C179.88 178.975 179.646 175.224 179.494 171.225L197.778 171.197Z" fill="white"/>
<path d="M189.162 234.489C189.162 234.489 187.562 328.545 183.646 366.616C178.654 416.257 165.265 458.176 162.107 492.469L151.021 490.884C151.021 490.884 150.304 406.922 160.384 366.782C151.242 324.215 151.021 234.544 151.021 234.544L189.162 234.489Z" fill="#FFB573"/>
<path d="M182.597 519.992C181.028 518.872 179.293 518.007 177.454 517.428C177.454 517.428 168.312 512.34 163.265 497.02L156.191 495.269C155.112 494.952 153.957 495.016 152.92 495.45C151.883 495.885 151.027 496.663 150.496 497.654C150.349 497.928 150.255 498.227 150.22 498.537C150.147 500.196 150.184 501.859 150.331 503.514C150.538 508.699 151.379 520.337 151.379 520.337H152.592C152.516 516.812 152.649 513.285 152.992 509.775C153.516 506.355 156.026 510.395 157.46 514.256C158.894 518.117 164.354 522.226 172.311 522.419C181.591 522.599 185.327 522.24 182.597 519.992Z" fill="#263238"/>
<path d="M151.751 497.778C150.983 494.551 150.471 491.268 150.221 487.96L163.32 489.587C163.32 489.587 163.224 497.558 165.623 502.894C160.837 501.665 156.189 499.951 151.751 497.778Z" fill="#263238"/>
<path d="M179.522 234.489C179.522 234.489 163.802 329.551 154.949 367.706C143.408 417.484 141.808 495.875 141.808 495.875L131.398 494.869C131.398 494.869 119.429 423.4 132.308 367.706C131.343 324.96 139.671 234.489 139.671 234.489H179.522Z" fill="#FFB573"/>
<path d="M154.813 519.992C153.41 518.857 151.812 517.988 150.097 517.428C150.097 517.428 144.967 512.34 142.499 497.02L135.784 495.269C134.644 494.992 133.446 495.073 132.354 495.5C131.261 495.926 130.326 496.678 129.675 497.654C129.489 497.925 129.345 498.222 129.248 498.537C128.902 500.179 128.662 501.841 128.531 503.514C127.855 508.699 128.434 520.337 128.434 520.337H129.648L130.13 509.775C130.309 506.19 133.053 510.395 133.839 514.256C134.625 518.117 136.294 522.226 144.154 522.419C153.323 522.599 157.129 522.24 154.813 519.992Z" fill="#263238"/>
<path d="M129.44 497.778C128.999 494.193 128.861 487.96 128.861 487.96L143.781 489.615C143.781 489.615 141.975 496.703 143.464 502.025C135.949 500.053 129.44 497.778 129.44 497.778Z" fill="#263238"/>
<path d="M195.781 166.923C196.332 176.051 196.76 201.851 191.851 241.301H138.39C138.459 222.189 140.017 203.891 131.303 167.957C130.963 166.653 130.905 165.291 131.133 163.963C131.361 162.635 131.87 161.37 132.625 160.255C133.381 159.139 134.366 158.197 135.515 157.492C136.664 156.787 137.949 156.336 139.287 156.167C142.306 155.781 145.754 155.436 149.353 155.271C157.083 154.705 164.844 154.705 172.573 155.271C177.593 155.726 182.97 156.526 187.066 157.229C189.397 157.63 191.524 158.805 193.105 160.564C194.686 162.323 195.629 164.563 195.781 166.923Z" fill="white"/>
<path d="M153.351 130.009C155.102 137.483 157.088 151.162 152.055 156.209C152.055 156.209 156.715 163.613 171.153 169.846C179.109 165.034 175.289 156.209 175.289 156.209C166.878 154.223 166.864 148.032 168.091 142.226L153.351 130.009Z" fill="#FFB573"/>
<path opacity="0.2" d="M159.362 134.974L168.077 142.171C167.761 143.53 167.572 144.915 167.512 146.308C164.313 145.839 159.804 142.351 159.335 139.014C159.098 137.677 159.108 136.307 159.362 134.974Z" fill="black"/>
<path d="M144.953 116.303C148.317 128.451 149.503 133.663 156.839 138.89C167.87 146.777 181.494 140.599 181.659 127.858C181.825 116.372 176.281 98.4186 163.637 95.6056C150.992 92.7926 141.574 104.141 144.953 116.303Z" fill="#FFB573"/>
<path d="M147.435 122.715C150.4 120.15 153.351 108.926 151.807 104.155C162.41 105.023 171.249 101.287 175.524 104.899C175.979 99.3837 171.07 91.91 162.341 91.9928C153.613 92.0755 132.626 102.569 147.435 122.715Z" fill="#263238"/>
<path d="M161.817 116.703C162.024 117.709 162.727 118.426 163.375 118.302C164.023 118.178 164.382 117.282 164.161 116.289C163.941 115.296 163.251 114.565 162.603 114.69C161.955 114.814 161.597 115.71 161.817 116.703Z" fill="#263238"/>
<path d="M173.8 114.511C174.02 115.517 174.723 116.234 175.371 116.11C176.02 115.986 176.378 115.09 176.157 114.097C175.937 113.104 175.247 112.373 174.585 112.497C173.924 112.621 173.593 113.518 173.8 114.511Z" fill="#263238"/>
<path d="M174.324 112.594L176.558 111.477C176.558 111.477 175.731 113.573 174.324 112.594Z" fill="#263238"/>
<path d="M172.049 116.675C173.427 118.802 175.083 120.736 176.972 122.425C176.537 122.884 176.006 123.24 175.417 123.466C174.828 123.693 174.195 123.785 173.566 123.735L172.049 116.675Z" fill="#ED893E"/>
<path d="M169.553 128.768C170.122 128.764 170.69 128.709 171.249 128.603C171.287 128.597 171.324 128.582 171.356 128.561C171.388 128.54 171.415 128.512 171.436 128.48C171.457 128.447 171.471 128.411 171.477 128.372C171.482 128.334 171.48 128.295 171.47 128.258C171.45 128.181 171.403 128.115 171.336 128.071C171.27 128.028 171.19 128.011 171.111 128.024C169.861 128.264 168.572 128.212 167.346 127.872C166.119 127.532 164.987 126.914 164.038 126.066C163.981 126.009 163.904 125.978 163.824 125.978C163.744 125.978 163.667 126.009 163.61 126.066C163.557 126.124 163.527 126.2 163.527 126.279C163.527 126.359 163.557 126.435 163.61 126.493C165.235 127.971 167.357 128.784 169.553 128.768Z" fill="#263238"/>
<path d="M142.209 124.728C143.542 126.794 145.613 128.274 148 128.865C151.172 129.61 152.509 126.81 151.433 123.956C150.468 121.377 147.669 117.889 144.539 118.44C141.409 118.992 140.609 122.191 142.209 124.728Z" fill="#FFB573"/>
<path d="M159.155 111.546C159.237 111.538 159.316 111.513 159.387 111.473C159.458 111.433 159.52 111.377 159.569 111.311C160 110.712 160.571 110.225 161.231 109.894C161.891 109.563 162.622 109.396 163.361 109.408C163.516 109.42 163.669 109.37 163.788 109.269C163.907 109.169 163.981 109.026 163.995 108.871C163.996 108.712 163.94 108.559 163.835 108.439C163.731 108.32 163.587 108.243 163.43 108.223C162.494 108.192 161.565 108.391 160.724 108.802C159.882 109.213 159.155 109.823 158.604 110.581C158.511 110.707 158.472 110.865 158.495 111.02C158.518 111.175 158.602 111.314 158.728 111.408C158.853 111.497 159.002 111.545 159.155 111.546Z" fill="#263238"/>
<path d="M177.759 107.85C177.829 107.823 177.893 107.783 177.948 107.731C178.002 107.678 178.046 107.616 178.076 107.547C178.108 107.475 178.125 107.398 178.127 107.32C178.129 107.242 178.116 107.164 178.088 107.091C178.06 107.018 178.017 106.951 177.963 106.894C177.909 106.838 177.844 106.792 177.772 106.761C176.931 106.323 175.997 106.095 175.049 106.095C174.101 106.095 173.167 106.323 172.326 106.761C172.259 106.803 172.201 106.858 172.156 106.922C172.111 106.987 172.079 107.06 172.062 107.137C172.046 107.214 172.044 107.294 172.059 107.371C172.073 107.449 172.103 107.522 172.146 107.588C172.232 107.722 172.365 107.818 172.519 107.856C172.673 107.895 172.835 107.873 172.974 107.795C173.64 107.449 174.381 107.269 175.132 107.269C175.883 107.269 176.623 107.449 177.29 107.795C177.359 107.837 177.437 107.864 177.518 107.874C177.599 107.883 177.681 107.875 177.759 107.85Z" fill="#263238"/>
<path d="M162.328 114.786L164.562 113.669C164.562 113.669 163.735 115.82 162.328 114.786Z" fill="#263238"/>
<path d="M191.85 241.301L192.912 387.534C168.091 389.561 144.36 388.803 121.967 384.418C120.491 329.551 109.763 269.086 138.39 241.301H191.85Z" fill="#263238"/>
<path opacity="0.2" d="M164.204 340.265L158.605 292.141L172.05 278.256L164.204 340.265Z" fill="black"/>
<path d="M198.193 175.996C197.517 163.158 195.435 158.07 186.996 156.526C178.557 154.981 170.629 154.099 170.629 154.099C173.5 155.977 175.934 158.45 177.766 161.351C179.598 164.251 180.786 167.512 181.249 170.911C181.712 174.311 181.439 177.77 180.449 181.055C179.459 184.339 177.774 187.373 175.51 189.951C169.829 179.388 148.277 162.841 153.448 154.223C148.408 153.966 143.356 154.327 138.404 155.299C130.13 156.898 127.703 162.621 129.744 175.362C134.998 207.904 130.985 247.424 130.985 247.424C130.985 247.424 161.776 261.93 172.008 264.701C188.293 260.73 191.878 249.34 191.878 249.34C191.878 249.34 198.938 188.903 198.193 175.996Z" fill="#00BD62"/>
<path opacity="0.6" d="M198.193 175.996C197.517 163.158 195.435 158.07 186.996 156.526C178.557 154.981 170.629 154.099 170.629 154.099C173.5 155.977 175.934 158.45 177.766 161.351C179.598 164.251 180.786 167.512 181.249 170.911C181.712 174.311 181.439 177.77 180.449 181.055C179.459 184.339 177.774 187.373 175.51 189.951C169.829 179.388 148.277 162.841 153.448 154.223C148.408 153.966 143.356 154.327 138.404 155.299C130.13 156.898 127.703 162.621 129.744 175.362C134.998 207.904 130.985 247.424 130.985 247.424C130.985 247.424 161.776 261.93 172.008 264.701C188.293 260.73 191.878 249.34 191.878 249.34C191.878 249.34 198.938 188.903 198.193 175.996Z" fill="white"/>
<path d="M163.569 199.479C163.569 201.175 162.618 202.554 161.459 202.554C160.301 202.554 159.35 201.175 159.35 199.479C159.35 197.783 160.301 196.404 161.459 196.404C162.618 196.404 163.569 197.783 163.569 199.479Z" fill="#263238"/>
<path d="M153.778 227.154L165.843 181.195C166.057 180.495 166.49 179.882 167.078 179.447C167.667 179.013 168.38 178.779 169.111 178.781L201.971 180.009C202.289 180.002 202.603 180.072 202.889 180.212C203.174 180.352 203.422 180.557 203.613 180.812C203.803 181.067 203.929 181.363 203.982 181.677C204.034 181.99 204.011 182.312 203.915 182.615L191.794 228.574C191.583 229.275 191.151 229.889 190.562 230.324C189.973 230.759 189.259 230.991 188.526 230.987L155.681 229.76C155.366 229.759 155.057 229.685 154.776 229.542C154.496 229.4 154.254 229.193 154.068 228.939C153.883 228.685 153.76 228.391 153.71 228.081C153.659 227.771 153.682 227.453 153.778 227.154Z" fill="#263238"/>
<path d="M154.123 227.967L166.244 182.008C166.453 181.306 166.885 180.691 167.475 180.255C168.064 179.82 168.779 179.588 169.512 179.595L202.357 180.822C202.676 180.813 202.993 180.88 203.28 181.019C203.567 181.158 203.817 181.364 204.007 181.62C204.198 181.875 204.324 182.173 204.376 182.488C204.427 182.803 204.402 183.125 204.302 183.428L192.195 229.401C191.978 230.101 191.542 230.712 190.951 231.144C190.36 231.576 189.645 231.806 188.913 231.8L156.067 230.573C155.749 230.583 155.432 230.515 155.145 230.376C154.858 230.237 154.608 230.031 154.418 229.776C154.227 229.52 154.1 229.222 154.049 228.907C153.998 228.593 154.023 228.27 154.123 227.967Z" fill="#00BD62"/>
<path d="M149.807 212.468L150.386 207.325L158.218 199.217C159.366 198.039 160.886 197.294 162.52 197.107L165.857 196.721C166.408 196.652 166.965 196.784 167.426 197.093C167.888 197.402 168.221 197.867 168.367 198.403L169.994 204.691C170.115 205.253 170.031 205.839 169.758 206.345C169.485 206.85 169.041 207.242 168.505 207.449L161.238 209.903C161.238 209.903 154.509 214.702 149.807 212.468Z" fill="#FFB573"/>
<path d="M145.96 170.122C145.464 170.77 144.829 171.652 144.264 172.438L142.54 174.934C141.391 176.616 140.288 178.322 139.231 180.05C137.117 183.47 135.18 186.995 133.426 190.612C131.747 194.065 130.363 197.654 129.289 201.34C128.289 204.536 127.855 207.882 128.007 211.227L124.904 206.111C124.035 205.56 124.063 205.753 124.256 205.794C124.603 205.905 124.958 205.988 125.318 206.042C126.38 206.228 127.453 206.338 128.531 206.373C131.01 206.444 133.492 206.366 135.963 206.139C138.5 205.918 141.037 205.56 143.519 205.091C145.941 204.639 148.328 204.017 150.662 203.229L155.24 214.261C152.435 215.531 149.54 216.596 146.58 217.446C143.713 218.294 140.805 218.993 137.866 219.542C134.858 220.111 131.819 220.498 128.765 220.7C127.08 220.811 125.389 220.811 123.704 220.7C122.684 220.638 121.669 220.495 120.671 220.273C119.069 219.952 117.549 219.31 116.203 218.384L113.597 216.674L113.101 213.282C112.402 208.027 112.678 202.689 113.914 197.535C114.977 192.873 116.435 188.311 118.271 183.897C120.028 179.634 122.003 175.465 124.187 171.404C125.263 169.391 126.379 167.401 127.538 165.434L129.33 162.496C129.951 161.49 130.516 160.594 131.275 159.477L145.96 170.122Z" fill="#00BD62"/>
<path opacity="0.6" d="M145.96 170.122C145.464 170.77 144.829 171.652 144.264 172.438L142.54 174.934C141.391 176.616 140.288 178.322 139.231 180.05C137.117 183.47 135.18 186.995 133.426 190.612C131.747 194.065 130.363 197.654 129.289 201.34C128.289 204.536 127.855 207.882 128.007 211.227L124.904 206.111C124.035 205.56 124.063 205.753 124.256 205.794C124.603 205.905 124.958 205.988 125.318 206.042C126.38 206.228 127.453 206.338 128.531 206.373C131.01 206.444 133.492 206.366 135.963 206.139C138.5 205.918 141.037 205.56 143.519 205.091C145.941 204.639 148.328 204.017 150.662 203.229L155.24 214.261C152.435 215.531 149.54 216.596 146.58 217.446C143.713 218.294 140.805 218.993 137.866 219.542C134.858 220.111 131.819 220.498 128.765 220.7C127.08 220.811 125.389 220.811 123.704 220.7C122.684 220.638 121.669 220.495 120.671 220.273C119.069 219.952 117.549 219.31 116.203 218.384L113.597 216.674L113.101 213.282C112.402 208.027 112.678 202.689 113.914 197.535C114.977 192.873 116.435 188.311 118.271 183.897C120.028 179.634 122.003 175.465 124.187 171.404C125.263 169.391 126.379 167.401 127.538 165.434L129.33 162.496C129.951 161.49 130.516 160.594 131.275 159.477L145.96 170.122Z" fill="white"/>
</svg>
