<svg width="584" height="494" viewBox="0 0 584 494" fill="none" xmlns="http://www.w3.org/2000/svg">
<circle opacity="0.15" cx="265" cy="248" r="205" fill="#00E577"/>
<path opacity="0.7" d="M68.2631 169.136C68.4855 169.047 69.086 164.673 69.731 159.474C71.0765 148.551 77.515 140.105 85.666 138.443L91.5374 137.238C91.5374 137.238 82.3189 137.238 78.4824 134.538C70.3315 128.825 68.4744 111.934 68.4744 111.934C68.4744 111.934 66.2504 128.825 58.0549 134.538C54.2074 137.238 45 137.238 45 137.238L50.8714 138.443C59.0001 140.105 65.4498 148.551 66.7953 159.474C67.4403 164.718 68.0296 169.047 68.2631 169.136Z" fill="#00E577"/>
<path opacity="0.7" d="M407.6 127.446C407.776 127.375 408.252 123.891 408.762 119.749C409.827 111.048 414.925 104.32 421.378 102.995L426.026 102.036C426.026 102.036 418.728 102.036 415.691 99.8846C409.238 95.3341 407.768 81.8779 407.768 81.8779C407.768 81.8779 406.007 95.3341 399.519 99.8846C396.473 102.036 389.184 102.036 389.184 102.036L393.832 102.995C400.267 104.32 405.373 111.048 406.438 119.749C406.949 123.926 407.415 127.375 407.6 127.446Z" fill="#00E577"/>
<path opacity="0.7" d="M289.317 131.324C289.521 131.241 290.071 127.164 290.662 122.317C291.896 112.135 297.798 104.262 305.269 102.712L310.651 101.589C310.651 101.589 302.201 101.589 298.684 99.0717C291.213 93.7466 289.51 78 289.51 78C289.51 78 287.472 93.7466 279.959 99.0717C276.432 101.589 267.992 101.589 267.992 101.589L273.374 102.712C280.826 104.262 286.738 112.135 287.971 122.317C288.562 127.205 289.103 131.241 289.317 131.324Z" fill="#00E577"/>
<path opacity="0.7" d="M458.013 364.98C458.263 364.879 458.939 359.912 459.664 354.008C461.178 341.604 468.421 332.013 477.591 330.126L484.196 328.757C484.196 328.757 473.826 328.757 469.51 325.691C460.34 319.204 458.251 300.022 458.251 300.022C458.251 300.022 455.749 319.204 446.529 325.691C442.2 328.757 431.842 328.757 431.842 328.757L438.447 330.126C447.592 332.013 454.848 341.604 456.361 354.008C457.087 359.963 457.75 364.879 458.013 364.98Z" fill="#00E577"/>
<path opacity="0.7" d="M214.664 131.324C214.766 131.283 215.041 129.282 215.337 126.903C215.954 121.904 218.905 118.039 222.641 117.278L225.332 116.727C225.332 116.727 221.106 116.727 219.348 115.491C215.612 112.877 214.761 105.147 214.761 105.147C214.761 105.147 213.742 112.877 209.985 115.491C208.222 116.727 204.002 116.727 204.002 116.727L206.693 117.278C210.419 118.039 213.375 121.904 213.991 126.903C214.287 129.302 214.557 131.283 214.664 131.324Z" fill="#00E577"/>
<path opacity="0.7" d="M57.6017 358.194C57.7037 358.153 57.9789 356.152 58.2745 353.772C58.8912 348.774 61.8422 344.909 65.578 344.148L68.2691 343.596C68.2691 343.596 64.0439 343.596 62.2856 342.361C58.5497 339.747 57.6986 332.017 57.6986 332.017C57.6986 332.017 56.6792 339.747 52.923 342.361C51.1595 343.596 46.9395 343.596 46.9395 343.596L49.6305 344.148C53.3562 344.909 56.3123 348.774 56.929 353.772C57.2246 356.172 57.4947 358.153 57.6017 358.194Z" fill="#00E577"/>
<path opacity="0.7" d="M98.3189 304.87C98.5598 304.775 99.2104 300.104 99.9091 294.553C101.367 282.89 108.342 273.871 117.172 272.096L123.533 270.809C123.533 270.809 113.546 270.809 109.39 267.926C100.56 261.827 98.5478 243.79 98.5478 243.79C98.5478 243.79 96.1385 261.827 87.26 267.926C83.0919 270.809 73.1172 270.809 73.1172 270.809L79.4779 272.096C88.284 273.871 95.2711 282.89 96.7288 294.553C97.4275 300.152 98.0659 304.775 98.3189 304.87Z" fill="#00E577"/>
<path opacity="0.7" d="M280.592 417.335C280.759 417.27 281.209 414.083 281.693 410.293C282.702 402.333 287.531 396.177 293.644 394.966L298.048 394.088C298.048 394.088 291.134 394.088 288.256 392.12C282.143 387.956 280.75 375.646 280.75 375.646C280.75 375.646 279.082 387.956 272.936 392.12C270.05 394.088 263.145 394.088 263.145 394.088L267.548 394.966C273.645 396.177 278.482 402.333 279.491 410.293C279.975 414.115 280.417 417.27 280.592 417.335Z" fill="#00E577"/>
<path opacity="0.7" d="M446.382 141.02C446.493 140.976 446.793 138.826 447.115 136.271C447.788 130.902 451.007 126.75 455.083 125.933L458.019 125.341C458.019 125.341 453.409 125.341 451.491 124.014C447.416 121.206 446.487 112.903 446.487 112.903C446.487 112.903 445.375 121.206 441.277 124.014C439.354 125.341 434.75 125.341 434.75 125.341L437.686 125.933C441.75 126.75 444.975 130.902 445.648 136.271C445.97 138.848 446.265 140.976 446.382 141.02Z" fill="#00E577"/>
<path d="M278.519 494C432.341 494 557.038 486.72 557.038 477.739C557.038 468.758 432.341 461.478 278.519 461.478C124.697 461.478 0 468.758 0 477.739C0 486.72 124.697 494 278.519 494Z" fill="#F5F5F5"/>
<path d="M332.19 134.225L319.491 138.965C318.543 138.247 323.327 95.1524 323.327 95.1524L315.627 94.0176C315.627 94.0176 302.613 138.778 307.008 147.828C312.754 159.55 338.122 147.828 338.122 147.828L332.19 134.225Z" fill="#B97964"/>
<path d="M564.636 160.396L570.547 134.693L231.425 56.712L225.514 82.415L564.636 160.396Z" fill="#00BD62"/>
<path opacity="0.6" d="M564.636 160.396L570.547 134.693L231.425 56.712L225.514 82.415L564.636 160.396Z" fill="white"/>
<path opacity="0.2" d="M567.117 149.617L568.061 145.515L228.938 67.5342L227.995 71.6361L567.117 149.617Z" fill="black"/>
<path d="M240.011 72.2548C240.643 69.5202 240.54 66.667 239.712 63.9851C238.885 61.3032 237.362 58.888 235.299 56.985L234.724 56.4535L231.851 55.7784C231.581 55.7183 231.298 55.7677 231.064 55.9157C230.829 56.0637 230.663 56.2984 230.602 56.5685L224.712 82.2383C224.68 82.3714 224.675 82.5094 224.697 82.6445C224.719 82.7795 224.767 82.9089 224.839 83.0251C224.911 83.1414 225.006 83.2421 225.117 83.3216C225.228 83.4011 225.354 83.4577 225.488 83.4881L228.361 84.1632L229.122 83.9334C231.805 83.1183 234.225 81.6091 236.137 79.5583C238.049 77.5075 239.385 74.988 240.011 72.2548Z" fill="#00BD62"/>
<path opacity="0.2" d="M240.011 72.2548C240.643 69.5202 240.54 66.667 239.712 63.9851C238.885 61.3032 237.362 58.888 235.299 56.985L234.724 56.4535L231.851 55.7784C231.581 55.7183 231.298 55.7677 231.064 55.9157C230.829 56.0637 230.663 56.2984 230.602 56.5685L224.712 82.2383C224.68 82.3714 224.675 82.5094 224.697 82.6445C224.719 82.7795 224.767 82.9089 224.839 83.0251C224.911 83.1414 225.006 83.2421 225.117 83.3216C225.228 83.4011 225.354 83.4577 225.488 83.4881L228.361 84.1632L229.122 83.9334C231.805 83.1183 234.225 81.6091 236.137 79.5583C238.049 77.5075 239.385 74.988 240.011 72.2548Z" fill="black"/>
<path d="M300.055 93.4717L316.919 20.082L310.714 18.6455L292.916 96.0574C292.876 96.2309 292.87 96.4108 292.899 96.5866C292.929 96.7623 292.993 96.9305 293.088 97.0814C293.183 97.2323 293.306 97.3629 293.452 97.4657C293.597 97.5686 293.762 97.6416 293.936 97.6806C294.123 97.7243 294.317 97.7277 294.505 97.6905C294.693 97.6534 294.871 97.5765 295.028 97.4651L299.509 94.2618C299.777 94.0688 299.969 93.7899 300.055 93.4717Z" fill="#00BD62"/>
<path d="M366.708 108.799L383.658 35.4091L377.439 33.9727L359.655 111.384C359.573 111.733 359.633 112.1 359.822 112.404C360.01 112.709 360.312 112.926 360.66 113.008C360.847 113.052 361.041 113.056 361.23 113.019C361.418 112.982 361.596 112.905 361.752 112.792L366.248 109.589C366.484 109.383 366.645 109.105 366.708 108.799Z" fill="#00BD62"/>
<path d="M433.375 124.126L450.24 50.7363L444.034 49.2998L426.236 126.712C426.196 126.885 426.19 127.065 426.22 127.241C426.249 127.417 426.313 127.585 426.408 127.736C426.503 127.887 426.627 128.017 426.772 128.12C426.918 128.223 427.082 128.296 427.256 128.335C427.443 128.373 427.636 128.374 427.824 128.337C428.011 128.3 428.189 128.226 428.348 128.119L432.844 124.902C433.103 124.71 433.29 124.437 433.375 124.126Z" fill="#00BD62"/>
<path d="M500.014 139.439L516.878 66.0634L510.673 64.627L492.875 142.039C492.811 142.39 492.88 142.752 493.069 143.054C493.257 143.357 493.552 143.579 493.894 143.676C494.082 143.718 494.277 143.719 494.465 143.679C494.653 143.64 494.831 143.56 494.986 143.447L499.468 140.243C499.738 140.047 499.931 139.762 500.014 139.439Z" fill="#00BD62"/>
<path d="M577.441 104.647L583.352 78.9438L244.229 0.962951L238.319 26.6659L577.441 104.647Z" fill="#00BD62"/>
<path opacity="0.7" d="M577.441 104.647L583.352 78.9438L244.229 0.962951L238.319 26.6659L577.441 104.647Z" fill="white"/>
<path opacity="0.2" d="M579.938 93.8533L580.881 89.7515L241.759 11.7706L240.815 15.8724L579.938 93.8533Z" fill="black"/>
<path d="M233.389 78.1444L250.77 2.49947L244.565 1.06299L226.25 80.7301C226.186 81.081 226.255 81.4429 226.444 81.7456C226.632 82.0483 226.927 82.27 227.269 82.3677C227.457 82.4094 227.652 82.4104 227.84 82.3708C228.028 82.3311 228.206 82.2517 228.361 82.1378L232.857 78.9345C233.119 78.7392 233.307 78.4606 233.389 78.1444Z" fill="#00BD62"/>
<path d="M252.825 16.505C253.452 13.769 253.345 10.9159 252.515 8.23445C251.686 5.55299 250.162 3.13843 248.099 1.23521L247.524 0.703707L244.651 0.0285599C244.518 -0.00336665 244.38 -0.00858605 244.245 0.0132057C244.11 0.0349974 243.981 0.0833691 243.864 0.155514C243.748 0.22766 243.647 0.322142 243.568 0.433501C243.488 0.54486 243.432 0.670882 243.401 0.80426L237.454 26.4885C237.422 26.6215 237.417 26.7596 237.439 26.8946C237.461 27.0297 237.509 27.1591 237.581 27.2753C237.653 27.3915 237.748 27.4923 237.859 27.5718C237.971 27.6512 238.097 27.7078 238.23 27.7382L241.103 28.399L241.85 28.1835C244.547 27.3775 246.982 25.8727 248.91 23.8217C250.837 21.7707 252.188 19.2464 252.825 16.505Z" fill="#00BD62"/>
<path opacity="0.1" d="M252.825 16.505C253.452 13.769 253.345 10.9159 252.515 8.23445C251.686 5.55299 250.162 3.13843 248.099 1.23521L247.524 0.703707L244.651 0.0285599C244.518 -0.00336665 244.38 -0.00858605 244.245 0.0132057C244.11 0.0349974 243.981 0.0833691 243.864 0.155514C243.748 0.22766 243.647 0.322142 243.568 0.433501C243.488 0.54486 243.432 0.670882 243.401 0.80426L237.454 26.4885C237.422 26.6215 237.417 26.7596 237.439 26.8946C237.461 27.0297 237.509 27.1591 237.581 27.2753C237.653 27.3915 237.748 27.4923 237.859 27.5718C237.971 27.6512 238.097 27.7078 238.23 27.7382L241.103 28.399L241.85 28.1835C244.547 27.3775 246.982 25.8727 248.91 23.8217C250.837 21.7707 252.188 19.2464 252.825 16.505Z" fill="white"/>
<path d="M373.962 144.711C373.203 144.635 372.438 144.635 371.678 144.711C366.138 145.336 360.641 146.296 355.216 147.584C342.891 150.184 329.359 153.674 329.359 153.674L323.326 136.092C323.326 136.092 363.074 113.108 369.523 114.99C369.523 114.99 380.311 145.673 373.962 144.711Z" fill="#263238"/>
<path d="M465.179 162.595C465.179 162.595 475.837 174.877 474.631 190.678C473.424 206.479 433.303 230.899 433.303 230.899L428.189 222.999C428.189 222.999 460.151 196.065 460.869 190.678C461.588 185.291 454.233 173.44 454.233 173.44L465.179 162.595Z" fill="#B97964"/>
<path d="M429.626 220.241C429.626 220.241 436.162 229.003 435.846 230.124C435.53 231.244 430.243 234.534 430.243 234.534C430.243 234.534 431.134 239.763 431.134 240.711C431.134 243.052 426.954 245.982 425.876 245.264C422.012 242.679 420.605 235.683 419.886 232.48C419.168 229.276 427.744 219.278 429.626 220.241Z" fill="#00BD62"/>
<path opacity="0.7" d="M429.626 220.241C429.626 220.241 436.162 229.003 435.846 230.124C435.53 231.244 430.243 234.534 430.243 234.534C430.243 234.534 431.134 239.763 431.134 240.711C431.134 243.052 426.954 245.982 425.876 245.264C422.012 242.679 420.605 235.683 419.886 232.48C419.168 229.276 427.744 219.278 429.626 220.241Z" fill="white"/>
<path d="M371.419 475.144L359.769 476.365L357.586 451.241L369.236 450.006L371.419 475.144Z" fill="#B97964"/>
<path d="M429.568 474.296H418.277L417.344 448.138H428.649L429.568 474.296Z" fill="#B97964"/>
<path d="M416.699 472.989H430.417C430.642 472.988 430.861 473.064 431.037 473.206C431.212 473.347 431.333 473.545 431.379 473.765L433.606 483.82C433.652 484.064 433.644 484.315 433.583 484.556C433.522 484.796 433.408 485.021 433.25 485.212C433.093 485.404 432.895 485.559 432.671 485.666C432.447 485.773 432.202 485.83 431.954 485.831C427.515 485.76 424.283 485.487 418.71 485.487C415.277 485.487 404.92 485.846 400.179 485.846C395.439 485.846 394.821 481.163 396.76 480.732C405.465 478.836 412.016 476.207 414.802 473.708C415.318 473.232 415.998 472.975 416.699 472.989Z" fill="#263238"/>
<path d="M412.977 474.972C412.21 475.03 411.446 474.827 410.808 474.397C410.602 474.224 410.442 474.001 410.344 473.75C410.246 473.499 410.213 473.228 410.248 472.961C410.242 472.805 410.282 472.651 410.364 472.518C410.446 472.385 410.565 472.279 410.707 472.214C411.957 471.567 415.606 473.808 416.008 474.067C416.056 474.089 416.095 474.126 416.118 474.173C416.142 474.22 416.148 474.274 416.137 474.325C416.13 474.379 416.108 474.43 416.072 474.471C416.036 474.512 415.989 474.541 415.936 474.555C414.968 474.802 413.976 474.942 412.977 474.972ZM411.296 472.63C411.177 472.618 411.056 472.643 410.951 472.702C410.88 472.702 410.793 472.803 410.779 473.018C410.757 473.196 410.778 473.376 410.84 473.544C410.903 473.711 411.005 473.861 411.138 473.981C412.405 474.555 413.842 474.627 415.16 474.182C413.985 473.418 412.673 472.891 411.296 472.63Z" fill="#00BD62"/>
<path d="M415.864 474.569H415.735C414.571 473.937 412.316 471.452 412.546 470.26C412.586 470.061 412.693 469.882 412.851 469.754C413.008 469.625 413.205 469.556 413.408 469.556C413.61 469.53 413.816 469.546 414.012 469.606C414.208 469.665 414.389 469.766 414.542 469.901C415.85 470.964 416.122 474.21 416.137 474.368C416.138 474.417 416.126 474.464 416.103 474.507C416.081 474.55 416.048 474.586 416.008 474.613C415.956 474.614 415.906 474.599 415.864 474.569ZM413.594 469.987H413.465C413.12 469.987 413.092 470.188 413.077 470.26C412.933 470.993 414.37 472.874 415.534 473.751C415.461 472.464 414.994 471.23 414.198 470.217C414.033 470.066 413.817 469.984 413.594 469.987Z" fill="#00BD62"/>
<path d="M358.535 472.63H372.253C372.478 472.628 372.697 472.705 372.872 472.846C373.048 472.988 373.169 473.185 373.215 473.406L375.442 483.461C375.488 483.705 375.48 483.956 375.419 484.197C375.358 484.437 375.244 484.661 375.086 484.853C374.929 485.045 374.731 485.2 374.507 485.307C374.283 485.414 374.038 485.47 373.79 485.472C369.351 485.4 366.119 485.127 360.546 485.127C357.112 485.127 346.755 485.486 342.015 485.486C337.275 485.486 336.657 480.804 338.596 480.373C347.301 478.476 353.852 475.848 356.638 473.348C357.154 472.873 357.833 472.616 358.535 472.63Z" fill="#263238"/>
<path d="M354.799 474.612C354.032 474.67 353.268 474.468 352.63 474.038C352.424 473.864 352.264 473.642 352.167 473.391C352.069 473.14 352.035 472.869 352.07 472.601C352.064 472.445 352.105 472.291 352.186 472.158C352.268 472.025 352.388 471.92 352.529 471.854C353.779 471.208 357.428 473.449 357.83 473.707C357.878 473.729 357.917 473.767 357.94 473.814C357.964 473.861 357.971 473.915 357.959 473.966C357.953 474.02 357.93 474.071 357.894 474.112C357.858 474.153 357.811 474.182 357.758 474.196C356.79 474.443 355.798 474.583 354.799 474.612ZM353.118 472.228C352.999 472.215 352.878 472.24 352.774 472.3C352.702 472.3 352.616 472.4 352.601 472.616C352.579 472.793 352.6 472.974 352.662 473.141C352.725 473.309 352.827 473.459 352.96 473.578C354.227 474.153 355.665 474.224 356.983 473.779C355.808 473.016 354.495 472.489 353.118 472.228Z" fill="#00BD62"/>
<path d="M357.686 474.21H357.557C356.393 473.578 354.138 471.093 354.368 469.901C354.408 469.702 354.516 469.523 354.673 469.394C354.83 469.266 355.027 469.196 355.23 469.197C355.433 469.17 355.639 469.187 355.834 469.247C356.03 469.306 356.211 469.407 356.365 469.542C357.672 470.605 357.945 473.851 357.959 474.009C357.96 474.057 357.948 474.105 357.926 474.148C357.903 474.19 357.87 474.227 357.83 474.253C357.779 474.254 357.728 474.239 357.686 474.21ZM355.417 469.628H355.287C354.942 469.628 354.914 469.829 354.899 469.901C354.756 470.633 356.192 472.515 357.356 473.391C357.283 472.104 356.817 470.871 356.02 469.858C355.855 469.707 355.64 469.625 355.417 469.628Z" fill="#00BD62"/>
<path opacity="0.2" d="M369.236 450.006L357.586 451.241L358.721 464.198L370.371 462.977L369.236 450.006Z" fill="black"/>
<path opacity="0.2" d="M428.649 448.152H417.344L417.832 461.641H429.137L428.649 448.152Z" fill="black"/>
<path d="M423.982 218.689H364.052C358.306 249.804 340.522 359.924 353.321 458.05L373.604 455.536C373.604 455.536 371.722 325.276 389.635 277.125C391.704 302.896 394.146 330.275 396.272 344.898C401.486 380.81 412.648 459.3 412.648 459.3H433.304C433.304 459.3 429.081 384.172 427.127 348.878C424.987 310.567 424.068 226.59 423.982 218.689Z" fill="#00BD62"/>
<path opacity="0.2" d="M389.634 277.125C386.685 285.567 384.446 294.24 382.94 303.054C381.259 280.07 387.968 255.793 387.968 255.793L389.634 277.125Z" fill="black"/>
<path d="M350.992 462.776L376.102 459.041L375.34 452.088L349.211 455.507L350.992 462.776Z" fill="#00BD62"/>
<path opacity="0.6" d="M350.992 462.776L376.102 459.041L375.34 452.088L349.211 455.507L350.992 462.776Z" fill="white"/>
<path d="M410.162 459.472H434.524V452.189L409.242 451.715L410.162 459.472Z" fill="#00BD62"/>
<path opacity="0.6" d="M410.162 459.472H434.524V452.189L409.242 451.715L410.162 459.472Z" fill="white"/>
<path d="M363.547 219.408H423.879V226.59L362.771 225.843L363.547 219.408Z" fill="#263238"/>
<path d="M404.487 216.175H402.332V228.931H404.487V216.175Z" fill="#00BD62"/>
<path d="M373.963 216.175H371.809V228.931H373.963V216.175Z" fill="#00BD62"/>
<path opacity="0.2" d="M371.679 144.711C366.139 145.337 360.641 146.296 355.217 147.584C357.443 137.959 369.294 130.087 369.294 130.087L371.679 144.711Z" fill="black"/>
<path d="M391.056 218.158H379.895V226.202H391.056V218.158Z" fill="white"/>
<path d="M436.047 120.363C436.047 120.363 434.223 129.527 431.996 142.843C430.99 148.891 429.899 155.772 428.85 163.083C426.149 181.93 423.765 203.377 423.98 219.408H363.548C363.548 219.408 359.626 152.051 369.524 114.99C369.524 114.99 407.648 113.194 436.047 120.363Z" fill="#263238"/>
<path d="M414.371 116.34C408.869 121.339 395.395 119.486 395.395 119.486C395.395 119.486 386.977 117.188 388.744 114.559C393.7 113.74 396.099 111.427 397.09 108.468C397.632 106.634 397.803 104.71 397.592 102.809C397.51 101.748 397.371 100.694 397.176 99.6483L413.825 87.2515C411.656 95.4538 408.984 110.436 414.371 116.34Z" fill="#B97964"/>
<path opacity="0.2" d="M409.989 95.1523C409.328 105.208 401.111 107.908 397.061 108.469C397.603 106.634 397.774 104.71 397.563 102.809L409.989 95.1523Z" fill="black"/>
<path d="M411.915 109.991L395.984 117.174L395.05 111.428L389.204 113.482C388.18 113.837 387.306 114.529 386.727 115.445C386.148 116.361 385.897 117.446 386.015 118.524L386.661 124.844L394.749 120.42L398.771 126.166L417.905 116.958L411.915 109.991Z" fill="#263238"/>
<path opacity="0.2" d="M411.915 109.991L395.984 117.174L395.05 111.428L389.204 113.482C388.18 113.837 387.306 114.529 386.727 115.445C386.148 116.361 385.897 117.446 386.015 118.524L386.661 124.844L394.749 120.42L398.771 126.166L417.905 116.958L411.915 109.991Z" fill="white"/>
<path d="M429.855 118.969C429.855 118.969 415.763 166.373 428.203 174.877C428.203 174.877 426.48 213.863 423.994 219.407C403.86 220.5 383.682 220.5 363.547 219.407C361.918 204.623 361.28 189.746 361.637 174.877C361.637 174.877 366.176 169.131 366.176 164.821C366.176 160.512 368.805 126.036 377.424 114.544H382.222C382.222 114.544 375.283 128.665 376.232 141.119C376.232 141.119 397.305 144.71 412.632 142.556C412.632 142.556 417.171 125.792 422.199 117.417L429.855 118.969Z" fill="#00BD62"/>
<path opacity="0.2" d="M373.962 177.75H409.515C409.515 177.75 411.67 206.954 387.221 205.043C368.532 203.607 373.962 177.75 373.962 177.75Z" fill="black"/>
<path d="M385.785 60.9639C385.785 60.9639 381.031 75.9751 388.256 83.1718C395.482 90.3686 399.992 61.7539 399.992 61.7539L385.785 60.9639Z" fill="#263238"/>
<path d="M412.216 96.3589C411.587 97.3525 410.855 98.2769 410.032 99.1169C407.922 101.378 405.127 102.884 402.078 103.403C399.029 103.922 395.893 103.426 393.154 101.99C389.58 100.198 386.819 97.1182 385.426 93.371C385.228 92.8495 385.06 92.3171 384.923 91.7765C384.584 90.4533 384.33 89.1099 384.161 87.7544C382.854 77.7996 385.038 64.5409 394.59 60.4613C396.437 59.6638 398.422 59.2386 400.433 59.21C402.444 59.1814 404.441 59.55 406.309 60.2947C408.178 61.0393 409.881 62.1454 411.321 63.5495C412.761 64.9535 413.909 66.628 414.701 68.4769C415.663 70.6873 416.082 73.0959 415.922 75.5013C415.477 85.0251 415.563 91.1876 412.216 96.3589Z" fill="#B97964"/>
<path opacity="0.1" d="M412.217 96.359C411.588 97.3526 410.856 98.277 410.033 99.117C407.923 101.378 405.128 102.884 402.079 103.403C399.03 103.922 395.894 103.426 393.154 101.99C389.581 100.198 386.819 97.1183 385.426 93.3711C385.229 92.8496 385.061 92.3172 384.923 91.7766C384.585 90.4534 384.33 89.11 384.162 87.7545C385.827 88.7375 387.684 89.3499 389.606 89.5501C390.921 89.4167 392.236 89.8034 393.269 90.6275C396.889 88.4584 402.721 88.3434 405.408 87.6683C408.094 86.9932 408.798 76.6074 408.798 76.6074L412.217 80.3566C413.696 87.1512 413.538 92.4231 412.217 96.359Z" fill="black"/>
<path d="M398.972 78.9198C398.972 79.8104 398.512 80.5718 397.909 80.5718C397.306 80.5718 396.817 79.8392 396.803 78.9342C396.789 78.0292 397.277 77.2822 397.866 77.2822C398.455 77.2822 398.943 77.9861 398.972 78.9198Z" fill="#263238"/>
<path d="M388.672 79.0492C388.744 79.9542 388.198 80.7012 387.609 80.7012C387.02 80.7012 386.532 79.9686 386.503 79.0636C386.474 78.1586 386.977 77.4116 387.566 77.4116C388.155 77.4116 388.658 78.1873 388.672 79.0492Z" fill="#263238"/>
<path d="M391.946 79.4517C390.879 82.2528 389.429 84.8924 387.637 87.2948C388.268 87.7371 388.99 88.0347 389.75 88.1663C390.509 88.2979 391.289 88.2603 392.032 88.0562L391.946 79.4517Z" fill="#A24E3F"/>
<path d="M402.117 75.5441C402.021 75.557 401.923 75.5453 401.833 75.5101C401.743 75.475 401.662 75.4175 401.6 75.343C401.202 74.8025 400.683 74.3626 400.084 74.0583C399.486 73.754 398.824 73.5939 398.153 73.5905C398.083 73.5985 398.011 73.5919 397.944 73.5713C397.876 73.5507 397.814 73.5164 397.76 73.4707C397.706 73.4249 397.662 73.3686 397.631 73.3052C397.6 73.2418 397.582 73.1727 397.578 73.1021C397.566 72.9633 397.609 72.8253 397.698 72.7179C397.786 72.6104 397.914 72.5421 398.052 72.5275C398.89 72.5207 399.717 72.7124 400.466 73.0869C401.215 73.4615 401.865 74.0082 402.362 74.6822C402.451 74.7909 402.494 74.9305 402.48 75.0706C402.467 75.2106 402.398 75.3396 402.29 75.4292C402.238 75.476 402.18 75.5147 402.117 75.5441Z" fill="#263238"/>
<path d="M393.628 92.7532C394.942 92.947 396.283 92.8167 397.535 92.3735C398.787 91.9304 399.911 91.1878 400.811 90.2106C400.86 90.1554 400.886 90.0827 400.882 90.0086C400.878 89.9346 400.844 89.8651 400.789 89.8156C400.734 89.7661 400.661 89.7405 400.587 89.7446C400.513 89.7486 400.443 89.7819 400.394 89.8371C399.545 90.7148 398.503 91.3822 397.351 91.7862C396.199 92.1902 394.968 92.3197 393.757 92.1642C393.686 92.1588 393.615 92.179 393.557 92.2211C393.499 92.2632 393.458 92.3245 393.441 92.3941C393.435 92.43 393.436 92.4667 393.445 92.5022C393.453 92.5376 393.468 92.5711 393.49 92.6005C393.511 92.63 393.538 92.6548 393.569 92.6736C393.601 92.6925 393.635 92.7049 393.671 92.7101L393.628 92.7532Z" fill="#263238"/>
<path d="M384.205 75.5588C384.101 75.5869 383.992 75.5869 383.889 75.5588C383.761 75.4992 383.662 75.3928 383.611 75.2617C383.56 75.1305 383.562 74.9848 383.616 74.8549C383.958 74.0764 384.482 73.3918 385.145 72.8591C385.807 72.3265 386.589 71.9615 387.423 71.7952C387.563 71.7787 387.705 71.8174 387.817 71.9032C387.93 71.9889 388.005 72.115 388.026 72.2549C388.039 72.3948 387.999 72.5344 387.914 72.6462C387.829 72.7579 387.705 72.8336 387.566 72.8582C386.914 73.0086 386.306 73.3088 385.789 73.7352C385.273 74.1616 384.864 74.7023 384.593 75.3146C384.548 75.3797 384.491 75.435 384.424 75.477C384.358 75.5191 384.283 75.5469 384.205 75.5588Z" fill="#263238"/>
<path d="M407.518 61.7256L406.742 66.624C407.562 67.0523 408.189 67.7735 408.501 68.644C408.812 69.5145 408.784 70.4704 408.423 71.3213C406.685 75.4009 408.825 81.9225 411.914 84.5943C411.914 84.5943 412.072 82.7987 413.565 83.2728C415.059 83.7468 414.327 93.0839 411.224 97.4508C411.224 97.4508 415.835 93.5723 418.694 83.833C421.337 74.8406 421.897 67.2848 420.13 63.7223L407.518 61.7256Z" fill="#263238"/>
<path d="M419.93 65.1296C419.93 65.1296 424.915 57.4301 411.498 53.3792C398.081 49.3283 388.744 55.0886 388.744 55.0886C388.744 55.0886 380.01 65.5175 391.617 67.2269C403.008 68.8788 419.93 65.1296 419.93 65.1296Z" fill="#263238"/>
<path d="M421.913 84.8385C420.704 87.3852 418.534 89.3483 415.879 90.2971C412.36 91.5325 410.363 88.4297 411.139 84.9821C411.843 81.9081 414.515 77.4837 418.163 77.7997C421.812 78.1158 423.363 81.6926 421.913 84.8385Z" fill="#B97964"/>
<path d="M414.441 66.207C414.441 66.207 410.534 103.397 391.645 100.941L393.914 102.478C393.914 102.478 410.893 104.906 416.898 66.5662L414.441 66.207Z" fill="#263238"/>
<path opacity="0.2" d="M414.441 66.207C414.441 66.207 410.534 103.397 391.645 100.941L393.914 102.478C393.914 102.478 410.893 104.906 416.898 66.5662L414.441 66.207Z" fill="black"/>
<path d="M423.536 69.3386C417.962 67.9021 399.819 70.9331 391.287 70.5596C382.754 70.1861 379.982 68.7927 378.588 67.5861C377.195 66.3794 382.309 64.7131 382.309 64.7131C382.309 64.7131 382.984 51.7848 393.585 45.8665C396.814 44.1314 400.394 43.1492 404.057 42.9936C406.836 42.749 409.635 43.0666 412.288 43.9273C425.101 48.2367 424.125 65.4745 424.125 65.4745C424.125 65.4745 429.124 70.7032 423.536 69.3386Z" fill="#00BD62"/>
<path opacity="0.2" d="M423.536 69.3387C417.962 67.9022 399.819 70.9332 391.287 70.5597C382.754 70.1862 379.982 68.7929 378.588 67.5862C377.195 66.3796 382.309 64.7133 382.309 64.7133C382.309 64.7133 387.638 68.3619 393.097 67.3276C398.555 66.2934 414.285 61.9983 424.139 65.4746C424.139 65.5464 429.124 70.7034 423.536 69.3387Z" fill="black"/>
<path opacity="0.2" d="M412.301 43.9417C406.857 44.818 402.246 49.8169 400.177 54.5142C397.39 60.7342 387.665 67.6867 388.915 53.9396C389.059 52.3452 389.552 50.802 390.359 49.4193C391.165 48.0366 392.266 46.8482 393.584 45.9384C396.813 44.2033 400.393 43.2211 404.055 43.0655C406.835 42.8004 409.639 43.0985 412.301 43.9417Z" fill="black"/>
<path d="M333.914 155.111L324.462 133.133L320.354 136.135L327.967 156.26L333.914 155.111Z" fill="#263238"/>
<path opacity="0.2" d="M333.914 155.111L324.462 133.133L320.354 136.135L327.967 156.26L333.914 155.111Z" fill="white"/>
<path d="M316.92 76.4062C316.92 76.4062 316.389 80.4427 318.055 80.8593C321.035 81.7008 324.068 82.3391 327.134 82.7698C328.57 82.7698 329.547 77.0239 329.547 76.4062C329.547 75.7885 318.17 72.2548 316.92 76.4062Z" fill="#00BD62"/>
<path opacity="0.7" d="M316.92 76.4062C316.92 76.4062 316.389 80.4427 318.055 80.8593C321.035 81.7008 324.068 82.3391 327.134 82.7698C328.57 82.7698 329.547 77.0239 329.547 76.4062C329.547 75.7885 318.17 72.2548 316.92 76.4062Z" fill="white"/>
<path opacity="0.2" d="M431.996 142.843C430.99 148.891 429.899 155.772 428.85 163.083C424.11 154.364 427.887 139.855 427.887 139.855L431.996 142.843Z" fill="black"/>
<path d="M436.046 120.362C436.046 120.362 444.536 123.163 474.63 172.478L457.277 183.136C457.277 183.136 435.558 153.329 429.855 151.893C429.855 151.893 422.716 127.3 436.046 120.362Z" fill="#263238"/>
<path d="M473.797 169.375L454.232 183.136L457.996 186.555L476.139 174.949L473.797 169.375Z" fill="#263238"/>
<path opacity="0.2" d="M473.797 169.375L454.232 183.136L457.996 186.555L476.139 174.949L473.797 169.375Z" fill="white"/>
<path d="M276.812 105.163C291.997 105.163 304.306 92.8534 304.306 77.6688C304.306 62.4843 291.997 50.1748 276.812 50.1748C261.628 50.1748 249.318 62.4843 249.318 77.6688C249.318 92.8534 261.628 105.163 276.812 105.163Z" fill="#263238"/>
<path d="M308.179 459.4L298.676 465.679L283.428 444.919L292.93 438.64L308.179 459.4Z" fill="#7F3E3B"/>
<path d="M297.871 464.652L308.27 457.801C308.442 457.675 308.656 457.621 308.867 457.65C309.079 457.679 309.27 457.789 309.401 457.957L315.498 465.757C315.646 465.967 315.75 466.205 315.805 466.456C315.859 466.708 315.862 466.967 315.813 467.22C315.765 467.472 315.666 467.712 315.522 467.925C315.379 468.139 315.194 468.321 314.978 468.461C311.208 470.866 305.696 474.207 300.99 477.327C295.492 480.953 296.285 483.475 288.901 485.607C284.429 486.907 282.635 482.565 284.455 481.616C292.723 477.249 291.54 475.429 295.973 466.94C296.408 466.033 297.06 465.247 297.871 464.652Z" fill="#263238"/>
<path opacity="0.2" d="M283.428 444.932L291.292 455.631L300.795 449.339L292.943 438.64L283.428 444.932Z" fill="black"/>
<path d="M284.781 124.48C270.482 121.296 255.818 120.997 240.921 122.348C238.427 122.586 236.068 123.588 234.165 125.216C232.261 126.845 230.907 129.021 230.287 131.448C226.894 145.241 221.005 176.349 221.941 223.745L282.064 224.72C283.299 216.27 282.324 177.09 292.464 137.545C292.863 136.182 292.978 134.752 292.804 133.343C292.629 131.934 292.167 130.575 291.448 129.351C290.728 128.127 289.765 127.064 288.618 126.226C287.472 125.388 286.166 124.794 284.781 124.48Z" fill="#263238"/>
<path d="M248.576 132.956L250.162 137.441C250.24 137.659 250.376 137.853 250.554 138.001C250.732 138.15 250.947 138.248 251.176 138.286L253.464 138.637C253.878 138.696 254.299 138.614 254.66 138.403L259.015 135.803L254.569 131.734L248.576 132.956Z" fill="#00BD62"/>
<path d="M253.673 137.272C252.831 136.923 251.912 136.802 251.009 136.921C248.331 141.536 243.95 155.029 242.715 161.048C246.381 173.371 248.032 174.723 248.032 174.723L253.361 160.58C253.361 160.58 252.659 145.682 253.673 137.272Z" fill="#00BD62"/>
<path d="M275.94 94.4385C273.509 102.524 270.403 117.448 275.576 123.362C270.676 127.457 264.345 132.15 254.582 131.773C244.819 131.396 247.185 124.805 250.11 121.465C259.47 119.957 259.912 113.145 258.963 106.645L275.94 94.4385Z" fill="#7F3E3B"/>
<path d="M278.151 122.881C277.501 122.514 276.818 122.21 276.111 121.971C275.936 121.907 275.745 121.902 275.567 121.956C275.388 122.01 275.233 122.12 275.123 122.27C273.979 123.765 270.196 130.577 254.57 131.773C256.884 133.515 259.627 138.468 260.784 140.873C265.672 138.949 278.515 133.073 278.58 123.674C278.585 123.516 278.548 123.359 278.473 123.22C278.397 123.081 278.287 122.964 278.151 122.881Z" fill="white"/>
<path d="M250.149 121.841C250.198 121.704 250.211 121.557 250.188 121.413C250.164 121.269 250.106 121.134 250.016 121.018C249.927 120.903 249.81 120.813 249.677 120.754C249.544 120.696 249.398 120.672 249.253 120.684C248.71 120.737 248.172 120.824 247.641 120.944C247.516 120.977 247.398 121.03 247.29 121.1C245.99 122.075 238.398 130.655 243.39 138.728C244.989 136.843 249.89 132.657 254.569 131.773C250.539 129.394 248.889 125.559 250.149 121.841Z" fill="white"/>
<path opacity="0.2" d="M269.025 99.417L258.977 106.645C259.226 108.161 259.334 109.697 259.302 111.234C262.85 110.987 268.024 107.503 268.765 103.863C269.116 102.408 269.204 100.903 269.025 99.417Z" fill="black"/>
<path d="M283.897 84.1558C280.309 94.9194 278.697 101.38 271.82 105.813C261.421 112.469 249.435 104.591 249.799 93.1515C250.111 82.8429 255.922 66.9574 267.621 64.8905C279.321 62.8236 287.472 73.3792 283.897 84.1558Z" fill="#7F3E3B"/>
<path d="M279.776 91.7211L273.367 89.1212C273.367 89.1212 281.037 80.7105 281.479 75.6147C269.584 73.7948 253.023 74.1457 259.886 63.0441C264.514 55.5694 269.948 55.5824 279.997 59.0013C296.48 64.6171 294.296 79.0076 290.578 87.2103C286.86 95.413 279.776 91.7211 279.776 91.7211Z" fill="#263238"/>
<path d="M282.74 91.6823C282.657 91.6799 282.579 91.6475 282.519 91.5913C279.509 88.8026 275.973 86.6416 272.119 85.2345C272.035 85.205 271.965 85.1433 271.926 85.0629C271.887 84.9825 271.882 84.89 271.911 84.8055C271.924 84.7642 271.946 84.726 271.974 84.6931C272.002 84.6602 272.036 84.6333 272.075 84.6139C272.114 84.5945 272.156 84.5831 272.199 84.5803C272.243 84.5775 272.286 84.5833 272.327 84.5975C276.272 86.0365 279.891 88.246 282.974 91.0973C283.034 91.1602 283.068 91.2441 283.068 91.3313C283.068 91.4185 283.034 91.5023 282.974 91.5653C282.914 91.633 282.83 91.6749 282.74 91.6823Z" fill="white"/>
<path d="M259.289 94.7891C260.282 95.0571 261.318 95.1262 262.338 94.9924C263.357 94.8585 264.34 94.5243 265.23 94.0091C265.286 93.9658 265.325 93.9049 265.341 93.8365C265.358 93.7681 265.351 93.696 265.321 93.6322C265.27 93.5837 265.203 93.5566 265.133 93.5566C265.062 93.5566 264.995 93.5837 264.944 93.6322C263.959 94.1806 262.861 94.4973 261.735 94.5581C260.609 94.6189 259.483 94.4223 258.444 93.9831C258.377 93.9563 258.302 93.9562 258.234 93.9827C258.167 94.0093 258.112 94.0605 258.08 94.1261C258.065 94.1576 258.057 94.1918 258.055 94.2267C258.053 94.2616 258.059 94.2965 258.071 94.3293C258.083 94.362 258.102 94.392 258.126 94.4174C258.15 94.4428 258.178 94.4631 258.21 94.4771C258.564 94.6011 258.924 94.7052 259.289 94.7891Z" fill="#263238"/>
<path d="M284.508 96.8172C282.503 98.8567 279.8 100.06 276.942 100.184C273.211 100.275 272.445 96.7392 274.342 93.6843C276.097 90.9544 280.166 87.6005 283.442 88.9525C286.718 90.3044 286.978 94.2823 284.508 96.8172Z" fill="#7F3E3B"/>
<path d="M253.933 335.424C255.233 278.837 269.429 224.485 269.429 224.485L222.475 223.731C222.475 223.731 225.348 305.46 226.166 339.7C227.011 375.293 285.847 456.124 285.847 456.124L301.954 445.478C301.954 445.478 255.194 380.09 253.933 335.424Z" fill="#00BD62"/>
<g style="mix-blend-mode:multiply" opacity="0.2">
<path d="M258.261 255.62C244.326 273.936 249.266 308.385 253.998 332.72C255.053 305.812 258.164 279.024 263.305 252.591L258.261 255.62Z" fill="black"/>
</g>
<path d="M285.119 457.151L304.268 444.49L300.121 438.562L279.984 451.38L285.119 457.151Z" fill="#263238"/>
<path d="M267.296 83.1419C267.049 84.0258 266.4 84.6498 265.828 84.5198C265.256 84.3898 264.983 83.5838 265.217 82.6869C265.451 81.7899 266.114 81.1789 266.686 81.3089C267.257 81.4389 267.53 82.2579 267.296 83.1419Z" fill="#263238"/>
<path d="M257.131 81.2566C256.897 82.1406 256.234 82.7646 255.662 82.6346C255.09 82.5046 254.83 81.6986 255.064 80.8016C255.298 79.9047 255.961 79.2937 256.533 79.4237C257.105 79.5537 257.378 80.4116 257.131 81.2566Z" fill="#263238"/>
<path d="M259.912 82.2969C258.091 84.4947 255.994 86.4479 253.672 88.1077C254.816 89.6416 257.637 89.5376 257.637 89.5376L259.912 82.2969Z" fill="#630F0F"/>
<path d="M271.443 80.6845C271.531 80.7152 271.627 80.7152 271.716 80.6845C271.845 80.6272 271.948 80.5228 272.004 80.3925C272.059 80.2622 272.063 80.1157 272.015 79.9825C271.717 79.2098 271.23 78.5241 270.599 77.9882C269.967 77.4522 269.212 77.0831 268.401 76.9147C268.259 76.8988 268.116 76.9367 268 77.021C267.885 77.1052 267.805 77.2296 267.777 77.3696C267.76 77.4374 267.757 77.5079 267.769 77.5767C267.781 77.6455 267.808 77.7109 267.847 77.7687C267.887 77.8264 267.938 77.8752 267.997 77.9117C268.057 77.9482 268.123 77.9717 268.193 77.9806C268.831 78.1165 269.424 78.4102 269.92 78.8349C270.415 79.2596 270.795 79.8017 271.027 80.4115C271.063 80.4915 271.122 80.5596 271.195 80.6079C271.269 80.6562 271.355 80.6827 271.443 80.6845Z" fill="#263238"/>
<path d="M253.256 76.122C253.334 76.163 253.421 76.1844 253.51 76.1844C253.598 76.1844 253.685 76.163 253.763 76.122C254.312 75.7051 254.95 75.4222 255.627 75.2958C256.304 75.1694 257.001 75.203 257.663 75.394C257.8 75.4421 257.949 75.4367 258.082 75.3788C258.215 75.3209 258.32 75.2148 258.378 75.082C258.405 75.019 258.42 74.9512 258.42 74.8826C258.42 74.8139 258.407 74.746 258.38 74.6828C258.353 74.6196 258.314 74.5624 258.264 74.5149C258.215 74.4673 258.156 74.4303 258.092 74.406C257.271 74.1581 256.403 74.1066 255.559 74.2556C254.714 74.4047 253.917 74.7501 253.23 75.264C253.171 75.3022 253.12 75.3517 253.08 75.4097C253.04 75.4677 253.012 75.5331 252.998 75.602C252.983 75.6709 252.983 75.7419 252.996 75.8111C253.009 75.8803 253.035 75.9462 253.074 76.005C253.123 76.0598 253.186 76.1003 253.256 76.122Z" fill="#263238"/>
<path d="M296.701 466.667C296.726 466.624 296.739 466.574 296.739 466.524C296.739 466.474 296.726 466.425 296.701 466.381C296.677 466.334 296.639 466.295 296.593 466.269C296.546 466.243 296.493 466.233 296.441 466.238C295.869 466.238 290.89 466.875 290.123 468.279C290.049 468.41 290.01 468.558 290.01 468.708C290.01 468.859 290.049 469.006 290.123 469.137C290.217 469.353 290.364 469.541 290.55 469.684C290.737 469.827 290.956 469.921 291.189 469.956C292.788 470.19 295.297 468.019 296.649 466.693L296.701 466.667ZM290.682 468.448C291.254 467.72 293.802 467.148 295.739 466.875C293.841 468.604 292.229 469.553 291.332 469.475C291.179 469.449 291.034 469.386 290.912 469.291C290.789 469.196 290.692 469.071 290.63 468.929C290.597 468.879 290.58 468.82 290.58 468.76C290.58 468.7 290.597 468.642 290.63 468.591C290.628 468.539 290.647 468.488 290.682 468.448Z" fill="#00BD62"/>
<path d="M296.701 466.667C296.701 466.667 296.701 466.667 296.701 466.602C296.727 466.561 296.74 466.514 296.74 466.466C296.74 466.417 296.727 466.37 296.701 466.329C296.623 466.225 294.843 463.82 293.036 463.625C292.772 463.596 292.504 463.62 292.25 463.696C291.995 463.772 291.759 463.898 291.554 464.067C290.982 464.535 290.982 464.977 291.099 465.25C291.567 466.446 294.999 467.005 296.519 466.771C296.555 466.767 296.59 466.756 296.621 466.738C296.653 466.72 296.68 466.696 296.701 466.667ZM291.684 464.691C291.737 464.612 291.803 464.542 291.879 464.483C292.028 464.357 292.203 464.263 292.391 464.209C292.579 464.156 292.777 464.143 292.971 464.171C294.175 464.532 295.232 465.27 295.986 466.277C294.388 466.355 291.879 465.744 291.593 464.977C291.58 464.99 291.528 464.873 291.684 464.691Z" fill="#00BD62"/>
<path d="M287.992 474.35L276.734 474.181L274.693 448.065L285.938 448.247L287.992 474.35Z" fill="#7F3E3B"/>
<path d="M276.253 472.868L288.498 473.063C288.604 473.061 288.709 473.08 288.808 473.119C288.906 473.158 288.996 473.216 289.072 473.29C289.148 473.363 289.209 473.451 289.251 473.548C289.293 473.645 289.316 473.75 289.317 473.856L289.746 483.891C289.743 484.414 289.534 484.915 289.164 485.285C288.794 485.655 288.293 485.864 287.77 485.867C283.364 485.711 281.999 485.36 276.448 485.269C269.948 485.165 264.904 485.438 257.286 485.269C252.672 485.204 252.243 480.537 254.245 480.069C260.575 478.77 270.403 476.274 273.38 473.57C274.221 472.995 275.242 472.746 276.253 472.868Z" fill="#263238"/>
<path opacity="0.2" d="M274.693 448.078L275.746 461.532L287.004 461.714L285.951 448.26L274.693 448.078Z" fill="black"/>
<path d="M286.171 334.644C285.521 283.946 288.771 244.414 282.115 224.694L242.389 224.057C242.389 224.057 256.35 303.107 260.289 337.088C264.371 372.407 271.092 455.539 271.092 455.539L289.226 455.786C289.226 455.786 293.581 374.201 286.171 334.644Z" fill="#00BD62"/>
<path d="M268.297 459.27L290.93 459.634L292.672 452.29L267.479 451.51L268.297 459.27Z" fill="#263238"/>
<path d="M275.602 473.232C275.651 473.214 275.692 473.182 275.722 473.14C275.752 473.099 275.769 473.049 275.771 472.998C275.783 472.944 275.777 472.889 275.753 472.839C275.73 472.79 275.69 472.75 275.641 472.725C275.147 472.478 270.741 470.268 269.376 471.074C269.244 471.148 269.133 471.253 269.051 471.38C268.969 471.507 268.92 471.652 268.908 471.802C268.874 472.039 268.897 472.281 268.977 472.507C269.056 472.734 269.188 472.938 269.363 473.102C270.559 474.181 273.756 473.648 275.563 473.232H275.602ZM269.714 471.503C270.559 471.191 272.95 472.075 274.692 472.881C272.223 473.362 270.39 473.31 269.727 472.699C269.61 472.592 269.523 472.457 269.473 472.307C269.423 472.157 269.412 471.996 269.441 471.841C269.439 471.782 269.454 471.724 269.484 471.674C269.514 471.623 269.557 471.582 269.61 471.555L269.714 471.503Z" fill="#00BD62"/>
<path d="M275.603 473.232C275.647 473.209 275.685 473.175 275.715 473.135C275.744 473.094 275.764 473.047 275.772 472.998C275.772 472.868 275.551 469.8 274.173 468.656C273.98 468.481 273.75 468.352 273.5 468.278C273.25 468.204 272.987 468.186 272.73 468.227C272.002 468.318 271.781 468.695 271.716 469.007C271.482 470.307 274.069 472.686 275.395 473.271C275.43 473.28 275.467 473.282 275.503 473.275C275.539 473.268 275.573 473.254 275.603 473.232ZM272.509 468.786C272.597 468.752 272.688 468.731 272.782 468.721C272.97 468.693 273.161 468.707 273.343 468.761C273.525 468.814 273.693 468.908 273.835 469.033C274.642 470.019 275.12 471.233 275.2 472.504C273.9 471.698 272.106 469.813 272.249 469.033C272.266 468.972 272.299 468.917 272.345 468.874C272.391 468.831 272.447 468.8 272.509 468.786Z" fill="#00BD62"/>
<path d="M276.422 122.946C269.857 131.149 252.607 142.446 248.044 162.153C243.078 142.524 249.786 121.464 249.786 121.464C246.12 121.191 238.515 120.853 233.172 122.348C231.469 122.839 229.931 123.785 228.724 125.083C227.517 126.382 226.687 127.984 226.322 129.719C222.053 151.175 219.893 172.997 219.874 194.873C219.77 236.146 216.377 300.026 216.377 300.026C216.377 300.026 258.183 302.47 291.15 298.921C291.293 267.371 284.729 213.813 286.431 199.813C288.628 181.808 293.633 146.657 296.116 132.033C296.5 130.001 296.125 127.898 295.061 126.125C293.997 124.351 292.318 123.031 290.344 122.413C286.523 121.447 282.553 121.213 278.645 121.724C277.772 121.824 276.973 122.263 276.422 122.946Z" fill="#00BD62"/>
<path opacity="0.7" d="M276.409 122.946C269.844 131.162 252.594 142.446 248.044 162.153C243.078 142.524 249.786 121.464 249.786 121.464C246.12 121.191 238.515 120.853 233.172 122.348C231.469 122.839 229.931 123.785 228.724 125.083C227.517 126.382 226.687 127.984 226.322 129.719C222.053 151.175 219.893 172.997 219.874 194.873C219.77 236.146 216.377 300.026 216.377 300.026C216.377 300.026 258.183 302.47 291.15 298.921C291.293 267.371 284.729 213.813 286.431 199.813C288.628 181.795 293.633 146.644 296.116 132.033C296.515 130.066 296.188 128.022 295.196 126.278C294.205 124.533 292.615 123.207 290.721 122.543C286.791 121.494 282.693 121.221 278.658 121.737C277.778 121.828 276.97 122.263 276.409 122.946Z" fill="white"/>
<path opacity="0.5" d="M245.873 296.204C243.897 256.062 246.861 172.045 247.342 164.532H248.044C247.563 172.032 244.599 255.997 246.575 296.126L245.873 296.204Z" fill="#00BD62"/>
<path d="M244.742 136.31C240.595 143.563 236.617 151.233 233.042 158.812C231.248 162.621 229.572 166.443 228.129 170.225C227.401 172.11 226.751 173.982 226.192 175.776C225.692 177.321 225.318 178.903 225.074 180.508V180.612C225.09 180.426 225.09 180.239 225.074 180.053C225.055 179.616 225.003 179.182 224.918 178.753C224.806 178.308 224.658 177.874 224.476 177.453C224.303 177.081 224.098 176.725 223.865 176.387C223.433 175.737 222.854 175.198 222.175 174.814C221.759 174.632 222.279 174.892 222.877 174.996C224.535 175.33 226.217 175.525 227.908 175.581C231.945 175.749 235.989 175.71 240.023 175.464C244.17 175.204 248.382 174.827 252.581 174.372C254.687 174.138 256.793 173.865 258.885 173.579L262.031 173.15L263.591 172.903L264.371 172.786L264.748 172.721H264.943H265.06H264.865L264.488 172.799L268.258 190.128L267.829 190.206H267.582H267.413H267.192H266.763L265.931 190.297L264.267 190.479L260.952 190.83L254.336 191.467C249.903 191.883 245.47 192.234 240.959 192.455C236.448 192.676 231.859 192.884 227.076 192.676C224.43 192.592 221.795 192.292 219.198 191.779C217.305 191.403 215.475 190.76 213.764 189.868C212.114 188.994 210.69 187.747 209.604 186.228C208.776 185.058 208.197 183.731 207.901 182.328C207.739 181.62 207.657 180.896 207.654 180.17C207.654 179.858 207.654 179.39 207.654 179.195V178.909C207.928 176.185 208.45 173.491 209.214 170.862C209.877 168.496 210.605 166.261 211.372 164.077C212.932 159.722 214.596 155.549 216.312 151.415C218.028 147.281 219.848 143.238 221.668 139.209C223.488 135.179 225.36 131.214 227.31 127.106L244.742 136.31Z" fill="#00BD62"/>
<g opacity="0.7">
<path opacity="0.7" d="M244.742 136.31C240.595 143.563 236.617 151.233 233.042 158.812C231.248 162.621 229.572 166.443 228.129 170.225C227.401 172.11 226.751 173.982 226.192 175.776C225.692 177.321 225.318 178.903 225.074 180.508V180.612C225.09 180.426 225.09 180.239 225.074 180.053C225.055 179.616 225.003 179.182 224.918 178.753C224.806 178.308 224.658 177.874 224.476 177.453C224.303 177.081 224.098 176.725 223.865 176.387C223.433 175.737 222.854 175.198 222.175 174.814C221.759 174.632 222.279 174.892 222.877 174.996C224.535 175.33 226.217 175.525 227.908 175.581C231.945 175.749 235.989 175.71 240.023 175.464C244.17 175.204 248.382 174.827 252.581 174.372C254.687 174.138 256.793 173.865 258.885 173.579L262.031 173.15L263.591 172.903L264.371 172.786L264.748 172.721H264.943H265.06H264.865L264.488 172.799L268.258 190.128L267.829 190.206H267.582H267.413H267.192H266.763L265.931 190.297L264.267 190.479L260.952 190.83L254.336 191.467C249.903 191.883 245.47 192.234 240.959 192.455C236.448 192.676 231.859 192.884 227.076 192.676C224.43 192.592 221.795 192.292 219.198 191.779C217.305 191.403 215.475 190.76 213.764 189.868C212.114 188.994 210.69 187.747 209.604 186.228C208.776 185.058 208.197 183.731 207.901 182.328C207.739 181.62 207.657 180.896 207.654 180.17C207.654 179.858 207.654 179.39 207.654 179.195V178.909C207.928 176.185 208.45 173.491 209.214 170.862C209.877 168.496 210.605 166.261 211.372 164.077C212.932 159.722 214.596 155.549 216.312 151.415C218.028 147.281 219.848 143.238 221.668 139.209C223.488 135.179 225.36 131.214 227.31 127.106L244.742 136.31Z" fill="white"/>
</g>
<path d="M233.03 174.451L224.541 166.339L218.77 178.402C218.77 178.402 227.271 184.902 231.119 181.002L233.03 174.451Z" fill="#7F3E3B"/>
<path d="M264.072 178.584L271.872 169.784L278.606 181.353C278.606 181.353 270.676 188.503 266.542 184.993L264.072 178.584Z" fill="#7F3E3B"/>
<path d="M283.572 168.73L285.236 173.241C285.553 174.141 285.555 175.122 285.244 176.023C284.932 176.925 284.325 177.695 283.52 178.207L278.632 181.353L271.898 169.783L278.476 166.716C278.939 166.484 279.445 166.353 279.961 166.331C280.478 166.308 280.993 166.395 281.474 166.585C281.955 166.775 282.39 167.064 282.752 167.434C283.113 167.804 283.393 168.245 283.572 168.73Z" fill="#7F3E3B"/>
<path d="M212.803 166.209L211.503 170.824C211.265 171.747 211.346 172.723 211.733 173.593C212.12 174.464 212.79 175.179 213.635 175.621L218.834 178.363L224.606 166.3L217.781 163.778C217.298 163.574 216.776 163.477 216.252 163.491C215.727 163.506 215.212 163.632 214.74 163.863C214.268 164.093 213.852 164.421 213.517 164.826C213.183 165.231 212.94 165.702 212.803 166.209Z" fill="#7F3E3B"/>
<path d="M296.129 130.148C296.597 132.67 296.961 134.919 297.338 137.298C297.715 139.677 298.04 142.004 298.326 144.369C298.937 149.101 299.444 153.859 299.691 158.76C300.012 163.873 299.903 169.004 299.366 174.099C299.029 177.225 298.254 180.289 297.065 183.199C296.693 184.095 296.259 184.964 295.765 185.799C295.453 186.267 295.18 186.709 294.803 187.19L294.53 187.541C294.423 187.692 294.306 187.835 294.179 187.97C293.82 188.385 293.433 188.776 293.022 189.14C291.861 190.134 290.543 190.929 289.122 191.493C288.184 191.874 287.219 192.187 286.236 192.429C283.404 193.051 280.517 193.391 277.617 193.443C275.017 193.521 272.561 193.443 270.13 193.365C265.268 193.17 260.562 192.702 255.83 192.234C251.098 191.766 246.522 191.168 241.908 190.518C237.293 189.868 232.743 189.218 228.037 188.477L231.248 171.032C235.525 171.915 240.01 172.669 244.417 173.384C248.823 174.099 253.269 174.684 257.676 175.165C262.083 175.646 266.477 175.997 270.754 176.179C272.873 176.244 274.978 176.27 276.954 176.179C278.624 176.15 280.287 175.959 281.92 175.607C282.128 175.607 282.349 175.464 282.284 175.464C281.952 175.621 281.645 175.827 281.374 176.075C281.172 176.245 280.985 176.432 280.815 176.634C280.698 176.79 280.815 176.712 280.724 176.738C280.724 176.738 280.815 176.543 280.893 176.322C281.349 174.95 281.633 173.527 281.738 172.084C282.046 168.079 281.981 164.053 281.543 160.06C281.14 155.835 280.516 151.532 279.749 147.229C279.346 145.084 278.904 142.939 278.449 140.795C277.994 138.65 277.461 136.453 276.941 134.516L296.129 130.148Z" fill="#00BD62"/>
<g opacity="0.7">
<path opacity="0.7" d="M296.129 130.148C296.597 132.67 296.961 134.919 297.338 137.298C297.715 139.677 298.04 142.004 298.326 144.369C298.937 149.101 299.444 153.859 299.691 158.76C300.012 163.873 299.903 169.004 299.366 174.099C299.029 177.225 298.254 180.289 297.065 183.199C296.693 184.095 296.259 184.964 295.765 185.799C295.453 186.267 295.18 186.709 294.803 187.19L294.53 187.541C294.423 187.692 294.306 187.835 294.179 187.97C293.82 188.385 293.433 188.776 293.022 189.14C291.861 190.134 290.543 190.929 289.122 191.493C288.184 191.874 287.219 192.187 286.236 192.429C283.404 193.051 280.517 193.391 277.617 193.443C275.017 193.521 272.561 193.443 270.13 193.365C265.268 193.17 260.562 192.702 255.83 192.234C251.098 191.766 246.522 191.168 241.908 190.518C237.293 189.868 232.743 189.218 228.037 188.477L231.248 171.032C235.525 171.915 240.01 172.669 244.417 173.384C248.823 174.099 253.269 174.684 257.676 175.165C262.083 175.646 266.477 175.997 270.754 176.179C272.873 176.244 274.978 176.27 276.954 176.179C278.624 176.15 280.287 175.959 281.92 175.607C282.128 175.607 282.349 175.464 282.284 175.464C281.952 175.621 281.645 175.827 281.374 176.075C281.172 176.245 280.985 176.432 280.815 176.634C280.698 176.79 280.815 176.712 280.724 176.738C280.724 176.738 280.815 176.543 280.893 176.322C281.349 174.95 281.633 173.527 281.738 172.084C282.046 168.079 281.981 164.053 281.543 160.06C281.14 155.835 280.516 151.532 279.749 147.229C279.346 145.084 278.904 142.939 278.449 140.795C277.994 138.65 277.461 136.453 276.941 134.516L296.129 130.148Z" fill="white"/>
</g>
<path d="M266.75 222.952L286.249 237.16C286.249 237.16 288.459 256.243 277.5 258.115C266.542 259.987 264.384 236.705 266.75 222.952Z" fill="#00BD62"/>
<path opacity="0.5" d="M266.75 222.952L286.249 237.16C286.249 237.16 288.459 256.243 277.5 258.115C266.542 259.987 264.384 236.705 266.75 222.952Z" fill="white"/>
<path d="M224.554 222.952L217.417 237.16C217.417 237.16 215.142 256.243 218.34 258.115C221.538 259.987 224.125 236.705 224.554 222.952Z" fill="#00BD62"/>
<path opacity="0.5" d="M224.554 222.952L217.417 237.16C217.417 237.16 215.142 256.243 218.34 258.115C221.538 259.987 224.125 236.705 224.554 222.952Z" fill="white"/>
<path d="M252.373 87.5225C252.137 87.5223 251.901 87.4962 251.671 87.4445C251.217 87.3319 250.792 87.1242 250.425 86.8351C250.057 86.546 249.755 86.1821 249.539 85.7676C249.05 84.6803 248.782 83.5067 248.751 82.315C248.72 81.1233 248.926 79.9373 249.357 78.8258C250.657 74.679 253.894 71.7931 256.494 72.3261C256.947 72.441 257.37 72.6496 257.738 72.9385C258.105 73.2273 258.407 73.59 258.626 74.003C259.114 75.0903 259.382 76.2639 259.413 77.4556C259.445 78.6473 259.239 79.8334 258.808 80.9448C257.573 84.7926 254.817 87.5225 252.373 87.5225ZM255.779 72.6121C253.478 72.6121 250.839 75.212 249.669 78.8908C248.812 81.0564 248.849 83.4736 249.773 85.6116C249.968 85.9867 250.24 86.3162 250.572 86.5784C250.903 86.8406 251.287 87.0295 251.697 87.1325C254.141 87.7045 257.157 84.9096 258.444 80.9318C259.267 78.7687 259.206 76.3687 258.275 74.25C258.084 73.8743 257.814 73.544 257.485 73.2816C257.155 73.0191 256.773 72.8307 256.364 72.7291C256.174 72.6677 255.978 72.6285 255.779 72.6121Z" fill="white"/>
<path d="M266.217 90.5126C265.89 90.5102 265.563 90.4753 265.242 90.4086C264.452 90.1946 263.723 89.7969 263.116 89.248C262.508 88.6991 262.038 88.0144 261.746 87.2497C260.998 85.4327 260.847 83.4249 261.317 81.5169C262.265 77.331 265.58 74.5102 268.7 75.2121C269.491 75.4261 270.219 75.8238 270.827 76.3727C271.435 76.9216 271.904 77.6063 272.197 78.371C272.939 80.1849 273.089 82.1866 272.626 84.0908C271.768 87.8477 269.012 90.5126 266.217 90.5126ZM267.725 75.4331C265.125 75.4331 262.46 78.033 261.642 81.5949C261.19 83.433 261.331 85.3665 262.044 87.1197C262.315 87.839 262.753 88.4832 263.323 88.9988C263.893 89.5143 264.578 89.8863 265.32 90.0836C268.245 90.7596 271.378 88.0297 272.301 84.0258C272.752 82.1877 272.611 80.2542 271.898 78.501C271.626 77.7828 271.187 77.1396 270.617 76.6243C270.048 76.109 269.364 75.7364 268.622 75.5371C268.328 75.4705 268.027 75.4356 267.725 75.4331Z" fill="white"/>
<path d="M261.252 83.4795C261.171 83.4832 261.092 83.4552 261.031 83.4015C260.67 83.0516 260.235 82.7861 259.758 82.6243C259.282 82.4625 258.775 82.4082 258.275 82.4655C258.189 82.4828 258.1 82.4651 258.026 82.4163C257.953 82.3675 257.903 82.2917 257.885 82.2055C257.868 82.1193 257.886 82.0298 257.935 81.9567C257.983 81.8836 258.059 81.8328 258.145 81.8156C258.744 81.7375 259.353 81.795 259.927 81.9841C260.501 82.1731 261.025 82.4887 261.46 82.9075C261.492 82.9378 261.517 82.9742 261.534 83.0144C261.551 83.0546 261.56 83.0978 261.56 83.1415C261.56 83.1852 261.551 83.2284 261.534 83.2686C261.517 83.3088 261.492 83.3452 261.46 83.3755C261.405 83.4328 261.331 83.4695 261.252 83.4795Z" fill="white"/>
<path d="M264.89 167.509L264.175 165.91C275.251 161.022 282.531 151.142 281.4 145.904C280.802 143.135 277.89 142.55 275.511 142.589C264.084 142.693 260.263 154.002 257.182 163.102C256.792 164.272 256.402 165.39 256.025 166.43L254.387 165.832C254.751 164.805 255.128 163.7 255.531 162.543C258.612 153.443 262.836 140.951 275.498 140.847H275.641C281.257 140.847 282.739 143.772 283.116 145.527C284.403 151.48 276.889 162.153 264.89 167.509Z" fill="#263238"/>
<path d="M262.148 165.572C261.264 167.496 261.628 169.537 262.941 170.135C264.254 170.733 266.048 169.667 266.919 167.743C267.79 165.819 267.439 163.778 266.126 163.18C264.813 162.582 263.019 163.609 262.148 165.572Z" fill="#263238"/>
<path d="M252.255 165.572C251.371 167.496 251.735 169.537 253.048 170.135C254.361 170.733 256.155 169.667 257.026 167.743C257.897 165.819 257.559 163.778 256.233 163.18C254.907 162.582 253.139 163.609 252.255 165.572Z" fill="#263238"/>
<path d="M235.802 146.515C236.031 144.084 234.292 141.934 231.919 141.71C229.546 141.487 227.437 143.277 227.209 145.707C226.98 148.137 228.719 150.288 231.092 150.511C233.465 150.734 235.574 148.945 235.802 146.515Z" fill="#263238"/>
<path d="M276.358 142.575C276.254 142.594 276.149 142.594 276.046 142.575C275.938 142.535 275.839 142.474 275.755 142.395C275.671 142.316 275.603 142.221 275.556 142.116C275.509 142.011 275.483 141.897 275.48 141.782C275.477 141.667 275.497 141.552 275.539 141.444C275.539 141.379 278.308 133.879 273.953 122.634C273.911 122.527 273.891 122.413 273.893 122.299C273.895 122.184 273.92 122.071 273.966 121.966C274.011 121.861 274.078 121.766 274.16 121.687C274.243 121.607 274.34 121.545 274.447 121.503C274.553 121.461 274.667 121.441 274.782 121.443C274.896 121.445 275.01 121.47 275.115 121.516C275.22 121.562 275.315 121.628 275.394 121.71C275.473 121.793 275.536 121.89 275.578 121.997C280.206 133.918 277.294 141.743 277.164 142.068C277.094 142.223 276.981 142.354 276.837 142.444C276.694 142.534 276.527 142.58 276.358 142.575Z" fill="#263238"/>
<path d="M229.819 145.656H229.637C229.412 145.603 229.216 145.466 229.09 145.272C228.964 145.078 228.918 144.843 228.961 144.616C229.13 143.797 233.355 124.441 249.591 120.619C249.817 120.567 250.054 120.608 250.25 120.731C250.447 120.854 250.586 121.05 250.638 121.276C250.689 121.502 250.649 121.739 250.526 121.935C250.403 122.131 250.207 122.27 249.981 122.322C234.837 125.897 230.716 144.785 230.677 144.967C230.633 145.162 230.524 145.336 230.368 145.462C230.212 145.587 230.019 145.655 229.819 145.656Z" fill="#263238"/>
<path d="M112.348 59.4053C102.213 66.7411 93.788 95.519 117.96 107.143C142.133 118.767 176.219 117.83 165.919 92.5543C155.618 67.2789 159.3 52.4143 134.976 49.5323C110.652 46.6504 112.348 59.4053 112.348 59.4053Z" fill="#263238"/>
<path d="M177.487 210.823L182.368 212.519L188.573 221.923C189.48 223.299 189.884 224.945 189.718 226.584L189.359 229.921C189.307 230.474 189.056 230.99 188.653 231.372C188.25 231.755 187.722 231.979 187.167 232.003L180.686 232.224C180.099 232.233 179.529 232.028 179.082 231.648C178.636 231.267 178.343 230.736 178.259 230.156L177.432 222.53C177.432 222.53 174.288 214.919 177.487 210.823Z" fill="#FFB573"/>
<path d="M169.778 134.197C169.668 137.7 169.641 141.45 169.668 145.077C169.696 148.703 169.765 152.399 169.889 156.108C170.151 163.403 170.661 170.683 171.557 177.785L171.64 178.653C171.64 178.653 171.64 178.378 171.64 178.446C171.64 178.515 171.64 178.446 171.64 178.64V178.984L171.75 179.412C171.902 180.018 172.095 180.708 172.302 181.425C172.716 182.804 173.212 184.348 173.681 185.837C174.715 188.83 175.873 191.863 177.059 194.883C178.245 197.903 179.486 200.909 180.768 203.887C182.051 206.866 183.388 209.858 184.74 212.478L174.412 218.49C172.467 215.36 170.895 212.423 169.282 209.417C167.669 206.411 166.166 203.405 164.663 200.371C163.16 197.338 161.726 194.276 160.333 191.105C159.63 189.519 158.954 187.92 158.292 186.21C157.961 185.355 157.644 184.472 157.341 183.452L157.12 182.694L156.886 181.839C156.817 181.549 156.748 181.149 156.679 180.804C156.61 180.46 156.541 179.839 156.5 179.357L156.596 180.225C155.079 172.545 154.018 164.906 153.204 157.266C152.804 153.447 152.459 149.641 152.17 145.808C151.88 141.974 151.646 138.224 151.494 134.225L169.778 134.197Z" fill="#00BD62"/>
<path opacity="0.5" d="M169.778 134.197C169.668 137.7 169.641 141.45 169.668 145.077C169.696 148.703 169.765 152.399 169.889 156.108C170.151 163.403 170.661 170.683 171.557 177.785L171.64 178.653C171.64 178.653 171.64 178.378 171.64 178.446C171.64 178.515 171.64 178.446 171.64 178.64V178.984L171.75 179.412C171.902 180.018 172.095 180.708 172.302 181.425C172.716 182.804 173.212 184.348 173.681 185.837C174.715 188.83 175.873 191.863 177.059 194.883C178.245 197.903 179.486 200.909 180.768 203.887C182.051 206.866 183.388 209.858 184.74 212.478L174.412 218.49C172.467 215.36 170.895 212.423 169.282 209.417C167.669 206.411 166.166 203.405 164.663 200.371C163.16 197.338 161.726 194.276 160.333 191.105C159.63 189.519 158.954 187.92 158.292 186.21C157.961 185.355 157.644 184.472 157.341 183.452L157.12 182.694L156.886 181.839C156.817 181.549 156.748 181.149 156.679 180.804C156.61 180.46 156.541 179.839 156.5 179.357L156.596 180.225C155.079 172.545 154.018 164.906 153.204 157.266C152.804 153.447 152.459 149.641 152.17 145.808C151.88 141.974 151.646 138.224 151.494 134.225L169.778 134.197Z" fill="white"/>
<path d="M161.162 197.489C161.162 197.489 159.562 291.545 155.646 329.616C150.654 379.257 137.265 421.176 134.107 455.469L123.021 453.884C123.021 453.884 122.304 369.922 132.384 329.782C123.242 287.215 123.021 197.544 123.021 197.544L161.162 197.489Z" fill="#FFB573"/>
<path d="M154.597 482.993C153.028 481.872 151.293 481.007 149.454 480.428C149.454 480.428 140.312 475.34 135.265 460.02L128.191 458.269C127.112 457.952 125.957 458.016 124.92 458.45C123.883 458.885 123.027 459.663 122.496 460.654C122.349 460.928 122.255 461.228 122.22 461.537C122.147 463.197 122.184 464.86 122.331 466.515C122.538 471.699 123.379 483.337 123.379 483.337H124.592C124.516 479.812 124.649 476.285 124.992 472.775C125.516 469.355 128.026 473.395 129.46 477.256C130.894 481.117 136.354 485.226 144.311 485.42C153.591 485.599 157.327 485.24 154.597 482.993Z" fill="#263238"/>
<path d="M123.751 460.778C122.983 457.551 122.471 454.268 122.221 450.96L135.32 452.588C135.32 452.588 135.224 460.558 137.623 465.894C132.837 464.665 128.189 462.951 123.751 460.778Z" fill="#263238"/>
<path d="M151.522 197.489C151.522 197.489 135.802 292.551 126.949 330.706C115.408 380.484 113.808 458.875 113.808 458.875L103.398 457.869C103.398 457.869 91.4287 386.4 104.308 330.706C103.343 287.96 111.671 197.489 111.671 197.489H151.522Z" fill="#FFB573"/>
<path d="M126.813 482.992C125.41 481.857 123.812 480.988 122.097 480.428C122.097 480.428 116.967 475.339 114.499 460.02L107.784 458.269C106.644 457.992 105.446 458.073 104.354 458.499C103.261 458.926 102.326 459.678 101.675 460.654C101.489 460.925 101.345 461.222 101.248 461.537C100.902 463.179 100.662 464.841 100.531 466.514C99.855 471.699 100.434 483.337 100.434 483.337H101.648L102.13 472.775C102.309 469.19 105.053 473.395 105.839 477.256C106.625 481.117 108.294 485.226 116.154 485.419C125.323 485.599 129.129 485.24 126.813 482.992Z" fill="#263238"/>
<path d="M101.44 460.778C100.999 457.193 100.861 450.96 100.861 450.96L115.781 452.615C115.781 452.615 113.975 459.703 115.464 465.025C107.949 463.053 101.44 460.778 101.44 460.778Z" fill="#263238"/>
<path d="M167.781 129.923C168.332 139.051 168.76 164.851 163.851 204.301H110.39C110.459 185.19 112.017 166.891 103.303 130.957C102.963 129.653 102.905 128.291 103.133 126.963C103.361 125.635 103.87 124.371 104.625 123.255C105.381 122.139 106.366 121.197 107.515 120.492C108.664 119.787 109.949 119.336 111.287 119.167C114.306 118.781 117.754 118.437 121.353 118.271C129.083 117.705 136.844 117.705 144.573 118.271C149.593 118.726 154.97 119.526 159.066 120.229C161.397 120.63 163.524 121.805 165.105 123.564C166.686 125.323 167.629 127.563 167.781 129.923Z" fill="white"/>
<path d="M125.351 93.0093C127.102 100.483 129.088 114.162 124.055 119.209C124.055 119.209 128.715 126.613 143.153 132.846C151.109 128.034 147.289 119.209 147.289 119.209C138.878 117.223 138.864 111.032 140.091 105.226L125.351 93.0093Z" fill="#FFB573"/>
<path opacity="0.2" d="M131.362 97.9736L140.077 105.172C139.761 106.53 139.572 107.915 139.512 109.308C136.313 108.839 131.804 105.351 131.335 102.014C131.098 100.677 131.108 99.3075 131.362 97.9736Z" fill="black"/>
<path d="M116.953 79.303C120.317 91.4511 121.503 96.6634 128.839 101.889C139.87 109.777 153.494 103.599 153.659 90.8582C153.825 79.3719 148.281 61.4185 135.637 58.6055C122.992 55.7926 113.574 67.141 116.953 79.303Z" fill="#FFB573"/>
<path d="M119.435 85.715C122.4 83.1502 125.351 71.9259 123.807 67.1548C134.41 68.0236 143.249 64.2867 147.524 67.8995C147.979 62.3838 143.07 54.9101 134.341 54.9929C125.613 55.0756 104.626 65.5691 119.435 85.715Z" fill="#263238"/>
<path d="M133.817 79.7027C134.024 80.7093 134.727 81.4264 135.375 81.3023C136.023 81.1782 136.382 80.2819 136.161 79.2891C135.941 78.2962 135.251 77.5654 134.603 77.6895C133.955 77.8136 133.597 78.7099 133.817 79.7027Z" fill="#263238"/>
<path d="M145.8 77.5104C146.02 78.517 146.723 79.234 147.371 79.1099C148.02 78.9858 148.378 78.0895 148.157 77.0967C147.937 76.1039 147.247 75.373 146.585 75.4971C145.924 75.6212 145.593 76.5175 145.8 77.5104Z" fill="#263238"/>
<path d="M146.324 75.5935L148.558 74.4766C148.558 74.4766 147.731 76.5725 146.324 75.5935Z" fill="#263238"/>
<path d="M144.049 79.6753C145.427 81.8018 147.083 83.7355 148.972 85.4253C148.537 85.8839 148.006 86.2395 147.417 86.4662C146.828 86.6928 146.195 86.7848 145.566 86.7353L144.049 79.6753Z" fill="#ED893E"/>
<path d="M141.553 91.7683C142.122 91.764 142.69 91.7086 143.249 91.6028C143.287 91.5965 143.324 91.5822 143.356 91.561C143.388 91.5397 143.415 91.5119 143.436 91.4795C143.457 91.447 143.471 91.4105 143.477 91.3723C143.482 91.3342 143.48 91.2953 143.47 91.2581C143.45 91.1813 143.403 91.1146 143.336 91.0712C143.27 91.0278 143.19 91.0109 143.111 91.0237C141.861 91.2635 140.572 91.2116 139.346 90.872C138.119 90.5324 136.987 89.9142 136.038 89.0656C135.981 89.0092 135.904 88.9775 135.824 88.9775C135.744 88.9775 135.667 89.0092 135.61 89.0656C135.557 89.124 135.527 89.2003 135.527 89.2793C135.527 89.3584 135.557 89.4346 135.61 89.4931C137.235 90.9712 139.357 91.7834 141.553 91.7683Z" fill="#263238"/>
<path d="M114.209 87.7283C115.542 89.7946 117.613 91.2742 120 91.865C123.172 92.6096 124.509 89.8105 123.433 86.9561C122.468 84.3776 119.669 80.8889 116.539 81.4405C113.409 81.992 112.609 85.1911 114.209 87.7283Z" fill="#FFB573"/>
<path d="M131.155 74.546C131.237 74.5384 131.316 74.5136 131.387 74.4732C131.458 74.4328 131.52 74.3777 131.569 74.3116C132 73.712 132.571 73.2257 133.231 72.8943C133.891 72.563 134.622 72.3963 135.361 72.4087C135.516 72.4202 135.669 72.3702 135.788 72.2696C135.907 72.169 135.981 72.0258 135.995 71.8709C135.996 71.7124 135.94 71.559 135.835 71.4396C135.731 71.3202 135.587 71.243 135.43 71.2228C134.494 71.1921 133.565 71.391 132.724 71.802C131.882 72.213 131.155 72.8237 130.604 73.5807C130.511 73.707 130.472 73.865 130.495 74.02C130.518 74.1751 130.602 74.3146 130.728 74.4081C130.853 74.497 131.002 74.5451 131.155 74.546Z" fill="#263238"/>
<path d="M149.759 70.85C149.829 70.8231 149.893 70.7824 149.948 70.7303C150.002 70.6782 150.046 70.6158 150.076 70.5466C150.108 70.4751 150.125 70.398 150.127 70.3197C150.129 70.2414 150.116 70.1635 150.088 70.0904C150.06 70.0173 150.017 69.9505 149.963 69.8939C149.909 69.8373 149.844 69.792 149.772 69.7606C148.931 69.3231 147.997 69.0947 147.049 69.0947C146.101 69.0947 145.167 69.3231 144.326 69.7606C144.259 69.8027 144.201 69.8576 144.156 69.9221C144.111 69.9867 144.079 70.0596 144.062 70.1367C144.046 70.2137 144.044 70.2933 144.059 70.3708C144.073 70.4483 144.103 70.5221 144.146 70.588C144.232 70.7217 144.365 70.8176 144.519 70.8561C144.673 70.8945 144.835 70.8726 144.974 70.7948C145.64 70.4491 146.381 70.2686 147.132 70.2686C147.883 70.2686 148.623 70.4491 149.29 70.7948C149.359 70.8373 149.437 70.8641 149.518 70.8737C149.599 70.8832 149.681 70.8751 149.759 70.85Z" fill="#263238"/>
<path d="M134.328 77.7863L136.562 76.6694C136.562 76.6694 135.735 78.8205 134.328 77.7863Z" fill="#263238"/>
<path d="M163.85 204.301L164.912 350.535C140.091 352.562 116.36 351.803 93.9667 347.418C92.4913 292.551 81.7634 232.086 110.39 204.301H163.85Z" fill="#263238"/>
<path opacity="0.2" d="M136.204 303.265L130.605 255.141L144.05 241.256L136.204 303.265Z" fill="black"/>
<path d="M170.193 138.996C169.517 126.159 167.435 121.07 158.996 119.526C150.557 117.982 142.629 117.099 142.629 117.099C145.5 118.977 147.934 121.45 149.766 124.351C151.598 127.252 152.786 130.512 153.249 133.911C153.712 137.311 153.439 140.77 152.449 144.055C151.459 147.34 149.774 150.373 147.51 152.951C141.829 142.388 120.277 125.841 125.448 117.223C120.408 116.967 115.356 117.328 110.404 118.299C102.13 119.898 99.7033 125.621 101.744 138.362C106.998 170.904 102.985 210.424 102.985 210.424C102.985 210.424 133.776 224.93 144.008 227.701C160.293 223.73 163.878 212.34 163.878 212.34C163.878 212.34 170.938 151.903 170.193 138.996Z" fill="#00BD62"/>
<path opacity="0.6" d="M170.193 138.996C169.517 126.159 167.435 121.07 158.996 119.526C150.557 117.982 142.629 117.099 142.629 117.099C145.5 118.977 147.934 121.45 149.766 124.351C151.598 127.252 152.786 130.512 153.249 133.911C153.712 137.311 153.439 140.77 152.449 144.055C151.459 147.34 149.774 150.373 147.51 152.951C141.829 142.388 120.277 125.841 125.448 117.223C120.408 116.967 115.356 117.328 110.404 118.299C102.13 119.898 99.7033 125.621 101.744 138.362C106.998 170.904 102.985 210.424 102.985 210.424C102.985 210.424 133.776 224.93 144.008 227.701C160.293 223.73 163.878 212.34 163.878 212.34C163.878 212.34 170.938 151.903 170.193 138.996Z" fill="white"/>
<path d="M135.569 162.479C135.569 164.175 134.618 165.554 133.459 165.554C132.301 165.554 131.35 164.175 131.35 162.479C131.35 160.783 132.301 159.404 133.459 159.404C134.618 159.404 135.569 160.783 135.569 162.479Z" fill="#263238"/>
<path d="M125.778 190.153L137.843 144.194C138.057 143.494 138.49 142.882 139.078 142.447C139.667 142.013 140.38 141.779 141.111 141.781L173.971 143.008C174.289 143.002 174.603 143.072 174.889 143.212C175.174 143.351 175.422 143.557 175.613 143.812C175.803 144.067 175.929 144.363 175.982 144.677C176.034 144.99 176.011 145.312 175.915 145.615L163.794 191.574C163.583 192.275 163.151 192.889 162.562 193.324C161.973 193.758 161.259 193.991 160.526 193.987L127.681 192.76C127.366 192.759 127.057 192.685 126.776 192.542C126.496 192.4 126.254 192.193 126.068 191.939C125.883 191.685 125.76 191.391 125.71 191.081C125.659 190.771 125.682 190.453 125.778 190.153Z" fill="#263238"/>
<path d="M126.123 190.967L138.244 145.008C138.453 144.306 138.885 143.691 139.475 143.255C140.064 142.82 140.779 142.588 141.512 142.595L174.357 143.822C174.676 143.813 174.993 143.88 175.28 144.019C175.567 144.158 175.817 144.364 176.007 144.62C176.198 144.875 176.324 145.173 176.376 145.488C176.427 145.803 176.402 146.125 176.302 146.428L164.195 192.401C163.978 193.101 163.542 193.712 162.951 194.144C162.36 194.576 161.645 194.806 160.913 194.8L128.067 193.573C127.749 193.583 127.432 193.515 127.145 193.376C126.858 193.237 126.608 193.031 126.418 192.776C126.227 192.52 126.1 192.222 126.049 191.907C125.998 191.593 126.023 191.27 126.123 190.967Z" fill="#00BD62"/>
<path d="M121.807 175.468L122.386 170.325L130.218 162.217C131.366 161.039 132.886 160.294 134.52 160.107L137.857 159.721C138.408 159.652 138.965 159.784 139.426 160.093C139.888 160.402 140.221 160.868 140.367 161.403L141.994 167.691C142.115 168.253 142.031 168.839 141.758 169.345C141.485 169.85 141.041 170.242 140.505 170.449L133.238 172.903C133.238 172.903 126.509 177.702 121.807 175.468Z" fill="#FFB573"/>
<path d="M117.96 133.122C117.464 133.77 116.829 134.652 116.264 135.438L114.54 137.934C113.391 139.616 112.288 141.322 111.231 143.05C109.117 146.47 107.18 149.995 105.426 153.612C103.747 157.065 102.363 160.654 101.289 164.34C100.289 167.536 99.8547 170.882 100.007 174.227L96.904 169.111C96.0353 168.56 96.0629 168.753 96.2559 168.794C96.6027 168.905 96.9578 168.988 97.3177 169.042C98.3796 169.228 99.4532 169.338 100.531 169.373C103.01 169.444 105.492 169.366 107.963 169.139C110.5 168.918 113.037 168.56 115.519 168.091C117.941 167.639 120.328 167.017 122.662 166.229L127.24 177.261C124.435 178.531 121.54 179.596 118.58 180.446C115.713 181.294 112.805 181.993 109.866 182.542C106.858 183.111 103.819 183.498 100.765 183.7C99.0799 183.811 97.3894 183.811 95.7044 183.7C94.6835 183.638 93.6692 183.495 92.6708 183.273C91.0689 182.952 89.5489 182.31 88.2031 181.384L85.5969 179.674L85.1006 176.282C84.4025 171.027 84.6782 165.689 85.9141 160.534C86.9771 155.873 88.4348 151.311 90.2715 146.897C92.0283 142.634 94.0028 138.464 96.187 134.404C97.2626 132.391 98.3795 130.401 99.5377 128.433L101.33 125.496C101.951 124.49 102.516 123.593 103.275 122.477L117.96 133.122Z" fill="#00BD62"/>
<path opacity="0.6" d="M117.96 133.122C117.464 133.77 116.829 134.652 116.264 135.438L114.54 137.934C113.391 139.616 112.288 141.322 111.231 143.05C109.117 146.47 107.18 149.995 105.426 153.612C103.747 157.065 102.363 160.654 101.289 164.34C100.289 167.536 99.8547 170.882 100.007 174.227L96.904 169.111C96.0353 168.56 96.0629 168.753 96.2559 168.794C96.6027 168.905 96.9578 168.988 97.3177 169.042C98.3796 169.228 99.4532 169.338 100.531 169.373C103.01 169.444 105.492 169.366 107.963 169.139C110.5 168.918 113.037 168.56 115.519 168.091C117.941 167.639 120.328 167.017 122.662 166.229L127.24 177.261C124.435 178.531 121.54 179.596 118.58 180.446C115.713 181.294 112.805 181.993 109.866 182.542C106.858 183.111 103.819 183.498 100.765 183.7C99.0799 183.811 97.3894 183.811 95.7044 183.7C94.6835 183.638 93.6692 183.495 92.6708 183.273C91.0689 182.952 89.5489 182.31 88.2031 181.384L85.5969 179.674L85.1006 176.282C84.4025 171.027 84.6782 165.689 85.9141 160.534C86.9771 155.873 88.4348 151.311 90.2715 146.897C92.0283 142.634 94.0028 138.464 96.187 134.404C97.2626 132.391 98.3795 130.401 99.5377 128.433L101.33 125.496C101.951 124.49 102.516 123.593 103.275 122.477L117.96 133.122Z" fill="white"/>
</svg>
