<svg width="989" height="710" viewBox="0 0 989 710" fill="none" xmlns="http://www.w3.org/2000/svg">
<path opacity="0.04" d="M163.123 758.238C163.127 758.237 163.129 758.233 163.126 758.23C108.099 688.071 120.371 586.592 190.525 531.563C260.681 476.532 362.168 488.8 417.199 558.956C450.599 601.548 495.87 633.206 547.214 650.011C550.962 651.238 554.945 649.079 556.074 645.3C561.816 626.063 567.563 606.825 573.305 587.582C574.433 583.803 572.278 579.838 568.542 578.575C531.965 566.212 499.726 543.435 475.839 512.962C395.407 410.425 247.088 392.493 144.535 472.922C41.9979 553.354 24.0659 701.673 104.495 804.226C257.086 998.771 504.185 1093.43 747.38 1051.01C751.265 1050.33 753.838 1046.6 753.119 1042.72C749.458 1022.98 745.797 1003.24 742.137 983.498C741.418 979.62 737.68 977.065 733.794 977.738C517.885 1015.1 298.589 930.956 163.12 758.246C163.118 758.243 163.119 758.239 163.123 758.238Z" fill="#00BD62"/>
<path opacity="0.04" d="M319.54 635.571C319.541 635.571 319.542 635.569 319.541 635.568C306.836 619.381 283.424 616.555 267.236 629.249C251.046 641.953 248.22 665.367 260.914 681.556C368.993 819.35 544.47 885.961 716.762 854.607C780.402 843.019 840.961 818.48 894.686 782.538C897.965 780.345 898.774 775.892 896.532 772.648C885.116 756.131 873.699 739.62 862.284 723.103C860.041 719.859 855.576 719.065 852.293 721.25C679.954 835.903 447.793 799.069 319.539 635.574C319.538 635.573 319.538 635.572 319.54 635.571Z" fill="#00BD62"/>
<path opacity="0.04" d="M799.161 858.204C799.155 858.203 799.149 858.204 799.143 858.206C597.871 930.012 373.232 865.049 241.35 696.906C220.186 669.917 224.908 630.891 251.887 609.728C278.876 588.564 317.901 593.285 339.065 620.264C443.379 753.26 623.882 799.147 778.737 732.892C782.363 731.34 783.977 727.099 782.357 723.503C774.11 705.199 765.862 686.894 757.608 668.584C755.987 664.989 751.751 663.402 748.118 664.936C624.539 717.131 480.847 680.295 397.693 574.277C351.13 514.908 265.259 504.533 205.89 551.097C146.52 597.661 136.146 683.531 182.71 742.9C343.912 948.426 623.727 1018.21 862.253 913.264C865.863 911.675 867.466 907.429 865.833 903.839C857.52 885.56 849.207 867.286 840.888 849.008C839.255 845.42 835.024 843.839 831.412 845.419C820.822 850.053 810.09 854.312 799.178 858.202C799.173 858.204 799.167 858.205 799.161 858.204Z" fill="#00BD62"/>
<path opacity="0.04" d="M590.231 95.2375C590.235 95.2306 590.243 95.2259 590.251 95.2247C664.942 84.5807 716.856 15.3997 706.22 -59.2833C695.572 -133.981 626.398 -185.902 551.71 -175.266C293.11 -138.421 92.7543 68.9959 64.3857 328.054C63.9564 331.974 66.832 335.486 70.7571 335.867C90.7395 337.806 110.722 339.741 130.713 341.68C134.639 342.061 138.125 339.186 138.562 335.266C139.843 323.767 141.523 312.337 143.607 300.943C182.054 90.72 350.637 -71.3399 562.185 -101.477C596.135 -106.31 627.582 -82.7143 632.414 -48.7653C637.246 -14.8154 613.651 16.6318 579.702 21.474C412.37 45.3098 282.386 178.694 262.332 345.922C261.862 349.838 264.729 353.357 268.654 353.751C288.629 355.759 308.609 357.772 328.583 359.78C332.507 360.174 336 357.3 336.488 353.387C353.094 220.265 456.824 114.251 590.211 95.2502C590.219 95.2491 590.226 95.2444 590.231 95.2375Z" fill="#00BD62"/>
<path opacity="0.04" d="M576.136 -3.15384C576.133 -3.15872 576.136 -3.16514 576.142 -3.16595C596.509 -6.0794 610.655 -24.9401 607.758 -45.2995C604.861 -65.6734 585.986 -79.8356 565.623 -76.9282C392.258 -52.2285 246.82 66.4371 187.842 231.345C166.052 292.251 157.031 356.971 161.3 421.467C161.561 425.402 165.013 428.33 168.944 428.01C188.957 426.38 208.966 424.75 228.98 423.12C232.911 422.8 235.83 419.33 235.579 415.394C222.429 208.826 370.41 26.1708 576.13 -3.14172C576.136 -3.14253 576.139 -3.14895 576.136 -3.15384Z" fill="#00BD62"/>
<path opacity="0.04" d="M548.109 -199.835C548.111 -199.841 548.116 -199.846 548.122 -199.847C636.391 -212.413 718.145 -151.051 730.715 -62.7798C743.288 25.4928 681.925 107.253 593.65 119.824C540.065 127.461 490.012 150.825 449.785 186.889C446.848 189.522 446.726 194.05 449.435 196.917C463.225 211.51 477.016 226.103 490.806 240.697C493.515 243.564 498.027 243.681 500.989 241.076C529.984 215.583 565.828 199.048 604.154 193.591C733.174 175.213 822.855 55.7158 804.477 -73.2889C786.109 -202.299 666.612 -291.99 537.597 -273.612C292.821 -238.733 87.2961 -72.0607 2.42411 159.761C1.06805 163.465 3.0146 167.56 6.73286 168.876C25.658 175.576 44.5836 182.282 63.5082 188.982C67.2258 190.298 71.3063 188.338 72.667 184.637C148.272 -21.0375 330.779 -168.878 548.096 -199.824C548.102 -199.824 548.107 -199.829 548.109 -199.835Z" fill="#00BD62"/>
<path opacity="0.04" d="M1142.12 -45.216C1142.13 -45.2155 1142.13 -45.2143 1142.12 -45.2136C1125.05 -30.631 1107.97 -16.0412 1090.89 -1.45678C1087.89 1.10471 1087.55 5.61899 1090.08 8.64849C1230.39 176.954 1267.15 408.931 1185.31 612.621C1152.06 695.361 1058.05 735.481 975.304 702.232C892.564 668.982 852.444 574.965 885.694 492.222C905.878 441.994 910.661 386.962 899.544 334.104C898.732 330.245 894.872 327.874 891.035 328.787C871.505 333.431 851.974 338.081 832.444 342.726C828.606 343.638 826.248 347.488 827.023 351.355C834.605 389.219 830.998 428.521 816.559 464.443C767.971 585.368 826.609 722.787 947.525 771.367C1068.45 819.955 1205.87 761.317 1254.45 640.391C1347.52 408.764 1304.24 144.61 1142.12 -45.2138C1142.12 -45.2151 1142.12 -45.217 1142.12 -45.216Z" fill="#00BD62"/>
<path opacity="0.04" d="M1000.97 538.489C1000.97 538.488 1000.96 538.487 1000.96 538.488C993.3 557.584 1002.56 579.272 1021.64 586.951C1040.74 594.62 1062.43 585.36 1070.11 566.273C1135.41 403.78 1105.35 218.5 992.052 84.9823C950.202 35.6552 898.66 -4.52059 840.668 -33.0714C837.129 -34.8133 832.869 -33.288 831.18 -29.7241C822.583 -11.5774 813.99 6.56452 805.392 24.7108C803.703 28.2755 805.249 32.5391 808.783 34.2905C994.242 126.191 1078.43 345.675 1000.97 538.489C1000.97 538.491 1000.97 538.49 1000.97 538.489Z" fill="#00BD62"/>
<path opacity="0.04" d="M1093.16 575.549C1093.16 575.555 1093.16 575.561 1093.16 575.566C1080.37 607.384 1044.21 622.809 1012.39 610.024C980.571 597.238 965.141 561.07 977.928 529.247C1040.95 372.416 990.432 193.136 855.629 92.1596C852.472 89.7949 847.992 90.5187 845.688 93.7202C833.961 110.017 822.232 126.313 810.5 142.609C808.195 145.81 808.938 150.274 812.084 152.654C919.073 233.587 959.014 376.436 908.783 501.444C880.648 571.45 914.598 651.01 984.604 679.145C1054.61 707.281 1134.17 673.33 1162.31 603.325C1259.7 360.955 1180.24 83.745 970.074 -70.3604C966.894 -72.6927 962.414 -71.9576 960.122 -68.7481C948.452 -52.411 936.783 -36.0739 925.114 -19.7367C922.821 -16.5268 923.569 -12.0703 926.746 -9.73211C936.064 -2.87425 945.118 4.29505 953.95 11.7989C1116.78 150.209 1172.84 377.228 1093.17 575.531C1093.16 575.537 1093.16 575.543 1093.16 575.549Z" fill="#00BD62"/>
</svg>
